<svg width="89" height="16" viewBox="0 0 89 16" fill="none" xmlns="http://www.w3.org/2000/svg">
<path d="M0.222168 1H88.2222V15H0.222168V1Z" fill="#C02B53"/>
<path d="M2.16528 0.0101698C3.30844 -0.015883 4.80693 0.0119737 5.94577 0.0502087C6.30269 0.0620673 6.12196 0.115075 6.36834 0.125648C6.8502 0.146258 7.29913 0.120261 7.77532 0.144813C7.93313 0.153209 7.73669 0.237174 7.90217 0.244056C8.80896 0.281163 9.66681 0.259777 10.5854 0.277625C15.1101 0.365685 19.5577 0.397205 24.1378 0.435461C25.6479 0.448004 27.4837 0.524206 29.0435 0.490881C29.2256 0.486916 29.1171 0.413216 29.1517 0.407141C29.6951 0.31415 29.5144 0.462935 29.8692 0.482702C31.2773 0.560754 32.8432 0.567542 34.1983 0.539099C34.7749 0.526782 34.1968 0.380395 34.7773 0.462561C34.8176 0.468112 34.6713 0.546377 34.8294 0.554724C35.188 0.573498 35.8683 0.559509 36.1462 0.56571C36.6817 0.578057 36.7703 0.577269 37.2769 0.578161C37.9694 0.580061 38.793 0.618966 39.536 0.601232C39.6946 0.597215 39.4846 0.516985 39.7375 0.503332C39.9907 0.489702 40.6604 0.496505 40.8862 0.515417C41.112 0.534339 41.0158 0.597399 41.0558 0.611852C41.3846 0.733849 42.1593 0.564884 42.2589 0.560705C44.0762 0.489506 45.6347 0.58576 47.3406 0.585485C48.6356 0.585073 50.0203 0.553296 51.2526 0.557653C52.7206 0.563155 53.9649 0.606631 55.391 0.599157C55.5415 0.598461 55.3652 0.504129 55.549 0.503088C57.5021 0.492111 59.4416 0.502394 61.3863 0.566076C61.5813 0.572546 61.33 0.655368 61.5248 0.666784C62.7178 0.734849 64.6053 0.898357 65.3139 0.537756C66.1219 0.551837 67.103 0.566385 67.8259 0.639074C68.292 0.685858 67.8393 0.776084 68.4119 0.737585C68.541 0.729007 68.3731 0.649991 68.5667 0.643102C69.3821 0.614176 70.2729 0.639861 71.0795 0.599035C71.2436 0.590545 71.1988 0.519744 71.2453 0.506994C71.636 0.403741 72.2864 0.574425 72.4282 0.586828C73.5078 0.679315 74.2963 0.642919 75.3021 0.645178C75.5355 0.645741 75.2596 0.550639 75.4842 0.547766C76.649 0.534136 77.8556 0.54231 78.9962 0.584509C79.2499 0.594124 79.0166 0.675134 79.1378 0.683874C79.6724 0.721424 79.7909 0.568417 80.3035 0.601477C80.4116 0.60825 80.3507 0.6776 80.3705 0.685217C80.679 0.804778 80.9471 0.635368 81.0265 0.631628C82.0304 0.580523 82.6722 0.757378 83.642 0.732336C83.758 0.729161 83.4964 0.641412 83.8226 0.637853C85.2606 0.621822 86.7534 0.626958 88.2222 0.652611L88.5661 0.649239L88.5696 1C88.5564 1.75052 88.538 2.49473 88.5142 3.2221C88.5034 3.5565 88.4375 3.31779 88.4294 3.33883C88.3024 3.68179 88.4726 3.90372 88.479 4.01275C88.5251 4.87296 88.3824 5.6765 88.585 6.26097C88.5286 9.18417 88.5907 12.0966 88.5237 15L88.5266 15.2985L88.2222 15.3015C87.5072 15.285 86.7928 15.2607 86.0788 15.2248C86.0329 15.2227 86.1152 15.1389 86.0236 15.1351C84.9201 15.0881 85.132 15.2183 84.4018 15.3775C84.2179 15.4175 83.6584 15.2252 83.6088 15.2111C83.4285 15.1592 83.6156 15.0346 83.5551 15.0245C83.0553 14.9455 83.1368 15.3577 82.4626 15.3579C82.4415 15.3572 82.53 15.2813 82.4734 15.2738C82.2976 15.2501 82.1233 15.2802 81.9513 15.2541C81.5575 15.1937 81.4173 14.9934 80.8159 15.11C80.7398 15.1251 80.856 15.3589 80.254 15.3479C80.014 15.3433 78.9518 15.3473 78.654 15.3321C78.3567 15.317 78.5609 15.2416 78.5396 15.2384C77.7384 15.1387 78.0422 15.0974 77.6408 14.9499C77.2395 14.803 77.3508 15.1535 77.1871 15.1926C77.0232 15.2316 76.4358 15.1494 76.2914 15.1208C76.1472 15.0922 76.3271 15.0443 76.1988 15.0282C75.3481 14.9225 75.8254 15.2021 75.5451 15.2578C74.8843 15.3895 74.3696 15.1296 73.7646 15.1041C73.6009 15.0972 73.7345 15.1564 73.5887 15.162C73.0114 15.1831 72.6642 15.102 72.0074 15.1764C71.9 15.1885 71.369 15.3448 71.0254 15.2301C70.9767 15.2135 71.115 15.1488 70.8689 15.1342C70.5014 15.1125 69.8392 15.0983 69.444 15.12C69.1524 15.136 69.4867 15.2427 69.1195 15.2096C68.9564 15.1948 69.2588 15.1323 68.9522 15.1097C68.6473 15.0871 67.8676 15.0899 67.5709 15.092C67.2748 15.0942 67.4369 15.1752 67.4129 15.1806C67.2681 15.2119 66.6998 15.2509 66.6495 15.2508C64.1162 15.2607 61.78 15.1242 59.3134 15.1694C59.1199 15.1728 59.2488 15.2582 59.2193 15.2596C58.5566 15.2954 59.0791 15.0684 58.6162 14.9924C58.6831 15.1657 58.4098 15.1343 57.943 15.1533C57.7181 15.1626 57.8406 15.2297 57.8201 15.2365C57.4865 15.3384 57.2542 15.2068 57.1944 15.1799C56.9735 15.0809 56.7331 15.1979 56.5827 15.1317C56.4325 15.066 56.7783 14.9686 56.3306 14.9698C56.2051 15.0318 56.5374 15.1939 56.1975 15.2202C54.9151 15.3195 52.5213 15.1924 51.4902 15.1792C50.4612 15.166 50.1288 15.1774 49.5291 15.155C48.446 15.1145 48.8429 15.2347 48.1704 15.2898C47.4959 15.3448 47.8238 15.0489 47.7268 14.9853C47.6316 14.9217 47.5277 14.9872 47.4093 14.9522C47.2913 14.9173 47.5468 14.874 47.2692 14.8609C46.9915 14.8478 46.2323 14.9609 46.1339 15.0274C45.9258 15.1683 46.2679 15.3162 45.5331 15.2642C45.4908 15.2612 45.628 15.1834 45.4662 15.1755C44.1809 15.1156 42.8456 15.1119 41.5619 15.0589C41.3854 15.0515 41.5432 14.965 41.4405 14.9597C40.3706 14.9043 40.753 15.0503 40.1666 15.2124C40.2983 14.9966 39.974 14.8646 39.162 14.8634C38.6738 14.8625 38.7579 14.9567 38.4421 15.0232C38.3474 15.0432 38.002 14.9785 37.9394 15.0228C37.733 15.1676 38.0584 15.3298 37.2211 15.2652C37.1844 15.2622 37.3014 15.1829 37.1744 15.1781C36.354 15.1466 36.2558 15.2981 35.369 15.3165C34.6739 15.3309 33.4376 15.2385 32.6461 15.2235C32.6627 14.9809 31.9151 15.0365 31.6119 15.2037C31.0982 15.1969 30.5434 15.2063 30.0469 15.1832C29.876 15.1753 29.9883 15.1051 29.9668 15.0975C29.6363 14.9785 29.413 15.1412 29.3022 15.1475C28.1005 15.2096 27.1214 15.0862 25.9746 15.2068C25.9339 15.2111 25.8679 15.3796 25.5614 15.2566C25.5415 15.2481 25.9203 15.1714 25.3808 15.1655C24.8412 15.1596 23.8241 15.0692 23.075 15.1473C22.8937 15.1661 22.4352 15.3029 22.0672 15.196C22.0182 15.1815 22.0719 15.1332 22.0011 15.1063C21.7723 15.0206 21.6474 15.1909 21.3785 15.0462C21.1096 14.9016 20.5503 14.7932 19.7949 14.893C19.7708 14.8959 19.592 15.0309 19.3544 15.0288C18.9752 15.0253 18.4368 14.9971 18.0408 14.998C17.8512 14.9985 17.9726 15.0823 17.9397 15.0838C16.6649 15.1308 15.7576 15.0561 14.3919 15.0236C14.1415 15.0175 13.4221 15.1318 12.9374 15.0415C12.4052 14.9426 12.9521 14.5311 11.7289 14.6291C11.2355 14.6683 10.6109 15.1903 9.72421 14.9199C8.00466 14.9869 6.41439 14.8485 4.69004 14.9442C4.6125 14.9484 4.3673 15.0941 4.18499 15.0921C3.91435 15.0889 3.76578 15.0208 3.57255 15.0163C2.76279 14.9958 2.0218 15.0541 1.24106 15.045C0.944643 15.0417 1.04831 14.9713 0.694761 14.9674C0.523257 14.9655 0.379471 14.9864 0.222168 15.0032C0.201051 14.8332 0.187687 14.6513 0.210728 14.4049C0.24486 14.0433 0.434366 13.6818 0.456455 13.2018C0.269528 13.1835 0.273378 12.8539 0.224034 12.268C0.21446 12.1553 0.149399 12.2761 0.141515 12.2228C0.107982 12.006 0.161903 11.8054 0.125401 11.5995C0.116635 11.5494 0.0527979 11.5471 0.0420276 11.5061C-0.051984 11.158 0.0916105 10.5844 0.116612 10.4859C0.211564 10.1083 0.128537 9.93191 0.165929 9.64232C0.203315 9.35321 0.250052 9.7855 0.27274 9.44777C0.319667 8.74773 0.309357 7.84827 0.31229 7.1373C0.313067 6.85362 0.227855 7.04716 0.225987 7.00656C0.204375 6.41997 0.295016 5.82677 0.125279 5.50152C0.564156 5.09482 0.0827106 5.14779 0.170567 4.30932C0.177673 4.24327 0.385215 4.15925 0.415684 4.41282C0.446124 4.66638 0.38125 5.05088 0.428745 5.40269C0.439891 5.48601 0.634371 5.96325 0.646152 6.02836C0.738222 6.53842 0.428079 6.6107 0.411045 6.63769C0.227214 6.94371 0.436729 7.52691 0.451206 7.68048C0.517541 8.38306 0.473925 8.97998 0.521274 9.56762C0.551876 9.95195 0.755031 9.98954 0.748812 10.2913C0.728259 11.2946 0.444857 11.6448 0.690585 12.5901C0.742994 12.7929 0.965036 12.5914 0.790438 13.3178C0.779431 13.3634 0.619706 13.9027 0.720736 14.2142C0.733475 14.2534 0.798186 14.2521 0.803622 14.3037C0.830076 14.5639 0.807449 14.7589 0.805132 15L0.222168 14.417C0.301515 14.4178 0.385888 14.4164 0.479204 14.4102C0.855922 14.3856 1.30897 14.3487 1.7391 14.3707C1.99834 14.3838 2.33095 14.5044 2.45505 14.5339C2.80545 14.6189 3.18114 14.4795 3.39823 14.5825C3.61715 14.686 3.18916 14.8431 3.76321 14.91C3.78446 14.7419 3.83331 14.5693 3.86748 14.4002C5.12546 14.4062 6.36323 14.4605 7.62541 14.4531C7.78189 14.452 7.62185 14.3616 7.78961 14.3581C8.49736 14.3438 9.11554 14.4082 9.8495 14.3825C10.4176 14.3623 11.0406 14.2666 11.6347 14.2425C11.9976 14.4349 12.8791 14.3696 13.5195 14.3872C13.7438 14.3932 13.7288 14.4446 13.8884 14.4614C14.4902 14.5234 14.2082 14.3534 14.3732 14.3266C15.0811 14.2124 15.1417 14.5972 15.9763 14.5877C16.0205 14.5874 16.561 14.3822 16.6354 14.3695C17.1084 14.2862 16.7137 14.4409 17.0097 14.456C17.5502 14.4837 17.9258 14.5327 18.5599 14.4726C18.7448 14.4548 19.1884 14.327 19.5474 14.4259C19.5947 14.4388 19.5686 14.5066 19.6066 14.5106C20.2948 14.5768 20.3129 14.3637 20.7062 14.2916C21.0995 14.2195 21.707 14.3665 21.8307 14.4089C22.1541 14.5185 21.5828 14.4558 21.5653 14.4665C21.3595 14.5946 21.8026 14.5725 22.1412 14.5833C22.1902 14.7922 22.6636 14.7797 22.4921 14.5937C22.4726 14.5734 22.2092 14.5929 22.1412 14.5833C22.4383 14.3784 22.9587 14.3522 23.5334 14.5437C23.8024 14.6334 23.5481 14.7381 24.3653 14.6998C24.7361 14.6825 24.5928 14.5387 24.9201 14.4995C25.6678 14.41 26.6395 14.5442 27.4104 14.523C27.6901 14.5154 27.4176 14.4366 27.6088 14.4287C28.1162 14.4073 28.5638 14.4664 29.0734 14.4361C29.1195 14.4333 29.0067 14.3509 29.1652 14.3498C30.3666 14.3403 31.4127 14.393 32.6671 14.3945C33.2732 14.3952 34.3567 14.3497 34.9846 14.3589C36.0727 14.3742 37.4114 14.494 38.341 14.4649C38.9473 14.4463 38.8142 14.3639 39.074 14.3077C39.5753 14.1988 40.4627 14.3938 40.5822 14.424C40.5858 14.425 40.0641 14.4445 40.3425 14.4868C40.5043 14.5749 40.5763 14.4244 40.5822 14.424C40.6606 14.4435 41.7029 14.4623 41.9098 14.4465C42.0222 14.4379 41.9593 14.3598 42.018 14.3568C43.4115 14.2869 44.8076 14.267 46.221 14.3036C46.2459 14.3051 46.2084 14.3925 46.2669 14.3951C47.0852 14.4339 47.6091 14.3271 48.284 14.2636C48.9588 14.2002 49.4939 14.2215 49.8933 14.3714C50.4025 14.3525 51.1329 14.4188 51.5532 14.4591C51.9735 14.4993 52.0322 14.3293 52.0692 14.3259C53.2227 14.2183 53.8895 14.3156 55.0863 14.3308C55.6552 14.3383 56.7838 14.3136 57.3998 14.295C57.8867 14.28 58.18 14.3199 58.6286 14.2944C58.6893 14.291 58.628 14.2153 58.6465 14.2124C59.1472 14.1218 58.9066 14.3069 59.0099 14.3399C59.3847 14.4601 59.6162 14.5242 60.2574 14.4676C60.4053 14.4547 60.8361 14.1882 61.1056 14.1726C61.4561 14.1528 61.3238 14.2483 61.6908 14.2252C61.7222 14.2233 61.7157 14.1644 61.9422 14.167C62.9936 14.1782 64.1399 14.2125 65.2324 14.2066C65.3817 14.2061 65.1903 14.1126 65.406 14.1102C66.4178 14.0991 67.5268 14.1026 68.5125 14.1463C68.7552 14.1574 68.6031 14.2228 68.6557 14.2423C68.9791 14.3599 69.4377 14.189 69.5133 14.1858C71.3181 14.1037 72.6994 14.2583 74.5389 14.1847C74.6391 14.1803 75.4098 13.9972 75.7537 14.1543C75.7772 14.1647 76.1175 14.3254 76.4183 14.2155C76.437 14.2087 76.225 14.1259 76.5949 14.1344C76.9649 14.1428 77.5603 14.0875 78.0688 14.1784C78.2298 14.2071 78.6104 14.3674 79.0906 14.2396C79.1219 14.2307 79.8633 13.9417 80.128 14.1411C80.1709 14.1739 80.1259 14.3849 80.6992 14.2767C80.8087 14.2557 80.6099 14.2087 80.8984 14.1793C81.3404 14.134 81.9261 14.1905 82.4696 14.0965C82.5643 14.0799 82.9677 13.9367 83.2913 14.0454C83.342 14.0624 83.2457 14.1328 83.4166 14.1407C84.2293 14.1785 85.0802 14.1314 85.9053 14.1801C86.1976 14.1973 86.0481 14.3111 86.3528 14.3416C86.6575 14.3721 87.2713 14.4015 87.5901 14.3495C87.909 14.2974 87.5606 14.1159 88.0384 14.1014C88.0996 14.0995 88.1609 14.0978 88.2222 14.0963L87.3184 15C87.2667 12.9856 87.3674 10.9886 87.3825 8.97611C87.3849 8.66854 87.3199 8.92352 87.3187 8.47028C87.3139 6.79922 87.253 3.91415 87.391 2.46413C87.5015 1.30233 87.5856 2.76439 87.6306 1.87659C87.6472 1.54383 87.5237 1.18992 87.4646 1L88.2222 1.7576C88.1676 1.7746 88.1265 1.78627 88.1034 1.78775C87.0931 1.85522 86.391 1.76176 85.4817 1.79044C85.2939 1.79639 85.4781 1.8819 85.3183 1.88602C84.7724 1.90085 84.1987 1.86268 83.677 1.86966C83.443 1.87299 83.4862 1.9383 83.2708 1.93326C82.7556 1.92195 82.3 1.8945 81.7977 1.83328C81.7519 1.82771 82.0606 1.74646 81.6794 1.74344C81.0624 1.73878 80.2966 1.67839 79.5868 1.74076C79.3762 1.75951 79.368 1.90878 78.9152 1.8057C78.8203 1.78417 78.9414 1.60493 78.4141 1.7598C78.3254 1.78553 77.4395 1.99442 77.0048 1.85977C76.8901 1.82434 76.5973 1.67767 76.3441 1.70072C76.3097 1.70439 76.4473 1.78457 76.2374 1.79239C75.4978 1.81856 74.7226 1.81 73.9628 1.83512C73.7599 1.84198 74.0621 1.92495 73.7597 1.93253C72.928 1.9535 71.8897 1.93237 71.0764 1.9064C70.7766 1.89667 70.9838 1.82795 70.962 1.82047C70.6112 1.69882 70.4038 1.86302 70.2873 1.87259C69.5632 1.92992 69.0117 1.85279 68.3442 1.8732C68.16 1.87863 68.2906 1.95692 68.2539 1.9639C67.8736 2.03211 68.1569 1.89151 67.9162 1.87601C67.2418 1.83212 66.49 1.83842 65.808 1.84842C65.5575 1.85221 65.8391 1.94299 65.6142 1.94534C64.2837 1.96099 62.9004 1.9523 61.6018 1.90225C61.3573 1.89267 61.5112 1.82276 61.4602 1.80679C61.109 1.69509 60.5942 1.84746 60.4758 1.86197C59.9373 1.92824 59.7281 1.86642 59.2525 1.87796C56.9291 1.93541 54.0604 1.89447 51.8673 1.86917C49.0095 1.83662 46.7919 1.77012 44.0667 1.78739C43.8935 1.7884 44.0681 1.88139 43.9188 1.88345C41.9911 1.90587 40.0933 1.86953 38.1617 1.89639C38.0032 1.89843 38.2317 1.98659 37.9773 1.99283C37.4554 2.00624 36.7944 2.00145 36.2668 1.9733C36.0094 1.95974 36.3546 1.88409 36.0956 1.87198C35.4924 1.84362 34.8459 1.83734 34.2263 1.85147C33.9627 1.85768 34.3605 1.94784 34.0178 1.94888C31.6834 1.95783 29.3908 1.97336 27.0319 1.8566C26.8702 1.84858 26.7283 1.66533 26.3844 1.70047C26.3585 1.75133 26.3599 1.81115 26.3486 1.86551C22.9504 1.89479 19.5869 1.83127 16.1791 1.82144C16.0354 1.82105 16.2837 1.91815 16.0056 1.91788C14.3956 1.91644 12.8322 1.94334 11.1854 1.84683C11.022 1.8374 11.1058 1.66658 10.6243 1.69242C10.5394 1.69713 9.81416 1.71991 9.62666 1.75699C9.60119 1.76258 9.7335 1.84231 9.49981 1.84464C8.14176 1.85674 6.7186 1.83854 5.3629 1.78983C5.1441 1.78181 5.37711 1.69691 5.22127 1.69046C4.11583 1.64539 2.91342 1.70993 1.85711 1.63285C1.15006 1.58094 1.41183 1.43417 1.03611 1.28971C0.982969 1.26932 0.545141 1.26609 0.522499 1.18204C0.464372 0.970681 0.676442 0.739242 0.589424 0.513952C0.57104 0.465427 -0.015326 0.517692 0.33184 0.400427C0.356093 0.392579 0.781211 0.35366 0.885918 0.31388C0.958819 0.286376 0.82745 0.200894 0.97619 0.165687C1.12492 0.130513 1.28835 0.202169 1.53494 0.160804C1.78141 0.118927 1.67304 0.0216813 2.16528 0.0101698ZM53.4458 14.6389C53.835 14.7205 53.8924 14.4214 53.4715 14.493C53.4511 14.4968 53.4257 14.6349 53.4458 14.6389ZM6.35617 14.6861C6.86498 14.818 7.21316 14.6241 6.85422 14.5222C6.49534 14.4204 6.20112 14.6461 6.35617 14.6861ZM1.07997 14.7824C1.67463 14.8865 1.76825 14.4623 1.13133 14.5481C1.09431 14.5529 1.0452 14.7764 1.07997 14.7824ZM2.7785 1.24857C2.77313 1.2446 2.4584 1.24073 2.45088 1.24466C2.28329 1.33965 2.91262 1.34733 2.7785 1.24857ZM0.334873 10.6221C0.277501 10.8077 0.343731 11.3422 0.415073 11.1116C0.472467 10.9259 0.406241 10.3909 0.334873 10.6221ZM73.7483 14.9581C73.7544 14.9626 73.98 14.9666 73.9755 14.9414C73.9602 14.8602 73.6462 14.8831 73.7483 14.9581ZM0.329991 1.72336C0.314026 3.03811 -0.0363243 3.83525 0.00320937 2.40351C0.0103621 2.14423 0.114933 2.9623 0.146519 2.6323C0.204064 2.02846 -0.0159129 1.62751 0.101964 1.01131C0.123539 0.899757 0.33168 1.64836 0.330479 1.7257C0.330316 1.72492 0.330153 1.72414 0.329991 1.72336ZM53.6699 14.9981C53.6777 15.0021 53.9901 15.0058 53.9976 15.0019C54.1667 14.907 53.5375 14.8994 53.6699 14.9981ZM86.9146 15.143C86.9319 15.1515 87.6567 15.1593 87.6804 15.1516C88.0585 14.9963 86.593 14.9799 86.9146 15.143ZM32.6336 15.217C32.2928 15.3125 31.8851 15.3238 31.6134 15.2038C31.9521 15.2102 32.2931 15.2111 32.6336 15.217Z" fill="black"/>
</svg>
