<svg width="53" height="16" viewBox="0 0 53 16" fill="none" xmlns="http://www.w3.org/2000/svg">
<path d="M0.222046 1H52.222V15H0.222046V1Z" fill="#C02B53"/>
<path d="M1.47935 0.0101698C2.21904 -0.015883 3.18866 0.0119737 3.92556 0.0502087C4.1565 0.0620673 4.03956 0.115075 4.19898 0.125648C4.51078 0.146258 4.80126 0.120261 5.10938 0.144813C5.21149 0.153209 5.08438 0.237174 5.19146 0.244056C5.7782 0.281163 6.33329 0.259777 6.92767 0.277625C9.8554 0.365685 12.7333 0.397205 15.6968 0.435461C16.674 0.448004 17.8619 0.524206 18.8712 0.490881C18.989 0.486916 18.9187 0.413216 18.9411 0.407141C19.2928 0.31415 19.1758 0.462935 19.4054 0.482702C20.3166 0.560754 21.3298 0.567542 22.2066 0.539099C22.5797 0.526782 22.2056 0.380395 22.5812 0.462561C22.6073 0.468112 22.5127 0.546377 22.615 0.554724C22.847 0.573498 23.2872 0.559509 23.467 0.56571C23.8135 0.578057 23.8708 0.577269 24.1986 0.578161C24.6467 0.580061 25.1796 0.618966 25.6604 0.601232C25.763 0.597215 25.6272 0.516985 25.7908 0.503332C25.9546 0.489702 26.388 0.496505 26.534 0.515417C26.6802 0.534339 26.618 0.597399 26.6438 0.611852C26.8566 0.733849 27.3578 0.564884 27.4223 0.560705C28.5982 0.489506 29.6066 0.58576 30.7104 0.585485C31.5484 0.585073 32.4444 0.553296 33.2417 0.557653C34.1916 0.563155 34.9967 0.606631 35.9195 0.599157C36.0169 0.598461 35.9028 0.504129 36.0218 0.503088C37.2855 0.492111 38.5405 0.502394 39.7988 0.566076C39.925 0.572546 39.7624 0.655368 39.8885 0.666784C40.6604 0.734849 41.8817 0.898357 42.3402 0.537756C42.8631 0.551837 43.4979 0.566385 43.9656 0.639074C44.2672 0.685858 43.9743 0.776084 44.3448 0.737585C44.4283 0.729007 44.3197 0.649991 44.445 0.643102C44.9726 0.614176 45.549 0.639861 46.0709 0.599035C46.1771 0.590545 46.1481 0.519744 46.1782 0.506994C46.431 0.403741 46.8518 0.574425 46.9436 0.586828C47.6422 0.679315 48.1523 0.642919 48.8032 0.645178C48.9542 0.645741 48.7757 0.550639 48.921 0.547766C49.6747 0.534136 50.4555 0.54231 51.1935 0.584509C51.3576 0.594124 51.2067 0.675134 51.2851 0.683874C51.631 0.721424 51.7077 0.568417 52.0394 0.601477C52.1093 0.60825 52.0699 0.6776 52.0827 0.685217C52.1312 0.714226 52.1781 0.726224 52.222 0.727703L52.4902 0.723641L52.4943 1C52.4897 1.13731 52.5876 1.24626 52.5904 1.28515C52.6415 1.93476 52.4647 2.34999 52.4897 2.97755C52.4929 3.05263 52.5806 2.88333 52.5842 3.09437C52.6084 4.50034 52.5843 5.98732 52.5141 7.379C52.5033 7.59538 52.4374 7.44093 52.4293 7.45454C52.3023 7.67646 52.4724 7.82005 52.4788 7.8906C52.525 8.44721 52.3823 8.96715 52.5849 9.34533C52.5285 11.2368 52.5906 13.1213 52.5236 15L52.5281 15.2969L52.222 15.3015C51.7594 15.285 51.2971 15.2607 50.8352 15.2248C50.8055 15.2227 50.8587 15.1389 50.7994 15.1351C50.0854 15.0881 50.2225 15.2183 49.7501 15.3775C49.631 15.4175 49.269 15.2252 49.237 15.2111C49.1202 15.1592 49.2413 15.0346 49.2022 15.0245C48.8788 14.9455 48.9315 15.3577 48.4952 15.3579C48.4816 15.3572 48.5389 15.2813 48.5023 15.2738C48.3885 15.2501 48.2757 15.2802 48.1644 15.2541C47.9096 15.1937 47.8189 14.9934 47.4297 15.11C47.3805 15.1251 47.4557 15.3589 47.0662 15.3479C46.9109 15.3433 46.2235 15.3473 46.0309 15.3321C45.8385 15.317 45.9706 15.2416 45.9569 15.2384C45.4385 15.1387 45.635 15.0974 45.3753 14.9499C45.1156 14.803 45.1876 15.1535 45.0817 15.1926C44.9757 15.2316 44.5956 15.1494 44.5022 15.1208C44.4088 15.0922 44.5252 15.0443 44.4422 15.0282C43.8918 14.9225 44.2006 15.2021 44.0193 15.2578C43.5917 15.3895 43.2586 15.1296 42.8672 15.1041C42.7612 15.0972 42.8477 15.1564 42.7534 15.162C42.3798 15.1831 42.1551 15.102 41.7302 15.1764C41.6606 15.1885 41.3171 15.3448 41.0947 15.2301C41.0632 15.2135 41.1527 15.1488 40.9935 15.1342C40.7557 15.1125 40.3272 15.0983 40.0715 15.12C39.8828 15.136 40.0991 15.2427 39.8615 15.2096C39.7559 15.1948 39.9516 15.1323 39.7533 15.1097C39.556 15.0871 39.0514 15.0899 38.8595 15.092C38.6679 15.0942 38.7727 15.1752 38.7573 15.1806C38.6635 15.2119 38.2958 15.2509 38.2633 15.2508C36.624 15.2607 35.1124 15.1242 33.5164 15.1694C33.3912 15.1728 33.4746 15.2582 33.4555 15.2596C33.0267 15.2954 33.3648 15.0684 33.0652 14.9924C33.1085 15.1657 32.9317 15.1343 32.6297 15.1533C32.4841 15.1626 32.5634 15.2297 32.5501 15.2365C32.3343 15.3384 32.184 15.2068 32.1453 15.1799C32.0023 15.0809 31.8468 15.1979 31.7495 15.1317C31.6523 15.066 31.876 14.9686 31.5863 14.9698C31.5051 15.0318 31.7202 15.1939 31.5002 15.2202C30.6704 15.3195 29.1215 15.1924 28.4543 15.1792C27.7884 15.166 27.5734 15.1774 27.1854 15.155C26.4845 15.1145 26.7414 15.2347 26.3062 15.2898C25.8697 15.3448 26.0819 15.0489 26.0192 14.9853C25.9576 14.9217 25.8903 14.9872 25.8137 14.9522C25.7374 14.9173 25.9027 14.874 25.7231 14.8609C25.5434 14.8478 25.0521 14.9609 24.9884 15.0274C24.8538 15.1683 25.0752 15.3162 24.5997 15.2642C24.5724 15.2612 24.6611 15.1834 24.5564 15.1755C23.7247 15.1156 22.8608 15.1119 22.0301 15.0589C21.9159 15.0515 22.018 14.965 21.9516 14.9597C21.2592 14.9043 21.5067 15.0503 21.1273 15.2124C21.2125 14.9966 21.0026 14.8646 20.4772 14.8634C20.1613 14.8625 20.2157 14.9567 20.0114 15.0232C19.9501 15.0432 19.7266 14.9785 19.6861 15.0228C19.5526 15.1676 19.7631 15.3298 19.2214 15.2652C19.1976 15.2622 19.2733 15.1829 19.1912 15.1781C18.6603 15.1466 18.5968 15.2981 18.0229 15.3165C17.5732 15.3309 16.7732 15.2385 16.2611 15.2235C16.2718 14.9809 15.7881 15.0365 15.5919 15.2037C15.2595 15.1969 14.9005 15.2063 14.5792 15.1832C14.4687 15.1753 14.5413 15.1051 14.5274 15.0975C14.3136 14.9785 14.1691 15.1412 14.0973 15.1475C13.3198 15.2096 12.6863 15.0862 11.9442 15.2068C11.9179 15.2111 11.8752 15.3796 11.6768 15.2566C11.664 15.2481 11.9091 15.1714 11.56 15.1655C11.2109 15.1596 10.5527 15.0692 10.068 15.1473C9.9507 15.1661 9.65403 15.3029 9.41592 15.196C9.3842 15.1815 9.4189 15.1332 9.37312 15.1063C9.22509 15.0206 9.14426 15.1909 8.97028 15.0462C8.7963 14.9016 8.43439 14.7932 7.94558 14.893C7.93001 14.8959 7.8143 15.0309 7.66058 15.0288C7.41518 15.0253 7.06682 14.9971 6.8106 14.998C6.68791 14.9985 6.76643 15.0823 6.74514 15.0838C5.92026 15.1308 5.33317 15.0561 4.44949 15.0236C4.2875 15.0175 3.82198 15.1318 3.50837 15.0415C3.16402 14.9426 3.51787 14.5311 2.72638 14.6291C2.40713 14.6683 2.00296 15.1903 1.42925 14.9199C1.0183 14.9446 0.618754 14.9414 0.222046 14.9322L0.289829 15C0.305453 14.3226 0.338217 13.6535 0.277867 12.9498C0.273627 12.8996 0.127935 12.741 0.129918 12.623C0.133144 12.4479 0.201238 12.3518 0.205723 12.2267C0.226234 11.7028 0.167975 11.2233 0.177037 10.7181C0.180329 10.5263 0.250738 10.5934 0.254673 10.3646C0.258543 10.136 0.165828 9.98357 0.210606 9.67376C0.244738 9.43979 0.434244 9.20585 0.456333 8.89529C0.269406 8.88345 0.273256 8.67015 0.223912 8.29104C0.214338 8.21817 0.149277 8.29631 0.141393 8.26183C0.10786 8.12154 0.161781 7.99171 0.125279 7.8585C0.116513 7.82609 0.0526758 7.82456 0.0419055 7.79807C-0.052106 7.5728 0.0914884 7.20167 0.11649 7.13793C0.211442 6.89363 0.128415 6.77947 0.165807 6.59209C0.203193 6.40502 0.24993 6.68473 0.272618 6.46621C0.319545 6.01324 0.309235 5.43123 0.312168 4.97119C0.312945 4.78763 0.227732 4.91287 0.225865 4.8866C0.204253 4.50704 0.294894 4.12321 0.125157 3.91275C0.564034 3.64959 0.0825886 3.68387 0.170445 3.14132C0.177551 3.09859 0.385092 3.04422 0.415562 3.20829C0.446002 3.37236 0.381127 3.62116 0.428623 3.8488C0.439769 3.90271 0.634249 4.21151 0.64603 4.25365C0.7381 4.58369 0.427957 4.63045 0.410923 4.64792C0.227092 4.84593 0.436607 5.22329 0.451084 5.32266C0.517419 5.77727 0.473803 6.16352 0.521152 6.54375C0.551754 6.79244 0.754909 6.81677 0.74869 7.01204C0.728137 7.6612 0.444735 7.88779 0.690463 8.4995C0.742872 8.63067 0.964914 8.50032 0.790316 8.97032C0.779309 8.99984 0.619584 9.34879 0.720614 9.5504C0.733353 9.57571 0.798064 9.57491 0.8035 9.6083C0.838663 9.8321 0.78711 9.98135 0.811801 10.2251C0.836491 10.4689 0.8733 10.762 0.851351 11.0404C0.838227 11.2081 0.717661 11.4233 0.688144 11.5036C0.603112 11.7304 0.742528 11.9735 0.63956 12.1139C0.536073 12.2556 0.378912 11.9787 0.312046 12.3501C0.48017 12.3638 0.652732 12.3954 0.82181 12.4176C0.815891 13.2315 0.761527 14.0325 0.768954 14.8492C0.770043 14.9504 0.860427 14.8469 0.863924 14.9554C0.864392 14.9703 0.864777 14.9852 0.865083 15L0.222046 14.357C0.661566 14.3479 1.05088 14.4074 1.51032 14.3825C1.87795 14.3623 2.28104 14.2666 2.66545 14.2425C2.90024 14.4349 3.47066 14.3696 3.88502 14.3872C4.03017 14.3932 4.02047 14.4446 4.1237 14.4614C4.51314 14.5234 4.33065 14.3534 4.43741 14.3266C4.89545 14.2124 4.93467 14.5972 5.4747 14.5877C5.50331 14.5874 5.85303 14.3822 5.9012 14.3695C6.20726 14.2862 5.95187 14.4409 6.1434 14.456C6.49312 14.4837 6.73615 14.5327 7.14646 14.4726C7.26611 14.4548 7.55311 14.327 7.78545 14.4259C7.81602 14.4388 7.79912 14.5066 7.82372 14.5106C8.26904 14.5768 8.28076 14.3637 8.53522 14.2916C8.78975 14.2195 9.18285 14.3665 9.26284 14.4089C9.47213 14.5185 9.10247 14.4558 9.09113 14.4665C8.958 14.5946 9.24469 14.5725 9.46375 14.5833C9.49548 14.7922 9.80181 14.7797 9.69085 14.5937C9.67823 14.5734 9.50775 14.5929 9.46375 14.5833C9.65605 14.3784 9.99272 14.3522 10.3646 14.5437C10.5387 14.6334 10.3741 14.7381 10.9029 14.6998C11.1429 14.6825 11.0501 14.5387 11.2619 14.4995C11.7457 14.41 12.3744 14.5442 12.8732 14.523C13.0543 14.5154 12.8779 14.4366 13.0016 14.4287C13.33 14.4073 13.6195 14.4664 13.9493 14.4361C13.9792 14.4333 13.9062 14.3509 14.0087 14.3498C14.7861 14.3403 15.463 14.393 16.2747 14.3945C16.6668 14.3952 17.3679 14.3497 17.7742 14.3589C18.4783 14.3742 19.3445 14.494 19.946 14.4649C20.3383 14.4463 20.2522 14.3639 20.4203 14.3077C20.7447 14.1988 21.3188 14.3938 21.3962 14.424C21.3985 14.425 21.061 14.4445 21.2411 14.4868C21.3458 14.5749 21.3924 14.4244 21.3962 14.424C21.4469 14.4435 22.1213 14.4623 22.2552 14.4465C22.328 14.4379 22.2873 14.3598 22.3252 14.3568C23.2269 14.2869 24.1303 14.267 25.0448 14.3036C25.0609 14.3051 25.0367 14.3925 25.0745 14.3951C25.604 14.4339 25.943 14.3271 26.3797 14.2636C26.8163 14.2002 27.1626 14.2215 27.421 14.3714C27.7505 14.3525 28.2231 14.4188 28.4951 14.4591C28.7671 14.4993 28.805 14.3293 28.8289 14.3259C29.5753 14.2183 30.0068 14.3156 30.7812 14.3308C31.1493 14.3383 31.8796 14.3136 32.2782 14.295C32.5932 14.28 32.783 14.3199 33.0733 14.2944C33.1126 14.291 33.0729 14.2153 33.0849 14.2124C33.4088 14.1218 33.2531 14.3069 33.32 14.3399C33.5625 14.4601 33.7123 14.5242 34.1272 14.4676C34.2229 14.4547 34.5016 14.1882 34.6761 14.1726C34.9028 14.1528 34.8172 14.2483 35.0547 14.2252C35.075 14.2233 35.0708 14.1644 35.2174 14.167C35.8977 14.1782 36.6394 14.2125 37.3463 14.2066C37.4429 14.2061 37.3191 14.1126 37.4586 14.1102C38.1133 14.0991 38.8309 14.1026 39.4688 14.1463C39.6258 14.1574 39.5273 14.2228 39.5614 14.2423C39.7706 14.3599 40.0674 14.189 40.1163 14.1858C41.2841 14.1037 42.1779 14.2583 43.3682 14.1847C43.433 14.1803 43.9317 13.9972 44.1542 14.1543C44.1694 14.1647 44.3896 14.3254 44.5842 14.2155C44.5963 14.2087 44.4592 14.1259 44.6985 14.1344C44.9379 14.1428 45.3232 14.0875 45.6522 14.1784C45.7564 14.2071 46.0026 14.3674 46.3134 14.2396C46.3336 14.2307 46.8134 13.9417 46.9846 14.1411C47.0124 14.1739 46.9833 14.3849 47.3542 14.2767C47.4251 14.2557 47.2964 14.2087 47.4831 14.1793C47.7692 14.134 48.1481 14.1905 48.4998 14.0965C48.5611 14.0799 48.8221 13.9367 49.0315 14.0454C49.0643 14.0624 49.002 14.1328 49.1126 14.1407C49.6384 14.1785 50.189 14.1314 50.7229 14.1801C50.912 14.1973 50.8153 14.3111 51.0124 14.3416C51.2096 14.3721 51.6068 14.4015 51.8131 14.3495C52.0194 14.2974 51.794 14.1159 52.1031 14.1014C52.1428 14.0995 52.1824 14.0978 52.222 14.0963L51.3183 15C51.2666 13.6966 51.3673 12.4044 51.3824 11.1022C51.3847 10.9032 51.3198 11.0682 51.3186 10.7749C51.3137 9.69361 51.2529 7.8268 51.3908 6.88856C51.5014 6.1368 51.5855 7.08284 51.6305 6.50838C51.6519 6.23117 51.4409 5.93127 51.4343 5.86435C51.3668 5.21063 51.4603 4.75631 51.4316 4.16792C51.4257 4.04642 51.3401 4.16559 51.336 4.06218C51.3212 3.70897 51.3594 3.33773 51.3524 3.00021C51.3491 2.84879 51.2837 2.87669 51.2888 2.73736C51.3001 2.40398 51.3275 2.10916 51.3888 1.78416C51.3943 1.75454 51.4756 1.95428 51.4786 1.70762C51.4811 1.49276 51.4998 1.25 51.5067 1L52.222 1.71531C52.0076 1.70934 51.7877 1.71196 51.5756 1.74076C51.4394 1.75951 51.434 1.90878 51.1411 1.8057C51.0796 1.78417 51.158 1.60493 50.8168 1.7598C50.7594 1.78553 50.1862 1.99442 49.9049 1.85977C49.8307 1.82434 49.6413 1.67767 49.4774 1.70072C49.4552 1.70439 49.5442 1.78457 49.4084 1.79239C48.9298 1.81856 48.4282 1.81 47.9366 1.83512C47.8053 1.84198 48.0008 1.92495 47.8051 1.93253C47.267 1.9535 46.5951 1.93237 46.0689 1.9064C45.8749 1.89667 46.009 1.82795 45.9949 1.82047C45.7679 1.69882 45.6337 1.86302 45.5583 1.87259C45.0897 1.92992 44.7329 1.85279 44.301 1.8732C44.1818 1.87863 44.2663 1.95692 44.2426 1.9639C43.9965 2.03211 44.1798 1.89151 44.024 1.87601C43.5877 1.83212 43.1012 1.83842 42.6599 1.84842C42.4979 1.85221 42.68 1.94299 42.5346 1.94534C41.6736 1.96099 40.7785 1.9523 39.9383 1.90225C39.7801 1.89267 39.8796 1.82276 39.8467 1.80679C39.6194 1.69509 39.2863 1.84746 39.2097 1.86197C38.8612 1.92824 38.7259 1.86642 38.4181 1.87796C36.9148 1.93541 35.0586 1.89447 33.6395 1.86917C31.7903 1.83662 30.3554 1.77012 28.592 1.78739C28.4799 1.7884 28.593 1.88139 28.4963 1.88345C27.249 1.90587 26.021 1.86953 24.7711 1.89639C24.6686 1.89843 24.8164 1.98659 24.6518 1.99283C24.3141 2.00624 23.8864 2.00145 23.545 1.9733C23.3785 1.95974 23.6019 1.88409 23.4342 1.87198C23.044 1.84362 22.6256 1.83734 22.2247 1.85147C22.0541 1.85768 22.3115 1.94784 22.0898 1.94888C20.5793 1.95783 19.0959 1.97336 17.5695 1.8566C17.4649 1.84858 17.373 1.66533 17.1506 1.70047C17.1338 1.75133 17.1347 1.81115 17.1274 1.86551C14.9285 1.89479 12.7521 1.83127 10.5471 1.82144C10.4541 1.82105 10.6148 1.91815 10.4348 1.91788C9.39309 1.91644 8.38149 1.94334 7.3159 1.84683C7.21017 1.8374 7.26441 1.66658 6.95284 1.69242C6.89789 1.69713 6.42863 1.71991 6.3073 1.75699C6.29083 1.76258 6.37644 1.84231 6.22523 1.84464C5.34649 1.85674 4.42562 1.83854 3.5484 1.78983C3.40683 1.78181 3.5576 1.69691 3.45676 1.69046C2.74147 1.64539 1.96344 1.70993 1.27995 1.63285C0.822446 1.58094 0.991827 1.43417 0.748715 1.28971C0.714329 1.26932 0.431028 1.26609 0.416378 1.18204C0.378766 0.970681 0.515988 0.739242 0.459682 0.513952C0.447787 0.465427 0.0683733 0.517692 0.29301 0.400427C0.308704 0.392579 0.58378 0.35366 0.651532 0.31388C0.698702 0.286376 0.613699 0.200894 0.709942 0.165687C0.806178 0.130513 0.911928 0.202169 1.07148 0.160804C1.23097 0.118927 1.16084 0.0216813 1.47935 0.0101698ZM29.7197 14.6389C29.9715 14.7205 30.0087 14.4214 29.7363 14.493C29.7231 14.4968 29.7067 14.6349 29.7197 14.6389ZM0.535923 14.0279C0.404001 14.3571 0.597978 14.5824 0.699862 14.3501C0.801637 14.1179 0.575913 13.9276 0.535923 14.0279ZM0.439609 10.6139C0.335595 10.9987 0.759723 11.0592 0.673984 10.6471C0.669138 10.6231 0.445649 10.5914 0.439609 10.6139ZM1.87614 1.24857C1.87267 1.2446 1.66902 1.24073 1.66415 1.24466C1.55571 1.33965 1.96293 1.34733 1.87614 1.24857ZM0.334751 7.22605C0.277379 7.34617 0.343608 7.69203 0.414951 7.54278C0.472344 7.42263 0.406119 7.07645 0.334751 7.22605ZM42.8566 14.9581C42.8606 14.9626 43.0066 14.9666 43.0036 14.9414C42.9937 14.8602 42.7905 14.8831 42.8566 14.9581ZM0.329868 1.46806C0.313904 2.31877 -0.0364464 2.83457 0.0030873 1.90815C0.0102401 1.74039 0.114811 2.26973 0.146397 2.05619C0.203942 1.66548 -0.016035 1.40603 0.101842 1.00732C0.123417 0.935137 0.331558 1.41953 0.330357 1.46957C0.330194 1.46906 0.330031 1.46856 0.329868 1.46806ZM29.8647 14.9981C29.8698 15.0021 30.0719 15.0058 30.0767 15.0019C30.1862 14.907 29.779 14.8994 29.8647 14.9981ZM51.376 15.143C51.3871 15.1515 51.8562 15.1593 51.8715 15.1516C52.1162 14.9963 51.1679 14.9799 51.376 15.143ZM16.253 15.217C16.0325 15.3125 15.7687 15.3238 15.5929 15.2038C15.812 15.2102 16.0326 15.2111 16.253 15.217Z" fill="black"/>
</svg>
