<svg width="16" height="127" viewBox="0 0 16 127" fill="none" xmlns="http://www.w3.org/2000/svg">
<path d="M1 126.363L1 0.362915H15L15 126.363H1Z" fill="#C02B53"/>
<path d="M0.0101698 123.696C-0.015883 122.127 0.0119737 120.07 0.0502087 118.507C0.0620673 118.017 0.115075 118.265 0.125648 117.927C0.146258 117.266 0.120261 116.649 0.144813 115.996C0.153209 115.779 0.237174 116.049 0.244056 115.822C0.281163 114.577 0.259777 113.4 0.277625 112.139C0.365685 105.929 0.397205 99.8239 0.435461 93.5376C0.448004 91.4648 0.524206 88.9451 0.490881 86.8042C0.486916 86.5543 0.413216 86.7033 0.407141 86.6557C0.31415 85.9099 0.462935 86.1579 0.482702 85.6709C0.560754 83.7382 0.567542 81.589 0.539099 79.729C0.526782 78.9377 0.380395 79.7311 0.462561 78.9343C0.468112 78.879 0.546377 79.0798 0.554724 78.8627C0.573498 78.3706 0.559509 77.4369 0.56571 77.0555C0.578057 76.3204 0.577269 76.1988 0.578161 75.5035C0.580061 74.553 0.618966 73.4226 0.601232 72.4028C0.597215 72.1851 0.516985 72.4733 0.503332 72.1261C0.489702 71.7787 0.496505 70.8595 0.515417 70.5496C0.534339 70.2396 0.597399 70.3716 0.611852 70.3167C0.733849 69.8654 0.564884 68.8022 0.560705 68.6654C0.489506 66.171 0.58576 64.032 0.585485 61.6906C0.585073 59.9131 0.553296 58.0125 0.557653 56.3212C0.563155 54.3062 0.606631 52.5985 0.599157 50.6409C0.598461 50.4343 0.504129 50.6764 0.503088 50.4241C0.492111 47.7434 0.502394 45.0813 0.566076 42.4122C0.572546 42.1445 0.655368 42.4895 0.666784 42.222C0.734849 40.5847 0.898357 37.9939 0.537756 37.0214C0.551837 35.9123 0.566385 34.5657 0.639074 33.5735C0.685858 32.9337 0.776084 33.5551 0.737585 32.7692C0.729007 32.592 0.649991 32.8224 0.643102 32.5566C0.614176 31.4375 0.639861 30.2148 0.599035 29.1077C0.590545 28.8825 0.519744 28.944 0.506994 28.8802C0.403741 28.344 0.574425 27.4512 0.586828 27.2567C0.679315 25.7748 0.642919 24.6926 0.645178 23.3121C0.645741 22.9917 0.550639 23.3704 0.547766 23.0621C0.534136 21.4634 0.54231 19.8072 0.584509 18.2417C0.594124 17.8935 0.675134 18.2137 0.683874 18.0473C0.721424 17.3136 0.568417 17.151 0.601477 16.4473C0.60825 16.299 0.6776 16.3825 0.685217 16.3554C0.804778 15.9319 0.635368 15.564 0.631628 15.455C0.580523 14.0771 0.757378 13.1963 0.732336 11.8651C0.729161 11.7058 0.641412 12.0649 0.637853 11.6173C0.61363 8.6349 0.637735 5.48073 0.707922 2.52866C0.718716 2.06967 0.784634 2.39733 0.79276 2.36845C0.919728 1.89768 0.749606 1.59311 0.7432 1.44346C0.728743 1.07335 0.732837 0.710861 0.739031 0.362915L0.73718 0.103821L1 0.101944C1.76205 0.115509 2.45451 0.139145 3.00525 3.8147e-05C7.01749 0.0564575 11.0149 -0.00565338 15 0.0613785L15.2994 0.0592422L15.3015 0.362915C15.285 1.34426 15.2607 2.32485 15.2248 3.30473C15.2227 3.36778 15.1389 3.25479 15.1351 3.38056C15.0881 4.8952 15.2183 4.60432 15.3775 5.60652C15.4175 5.85898 15.2252 6.62698 15.2111 6.69493C15.1592 6.9425 15.0346 6.68572 15.0245 6.76863C14.9455 7.45463 15.3577 7.34285 15.3579 8.26826C15.3572 8.29723 15.2813 8.17566 15.2738 8.25331C15.2501 8.49461 15.2802 8.7339 15.2541 8.97002C15.1937 9.51046 14.9934 9.70295 15.11 10.5284C15.1251 10.6329 15.3589 10.4733 15.3479 11.2996C15.3433 11.629 15.3473 13.087 15.3321 13.4956C15.317 13.9038 15.2416 13.6235 15.2384 13.6526C15.1387 14.7523 15.0974 14.3354 14.9499 14.8863C14.803 15.4372 15.1535 15.2844 15.1926 15.509C15.2316 15.734 15.1494 16.5403 15.1208 16.7384C15.0922 16.9365 15.0443 16.6895 15.0282 16.8655C14.9225 18.0331 15.2021 17.378 15.2578 17.7628C15.3895 18.6698 15.1296 19.3762 15.1041 20.2066C15.0972 20.4313 15.1564 20.248 15.162 20.448C15.1831 21.2404 15.102 21.717 15.1764 22.6184C15.1885 22.7659 15.3448 23.4947 15.2301 23.9664C15.2135 24.0332 15.1488 23.8434 15.1342 24.1811C15.1125 24.6855 15.0983 25.5945 15.12 26.1368C15.136 26.5372 15.2427 26.0783 15.2096 26.5822C15.1948 26.8062 15.1323 26.3911 15.1097 26.8119C15.0871 27.2304 15.0899 28.3005 15.092 28.7078C15.0942 29.1142 15.1752 28.8918 15.1806 28.9246C15.2119 29.1234 15.2509 29.9035 15.2508 29.9724C15.2607 33.4496 15.1242 36.6561 15.1694 40.0416C15.1728 40.3072 15.2582 40.1303 15.2596 40.1708C15.2954 41.0803 15.0684 40.3632 14.9924 40.9986C15.1657 40.9068 15.1343 41.2818 15.1533 41.9225C15.1626 42.2312 15.2297 42.0631 15.2365 42.0913C15.3384 42.5491 15.2068 42.8679 15.1799 42.95C15.0809 43.2533 15.1979 43.5832 15.1317 43.7896C15.066 43.9958 14.9686 43.5212 14.9698 44.1357C15.0318 44.308 15.1939 43.8518 15.2202 44.3183C15.3195 46.0785 15.1924 49.3641 15.1792 50.7793C15.166 52.1918 15.1774 52.648 15.155 53.471C15.1145 54.9576 15.2347 54.4128 15.2898 55.3359C15.3448 56.2617 15.0489 55.8117 14.9853 55.9448C14.9217 56.0754 14.9872 56.218 14.9522 56.3805C14.9173 56.5425 14.874 56.1918 14.8609 56.5728C14.8478 56.954 14.9609 57.9961 15.0274 58.1312C15.1683 58.4168 15.3162 57.9472 15.2642 58.9558C15.2612 59.0138 15.1834 58.8255 15.1755 59.0476C15.1156 60.8118 15.1119 62.6444 15.0589 64.4064C15.0515 64.6486 14.965 64.432 14.9597 64.573C14.9043 66.0416 15.0503 65.5166 15.2124 66.3215C14.9966 66.1408 14.8646 66.5859 14.8634 67.7005C14.8625 68.3705 14.9567 68.2551 15.0232 68.6885C15.0432 68.8185 14.9785 69.2926 15.0228 69.3785C15.1676 69.6618 15.3298 69.2152 15.2652 70.3643C15.2622 70.4148 15.1829 70.2542 15.1781 70.4284C15.1466 71.5545 15.2981 71.6892 15.3165 72.9065C15.3309 73.8606 15.2385 75.5574 15.2235 76.6438C14.9809 76.621 15.0365 77.6471 15.2037 78.0633C15.1969 78.7684 15.2063 79.5299 15.1832 80.2113C15.1753 80.4458 15.1051 80.2918 15.0975 80.3213C14.9785 80.7748 15.1412 81.0813 15.1475 81.2335C15.2096 82.8829 15.0862 84.2267 15.2068 85.8008C15.2111 85.8566 15.3796 85.9472 15.2566 86.3679C15.2481 86.3952 15.1714 85.8753 15.1655 86.6157C15.1596 87.3563 15.0692 88.7524 15.1473 89.7806C15.1661 90.0294 15.3029 90.6587 15.196 91.1638C15.1815 91.2311 15.1332 91.1574 15.1063 91.2546C15.0206 91.5686 15.1909 91.74 15.0462 92.1091C14.9016 92.4781 14.7932 93.2458 14.893 94.2827C14.8959 94.3157 15.0309 94.5612 15.0288 94.8873C15.0253 95.4078 14.9971 96.1467 14.998 96.6902C14.9985 96.9505 15.0823 96.7839 15.0838 96.8291C15.1308 98.5788 15.0561 99.8241 15.0236 101.699C15.0175 102.042 15.1318 103.03 15.0415 103.695C14.9426 104.425 14.5311 103.675 14.6291 105.354C14.6683 106.031 15.1903 106.888 14.9199 108.105C14.9869 110.465 14.8485 112.648 14.9442 115.015C14.9484 115.121 15.0941 115.458 15.0921 115.708C15.0889 116.08 15.0208 116.283 15.0163 116.549C14.9958 117.66 15.0541 118.677 15.045 119.749C15.0417 120.156 14.9713 120.013 14.9674 120.499C14.9635 120.984 15.0562 121.307 15.0114 121.964C14.9773 122.46 14.7878 122.957 14.7657 123.615C14.9526 123.64 14.9488 124.093 14.9981 124.897C15.0077 125.052 15.0728 124.886 15.0807 124.959C15.1142 125.257 15.0603 125.532 15.0968 125.815C15.1055 125.883 15.1694 125.887 15.1801 125.943C15.2047 126.067 15.213 126.213 15.2115 126.363L15.213 126.573L15 126.574C14.5759 126.57 14.1198 126.487 14.0199 126.468C13.5016 126.374 13.2595 126.457 12.862 126.419C12.4652 126.382 13.0585 126.335 12.595 126.312C11.6341 126.265 10.3996 126.276 9.42374 126.273C9.03438 126.272 9.30002 126.357 9.2443 126.359C8.43917 126.381 7.62498 126.29 7.17856 126.46C6.62033 126.021 6.69305 126.502 5.5422 126.415C5.45155 126.407 5.33622 126.2 5.68426 126.169C6.03228 126.139 6.56004 126.204 7.04291 126.156C7.15726 126.145 7.8123 125.951 7.90167 125.939C8.60176 125.847 8.70096 126.157 8.73801 126.174C9.15803 126.358 9.9585 126.148 10.1693 126.134C11.1336 126.068 11.9529 126.111 12.7595 126.064C13.287 126.033 13.3386 125.83 13.7528 125.836C14.2623 125.844 14.6491 125.887 15 125.927L14.564 126.363C14.6312 125.766 14.6864 125.272 14.5316 124.455C14.4792 124.177 14.2571 124.453 14.4317 123.456C14.4427 123.394 14.6025 122.653 14.5014 122.226C14.4887 122.172 14.424 122.174 14.4185 122.103C14.3834 121.628 14.4349 121.312 14.4102 120.794C14.3856 120.277 14.3487 119.656 14.3707 119.065C14.3838 118.709 14.5044 118.253 14.5339 118.082C14.6189 117.602 14.4795 117.086 14.5825 116.788C14.686 116.487 14.8431 117.075 14.91 116.287C14.7419 116.258 14.5693 116.191 14.4002 116.144C14.4062 114.417 14.4605 112.718 14.4531 110.986C14.452 110.771 14.3616 110.991 14.3581 110.761C14.3438 109.789 14.4082 108.941 14.3825 107.933C14.3623 107.153 14.2666 106.298 14.2425 105.483C14.4349 104.985 14.3696 103.775 14.3872 102.896C14.3932 102.588 14.4446 102.609 14.4614 102.39C14.5234 101.564 14.3534 101.951 14.3266 101.724C14.2124 100.753 14.5972 100.669 14.5877 99.5239C14.5874 99.4633 14.3822 98.7214 14.3695 98.6193C14.2862 97.97 14.4409 98.5118 14.456 98.1055C14.4837 97.3637 14.5327 96.8481 14.4726 95.9778C14.4548 95.724 14.327 95.1152 14.4259 94.6224C14.4388 94.5575 14.5066 94.5934 14.5106 94.5412C14.5768 93.5966 14.3637 93.5717 14.2916 93.0319C14.2195 92.492 14.3665 91.6582 14.4089 91.4885C14.5185 91.0445 14.4558 91.8287 14.4665 91.8527C14.5946 92.1351 14.5725 91.527 14.5833 91.0623C14.7922 90.995 14.7797 90.3452 14.5937 90.5806C14.5734 90.6074 14.5929 90.969 14.5833 91.0623C14.3784 90.6544 14.3522 89.9403 14.5437 89.1515C14.6334 88.7822 14.7381 89.1313 14.6998 88.0096C14.6825 87.5006 14.5387 87.6973 14.4995 87.2481C14.41 86.2218 14.5442 84.8882 14.523 83.8301C14.5154 83.4461 14.4366 83.8202 14.4287 83.5577C14.4073 82.8612 14.4664 82.247 14.4361 81.5475C14.4333 81.4842 14.3509 81.639 14.3498 81.4215C14.3403 79.7725 14.393 78.3367 14.3945 76.615C14.3952 75.7831 14.3497 74.2959 14.3589 73.4341C14.3742 71.9406 14.494 70.1032 14.4649 68.8273C14.4463 67.9952 14.3639 68.1777 14.3077 67.8211C14.1988 67.1331 14.3938 65.9151 14.424 65.7511C14.425 65.7461 14.4445 66.4622 14.4868 66.0801C14.5749 65.858 14.4244 65.7592 14.424 65.7511C14.4435 65.6434 14.4623 64.213 14.4465 63.9289C14.4379 63.7746 14.3598 63.8609 14.3568 63.7805C14.2869 61.8677 14.267 59.9516 14.3036 58.0116C14.3051 57.9774 14.3925 58.0289 14.3951 57.9485C14.4339 56.8254 14.3271 56.1063 14.2636 55.18C14.2002 54.2538 14.2215 53.5194 14.3714 52.9711C14.3525 52.2723 14.4188 51.2698 14.4591 50.6928C14.4993 50.1159 14.3293 50.0354 14.3259 49.9847C14.2183 48.4014 14.3156 47.4862 14.3308 45.8436C14.3383 45.0626 14.3136 43.5136 14.295 42.6681C14.28 41.9998 14.3199 41.5972 14.2944 40.9815C14.291 40.8982 14.2153 40.9824 14.2124 40.9569C14.1218 40.2698 14.3069 40.6 14.3399 40.4581C14.4601 39.9437 14.5242 39.6259 14.4676 38.7459C14.4547 38.543 14.1882 37.9517 14.1726 37.5817C14.1528 37.1006 14.2483 37.2822 14.2252 36.7785C14.2233 36.7354 14.1644 36.7443 14.167 36.4335C14.1782 34.9904 14.2125 33.4171 14.2066 31.9175C14.2061 31.7126 14.1126 31.9752 14.1102 31.6793C14.0991 30.2905 14.1026 28.7683 14.1463 27.4153C14.1574 27.0823 14.2228 27.2911 14.2423 27.2188C14.3599 26.775 14.189 26.1456 14.1858 26.0417C14.1037 23.5645 14.2583 21.6687 14.1847 19.1438C14.1803 19.0064 13.9972 17.9485 14.1543 17.4765C14.1647 17.4442 14.3254 16.9772 14.2155 16.5643C14.2087 16.5387 14.1259 16.8297 14.1344 16.3219C14.1428 15.8141 14.0875 14.9969 14.1784 14.2989C14.2071 14.0779 14.3674 13.5556 14.2396 12.8964C14.2307 12.8535 13.9417 11.8358 14.1411 11.4726C14.1739 11.4137 14.3849 11.4754 14.2767 10.6886C14.2557 10.5383 14.2087 10.8112 14.1793 10.4152C14.134 9.80844 14.1905 9.00452 14.0965 8.25865C14.0799 8.12858 13.9367 7.57487 14.0454 7.13072C14.0624 7.06116 14.1328 7.19333 14.1407 6.95876C14.1785 5.84336 14.1314 4.67542 14.1801 3.54292C14.1973 3.14179 14.3111 3.34687 14.3416 2.92875C14.3721 2.51051 14.4015 1.66802 14.3495 1.23045C14.2974 0.792763 14.1159 1.27088 14.1014 0.615204C14.0995 0.53109 14.0978 0.446991 14.0963 0.362915L15 1.26665C12.2352 1.31837 9.49417 1.21766 6.73191 1.20255C6.30976 1.20022 6.65973 1.26516 6.03764 1.26639C4.68834 1.26923 2.76238 1.29147 1 1.28121L1.9183 0.362915C1.91112 1.59631 1.88802 2.74962 1.83121 3.56901C1.72069 5.16364 1.63656 3.15689 1.59159 4.37543C1.57013 4.96346 1.78111 5.59962 1.78775 5.74156C1.85522 7.12825 1.76176 8.09193 1.79044 9.34005C1.79639 9.59778 1.8819 9.345 1.88602 9.56435C1.90085 10.3136 1.86268 11.1011 1.86966 11.817C1.87299 12.1382 1.9383 12.079 1.93326 12.3746C1.92195 13.0817 1.8945 13.7071 1.83328 14.3965C1.82771 14.4594 1.74646 14.0357 1.74344 14.5589C1.73878 15.4057 1.67839 16.4568 1.74076 17.431C1.75951 17.7201 1.90878 17.7315 1.8057 18.3528C1.78417 18.4832 1.60493 18.3169 1.7598 19.0407C1.78553 19.1624 1.99442 20.3783 1.85977 20.9751C1.82434 21.1325 1.67767 21.5343 1.70072 21.8819C1.70439 21.929 1.78457 21.7402 1.79239 22.0282C1.81856 23.0434 1.81 24.1074 1.83512 25.1503C1.84198 25.4288 1.92495 25.014 1.93253 25.4291C1.9535 26.5706 1.93237 27.9957 1.9064 29.112C1.89667 29.5235 1.82795 29.239 1.82047 29.269C1.69882 29.7505 1.86302 30.0353 1.87259 30.195C1.92992 31.189 1.85279 31.9459 1.8732 32.8621C1.87863 33.115 1.95692 32.9357 1.9639 32.986C2.03211 33.508 1.89151 33.1192 1.87601 33.4496C1.83212 34.3752 1.83842 35.4071 1.84842 36.3431C1.85221 36.687 1.94299 36.3005 1.94534 36.6091C1.96099 38.4354 1.9523 40.334 1.90225 42.1163C1.89267 42.4519 1.82276 42.2407 1.80679 42.3107C1.69509 42.7927 1.84746 43.4993 1.86197 43.6619C1.92824 44.401 1.86642 44.6882 1.87796 45.3409C1.93541 48.5299 1.89447 52.4672 1.86917 55.4774C1.83662 59.3999 1.77012 62.4437 1.78739 66.1842C1.7884 66.4219 1.88139 66.1822 1.88345 66.3871C1.90587 69.033 1.86953 71.6379 1.89639 74.2891C1.89843 74.5066 1.98659 74.193 1.99283 74.5422C2.00624 75.2585 2.00145 76.1658 1.9733 76.8899C1.95974 77.2432 1.88409 76.7694 1.87198 77.1249C1.84362 77.9528 1.83734 78.8402 1.85147 79.6905C1.85768 80.0524 1.94784 79.5064 1.94888 79.9768C1.95783 83.1808 1.97336 86.3275 1.8566 89.5653C1.84858 89.7872 1.66533 89.982 1.70047 90.454C1.75133 90.4895 1.81115 90.4876 1.86551 90.5031C1.89479 95.1673 1.83127 99.7839 1.82144 104.461C1.82105 104.658 1.91815 104.318 1.91788 104.699C1.91644 106.909 1.94334 109.055 1.84683 111.315C1.8374 111.54 1.66658 111.425 1.69242 112.085C1.69713 112.202 1.71991 113.197 1.75699 113.455C1.76258 113.49 1.84231 113.308 1.84464 113.629C1.85674 115.493 1.83854 117.446 1.78983 119.307C1.78181 119.607 1.69691 119.288 1.69046 119.501C1.64539 121.019 1.70993 122.669 1.63285 124.119C1.58094 125.089 1.43417 124.73 1.28971 125.246C1.26932 125.319 1.26609 125.92 1.18204 125.951C0.970681 126.03 0.739242 125.739 0.513952 125.859C0.465427 125.884 0.517692 126.689 0.400427 126.212C0.392579 126.179 0.35366 125.596 0.31388 125.452C0.286376 125.352 0.200894 125.532 0.165687 125.328C0.130513 125.124 0.202169 124.9 0.160804 124.561C0.118927 124.223 0.0216813 124.372 0.0101698 123.696ZM14.6389 48.0952C14.7205 47.561 14.4214 47.4821 14.493 48.0599C14.4968 48.0879 14.6349 48.1227 14.6389 48.0952ZM14.6861 112.728C14.818 112.03 14.6241 111.552 14.5222 112.044C14.4204 112.537 14.6461 112.941 14.6861 112.728ZM14.7824 119.97C14.8865 119.154 14.4623 119.025 14.5481 119.899C14.5529 119.95 14.7764 120.018 14.7824 119.97ZM1.24857 122.854C1.2446 122.862 1.24073 123.294 1.24466 123.304C1.33965 123.534 1.34733 122.67 1.24857 122.854ZM14.2068 126.25C14.4616 126.308 15.1952 126.241 14.8786 126.17C14.6238 126.113 13.8894 126.179 14.2068 126.25ZM14.9581 20.229C14.9626 20.2206 14.9666 19.9109 14.9414 19.9172C14.8602 19.9382 14.8831 20.3692 14.9581 20.229ZM1.99285 126.255C3.7974 126.271 4.89152 126.621 2.92638 126.582C2.57052 126.575 3.69336 126.47 3.24041 126.439C2.41162 126.381 1.86129 126.601 1.01552 126.483C0.862412 126.462 1.88991 126.253 1.99605 126.255C1.99498 126.255 1.99392 126.255 1.99285 126.255ZM14.9981 47.7875C15.0021 47.7769 15.0058 47.3482 15.0019 47.3379C14.907 47.1057 14.8994 47.9694 14.9981 47.7875ZM15.143 2.15757C15.1515 2.1339 15.1593 1.13898 15.1516 1.10654C14.9963 0.587517 14.9799 2.59898 15.143 2.15757ZM15.217 76.6609C15.3125 77.1287 15.3238 77.6883 15.2038 78.0612C15.2102 77.5963 15.2111 77.1283 15.217 76.6609Z" fill="black"/>
</svg>
