<svg width="16" height="371" viewBox="0 0 16 371" fill="none" xmlns="http://www.w3.org/2000/svg">
<path d="M1 370.336L1 0.33606H15L15 370.336H1Z" fill="#C02B53"/>
<path d="M0.0101698 363.021C-0.015883 358.717 0.0119737 353.076 0.0502087 348.788C0.0620673 347.445 0.115075 348.125 0.125648 347.198C0.146258 345.383 0.120261 343.693 0.144813 341.901C0.153209 341.307 0.237174 342.046 0.244056 341.423C0.281163 338.009 0.259777 334.78 0.277625 331.322C0.365685 314.287 0.397205 297.543 0.435461 280.301C0.448004 274.616 0.524206 267.704 0.490881 261.832C0.486916 261.147 0.413216 261.555 0.407141 261.425C0.31415 259.379 0.462935 260.059 0.482702 258.724C0.560754 253.423 0.567542 247.528 0.539099 242.426C0.526782 240.255 0.380395 242.432 0.462561 240.246C0.468112 240.094 0.546377 240.645 0.554724 240.05C0.573498 238.7 0.559509 236.139 0.56571 235.093C0.578057 233.077 0.577269 232.743 0.578161 230.836C0.580061 228.229 0.618966 225.128 0.601232 222.331C0.597215 221.734 0.516985 222.524 0.503332 221.572C0.489702 220.619 0.496505 218.098 0.515417 217.248C0.534339 216.398 0.597399 216.76 0.611852 216.609C0.733849 215.372 0.564884 212.455 0.560705 212.08C0.489506 205.238 0.58576 199.371 0.585485 192.949C0.585073 188.074 0.553296 182.861 0.557653 178.222C0.563155 172.695 0.606631 168.011 0.599157 162.642C0.598461 162.075 0.504129 162.739 0.503088 162.047C0.492111 154.694 0.502394 147.392 0.566076 140.071C0.572546 139.337 0.655368 140.283 0.666784 139.55C0.734849 135.059 0.898357 127.952 0.537756 125.285C0.551837 122.243 0.566385 118.55 0.639074 115.828C0.685858 114.073 0.776084 115.777 0.737585 113.622C0.729007 113.136 0.649991 113.768 0.643102 113.039C0.614176 109.969 0.639861 106.616 0.599035 103.579C0.590545 102.961 0.519744 103.13 0.506994 102.955C0.403741 101.484 0.574425 99.0355 0.586828 98.5017C0.679315 94.4371 0.642919 91.4689 0.645178 87.6824C0.645741 86.8036 0.550639 87.8423 0.547766 86.9968C0.534136 82.6116 0.54231 78.0689 0.584509 73.7751C0.594124 72.82 0.675134 73.6983 0.683874 73.2419C0.721424 71.2294 0.568417 70.7834 0.601477 68.8532C0.60825 68.4464 0.6776 68.6755 0.685217 68.6013C0.804778 67.4397 0.635368 66.4303 0.631628 66.1316C0.580523 62.352 0.757378 59.9361 0.732336 56.2849C0.729161 55.8481 0.641412 56.833 0.637853 55.6052C0.61363 47.4249 0.637735 38.7735 0.707922 30.6764C0.718716 29.4174 0.784634 30.3162 0.79276 30.2369C0.919728 28.9458 0.749606 28.1102 0.7432 27.6998C0.697082 24.4614 0.839748 21.4363 0.637121 19.2359C0.669488 12.923 0.662849 6.6235 0.663958 0.33606L0.663085 0.00088501L1 3.05176e-05C5.67319 0.000854492 10.3397 0.00595093 15 0.0345154L15.3007 0.0337524L15.3015 0.33606C15.285 3.02774 15.2607 5.71738 15.2248 8.40503C15.2227 8.57797 15.1389 8.26807 15.1351 8.61304C15.0881 12.7675 15.2183 11.9696 15.3775 14.7185C15.4175 15.411 15.2252 17.5175 15.2111 17.7039C15.1592 18.3829 15.0346 17.6786 15.0245 17.906C14.9455 19.7876 15.3577 19.481 15.3579 22.0193C15.3572 22.0988 15.2813 21.7653 15.2738 21.9783C15.2501 22.6401 15.2802 23.2965 15.2541 23.9441C15.1937 25.4265 14.9934 25.9544 15.11 28.2185C15.1251 28.5051 15.3589 28.0675 15.3479 30.3338C15.3433 31.2372 15.3473 35.2364 15.3321 36.3572C15.317 37.4767 15.2416 36.7081 15.2384 36.7879C15.1387 39.8042 15.0974 38.6605 14.9499 40.1717C14.803 41.6827 15.1535 41.2637 15.1926 41.8797C15.2316 42.4968 15.1494 44.7083 15.1208 45.2518C15.0922 45.7949 15.0443 45.1175 15.0282 45.6004C14.9225 48.803 15.2021 47.0061 15.2578 48.0614C15.3895 50.5492 15.1296 52.4869 15.1041 54.7645C15.0972 55.3807 15.1564 54.8779 15.162 55.4266C15.1831 57.6 15.102 58.9071 15.1764 61.3797C15.1885 61.7842 15.3448 63.7831 15.2301 65.077C15.2135 65.2603 15.1488 64.7396 15.1342 65.6659C15.1125 67.0495 15.0983 69.5427 15.12 71.0302C15.136 72.1283 15.2427 70.8696 15.2096 72.2518C15.1948 72.8661 15.1323 71.7276 15.1097 72.8817C15.0871 74.0297 15.0899 76.965 15.092 78.0819C15.0942 79.1968 15.1752 78.5866 15.1806 78.6767C15.2119 79.2219 15.2509 81.3616 15.2508 81.5507C15.2607 91.0881 15.1242 99.883 15.1694 109.169C15.1728 109.898 15.2582 109.412 15.2596 109.523C15.2954 112.018 15.0684 110.051 14.9924 111.794C15.1657 111.542 15.1343 112.571 15.1533 114.328C15.1626 115.175 15.2297 114.714 15.2365 114.791C15.3384 116.047 15.2068 116.921 15.1799 117.146C15.0809 117.978 15.1979 118.883 15.1317 119.449C15.066 120.015 14.9686 118.713 14.9698 120.398C15.0318 120.871 15.1939 119.62 15.2202 120.899C15.3195 125.727 15.1924 134.739 15.1792 138.621C15.166 142.495 15.1774 143.746 15.155 146.004C15.1145 150.082 15.2347 148.587 15.2898 151.119C15.3448 153.659 15.0489 152.424 14.9853 152.789C14.9217 153.147 14.9872 153.539 14.9522 153.984C14.9173 154.429 14.874 153.467 14.8609 154.512C14.8478 155.557 14.9609 158.416 15.0274 158.786C15.1683 159.57 15.3162 158.282 15.2642 161.048C15.2612 161.207 15.1834 160.691 15.1755 161.3C15.1156 166.139 15.1119 171.165 15.0589 175.998C15.0515 176.663 14.965 176.068 14.9597 176.455C14.9043 180.483 15.0503 179.043 15.2124 181.251C14.9966 180.755 14.8646 181.976 14.8634 185.033C14.8625 186.871 14.9567 186.555 15.0232 187.743C15.0432 188.1 14.9785 189.4 15.0228 189.636C15.1676 190.413 15.3298 189.188 15.2652 192.34C15.2622 192.478 15.1829 192.038 15.1781 192.516C15.1466 195.604 15.2981 195.974 15.3165 199.313C15.3309 201.93 15.2385 206.584 15.2235 209.564C14.9809 209.501 15.0365 212.316 15.2037 213.457C15.1969 215.391 15.2063 217.48 15.1832 219.349C15.1753 219.992 15.1051 219.57 15.0975 219.651C14.9785 220.894 15.1412 221.735 15.1475 222.153C15.2096 226.677 15.0862 230.362 15.2068 234.68C15.2111 234.833 15.3796 235.081 15.2566 236.236C15.2481 236.31 15.1714 234.884 15.1655 236.915C15.1596 238.947 15.0692 242.776 15.1473 245.596C15.1661 246.278 15.3029 248.005 15.196 249.39C15.1815 249.574 15.1332 249.373 15.1063 249.639C15.0206 250.5 15.1909 250.97 15.0462 251.983C14.9016 252.995 14.7932 255.101 14.893 257.945C14.8959 258.035 15.0309 258.708 15.0288 259.603C15.0253 261.031 14.9971 263.057 14.998 264.548C14.9985 265.262 15.0823 264.805 15.0838 264.929C15.1308 269.728 15.0561 273.144 15.0236 278.285C15.0175 279.228 15.1318 281.936 15.0415 283.761C14.9426 285.765 14.5311 283.706 14.6291 288.311C14.6683 290.168 15.1903 292.52 14.9199 295.858C14.9869 302.331 14.8485 308.318 14.9442 314.81C14.9484 315.102 15.0941 316.025 15.0921 316.711C15.0889 317.73 15.0208 318.289 15.0163 319.017C14.9958 322.065 15.0541 324.855 15.045 327.794C15.0417 328.91 14.9713 328.52 14.9674 329.851C14.9635 331.181 15.0562 332.068 15.0114 333.871C14.9773 335.232 14.7878 336.593 14.7657 338.4C14.9526 338.469 14.9488 339.71 14.9981 341.915C15.0077 342.339 15.0728 341.885 15.0807 342.085C15.1142 342.902 15.0603 343.657 15.0968 344.432C15.1055 344.621 15.1694 344.63 15.1801 344.784C15.2742 346.094 15.1306 348.254 15.1056 348.624C15.0106 350.046 15.0936 350.71 15.0562 351.8C15.0189 352.889 14.9721 351.261 14.9494 352.533C14.9025 355.168 14.9128 358.554 14.9099 361.231C14.9091 362.299 14.9943 361.57 14.9962 361.723C15.0178 363.931 14.9272 366.165 15.0969 367.389C14.7465 368.612 14.9828 368.731 15.0475 370.336L15.0477 370.383L15 370.384C14.5948 370.4 14.0949 370.405 13.4586 370.388C13.21 370.381 12.8936 370.173 13.8483 370.143C14.181 370.132 14.5736 370.133 15 370.137L14.8006 370.336C14.8076 369.539 14.8244 368.624 14.7934 367.761C14.7823 367.448 14.5878 365.651 14.576 365.406C14.4839 363.486 14.7941 363.213 14.8111 363.112C14.995 361.96 14.7854 359.764 14.771 359.186C14.7046 356.541 14.7482 354.294 14.7009 352.082C14.6703 350.635 14.4671 350.493 14.4734 349.357C14.4939 345.58 14.7773 344.262 14.5316 340.703C14.4792 339.939 14.2571 340.698 14.4317 337.963C14.4427 337.792 14.6025 335.761 14.5014 334.588C14.4887 334.441 14.424 334.446 14.4185 334.251C14.3834 332.949 14.4349 332.081 14.4102 330.663C14.3856 329.244 14.3487 327.539 14.3707 325.919C14.3838 324.943 14.5044 323.691 14.5339 323.224C14.6189 321.905 14.4795 320.49 14.5825 319.673C14.686 318.849 14.8431 320.46 14.91 318.299C14.7419 318.219 14.5693 318.035 14.4002 317.907C14.4062 313.171 14.4605 308.511 14.4531 303.759C14.452 303.17 14.3616 303.773 14.3581 303.141C14.3438 300.477 14.4082 298.149 14.3825 295.386C14.3623 293.247 14.2666 290.902 14.2425 288.665C14.4349 287.299 14.3696 283.981 14.3872 281.57C14.3932 280.725 14.4446 280.782 14.4614 280.181C14.5234 277.915 14.3534 278.977 14.3266 278.356C14.2124 275.691 14.5972 275.463 14.5877 272.321C14.5874 272.154 14.3822 270.119 14.3695 269.839C14.2862 268.058 14.4409 269.544 14.456 268.43C14.4837 266.395 14.5327 264.981 14.4726 262.594C14.4548 261.898 14.327 260.228 14.4259 258.876C14.4388 258.698 14.5066 258.797 14.5106 258.654C14.5768 256.063 14.3637 255.994 14.2916 254.514C14.2195 253.033 14.3665 250.746 14.4089 250.281C14.5185 249.063 14.4558 251.214 14.4665 251.28C14.5946 252.054 14.5725 250.386 14.5833 249.112C14.7922 248.927 14.7797 247.145 14.5937 247.79C14.5734 247.864 14.5929 248.856 14.5833 249.112C14.3784 247.993 14.3522 246.034 14.5437 243.87C14.6334 242.858 14.7381 243.815 14.6998 240.739C14.6825 239.342 14.5387 239.882 14.4995 238.65C14.41 235.835 14.5442 232.177 14.523 229.275C14.5154 228.221 14.4366 229.247 14.4287 228.528C14.4073 226.617 14.4664 224.932 14.4361 223.014C14.4333 222.84 14.3509 223.265 14.3498 222.668C14.3403 218.145 14.393 214.207 14.3945 209.485C14.3952 207.203 14.3497 203.124 14.3589 200.76C14.3742 196.663 14.494 191.624 14.4649 188.124C14.4463 185.842 14.3639 186.342 14.3077 185.364C14.1988 183.477 14.3938 180.136 14.424 179.687C14.425 179.673 14.4445 181.637 14.4868 180.589C14.5749 179.98 14.4244 179.709 14.424 179.687C14.4435 179.391 14.4623 175.468 14.4465 174.689C14.4379 174.265 14.3598 174.502 14.3568 174.281C14.2869 169.035 14.267 163.779 14.3036 158.458C14.3051 158.364 14.3925 158.505 14.3951 158.285C14.4339 155.205 14.3271 153.232 14.2636 150.691C14.2002 148.151 14.2215 146.137 14.3714 144.633C14.3525 142.716 14.4188 139.966 14.4591 138.384C14.4993 136.801 14.3293 136.581 14.3259 136.441C14.2183 132.099 14.3156 129.588 14.3308 125.083C14.3383 122.941 14.3136 118.692 14.295 116.373C14.28 114.54 14.3199 113.436 14.2944 111.747C14.291 111.519 14.2153 111.749 14.2124 111.68C14.1218 109.795 14.3069 110.701 14.3399 110.311C14.4601 108.901 14.5242 108.029 14.4676 105.615C14.4547 105.058 14.1882 103.437 14.1726 102.422C14.1528 101.102 14.2483 101.6 14.2252 100.219C14.2233 100.1 14.1644 100.125 14.167 99.2724C14.1782 95.3142 14.2125 90.9989 14.2066 86.8857C14.2061 86.3238 14.1126 87.0441 14.1102 86.2323C14.0991 82.4231 14.1026 78.248 14.1463 74.537C14.1574 73.6236 14.2228 74.1962 14.2423 73.9979C14.3599 72.7806 14.189 71.0542 14.1858 70.7694C14.1037 63.9748 14.2583 58.7747 14.1847 51.8495C14.1803 51.4725 13.9972 48.5708 14.1543 47.2762C14.1647 47.1876 14.3254 45.9067 14.2155 44.7743C14.2087 44.7039 14.1259 45.502 14.1344 44.1092C14.1428 42.7164 14.0875 40.4749 14.1784 38.5604C14.2071 37.9543 14.3674 36.5217 14.2396 34.7137C14.2307 34.5959 13.9417 31.8047 14.1411 30.8084C14.1739 30.6469 14.3849 30.8159 14.2767 28.658C14.2557 28.2457 14.2087 28.9942 14.1793 27.908C14.134 26.2438 14.1905 24.0388 14.0965 21.993C14.0799 21.6362 13.9367 20.1174 14.0454 18.8992C14.0624 18.7084 14.1328 19.0709 14.1407 18.4275C14.1785 15.3681 14.1314 12.1646 14.1801 9.05835C14.1973 7.9581 14.3111 8.52063 14.3416 7.37378C14.3721 6.22662 14.4015 3.91577 14.3495 2.71558C14.2974 1.51508 14.1159 2.82648 14.1014 1.02808C14.0995 0.797333 14.0978 0.56665 14.0963 0.33606L15 1.23981C10.3181 1.27173 5.66116 1.24554 1 1.21732L1.88124 0.33606C1.86373 3.22485 1.84541 6.11533 1.83963 9.01425C1.83731 10.1722 1.90224 9.21216 1.90347 10.9185C1.90831 17.2096 1.96919 28.071 1.83121 33.5299C1.72069 37.9038 1.63656 32.3995 1.59159 35.7419C1.57013 37.3546 1.78111 39.0995 1.78775 39.4889C1.85522 43.2924 1.76176 45.9357 1.79044 49.359C1.79639 50.066 1.8819 49.3727 1.88602 49.9743C1.90085 52.0294 1.86268 54.1892 1.86966 56.153C1.87299 57.034 1.9383 56.8717 1.93326 57.6823C1.92195 59.622 1.8945 61.3372 1.83328 63.2282C1.82771 63.4005 1.74646 62.2385 1.74344 63.6735C1.73878 65.9962 1.67839 68.8792 1.74076 71.5515C1.75951 72.3443 1.90878 72.3755 1.8057 74.0798C1.78417 74.4373 1.60493 73.9811 1.7598 75.9665C1.78553 76.3004 1.99442 79.6354 1.85977 81.2722C1.82434 81.704 1.67767 82.806 1.70072 83.7595C1.70439 83.8889 1.78457 83.3708 1.79239 84.1609C1.81856 86.9454 1.81 89.8637 1.83512 92.7244C1.84198 93.4883 1.92495 92.3505 1.93253 93.489C1.9535 96.6201 1.93237 100.529 1.9064 103.591C1.89667 104.719 1.82795 103.939 1.82047 104.021C1.69882 105.342 1.86302 106.123 1.87259 106.561C1.92992 109.288 1.85279 111.364 1.8732 113.877C1.87863 114.57 1.95692 114.079 1.9639 114.217C2.03211 115.648 1.89151 114.582 1.87601 115.488C1.83212 118.027 1.83842 120.857 1.84842 123.425C1.85221 124.368 1.94299 123.308 1.94534 124.154C1.96099 129.163 1.9523 134.371 1.90225 139.26C1.89267 140.18 1.82276 139.601 1.80679 139.793C1.69509 141.115 1.84746 143.053 1.86197 143.499C1.92824 145.526 1.86642 146.314 1.87796 148.104C1.93541 156.851 1.89447 167.651 1.86917 175.907C1.83662 186.666 1.77012 195.015 1.78739 205.274C1.7884 205.926 1.88139 205.269 1.88345 205.831C1.90587 213.088 1.86953 220.233 1.89639 227.505C1.89843 228.102 1.98659 227.241 1.99283 228.199C2.00624 230.164 2.00145 232.652 1.9733 234.639C1.95974 235.608 1.88409 234.308 1.87198 235.283C1.84362 237.554 1.83734 239.988 1.85147 242.32C1.85768 243.313 1.94784 241.815 1.94888 243.106C1.95783 251.894 1.97336 260.525 1.8566 269.405C1.84858 270.014 1.66533 270.548 1.70047 271.843C1.75133 271.94 1.81115 271.935 1.86551 271.978C1.89479 284.771 1.83127 297.434 1.82144 310.263C1.82105 310.804 1.91815 309.869 1.91788 310.916C1.91644 316.977 1.94334 322.863 1.84683 329.063C1.8374 329.678 1.66658 329.362 1.69242 331.175C1.69713 331.495 1.71991 334.225 1.75699 334.931C1.76258 335.027 1.84231 334.529 1.84464 335.408C1.85674 340.521 1.83854 345.879 1.78983 350.983C1.78181 351.806 1.69691 350.929 1.69046 351.516C1.64539 355.678 1.70993 360.204 1.63285 364.181C1.58094 366.843 1.43417 365.857 1.28971 367.272C1.26932 367.472 1.26609 369.12 1.18204 369.205C0.970681 369.424 0.739242 368.626 0.513952 368.953C0.465427 369.023 0.517692 371.23 0.400427 369.923C0.392579 369.832 0.35366 368.231 0.31388 367.837C0.286376 367.563 0.200894 368.057 0.165687 367.497C0.130513 366.937 0.202169 366.322 0.160804 365.394C0.118927 364.466 0.0216813 364.874 0.0101698 363.021ZM14.6389 131.259C14.7205 129.794 14.4214 129.577 14.493 131.162C14.4968 131.239 14.6349 131.334 14.6389 131.259ZM14.6861 308.537C14.818 306.622 14.6241 305.311 14.5222 306.662C14.4204 308.014 14.6461 309.121 14.6861 308.537ZM14.7824 328.401C14.8865 326.162 14.4623 325.81 14.5481 328.207C14.5529 328.347 14.7764 328.532 14.7824 328.401ZM1.24857 360.712C1.2446 360.732 1.24073 361.917 1.24466 361.946C1.33965 362.577 1.34733 360.207 1.24857 360.712ZM14.8873 348.112C14.9447 347.413 14.8784 345.401 14.8071 346.269C14.7497 346.968 14.8159 348.982 14.8873 348.112ZM14.9581 54.826C14.9626 54.8029 14.9666 53.9535 14.9414 53.9706C14.8602 54.0282 14.8831 55.2104 14.9581 54.826ZM3.72324 370.228C8.67287 370.244 11.6739 370.595 6.28379 370.555C5.3077 370.548 8.3875 370.443 7.14512 370.412C4.87186 370.354 3.36239 370.574 1.04257 370.456C0.62262 370.435 3.44089 370.227 3.73203 370.228C3.7291 370.228 3.72617 370.228 3.72324 370.228ZM14.9981 130.415C15.0021 130.386 15.0058 129.21 15.0019 129.182C14.907 128.545 14.8994 130.914 14.9981 130.415ZM15.143 5.25854C15.1515 5.19363 15.1593 2.46472 15.1516 2.37573C14.9963 0.952118 14.9799 6.46927 15.143 5.25854ZM15.217 209.611C15.3125 210.894 15.3238 212.429 15.2038 213.451C15.2102 212.176 15.2111 210.893 15.217 209.611Z" fill="black"/>
</svg>
