<svg width="233" height="16" viewBox="0 0 233 16" fill="none" xmlns="http://www.w3.org/2000/svg">
<path d="M0.222168 1H232.222V15H0.222168V1Z" fill="#C02B53"/>
<path d="M4.90849 0.0101698C7.66553 -0.015883 11.2795 0.0119737 14.0262 0.0502087C14.8869 0.0620673 14.4511 0.115075 15.0453 0.125648C16.2074 0.146258 17.2901 0.120261 18.4386 0.144813C18.8192 0.153209 18.3454 0.237174 18.7445 0.244056C20.9315 0.281163 23.0004 0.259777 25.2158 0.277625C36.1283 0.365685 46.855 0.397205 57.9009 0.435461C61.5431 0.448004 65.9706 0.524206 69.7325 0.490881C70.1717 0.486916 69.9098 0.413216 69.9934 0.407141C71.3039 0.31415 70.8681 0.462935 71.7238 0.482702C75.1199 0.560754 78.8963 0.567542 82.1646 0.539099C83.5551 0.526782 82.161 0.380395 83.561 0.462561C83.6582 0.468112 83.3054 0.546377 83.6868 0.554724C84.5515 0.573498 86.1922 0.559509 86.8624 0.56571C88.154 0.578057 88.3677 0.577269 89.5894 0.578161C91.2595 0.580061 93.2459 0.618966 95.0379 0.601232C95.4203 0.597215 94.914 0.516985 95.524 0.503332C96.1345 0.489702 97.7496 0.496505 98.2942 0.515417C98.8388 0.534339 98.6069 0.597399 98.7033 0.611852C99.4963 0.733849 101.365 0.564884 101.605 0.560705C105.988 0.489506 109.746 0.58576 113.861 0.585485C116.984 0.585073 120.324 0.553296 123.295 0.557653C126.836 0.563155 129.837 0.606631 133.276 0.599157C133.639 0.598461 133.214 0.504129 133.657 0.503088C138.368 0.492111 143.046 0.502394 147.736 0.566076C148.206 0.572546 147.6 0.655368 148.07 0.666784C150.947 0.734849 155.499 0.898357 157.208 0.537756C159.157 0.551837 161.523 0.566385 163.266 0.639074C164.391 0.685858 163.299 0.776084 164.68 0.737585C164.991 0.729007 164.586 0.649991 165.053 0.643102C167.02 0.614176 169.168 0.639861 171.113 0.599035C171.509 0.590545 171.401 0.519744 171.513 0.506994C172.455 0.403741 174.024 0.574425 174.366 0.586828C176.97 0.679315 178.871 0.642919 181.297 0.645178C181.86 0.645741 181.195 0.550639 181.736 0.547766C184.546 0.534136 187.456 0.54231 190.207 0.584509C190.818 0.594124 190.256 0.675134 190.548 0.683874C191.837 0.721424 192.123 0.568417 193.36 0.601477C193.62 0.60825 193.473 0.6776 193.521 0.685217C194.265 0.804778 194.912 0.635368 195.103 0.631628C197.524 0.580523 199.072 0.757378 201.411 0.732336C201.691 0.729161 201.06 0.641412 201.847 0.637853C207.087 0.61363 212.629 0.637735 217.817 0.707922C218.623 0.718716 218.047 0.784634 218.098 0.79276C218.925 0.919728 219.461 0.749606 219.723 0.7432C221.798 0.697082 223.736 0.839748 225.146 0.637121C227.507 0.656022 229.866 0.661622 232.222 0.66323L232.558 0.661867L232.559 1C232.556 5.67712 232.568 10.3434 232.524 15L232.525 15.3003L232.222 15.3015C230.498 15.285 228.775 15.2607 227.053 15.2248C226.942 15.2227 227.141 15.1389 226.92 15.1351C224.258 15.0881 224.769 15.2183 223.008 15.3775C222.565 15.4175 221.215 15.2252 221.096 15.2111C220.661 15.1592 221.112 15.0346 220.966 15.0245C219.761 14.9455 219.957 15.3577 218.331 15.3579C218.28 15.3572 218.494 15.2813 218.358 15.2738C217.934 15.2501 217.513 15.2802 217.098 15.2541C216.149 15.1937 215.81 14.9934 214.36 15.11C214.176 15.1251 214.457 15.3589 213.005 15.3479C212.426 15.3433 209.864 15.3473 209.146 15.3321C208.429 15.317 208.921 15.2416 208.87 15.2384C206.938 15.1387 207.671 15.0974 206.702 14.9499C205.734 14.803 206.003 15.1535 205.608 15.1926C205.213 15.2316 203.796 15.1494 203.448 15.1208C203.1 15.0922 203.534 15.0443 203.225 15.0282C201.173 14.9225 202.324 15.2021 201.648 15.2578C200.054 15.3895 198.813 15.1296 197.354 15.1041C196.959 15.0972 197.281 15.1564 196.93 15.162C195.537 15.1831 194.7 15.102 193.116 15.1764C192.857 15.1885 191.576 15.3448 190.747 15.2301C190.63 15.2135 190.964 15.1488 190.37 15.1342C189.484 15.1125 187.887 15.0983 186.934 15.12C186.23 15.136 187.037 15.2427 186.151 15.2096C185.758 15.1948 186.487 15.1323 185.748 15.1097C185.012 15.0871 183.132 15.0899 182.416 15.092C181.702 15.0942 182.093 15.1752 182.035 15.1806C181.686 15.2119 180.315 15.2509 180.194 15.2508C174.084 15.2607 168.45 15.1242 162.501 15.1694C162.034 15.1728 162.345 15.2582 162.274 15.2596C160.676 15.2954 161.936 15.0684 160.819 14.9924C160.981 15.1657 160.322 15.1343 159.196 15.1533C158.654 15.1626 158.949 15.2297 158.899 15.2365C158.095 15.3384 157.535 15.2068 157.391 15.1799C156.858 15.0809 156.278 15.1979 155.915 15.1317C155.553 15.066 156.387 14.9686 155.307 14.9698C155.004 15.0318 155.806 15.1939 154.986 15.2202C151.893 15.3195 146.12 15.1924 143.633 15.1792C141.151 15.166 140.35 15.1774 138.904 15.155C136.291 15.1145 137.249 15.2347 135.627 15.2898C134 15.3448 134.791 15.0489 134.557 14.9853C134.327 14.9217 134.077 14.9872 133.791 14.9522C133.507 14.9173 134.123 14.874 133.453 14.8609C132.784 14.8478 130.952 14.9609 130.715 15.0274C130.213 15.1683 131.038 15.3162 129.266 15.2642C129.164 15.2612 129.495 15.1834 129.105 15.1755C126.005 15.1156 122.785 15.1119 119.689 15.0589C119.263 15.0515 119.644 14.965 119.396 14.9597C116.815 14.9043 117.738 15.0503 116.323 15.2124C116.641 14.9966 115.859 14.8646 113.9 14.8634C112.723 14.8625 112.926 14.9567 112.164 15.0232C111.936 15.0432 111.103 14.9785 110.952 15.0228C110.454 15.1676 111.239 15.3298 109.22 15.2652C109.131 15.2622 109.413 15.1829 109.107 15.1781C107.128 15.1466 106.892 15.2981 104.753 15.3165C103.076 15.3309 100.095 15.2385 98.1858 15.2235C98.2259 14.9809 96.4229 15.0365 95.6914 15.2037C94.4526 15.1969 93.1145 15.2063 91.9171 15.1832C91.5051 15.1753 91.7758 15.1051 91.7238 15.0975C90.9269 14.9785 90.3884 15.1412 90.121 15.1475C87.2228 15.2096 84.8616 15.0862 82.0956 15.2068C81.9975 15.2111 81.8384 15.3796 81.099 15.2566C81.0512 15.2481 81.9647 15.1714 80.6636 15.1655C79.3623 15.1596 76.9091 15.0692 75.1026 15.1473C74.6654 15.1661 73.5596 15.3029 72.6721 15.196C72.5538 15.1815 72.6832 15.1332 72.5125 15.1063C71.9607 15.0206 71.6596 15.1909 71.0111 15.0462C70.3626 14.9016 69.0136 14.7932 67.1917 14.893C67.1337 14.8959 66.7024 15.0309 66.1294 15.0288C65.2147 15.0253 63.9164 14.9971 62.9613 14.998C62.504 14.9985 62.7967 15.0823 62.7173 15.0838C59.6428 15.1308 57.4546 15.0561 54.1608 15.0236C53.5571 15.0175 51.8219 15.1318 50.653 15.0415C49.3695 14.9426 50.6884 14.5311 47.7383 14.6291C46.5484 14.6683 45.0419 15.1903 42.9036 14.9199C38.7564 14.9869 34.9211 14.8485 30.7623 14.9442C30.5753 14.9484 29.9839 15.0941 29.5443 15.0921C28.8916 15.0889 28.5333 15.0208 28.0672 15.0163C26.1143 14.9958 24.3271 15.0541 22.4442 15.045C21.7294 15.0417 21.9793 14.9713 21.1267 14.9674C20.2746 14.9635 19.7064 15.0562 18.5516 15.0114C17.6796 14.9773 16.8076 14.7878 15.6501 14.7657C15.6059 14.9526 14.8109 14.9488 13.3979 14.9981C13.1262 15.0077 13.4175 15.0728 13.289 15.0807C12.7661 15.1142 12.2822 15.0603 11.7857 15.0968C11.6649 15.1055 11.6592 15.1694 11.5604 15.1801C10.7208 15.2742 9.33752 15.1306 9.09989 15.1056C8.18938 15.0106 7.76382 15.0936 7.06541 15.0562C6.36818 15.0189 7.4107 14.9721 6.5962 14.9494C4.90786 14.9025 2.7386 14.9128 1.02388 14.9099C0.339734 14.9091 0.806474 14.9943 0.708578 14.9962C0.546281 14.9987 0.383874 14.9997 0.222168 14.9997C0.221741 13.752 0.275548 12.5511 0.125279 11.8566C0.564156 10.8757 0.0827106 11.0035 0.170567 8.9813C0.177673 8.822 0.385215 8.61936 0.415684 9.23092C0.446124 9.84244 0.38125 10.7698 0.428745 11.6183C0.439891 11.8192 0.634371 12.9702 0.646152 13.1272C0.738222 14.3574 0.428079 14.5317 0.411045 14.5968C0.381322 14.7161 0.361882 14.8529 0.350238 15L0.222168 14.8719C0.984731 14.9323 2.02341 14.7831 2.33393 14.771C4.02834 14.7046 5.46803 14.7482 6.88524 14.7009C7.81215 14.6703 7.90286 14.4671 8.63069 14.4734C11.0503 14.4939 11.8948 14.7773 14.1749 14.5316C14.6638 14.4792 14.1779 14.2571 15.9297 14.4317C16.0398 14.4427 17.3404 14.6025 18.0918 14.5014C18.1862 14.4887 18.1832 14.424 18.3077 14.4185C19.1418 14.3834 19.6981 14.4349 20.6068 14.4102C21.5154 14.3856 22.608 14.3487 23.6454 14.3707C24.2706 14.3838 25.0728 14.5044 25.3721 14.5339C26.2171 14.6189 27.1232 14.4795 27.6468 14.5825C28.1747 14.686 27.1426 14.8431 28.527 14.91C28.5783 14.7419 28.6961 14.5693 28.7785 14.4002C31.8125 14.4062 34.7977 14.4605 37.8417 14.4531C38.2191 14.452 37.8332 14.3616 38.2378 14.3581C39.9447 14.3438 41.4356 14.4082 43.2057 14.3825C44.576 14.3623 46.0785 14.2666 47.5112 14.2425C48.3864 14.4349 50.5124 14.3696 52.0569 14.3872C52.5979 14.3932 52.5618 14.4446 52.9465 14.4614C54.398 14.5234 53.7179 14.3534 54.1158 14.3266C55.8231 14.2124 55.9692 14.5972 57.9821 14.5877C58.0887 14.5874 59.3922 14.3822 59.5718 14.3695C60.7125 14.2862 59.7606 14.4409 60.4745 14.456C61.778 14.4837 62.6838 14.5327 64.2132 14.4726C64.6591 14.4548 65.7289 14.327 66.5949 14.4259C66.7088 14.4388 66.6459 14.5066 66.7375 14.5106C68.3973 14.5768 68.441 14.3637 69.3895 14.2916C70.3382 14.2195 71.8033 14.3665 72.1015 14.4089C72.8816 14.5185 71.5038 14.4558 71.4615 14.4665C70.9652 14.5946 72.0338 14.5725 72.8504 14.5833C72.9686 14.7922 74.1104 14.7797 73.6968 14.5937C73.6497 14.5734 73.0143 14.5929 72.8504 14.5833C73.567 14.3784 74.822 14.3522 76.208 14.5437C76.8568 14.6334 76.2434 14.7381 78.2144 14.6998C79.1088 14.6825 78.7632 14.5387 79.5525 14.4995C81.3559 14.41 83.6992 14.5442 85.5584 14.523C86.2332 14.5154 85.5758 14.4366 86.037 14.4287C87.2608 14.4073 88.3401 14.4664 89.5692 14.4361C89.6806 14.4333 89.4085 14.3509 89.7907 14.3498C92.6882 14.3403 95.2112 14.393 98.2364 14.3945C99.6981 14.3952 102.311 14.3497 103.826 14.3589C106.45 14.3742 109.678 14.494 111.92 14.4649C113.383 14.4463 113.062 14.3639 113.688 14.3077C114.897 14.1988 117.038 14.3938 117.326 14.424C117.335 14.425 116.076 14.4445 116.748 14.4868C117.138 14.5749 117.312 14.4244 117.326 14.424C117.515 14.4435 120.028 14.4623 120.528 14.4465C120.799 14.4379 120.647 14.3598 120.788 14.3568C124.149 14.2869 127.516 14.267 130.925 14.3036C130.985 14.3051 130.895 14.3925 131.036 14.3951C133.009 14.4339 134.273 14.3271 135.901 14.2636C137.528 14.2002 138.819 14.2215 139.782 14.3714C141.01 14.3525 142.772 14.4188 143.785 14.4591C144.799 14.4993 144.94 14.3293 145.03 14.3259C147.812 14.2183 149.42 14.3156 152.306 14.3308C153.678 14.3383 156.4 14.3136 157.886 14.295C159.06 14.28 159.768 14.3199 160.85 14.2944C160.996 14.291 160.848 14.2153 160.893 14.2124C162.1 14.1218 161.52 14.3069 161.769 14.3399C162.673 14.4601 163.231 14.5242 164.778 14.4676C165.134 14.4547 166.173 14.1882 166.823 14.1726C167.669 14.1528 167.35 14.2483 168.235 14.2252C168.311 14.2233 168.295 14.1644 168.841 14.167C171.377 14.1782 174.141 14.2125 176.776 14.2066C177.136 14.2061 176.675 14.1126 177.195 14.1102C179.635 14.0991 182.31 14.1026 184.687 14.1463C185.272 14.1574 184.906 14.2228 185.033 14.2423C185.812 14.3599 186.918 14.189 187.101 14.1858C191.454 14.1037 194.785 14.2583 199.221 14.1847C199.463 14.1803 201.322 13.9972 202.151 14.1543C202.208 14.1647 203.028 14.3254 203.754 14.2155C203.799 14.2087 203.288 14.1259 204.18 14.1344C205.072 14.1428 206.508 14.0875 207.735 14.1784C208.123 14.2071 209.041 14.3674 210.199 14.2396C210.274 14.2307 212.063 13.9417 212.701 14.1411C212.804 14.1739 212.696 14.3849 214.078 14.2767C214.343 14.2557 213.863 14.2087 214.559 14.1793C215.625 14.134 217.038 14.1905 218.348 14.0965C218.577 14.0799 219.55 13.9367 220.33 14.0454C220.452 14.0624 220.22 14.1328 220.632 14.1407C222.592 14.1785 224.644 14.1314 226.634 14.1801C227.339 14.1973 226.979 14.3111 227.714 14.3416C228.449 14.3721 229.929 14.4015 230.698 14.3495C231.467 14.2974 230.627 14.1159 231.779 14.1014C231.927 14.0995 232.074 14.0978 232.222 14.0963L231.318 15C231.269 10.3181 231.36 5.67506 231.381 1L232.222 1.8416C232.046 1.84084 231.87 1.84018 231.694 1.83963C230.952 1.83731 231.567 1.90224 230.474 1.90347C226.444 1.90831 219.486 1.96919 215.989 1.83121C213.187 1.72069 216.713 1.63656 214.572 1.59159C213.538 1.57013 212.421 1.78111 212.171 1.78775C209.735 1.85522 208.041 1.76176 205.848 1.79044C205.395 1.79639 205.839 1.8819 205.454 1.88602C204.137 1.90085 202.754 1.86268 201.496 1.86966C200.931 1.87299 201.035 1.9383 200.516 1.93326C199.273 1.92195 198.175 1.8945 196.963 1.83328C196.853 1.82771 197.597 1.74646 196.678 1.74344C195.19 1.73878 193.343 1.67839 191.631 1.74076C191.123 1.75951 191.103 1.90878 190.011 1.8057C189.782 1.78417 190.075 1.60493 188.803 1.7598C188.589 1.78553 186.452 1.99442 185.404 1.85977C185.127 1.82434 184.421 1.67767 183.81 1.70072C183.727 1.70439 184.059 1.78457 183.553 1.79239C181.769 1.81856 179.9 1.81 178.067 1.83512C177.578 1.84198 178.307 1.92495 177.577 1.93253C175.572 1.9535 173.067 1.93237 171.106 1.9064C170.383 1.89667 170.883 1.82795 170.83 1.82047C169.984 1.69882 169.484 1.86302 169.203 1.87259C167.456 1.92992 166.126 1.85279 164.516 1.8732C164.072 1.87863 164.387 1.95692 164.299 1.9639C163.381 2.03211 164.065 1.89151 163.484 1.87601C161.858 1.83212 160.045 1.83842 158.4 1.84842C157.796 1.85221 158.475 1.94299 157.932 1.94534C154.723 1.96099 151.387 1.9523 148.256 1.90225C147.666 1.89267 148.037 1.82276 147.914 1.80679C147.067 1.69509 145.825 1.84746 145.54 1.86197C144.241 1.92824 143.736 1.86642 142.589 1.87796C136.986 1.93541 130.067 1.89447 124.778 1.86917C117.886 1.83662 112.537 1.77012 105.965 1.78739C105.547 1.7884 105.968 1.88139 105.608 1.88345C100.959 1.90587 96.3819 1.86953 91.7234 1.89639C91.3411 1.89843 91.8921 1.98659 91.2786 1.99283C90.02 2.00624 88.4258 2.00145 87.1533 1.9733C86.5326 1.95974 87.3651 1.88409 86.7404 1.87198C85.2857 1.84362 83.7264 1.83734 82.2322 1.85147C81.5963 1.85768 82.5557 1.94784 81.7292 1.94888C76.0993 1.95783 70.5701 1.97336 64.8809 1.8566C64.4908 1.84858 64.1486 1.66533 63.3193 1.70047C63.2569 1.75133 63.2603 1.81115 63.233 1.86551C55.0373 1.89479 46.9253 1.83127 38.7065 1.82144C38.36 1.82105 38.9589 1.91815 38.288 1.91788C34.4051 1.91644 30.6346 1.94334 26.6629 1.84683C26.2688 1.8374 26.471 1.66658 25.3097 1.69242C25.1049 1.69713 23.3558 1.71991 22.9036 1.75699C22.8422 1.76258 23.1613 1.84231 22.5977 1.84464C19.3224 1.85674 15.89 1.83854 12.6204 1.78983C12.0927 1.78181 12.6547 1.69691 12.2788 1.69046C9.61275 1.64539 6.71283 1.70993 4.16527 1.63285C2.46002 1.58094 3.09135 1.43417 2.18521 1.28971C2.05704 1.26932 1.0011 1.26609 0.946496 1.18204C0.806306 0.970681 1.31777 0.739242 1.1079 0.513952C1.06357 0.465427 -0.350612 0.517692 0.486672 0.400427C0.545165 0.392579 1.57045 0.35366 1.82298 0.31388C1.9988 0.286376 1.68197 0.200894 2.04069 0.165687C2.39939 0.130513 2.79355 0.202169 3.38826 0.160804C3.9827 0.118927 3.72132 0.0216813 4.90849 0.0101698ZM148.35 14.6389C149.288 14.7205 149.427 14.4214 148.412 14.493C148.363 14.4968 148.301 14.6349 148.35 14.6389ZM34.7806 14.6861C36.0078 14.818 36.8475 14.6241 35.9818 14.5222C35.1162 14.4204 34.4068 14.6461 34.7806 14.6861ZM22.0557 14.7824C23.4899 14.8865 23.7157 14.4623 22.1796 14.5481C22.0902 14.5529 21.9719 14.7764 22.0557 14.7824ZM6.38744 1.24857C6.37448 1.2446 5.61543 1.24073 5.59729 1.24466C5.19311 1.33965 6.7109 1.34733 6.38744 1.24857ZM9.42834 14.8873C9.87608 14.9447 11.1652 14.8784 10.6089 14.8071C10.1611 14.7497 8.87074 14.8159 9.42834 14.8873ZM197.315 14.9581C197.329 14.9626 197.874 14.9666 197.863 14.9414C197.826 14.8602 197.068 14.8831 197.315 14.9581ZM0.329991 2.74458C0.314026 5.91543 -0.0363243 7.83795 0.00320937 4.38493C0.0103621 3.75962 0.114933 5.73262 0.146519 4.93672C0.204064 3.48041 -0.0159129 2.5134 0.101964 1.02727C0.123539 0.75824 0.33168 2.5637 0.330479 2.75021C0.330316 2.74833 0.330153 2.74646 0.329991 2.74458ZM148.89 14.9981C148.909 15.0021 149.662 15.0058 149.68 15.0019C150.088 14.907 148.571 14.8994 148.89 14.9981ZM229.069 15.143C229.11 15.1515 230.859 15.1593 230.916 15.1516C231.827 14.9963 228.293 14.9799 229.069 15.143ZM98.1557 15.217C97.3337 15.3125 96.3505 15.3238 95.6952 15.2038C96.512 15.2102 97.3344 15.2111 98.1557 15.217Z" fill="black"/>
</svg>
