<svg width="173" height="16" viewBox="0 0 173 16" fill="none" xmlns="http://www.w3.org/2000/svg">
<path d="M0.222046 1H172.222V15H0.222046V1Z" fill="#C02B53"/>
<path d="M3.76537 0.0101698C5.84995 -0.015883 8.5825 0.0119737 10.6592 0.0502087C11.31 0.0620673 10.9805 0.115075 11.4298 0.125648C12.3085 0.146258 13.1271 0.120261 13.9954 0.144813C14.2832 0.153209 13.925 0.237174 14.2268 0.244056C15.8803 0.281163 17.4446 0.259777 19.1197 0.277625C27.3706 0.365685 35.481 0.397205 43.8328 0.435461C46.5866 0.448004 49.9342 0.524206 52.7786 0.490881C53.1107 0.486916 52.9127 0.413216 52.9759 0.407141C53.9668 0.31415 53.6373 0.462935 54.2843 0.482702C56.852 0.560754 59.7074 0.567542 62.1786 0.539099C63.2299 0.526782 62.1758 0.380395 63.2343 0.462561C63.3079 0.468112 63.0411 0.546377 63.3294 0.554724C63.9833 0.573498 65.2237 0.559509 65.7305 0.56571C66.7071 0.578057 66.8687 0.577269 67.7924 0.578161C69.0552 0.580061 70.5571 0.618966 71.912 0.601232C72.2011 0.597215 71.8183 0.516985 72.2795 0.503332C72.7411 0.489702 73.9623 0.496505 74.374 0.515417C74.7859 0.534339 74.6105 0.597399 74.6834 0.611852C75.283 0.733849 76.6956 0.564884 76.8773 0.560705C80.1912 0.489506 83.0331 0.58576 86.1438 0.585485C88.5053 0.585073 91.0305 0.553296 93.2775 0.557653C95.9545 0.563155 98.2234 0.606631 100.824 0.599157C101.099 0.598461 100.777 0.504129 101.112 0.503088C104.674 0.492111 108.21 0.502394 111.757 0.566076C112.112 0.572546 111.654 0.655368 112.009 0.666784C114.185 0.734849 117.627 0.898357 118.919 0.537756C120.392 0.551837 122.181 0.566385 123.499 0.639074C124.349 0.685858 123.524 0.776084 124.568 0.737585C124.803 0.729007 124.497 0.649991 124.85 0.643102C126.337 0.614176 127.962 0.639861 129.433 0.599035C129.732 0.590545 129.65 0.519744 129.735 0.506994C130.447 0.403741 131.633 0.574425 131.892 0.586828C133.861 0.679315 135.298 0.642919 137.132 0.645178C137.558 0.645741 137.055 0.550639 137.464 0.547766C139.589 0.534136 141.789 0.54231 143.869 0.584509C144.331 0.594124 143.906 0.675134 144.127 0.683874C145.102 0.721424 145.318 0.568417 146.253 0.601477C146.45 0.60825 146.339 0.6776 146.375 0.685217C146.937 0.804778 147.426 0.635368 147.571 0.631628C149.402 0.580523 150.572 0.757378 152.341 0.732336C152.552 0.729161 152.075 0.641412 152.67 0.637853C156.632 0.61363 160.823 0.637735 164.745 0.707922C165.354 0.718716 164.919 0.784634 164.958 0.79276C165.583 0.919728 165.988 0.749606 166.186 0.7432C167.755 0.697082 169.22 0.839748 170.286 0.637121C170.932 0.643954 171.577 0.649049 172.222 0.652845L172.567 0.650989L172.569 1C172.542 5.68082 172.582 10.3468 172.524 15L172.525 15.2999L172.222 15.3015C170.918 15.285 169.615 15.2607 168.314 15.2248C168.23 15.2227 168.38 15.1389 168.213 15.1351C166.201 15.0881 166.587 15.2183 165.256 15.3775C164.92 15.4175 163.9 15.2252 163.81 15.2111C163.481 15.1592 163.822 15.0346 163.712 15.0245C162.8 14.9455 162.949 15.3577 161.719 15.3579C161.681 15.3572 161.842 15.2813 161.739 15.2738C161.419 15.2501 161.101 15.2802 160.787 15.2541C160.069 15.1937 159.813 14.9934 158.716 15.11C158.578 15.1251 158.79 15.3589 157.692 15.3479C157.254 15.3433 155.317 15.3473 154.774 15.3321C154.232 15.317 154.604 15.2416 154.566 15.2384C153.105 15.1387 153.659 15.0974 152.927 14.9499C152.195 14.803 152.398 15.1535 152.099 15.1926C151.8 15.2316 150.729 15.1494 150.466 15.1208C150.203 15.0922 150.531 15.0443 150.297 15.0282C148.746 14.9225 149.616 15.2021 149.105 15.2578C147.9 15.3895 146.961 15.1296 145.858 15.1041C145.56 15.0972 145.803 15.1564 145.538 15.162C144.485 15.1831 143.852 15.102 142.654 15.1764C142.458 15.1885 141.49 15.3448 140.863 15.2301C140.774 15.2135 141.027 15.1488 140.578 15.1342C139.908 15.1125 138.7 15.0983 137.98 15.12C137.448 15.136 138.057 15.2427 137.388 15.2096C137.09 15.1948 137.642 15.1323 137.083 15.1097C136.527 15.0871 135.105 15.0899 134.564 15.092C134.024 15.0942 134.319 15.1752 134.276 15.1806C134.012 15.2119 132.975 15.2509 132.884 15.2508C128.264 15.2607 124.004 15.1242 119.506 15.1694C119.153 15.1728 119.388 15.2582 119.334 15.2596C118.126 15.2954 119.079 15.0684 118.235 14.9924C118.357 15.1657 117.858 15.1343 117.007 15.1533C116.597 15.1626 116.82 15.2297 116.783 15.2365C116.175 15.3384 115.751 15.2068 115.642 15.1799C115.239 15.0809 114.801 15.1979 114.527 15.1317C114.253 15.066 114.883 14.9686 114.067 14.9698C113.838 15.0318 114.444 15.1939 113.824 15.2202C111.486 15.3195 107.12 15.1924 105.24 15.1792C103.364 15.166 102.758 15.1774 101.664 15.155C99.689 15.1145 100.413 15.2347 99.1865 15.2898C97.9565 15.3448 98.5544 15.0489 98.3776 14.9853C98.204 14.9217 98.0145 14.9872 97.7986 14.9522C97.5834 14.9173 98.0493 14.874 97.5432 14.8609C97.0368 14.8478 95.6523 14.9609 95.4728 15.0274C95.0933 15.1683 95.7172 15.3162 94.3772 15.2642C94.3002 15.2612 94.5503 15.1834 94.2552 15.1755C91.9114 15.1156 89.4766 15.1119 87.1357 15.0589C86.8139 15.0515 87.1017 14.965 86.9144 14.9597C84.9632 14.9043 85.6607 15.0503 84.5913 15.2124C84.8314 14.9966 84.2401 14.8646 82.7593 14.8634C81.8692 14.8625 82.0224 14.9567 81.4467 15.0232C81.2739 15.0432 80.6441 14.9785 80.53 15.0228C80.1536 15.1676 80.7469 15.3298 79.2202 15.2652C79.1532 15.2622 79.3665 15.1829 79.135 15.1781C77.6389 15.1466 77.4599 15.2981 75.8428 15.3165C74.5752 15.3309 72.3207 15.2385 70.8774 15.2235C70.9078 14.9809 69.5445 15.0365 68.9915 15.2037C68.0548 15.1969 67.0431 15.2063 66.1377 15.1832C65.8262 15.1753 66.0309 15.1051 65.9916 15.0975C65.3891 14.9785 64.9819 15.1412 64.7797 15.1475C62.5884 15.2096 60.803 15.0862 58.7118 15.2068C58.6375 15.2111 58.5173 15.3796 57.9582 15.2566C57.9221 15.2481 58.6127 15.1714 57.629 15.1655C56.6451 15.1596 54.7903 15.0692 53.4243 15.1473C53.0937 15.1661 52.2576 15.3029 51.5866 15.196C51.4972 15.1815 51.595 15.1332 51.466 15.1063C51.0488 15.0206 50.821 15.1909 50.3307 15.0462C49.8404 14.9016 48.8205 14.7932 47.4429 14.893C47.399 14.8959 47.0729 15.0309 46.6397 15.0288C45.9481 15.0253 44.9664 14.9971 44.2443 14.998C43.8986 14.9985 44.1198 15.0823 44.0598 15.0838C41.7352 15.1308 40.0807 15.0561 37.5903 15.0236C37.1338 15.0175 35.8219 15.1318 34.9381 15.0415C33.9676 14.9426 34.9649 14.5311 32.7343 14.6291C31.8346 14.6683 30.6955 15.1903 29.0787 14.9199C25.943 14.9869 23.0432 14.8485 19.8988 14.9442C19.7574 14.9484 19.3102 15.0941 18.9778 15.0921C18.4842 15.0889 18.2133 15.0208 17.861 15.0163C16.3844 14.9958 15.0331 15.0541 13.6094 15.045C13.0689 15.0417 13.2579 14.9713 12.6132 14.9674C11.969 14.9635 11.5394 15.0562 10.6663 15.0114C10.0069 14.9773 9.34764 14.7878 8.47239 14.7657C8.43906 14.9526 7.8379 14.9488 6.76952 14.9981C6.56416 15.0077 6.78438 15.0728 6.68721 15.0807C6.29182 15.1142 5.92594 15.0603 5.55053 15.0968C5.45921 15.1055 5.45491 15.1694 5.38025 15.1801C4.74541 15.2742 3.69947 15.1306 3.51985 15.1056C2.83138 15.0106 2.50965 15.0936 1.98159 15.0562C1.45433 15.0189 2.24269 14.9721 1.62681 14.9494C1.19151 14.9334 0.713874 14.9241 0.222046 14.9186L0.303452 15C0.314053 14.0495 0.310235 13.0459 0.312168 12.1915C0.312945 11.6742 0.227732 12.0272 0.225865 11.9531C0.204253 10.8835 0.294894 9.80176 0.125157 9.20866C0.564034 8.46701 0.0825886 8.56362 0.170445 7.03464C0.177551 6.9142 0.385092 6.76098 0.415562 7.22338C0.446002 7.68575 0.381127 8.3869 0.428623 9.02843C0.439769 9.18036 0.634249 10.0506 0.64603 10.1694C0.7381 11.0995 0.427957 11.2313 0.410923 11.2805C0.227092 11.8385 0.436607 12.902 0.451084 13.1821C0.484617 13.8297 0.490053 14.4281 0.493346 15L0.222046 14.7287C0.781482 14.7255 1.31544 14.7243 1.84535 14.7009C2.54619 14.6703 2.61473 14.4671 3.16509 14.4734C4.99448 14.4939 5.63312 14.7773 7.35701 14.5316C7.72665 14.4792 7.35933 14.2571 8.68384 14.4317C8.76707 14.4427 9.75045 14.6025 10.3186 14.5014C10.39 14.4887 10.3877 14.424 10.4818 14.4185C11.1125 14.3834 11.5331 14.4349 12.2202 14.4102C12.9072 14.3856 13.7332 14.3487 14.5176 14.3707C14.9904 14.3838 15.5969 14.5044 15.8232 14.5339C16.4621 14.6189 17.1473 14.4795 17.5431 14.5825C17.9423 14.686 17.1619 14.8431 18.2086 14.91C18.2474 14.7419 18.3365 14.5693 18.3988 14.4002C20.6928 14.4062 22.9499 14.4605 25.2515 14.4531C25.5368 14.452 25.245 14.3616 25.5509 14.3581C26.8415 14.3438 27.9688 14.4082 29.3072 14.3825C30.3432 14.3623 31.4792 14.2666 32.5625 14.2425C33.2242 14.4349 34.8318 14.3696 35.9995 14.3872C36.4086 14.3932 36.3812 14.4446 36.6722 14.4614C37.7697 14.5234 37.2553 14.3534 37.5562 14.3266C38.8471 14.2124 38.9576 14.5972 40.4795 14.5877C40.5602 14.5874 41.5457 14.3822 41.6815 14.3695C42.544 14.2862 41.8243 14.4409 42.3641 14.456C43.3496 14.4837 44.0345 14.5327 45.1908 14.4726C45.528 14.4548 46.3368 14.327 46.9916 14.4259C47.0778 14.4388 47.0302 14.5066 47.0995 14.5106C48.3545 14.5768 48.3875 14.3637 49.1046 14.2916C49.8219 14.2195 50.9297 14.3665 51.1552 14.4089C51.745 14.5185 50.7033 14.4558 50.6713 14.4665C50.2961 14.5946 51.104 14.5725 51.7214 14.5833C51.8108 14.7922 52.6741 14.7797 52.3614 14.5937C52.3258 14.5734 51.8454 14.5929 51.7214 14.5833C52.2633 14.3784 53.2121 14.3522 54.2601 14.5437C54.7507 14.6334 54.2869 14.7381 55.7771 14.6998C56.4534 14.6825 56.1921 14.5387 56.7889 14.4995C58.1524 14.41 59.9242 14.5442 61.3299 14.523C61.8401 14.5154 61.3431 14.4366 61.6918 14.4287C62.6171 14.4073 63.4332 14.4664 64.3625 14.4361C64.4467 14.4333 64.241 14.3509 64.5299 14.3498C66.7207 14.3403 68.6284 14.393 70.9157 14.3945C72.0209 14.3952 73.9968 14.3497 75.1417 14.3589C77.126 14.3742 79.5671 14.494 81.2622 14.4649C82.3678 14.4463 82.1253 14.3639 82.5989 14.3077C83.5131 14.1988 85.1312 14.3938 85.3491 14.424C85.3558 14.425 84.4044 14.4445 84.912 14.4868C85.2072 14.5749 85.3384 14.4244 85.3491 14.424C85.4922 14.4435 87.3927 14.4623 87.7701 14.4465C87.9751 14.4379 87.8604 14.3598 87.9673 14.3568C90.5086 14.2869 93.0543 14.267 95.6317 14.3036C95.6771 14.3051 95.6087 14.3925 95.7154 14.3951C97.2076 14.4339 98.163 14.3271 99.3937 14.2636C100.624 14.2002 101.6 14.2215 102.328 14.3714C103.257 14.3525 104.589 14.4188 105.355 14.4591C106.122 14.4993 106.229 14.3293 106.296 14.3259C108.399 14.2183 109.615 14.3156 111.798 14.3308C112.835 14.3383 114.893 14.3136 116.017 14.295C116.904 14.28 117.439 14.3199 118.257 14.2944C118.368 14.291 118.256 14.2153 118.29 14.2124C119.203 14.1218 118.764 14.3069 118.953 14.3399C119.636 14.4601 120.058 14.5242 121.227 14.4676C121.497 14.4547 122.283 14.1882 122.774 14.1726C123.413 14.1528 123.172 14.2483 123.841 14.2252C123.899 14.2233 123.887 14.1644 124.3 14.167C126.217 14.1782 128.307 14.2125 130.3 14.2066C130.572 14.2061 130.223 14.1126 130.616 14.1102C132.461 14.0991 134.483 14.1026 136.281 14.1463C136.723 14.1574 136.446 14.2228 136.542 14.2423C137.132 14.3599 137.968 14.189 138.106 14.1858C141.397 14.1037 143.916 14.2583 147.27 14.1847C147.453 14.1803 148.858 13.9972 149.485 14.1543C149.528 14.1647 150.149 14.3254 150.697 14.2155C150.731 14.2087 150.345 14.1259 151.019 14.1344C151.694 14.1428 152.78 14.0875 153.707 14.1784C154.001 14.2071 154.695 14.3674 155.57 14.2396C155.627 14.2307 156.979 13.9417 157.462 14.1411C157.54 14.1739 157.458 14.3849 158.504 14.2767C158.703 14.2557 158.341 14.2087 158.867 14.1793C159.673 14.134 160.741 14.1905 161.732 14.0965C161.905 14.0799 162.64 13.9367 163.231 14.0454C163.323 14.0624 163.147 14.1328 163.459 14.1407C164.941 14.1785 166.493 14.1314 167.997 14.1801C168.53 14.1973 168.258 14.3111 168.813 14.3416C169.369 14.3721 170.488 14.4015 171.069 14.3495C171.651 14.2974 171.016 14.1159 171.887 14.1014C171.999 14.0995 172.11 14.0978 172.222 14.0963L171.318 15C171.267 11.3267 171.367 7.68511 171.382 4.01525C171.385 3.4544 171.32 3.91936 171.319 3.09286C171.318 2.47324 171.314 1.76208 171.311 1L172.222 1.91123C169.236 1.92484 165.469 1.94113 163.363 1.83121C161.244 1.72069 163.91 1.63656 162.291 1.59159C161.51 1.57013 160.665 1.78111 160.476 1.78775C158.634 1.85522 157.353 1.76176 155.695 1.79044C155.353 1.79639 155.689 1.8819 155.397 1.88602C154.402 1.90085 153.356 1.86268 152.404 1.86966C151.978 1.87299 152.056 1.9383 151.664 1.93326C150.724 1.92195 149.893 1.8945 148.977 1.83328C148.894 1.82771 149.457 1.74646 148.762 1.74344C147.637 1.73878 146.24 1.67839 144.946 1.74076C144.562 1.75951 144.547 1.90878 143.721 1.8057C143.548 1.78417 143.769 1.60493 142.807 1.7598C142.646 1.78553 141.03 1.99442 140.237 1.85977C140.028 1.82434 139.494 1.67767 139.033 1.70072C138.97 1.70439 139.221 1.78457 138.838 1.79239C137.489 1.81856 136.076 1.81 134.69 1.83512C134.32 1.84198 134.871 1.92495 134.32 1.93253C132.803 1.9535 130.91 1.93237 129.427 1.9064C128.88 1.89667 129.258 1.82795 129.218 1.82047C128.579 1.69882 128.2 1.86302 127.988 1.87259C126.667 1.92992 125.662 1.85279 124.445 1.8732C124.109 1.87863 124.347 1.95692 124.28 1.9639C123.586 2.03211 124.103 1.89151 123.664 1.87601C122.434 1.83212 121.063 1.83842 119.82 1.84842C119.363 1.85221 119.876 1.94299 119.466 1.94534C117.04 1.96099 114.518 1.9523 112.15 1.90225C111.704 1.89267 111.984 1.82276 111.891 1.80679C111.251 1.69509 110.312 1.84746 110.096 1.86197C109.114 1.92824 108.733 1.86642 107.866 1.87796C103.629 1.93541 98.3977 1.89447 94.3985 1.86917C89.1872 1.83662 85.1433 1.77012 80.1738 1.78739C79.8579 1.7884 80.1764 1.88139 79.9042 1.88345C76.3889 1.90587 72.9282 1.86953 69.4059 1.89639C69.1168 1.89843 69.5335 1.98659 69.0696 1.99283C68.118 2.00624 66.9126 2.00145 65.9504 1.9733C65.4812 1.95974 66.1106 1.88409 65.6382 1.87198C64.5384 1.84362 63.3594 1.83734 62.2296 1.85147C61.7489 1.85768 62.4742 1.94784 61.8493 1.94888C57.5926 1.95783 53.412 1.97336 49.1103 1.8566C48.8154 1.84858 48.5567 1.66533 47.9297 1.70047C47.8824 1.75133 47.885 1.81115 47.8644 1.86551C41.6676 1.89479 35.5341 1.83127 29.32 1.82144C29.058 1.82105 29.5108 1.91815 29.0035 1.91788C26.0677 1.91644 23.2168 1.94334 20.2138 1.84683C19.9159 1.8374 20.0687 1.66658 19.1907 1.69242C19.0358 1.69713 17.7133 1.71991 17.3714 1.75699C17.325 1.76258 17.5662 1.84231 17.1401 1.84464C14.6637 1.85674 12.0685 1.83854 9.59633 1.78983C9.19734 1.78181 9.62223 1.69691 9.33805 1.69046C7.32225 1.64539 5.12962 1.70993 3.20341 1.63285C1.91408 1.58094 2.39143 1.43417 1.7063 1.28971C1.60939 1.26932 0.810996 1.26609 0.769709 1.18204C0.663711 0.970681 1.05043 0.739242 0.891749 0.513952C0.858224 0.465427 -0.211031 0.517692 0.422036 0.400427C0.466263 0.392579 1.24148 0.35366 1.43241 0.31388C1.56535 0.286376 1.3258 0.200894 1.59703 0.165687C1.86824 0.130513 2.16626 0.202169 2.61592 0.160804C3.06538 0.118927 2.86775 0.0216813 3.76537 0.0101698ZM108.806 14.6389C109.516 14.7205 109.621 14.4214 108.853 14.493C108.816 14.4968 108.77 14.6349 108.806 14.6389ZM22.937 14.6861C23.8648 14.818 24.4997 14.6241 23.8452 14.5222C23.1907 14.4204 22.6543 14.6461 22.937 14.6861ZM13.3157 14.7824C14.4001 14.8865 14.5708 14.4623 13.4093 14.5481C13.3418 14.5529 13.2523 14.7764 13.3157 14.7824ZM4.88359 1.24857C4.8738 1.2446 4.29988 1.24073 4.28616 1.24466C3.98056 1.33965 5.12816 1.34733 4.88359 1.24857ZM3.76819 14.8873C4.10669 14.9447 5.0814 14.8784 4.66078 14.8071C4.3222 14.7497 3.34658 14.8159 3.76819 14.8873ZM145.828 14.9581C145.84 14.9626 146.251 14.9666 146.243 14.9414C146.215 14.8602 145.642 14.8831 145.828 14.9581ZM0.329868 2.31907C0.313904 4.71654 -0.0364464 6.17016 0.0030873 3.55934C0.0102401 3.08654 0.114811 4.57832 0.146397 3.97654C0.203942 2.87544 -0.016035 2.14428 0.101842 1.02062C0.123417 0.817206 0.331558 2.18231 0.330357 2.32333C0.330194 2.32191 0.330031 2.32049 0.329868 2.31907ZM109.215 14.9981C109.229 15.0021 109.799 15.0058 109.812 15.0019C110.121 14.907 108.973 14.8994 109.215 14.9981ZM169.838 15.143C169.869 15.1515 171.191 15.1593 171.234 15.1516C171.924 14.9963 169.251 14.9799 169.838 15.143ZM70.8547 15.217C70.2332 15.3125 69.4898 15.3238 68.9943 15.2038C69.612 15.2102 70.2337 15.2111 70.8547 15.217Z" fill="black"/>
</svg>
