<svg width="16" height="93" viewBox="0 0 16 93" fill="none" xmlns="http://www.w3.org/2000/svg">
<path d="M1 92.3629L1 0.362854H15L15 92.3629H1Z" fill="#C02B53"/>
<path d="M0.0101698 90.3435C-0.015883 89.1556 0.0119737 87.5983 0.0502087 86.4148C0.0620673 86.0439 0.115075 86.2317 0.125648 85.9757C0.146258 85.4749 0.120261 85.0084 0.144813 84.5135C0.153209 84.3495 0.237174 84.5536 0.244056 84.3817C0.281163 83.4393 0.259777 82.5478 0.277625 81.5932C0.365685 76.8911 0.397205 72.269 0.435461 67.5094C0.448004 65.94 0.524206 64.0322 0.490881 62.4113C0.486916 62.222 0.413216 62.3348 0.407141 62.2988C0.31415 61.7341 0.462935 61.9219 0.482702 61.5532C0.560754 60.0898 0.567542 58.4626 0.539099 57.0543C0.526782 56.4552 0.380395 57.0559 0.462561 56.4526C0.468112 56.4107 0.546377 56.5627 0.554724 56.3984C0.573498 56.0258 0.559509 55.3189 0.56571 55.0301C0.578057 54.4735 0.577269 54.3815 0.578161 53.855C0.580061 53.1354 0.618966 52.2794 0.601232 51.5073C0.597215 51.3425 0.516985 51.5607 0.503332 51.2979C0.489702 51.0348 0.496505 50.3388 0.515417 50.1042C0.534339 49.8695 0.597399 49.9694 0.611852 49.9279C0.733849 49.5862 0.564884 48.7812 0.560705 48.6776C0.489506 46.789 0.58576 45.1695 0.585485 43.3967C0.585073 42.0509 0.553296 40.6118 0.557653 39.3313C0.563155 37.8056 0.606631 36.5126 0.599157 35.0305C0.598461 34.8741 0.504129 35.0574 0.503088 34.8663C0.492111 32.8367 0.502394 30.8211 0.566076 28.8001C0.572546 28.5975 0.655368 28.8587 0.666784 28.6562C0.734849 27.4165 0.898357 25.4549 0.537756 24.7185C0.551837 23.8788 0.566385 22.8593 0.639074 22.108C0.685858 21.6236 0.776084 22.0941 0.737585 21.499C0.729007 21.3648 0.649991 21.5394 0.643102 21.3381C0.614176 20.4908 0.639861 19.565 0.599035 18.7268C0.590545 18.5563 0.519744 18.6028 0.506994 18.5545C0.403741 18.1485 0.574425 17.4726 0.586828 17.3253C0.679315 16.2033 0.642919 15.3839 0.645178 14.3387C0.645741 14.0961 0.550639 14.3828 0.547766 14.1494C0.534136 12.9389 0.54231 11.685 0.584509 10.4997C0.594124 10.236 0.675134 10.4785 0.683874 10.3525C0.721424 9.79697 0.568417 9.67381 0.601477 9.14103C0.60825 9.02872 0.6776 9.09198 0.685217 9.07148C0.804778 8.75085 0.635368 8.47221 0.631628 8.38973C0.580523 7.34641 0.757378 6.67955 0.732336 5.67163C0.729161 5.55106 0.641412 5.82296 0.637853 5.48401C0.619895 3.81002 0.628498 2.06449 0.662746 0.362854L0.659595 0.0288086L1 0.0256042C1.59371 0.0375519 2.18209 0.0526199 2.76022 0.0707779C3.10773 0.0815735 2.85967 0.147491 2.88153 0.155617C3.23794 0.282585 3.46857 0.112457 3.58188 0.106056C4.47582 0.0599365 5.31088 0.202599 5.91826 -2.28882e-05C8.9561 0.0563965 11.9827 -0.00571442 15 0.0613174L15.2987 0.0585022L15.3015 0.362854C15.285 1.10587 15.2607 1.84832 15.2248 2.59023C15.2227 2.63796 15.1389 2.55242 15.1351 2.64764C15.0881 3.79444 15.2183 3.57421 15.3775 4.33302C15.4175 4.52416 15.2252 5.10564 15.2111 5.1571C15.1592 5.34454 15.0346 5.15012 15.0245 5.2129C14.9455 5.73229 15.3577 5.64766 15.3579 6.34834C15.3572 6.37026 15.2813 6.27822 15.2738 6.33701C15.2501 6.51971 15.2802 6.70089 15.2541 6.87966C15.1937 7.28885 14.9934 7.43459 15.11 8.05959C15.1251 8.13869 15.3589 8.01788 15.3479 8.64348C15.3433 8.89286 15.3473 9.9968 15.3321 10.3062C15.317 10.6152 15.2416 10.403 15.2384 10.4251C15.1387 11.2577 15.0974 10.942 14.9499 11.3591C14.803 11.7763 15.1535 11.6606 15.1926 11.8306C15.2316 12.001 15.1494 12.6114 15.1208 12.7615C15.0922 12.9114 15.0443 12.7244 15.0282 12.8577C14.9225 13.7417 15.2021 13.2457 15.2578 13.537C15.3895 14.2238 15.1296 14.7587 15.1041 15.3874C15.0972 15.5575 15.1564 15.4187 15.162 15.5701C15.1831 16.1701 15.102 16.5309 15.1764 17.2135C15.1885 17.3251 15.3448 17.8769 15.2301 18.2341C15.2135 18.2846 15.1488 18.1409 15.1342 18.3966C15.1125 18.7785 15.0983 19.4668 15.12 19.8774C15.136 20.1805 15.2427 19.833 15.2096 20.2146C15.1948 20.3842 15.1323 20.0699 15.1097 20.3885C15.0871 20.7054 15.0899 21.5156 15.092 21.824C15.0942 22.1317 15.1752 21.9633 15.1806 21.9881C15.2119 22.1386 15.2509 22.7293 15.2508 22.7815C15.2607 25.4142 15.1242 27.842 15.1694 30.4053C15.1728 30.6064 15.2582 30.4724 15.2596 30.5031C15.2954 31.1918 15.0684 30.6488 14.9924 31.1299C15.1657 31.0603 15.1343 31.3443 15.1533 31.8294C15.1626 32.0632 15.2297 31.9359 15.2365 31.9572C15.3384 32.3038 15.2068 32.5452 15.1799 32.6074C15.0809 32.837 15.1979 33.0868 15.1317 33.243C15.066 33.3992 14.9686 33.0398 14.9698 33.5051C15.0318 33.6355 15.1939 33.2901 15.2202 33.6434C15.3195 34.9761 15.1924 37.4637 15.1792 38.5353C15.166 39.6047 15.1774 39.9501 15.155 40.5733C15.1145 41.6989 15.2347 41.2864 15.2898 41.9853C15.3448 42.6862 15.0489 42.3455 14.9853 42.4462C14.9217 42.5452 14.9872 42.6532 14.9522 42.7762C14.9173 42.8988 14.874 42.6333 14.8609 42.9218C14.8478 43.2104 14.9609 43.9994 15.0274 44.1017C15.1683 44.3179 15.3162 43.9624 15.2642 44.726C15.2612 44.7699 15.1834 44.6274 15.1755 44.7956C15.1156 46.1313 15.1119 47.5189 15.0589 48.8529C15.0515 49.0363 14.965 48.8723 14.9597 48.9791C14.9043 50.091 15.0503 49.6935 15.2124 50.3029C14.9966 50.1661 14.8646 50.5031 14.8634 51.347C14.8625 51.8543 14.9567 51.7669 15.0232 52.0951C15.0432 52.1935 14.9785 52.5524 15.0228 52.6175C15.1676 52.832 15.3298 52.4939 15.2652 53.3639C15.2622 53.4021 15.1829 53.2806 15.1781 53.4125C15.1466 54.2651 15.2981 54.3671 15.3165 55.2887C15.3309 56.0111 15.2385 57.2958 15.2235 58.1184C14.9809 58.1011 15.0365 58.878 15.2037 59.1932C15.1969 59.727 15.2063 60.3035 15.1832 60.8195C15.1753 60.9971 15.1051 60.8804 15.0975 60.9028C14.9785 61.2462 15.1412 61.4782 15.1475 61.5934C15.2096 62.8423 15.0862 63.8597 15.2068 65.0515C15.2111 65.0938 15.3796 65.1624 15.2566 65.4809C15.2481 65.5016 15.1714 65.1079 15.1655 65.6686C15.1596 66.2293 15.0692 67.2864 15.1473 68.0648C15.1661 68.2532 15.3029 68.7297 15.196 69.1121C15.1815 69.163 15.1332 69.1073 15.1063 69.1808C15.0206 69.4186 15.1909 69.5484 15.0462 69.8278C14.9016 70.1072 14.7932 70.6885 14.893 71.4735C14.8959 71.4986 15.0309 71.6844 15.0288 71.9313C15.0253 72.3254 14.9971 72.8849 14.998 73.2964C14.9985 73.4934 15.0823 73.3673 15.0838 73.4015C15.1308 74.7263 15.0561 75.6692 15.0236 77.0885C15.0175 77.3486 15.1318 78.0963 15.0415 78.6C14.9426 79.153 14.5311 78.5847 14.6291 79.8559C14.6683 80.3686 15.1903 81.0178 14.9199 81.9392C14.9869 83.7262 14.8485 85.3788 14.9442 87.1708C14.9484 87.2513 15.0941 87.5062 15.0921 87.6956C15.0889 87.9769 15.0208 88.1312 15.0163 88.3321C14.9958 89.1736 15.0541 89.9436 15.045 90.755C15.0417 91.063 14.9713 90.9553 14.9674 91.3227C14.9637 91.6724 15.0476 91.9111 15.0169 92.3629L15.0171 92.3796L15 92.3798C14.9774 92.3782 14.9543 92.3764 14.9306 92.3743C14.5548 92.3402 14.1791 92.1507 13.6803 92.1286C13.6613 92.3155 13.3187 92.3116 12.7098 92.361C12.5928 92.3706 12.7183 92.4356 12.6629 92.4435C12.4376 92.477 12.2291 92.4231 12.0152 92.4596C11.9631 92.4684 11.9607 92.5322 11.9181 92.543C11.5563 92.637 10.9603 92.4934 10.8579 92.4684C10.4655 92.3735 10.2822 92.4565 9.98124 92.4191C9.68079 92.3817 10.13 92.335 9.77906 92.3123C9.05157 92.2654 8.11683 92.2757 7.37798 92.2727C7.08317 92.272 7.2843 92.3572 7.24211 92.359C6.63251 92.3806 6.01606 92.29 5.67805 92.4597C5.25539 92.0209 5.31045 92.5023 4.4391 92.4145C4.37046 92.4073 4.28314 92.1998 4.54666 92.1693C4.81016 92.1389 5.20974 92.2038 5.57534 92.1563C5.66193 92.1451 6.15789 91.9507 6.22555 91.9389C6.75562 91.8468 6.83073 92.1569 6.85878 92.174C7.1768 92.3578 7.78286 92.1483 7.94246 92.1338C8.67259 92.0675 9.29292 92.1111 9.9036 92.0637C10.303 92.0331 10.3421 91.83 10.6557 91.8362C11.6983 91.8568 12.0622 92.1402 13.0447 91.8944C13.2553 91.842 13.046 91.62 13.8008 91.7946C13.8482 91.8056 14.4087 91.9653 14.7325 91.8643C14.7731 91.8515 14.7718 91.7868 14.8255 91.7814C14.8867 91.7754 14.9444 91.7719 15 91.7702L14.4073 92.3629C14.3987 92.0919 14.4307 91.8716 14.4102 91.5467C14.3856 91.1552 14.3487 90.6844 14.3707 90.2374C14.3838 89.968 14.5044 89.6224 14.5339 89.4934C14.6189 89.1292 14.4795 88.7388 14.5825 88.5132C14.686 88.2857 14.8431 88.7305 14.91 88.1339C14.7419 88.1119 14.5693 88.0611 14.4002 88.0256C14.4062 86.7182 14.4605 85.4319 14.4531 84.1203C14.452 83.9576 14.3616 84.124 14.3581 83.9496C14.3438 83.2141 14.4082 82.5717 14.3825 81.8089C14.3623 81.2185 14.2666 80.5711 14.2425 79.9538C14.4349 79.5766 14.3696 78.6605 14.3872 77.995C14.3932 77.7619 14.4446 77.7775 14.4614 77.6117C14.5234 76.9863 14.3534 77.2793 14.3266 77.1079C14.2124 76.3722 14.5972 76.3092 14.5877 75.4419C14.5874 75.396 14.3822 74.8343 14.3695 74.7569C14.2862 74.2654 14.4409 74.6756 14.456 74.3679C14.4837 73.8063 14.5327 73.416 14.4726 72.757C14.4548 72.5648 14.327 72.1039 14.4259 71.7307C14.4388 71.6816 14.5066 71.7088 14.5106 71.6693C14.5768 70.954 14.3637 70.9352 14.2916 70.5265C14.2195 70.1178 14.3665 69.4864 14.4089 69.3579C14.5185 69.0218 14.4558 69.6155 14.4665 69.6337C14.5946 69.8476 14.5725 69.3871 14.5833 69.0353C14.7922 68.9843 14.7797 68.4923 14.5937 68.6705C14.5734 68.6908 14.5929 68.9646 14.5833 69.0353C14.3784 68.7264 14.3522 68.1857 14.5437 67.5885C14.6334 67.3089 14.7381 67.5732 14.6998 66.7239C14.6825 66.3385 14.5387 66.4875 14.4995 66.1473C14.41 65.3703 14.5442 64.3605 14.523 63.5594C14.5154 63.2687 14.4366 63.5519 14.4287 63.3532C14.4073 62.8259 14.4664 62.3608 14.4361 61.8312C14.4333 61.7832 14.3509 61.9005 14.3498 61.7358C14.3403 60.4873 14.393 59.4001 14.3945 58.0965C14.3952 57.4667 14.3497 56.3407 14.3589 55.6882C14.3742 54.5574 14.494 53.1662 14.4649 52.2002C14.4463 51.5701 14.3639 51.7083 14.3077 51.4384C14.1988 50.9174 14.3938 49.9953 14.424 49.8711C14.425 49.8673 14.4445 50.4095 14.4868 50.1202C14.5749 49.952 14.4244 49.8772 14.424 49.8711C14.4435 49.7895 14.4623 48.7065 14.4465 48.4914C14.4379 48.3746 14.3598 48.4399 14.3568 48.379C14.2869 46.9307 14.267 45.48 14.3036 44.0111C14.3051 43.9853 14.3925 44.0242 14.3951 43.9634C14.4339 43.113 14.3271 42.5685 14.2636 41.8672C14.2002 41.166 14.2215 40.6099 14.3714 40.1948C14.3525 39.6657 14.4188 38.9066 14.4591 38.4698C14.4993 38.033 14.3293 37.972 14.3259 37.9336C14.2183 36.7349 14.3156 36.0419 14.3308 34.7982C14.3383 34.2069 14.3136 33.0341 14.295 32.3939C14.28 31.8879 14.3199 31.5831 14.2944 31.1169C14.291 31.0539 14.2153 31.1176 14.2124 31.0983C14.1218 30.578 14.3069 30.8281 14.3399 30.7207C14.4601 30.3312 14.5242 30.0906 14.4676 29.4243C14.4547 29.2706 14.1882 28.8229 14.1726 28.5428C14.1528 28.1785 14.2483 28.316 14.2252 27.9346C14.2233 27.902 14.1644 27.9088 14.167 27.6734C14.1782 26.5808 14.2125 25.3896 14.2066 24.2542C14.2061 24.099 14.1126 24.2979 14.1102 24.0738C14.0991 23.0223 14.1026 21.8698 14.1463 20.8454C14.1574 20.5933 14.2228 20.7513 14.2423 20.6966C14.3599 20.3606 14.189 19.884 14.1858 19.8054C14.1037 17.9298 14.2583 16.4944 14.1847 14.5827C14.1803 14.4786 13.9972 13.6776 14.1543 13.3203C14.1647 13.2958 14.3254 12.9423 14.2155 12.6296C14.2087 12.6102 14.1259 12.8305 14.1344 12.4461C14.1428 12.0616 14.0875 11.4428 14.1784 10.9144C14.2071 10.747 14.3674 10.3516 14.2396 9.85251C14.2307 9.81998 13.9417 9.0495 14.1411 8.77449C14.1739 8.7299 14.3849 8.77657 14.2767 8.18089C14.2557 8.06709 14.2087 8.27369 14.1793 7.97386C14.134 7.51447 14.1905 6.90578 14.0965 6.34106C14.0799 6.24257 13.9367 5.82334 14.0454 5.48705C14.0624 5.43439 14.1328 5.53445 14.1407 5.35685C14.1785 4.51234 14.1314 3.62804 14.1801 2.77057C14.1973 2.46686 14.3111 2.62213 14.3416 2.30556C14.3721 1.98889 14.4015 1.35101 14.3495 1.0197C14.2974 0.688309 14.1159 1.05032 14.1014 0.553879C14.0995 0.490181 14.0978 0.426514 14.0963 0.362854L15 1.26659C12.9066 1.31831 10.8313 1.2176 8.73988 1.20248C8.42025 1.20016 8.68522 1.2651 8.21421 1.26633C6.47762 1.27116 3.47941 1.33205 1.97253 1.19406C0.765164 1.08355 2.28456 0.999413 1.36195 0.954437C1.24125 0.948624 1.11787 0.959892 1 0.979538L1.61668 0.362854C1.66951 0.679771 1.78291 0.956917 1.78775 1.03526C1.85522 2.08517 1.76176 2.81484 1.79044 3.75983C1.79639 3.95496 1.8819 3.76358 1.88602 3.92966C1.90085 4.49694 1.86268 5.09315 1.86966 5.63524C1.87299 5.87843 1.9383 5.83363 1.93326 6.0574C1.92195 6.59283 1.8945 7.06631 1.83328 7.58829C1.82771 7.63586 1.74646 7.31507 1.74344 7.71122C1.73878 8.35239 1.67839 9.1482 1.74076 9.88586C1.75951 10.1047 1.90878 10.1133 1.8057 10.5838C1.78417 10.6825 1.60493 10.5565 1.7598 11.1046C1.78553 11.1968 1.99442 12.1174 1.85977 12.5692C1.82434 12.6884 1.67767 12.9926 1.70072 13.2558C1.70439 13.2915 1.78457 13.1485 1.79239 13.3666C1.81856 14.1352 1.81 14.9408 1.83512 15.7305C1.84198 15.9413 1.92495 15.6273 1.93253 15.9415C1.9535 16.8058 1.93237 17.8849 1.9064 18.73C1.89667 19.0416 1.82795 18.8262 1.82047 18.8489C1.69882 19.2135 1.86302 19.429 1.87259 19.55C1.92992 20.3026 1.85279 20.8757 1.8732 21.5694C1.87863 21.7608 1.95692 21.6251 1.9639 21.6632C2.03211 22.0584 1.89151 21.764 1.87601 22.0142C1.83212 22.715 1.83842 23.4963 1.84842 24.205C1.85221 24.4653 1.94299 24.1728 1.94534 24.4064C1.96099 25.7892 1.9523 27.2266 1.90225 28.5761C1.89267 28.8302 1.82276 28.6704 1.80679 28.7233C1.69509 29.0883 1.84746 29.6233 1.86197 29.7463C1.92824 30.306 1.86642 30.5234 1.87796 31.0176C1.93541 33.4321 1.89447 36.4133 1.86917 38.6924C1.83662 41.6623 1.77012 43.9668 1.78739 46.799C1.7884 46.979 1.88139 46.7975 1.88345 46.9526C1.90587 48.9559 1.86953 50.9282 1.89639 52.9355C1.89843 53.1002 1.98659 52.8628 1.99283 53.1272C2.00624 53.6695 2.00145 54.3564 1.9733 54.9047C1.95974 55.1722 1.88409 54.8135 1.87198 55.0827C1.84362 55.7095 1.83734 56.3814 1.85147 57.0252C1.85768 57.2992 1.94784 56.8858 1.94888 57.2419C1.95783 59.6678 1.97336 62.0503 1.8566 64.5018C1.84858 64.6698 1.66533 64.8173 1.70047 65.1746C1.75133 65.2016 1.81115 65.2001 1.86551 65.2118C1.89479 68.7433 1.83127 72.2388 1.82144 75.7802C1.82105 75.9295 1.91815 75.6714 1.91788 75.9605C1.91644 77.6336 1.94334 79.2583 1.84683 80.9697C1.8374 81.1395 1.66658 81.0524 1.69242 81.5528C1.69713 81.641 1.71991 82.3947 1.75699 82.5896C1.76258 82.616 1.84231 82.4785 1.84464 82.7214C1.85674 84.1327 1.83854 85.6117 1.78983 87.0205C1.78181 87.2479 1.69691 87.0058 1.69046 87.1677C1.64539 88.3165 1.70993 89.5661 1.63285 90.6638C1.58094 91.3986 1.43417 91.1265 1.28971 91.517C1.26932 91.5722 1.26609 92.0272 1.18204 92.0507C0.970681 92.1112 0.739242 91.8908 0.513952 91.9812C0.465427 92.0003 0.517692 92.6097 0.400427 92.2489C0.392579 92.2237 0.35366 91.7819 0.31388 91.6731C0.286376 91.5973 0.200894 91.7338 0.165687 91.5793C0.130513 91.4247 0.202169 91.2549 0.160804 90.9986C0.118927 90.7425 0.0216813 90.8551 0.0101698 90.3435ZM14.6389 36.503C14.7205 36.0985 14.4214 36.0389 14.493 36.4763C14.4968 36.4975 14.6349 36.5238 14.6389 36.503ZM14.6861 85.4393C14.818 84.9105 14.6241 84.5487 14.5222 84.9217C14.4204 85.2947 14.6461 85.6004 14.6861 85.4393ZM14.7824 90.9224C14.8865 90.3044 14.4623 90.2071 14.5481 90.869C14.5529 90.9075 14.7764 90.9585 14.7824 90.9224ZM1.24857 89.7063C1.2446 89.7119 1.24073 90.0389 1.24466 90.0467C1.33965 90.2209 1.34733 89.5669 1.24857 89.7063ZM10.9994 92.2501C11.1923 92.3075 11.7478 92.2413 11.5081 92.1699C11.3151 92.1126 10.7591 92.1788 10.9994 92.2501ZM14.9581 15.4044C14.9626 15.398 14.9666 15.1635 14.9414 15.1682C14.8602 15.1841 14.8831 15.5105 14.9581 15.4044ZM1.75173 92.255C3.11803 92.271 3.94644 92.6213 2.45855 92.5818C2.18911 92.5747 3.03926 92.4701 2.69631 92.4385C2.0688 92.381 1.65212 92.6009 1.01175 92.4831C0.895826 92.4615 1.67379 92.2533 1.75415 92.2545C1.75335 92.2547 1.75254 92.2549 1.75173 92.255ZM14.9981 36.2701C15.0021 36.262 15.0058 35.9374 15.0019 35.9296C14.907 35.7538 14.8994 36.4077 14.9981 36.2701ZM15.143 1.72166C15.1515 1.70374 15.1593 0.950447 15.1516 0.925888C14.9963 0.532913 14.9799 2.05588 15.143 1.72166ZM15.217 58.1313C15.3125 58.4855 15.3238 58.9092 15.2038 59.1916C15.2102 58.8396 15.2111 58.4852 15.217 58.1313Z" fill="black"/>
</svg>
