<svg width="16" height="78" viewBox="0 0 16 78" fill="none" xmlns="http://www.w3.org/2000/svg">
<path d="M1 77.3678L1 0.367798H15L15 77.3678H1Z" fill="#C02B53"/>
<path d="M0.0101698 75.6342C-0.015883 74.6144 0.0119737 73.2775 0.0502087 72.2614C0.0620673 71.943 0.115075 72.1043 0.125648 71.8845C0.146258 71.4545 0.120261 71.054 0.144813 70.6292C0.153209 70.4884 0.237174 70.6637 0.244056 70.516C0.281163 69.707 0.259777 68.9417 0.277625 68.1222C0.365685 64.0854 0.397205 60.1175 0.435461 56.0313C0.448004 54.684 0.524206 53.0462 0.490881 51.6546C0.486916 51.4922 0.413216 51.589 0.407141 51.5581C0.31415 51.0733 0.462935 51.2345 0.482702 50.918C0.560754 49.6617 0.567542 48.2648 0.539099 47.0557C0.526782 46.5414 0.380395 47.0571 0.462561 46.5392C0.468112 46.5032 0.546377 46.6337 0.554724 46.4927C0.573498 46.1728 0.559509 45.5659 0.56571 45.318C0.578057 44.8402 0.577269 44.7611 0.578161 44.3092C0.580061 43.6914 0.618966 42.9566 0.601232 42.2937C0.597215 42.1522 0.516985 42.3395 0.503332 42.1139C0.489702 41.888 0.496505 41.2906 0.515417 41.0891C0.534339 40.8876 0.597399 40.9734 0.611852 40.9378C0.733849 40.6445 0.564884 39.9533 0.560705 39.8644C0.489506 38.2431 0.58576 36.8527 0.585485 35.3308C0.585073 34.1754 0.553296 32.94 0.557653 31.8407C0.563155 30.5309 0.606631 29.4209 0.599157 28.1485C0.598461 28.0142 0.504129 28.1716 0.503088 28.0076C0.492111 26.2651 0.502394 24.5348 0.566076 22.7998C0.572546 22.6258 0.655368 22.85 0.666784 22.6762C0.734849 21.6119 0.898357 19.9279 0.537756 19.2958C0.551837 18.5749 0.566385 17.6996 0.639074 17.0547C0.685858 16.6388 0.776084 17.0427 0.737585 16.5319C0.729007 16.4167 0.649991 16.5665 0.643102 16.3937C0.614176 15.6663 0.639861 14.8715 0.599035 14.1519C0.590545 14.0055 0.519744 14.0455 0.506994 14.004C0.403741 13.6555 0.574425 13.0752 0.586828 12.9487C0.679315 11.9855 0.642919 11.2821 0.645178 10.3848C0.645741 10.1765 0.550639 10.4227 0.547766 10.2223C0.534136 9.1831 0.54231 8.10658 0.584509 7.08904C0.594124 6.8627 0.675134 7.07082 0.683874 6.96268C0.721424 6.48576 0.568417 6.38003 0.601477 5.92265C0.60825 5.82623 0.6776 5.88054 0.685217 5.86294C0.804778 5.58765 0.635368 5.34848 0.631628 5.27766C0.580523 4.38199 0.757378 3.80947 0.732336 2.94421C0.729161 2.84068 0.641412 3.07412 0.637853 2.78313C0.627957 1.99113 0.626127 1.1805 0.632211 0.367798L0.628214 0.00409698L1 7.62939e-06C2.17652 0.00881195 3.35737 0.0342102 4.49226 0.0757217C4.7906 0.0865173 4.57764 0.152435 4.59641 0.160561C4.90239 0.287529 5.10038 0.117401 5.19765 0.111C5.96509 0.0648804 6.68198 0.207542 7.20341 0.00492096C9.81137 0.0613403 12.4097 -0.000770569 15 0.0662613L15.2982 0.0629883L15.3015 0.367798C15.285 1.00567 15.2607 1.64306 15.2248 2.27998C15.2227 2.32096 15.1389 2.24752 15.1351 2.32927C15.0881 3.31378 15.2183 3.12472 15.3775 3.77614C15.4175 3.94024 15.2252 4.43944 15.2111 4.48361C15.1592 4.64453 15.0346 4.47762 15.0245 4.53152C14.9455 4.97741 15.3577 4.90475 15.3579 5.50628C15.3572 5.5251 15.2813 5.44608 15.2738 5.49656C15.2501 5.6534 15.2802 5.80894 15.2541 5.96242C15.1937 6.3137 14.9934 6.43882 15.11 6.97536C15.1251 7.04327 15.3589 6.93957 15.3479 7.47663C15.3433 7.69073 15.3473 8.63845 15.3321 8.90407C15.317 9.16936 15.2416 8.98721 15.2384 9.00613C15.1387 9.72092 15.0974 9.44989 14.9499 9.80801C14.803 10.1661 15.1535 10.0668 15.1926 10.2128C15.2316 10.359 15.1494 10.8831 15.1208 11.0119C15.0922 11.1406 15.0443 10.9801 15.0282 11.0945C14.9225 11.8534 15.2021 11.4276 15.2578 11.6777C15.3895 12.2673 15.1296 12.7265 15.1041 13.2662C15.0972 13.4122 15.1564 13.2931 15.162 13.4231C15.1831 13.9382 15.102 14.2479 15.1764 14.8339C15.1885 14.9297 15.3448 15.4034 15.2301 15.7101C15.2135 15.7535 15.1488 15.6301 15.1342 15.8496C15.1125 16.1775 15.0983 16.7683 15.12 17.1208C15.136 17.3811 15.2427 17.0828 15.2096 17.4103C15.1948 17.5559 15.1323 17.2861 15.1097 17.5596C15.0871 17.8317 15.0899 18.5273 15.092 18.7919C15.0942 19.0562 15.1752 18.9115 15.1806 18.9329C15.2119 19.0621 15.2509 19.5692 15.2508 19.614C15.2607 21.8741 15.1242 23.9584 15.1694 26.1589C15.1728 26.3316 15.2582 26.2166 15.2596 26.2429C15.2954 26.8341 15.0684 26.368 14.9924 26.781C15.1657 26.7213 15.1343 26.9651 15.1533 27.3815C15.1626 27.5822 15.2297 27.4729 15.2365 27.4912C15.3384 27.7888 15.2068 27.9961 15.1799 28.0494C15.0809 28.2465 15.1979 28.461 15.1317 28.5951C15.066 28.7292 14.9686 28.4207 14.9698 28.8201C15.0318 28.9321 15.1939 28.6356 15.2202 28.9388C15.3195 30.0829 15.1924 32.2186 15.1792 33.1385C15.166 34.0565 15.1774 34.3531 15.155 34.8881C15.1145 35.8544 15.2347 35.5002 15.2898 36.1003C15.3448 36.702 15.0489 36.4095 14.9853 36.496C14.9217 36.5809 14.9872 36.6736 14.9522 36.7793C14.9173 36.8845 14.874 36.6566 14.8609 36.9042C14.8478 37.152 14.9609 37.8294 15.0274 37.9172C15.1683 38.1028 15.3162 37.7976 15.2642 38.4532C15.2612 38.4909 15.1834 38.3685 15.1755 38.5129C15.1156 39.6595 15.1119 40.8508 15.0589 41.996C15.0515 42.1535 14.965 42.0127 14.9597 42.1044C14.9043 43.0589 15.0503 42.7177 15.2124 43.2409C14.9966 43.1234 14.8646 43.4128 14.8634 44.1372C14.8625 44.5727 14.9567 44.4977 15.0232 44.7794C15.0432 44.8639 14.9785 45.1721 15.0228 45.2279C15.1676 45.412 15.3298 45.1218 15.2652 45.8687C15.2622 45.9015 15.1829 45.7971 15.1781 45.9104C15.1466 46.6423 15.2981 46.7299 15.3165 47.5211C15.3309 48.1413 15.2385 49.2442 15.2235 49.9504C14.9809 49.9355 15.0365 50.6025 15.2037 50.8731C15.1969 51.3313 15.2063 51.8263 15.1832 52.2693C15.1753 52.4217 15.1051 52.3215 15.0975 52.3408C14.9785 52.6356 15.1412 52.8348 15.1475 52.9337C15.2096 54.0058 15.0862 54.8793 15.2068 55.9024C15.2111 55.9387 15.3796 55.9975 15.2566 56.2711C15.2481 56.2888 15.1714 55.9508 15.1655 56.4321C15.1596 56.9135 15.0692 57.821 15.1473 58.4893C15.1661 58.651 15.3029 59.0601 15.196 59.3884C15.1815 59.4321 15.1332 59.3842 15.1063 59.4474C15.0206 59.6515 15.1909 59.7629 15.0462 60.0028C14.9016 60.2427 14.7932 60.7417 14.893 61.4157C14.8959 61.4371 15.0309 61.5967 15.0288 61.8086C15.0253 62.147 14.9971 62.6273 14.998 62.9806C14.9985 63.1497 15.0823 63.0414 15.0838 63.0708C15.1308 64.2081 15.0561 65.0176 15.0236 66.236C15.0175 66.4594 15.1318 67.1012 15.0415 67.5336C14.9426 68.0084 14.5311 67.5205 14.6291 68.6118C14.6683 69.052 15.1903 69.6093 14.9199 70.4003C14.9869 71.9344 14.8485 73.3532 14.9442 74.8916C14.9484 74.9607 15.0941 75.1795 15.0921 75.3421C15.0889 75.5836 15.0208 75.7161 15.0163 75.8885C15.0018 76.401 15.0269 76.8825 15.0394 77.3678L15.0399 77.4068L15 77.4072C14.8011 77.4124 14.6017 77.4154 14.3992 77.4128C14.1348 77.4095 14.2272 77.3391 13.9118 77.3352C13.5966 77.3313 13.3864 77.424 12.9593 77.3792C12.6367 77.3451 12.3141 77.1556 11.8859 77.1335C11.8696 77.3204 11.5755 77.3166 11.0528 77.3659C10.9523 77.3755 11.0601 77.4406 11.0125 77.4485C10.8191 77.482 10.6401 77.4281 10.4564 77.4646C10.4117 77.4733 10.4096 77.5372 10.3731 77.5479C10.0625 77.6419 9.55079 77.4984 9.4629 77.4734C9.12607 77.3784 8.96866 77.4614 8.71031 77.424C8.45237 77.3867 8.83804 77.3399 8.53674 77.3172C7.91219 77.2703 7.10973 77.2806 6.47543 77.2777C6.22235 77.2769 6.39502 77.3621 6.35879 77.364C5.83546 77.3856 5.30624 77.2949 5.01606 77.4647C4.65322 77.0258 4.70048 77.5073 3.95243 77.4194C3.8935 77.4123 3.81855 77.2048 4.04477 77.1743C4.27098 77.1438 4.61402 77.2087 4.92789 77.1612C5.00222 77.1501 5.428 76.9556 5.48609 76.9438C5.94114 76.8517 6.00562 77.1619 6.02971 77.1789C6.30272 77.3628 6.82303 77.1532 6.96004 77.1388C7.58685 77.0724 8.11939 77.116 8.64366 77.0687C8.98654 77.0381 9.02008 76.8349 9.28933 76.8412C10.1844 76.8617 10.4968 77.1451 11.3402 76.8994C11.5211 76.847 11.3414 76.6249 11.9894 76.7995C12.0301 76.8105 12.5112 76.9703 12.7892 76.8692C12.8241 76.8565 12.823 76.7918 12.869 76.7863C13.1776 76.7512 13.3834 76.8027 13.7195 76.778C14.0556 76.7534 14.4598 76.7165 14.8435 76.7385C14.8935 76.7413 14.9465 76.7492 15 76.76L14.3922 77.3678C14.4316 77.1735 14.5108 76.9723 14.5339 76.8855C14.6189 76.5729 14.4795 76.2377 14.5825 76.0441C14.686 75.8487 14.8431 76.2306 14.91 75.7184C14.7419 75.6995 14.5693 75.6559 14.4002 75.6254C14.4062 74.5031 14.4605 73.3988 14.4531 72.2728C14.452 72.1331 14.3616 72.2759 14.3581 72.1263C14.3438 71.4948 14.4082 70.9433 14.3825 70.2885C14.3623 69.7817 14.2666 69.2258 14.2425 68.6958C14.4349 68.3721 14.3696 67.5856 14.3872 67.0143C14.3932 66.8142 14.4446 66.8275 14.4614 66.6852C14.5234 66.1483 14.3534 66.3999 14.3266 66.2527C14.2124 65.6211 14.5972 65.567 14.5877 64.8225C14.5874 64.783 14.3822 64.3008 14.3695 64.2344C14.2862 63.8124 14.4409 64.1646 14.456 63.9005C14.4837 63.4183 14.5327 63.0832 14.4726 62.5175C14.4548 62.3525 14.327 61.9568 14.4259 61.6364C14.4388 61.5943 14.5066 61.6176 14.5106 61.5837C14.5768 60.9697 14.3637 60.9535 14.2916 60.6027C14.2195 60.2517 14.3665 59.7097 14.4089 59.5994C14.5185 59.3109 14.4558 59.8205 14.4665 59.8362C14.5946 60.0197 14.5725 59.6245 14.5833 59.3224C14.7922 59.2787 14.7797 58.8563 14.5937 59.0093C14.5734 59.0267 14.5929 59.2618 14.5833 59.3224C14.3784 59.0573 14.3522 58.5931 14.5437 58.0804C14.6334 57.8403 14.7381 58.0672 14.6998 57.3382C14.6825 57.0073 14.5387 57.1352 14.4995 56.8431C14.41 56.1761 14.5442 55.3092 14.523 54.6215C14.5154 54.3719 14.4366 54.615 14.4287 54.4444C14.4073 53.9917 14.4664 53.5925 14.4361 53.1378C14.4333 53.0966 14.3509 53.1973 14.3498 53.0559C14.3403 51.984 14.393 51.0507 14.3945 49.9316C14.3952 49.3909 14.3497 48.4242 14.3589 47.8641C14.3742 46.8933 14.494 45.699 14.4649 44.8697C14.4463 44.3288 14.3639 44.4474 14.3077 44.2157C14.1988 43.7684 14.3938 42.9767 14.424 42.8701C14.425 42.8669 14.4445 43.3323 14.4868 43.084C14.5749 42.9396 14.4244 42.8754 14.424 42.8701C14.4435 42.8001 14.4623 41.8703 14.4465 41.6857C14.4379 41.5854 14.3598 41.6415 14.3568 41.5892C14.2869 40.3459 14.267 39.1004 14.3036 37.8394C14.3051 37.8172 14.3925 37.8506 14.3951 37.7985C14.4339 37.0684 14.3271 36.601 14.2636 35.9989C14.2002 35.3969 14.2215 34.9195 14.3714 34.5631C14.3525 34.1089 14.4188 33.4572 14.4591 33.0822C14.4993 32.7073 14.3293 32.6549 14.3259 32.6219C14.2183 31.5928 14.3156 30.9979 14.3308 29.9302C14.3383 29.4226 14.3136 28.4157 14.295 27.8661C14.28 27.4318 14.3199 27.1701 14.2944 26.7699C14.291 26.7157 14.2153 26.7704 14.2124 26.7539C14.1218 26.3072 14.3069 26.5219 14.3399 26.4297C14.4601 26.0953 14.5242 25.8888 14.4676 25.3168C14.4547 25.1848 14.1882 24.8005 14.1726 24.56C14.1528 24.2473 14.2483 24.3653 14.2252 24.0379C14.2233 24.0099 14.1644 24.0157 14.167 23.8136C14.1782 22.8757 14.2125 21.853 14.2066 20.8783C14.2061 20.7451 14.1126 20.9158 14.1102 20.7234C14.0991 19.8207 14.1026 18.8313 14.1463 17.9519C14.1574 17.7354 14.2228 17.8711 14.2423 17.8241C14.3599 17.5356 14.189 17.1265 14.1858 17.059C14.1037 15.4489 14.2583 14.2165 14.1847 12.5754C14.1803 12.4861 13.9972 11.7984 14.1543 11.4916C14.1647 11.4706 14.3254 11.1671 14.2155 10.8987C14.2087 10.882 14.1259 11.0712 14.1344 10.7411C14.1428 10.4111 14.0875 9.87986 14.1784 9.42616C14.2071 9.28252 14.3674 8.94303 14.2396 8.51458C14.2307 8.48666 13.9417 7.8252 14.1411 7.5891C14.1739 7.55083 14.3849 7.5909 14.2767 7.07951C14.2557 6.98181 14.2087 7.15918 14.1793 6.90177C14.134 6.50739 14.1905 5.98484 14.0965 5.50003C14.0799 5.41548 13.9367 5.05557 14.0454 4.76688C14.0624 4.72166 14.1328 4.80756 14.1407 4.6551C14.1785 3.93008 14.1314 3.17093 14.1801 2.4348C14.1973 2.17406 14.3111 2.30737 14.3416 2.03559C14.3721 1.76374 14.4015 1.21612 14.3495 0.931694C14.2974 0.647202 14.1159 0.957977 14.1014 0.531792C14.0995 0.477112 14.0978 0.422447 14.0963 0.367798L15 1.27154C13.2029 1.32325 11.4212 1.22254 9.62574 1.20743C9.35134 1.2051 9.57883 1.27004 9.17446 1.27127C7.68362 1.2761 5.10968 1.33699 3.81604 1.19901C2.77953 1.08849 4.08391 1.00436 3.29186 0.959381C2.90965 0.937927 2.49615 1.14891 2.40388 1.15555C1.8716 1.1954 1.43521 1.17912 1 1.16501L1.79721 0.367798C1.78743 0.669556 1.7787 0.970749 1.79044 1.30293C1.79639 1.47047 1.8819 1.30615 1.88602 1.44873C1.90085 1.93575 1.86268 2.4476 1.86966 2.91296C1.87299 3.12172 1.9383 3.08327 1.93326 3.27538C1.92195 3.73503 1.8945 4.14154 1.83328 4.58964C1.82771 4.63049 1.74646 4.35507 1.74344 4.69517C1.73878 5.24559 1.67839 5.92881 1.74076 6.56208C1.75951 6.74997 1.90878 6.75735 1.8057 7.16124C1.78417 7.24597 1.60493 7.13786 1.7598 7.60835C1.78553 7.68747 1.99442 8.47782 1.85977 8.86568C1.82434 8.968 1.67767 9.22918 1.70072 9.45512C1.70439 9.48579 1.78457 9.36301 1.79239 9.55024C1.81856 10.2101 1.81 10.9017 1.83512 11.5796C1.84198 11.7606 1.92495 11.491 1.93253 11.7608C1.9535 12.5028 1.93237 13.4291 1.9064 14.1547C1.89667 14.4222 1.82795 14.2373 1.82047 14.2567C1.69882 14.5698 1.86302 14.7548 1.87259 14.8587C1.92992 15.5048 1.85279 15.9967 1.8732 16.5923C1.87863 16.7566 1.95692 16.6401 1.9639 16.6728C2.03211 17.0121 1.89151 16.7594 1.87601 16.9741C1.83212 17.5758 1.83842 18.2465 1.84842 18.8549C1.85221 19.0784 1.94299 18.8272 1.94534 19.0278C1.96099 20.2149 1.9523 21.449 1.90225 22.6075C1.89267 22.8256 1.82276 22.6884 1.80679 22.7339C1.69509 23.0472 1.84746 23.5064 1.86197 23.6121C1.92824 24.0926 1.86642 24.2792 1.87796 24.7035C1.93541 26.7763 1.89447 29.3356 1.86917 31.2922C1.83662 33.8418 1.77012 35.8203 1.78739 38.2516C1.7884 38.4062 1.88139 38.2503 1.88345 38.3835C1.90587 40.1034 1.86953 41.7965 1.89639 43.5198C1.89843 43.6612 1.98659 43.4574 1.99283 43.6843C2.00624 44.1499 2.00145 44.7396 1.9733 45.2104C1.95974 45.4399 1.88409 45.132 1.87198 45.3631C1.84362 45.9012 1.83734 46.478 1.85147 47.0307C1.85768 47.266 1.94784 46.9111 1.94888 47.2168C1.95783 49.2994 1.97336 51.3448 1.8566 53.4493C1.84858 53.5936 1.66533 53.7202 1.70047 54.027C1.75133 54.0501 1.81115 54.0488 1.86551 54.0589C1.89479 57.0907 1.83127 60.0914 1.82144 63.1317C1.82105 63.2599 1.91815 63.0384 1.91788 63.2865C1.91644 64.7229 1.94334 66.1177 1.84683 67.5869C1.8374 67.7327 1.66658 67.6579 1.69242 68.0875C1.69713 68.1632 1.71991 68.8102 1.75699 68.9775C1.76258 69.0002 1.84231 68.8822 1.84464 69.0907C1.85674 70.3023 1.83854 71.572 1.78983 72.7815C1.78181 72.9767 1.69691 72.7688 1.69046 72.9078C1.64539 73.894 1.70993 74.9668 1.63285 75.9092C1.58094 76.54 1.43417 76.3064 1.28971 76.6416C1.26932 76.689 1.26609 77.0797 1.18204 77.0999C0.970681 77.1517 0.739242 76.9625 0.513952 77.0401C0.465427 77.0565 0.517692 77.5797 0.400427 77.27C0.392579 77.2483 0.35366 76.869 0.31388 76.7756C0.286376 76.7106 0.200894 76.8278 0.165687 76.6951C0.130513 76.5624 0.202169 76.4166 0.160804 76.1966C0.118927 75.9767 0.0216813 76.0734 0.0101698 75.6342ZM14.6389 31.3938C14.7205 31.0465 14.4214 30.9953 14.493 31.3708C14.4968 31.389 14.6349 31.4117 14.6389 31.3938ZM14.6861 73.4051C14.818 72.9512 14.6241 72.6405 14.5222 72.9608C14.4204 73.281 14.6461 73.5434 14.6861 73.4051ZM14.2555 77.1502C14.786 77.2542 14.8695 76.8301 14.3013 76.9159C14.2683 76.9207 14.2245 77.1442 14.2555 77.1502ZM1.24857 75.0871C1.2446 75.0919 1.24073 75.3727 1.24466 75.3794C1.33965 75.529 1.34733 74.9675 1.24857 75.0871ZM9.5844 77.2551C9.75002 77.3125 10.2269 77.2462 10.0211 77.1749C9.85544 77.1175 9.37814 77.1837 9.5844 77.2551ZM14.9581 13.2808C14.9626 13.2753 14.9666 13.074 14.9414 13.0781C14.8602 13.0917 14.8831 13.3719 14.9581 13.2808ZM1.64535 77.26C2.81831 77.2759 3.52949 77.6263 2.25215 77.5868C2.02084 77.5796 2.75068 77.475 2.45627 77.4434C1.91755 77.3859 1.55984 77.6059 1.01009 77.488C0.91057 77.4664 1.57844 77.2583 1.64743 77.2595C1.64674 77.2596 1.64605 77.2598 1.64535 77.26ZM14.9981 31.1938C15.0021 31.1869 15.0058 30.9082 15.0019 30.9015C14.907 30.7506 14.8994 31.312 14.9981 31.1938ZM15.143 1.53432C15.1515 1.51894 15.1593 0.872246 15.1516 0.851158C14.9963 0.513794 14.9799 1.82124 15.143 1.53432ZM15.217 49.9615C15.3125 50.2656 15.3238 50.6293 15.2038 50.8717C15.2102 50.5695 15.2111 50.2653 15.217 49.9615Z" fill="black"/>
</svg>
