<svg width="16" height="98" viewBox="0 0 16 98" fill="none" xmlns="http://www.w3.org/2000/svg">
<path d="M14.3829 0.222047L14.3829 97.222H0.382935L0.382939 0.222046L14.3829 0.222047Z" fill="#C02B53"/>
<path d="M15.3728 2.33661C15.3988 3.58064 15.371 5.21135 15.3327 6.45068C15.3209 6.83908 15.2679 6.64241 15.2573 6.91052C15.2367 7.43491 15.2627 7.92345 15.2381 8.44166C15.2297 8.61339 15.1458 8.39962 15.1389 8.57969C15.1018 9.56649 15.1232 10.5 15.1053 11.4997C15.0172 16.4236 14.9857 21.2637 14.9475 26.2478C14.9349 27.8912 14.8587 29.889 14.8921 31.5865C14.896 31.7846 14.9697 31.6665 14.9758 31.7042C15.0688 32.2955 14.92 32.0989 14.9002 32.485C14.8222 34.0174 14.8154 35.7214 14.8438 37.1961C14.8562 37.8235 15.0025 37.1944 14.9204 37.8262C14.9148 37.87 14.8366 37.7108 14.8282 37.8829C14.8094 38.2731 14.8234 39.0134 14.8172 39.3158C14.8049 39.8986 14.8057 39.995 14.8048 40.5463C14.8029 41.2999 14.764 42.1962 14.7817 43.0047C14.7857 43.1773 14.8659 42.9488 14.8796 43.2241C14.8932 43.4995 14.8864 44.2284 14.8675 44.474C14.8486 44.7198 14.7855 44.6152 14.7711 44.6587C14.6491 45.0165 14.818 45.8595 14.8222 45.9679C14.8934 47.9456 14.7972 49.6415 14.7974 51.4979C14.7979 52.9072 14.8296 54.4142 14.8253 55.7551C14.8198 57.3527 14.7763 58.7067 14.7838 60.2588C14.7845 60.4226 14.8788 60.2306 14.8798 60.4307C14.8908 62.5561 14.8805 64.6667 14.8169 66.783C14.8104 66.9952 14.7276 66.7217 14.7161 66.9337C14.6481 68.232 14.4846 70.2861 14.8452 71.0571C14.8311 71.9365 14.8165 73.0041 14.7439 73.7908C14.6971 74.298 14.6068 73.8054 14.6453 74.4285C14.6539 74.569 14.7329 74.3863 14.7398 74.597C14.7688 75.4843 14.7431 76.4537 14.7839 77.3315C14.7924 77.5101 14.8632 77.4613 14.8759 77.5119C14.9792 77.9371 14.8085 78.6448 14.7961 78.7992C14.7036 79.9741 14.74 80.8321 14.7378 81.9266C14.7372 82.1806 14.8323 81.8804 14.8352 82.1248C14.8488 83.3924 14.8406 84.7055 14.7984 85.9467C14.7888 86.2228 14.7078 85.9689 14.6991 86.1008C14.6615 86.6825 14.8145 86.8115 14.7815 87.3694C14.7747 87.487 14.7053 87.4208 14.6977 87.4423C14.5782 87.778 14.7476 88.0698 14.7513 88.1562C14.8024 89.2487 14.6256 89.947 14.6506 91.0025C14.6538 91.1287 14.7415 90.844 14.7451 91.1989C14.7653 93.1692 14.7519 95.2341 14.7063 97.222L14.7092 97.5424L14.3829 97.5454C13.9851 97.5362 13.5904 97.5258 13.2001 97.5141C12.8362 97.5033 13.0959 97.4374 13.073 97.4293C12.6998 97.3023 12.4583 97.4724 12.3396 97.4788C11.4035 97.525 10.5291 97.3823 9.89306 97.5849C6.71193 97.5285 3.54251 97.5906 0.382935 97.5236L0.0841414 97.5263L0.0814006 97.222C0.0979081 96.444 0.122247 95.6665 0.158117 94.8896C0.16022 94.8396 0.244004 94.9292 0.247838 94.8295C0.294883 93.6286 0.164666 93.8592 0.00540733 93.0646C-0.0345833 92.8645 0.157695 92.2555 0.171789 92.2017C0.223726 92.0054 0.348375 92.209 0.358434 92.1432C0.437417 91.5993 0.0251938 91.688 0.0250607 90.9542C0.025748 90.9313 0.101623 91.0277 0.109167 90.9661C0.132852 90.7748 0.102702 90.5851 0.12882 90.3978C0.189256 89.9694 0.389561 89.8167 0.272985 89.1623C0.257855 89.0794 0.0240245 89.2059 0.0350705 88.5508C0.0396725 88.2897 0.0356646 87.1337 0.0508176 86.8097C0.0659527 86.4861 0.141304 86.7083 0.144567 86.6852C0.244207 85.8133 0.285503 86.1439 0.433019 85.7071C0.579978 85.2703 0.229466 85.3914 0.190344 85.2133C0.151332 85.035 0.233542 84.3957 0.262121 84.2386C0.290712 84.0816 0.338593 84.2774 0.354772 84.1378C0.46048 83.2121 0.18079 83.7315 0.125158 83.4265C-0.00656766 82.7073 0.253373 82.1472 0.278844 81.4888C0.285723 81.3107 0.22652 81.4561 0.220983 81.2974C0.199839 80.6692 0.280948 80.2914 0.206579 79.5766C0.19446 79.4597 0.0381766 78.8819 0.152868 78.5079C0.169407 78.4549 0.234183 78.6054 0.248693 78.3376C0.270469 77.9377 0.284628 77.217 0.262976 76.787C0.246956 76.4696 0.140219 76.8335 0.173376 76.4339C0.188182 76.2563 0.250623 76.5854 0.273229 76.2518C0.295829 75.92 0.293086 75.0715 0.29093 74.7486C0.288726 74.4264 0.207761 74.6028 0.202307 74.5767C0.171062 74.4191 0.13202 73.8006 0.132117 73.7459C0.122233 70.989 0.258708 68.4467 0.213538 65.7626C0.21011 65.5519 0.124731 65.6922 0.123328 65.6601C0.0875562 64.9389 0.314558 65.5075 0.390539 65.0038C0.217281 65.0766 0.248652 64.7792 0.229651 64.2712C0.220354 64.0264 0.153267 64.1598 0.146399 64.1374C0.0445023 63.7744 0.176116 63.5216 0.20304 63.4565C0.30208 63.2161 0.185057 62.9545 0.251257 62.7909C0.316963 62.6274 0.41437 63.0037 0.413122 62.5165C0.351102 62.3799 0.189025 62.7416 0.162757 62.3717C0.0633972 60.9762 0.190563 58.3711 0.203773 57.249C0.216971 56.1292 0.205528 55.7675 0.227942 55.1149C0.26847 53.9362 0.148219 54.3682 0.0931773 53.6363C0.0381418 52.9023 0.334015 53.2591 0.39762 53.1536C0.461196 53.05 0.395751 52.9369 0.430701 52.8081C0.465642 52.6796 0.508889 52.9577 0.522009 52.6556C0.535116 52.3534 0.422011 51.5272 0.355506 51.4201C0.214608 51.1936 0.0667304 51.5659 0.11869 50.7663C0.121774 50.7203 0.199572 50.8695 0.207435 50.6934C0.267327 49.2948 0.27104 47.8417 0.324012 46.4447C0.331417 46.2527 0.417966 46.4244 0.423255 46.3126C0.478613 45.1482 0.332681 45.5645 0.17057 44.9263C0.386306 45.0696 0.518294 44.7167 0.519568 43.833C0.520409 43.3018 0.426187 43.3932 0.359778 43.0496C0.33976 42.9466 0.404456 42.5707 0.360145 42.5026C0.215296 42.278 0.053148 42.632 0.117714 41.7209C0.120782 41.681 0.20007 41.8082 0.204872 41.6701C0.236302 40.7773 0.0847927 40.6704 0.0664446 39.7054C0.0520476 38.9489 0.144436 37.6035 0.159462 36.7422C0.402012 36.7603 0.346471 35.9467 0.179237 35.6167C0.186084 35.0577 0.17663 34.454 0.199745 33.9137C0.207626 33.7277 0.277851 33.8499 0.285438 33.8264C0.404468 33.4669 0.241768 33.2239 0.23539 33.1032C0.173386 31.7955 0.296699 30.7301 0.176186 29.482C0.171845 29.4378 0.00336304 29.366 0.126381 29.0323C0.134861 29.0108 0.211518 29.423 0.217446 28.8359C0.223387 28.2487 0.313706 27.1418 0.235634 26.3266C0.216839 26.1293 0.0800653 25.6304 0.186928 25.2299C0.201439 25.1766 0.249761 25.2349 0.27665 25.1579C0.362329 24.909 0.192035 24.773 0.336708 24.4804C0.481375 24.1878 0.58972 23.5792 0.489906 22.7571C0.487004 22.7309 0.35203 22.5363 0.354164 22.2778C0.357687 21.865 0.385805 21.2792 0.384926 20.8483C0.384456 20.6419 0.300644 20.774 0.299111 20.7382C0.252145 19.3509 0.326864 18.3635 0.359291 16.8773C0.365402 16.6049 0.251111 15.8219 0.341469 15.2945C0.440384 14.7154 0.851851 15.3105 0.753821 13.9793C0.714612 13.4424 0.192591 12.7627 0.463051 11.7978C0.396033 9.92652 0.534453 8.19594 0.438759 6.31944C0.43452 6.23505 0.288828 5.96822 0.290811 5.76983C0.294036 5.4753 0.36213 5.31364 0.366616 5.10334C0.387127 4.22216 0.328868 3.41575 0.33793 2.56614C0.341222 2.24356 0.411631 2.35635 0.415566 1.97164C0.419436 1.58714 0.326721 1.33077 0.371499 0.809739C0.388066 0.618749 0.441238 0.427765 0.494104 0.222046L0.382939 0.333211C0.601042 0.389261 0.835703 0.444966 1.1045 0.456333C1.12441 0.269406 1.48314 0.273256 2.12073 0.223912C2.24329 0.214338 2.11187 0.149277 2.16985 0.141393C2.4058 0.10786 2.62416 0.161781 2.84819 0.125279C2.90269 0.116513 2.90526 0.0526759 2.94981 0.0419056C3.32868 -0.0521059 3.95285 0.0914886 4.06005 0.11649C4.47091 0.211442 4.66292 0.128415 4.97805 0.165807C5.29268 0.203193 4.82224 0.24993 5.18977 0.272618C5.95158 0.319545 6.93041 0.309235 7.70411 0.312169C8.01282 0.312945 7.8022 0.227733 7.84639 0.225865C8.48473 0.204253 9.13027 0.294895 9.48422 0.125158C9.92681 0.564034 9.86916 0.082589 10.7816 0.170446C10.8535 0.177552 10.9449 0.385093 10.669 0.415562C10.3931 0.446002 9.97462 0.381128 9.59177 0.428623C9.5011 0.43977 8.98175 0.634249 8.91089 0.64603C8.35583 0.7381 8.27717 0.427958 8.2478 0.410923C7.91478 0.227092 7.28012 0.436607 7.113 0.451084C6.34843 0.517419 5.69884 0.473803 5.05935 0.521152C4.64111 0.551754 4.60019 0.754909 4.27177 0.748691C3.18002 0.728137 2.79893 0.444735 1.77013 0.690463C1.54954 0.742872 1.76876 0.964914 0.978314 0.790316C0.944716 0.782869 0.665224 0.70735 0.382939 0.690563L0.851456 0.222046C0.843431 0.357011 0.84883 0.492589 0.881507 0.602259C0.894246 0.64484 0.958957 0.643486 0.964393 0.699645C0.999556 1.07602 0.948003 1.32705 0.972693 1.73706C0.997384 2.14703 1.03419 2.64003 1.01224 3.10813C0.99912 3.39023 0.878554 3.7522 0.849036 3.88724C0.764004 4.26858 0.903421 4.67741 0.800453 4.91364C0.696966 5.15187 0.539804 4.68615 0.472939 5.31082C0.641063 5.33395 0.813625 5.38711 0.982703 5.42431C0.976783 6.79328 0.922419 8.14026 0.929847 9.51382C0.930935 9.68409 1.02132 9.50994 1.02482 9.6925C1.03918 10.4627 0.974744 11.1354 1.0004 11.9341C1.02061 12.5524 1.11631 13.2304 1.14042 13.8769C0.948036 14.2717 1.01334 15.2311 0.995764 15.928C0.989689 16.1721 0.938308 16.1558 0.921545 16.3294C0.85955 16.9843 1.02956 16.6774 1.05631 16.857C1.17049 17.6273 0.785695 17.6933 0.795203 18.6015C0.795576 18.6496 1.00069 19.2378 1.01346 19.3188C1.09675 19.8336 0.942072 19.404 0.926916 19.7261C0.899221 20.3143 0.850237 20.723 0.910315 21.4131C0.92811 21.6143 1.05596 22.097 0.957068 22.4878C0.944119 22.5392 0.876321 22.5108 0.872351 22.5521C0.806167 23.3011 1.0192 23.3208 1.09134 23.7488C1.16348 24.1768 1.01642 24.8379 0.974035 24.9725C0.864391 25.3245 0.927177 24.7028 0.916418 24.6837C0.788372 24.4598 0.810417 24.942 0.799597 25.3104C0.590719 25.3637 0.603257 25.8789 0.789221 25.6923C0.809533 25.6711 0.790055 25.3844 0.799597 25.3104C1.00453 25.6338 1.03078 26.2 0.83927 26.8254C0.749511 27.1182 0.644857 26.8414 0.683142 27.7307C0.700425 28.1343 0.844248 27.9784 0.883459 28.3345C0.972923 29.1482 0.838761 30.2056 0.859899 31.0445C0.867574 31.349 0.946302 31.0524 0.95426 31.2604C0.975624 31.8127 0.916553 32.2996 0.946813 32.8542C0.949655 32.9045 1.03207 32.7817 1.03312 32.9542C1.04269 34.2616 0.989902 35.4 0.988439 36.7651C0.987769 37.4246 1.03322 38.6038 1.02408 39.287C1.00873 40.4712 0.888892 41.9279 0.918004 42.9396C0.936639 43.5993 1.01907 43.4546 1.07523 43.7373C1.1841 44.2828 0.989093 45.2485 0.958898 45.3785C0.957898 45.3825 0.938466 44.8148 0.896154 45.1177C0.807988 45.2938 0.958515 45.3721 0.958898 45.3785C0.939391 45.4639 0.92068 46.5981 0.936437 46.8233C0.945048 46.9457 1.02314 46.8772 1.02616 46.941C1.09605 48.4575 1.1159 49.9768 1.07938 51.5149C1.0778 51.542 0.990447 51.5012 0.987828 51.5649C0.948987 52.4553 1.05585 53.0255 1.1193 53.7599C1.18272 54.4942 1.16147 55.0766 1.01151 55.5113C1.03039 56.0653 0.964092 56.8602 0.923863 57.3176C0.883635 57.775 1.05368 57.8388 1.05704 57.8791C1.16464 59.1344 1.06731 59.8601 1.05216 61.1624C1.04467 61.7816 1.06933 63.0097 1.08792 63.6801C1.1029 64.2099 1.06305 64.5291 1.08853 65.0173C1.09194 65.0834 1.16765 65.0166 1.17057 65.0368C1.26115 65.5816 1.07606 65.3198 1.043 65.4323C0.922791 65.8401 0.858766 66.0921 0.915318 66.7898C0.928269 66.9507 1.19477 67.4195 1.21036 67.7129C1.23014 68.0943 1.13461 67.9503 1.15775 68.3497C1.15964 68.3839 1.21857 68.3768 1.21598 68.6233C1.20469 69.7674 1.1704 71.0148 1.1763 72.2038C1.17688 72.3662 1.27036 72.158 1.27274 72.3927C1.28382 73.4937 1.28036 74.7006 1.23661 75.7733C1.22554 76.0374 1.16009 75.8718 1.14066 75.9292C1.02307 76.281 1.19392 76.7801 1.19718 76.8624C1.27928 78.8265 1.12466 80.3296 1.19828 82.3315C1.2026 82.4404 1.38575 83.2792 1.22867 83.6534C1.21822 83.679 1.05751 84.0493 1.16739 84.3766C1.17427 84.397 1.257 84.1663 1.24857 84.5689C1.24015 84.9715 1.2954 85.6194 1.2045 86.1728C1.17586 86.348 1.01555 86.7621 1.14334 87.2848C1.15226 87.3188 1.44122 88.1256 1.24185 88.4136C1.20904 88.4603 0.998067 88.4115 1.10623 89.0352C1.1272 89.1544 1.17426 88.9381 1.20365 89.252C1.24893 89.7331 1.19243 90.3705 1.28641 90.9619C1.30305 91.065 1.44624 91.504 1.33756 91.8561C1.32053 91.9113 1.2501 91.8065 1.24222 91.9925C1.20441 92.8768 1.25152 93.8028 1.20279 94.7008C1.18567 95.0188 1.07181 94.8562 1.04129 95.1877C1.01079 95.5193 0.981448 96.1873 1.03348 96.5342C1.08554 96.8812 1.267 96.5022 1.28153 97.022C1.28339 97.0887 1.2851 97.1554 1.28667 97.222L0.382935 96.3183C2.57505 96.2666 4.74827 96.3673 6.93835 96.3824C7.27305 96.3847 6.99558 96.3198 7.48881 96.3186C9.30731 96.3137 12.4469 96.2529 14.0249 96.3908C14.1878 96.4051 14.3033 96.4189 14.3829 96.4322L13.5931 97.222C13.6424 96.9276 13.6853 97.1222 13.7205 97.222L14.3829 96.5596C14.3317 96.5776 14.3054 96.5937 14.3829 96.6075L13.7683 97.222C13.7769 97.1741 13.7846 97.0866 13.7913 96.9407C13.8128 96.4745 13.6018 95.9701 13.5952 95.8575C13.5277 94.7581 13.6212 93.994 13.5925 93.0045C13.5865 92.8001 13.501 93.0005 13.4969 92.8266C13.4821 92.2326 13.5203 91.6082 13.5133 91.0406C13.5099 90.7859 13.4446 90.8328 13.4497 90.5985C13.461 90.0378 13.4884 89.542 13.5496 88.9954C13.5552 88.9456 13.6365 89.2815 13.6395 88.8667C13.6441 88.1953 13.7045 87.3619 13.6422 86.5895C13.6234 86.3603 13.4742 86.3513 13.5772 85.8586C13.5988 85.7553 13.778 85.8871 13.6231 85.3132C13.5974 85.2167 13.3885 84.2527 13.5232 83.7796C13.5586 83.6548 13.7053 83.3362 13.6822 83.0606C13.6785 83.0232 13.5984 83.1729 13.5905 82.9446C13.5644 82.1397 13.5729 81.2961 13.5478 80.4692C13.541 80.2484 13.458 80.5772 13.4504 80.2481C13.4294 79.3431 13.4506 78.2132 13.4765 77.3281C13.4863 77.0019 13.555 77.2274 13.5625 77.2037C13.6841 76.8219 13.5199 76.5961 13.5103 76.4694C13.453 75.6813 13.5301 75.0812 13.5097 74.3548C13.5043 74.1543 13.426 74.2965 13.419 74.2566C13.3508 73.8427 13.4914 74.151 13.5069 73.889C13.5508 73.1552 13.5445 72.337 13.5345 71.5949C13.5307 71.3223 13.4399 71.6287 13.4376 71.384C13.4219 69.936 13.4306 68.4307 13.4807 67.0176C13.4903 66.7515 13.5602 66.9189 13.5761 66.8634C13.6878 66.4812 13.5355 65.9211 13.521 65.7922C13.4547 65.2061 13.5165 64.9785 13.505 64.4609C13.4475 61.9326 13.4885 58.8108 13.5138 56.4241C13.5463 53.3142 13.6128 50.9009 13.5955 47.9352C13.5945 47.7467 13.5015 47.9368 13.4995 47.7743C13.4771 45.6765 13.5134 43.6112 13.4865 41.5092C13.4845 41.3367 13.3963 41.5853 13.3901 41.3085C13.3767 40.7406 13.3815 40.0212 13.4096 39.4471C13.4232 39.167 13.4988 39.5426 13.511 39.2607C13.5393 38.6044 13.5456 37.9008 13.5315 37.2266C13.5253 36.9397 13.4351 37.3725 13.434 36.9996C13.4251 34.4593 13.4096 31.9644 13.5263 29.3973C13.5344 29.2213 13.7176 29.0669 13.6825 28.6927C13.6316 28.6645 13.5718 28.6661 13.5174 28.6538C13.4881 24.9557 13.5517 21.2954 13.5615 17.5869C13.5619 17.4306 13.4648 17.7008 13.4651 17.3981C13.4665 15.6461 13.4396 13.9447 13.5361 12.1526C13.5455 11.9748 13.7164 12.066 13.6905 11.542C13.6858 11.4496 13.663 10.6604 13.6259 10.4563C13.6204 10.4286 13.5406 10.5726 13.5383 10.3183C13.5262 8.84043 13.5444 7.29169 13.5931 5.81637C13.6011 5.57827 13.686 5.83183 13.6925 5.66225C13.7375 4.45926 13.673 3.15076 13.7501 2.00125C13.802 1.23181 13.9488 1.51668 14.0932 1.10781C14.1136 1.04998 14.1168 0.573517 14.2009 0.548877C14.4123 0.485621 14.6437 0.716404 14.869 0.621708C14.9175 0.601701 14.8652 -0.0364029 14.9825 0.341396C14.9904 0.367789 15.0293 0.830417 15.0691 0.944363C15.0966 1.0237 15.182 0.880736 15.2172 1.0426C15.2524 1.20445 15.1808 1.3823 15.2221 1.65065C15.264 1.91887 15.3613 1.80093 15.3728 2.33661ZM0.744054 59.3772C0.662392 59.8007 0.961487 59.8632 0.889927 59.4051C0.886114 59.383 0.74806 59.3553 0.744054 59.3772ZM0.696815 8.13258C0.564893 8.68629 0.758871 9.06519 0.860755 8.67457C0.962529 8.28399 0.736805 7.96389 0.696815 8.13258ZM0.600502 2.39084C0.496488 3.03796 0.920616 3.13986 0.834876 2.44673C0.830031 2.40642 0.606542 2.353 0.600502 2.39084ZM14.1344 3.00394C14.1383 2.99809 14.1422 2.65559 14.1383 2.64741C14.0433 2.46503 14.0356 3.14989 14.1344 3.00394ZM3.91185 0.334751C3.70984 0.277379 3.12816 0.343609 3.37917 0.414951C3.58124 0.472345 4.16345 0.40612 3.91185 0.334751ZM0.42484 81.471C0.420383 81.4777 0.41637 81.7233 0.441564 81.7183C0.522708 81.7017 0.499807 81.3599 0.42484 81.471ZM13.5957 0.329869C12.165 0.313904 11.2975 -0.0364459 12.8556 0.00308785C13.1377 0.0102406 12.2475 0.114812 12.6066 0.146398C13.2637 0.203943 13.7001 -0.0160344 14.3706 0.101842C14.492 0.123418 13.6774 0.331558 13.5932 0.330357C13.5941 0.330195 13.5949 0.330032 13.5957 0.329869ZM0.384802 59.6211C0.380847 59.6296 0.377097 59.9695 0.381018 59.9776C0.475972 60.1617 0.483582 59.4769 0.384802 59.6211ZM0.239904 95.7991C0.231476 95.8179 0.223593 96.6067 0.231359 96.6325C0.386634 97.044 0.40303 95.4492 0.239904 95.7991ZM0.165932 36.7286C0.0704073 36.3578 0.0591604 35.9141 0.179115 35.6184C0.172747 35.987 0.171809 36.358 0.165932 36.7286Z" fill="black"/>
</svg>
