<svg width="16" height="193" viewBox="0 0 16 193" fill="none" xmlns="http://www.w3.org/2000/svg">
<path d="M1 192.341L1 0.340942H15L15 192.341H1Z" fill="#C02B53"/>
<path d="M0.0101698 188.417C-0.015883 186.108 0.0119737 183.082 0.0502087 180.782C0.0620673 180.061 0.115075 180.426 0.125648 179.928C0.146258 178.955 0.120261 178.048 0.144813 177.087C0.153209 176.768 0.237174 177.165 0.244056 176.83C0.281163 174.999 0.259777 173.266 0.277625 171.411C0.365685 162.273 0.397205 153.291 0.435461 144.041C0.448004 140.991 0.524206 137.283 0.490881 134.133C0.486916 133.765 0.413216 133.985 0.407141 133.915C0.31415 132.817 0.462935 133.182 0.482702 132.466C0.560754 129.622 0.567542 126.459 0.539099 123.722C0.526782 122.558 0.380395 123.726 0.462561 122.553C0.468112 122.472 0.546377 122.767 0.554724 122.448C0.573498 121.724 0.559509 120.35 0.56571 119.789C0.578057 118.707 0.577269 118.528 0.578161 117.505C0.580061 116.106 0.618966 114.443 0.601232 112.942C0.597215 112.622 0.516985 113.046 0.503332 112.535C0.489702 112.024 0.496505 110.672 0.515417 110.216C0.534339 109.76 0.597399 109.954 0.611852 109.873C0.733849 109.209 0.564884 107.644 0.560705 107.443C0.489506 103.773 0.58576 100.626 0.585485 97.1803C0.585073 94.5648 0.553296 91.7682 0.557653 89.2795C0.563155 86.3147 0.606631 83.8018 0.599157 80.9215C0.598461 80.6175 0.504129 80.9737 0.503088 80.6024C0.492111 76.6579 0.502394 72.7409 0.566076 68.8134C0.572546 68.4195 0.655368 68.9271 0.666784 68.5337C0.734849 66.1244 0.898357 62.3122 0.537756 60.8813C0.551837 59.2493 0.566385 57.268 0.639074 55.8079C0.685858 54.8666 0.776084 55.7809 0.737585 54.6245C0.729007 54.3636 0.649991 54.7029 0.643102 54.3117C0.614176 52.665 0.639861 50.8659 0.599035 49.2368C0.590545 48.9055 0.519744 48.996 0.506994 48.9021C0.403741 48.1131 0.574425 46.7995 0.586828 46.5132C0.679315 44.3327 0.642919 42.7403 0.645178 40.709C0.645741 40.2376 0.550639 40.7948 0.547766 40.3412C0.534136 37.9888 0.54231 35.5518 0.584509 33.2484C0.594124 32.736 0.675134 33.2072 0.683874 32.9623C0.721424 31.8827 0.568417 31.6434 0.601477 30.608C0.60825 30.3896 0.6776 30.5127 0.685217 30.4728C0.804778 29.8497 0.635368 29.3082 0.631628 29.1479C0.580523 27.1203 0.757378 25.8243 0.732336 23.8656C0.729161 23.6312 0.641412 24.1596 0.637853 23.5009C0.61363 19.1126 0.637735 14.4714 0.707922 10.1277C0.718716 9.4523 0.784634 9.93443 0.79276 9.89194C0.919728 9.19928 0.749606 8.75105 0.7432 8.53088C0.697082 6.79359 0.839748 5.17078 0.637121 3.99036C0.648756 2.77298 0.655351 1.55653 0.659077 0.340942L0.65743 0.00167847L1 1.52588e-05C5.67933 0.0143585 10.3454 -0.0138092 15 0.0394135L15.3001 0.0379486L15.3015 0.340942C15.285 1.78493 15.2607 3.2278 15.2248 4.6696C15.2227 4.76239 15.1389 4.59613 15.1351 4.7812C15.0881 7.00989 15.2183 6.58188 15.3775 8.05653C15.4175 8.42801 15.2252 9.55806 15.2111 9.65805C15.1592 10.0223 15.0346 9.6445 15.0245 9.76649C14.9455 10.7759 15.3577 10.6114 15.3579 11.9731C15.3572 12.0157 15.2813 11.8368 15.2738 11.9511C15.2501 12.3062 15.2802 12.6582 15.2541 13.0057C15.1937 13.8009 14.9934 14.0841 15.11 15.2987C15.1251 15.4525 15.3589 15.2177 15.3479 16.4335C15.3433 16.9181 15.3473 19.0635 15.3321 19.6648C15.317 20.2654 15.2416 19.853 15.2384 19.8958C15.1387 21.514 15.0974 20.9004 14.9499 21.7111C14.803 22.5217 15.1535 22.2969 15.1926 22.6274C15.2316 22.9584 15.1494 24.1448 15.1208 24.4364C15.0922 24.7277 15.0443 24.3643 15.0282 24.6234C14.9225 26.3414 15.2021 25.3775 15.2578 25.9436C15.3895 27.2782 15.1296 28.3177 15.1041 29.5395C15.0972 29.8701 15.1564 29.6004 15.162 29.8947C15.1831 31.0607 15.102 31.7619 15.1764 33.0883C15.1885 33.3053 15.3448 34.3777 15.2301 35.0718C15.2135 35.1701 15.1488 34.8907 15.1342 35.3877C15.1125 36.1299 15.0983 37.4674 15.12 38.2654C15.136 38.8545 15.2427 38.1792 15.2096 38.9208C15.1948 39.2503 15.1323 38.6395 15.1097 39.2587C15.0871 39.8745 15.0899 41.4492 15.092 42.0484C15.0942 42.6465 15.1752 42.3191 15.1806 42.3674C15.2119 42.6599 15.2509 43.8078 15.2508 43.9092C15.2607 49.0256 15.1242 53.7437 15.1694 58.7252C15.1728 59.1161 15.2582 58.8557 15.2596 58.9154C15.2954 60.2537 15.0684 59.1985 14.9924 60.1334C15.1657 59.9983 15.1343 60.5502 15.1533 61.4929C15.1626 61.9472 15.2297 61.6998 15.2365 61.7412C15.3384 62.4149 15.2068 62.884 15.1799 63.0049C15.0809 63.451 15.1979 63.9366 15.1317 64.2402C15.066 64.5436 14.9686 63.8453 14.9698 64.7494C15.0318 65.0029 15.1939 64.3317 15.2202 65.0182C15.3195 67.6081 15.1924 72.4427 15.1792 74.5251C15.166 76.6034 15.1774 77.2747 15.155 78.4857C15.1145 80.6732 15.2347 79.8715 15.2898 81.2298C15.3448 82.5921 15.0489 81.9298 14.9853 82.1257C14.9217 82.3179 14.9872 82.5278 14.9522 82.7669C14.9173 83.0052 14.874 82.4892 14.8609 83.0498C14.8478 83.6106 14.9609 85.144 15.0274 85.3428C15.1683 85.7631 15.3162 85.0721 15.2642 86.5562C15.2612 86.6415 15.1834 86.3645 15.1755 86.6913C15.1156 89.2871 15.1119 91.9838 15.0589 94.5763C15.0515 94.9328 14.965 94.614 14.9597 94.8215C14.9043 96.9824 15.0503 96.21 15.2124 97.3943C14.9966 97.1284 14.8646 97.7833 14.8634 99.4233C14.8625 100.409 14.9567 100.239 15.0232 100.877C15.0432 101.068 14.9785 101.766 15.0228 101.892C15.1676 102.309 15.3298 101.652 15.2652 103.343C15.2622 103.417 15.1829 103.181 15.1781 103.437C15.1466 105.094 15.2981 105.293 15.3165 107.084C15.3309 108.487 15.2385 110.984 15.2235 112.583C14.9809 112.549 15.0365 114.059 15.2037 114.672C15.1969 115.709 15.2063 116.829 15.1832 117.832C15.1753 118.177 15.1051 117.951 15.0975 117.994C14.9785 118.661 15.1412 119.112 15.1475 119.336C15.2096 121.763 15.0862 123.74 15.2068 126.057C15.2111 126.139 15.3796 126.272 15.2566 126.891C15.2481 126.931 15.1714 126.166 15.1655 127.256C15.1596 128.346 15.0692 130.4 15.1473 131.913C15.1661 132.279 15.3029 133.205 15.196 133.948C15.1815 134.047 15.1332 133.939 15.1063 134.082C15.0206 134.544 15.1909 134.796 15.0462 135.339C14.9016 135.882 14.7932 137.012 14.893 138.537C14.8959 138.586 15.0309 138.947 15.0288 139.427C15.0253 140.193 14.9971 141.28 14.998 142.08C14.9985 142.463 15.0823 142.218 15.0838 142.284C15.1308 144.859 15.0561 146.691 15.0236 149.449C15.0175 149.955 15.1318 151.408 15.0415 152.387C14.9426 153.461 14.5311 152.357 14.6291 154.827C14.6683 155.824 15.1903 157.085 14.9199 158.876C14.9869 162.349 14.8485 165.561 14.9442 169.043C14.9484 169.2 15.0941 169.695 15.0921 170.063C15.0889 170.61 15.0208 170.91 15.0163 171.3C14.9958 172.935 15.0541 174.432 15.045 176.009C15.0417 176.607 14.9713 176.398 14.9674 177.112C14.9635 177.826 15.0562 178.301 15.0114 179.268C14.9773 179.999 14.7878 180.729 14.7657 181.698C14.9526 181.735 14.9488 182.401 14.9981 183.584C15.0077 183.812 15.0728 183.568 15.0807 183.675C15.1142 184.113 15.0603 184.518 15.0968 184.934C15.1055 185.035 15.1694 185.04 15.1801 185.123C15.2742 185.826 15.1306 186.984 15.1056 187.183C15.0106 187.946 15.0936 188.302 15.0562 188.887C15.0189 189.471 14.9721 188.598 14.9494 189.28C14.9188 190.201 14.9126 191.294 14.9111 192.341L15 192.252C14.4409 192.251 13.8948 192.252 13.3949 192.251C12.822 192.25 13.2129 192.335 13.1309 192.337C11.9462 192.359 10.7482 192.268 10.0913 192.438C9.26992 191.999 9.37691 192.48 7.68353 192.393C7.55013 192.385 7.38044 192.178 7.89256 192.147C8.40465 192.117 9.18119 192.182 9.89171 192.134C10.06 192.123 11.0238 191.929 11.1553 191.917C12.1854 191.825 12.3314 192.135 12.3859 192.152C13.004 192.336 14.1818 192.126 14.492 192.112C14.6643 192.104 14.8336 192.097 15 192.092L14.7513 192.341C14.7139 191.137 14.7425 190.08 14.7009 189.038C14.6703 188.262 14.4671 188.186 14.4734 187.576C14.4939 185.55 14.7773 184.843 14.5316 182.933C14.4792 182.524 14.2571 182.931 14.4317 181.464C14.4427 181.372 14.6025 180.283 14.5014 179.653C14.4887 179.574 14.424 179.577 14.4185 179.473C14.3834 178.774 14.4349 178.308 14.4102 177.547C14.3856 176.786 14.3487 175.872 14.3707 175.003C14.3838 174.479 14.5044 173.808 14.5339 173.557C14.6189 172.849 14.4795 172.09 14.5825 171.652C14.686 171.21 14.8431 172.074 14.91 170.915C14.7419 170.872 14.5693 170.773 14.4002 170.704C14.4062 168.164 14.4605 165.664 14.4531 163.115C14.452 162.799 14.3616 163.122 14.3581 162.783C14.3438 161.354 14.4082 160.105 14.3825 158.623C14.3623 157.476 14.2666 156.217 14.2425 155.018C14.4349 154.285 14.3696 152.504 14.3872 151.211C14.3932 150.758 14.4446 150.788 14.4614 150.466C14.5234 149.251 14.3534 149.82 14.3266 149.487C14.2124 148.057 14.5972 147.935 14.5877 146.249C14.5874 146.16 14.3822 145.068 14.3695 144.918C14.2862 143.963 14.4409 144.76 14.456 144.162C14.4837 143.071 14.5327 142.312 14.4726 141.031C14.4548 140.658 14.327 139.762 14.4259 139.037C14.4388 138.942 14.5066 138.994 14.5106 138.918C14.5768 137.528 14.3637 137.491 14.2916 136.697C14.2195 135.902 14.3665 134.675 14.4089 134.426C14.5185 133.772 14.4558 134.926 14.4665 134.962C14.5946 135.377 14.5725 134.482 14.5833 133.799C14.7922 133.7 14.7797 132.743 14.5937 133.09C14.5734 133.129 14.5929 133.661 14.5833 133.799C14.3784 133.198 14.3522 132.148 14.5437 130.987C14.6334 130.444 14.7381 130.957 14.6998 129.307C14.6825 128.558 14.5387 128.847 14.4995 128.186C14.41 126.676 14.5442 124.714 14.523 123.157C14.5154 122.592 14.4366 123.142 14.4287 122.756C14.4073 121.731 14.4664 120.828 14.4361 119.798C14.4333 119.705 14.3509 119.933 14.3498 119.613C14.3403 117.186 14.393 115.074 14.3945 112.54C14.3952 111.316 14.3497 109.128 14.3589 107.86C14.3742 105.662 14.494 102.959 14.4649 101.081C14.4463 99.8569 14.3639 100.126 14.3077 99.6009C14.1988 98.5885 14.3938 96.7964 14.424 96.5551C14.425 96.5477 14.4445 97.6013 14.4868 97.0391C14.5749 96.7123 14.4244 96.5669 14.424 96.5551C14.4435 96.3966 14.4623 94.2917 14.4465 93.8738C14.4379 93.6467 14.3598 93.7737 14.3568 93.6553C14.2869 90.8408 14.267 88.0214 14.3036 85.1668C14.3051 85.1166 14.3925 85.1923 14.3951 85.0741C14.4339 83.4215 14.3271 82.3633 14.2636 81.0003C14.2002 79.6376 14.2215 78.5568 14.3714 77.7502C14.3525 76.7219 14.4188 75.2467 14.4591 74.3978C14.4993 73.549 14.3293 73.4305 14.3259 73.3558C14.2183 71.0261 14.3156 69.6794 14.3308 67.2625C14.3383 66.1134 14.3136 63.8341 14.295 62.5899C14.28 61.6067 14.3199 61.0143 14.2944 60.1083C14.291 59.9857 14.2153 60.1095 14.2124 60.0721C14.1218 59.061 14.3069 59.5469 14.3399 59.3382C14.4601 58.5813 14.5242 58.1137 14.4676 56.8188C14.4547 56.5201 14.1882 55.6501 14.1726 55.1057C14.1528 54.3978 14.2483 54.665 14.2252 53.9238C14.2233 53.8604 14.1644 53.8736 14.167 53.4162C14.1782 51.2928 14.2125 48.9778 14.2066 46.7712C14.2061 46.4698 14.1126 46.8562 14.1102 46.4207C14.0991 44.3772 14.1026 42.1375 14.1463 40.1467C14.1574 39.6566 14.2228 39.9638 14.2423 39.8575C14.3599 39.2044 14.189 38.2783 14.1858 38.1255C14.1037 34.4805 14.2583 31.6908 14.1847 27.9757C14.1803 27.7735 13.9972 26.2169 14.1543 25.5224C14.1647 25.4748 14.3254 24.7877 14.2155 24.1802C14.2087 24.1424 14.1259 24.5706 14.1344 23.8234C14.1428 23.0762 14.0875 21.8737 14.1784 20.8467C14.2071 20.5215 14.3674 19.753 14.2396 18.7831C14.2307 18.7199 13.9417 17.2225 14.1411 16.6881C14.1739 16.6014 14.3849 16.6921 14.2767 15.5345C14.2557 15.3133 14.2087 15.7148 14.1793 15.1321C14.134 14.2394 14.1905 13.0564 14.0965 11.959C14.0799 11.7676 13.9367 10.9528 14.0454 10.2993C14.0624 10.1969 14.1328 10.3914 14.1407 10.0462C14.1785 8.40503 14.1314 6.68649 14.1801 5.0201C14.1973 4.42986 14.3111 4.73161 14.3416 4.11638C14.3721 3.50098 14.4015 2.26131 14.3495 1.61745C14.2974 0.973434 14.1159 1.67696 14.1014 0.712173C14.0995 0.588394 14.0978 0.464645 14.0963 0.340942L15 1.24467C10.9318 1.2964 6.89857 1.19569 2.8341 1.18057C2.21294 1.17825 2.72789 1.24318 1.81252 1.24442C1.55515 1.24478 1.28352 1.24548 1 1.24638L1.90544 0.340942C1.91643 3.77515 1.95867 8.95335 1.83121 11.6585C1.72069 14.0049 1.63656 11.0521 1.59159 12.8451C1.57013 13.7103 1.78111 14.6463 1.78775 14.8552C1.85522 16.8956 1.76176 18.3137 1.79044 20.1501C1.79639 20.5294 1.8819 20.1574 1.88602 20.4802C1.90085 21.5827 1.86268 22.7413 1.86966 23.7948C1.87299 24.2674 1.9383 24.1804 1.93326 24.6152C1.92195 25.6558 1.8945 26.576 1.83328 27.5904C1.82771 27.6829 1.74646 27.0594 1.74344 27.8293C1.73878 29.0753 1.67839 30.6219 1.74076 32.0555C1.75951 32.4808 1.90878 32.4975 1.8057 33.4118C1.78417 33.6036 1.60493 33.3589 1.7598 34.424C1.78553 34.6031 1.99442 36.3922 1.85977 37.2702C1.82434 37.5018 1.67767 38.0931 1.70072 38.6046C1.70439 38.6739 1.78457 38.396 1.79239 38.8199C1.81856 40.3137 1.81 41.8792 1.83512 43.4138C1.84198 43.8236 1.92495 43.2133 1.93253 43.8241C1.9535 45.5037 1.93237 47.6007 1.9064 49.2431C1.89667 49.8487 1.82795 49.4301 1.82047 49.4742C1.69882 50.1827 1.86302 50.6017 1.87259 50.8368C1.92992 52.2993 1.85279 53.4131 1.8732 54.7612C1.87863 55.1333 1.95692 54.8694 1.9639 54.9435C2.03211 55.7116 1.89151 55.1395 1.87601 55.6256C1.83212 56.9876 1.83842 58.5059 1.84842 59.8833C1.85221 60.3891 1.94299 59.8206 1.94534 60.2746C1.96099 62.9619 1.9523 65.7555 1.90225 68.3781C1.89267 68.8719 1.82276 68.5612 1.80679 68.6641C1.69509 69.3734 1.84746 70.413 1.86197 70.6523C1.92824 71.7399 1.86642 72.1624 1.87796 73.1229C1.93541 77.8151 1.89447 83.6087 1.86917 88.0379C1.83662 93.8096 1.77012 98.2883 1.78739 103.792C1.7884 104.142 1.88139 103.789 1.88345 104.091C1.90587 107.984 1.86953 111.817 1.89639 115.718C1.89843 116.038 1.98659 115.577 1.99283 116.09C2.00624 117.144 2.00145 118.479 1.9733 119.545C1.95974 120.065 1.88409 119.368 1.87198 119.891C1.84362 121.109 1.83734 122.415 1.85147 123.666C1.85768 124.198 1.94784 123.395 1.94888 124.087C1.95783 128.802 1.97336 133.432 1.8566 138.196C1.84858 138.522 1.66533 138.809 1.70047 139.503C1.75133 139.556 1.81115 139.553 1.86551 139.576C1.89479 146.439 1.83127 153.232 1.82144 160.114C1.82105 160.404 1.91815 159.903 1.91788 160.465C1.91644 163.716 1.94334 166.874 1.84683 170.2C1.8374 170.53 1.66658 170.36 1.69242 171.333C1.69713 171.504 1.71991 172.969 1.75699 173.348C1.76258 173.399 1.84231 173.132 1.84464 173.604C1.85674 176.346 1.83854 179.221 1.78983 181.959C1.78181 182.401 1.69691 181.93 1.69046 182.245C1.64539 184.477 1.70993 186.906 1.63285 189.039C1.58094 190.467 1.43417 189.938 1.28971 190.697C1.26932 190.804 1.26609 191.689 1.18204 191.734C0.970681 191.852 0.739242 191.423 0.513952 191.599C0.465427 191.636 0.517692 192.821 0.400427 192.119C0.392579 192.07 0.35366 191.212 0.31388 191C0.286376 190.853 0.200894 191.119 0.165687 190.818C0.130513 190.518 0.202169 190.188 0.160804 189.69C0.118927 189.192 0.0216813 189.411 0.0101698 188.417ZM14.6389 70.5755C14.7205 69.7895 14.4214 69.6735 14.493 70.5237C14.4968 70.5648 14.6349 70.6161 14.6389 70.5755ZM14.6861 165.678C14.818 164.651 14.6241 163.947 14.5222 164.672C14.4204 165.397 14.6461 165.991 14.6861 165.678ZM14.7824 176.334C14.8865 175.133 14.4623 174.944 14.5481 176.23C14.5529 176.305 14.7764 176.404 14.7824 176.334ZM1.24857 187.178C1.2446 187.189 1.24073 187.825 1.24466 187.84C1.33965 188.178 1.34733 186.907 1.24857 187.178ZM14.8873 186.908C14.9447 186.533 14.8784 185.454 14.8071 185.92C14.7497 186.295 14.8159 187.375 14.8873 186.908ZM14.9581 29.5725C14.9626 29.5601 14.9666 29.1045 14.9414 29.1136C14.8602 29.1445 14.8831 29.7787 14.9581 29.5725ZM2.46091 192.233C5.11617 192.249 6.72609 192.599 3.83454 192.56C3.3109 192.553 4.96308 192.448 4.2966 192.417C3.07709 192.359 2.26732 192.579 1.02284 192.461C0.79755 192.44 2.30944 192.231 2.46562 192.233C2.46405 192.233 2.46248 192.233 2.46091 192.233ZM14.9981 70.1229C15.0021 70.1072 15.0058 69.4764 15.0019 69.4612C14.907 69.1196 14.8994 70.3904 14.9981 70.1229ZM15.143 2.98164C15.1515 2.94682 15.1593 1.48288 15.1516 1.43513C14.9963 0.671432 14.9799 3.63116 15.143 2.98164ZM15.217 112.608C15.3125 113.296 15.3238 114.12 15.2038 114.668C15.2102 113.984 15.2111 113.296 15.217 112.608Z" fill="black"/>
</svg>
