<svg width="16" height="101" viewBox="0 0 16 101" fill="none" xmlns="http://www.w3.org/2000/svg">
<path d="M1 100.363L1 0.362915H15L15 100.363H1Z" fill="#C02B53"/>
<path d="M0.0101698 98.1912C-0.015883 96.9136 0.0119737 95.2388 0.0502087 93.9659C0.0620673 93.567 0.115075 93.769 0.125648 93.4937C0.146258 92.9551 0.120261 92.4534 0.144813 91.9212C0.153209 91.7448 0.237174 91.9643 0.244056 91.7794C0.281163 90.7659 0.259777 89.8071 0.277625 88.7805C0.365685 83.7235 0.397205 78.7526 0.435461 73.6337C0.448004 71.9459 0.524206 69.8942 0.490881 68.1508C0.486916 67.9473 0.413216 68.0686 0.407141 68.0299C0.31415 67.4226 0.462935 67.6245 0.482702 67.228C0.560754 65.6542 0.567542 63.9042 0.539099 62.3896C0.526782 61.7452 0.380395 62.3913 0.462561 61.7425C0.468112 61.6974 0.546377 61.8609 0.554724 61.6842C0.573498 61.2835 0.559509 60.5232 0.56571 60.2126C0.578057 59.614 0.577269 59.515 0.578161 58.9488C0.580061 58.1749 0.618966 57.2543 0.601232 56.4239C0.597215 56.2467 0.516985 56.4813 0.503332 56.1987C0.489702 55.9157 0.496505 55.1672 0.515417 54.9149C0.534339 54.6625 0.597399 54.77 0.611852 54.7253C0.733849 54.3578 0.564884 53.492 0.560705 53.3807C0.489506 51.3495 0.58576 49.6078 0.585485 47.7012C0.585073 46.2538 0.553296 44.7061 0.557653 43.3289C0.563155 41.6882 0.606631 40.2976 0.599157 38.7036C0.598461 38.5354 0.504129 38.7325 0.503088 38.527C0.492111 36.3442 0.502394 34.1765 0.566076 32.003C0.572546 31.785 0.655368 32.066 0.666784 31.8482C0.734849 30.5149 0.898357 28.4053 0.537756 27.6134C0.551837 26.7102 0.566385 25.6138 0.639074 24.8058C0.685858 24.2849 0.776084 24.7908 0.737585 24.1509C0.729007 24.0066 0.649991 24.1943 0.643102 23.9778C0.614176 23.0665 0.639861 22.0709 0.599035 21.1694C0.590545 20.986 0.519744 21.0361 0.506994 20.9841C0.403741 20.5475 0.574425 19.8206 0.586828 19.6621C0.679315 18.4554 0.642919 17.5742 0.645178 16.4501C0.645741 16.1892 0.550639 16.4976 0.547766 16.2466C0.534136 14.9447 0.54231 13.5961 0.584509 12.3214C0.594124 12.0378 0.675134 12.2986 0.683874 12.1631C0.721424 11.5656 0.568417 11.4332 0.601477 10.8602C0.60825 10.7394 0.6776 10.8075 0.685217 10.7854C0.804778 10.4405 0.635368 10.1409 0.631628 10.0522C0.580523 8.93015 0.757378 8.21294 0.732336 7.12896C0.729161 6.99928 0.641412 7.29172 0.637853 6.92718C0.616419 4.77833 0.632824 2.51992 0.685512 0.362915L0.682778 0.0512085L1 0.0484238C1.28069 0.0552826 1.55967 0.0627518 1.83646 0.0708389C2.2102 0.0816345 1.94341 0.147552 1.96692 0.155678C2.35024 0.282646 2.59828 0.112518 2.72013 0.106117C3.68154 0.0599976 4.57962 0.20266 5.23285 3.8147e-05C8.49995 0.0564575 11.755 -0.00565338 15 0.0613785L15.2989 0.0587616L15.3015 0.362915C15.285 1.16201 15.2607 1.96049 15.2248 2.75839C15.2227 2.80973 15.1389 2.71773 15.1351 2.82014C15.0881 4.05349 15.2183 3.81664 15.3775 4.63271C15.4175 4.83828 15.2252 5.46365 15.2111 5.51899C15.1592 5.72058 15.0346 5.51148 15.0245 5.579C14.9455 6.1376 15.3577 6.04657 15.3579 6.80013C15.3572 6.82371 15.2813 6.72472 15.2738 6.78796C15.2501 6.98444 15.2802 7.17929 15.2541 7.37156C15.1937 7.81163 14.9934 7.96837 15.11 8.64053C15.1251 8.7256 15.3589 8.59568 15.3479 9.26849C15.3433 9.5367 15.3473 10.724 15.3321 11.0567C15.317 11.389 15.2416 11.1609 15.2384 11.1846C15.1387 12.08 15.0974 11.7405 14.9499 12.1891C14.803 12.6377 15.1535 12.5133 15.1926 12.6962C15.2316 12.8794 15.1494 13.5359 15.1208 13.6973C15.0922 13.8585 15.0443 13.6574 15.0282 13.8008C14.9225 14.7515 15.2021 14.2181 15.2578 14.5314C15.3895 15.2699 15.1296 15.8452 15.1041 16.5214C15.0972 16.7043 15.1564 16.555 15.162 16.7179C15.1831 17.3631 15.102 17.7512 15.1764 18.4853C15.1885 18.6053 15.3448 19.1988 15.2301 19.5829C15.2135 19.6373 15.1488 19.4827 15.1342 19.7577C15.1125 20.1685 15.0983 20.9086 15.12 21.3502C15.136 21.6762 15.2427 21.3026 15.2096 21.7129C15.1948 21.8953 15.1323 21.5573 15.1097 21.8999C15.0871 22.2407 15.0899 23.1121 15.092 23.4437C15.0942 23.7747 15.1752 23.5935 15.1806 23.6203C15.2119 23.7822 15.2509 24.4174 15.2508 24.4735C15.2607 27.3049 15.1242 29.9159 15.1694 32.6727C15.1728 32.889 15.2582 32.7449 15.2596 32.7779C15.2954 33.5185 15.0684 32.9346 14.9924 33.452C15.1657 33.3772 15.1343 33.6826 15.1533 34.2043C15.1626 34.4557 15.2297 34.3188 15.2365 34.3417C15.3384 34.7145 15.2068 34.9741 15.1799 35.041C15.0809 35.2879 15.1979 35.5566 15.1317 35.7246C15.066 35.8925 14.9686 35.5061 14.9698 36.0064C15.0318 36.1467 15.1939 35.7753 15.2202 36.1552C15.3195 37.5884 15.1924 40.2639 15.1792 41.4163C15.166 42.5664 15.1774 42.9379 15.155 43.6081C15.1145 44.8186 15.2347 44.375 15.2898 45.1267C15.3448 45.8805 15.0489 45.514 14.9853 45.6224C14.9217 45.7288 14.9872 45.8449 14.9522 45.9773C14.9173 46.1092 14.874 45.8236 14.8609 46.1338C14.8478 46.4442 14.9609 47.2928 15.0274 47.4028C15.1683 47.6354 15.3162 47.253 15.2642 48.0742C15.2612 48.1215 15.1834 47.9682 15.1755 48.149C15.1156 49.5855 15.1119 51.0779 15.0589 52.5126C15.0515 52.7099 14.965 52.5335 14.9597 52.6483C14.9043 53.8441 15.0503 53.4166 15.2124 54.0721C14.9966 53.9249 14.8646 54.2873 14.8634 55.1949C14.8625 55.7405 14.9567 55.6466 15.0232 55.9994C15.0432 56.1053 14.9785 56.4913 15.0228 56.5613C15.1676 56.792 15.3298 56.4283 15.2652 57.3641C15.2622 57.4051 15.1829 57.2744 15.1781 57.4163C15.1466 58.3332 15.2981 58.4429 15.3165 59.4341C15.3309 60.211 15.2385 61.5927 15.2235 62.4774C14.9809 62.4588 15.0365 63.2943 15.2037 63.6333C15.1969 64.2074 15.2063 64.8274 15.1832 65.3823C15.1753 65.5733 15.1051 65.4478 15.0975 65.4719C14.9785 65.8412 15.1412 66.0908 15.1475 66.2147C15.2096 67.5577 15.0862 68.652 15.2068 69.9337C15.2111 69.9792 15.3796 70.0529 15.2566 70.3956C15.2481 70.4177 15.1714 69.9944 15.1655 70.5974C15.1596 71.2004 15.0692 72.3372 15.1473 73.1744C15.1661 73.3771 15.3029 73.8895 15.196 74.3008C15.1815 74.3556 15.1332 74.2956 15.1063 74.3747C15.0206 74.6304 15.1909 74.77 15.0462 75.0705C14.9016 75.371 14.7932 75.9961 14.893 76.8404C14.8959 76.8673 15.0309 77.0672 15.0288 77.3327C15.0253 77.7566 14.9971 78.3583 14.998 78.8009C14.9985 79.0128 15.0823 78.8772 15.0838 78.9139C15.1308 80.3387 15.0561 81.3528 15.0236 82.8791C15.0175 83.1589 15.1318 83.963 15.0415 84.5047C14.9426 85.0995 14.5311 84.4883 14.6291 85.8554C14.6683 86.4068 15.1903 87.105 14.9199 88.0959C14.9869 90.0178 14.8485 91.7951 14.9442 93.7223C14.9484 93.809 15.0941 94.0831 15.0921 94.2868C15.0889 94.5893 15.0208 94.7553 15.0163 94.9713C14.9958 95.8763 15.0541 96.7045 15.045 97.5771C15.0417 97.9084 14.9713 97.7925 14.9674 98.1877C14.9635 98.5825 15.0562 98.8458 15.0114 99.381C14.9854 99.6888 14.8693 99.9966 14.8056 100.363L15 100.169C14.8854 100.149 14.7651 100.134 14.6373 100.129C14.6169 100.316 14.2484 100.312 13.5936 100.361C13.4677 100.371 13.6027 100.436 13.5432 100.444C13.3008 100.477 13.0766 100.423 12.8465 100.46C12.7905 100.468 12.7879 100.532 12.7421 100.543C12.353 100.637 11.712 100.493 11.6019 100.468C11.1799 100.374 10.9827 100.457 10.6591 100.419C10.3359 100.382 10.8191 100.335 10.4416 100.312C9.65923 100.265 8.65395 100.276 7.85933 100.273C7.54228 100.272 7.75859 100.357 7.71321 100.359C7.05761 100.381 6.39463 100.29 6.03111 100.46C5.57656 100.021 5.63577 100.502 4.69865 100.415C4.62483 100.407 4.53092 100.2 4.81433 100.169C5.09772 100.139 5.52746 100.204 5.92065 100.156C6.01377 100.145 6.54716 99.9507 6.61994 99.9389C7.19 99.8469 7.27078 100.157 7.30095 100.174C7.64297 100.358 8.29478 100.148 8.46642 100.134C9.25166 100.068 9.9188 100.111 10.5756 100.064C11.0051 100.033 11.0471 99.8301 11.3844 99.8363C12.5057 99.8568 12.8971 100.14 13.9537 99.8945C14.1802 99.8421 13.9551 99.62 14.7669 99.7946C14.7853 99.7986 14.8757 99.822 15 99.8455L14.4825 100.363C14.5241 100.143 14.566 99.8166 14.5014 99.594C14.4887 99.5503 14.424 99.5517 14.4185 99.494C14.3834 99.1075 14.4349 98.8497 14.4102 98.4286C14.3856 98.0075 14.3487 97.5012 14.3707 97.0205C14.3838 96.7307 14.5044 96.359 14.5339 96.2203C14.6189 95.8287 14.4795 95.4088 14.5825 95.1661C14.686 94.9215 14.8431 95.3998 14.91 94.7582C14.7419 94.7345 14.5693 94.6799 14.4002 94.6417C14.4062 93.2357 14.4605 91.8523 14.4531 90.4416C14.452 90.2668 14.3616 90.4456 14.3581 90.2581C14.3438 89.4671 14.4082 88.7762 14.3825 87.9559C14.3623 87.3209 14.2666 86.6246 14.2425 85.9607C14.4349 85.5551 14.3696 84.5699 14.3872 83.8541C14.3932 83.6034 14.4446 83.6202 14.4614 83.4419C14.5234 82.7692 14.3534 83.0844 14.3266 82.9C14.2124 82.1088 14.5972 82.0411 14.5877 81.1083C14.5874 81.0589 14.3822 80.4548 14.3695 80.3716C14.2862 79.843 14.4409 80.2841 14.456 79.9533C14.4837 79.3492 14.5327 78.9295 14.4726 78.2207C14.4548 78.0141 14.327 77.5184 14.4259 77.117C14.4388 77.0642 14.5066 77.0934 14.5106 77.0509C14.5768 76.2817 14.3637 76.2615 14.2916 75.822C14.2195 75.3823 14.3665 74.7034 14.4089 74.5652C14.5185 74.2037 14.4558 74.8422 14.4665 74.8618C14.5946 75.0917 14.5725 74.5965 14.5833 74.2181C14.7922 74.1634 14.7797 73.6342 14.5937 73.8259C14.5734 73.8477 14.5929 74.1422 14.5833 74.2181C14.3784 73.886 14.3522 73.3045 14.5437 72.6622C14.6334 72.3615 14.7381 72.6457 14.6998 71.7324C14.6825 71.3179 14.5387 71.4781 14.4995 71.1123C14.41 70.2766 14.5442 69.1906 14.523 68.329C14.5154 68.0164 14.4366 68.321 14.4287 68.1073C14.4073 67.5401 14.4664 67.04 14.4361 66.4704C14.4333 66.4188 14.3509 66.5449 14.3498 66.3678C14.3403 65.025 14.393 63.8558 14.3945 62.4539C14.3952 61.7765 14.3497 60.5655 14.3589 59.8637C14.3742 58.6476 14.494 57.1515 14.4649 56.1125C14.4463 55.4349 14.3639 55.5835 14.3077 55.2932C14.1988 54.7329 14.3938 53.7411 14.424 53.6076C14.425 53.6035 14.4445 54.1866 14.4868 53.8755C14.5749 53.6946 14.4244 53.6142 14.424 53.6076C14.4435 53.5199 14.4623 52.3551 14.4465 52.1238C14.4379 51.9981 14.3598 52.0684 14.3568 52.0029C14.2869 50.4454 14.267 48.8851 14.3036 47.3054C14.3051 47.2776 14.3925 47.3195 14.3951 47.2541C14.4339 46.3395 14.3271 45.7539 14.2636 44.9997C14.2002 44.2455 14.2215 43.6474 14.3714 43.201C14.3525 42.632 14.4188 41.8156 14.4591 41.3458C14.4993 40.8761 14.3293 40.8105 14.3259 40.7692C14.2183 39.48 14.3156 38.7347 14.3308 37.3972C14.3383 36.7613 14.3136 35.4999 14.295 34.8114C14.28 34.2672 14.3199 33.9394 14.2944 33.438C14.291 33.3702 14.2153 33.4387 14.2124 33.418C14.1218 32.8585 14.3069 33.1274 14.3399 33.0119C14.4601 32.593 14.5242 32.3342 14.4676 31.6177C14.4547 31.4524 14.1882 30.9709 14.1726 30.6696C14.1528 30.2779 14.2483 30.4257 14.2252 30.0156C14.2233 29.9805 14.1644 29.9878 14.167 29.7346C14.1782 28.5596 14.2125 27.2785 14.2066 26.0573C14.2061 25.8905 14.1126 26.1044 14.1102 25.8634C14.0991 24.7325 14.1026 23.493 14.1463 22.3913C14.1574 22.1201 14.2228 22.2901 14.2423 22.2313C14.3599 21.8699 14.189 21.3574 14.1858 21.2728C14.1037 19.2557 14.2583 17.7119 14.1847 15.656C14.1803 15.544 13.9972 14.6826 14.1543 14.2983C14.1647 14.272 14.3254 13.8917 14.2155 13.5555C14.2087 13.5346 14.1259 13.7716 14.1344 13.3581C14.1428 12.9446 14.0875 12.2791 14.1784 11.7108C14.2071 11.5308 14.3674 11.1055 14.2396 10.5688C14.2307 10.5338 13.9417 9.70516 14.1411 9.40939C14.1739 9.36144 14.3849 9.41163 14.2767 8.77099C14.2557 8.6486 14.2087 8.8708 14.1793 8.54833C14.134 8.05428 14.1905 7.39965 14.0965 6.7923C14.0799 6.68639 13.9367 6.23551 14.0454 5.87385C14.0624 5.8172 14.1328 5.92482 14.1407 5.73382C14.1785 4.82556 14.1314 3.87453 14.1801 2.95235C14.1973 2.62571 14.3111 2.7927 14.3416 2.45224C14.3721 2.11167 14.4015 1.42564 14.3495 1.06933C14.2974 0.712936 14.1159 1.10226 14.1014 0.568352C14.0995 0.499855 14.0978 0.431374 14.0963 0.362915L15 1.26665C12.7486 1.31837 10.5167 1.21766 8.26741 1.20255C7.92366 1.20022 8.20864 1.26516 7.70207 1.26639C5.83852 1.27121 2.62406 1.33184 1 1.19503L1.83211 0.362915C1.83181 0.36647 1.83151 0.370041 1.83121 0.373589C1.72069 1.67208 1.63656 0.0380173 1.59159 1.03026C1.57013 1.50906 1.78111 2.02709 1.78775 2.14267C1.85522 3.27184 1.76176 4.05655 1.79044 5.07287C1.79639 5.28273 1.8819 5.07691 1.88602 5.25552C1.90085 5.86562 1.86268 6.50683 1.86966 7.08982C1.87299 7.35137 1.9383 7.30318 1.93326 7.54383C1.92195 8.1197 1.8945 8.62888 1.83328 9.19028C1.82771 9.24144 1.74646 8.89644 1.74344 9.32248C1.73878 10.012 1.67839 10.8679 1.74076 11.6612C1.75951 11.8966 1.90878 11.9059 1.8057 12.4118C1.78417 12.518 1.60493 12.3826 1.7598 12.972C1.78553 13.0711 1.99442 14.0612 1.85977 14.5471C1.82434 14.6753 1.67767 15.0024 1.70072 15.2855C1.70439 15.3239 1.78457 15.1701 1.79239 15.4047C1.81856 16.2313 1.81 17.0977 1.83512 17.9469C1.84198 18.1738 1.92495 17.8359 1.93253 18.174C1.9535 19.1034 1.93237 20.2639 1.9064 21.1729C1.89667 21.508 1.82795 21.2763 1.82047 21.3007C1.69882 21.6928 1.86302 21.9247 1.87259 22.0548C1.92992 22.8642 1.85279 23.4805 1.8732 24.2266C1.87863 24.4325 1.95692 24.2865 1.9639 24.3275C2.03211 24.7525 1.89151 24.4359 1.87601 24.7049C1.83212 25.4586 1.83842 26.2989 1.84842 27.0611C1.85221 27.3411 1.94299 27.0264 1.94534 27.2777C1.96099 28.7648 1.9523 30.3108 1.90225 31.7621C1.89267 32.0354 1.82276 31.8634 1.80679 31.9204C1.69509 32.3129 1.84746 32.8882 1.86197 33.0206C1.92824 33.6225 1.86642 33.8563 1.87796 34.3879C1.93541 36.9846 1.89447 40.1907 1.86917 42.6418C1.83662 45.8359 1.77012 48.3144 1.78739 51.3602C1.7884 51.5538 1.88139 51.3586 1.88345 51.5255C1.90587 53.68 1.86953 55.8011 1.89639 57.9599C1.89843 58.1371 1.98659 57.8817 1.99283 58.1661C2.00624 58.7493 2.00145 59.4881 1.9733 60.0778C1.95974 60.3654 1.88409 59.9796 1.87198 60.2691C1.84362 60.9432 1.83734 61.6658 1.85147 62.3583C1.85768 62.6529 1.94784 62.2084 1.94888 62.5914C1.95783 65.2003 1.97336 67.7626 1.8566 70.3991C1.84858 70.5799 1.66533 70.7385 1.70047 71.1228C1.75133 71.1517 1.81115 71.1501 1.86551 71.1628C1.89479 74.9608 1.83127 78.72 1.82144 82.5287C1.82105 82.6893 1.91815 82.4118 1.91788 82.7226C1.91644 84.522 1.94334 86.2693 1.84683 88.1099C1.8374 88.2925 1.66658 88.1988 1.69242 88.737C1.69713 88.8319 1.71991 89.6425 1.75699 89.852C1.76258 89.8805 1.84231 89.7326 1.84464 89.9938C1.85674 91.5116 1.83854 93.1022 1.78983 94.6174C1.78181 94.8619 1.69691 94.6015 1.69046 94.7757C1.64539 96.0112 1.70993 97.355 1.63285 98.5356C1.58094 99.3259 1.43417 99.0333 1.28971 99.4532C1.26932 99.5126 1.26609 100.002 1.18204 100.027C0.970681 100.092 0.739242 99.8552 0.513952 99.9525C0.465427 99.973 0.517692 100.628 0.400427 100.24C0.392579 100.213 0.35366 99.7381 0.31388 99.6211C0.286376 99.5396 0.200894 99.6864 0.165687 99.5202C0.130513 99.354 0.202169 99.1713 0.160804 98.8957C0.118927 98.6202 0.0216813 98.7414 0.0101698 98.1912ZM14.6389 39.2306C14.7205 38.7956 14.4214 38.7314 14.493 39.2019C14.4968 39.2247 14.6349 39.253 14.6389 39.2306ZM14.6861 91.8602C14.818 91.2915 14.6241 90.9024 14.5222 91.3036C14.4204 91.7047 14.6461 92.0335 14.6861 91.8602ZM14.7824 97.7571C14.8865 97.0925 14.4623 96.9879 14.5481 97.6997C14.5529 97.7411 14.7764 97.796 14.7824 97.7571ZM1.24857 97.5058C1.2446 97.5118 1.24073 97.8636 1.24466 97.872C1.33965 98.0593 1.34733 97.3559 1.24857 97.5058ZM11.7541 100.25C11.9616 100.308 12.559 100.241 12.3012 100.17C12.0936 100.113 11.4957 100.179 11.7541 100.25ZM14.9581 16.5396C14.9626 16.5328 14.9666 16.2806 14.9414 16.2857C14.8602 16.3028 14.8831 16.6537 14.9581 16.5396ZM1.80846 100.255C3.27788 100.271 4.16881 100.621 2.56863 100.582C2.27885 100.575 3.19316 100.47 2.82433 100.439C2.14946 100.381 1.70133 100.601 1.01264 100.483C0.887966 100.462 1.72464 100.253 1.81107 100.255C1.8102 100.255 1.80933 100.255 1.80846 100.255ZM14.9981 38.9801C15.0021 38.9714 15.0058 38.6223 15.0019 38.6139C14.907 38.4249 14.8994 39.1282 14.9981 38.9801ZM15.143 1.82428C15.1515 1.80501 15.1593 0.994858 15.1516 0.968437C14.9963 0.545807 14.9799 2.18372 15.143 1.82428ZM15.217 62.4913C15.3125 62.8722 15.3238 63.3279 15.2038 63.6315C15.2102 63.253 15.2111 62.8719 15.217 62.4913Z" fill="black"/>
</svg>
