<svg width="16" height="438" viewBox="0 0 16 438" fill="none" xmlns="http://www.w3.org/2000/svg">
<g opacity="0.8">
<path d="M0.382935 1.00171H14.3829V437.002H0.382935V1.00171Z" fill="#CBBF72"/>
<path d="M8.95548 0.0118788C10.6303 0.00322729 12.4779 0.000520587 14.3829 0.00216472L15.3803 -5.14984e-05L15.3825 1.00171C15.3792 4.83336 15.3583 8.89707 15.3327 12.2529C15.3209 13.8275 15.2679 13.0302 15.2573 14.1172C15.2367 16.2431 15.2627 18.2236 15.2381 20.3244C15.2297 21.0207 15.1458 20.154 15.1389 20.8841C15.1018 24.8846 15.1232 28.6693 15.1053 32.7219C15.0172 52.6837 14.9857 72.3056 14.9475 92.5116C14.9349 99.1741 14.8587 107.273 14.8921 114.155C14.896 114.958 14.9697 114.479 14.9758 114.632C15.0688 117.029 14.92 116.232 14.9002 117.797C14.8222 124.01 14.8154 130.918 14.8438 136.896C14.8562 139.44 15.0025 136.89 14.9204 139.451C14.9148 139.629 14.8366 138.983 14.8282 139.681C14.8094 141.263 14.8234 144.264 14.8172 145.49C14.8049 147.853 14.8057 148.244 14.8048 150.478C14.8029 153.533 14.764 157.167 14.7817 160.445C14.7857 161.145 14.8659 160.218 14.8796 161.334C14.8932 162.451 14.8864 165.406 14.8675 166.402C14.8486 167.398 14.7855 166.974 14.7711 167.15C14.6491 168.601 14.8181 172.018 14.8222 172.458C14.8934 180.476 14.7972 187.351 14.7974 194.877C14.7979 200.59 14.8296 206.699 14.8253 212.136C14.8198 218.613 14.7763 224.102 14.7838 230.394C14.7845 231.058 14.8788 230.28 14.8798 231.091C14.8908 239.707 14.8805 248.264 14.8169 256.843C14.8104 257.704 14.7276 256.595 14.7162 257.455C14.6481 262.717 14.4846 271.045 14.8452 274.171C14.8311 277.736 14.8165 282.064 14.7439 285.253C14.6971 287.31 14.6069 285.312 14.6454 287.839C14.6539 288.408 14.7329 287.667 14.7398 288.522C14.7688 292.119 14.7431 296.049 14.7839 299.608C14.7924 300.332 14.8632 300.134 14.8759 300.339C14.9792 302.063 14.8085 304.932 14.7961 305.558C14.7036 310.321 14.74 313.799 14.7378 318.237C14.7372 319.266 14.8323 318.049 14.8352 319.04C14.8488 324.179 14.8406 329.502 14.7984 334.534C14.7888 335.653 14.7078 334.624 14.6991 335.159C14.6615 337.517 14.8145 338.04 14.7815 340.302C14.7747 340.779 14.7053 340.51 14.6977 340.597C14.5782 341.958 14.7476 343.141 14.7513 343.491C14.8024 347.921 14.6256 350.752 14.6506 355.03C14.6538 355.542 14.7415 354.388 14.7451 355.827C14.7693 365.413 14.7452 375.552 14.675 385.04C14.6642 386.516 14.5983 385.463 14.5902 385.555C14.4632 387.068 14.6333 388.048 14.6397 388.529C14.6859 392.324 14.5432 395.869 14.7458 398.447C14.6894 411.344 14.7515 424.193 14.6845 437.002L14.6851 437.303L14.3829 437.303C11.2286 437.287 8.07671 437.262 4.92711 437.227C4.72444 437.224 5.08761 437.141 4.68335 437.137C2.13798 437.112 1.17897 437.136 0.382935 437.187L0.197861 437.188L0.197448 437.002C0.150783 436.275 0.0814014 435.684 0.00540712 434.147C-0.0345835 433.336 0.157694 430.867 0.171788 430.649C0.223726 429.853 0.348375 430.678 0.358433 430.412C0.437417 428.207 0.0251935 428.566 0.0250604 425.592C0.0257477 425.499 0.101623 425.889 0.109167 425.64C0.132852 424.864 0.102702 424.095 0.12882 423.336C0.189256 421.599 0.38956 420.98 0.272984 418.327C0.257855 417.991 0.0240242 418.504 0.0350701 415.848C0.0396721 414.789 0.0356641 410.103 0.0508172 408.789C0.0659522 407.478 0.141304 408.378 0.144567 408.285C0.244206 404.75 0.285502 406.09 0.433018 404.319C0.579978 402.549 0.229465 403.04 0.190343 402.318C0.151332 401.595 0.233541 399.003 0.26212 398.366C0.290711 397.73 0.338592 398.523 0.354771 397.958C0.46048 394.205 0.18079 396.31 0.125158 395.074C-0.00656828 392.158 0.253373 389.887 0.278844 387.218C0.285722 386.496 0.22652 387.086 0.220983 386.442C0.199839 383.896 0.280947 382.364 0.206578 379.466C0.19446 378.992 0.0381758 376.65 0.152868 375.133C0.169406 374.919 0.234183 375.529 0.248692 374.443C0.270469 372.822 0.284627 369.9 0.262975 368.157C0.246955 366.87 0.140218 368.345 0.173375 366.725C0.188181 366.006 0.250622 367.34 0.273229 365.987C0.295828 364.642 0.293085 361.202 0.290929 359.893C0.288725 358.587 0.20776 359.302 0.202306 359.196C0.171061 358.557 0.132019 356.05 0.132116 355.828C0.122232 344.652 0.258707 334.345 0.213536 323.463C0.210109 322.609 0.12473 323.178 0.123327 323.048C0.0875548 320.124 0.314557 322.429 0.390538 320.387C0.21728 320.682 0.248651 319.477 0.22965 317.417C0.220352 316.425 0.153266 316.965 0.146398 316.875C0.0445009 315.403 0.176114 314.378 0.203038 314.115C0.302079 313.14 0.185056 312.079 0.251256 311.416C0.316961 310.753 0.414368 312.279 0.413121 310.304C0.3511 309.75 0.189023 311.216 0.162755 309.717C0.0633956 304.059 0.190561 293.498 0.203771 288.949C0.216969 284.409 0.205526 282.943 0.227941 280.297C0.268468 275.519 0.148218 277.27 0.0931754 274.303C0.0381398 271.327 0.334013 272.774 0.397618 272.346C0.461194 271.926 0.395749 271.467 0.430699 270.945C0.46564 270.424 0.508887 271.552 0.522007 270.327C0.535114 269.102 0.422009 265.752 0.355504 265.318C0.214606 264.4 0.0667284 265.909 0.118688 262.667C0.121772 262.481 0.19957 263.086 0.207433 262.372C0.267325 256.702 0.271038 250.811 0.32401 245.148C0.331415 244.369 0.417964 245.065 0.423252 244.612C0.478611 239.892 0.332679 241.579 0.170568 238.992C0.386303 239.573 0.518292 238.142 0.519566 234.56C0.520407 232.406 0.426184 232.777 0.359776 231.384C0.339757 230.966 0.404454 229.442 0.360142 229.166C0.215294 228.255 0.0531456 229.691 0.117711 225.997C0.12078 225.835 0.200068 226.351 0.204869 225.791C0.236299 222.172 0.0847903 221.739 0.0664421 217.826C0.052045 214.759 0.144433 209.305 0.159459 205.813C0.402009 205.887 0.346468 202.588 0.179235 201.25C0.186081 198.984 0.176627 196.536 0.199742 194.346C0.207623 193.592 0.277848 194.088 0.285436 193.993C0.404465 192.535 0.241765 191.55 0.235387 191.061C0.173383 185.759 0.296696 181.44 0.176183 176.38C0.171842 176.201 0.00336009 175.909 0.126378 174.557C0.134858 174.469 0.211515 176.14 0.217443 173.76C0.223384 171.38 0.313703 166.893 0.235631 163.588C0.216836 162.788 0.0800622 160.765 0.186925 159.142C0.201436 158.925 0.249757 159.162 0.276647 158.85C0.362326 157.841 0.192032 157.29 0.336705 156.103C0.481372 154.917 0.589717 152.45 0.489903 149.117C0.487001 149.011 0.352027 148.222 0.354161 147.173C0.357684 145.5 0.385802 143.125 0.384923 141.378C0.384453 140.542 0.30064 141.077 0.299107 140.932C0.252142 135.308 0.32686 131.305 0.359288 125.28C0.365398 124.175 0.251107 121.001 0.341466 118.863C0.44038 116.515 0.851847 118.928 0.753818 113.531C0.714608 111.355 0.192588 108.599 0.463047 104.687C0.396029 97.1009 0.534449 90.0851 0.438755 82.4776C0.434516 82.1356 0.288824 81.0537 0.290807 80.2494C0.294032 79.0555 0.362126 78.4 0.366612 77.5475C0.387123 73.9751 0.328864 70.7059 0.337926 67.2615C0.341218 65.9538 0.411627 66.4111 0.415562 64.8514C0.419432 63.2927 0.326717 62.2533 0.371495 60.141C0.405626 58.5458 0.595133 56.9507 0.617222 54.8332C0.430295 54.7525 0.434145 53.2981 0.3848 50.7134C0.375227 50.2165 0.310166 50.7493 0.302281 50.5142C0.268749 49.5577 0.32267 48.6725 0.286168 47.7642C0.277401 47.5432 0.213564 47.5329 0.202794 47.3522C0.108783 45.8162 0.252377 43.2859 0.277379 42.8512C0.372331 41.1855 0.289304 40.4072 0.326695 39.1296C0.364082 37.8541 0.410819 39.7612 0.433506 38.2713C0.480433 35.1829 0.470123 31.2147 0.473057 28.078C0.473833 26.8265 0.388621 27.6804 0.386754 27.5012C0.365141 24.9133 0.455783 22.2963 0.286046 20.8613C0.724922 19.0671 0.243477 19.3007 0.331334 15.6017C0.33844 15.3102 0.545981 14.9396 0.57645 16.0583C0.60689 17.1769 0.542016 18.8733 0.589512 20.4254C0.600658 20.7929 0.795138 22.8984 0.806918 23.1857C0.898988 25.4358 0.588846 25.7549 0.571812 25.8739C0.38798 27.2239 0.597495 29.7969 0.611973 30.4744C0.678308 33.574 0.634692 36.2075 0.682041 38.8C0.712643 40.4956 0.915798 40.6615 0.909579 41.9929C0.889026 46.4189 0.605623 47.9639 0.851352 52.1347C0.903761 53.029 1.1258 52.1403 0.951205 55.3448C0.940198 55.5462 0.780472 57.9252 0.881503 59.2999C0.894241 59.4724 0.958952 59.467 0.964388 59.6947C0.999552 61.2205 0.947999 62.2382 0.972689 63.9004C0.99738 65.5625 1.03419 67.561 1.01224 69.4588C0.999115 70.6025 0.87855 72.0698 0.849032 72.6174C0.764 74.1633 0.903417 75.8208 0.800449 76.7785C0.696962 77.7442 0.5398 75.8562 0.472935 78.3886C0.641059 78.4824 0.813621 78.6979 0.982699 78.8487C0.97678 84.3986 0.922415 89.8593 0.929843 95.4278C0.930932 96.1182 1.02132 95.412 1.02481 96.1522C1.03917 99.2746 0.97474 102.002 1.0004 105.24C1.02061 107.746 1.1163 110.495 1.14041 113.116C0.948032 114.717 1.01334 118.606 0.99576 121.431C0.989686 122.421 0.938304 122.355 0.921542 123.058C0.859547 125.714 1.02955 124.469 1.05631 125.197C1.17049 128.32 0.785692 128.588 0.7952 132.27C0.795573 132.465 1.00069 134.849 1.01346 135.178C1.09675 137.265 0.942068 135.523 0.926913 136.829C0.899218 139.214 0.850233 140.871 0.910311 143.668C0.928106 144.484 1.05595 146.441 0.957064 148.025C0.944115 148.233 0.876318 148.118 0.872348 148.286C0.806164 151.322 1.01919 151.402 1.09134 153.137C1.16347 154.872 1.01642 157.553 0.974032 158.098C0.864388 159.525 0.927174 157.005 0.916415 156.927C0.788368 156.019 0.810414 157.974 0.799594 159.468C0.590716 159.684 0.603254 161.773 0.789218 161.016C0.80953 160.93 0.790051 159.768 0.799594 159.468C1.00453 160.779 1.03078 163.075 0.839267 165.61C0.749508 166.797 0.644854 165.675 0.683139 169.28C0.700422 170.916 0.844245 170.284 0.883456 171.728C0.97292 175.027 0.838758 179.313 0.859897 182.714C0.867571 183.949 0.946299 182.746 0.954257 183.59C0.975622 185.829 0.916551 187.803 0.94681 190.051C0.949652 190.255 1.03206 189.757 1.03311 190.456C1.04268 195.757 0.989899 200.372 0.988436 205.906C0.987767 208.58 1.03322 213.36 1.02408 216.13C1.00873 220.931 0.88889 226.836 0.918002 230.938C0.936637 233.612 1.01907 233.026 1.07523 234.172C1.18409 236.383 0.989091 240.298 0.958895 240.825C0.957896 240.841 0.938464 238.54 0.896151 239.768C0.807985 240.482 0.958513 240.799 0.958895 240.825C0.939389 241.171 0.920677 245.769 0.936434 246.682C0.945045 247.178 1.02314 246.901 1.02616 247.16C1.09604 253.308 1.11589 259.467 1.07938 265.702C1.0778 265.812 0.990445 265.647 0.987826 265.905C0.948985 269.515 1.05585 271.827 1.1193 274.804C1.18271 277.781 1.16147 280.142 1.01151 281.904C1.03039 284.15 0.96409 287.373 0.923861 289.227C0.883633 291.081 1.05368 291.34 1.05704 291.503C1.16464 296.592 1.0673 299.534 1.05216 304.814C1.04466 307.324 1.06933 312.303 1.08792 315.021C1.1029 317.169 1.06305 318.463 1.08853 320.442C1.09194 320.71 1.16765 320.439 1.17056 320.521C1.26115 322.73 1.07606 321.668 1.043 322.124C0.922789 323.778 0.858765 324.799 0.915316 327.628C0.928267 328.28 1.19477 330.181 1.21036 331.37C1.23013 332.916 1.13461 332.333 1.15775 333.952C1.15964 334.09 1.21857 334.061 1.21597 335.061C1.20469 339.699 1.1704 344.756 1.1763 349.576C1.17688 350.235 1.27036 349.391 1.27274 350.342C1.28382 354.806 1.28036 359.699 1.2366 364.047C1.22554 365.118 1.16009 364.447 1.14066 364.679C1.02307 366.106 1.19392 368.129 1.19718 368.463C1.27928 376.425 1.12466 382.519 1.19827 390.634C1.2026 391.076 1.38575 394.477 1.22867 395.994C1.21822 396.098 1.05751 397.599 1.16739 398.926C1.17426 399.008 1.257 398.073 1.24857 399.705C1.24015 401.337 1.2954 403.964 1.2045 406.208C1.17586 406.918 1.01555 408.597 1.14334 410.715C1.15226 410.854 1.44121 414.124 1.24185 415.292C1.20904 415.481 0.998066 415.283 1.10623 417.812C1.1272 418.295 1.17426 417.418 1.20365 418.691C1.24893 420.641 1.19243 423.225 1.28641 425.623C1.30305 426.041 1.44624 427.82 1.33756 429.248C1.32053 429.472 1.2501 429.047 1.24222 429.801C1.21739 432.155 1.22918 434.582 1.22641 437.002L0.382935 436.158C1.64825 436.16 2.91159 436.165 4.1615 436.182C5.45084 436.199 4.79166 436.313 6.13561 436.343C7.47994 436.374 10.188 436.403 11.5945 436.351C13.0013 436.299 11.4645 436.118 13.572 436.103C13.8424 436.101 14.1127 436.1 14.3829 436.098L13.4792 437.002C13.4275 428.115 13.5282 419.304 13.5433 410.426C13.5456 409.069 13.4807 410.194 13.4795 408.194C13.4746 400.822 13.4137 388.093 13.5517 381.696C13.6622 376.571 13.7464 383.021 13.7913 379.104C13.8128 377.214 13.6018 375.17 13.5952 374.713C13.5277 370.256 13.6212 367.158 13.5925 363.147C13.5865 362.318 13.501 363.131 13.4969 362.426C13.4821 360.017 13.5203 357.486 13.5133 355.185C13.5099 354.153 13.4446 354.343 13.4497 353.393C13.461 351.12 13.4884 349.11 13.5497 346.894C13.5552 346.692 13.6365 348.054 13.6395 346.372C13.6442 343.65 13.7045 340.271 13.6422 337.14C13.6234 336.211 13.4742 336.174 13.5772 334.177C13.5988 333.758 13.778 334.293 13.6231 331.966C13.5974 331.575 13.3885 327.666 13.5232 325.748C13.5586 325.242 13.7053 323.951 13.6822 322.834C13.6785 322.682 13.5984 323.289 13.5905 322.363C13.5644 319.1 13.5729 315.68 13.5478 312.328C13.541 311.433 13.458 312.766 13.4504 311.432C13.4294 307.763 13.4506 303.182 13.4765 299.594C13.4863 298.271 13.555 299.186 13.5625 299.089C13.6841 297.542 13.5199 296.626 13.5103 296.113C13.453 292.918 13.5301 290.485 13.5097 287.54C13.5043 286.727 13.426 287.303 13.419 287.142C13.3508 285.464 13.4914 286.714 13.5069 285.652C13.5508 282.676 13.5445 279.36 13.5345 276.351C13.5307 275.246 13.4399 276.488 13.4376 275.496C13.4219 269.626 13.4306 263.523 13.4807 257.794C13.4903 256.716 13.5602 257.394 13.5761 257.17C13.6878 255.62 13.5355 253.349 13.521 252.827C13.4547 250.451 13.5165 249.528 13.505 247.429C13.4475 237.179 13.4885 224.523 13.5138 214.848C13.5463 202.24 13.6128 192.456 13.5955 180.433C13.5945 179.669 13.5015 180.44 13.4995 179.781C13.4771 171.276 13.5134 162.904 13.4865 154.382C13.4845 153.683 13.3963 154.691 13.3901 153.568C13.3767 151.266 13.3815 148.35 13.4096 146.022C13.4232 144.887 13.4988 146.41 13.511 145.267C13.5393 142.606 13.5456 139.753 13.5315 137.02C13.5253 135.857 13.4351 137.612 13.4341 136.1C13.4251 125.801 13.4096 115.687 13.5263 105.28C13.5344 104.566 13.7176 103.94 13.6825 102.423C13.6316 102.309 13.5718 102.315 13.5174 102.265C13.4881 87.2733 13.5517 72.4342 13.5615 57.3999C13.5619 56.7661 13.4648 57.8616 13.4651 56.6343C13.4665 49.5315 13.4396 42.6343 13.5361 35.3689C13.5455 34.648 13.7164 35.0179 13.6905 32.8935C13.6858 32.5188 13.663 29.3193 13.6259 28.4921C13.6204 28.3798 13.5406 28.9635 13.5383 27.9325C13.5262 21.9411 13.5444 15.6624 13.5931 9.68142C13.6011 8.71613 13.686 9.74409 13.6925 9.05657C13.7167 6.43956 13.7093 3.69938 13.7092 1.00171L14.3829 1.67548C12.0533 1.67559 9.75541 1.67028 7.59592 1.63455C4.47657 1.58265 5.63144 1.43588 3.97386 1.29142C3.73941 1.27103 1.80781 1.2678 1.70793 1.18375C1.45148 0.97239 2.38709 0.740951 2.00318 0.515661C1.92208 0.467136 -0.664833 0.519401 0.866783 0.402136C0.973782 0.394288 2.8493 0.355369 3.31125 0.315589C3.63287 0.288085 3.0533 0.202603 3.7095 0.167396C4.36565 0.132222 5.08667 0.203878 6.17456 0.162513C7.26197 0.120636 6.78383 0.0233903 8.95548 0.0118788ZM0.744052 297.577C0.66239 299.294 0.961485 299.547 0.889926 297.69C0.886112 297.6 0.748058 297.488 0.744052 297.577ZM0.696811 89.8282C0.564889 92.0729 0.758867 93.609 0.860751 92.0254C0.962526 90.4421 0.736802 89.1442 0.696811 89.8282ZM0.600498 66.5508C0.496484 69.1744 0.920612 69.5874 0.834872 66.7774C0.830027 66.614 0.606538 66.3974 0.600498 66.5508ZM11.6609 1.25028C11.6372 1.24631 10.2487 1.24244 10.2155 1.24637C9.47612 1.34136 12.2526 1.34904 11.6609 1.25028ZM0.49564 43.4521C0.438267 44.271 0.504497 46.6292 0.57584 45.6115C0.633233 44.7923 0.567008 42.4321 0.49564 43.4521ZM0.424839 387.146C0.420383 387.173 0.416369 388.169 0.441563 388.149C0.522707 388.081 0.499806 386.696 0.424839 387.146ZM0.490757 4.19302C0.474792 9.99335 0.124442 13.5101 0.163976 7.19368C0.171129 6.04978 0.2757 9.65887 0.307286 8.20304C0.364831 5.53911 0.144854 3.77004 0.262731 1.05161C0.284306 0.559454 0.492446 3.86214 0.491245 4.20331C0.491083 4.19988 0.49092 4.19645 0.490757 4.19302ZM0.3848 298.565C0.380846 298.6 0.377095 299.978 0.381016 300.011C0.47597 300.757 0.483581 297.981 0.3848 298.565ZM8.6144 437.145C8.69047 437.153 11.8884 437.161 11.9927 437.153C13.661 436.998 7.19557 436.982 8.6144 437.145ZM0.165929 205.758C0.0704046 204.255 0.0591577 202.456 0.179113 201.257C0.172745 202.752 0.171807 204.256 0.165929 205.758Z" fill="#8F882A"/>
</g>
</svg>
