<svg width="59" height="16" viewBox="0 0 59 16" fill="none" xmlns="http://www.w3.org/2000/svg">
<path d="M0.222046 1H58.222V15H0.222046V1Z" fill="#C02B53"/>
<path d="M1.59365 0.0101698C2.40059 -0.015883 3.45835 0.0119737 4.26224 0.0502087C4.51418 0.0620673 4.3866 0.115075 4.56052 0.125648C4.90066 0.146258 5.21755 0.120261 5.55368 0.144813C5.66508 0.153209 5.52641 0.237174 5.64322 0.244056C6.28331 0.281163 6.88885 0.259777 7.53727 0.277625C10.7312 0.365685 13.8707 0.397205 17.1036 0.435461C18.1696 0.448004 19.4655 0.524206 20.5665 0.490881C20.6951 0.486916 20.6184 0.413216 20.6429 0.407141C21.0264 0.31415 20.8989 0.462935 21.1494 0.482702C22.1433 0.560754 23.2486 0.567542 24.2052 0.539099C24.6122 0.526782 24.2041 0.380395 24.6139 0.462561C24.6424 0.468112 24.5391 0.546377 24.6507 0.554724C24.9038 0.573498 25.384 0.559509 25.5802 0.56571C25.9582 0.578057 26.0207 0.577269 26.3783 0.578161C26.8671 0.580061 27.4485 0.618966 27.973 0.601232C28.0849 0.597215 27.9367 0.516985 28.1153 0.503332C28.2939 0.489702 28.7667 0.496505 28.926 0.515417C29.0855 0.534339 29.0176 0.597399 29.0458 0.611852C29.2779 0.733849 29.8247 0.564884 29.895 0.560705C31.1779 0.489506 32.2779 0.58576 33.4821 0.585485C34.3962 0.585073 35.3737 0.553296 36.2435 0.557653C37.2798 0.563155 38.1581 0.606631 39.1648 0.599157C39.271 0.598461 39.1465 0.504129 39.2763 0.503088C40.6549 0.492111 42.024 0.502394 43.3967 0.566076C43.5344 0.572546 43.357 0.655368 43.4945 0.666784C44.3366 0.734849 45.669 0.898357 46.1691 0.537756C46.7395 0.551837 47.432 0.566385 47.9423 0.639074C48.2713 0.685858 47.9518 0.776084 48.356 0.737585C48.4471 0.729007 48.3286 0.649991 48.4653 0.643102C49.0408 0.614176 49.6696 0.639861 50.239 0.599035C50.3548 0.590545 50.3232 0.519744 50.356 0.506994C50.6318 0.403741 51.0909 0.574425 51.191 0.586828C51.9531 0.679315 52.5096 0.642919 53.2196 0.645178C53.3844 0.645741 53.1896 0.550639 53.3482 0.547766C54.1704 0.534136 55.0221 0.54231 55.8272 0.584509C56.0063 0.594124 55.8416 0.675134 55.9272 0.683874C56.3045 0.721424 56.3882 0.568417 56.7501 0.601477C56.8264 0.60825 56.7834 0.6776 56.7973 0.685217C57.0151 0.804778 57.2044 0.635368 57.2604 0.631628C57.6269 0.605201 57.9249 0.639732 58.222 0.67578L58.5417 0.671341L58.5463 1C58.5126 1.27744 58.4776 1.55401 58.4897 1.8846C58.4929 1.9665 58.5806 1.78182 58.5842 2.01204C58.6084 3.54583 58.5843 5.16798 58.5141 6.68619C58.5033 6.92223 58.4374 6.75374 58.4293 6.76858C58.3023 7.01068 58.4724 7.16733 58.4788 7.24429C58.525 7.8515 58.3823 8.41871 58.5849 8.83127C58.5285 10.8947 58.5906 12.9505 58.5236 15L58.5277 15.2973L58.222 15.3015C57.7174 15.285 57.2131 15.2607 56.7091 15.2248C56.6767 15.2227 56.7348 15.1389 56.6701 15.1351C55.8912 15.0881 56.0407 15.2183 55.5253 15.3775C55.3955 15.4175 55.0005 15.2252 54.9656 15.2111C54.8383 15.1592 54.9703 15.0346 54.9277 15.0245C54.5749 14.9455 54.6324 15.3577 54.1564 15.3579C54.1415 15.3572 54.2041 15.2813 54.1641 15.2738C54.04 15.2501 53.917 15.2802 53.7955 15.2541C53.5176 15.1937 53.4186 14.9934 52.9941 15.11C52.9403 15.1251 53.0224 15.3589 52.5975 15.3479C52.4281 15.3433 51.6782 15.3473 51.4681 15.3321C51.2582 15.317 51.4023 15.2416 51.3873 15.2384C50.8218 15.1387 51.0362 15.0974 50.7529 14.9499C50.4695 14.803 50.5481 15.1535 50.4326 15.1926C50.3169 15.2316 49.9023 15.1494 49.8003 15.1208C49.6985 15.0922 49.8255 15.0443 49.735 15.0282C49.1345 14.9225 49.4714 15.2021 49.2736 15.2578C48.8071 15.3895 48.4438 15.1296 48.0167 15.1041C47.9012 15.0972 47.9955 15.1564 47.8926 15.162C47.4851 15.1831 47.24 15.102 46.7764 15.1764C46.7005 15.1885 46.3257 15.3448 46.0831 15.2301C46.0488 15.2135 46.1464 15.1488 45.9727 15.1342C45.7133 15.1125 45.2458 15.0983 44.9669 15.12C44.761 15.136 44.997 15.2427 44.7378 15.2096C44.6227 15.1948 44.8361 15.1323 44.6197 15.1097C44.4045 15.0871 43.8541 15.0899 43.6447 15.092C43.4357 15.0942 43.5501 15.1752 43.5332 15.1806C43.431 15.2119 43.0298 15.2509 42.9943 15.2508C41.206 15.2607 39.557 15.1242 37.8159 15.1694C37.6793 15.1728 37.7703 15.2582 37.7494 15.2596C37.2817 15.2954 37.6505 15.0684 37.3237 14.9924C37.3709 15.1657 37.178 15.1343 36.8485 15.1533C36.6898 15.1626 36.7762 15.2297 36.7617 15.2365C36.5263 15.3384 36.3623 15.2068 36.3201 15.1799C36.1642 15.0809 35.9945 15.1979 35.8883 15.1317C35.7823 15.066 36.0264 14.9686 35.7104 14.9698C35.6217 15.0318 35.8563 15.1939 35.6164 15.2202C34.7112 15.3195 33.0214 15.1924 32.2936 15.1792C31.5672 15.166 31.3326 15.1774 30.9093 15.155C30.1448 15.1145 30.4249 15.2347 29.9502 15.2898C29.4741 15.3448 29.7055 15.0489 29.6371 14.9853C29.5699 14.9217 29.4966 14.9872 29.413 14.9522C29.3297 14.9173 29.51 14.874 29.3141 14.8609C29.1181 14.8478 28.5821 14.9609 28.5126 15.0274C28.3658 15.1683 28.6073 15.3162 28.0886 15.2642C28.0587 15.2612 28.1556 15.1834 28.0413 15.1755C27.1341 15.1156 26.1915 15.1119 25.2854 15.0589C25.1608 15.0515 25.2722 14.965 25.1997 14.9597C24.4445 14.9043 24.7144 15.0503 24.3005 15.2124C24.3934 14.9966 24.1645 14.8646 23.5913 14.8634C23.2467 14.8625 23.3061 14.9567 23.0832 15.0232C23.0163 15.0432 22.7725 14.9785 22.7283 15.0228C22.5826 15.1676 22.8123 15.3298 22.2213 15.2652C22.1954 15.2622 22.2779 15.1829 22.1884 15.1781C21.6092 15.1466 21.5399 15.2981 20.9139 15.3165C20.4233 15.3309 19.5506 15.2385 18.9919 15.2235C19.0036 14.9809 18.4759 15.0365 18.2618 15.2037C17.8992 15.1969 17.5076 15.2063 17.1572 15.1832C17.0366 15.1753 17.1158 15.1051 17.1006 15.0975C16.8673 14.9785 16.7097 15.1412 16.6315 15.1475C15.7832 15.2096 15.0921 15.0862 14.2826 15.2068C14.2538 15.2111 14.2073 15.3796 13.9909 15.2566C13.9769 15.2481 14.2442 15.1714 13.8634 15.1655C13.4826 15.1596 12.7646 15.0692 12.2358 15.1473C12.1079 15.1661 11.7842 15.3029 11.5245 15.196C11.4898 15.1815 11.5277 15.1332 11.4778 15.1063C11.3163 15.0206 11.2281 15.1909 11.0383 15.0462C10.8485 14.9016 10.4537 14.7932 9.92045 14.893C9.90346 14.8959 9.77723 15.0309 9.60953 15.0288C9.34182 15.0253 8.9618 14.9971 8.68228 14.998C8.54846 14.9985 8.6341 15.0823 8.61087 15.0838C7.71101 15.1308 7.07055 15.0561 6.10653 15.0236C5.92982 15.0175 5.42197 15.1318 5.07986 15.0415C4.7042 14.9426 5.09023 14.5311 4.22677 14.6291C3.8785 14.6683 3.43759 15.1903 2.81173 14.9199C1.92392 14.9689 1.08494 14.908 0.222046 14.9092L0.312824 15C0.312382 14.6831 0.303568 14.3631 0.277867 14.0361C0.273627 13.9814 0.127935 13.8083 0.129918 13.6796C0.133144 13.4886 0.201238 13.3837 0.205723 13.2473C0.226234 12.6757 0.167975 12.1527 0.177037 11.6016C0.180329 11.3923 0.250738 11.4655 0.254673 11.216C0.258543 10.9666 0.165828 10.8003 0.210606 10.4623C0.244738 10.207 0.434244 9.95184 0.456333 9.61304C0.269406 9.60012 0.273256 9.36744 0.223912 8.95386C0.214338 8.87436 0.149277 8.95961 0.141393 8.922C0.10786 8.76896 0.161781 8.62732 0.125279 8.482C0.116513 8.44664 0.0526758 8.44498 0.0419055 8.41608C-0.052106 8.17033 0.0914884 7.76546 0.11649 7.69592C0.211442 7.42942 0.128415 7.30488 0.165807 7.10046C0.203193 6.89639 0.24993 7.20153 0.272618 6.96313C0.319545 6.46899 0.309235 5.83407 0.312168 5.33221C0.312945 5.13197 0.227732 5.26858 0.225865 5.23992C0.204253 4.82586 0.294894 4.40713 0.125157 4.17754C0.564034 3.89046 0.0825886 3.92785 0.170445 3.33599C0.177551 3.28937 0.385092 3.23006 0.415562 3.40905C0.446002 3.58803 0.381127 3.85945 0.428623 4.10778C0.439769 4.16659 0.634249 4.50347 0.64603 4.54943C0.7381 4.90948 0.427957 4.96049 0.410923 4.97955C0.227092 5.19556 0.436607 5.60723 0.451084 5.71563C0.517419 6.21157 0.473803 6.63293 0.521152 7.04773C0.551754 7.31902 0.754909 7.34556 0.74869 7.55859C0.728137 8.26676 0.444735 8.51395 0.690463 9.18128C0.742872 9.32437 0.964914 9.18217 0.790316 9.69489C0.779309 9.7271 0.619584 10.1078 0.720614 10.3277C0.733353 10.3553 0.798064 10.3544 0.8035 10.3909C0.838663 10.635 0.78711 10.7978 0.811801 11.0638C0.836491 11.3297 0.8733 11.6495 0.851351 11.9531C0.838227 12.1361 0.717661 12.3709 0.688144 12.4585C0.603112 12.7058 0.742528 12.971 0.63956 13.1243C0.536073 13.2788 0.378912 12.9767 0.312046 13.3819C0.48017 13.3969 0.652732 13.4314 0.82181 13.4555C0.81836 13.9731 0.79845 14.4859 0.783912 15L0.222046 14.4381C0.589968 14.4485 0.958591 14.4562 1.33022 14.4531C1.44067 14.452 1.32771 14.3616 1.44613 14.3581C1.94571 14.3438 2.38208 14.4082 2.90017 14.3825C3.30121 14.3623 3.74096 14.2666 4.1603 14.2425C4.41645 14.4349 5.03871 14.3696 5.49075 14.3872C5.6491 14.3932 5.63851 14.4446 5.75112 14.4614C6.17597 14.5234 5.97689 14.3534 6.09335 14.3266C6.59304 14.2124 6.63582 14.5972 7.22495 14.5877C7.25615 14.5874 7.63768 14.3822 7.69021 14.3695C8.0241 14.2862 7.74548 14.4409 7.95444 14.456C8.33595 14.4837 8.60106 14.5327 9.04868 14.4726C9.17919 14.4548 9.4923 14.327 9.74576 14.4259C9.77912 14.4388 9.76068 14.5066 9.78751 14.5106C10.2733 14.5768 10.2861 14.3637 10.5637 14.2916C10.8414 14.2195 11.2702 14.3665 11.3575 14.4089C11.5858 14.5185 11.1825 14.4558 11.1701 14.4665C11.0249 14.5946 11.3377 14.5725 11.5766 14.5833C11.6112 14.7922 11.9454 14.7797 11.8244 14.5937C11.8106 14.5734 11.6246 14.5929 11.5766 14.5833C11.7864 14.3784 12.1537 14.3522 12.5594 14.5437C12.7493 14.6334 12.5697 14.7381 13.1466 14.6998C13.4084 14.6825 13.3072 14.5387 13.5382 14.4995C14.0661 14.41 14.7519 14.5442 15.2961 14.523C15.4936 14.5154 15.3012 14.4366 15.4361 14.4287C15.7943 14.4073 16.1102 14.4664 16.47 14.4361C16.5025 14.4333 16.4229 14.3509 16.5348 14.3498C17.3828 14.3403 18.1213 14.393 19.0067 14.3945C19.4345 14.3952 20.1994 14.3497 20.6426 14.3589C21.4107 14.3742 22.3556 14.494 23.0118 14.4649C23.4397 14.4463 23.3459 14.3639 23.5292 14.3077C23.8831 14.1988 24.5095 14.3938 24.5938 14.424C24.5964 14.425 24.2281 14.4445 24.4246 14.4868C24.5389 14.5749 24.5897 14.4244 24.5938 14.424C24.6492 14.4435 25.3849 14.4623 25.531 14.4465C25.6103 14.4379 25.5659 14.3598 25.6073 14.3568C26.591 14.2869 27.5765 14.267 28.5742 14.3036C28.5917 14.3051 28.5653 14.3925 28.6066 14.3951C29.1842 14.4339 29.554 14.3271 30.0304 14.2636C30.5067 14.2002 30.8844 14.2215 31.1664 14.3714C31.5258 14.3525 32.0414 14.4188 32.3381 14.4591C32.6348 14.4993 32.6762 14.3293 32.7023 14.3259C33.5165 14.2183 33.9872 14.3156 34.832 14.3308C35.2336 14.3383 36.0303 14.3136 36.4651 14.295C36.8088 14.28 37.0158 14.3199 37.3325 14.2944C37.3753 14.291 37.332 14.2153 37.3451 14.2124C37.6985 14.1218 37.5287 14.3069 37.6017 14.3399C37.8662 14.4601 38.0296 14.5242 38.4822 14.4676C38.5866 14.4547 38.8907 14.1882 39.081 14.1726C39.3284 14.1528 39.235 14.2483 39.4941 14.2252C39.5162 14.2233 39.5116 14.1644 39.6715 14.167C40.4136 14.1782 41.2228 14.2125 41.994 14.2066C42.0993 14.2061 41.9643 14.1126 42.1165 14.1102C42.8307 14.0991 43.6136 14.1026 44.3094 14.1463C44.4806 14.1574 44.3733 14.2228 44.4104 14.2423C44.6387 14.3599 44.9624 14.189 45.0158 14.1858C46.2898 14.1037 47.2648 14.2583 48.5633 14.1847C48.634 14.1803 49.178 13.9972 49.4208 14.1543C49.4374 14.1647 49.6775 14.3254 49.8899 14.2155C49.9031 14.2087 49.7534 14.1259 50.0146 14.1344C50.2757 14.1428 50.696 14.0875 51.055 14.1784C51.1686 14.2071 51.4372 14.3674 51.7762 14.2396C51.7983 14.2307 52.3217 13.9417 52.5085 14.1411C52.5388 14.1739 52.5071 14.3849 52.9117 14.2767C52.989 14.2557 52.8486 14.2087 53.0523 14.1793C53.3643 14.134 53.7778 14.1905 54.1614 14.0965C54.2283 14.0799 54.513 13.9367 54.7415 14.0454C54.7772 14.0624 54.7093 14.1328 54.8299 14.1407C55.4035 14.1785 56.0042 14.1314 56.5866 14.1801C56.7929 14.1973 56.6874 14.3111 56.9025 14.3416C57.1176 14.3721 57.5508 14.4015 57.7759 14.3495C58.001 14.2974 57.7551 14.1159 58.0923 14.1014C58.1356 14.0995 58.1788 14.0978 58.222 14.0963L57.3183 15C57.2666 13.5781 57.3673 12.1684 57.3824 10.7478C57.3847 10.5307 57.3198 10.7107 57.3186 10.3908C57.3137 9.21121 57.2529 7.17469 57.3908 6.15115C57.5014 5.33106 57.5855 6.3631 57.6305 5.73642C57.6519 5.43401 57.4409 5.10684 57.4343 5.03384C57.3668 4.32069 57.4603 3.82507 57.4316 3.18319C57.4257 3.05064 57.3401 3.18064 57.336 3.06783C57.3212 2.68251 57.3594 2.27753 57.3524 1.90932C57.3491 1.74414 57.2837 1.77457 57.2888 1.62258C57.2955 1.40537 57.3081 1.20317 57.3301 1L58.222 1.89197C58.085 1.87712 57.9476 1.85794 57.8048 1.83328C57.7725 1.82771 57.9903 1.74646 57.7213 1.74344C57.2858 1.73878 56.7452 1.67839 56.2442 1.74076C56.0955 1.75951 56.0897 1.90878 55.7701 1.8057C55.7031 1.78417 55.7886 1.60493 55.4163 1.7598C55.3537 1.78553 54.7284 1.99442 54.4215 1.85977C54.3405 1.82434 54.1339 1.67767 53.9551 1.70072C53.9309 1.70439 54.028 1.78457 53.8799 1.79239C53.3578 1.81856 52.8106 1.81 52.2742 1.83512C52.131 1.84198 52.3443 1.92495 52.1309 1.93253C51.5438 1.9535 50.8109 1.93237 50.2368 1.9064C50.0252 1.89667 50.1715 1.82795 50.1561 1.82047C49.9084 1.69882 49.762 1.86302 49.6798 1.87259C49.1686 1.92992 48.7794 1.85279 48.3082 1.8732C48.1781 1.87863 48.2703 1.95692 48.2444 1.9639C47.976 2.03211 48.176 1.89151 48.006 1.87601C47.53 1.83212 46.9993 1.83842 46.5179 1.84842C46.3411 1.85221 46.5398 1.94299 46.3812 1.94534C45.4419 1.96099 44.4655 1.9523 43.5489 1.90225C43.3763 1.89267 43.4849 1.82276 43.4489 1.80679C43.201 1.69509 42.8376 1.84746 42.754 1.86197C42.3739 1.92824 42.2262 1.86642 41.8905 1.87796C40.2505 1.93541 38.2255 1.89447 36.6775 1.86917C34.6602 1.83662 33.0948 1.77012 31.1711 1.78739C31.0488 1.7884 31.1721 1.88139 31.0667 1.88345C29.706 1.90587 28.3664 1.86953 27.0029 1.89639C26.891 1.89843 27.0523 1.98659 26.8727 1.99283C26.5043 2.00624 26.0377 2.00145 25.6653 1.9733C25.4836 1.95974 25.7273 1.88409 25.5444 1.87198C25.1187 1.84362 24.6623 1.83734 24.225 1.85147C24.0389 1.85768 24.3197 1.94784 24.0778 1.94888C22.43 1.95783 20.8117 1.97336 19.1465 1.8566C19.0324 1.84858 18.9322 1.66533 18.6895 1.70047C18.6712 1.75133 18.6722 1.81115 18.6642 1.86551C16.2655 1.89479 13.8912 1.83127 11.4858 1.82144C11.3843 1.82105 11.5596 1.91815 11.3633 1.91788C10.2268 1.91644 9.12325 1.94334 7.96079 1.84683C7.84545 1.8374 7.90463 1.66658 7.56473 1.69242C7.50479 1.69713 6.99287 1.71991 6.86051 1.75699C6.84253 1.76258 6.93593 1.84231 6.77097 1.84464C5.81235 1.85674 4.80776 1.83854 3.8508 1.78983C3.69635 1.78181 3.86083 1.69691 3.75082 1.69046C2.97051 1.64539 2.12175 1.70993 1.37612 1.63285C0.877027 1.58094 1.06181 1.43417 0.796594 1.28971C0.759082 1.26932 0.450027 1.26609 0.434044 1.18204C0.393013 0.970681 0.54271 0.739242 0.481286 0.513952C0.468308 0.465427 0.0544031 0.517692 0.299462 0.400427C0.316582 0.392579 0.616665 0.35366 0.690576 0.31388C0.742035 0.286376 0.649304 0.200894 0.754296 0.165687C0.85928 0.130513 0.974644 0.202169 1.14871 0.160804C1.32269 0.118927 1.24619 0.0216813 1.59365 0.0101698ZM33.674 14.6389C33.9488 14.7205 33.9893 14.4214 33.6922 14.493C33.6778 14.4968 33.6599 14.6349 33.674 14.6389ZM0.434279 14.6861C0.793443 14.818 1.03922 14.6241 0.785842 14.5222C0.532507 14.4204 0.324852 14.6461 0.434279 14.6861ZM0.439609 11.4879C0.335595 11.9076 0.759723 11.9737 0.673984 11.5241C0.669138 11.498 0.445649 11.4633 0.439609 11.4879ZM2.02652 1.24857C2.02272 1.2446 1.80056 1.24073 1.79525 1.24466C1.67696 1.33965 2.12119 1.34733 2.02652 1.24857ZM0.334751 7.79205C0.277379 7.92309 0.343608 8.3004 0.414951 8.13757C0.472344 8.0065 0.406119 7.62886 0.334751 7.79205ZM48.0052 14.9581C48.0095 14.9626 48.1688 14.9666 48.1656 14.9414C48.1548 14.8602 47.9331 14.8831 48.0052 14.9581ZM0.329868 1.51061C0.313904 2.43866 -0.0364464 3.00135 0.0030873 1.99071C0.0102401 1.8077 0.114811 2.38516 0.146397 2.15221C0.203942 1.72597 -0.016035 1.44295 0.101842 1.00798C0.123417 0.929241 0.331558 1.45767 0.330357 1.51226C0.330194 1.51171 0.330031 1.51116 0.329868 1.51061ZM33.8322 14.9981C33.8377 15.0021 34.0582 15.0058 34.0635 15.0019C34.1829 14.907 33.7387 14.8994 33.8322 14.9981ZM57.2991 15.143C57.3113 15.1515 57.8229 15.1593 57.8396 15.1516C58.1065 14.9963 57.0721 14.9799 57.2991 15.143ZM18.9831 15.217C18.7425 15.3125 18.4547 15.3238 18.2629 15.2038C18.502 15.2102 18.7427 15.2111 18.9831 15.217Z" fill="black"/>
</svg>
