<svg width="16" height="62" viewBox="0 0 16 62" fill="none" xmlns="http://www.w3.org/2000/svg">
<path d="M1 61.3713L1 0.371277H15L15 61.3713H1Z" fill="#C02B53"/>
<path d="M0.0101698 59.9425C-0.015883 59.102 0.0119737 58.0001 0.0502087 57.1627C0.0620673 56.9003 0.115075 57.0332 0.125648 56.852C0.146258 56.4977 0.120261 56.1676 0.144813 55.8175C0.153209 55.7014 0.237174 55.8459 0.244056 55.7242C0.281163 55.0575 0.259777 54.4267 0.277625 53.7513C0.365685 50.4243 0.397205 47.154 0.435461 43.7863C0.448004 42.6759 0.524206 41.326 0.490881 40.1791C0.486916 40.0452 0.413216 40.125 0.407141 40.0996C0.31415 39.7 0.462935 39.8329 0.482702 39.572C0.560754 38.5366 0.567542 37.3852 0.539099 36.3888C0.526782 35.9649 0.380395 36.3899 0.462561 35.9631C0.468112 35.9334 0.546377 36.041 0.554724 35.9248C0.573498 35.6611 0.559509 35.1609 0.56571 34.9566C0.578057 34.5628 0.577269 34.4976 0.578161 34.1252C0.580061 33.616 0.618966 33.0104 0.601232 32.4641C0.597215 32.3474 0.516985 32.5018 0.503332 32.3159C0.489702 32.1297 0.496505 31.6373 0.515417 31.4713C0.534339 31.3052 0.597399 31.3759 0.611852 31.3465C0.733849 31.1048 0.564884 30.5352 0.560705 30.4619C0.489506 29.1256 0.58576 27.9797 0.585485 26.7254C0.585073 25.7732 0.553296 24.755 0.557653 23.8489C0.563155 22.7695 0.606631 21.8546 0.599157 20.8059C0.598461 20.6953 0.504129 20.8249 0.503088 20.6898C0.492111 19.2537 0.502394 17.8276 0.566076 16.3977C0.572546 16.2543 0.655368 16.4391 0.666784 16.2958C0.734849 15.4186 0.898357 14.0307 0.537756 13.5097C0.551837 12.9156 0.566385 12.1942 0.639074 11.6627C0.685858 11.3199 0.776084 11.6528 0.737585 11.2318C0.729007 11.1368 0.649991 11.2603 0.643102 11.1179C0.614176 10.5184 0.639861 9.86337 0.599035 9.27027C0.590545 9.14963 0.519744 9.18257 0.506994 9.14839C0.403741 8.86111 0.574425 8.3829 0.586828 8.27863C0.679315 7.48477 0.642919 6.90503 0.645178 6.16548C0.645741 5.99386 0.550639 6.19672 0.547766 6.03158C0.534136 5.17509 0.54231 4.28786 0.584509 3.44922C0.594124 3.26267 0.675134 3.43422 0.683874 3.34508C0.721424 2.95201 0.568417 2.86489 0.601477 2.48791C0.60825 2.40843 0.6776 2.45322 0.685217 2.4387C0.804778 2.21183 0.635368 2.01469 0.631628 1.95633C0.589022 1.34091 0.704857 0.910603 0.730054 0.371277L0.726503 0.104977L1 0.10133C1.10759 0.106358 1.21952 0.107777 1.33813 0.103611C1.42344 0.100437 1.23106 0.0126877 1.47088 0.00912857C3.06857 -0.0150948 4.75832 0.00901031 6.33978 0.0791969C6.58566 0.0899925 6.41014 0.15591 6.42561 0.164036C6.67779 0.291004 6.84097 0.120884 6.92114 0.114475C7.55364 0.0683594 8.14449 0.211025 8.57424 0.00839615C10.7237 0.0648232 12.8651 0.00270844 15 0.0697441L15.2975 0.0657768L15.3015 0.371277C15.285 0.896996 15.2607 1.42231 15.2248 1.94725C15.2227 1.98103 15.1389 1.9205 15.1351 1.98787C15.0881 2.79929 15.2183 2.64346 15.3775 3.18035C15.4175 3.3156 15.2252 3.72702 15.2111 3.76343C15.1592 3.89606 15.0346 3.75849 15.0245 3.80291C14.9455 4.17041 15.3577 4.11052 15.3579 4.60629C15.3572 4.6218 15.2813 4.55667 15.2738 4.59828C15.2501 4.72754 15.2802 4.85573 15.2541 4.98223C15.1937 5.27175 14.9934 5.37487 15.11 5.81707C15.1251 5.87304 15.3589 5.78757 15.3479 6.23021C15.3433 6.40666 15.3473 7.18775 15.3321 7.40666C15.317 7.62531 15.2416 7.47519 15.2384 7.49078C15.1387 8.0799 15.0974 7.85651 14.9499 8.15168C14.803 8.4468 15.1535 8.36496 15.1926 8.48527C15.2316 8.60579 15.1494 9.03773 15.1208 9.14388C15.0922 9.24996 15.0443 9.11765 15.0282 9.21197C14.9225 9.83747 15.2021 9.48652 15.2578 9.69263C15.3895 10.1785 15.1296 10.557 15.1041 11.0018C15.0972 11.1222 15.1564 11.024 15.162 11.1311C15.1831 11.5556 15.102 11.8109 15.1764 12.2939C15.1885 12.3729 15.3448 12.7633 15.2301 13.016C15.2135 13.0518 15.1488 12.9501 15.1342 13.131C15.1125 13.4012 15.0983 13.8882 15.12 14.1787C15.136 14.3932 15.2427 14.1474 15.2096 14.4173C15.1948 14.5373 15.1323 14.3149 15.1097 14.5404C15.0871 14.7646 15.0899 15.3379 15.092 15.556C15.0942 15.7738 15.1752 15.6546 15.1806 15.6722C15.2119 15.7787 15.2509 16.1966 15.2508 16.2335C15.2607 18.0963 15.1242 19.814 15.1694 21.6277C15.1728 21.77 15.2582 21.6752 15.2596 21.6969C15.2954 22.1842 15.0684 21.8 14.9924 22.1404C15.1657 22.0912 15.1343 22.2921 15.1533 22.6353C15.1626 22.8007 15.2297 22.7107 15.2365 22.7258C15.3384 22.971 15.2068 23.1418 15.1799 23.1858C15.0809 23.3482 15.1979 23.525 15.1317 23.6356C15.066 23.746 14.9686 23.4918 14.9698 23.821C15.0318 23.9133 15.1939 23.6689 15.2202 23.9188C15.3195 24.8617 15.1924 26.6219 15.1792 27.3801C15.166 28.1367 15.1774 28.3811 15.155 28.822C15.1145 29.6185 15.2347 29.3266 15.2898 29.8211C15.3448 30.3171 15.0489 30.076 14.9853 30.1473C14.9217 30.2172 14.9872 30.2937 14.9522 30.3807C14.9173 30.4675 14.874 30.2796 14.8609 30.4837C14.8478 30.6879 14.9609 31.2462 15.0274 31.3186C15.1683 31.4716 15.3162 31.22 15.2642 31.7603C15.2612 31.7914 15.1834 31.6905 15.1755 31.8095C15.1156 32.7546 15.1119 33.7364 15.0589 34.6803C15.0515 34.8101 14.965 34.694 14.9597 34.7695C14.9043 35.5563 15.0503 35.2751 15.2124 35.7062C14.9966 35.6094 14.8646 35.8479 14.8634 36.445C14.8625 36.8039 14.9567 36.7421 15.0232 36.9743C15.0432 37.0439 14.9785 37.2979 15.0228 37.3439C15.1676 37.4956 15.3298 37.2564 15.2652 37.872C15.2622 37.899 15.1829 37.8131 15.1781 37.9064C15.1466 38.5096 15.2981 38.5818 15.3165 39.2339C15.3309 39.745 15.2385 40.654 15.2235 41.236C14.9809 41.2238 15.0365 41.7735 15.2037 41.9965C15.1969 42.3742 15.2063 42.7821 15.1832 43.1472C15.1753 43.2728 15.1051 43.1903 15.0975 43.2061C14.9785 43.4491 15.1412 43.6133 15.1475 43.6948C15.2096 44.5784 15.0862 45.2983 15.2068 46.1416C15.2111 46.1715 15.3796 46.22 15.2566 46.4454C15.2481 46.46 15.1714 46.1815 15.1655 46.5782C15.1596 46.9749 15.0692 47.7228 15.1473 48.2736C15.1661 48.4069 15.3029 48.744 15.196 49.0146C15.1815 49.0507 15.1332 49.0112 15.1063 49.0632C15.0206 49.2315 15.1909 49.3233 15.0462 49.521C14.9016 49.7187 14.7932 50.13 14.893 50.6854C14.8959 50.7031 15.0309 50.8346 15.0288 51.0093C15.0253 51.2882 14.9971 51.684 14.998 51.9752C14.9985 52.1146 15.0823 52.0254 15.0838 52.0496C15.1308 52.9869 15.0561 53.6541 15.0236 54.6583C15.0175 54.8423 15.1318 55.3714 15.0415 55.7277C14.9426 56.119 14.5311 55.7169 14.6291 56.6164C14.6683 56.9791 15.1903 57.4384 14.9199 58.0904C14.9794 59.2138 14.8768 60.2621 14.9203 61.3713L15 61.2916C14.8608 61.297 14.7207 61.3048 14.5793 61.3155C14.5223 61.3197 14.342 61.4654 14.208 61.4634C14.009 61.4602 13.8997 61.3921 13.7576 61.3876C13.1622 61.3671 12.6174 61.4253 12.0433 61.4163C11.8254 61.413 11.9016 61.3426 11.6416 61.3386C11.3818 61.3348 11.2086 61.4275 10.8565 61.3827C10.5907 61.3486 10.3248 61.1591 9.97192 61.137C9.95846 61.3239 9.71608 61.3201 9.28527 61.3694C9.20246 61.379 9.29126 61.444 9.25208 61.4519C9.09266 61.4855 8.94512 61.4315 8.79375 61.468C8.75692 61.4768 8.75519 61.5406 8.72508 61.5514C8.46909 61.6454 8.04736 61.5018 7.97492 61.4768C7.69731 61.3819 7.56758 61.4649 7.35465 61.4275C7.14207 61.3901 7.45993 61.3434 7.2116 61.3207C6.69686 61.2738 6.03549 61.2841 5.51272 61.2812C5.30413 61.2804 5.44644 61.3656 5.41659 61.3675C4.98527 61.3891 4.5491 61.2984 4.30994 61.4682C4.01089 61.0293 4.04985 61.5107 3.43332 61.4229C3.38476 61.4158 3.32298 61.2082 3.50943 61.1778C3.69587 61.1473 3.97859 61.2122 4.23727 61.1647C4.29853 61.1536 4.64945 60.9591 4.69733 60.9473C5.07237 60.8552 5.12552 61.1654 5.14536 61.1824C5.37037 61.3662 5.7992 61.1567 5.91212 61.1422C6.42872 61.0759 6.86763 61.1195 7.29972 61.0722C7.58231 61.0416 7.60996 60.8384 7.83187 60.8446C8.56954 60.8652 8.82703 61.1486 9.52216 60.9029C9.67122 60.8505 9.52309 60.6284 10.0572 60.803C10.0907 60.814 10.4873 60.9737 10.7164 60.8727C10.7451 60.86 10.7442 60.7953 10.7822 60.7898C11.0365 60.7547 11.2061 60.8062 11.4831 60.7815C11.7601 60.7568 12.0932 60.72 12.4095 60.742C12.6001 60.7551 12.8447 60.8757 12.9359 60.9052C13.1936 60.9902 13.4698 60.8508 13.6295 60.9538C13.7904 61.0572 13.4757 61.2144 13.8978 61.2813C13.9135 61.1132 13.9494 60.9406 13.9745 60.7715C14.3178 60.7737 14.6591 60.7826 15 60.7925L14.4212 61.3713C14.438 60.7937 14.4578 60.2172 14.4531 59.6336C14.452 59.5185 14.3616 59.6362 14.3581 59.5129C14.3438 58.9925 14.4082 58.5379 14.3825 57.9982C14.3623 57.5805 14.2666 57.1224 14.2425 56.6856C14.4349 56.4188 14.3696 55.7706 14.3872 55.2997C14.3932 55.1348 14.4446 55.1458 14.4614 55.0285C14.5234 54.586 14.3534 54.7933 14.3266 54.672C14.2124 54.1515 14.5972 54.1069 14.5877 53.4933C14.5874 53.4607 14.3822 53.0633 14.3695 53.0086C14.2862 52.6608 14.4409 52.951 14.456 52.7334C14.4837 52.336 14.5327 52.0598 14.4726 51.5935C14.4548 51.4576 14.327 51.1314 14.4259 50.8674C14.4388 50.8327 14.5066 50.8519 14.5106 50.8239C14.5768 50.3179 14.3637 50.3046 14.2916 50.0154C14.2195 49.7262 14.3665 49.2795 14.4089 49.1886C14.5185 48.9507 14.4558 49.3708 14.4665 49.3837C14.5946 49.535 14.5725 49.2092 14.5833 48.9602C14.7922 48.9242 14.7797 48.5761 14.5937 48.7022C14.5734 48.7165 14.5929 48.9103 14.5833 48.9602C14.3784 48.7417 14.3522 48.3591 14.5437 47.9366C14.6334 47.7388 14.7381 47.9258 14.6998 47.3249C14.6825 47.0522 14.5387 47.1576 14.4995 46.9169C14.41 46.3671 14.5442 45.6527 14.523 45.0858C14.5154 44.8801 14.4366 45.0805 14.4287 44.9399C14.4073 44.5668 14.4664 44.2378 14.4361 43.863C14.4333 43.8291 14.3509 43.912 14.3498 43.7955C14.3403 42.9121 14.393 42.1429 14.3945 41.2206C14.3952 40.7749 14.3497 39.9782 14.3589 39.5166C14.3742 38.7164 14.494 37.7321 14.4649 37.0486C14.4463 36.6028 14.3639 36.7006 14.3077 36.5096C14.1988 36.141 14.3938 35.4885 14.424 35.4007C14.425 35.398 14.4445 35.7816 14.4868 35.5769C14.5749 35.4579 14.4244 35.405 14.424 35.4007C14.4435 35.343 14.4623 34.5767 14.4465 34.4245C14.4379 34.3418 14.3598 34.3881 14.3568 34.345C14.2869 33.3203 14.267 32.2938 14.3036 31.2545C14.3051 31.2362 14.3925 31.2638 14.3951 31.2207C14.4339 30.619 14.3271 30.2338 14.2636 29.7376C14.2002 29.2414 14.2215 28.8479 14.3714 28.5542C14.3525 28.1799 14.4188 27.6428 14.4591 27.3337C14.4993 27.0247 14.3293 26.9815 14.3259 26.9544C14.2183 26.1062 14.3156 25.6159 14.3308 24.7359C14.3383 24.3176 14.3136 23.4877 14.295 23.0347C14.28 22.6768 14.3199 22.4611 14.2944 22.1312C14.291 22.0866 14.2153 22.1317 14.2124 22.1181C14.1218 21.7499 14.3069 21.9269 14.3399 21.8509C14.4601 21.5753 14.5242 21.405 14.4676 20.9336C14.4547 20.8249 14.1882 20.5081 14.1726 20.3099C14.1528 20.0522 14.2483 20.1494 14.2252 19.8796C14.2233 19.8565 14.1644 19.8613 14.167 19.6948C14.1782 18.9217 14.2125 18.0789 14.2066 17.2755C14.2061 17.1658 14.1126 17.3064 14.1102 17.1479C14.0991 16.4039 14.1026 15.5885 14.1463 14.8636C14.1574 14.6852 14.2228 14.7971 14.2423 14.7584C14.3599 14.5206 14.189 14.1834 14.1858 14.1278C14.1037 12.8007 14.2583 11.7851 14.1847 10.4325C14.1803 10.3589 13.9972 9.79211 14.1543 9.53927C14.1647 9.52197 14.3254 9.2718 14.2155 9.05061C14.2087 9.03687 14.1259 9.19275 14.1344 8.92072C14.1428 8.64869 14.0875 8.21089 14.1784 7.83696C14.2071 7.71858 14.3674 7.43878 14.2396 7.08566C14.2307 7.06264 13.9417 6.51749 14.1411 6.32291C14.1739 6.29136 14.3849 6.32438 14.2767 5.9029C14.2557 5.82238 14.2087 5.96857 14.1793 5.75642C14.134 5.43138 14.1905 5.00071 14.0965 4.60114C14.0799 4.53145 13.9367 4.23483 14.0454 3.99689C14.0624 3.95963 14.1328 4.03043 14.1407 3.90476C14.1785 3.30723 14.1314 2.68155 14.1801 2.07485C14.1973 1.85996 14.3111 1.96982 14.3416 1.74583C14.3721 1.52178 14.4015 1.07044 14.3495 0.836025C14.2974 0.601555 14.1159 0.857689 14.1014 0.506435C14.0995 0.461369 14.0978 0.416317 14.0963 0.371277L15 1.27502C13.5188 1.32673 12.0504 1.22602 10.5707 1.21091C10.3445 1.20858 10.532 1.27352 10.1987 1.27475C8.97001 1.27958 6.84864 1.34047 5.78245 1.20248C4.92818 1.09197 6.00323 1.00784 5.35043 0.962864C5.03543 0.94141 4.69463 1.15239 4.61858 1.15903C3.87572 1.2265 3.35944 1.13304 2.69082 1.16171C2.55275 1.16766 2.68817 1.25318 2.57066 1.25729C2.16928 1.27213 1.74742 1.23396 1.36388 1.24094C1.19181 1.24427 1.22351 1.30958 1.06519 1.30453C1.04332 1.30388 1.02159 1.30318 1 1.30241L1.93114 0.371277C1.91867 0.723732 1.89096 1.04128 1.83328 1.38928C1.82771 1.42294 1.74646 1.19596 1.74344 1.47625C1.73878 1.92989 1.67839 2.49299 1.74076 3.01492C1.75951 3.16977 1.90878 3.17585 1.8057 3.50873C1.78417 3.57855 1.60493 3.48947 1.7598 3.87723C1.78553 3.94244 1.99442 4.59382 1.85977 4.91349C1.82434 4.99781 1.67767 5.21307 1.70072 5.3993C1.70439 5.42454 1.78457 5.32338 1.79239 5.47769C1.81856 6.02154 1.81 6.59152 1.83512 7.15025C1.84198 7.29945 1.92495 7.07722 1.93253 7.29959C1.9535 7.9111 1.93237 8.67458 1.9064 9.27256C1.89667 9.49302 1.82795 9.34063 1.82047 9.35667C1.69882 9.61463 1.86302 9.76716 1.87259 9.85277C1.92992 10.3853 1.85279 10.7908 1.8732 11.2816C1.87863 11.417 1.95692 11.321 1.9639 11.3479C2.03211 11.6276 1.89151 11.4193 1.87601 11.5963C1.83212 12.0922 1.83842 12.6449 1.84842 13.1464C1.85221 13.3306 1.94299 13.1236 1.94534 13.2889C1.96099 14.2672 1.9523 15.2843 1.90225 16.2392C1.89267 16.4189 1.82276 16.3058 1.80679 16.3433C1.69509 16.6015 1.84746 16.98 1.86197 17.0671C1.92824 17.4631 1.86642 17.617 1.87796 17.9666C1.93541 19.675 1.89447 21.7843 1.86917 23.3969C1.83662 25.4982 1.77012 27.1288 1.78739 29.1327C1.7884 29.26 1.88139 29.1316 1.88345 29.2414C1.90587 30.6588 1.86953 32.0543 1.89639 33.4746C1.89843 33.5911 1.98659 33.4231 1.99283 33.6102C2.00624 33.9939 2.00145 34.4799 1.9733 34.8679C1.95974 35.0571 1.88409 34.8033 1.87198 34.9938C1.84362 35.4373 1.83734 35.9127 1.85147 36.3682C1.85768 36.5621 1.94784 36.2696 1.94888 36.5216C1.95783 38.238 1.97336 39.9237 1.8566 41.6583C1.84858 41.7772 1.66533 41.8815 1.70047 42.1343C1.75133 42.1534 1.81115 42.1523 1.86551 42.1607C1.89479 44.6593 1.83127 47.1325 1.82144 49.6382C1.82105 49.7439 1.91815 49.5613 1.91788 49.7658C1.91644 50.9496 1.94334 52.0992 1.84683 53.3101C1.8374 53.4302 1.66658 53.3686 1.69242 53.7226C1.69713 53.7851 1.71991 54.3183 1.75699 54.4562C1.76258 54.4749 1.84231 54.3776 1.84464 54.5495C1.85674 55.548 1.83854 56.5945 1.78983 57.5913C1.78181 57.7522 1.69691 57.5809 1.69046 57.6955C1.64539 58.5083 1.70993 59.3924 1.63285 60.1691C1.58094 60.689 1.43417 60.4965 1.28971 60.7728C1.26932 60.8119 1.26609 61.1338 1.18204 61.1504C0.970681 61.1932 0.739242 61.0373 0.513952 61.1012C0.465427 61.1148 0.517692 61.5459 0.400427 61.2906C0.392579 61.2728 0.35366 60.9602 0.31388 60.8832C0.286376 60.8296 0.200894 60.9262 0.165687 60.8168C0.130513 60.7075 0.202169 60.5873 0.160804 60.406C0.118927 60.2248 0.0216813 60.3045 0.0101698 59.9425ZM14.6389 25.9421C14.7205 25.656 14.4214 25.6137 14.493 25.9232C14.4968 25.9382 14.6349 25.9569 14.6389 25.9421ZM14.6861 60.5669C14.818 60.1927 14.6241 59.9367 14.5222 60.2007C14.4204 60.4646 14.6461 60.6808 14.6861 60.5669ZM11.9249 61.1537C12.3621 61.2577 12.4309 60.8336 11.9626 60.9193C11.9354 60.9242 11.8993 61.1477 11.9249 61.1537ZM1.24857 59.4916C1.2446 59.4956 1.24073 59.727 1.24466 59.7325C1.33965 59.8557 1.34733 59.393 1.24857 59.4916ZM8.07506 61.2586C8.21155 61.3159 8.60458 61.2497 8.43497 61.1784C8.29844 61.121 7.90506 61.1872 8.07506 61.2586ZM14.9581 11.0138C14.9626 11.0093 14.9666 10.8434 14.9414 10.8468C14.8602 10.858 14.8831 11.0889 14.9581 11.0138ZM1.53188 61.2635C2.49861 61.2794 3.08474 61.6298 2.03199 61.5902C1.84135 61.5831 2.44287 61.4785 2.20022 61.4469C1.75622 61.3894 1.4614 61.6094 1.00832 61.4915C0.926293 61.4699 1.47674 61.2618 1.5336 61.263C1.53303 61.2631 1.53246 61.2633 1.53188 61.2635ZM14.9981 25.7773C15.0021 25.7716 15.0058 25.5419 15.0019 25.5364C14.907 25.4121 14.8994 25.8747 14.9981 25.7773ZM15.143 1.3327C15.1515 1.32002 15.1593 0.787029 15.1516 0.76965C14.9963 0.4916 14.9799 1.56917 15.143 1.3327ZM15.217 41.2452C15.3125 41.4958 15.3238 41.7956 15.2038 41.9954C15.2102 41.7463 15.2111 41.4956 15.217 41.2452Z" fill="black"/>
</svg>
