<svg width="250" height="16" viewBox="0 0 250 16" fill="none" xmlns="http://www.w3.org/2000/svg">
<path d="M0.222046 1H249.222V15H0.222046V1Z" fill="#C02B53"/>
<path d="M5.23222 0.0101698C8.17978 -0.015883 12.0436 0.0119737 14.98 0.0502087C15.9002 0.0620673 15.4342 0.115075 16.0695 0.125648C17.312 0.146258 18.4695 0.120261 19.6973 0.144813C20.1042 0.153209 19.5977 0.237174 20.0244 0.244056C22.3625 0.281163 24.5744 0.259777 26.9429 0.277625C38.6095 0.365685 50.0774 0.397205 61.8867 0.435461C65.7806 0.448004 70.514 0.524206 74.5359 0.490881C75.0054 0.486916 74.7255 0.413216 74.8148 0.407141C76.2159 0.31415 75.7501 0.462935 76.6649 0.482702C80.2956 0.560754 84.3331 0.567542 87.8272 0.539099C89.3138 0.526782 87.8233 0.380395 89.3201 0.462561C89.424 0.468112 89.0468 0.546377 89.4545 0.554724C90.379 0.573498 92.133 0.559509 92.8496 0.56571C94.2305 0.578057 94.4589 0.577269 95.7651 0.578161C97.5506 0.580061 99.6743 0.618966 101.59 0.601232C101.999 0.597215 101.458 0.516985 102.11 0.503332C102.762 0.489702 104.489 0.496505 105.071 0.515417C105.654 0.534339 105.406 0.597399 105.509 0.611852C106.357 0.733849 108.354 0.564884 108.611 0.560705C113.297 0.489506 117.315 0.58576 121.714 0.585485C125.053 0.585073 128.623 0.553296 131.8 0.557653C135.586 0.563155 138.794 0.606631 142.471 0.599157C142.859 0.598461 142.404 0.504129 142.879 0.503088C147.914 0.492111 152.915 0.502394 157.93 0.566076C158.432 0.572546 157.784 0.655368 158.287 0.666784C161.363 0.734849 166.23 0.898357 168.057 0.537756C170.14 0.551837 172.67 0.566385 174.534 0.639074C175.735 0.685858 174.568 0.776084 176.045 0.737585C176.377 0.729007 175.944 0.649991 176.444 0.643102C178.546 0.614176 180.843 0.639861 182.923 0.599035C183.346 0.590545 183.23 0.519744 183.35 0.506994C184.358 0.403741 186.035 0.574425 186.4 0.586828C189.184 0.679315 191.217 0.642919 193.81 0.645178C194.412 0.645741 193.701 0.550639 194.28 0.547766C197.283 0.534136 200.395 0.54231 203.335 0.584509C203.99 0.594124 203.388 0.675134 203.701 0.683874C205.079 0.721424 205.384 0.568417 206.706 0.601477C206.985 0.60825 206.828 0.6776 206.879 0.685217C207.674 0.804778 208.366 0.635368 208.57 0.631628C211.159 0.580523 212.814 0.757378 215.314 0.732336C215.614 0.729161 214.939 0.641412 215.78 0.637853C221.383 0.61363 227.308 0.637735 232.854 0.707922C233.716 0.718716 233.1 0.784634 233.155 0.79276C234.039 0.919728 234.611 0.749606 234.892 0.7432C237.11 0.697082 239.182 0.839748 240.689 0.637121C243.537 0.658443 246.382 0.662838 249.222 0.663671L249.557 0.662397L249.558 1C249.557 5.6764 249.565 10.3427 249.524 15L249.525 15.3004L249.222 15.3015C247.379 15.285 245.536 15.2607 243.696 15.2248C243.577 15.2227 243.789 15.1389 243.553 15.1351C240.708 15.0881 241.254 15.2183 239.372 15.3775C238.897 15.4175 237.455 15.2252 237.327 15.2111C236.862 15.1592 237.344 15.0346 237.188 15.0245C235.9 14.9455 236.11 15.3577 234.371 15.3579C234.317 15.3572 234.545 15.2813 234.399 15.2738C233.946 15.2501 233.497 15.2802 233.053 15.2541C232.038 15.1937 231.676 14.9934 230.125 15.11C229.929 15.1251 230.229 15.3589 228.677 15.3479C228.058 15.3433 225.319 15.3473 224.551 15.3321C223.785 15.317 224.311 15.2416 224.256 15.2384C222.19 15.1387 222.974 15.0974 221.939 14.9499C220.904 14.803 221.191 15.1535 220.769 15.1926C220.346 15.2316 218.832 15.1494 218.459 15.1208C218.087 15.0922 218.551 15.0443 218.221 15.0282C216.027 14.9225 217.258 15.2021 216.535 15.2578C214.831 15.3895 213.504 15.1296 211.944 15.1041C211.522 15.0972 211.867 15.1564 211.491 15.162C210.002 15.1831 209.107 15.102 207.413 15.1764C207.136 15.1885 205.767 15.3448 204.881 15.2301C204.756 15.2135 205.112 15.1488 204.478 15.1342C203.53 15.1125 201.823 15.0983 200.804 15.12C200.052 15.136 200.914 15.2427 199.967 15.2096C199.547 15.1948 200.326 15.1323 199.536 15.1097C198.75 15.0871 196.739 15.0899 195.974 15.092C195.211 15.0942 195.629 15.1752 195.567 15.1806C195.193 15.2119 193.728 15.2509 193.598 15.2508C187.066 15.2607 181.043 15.1242 174.683 15.1694C174.184 15.1728 174.516 15.2582 174.44 15.2596C172.731 15.2954 174.079 15.0684 172.885 14.9924C173.058 15.1657 172.353 15.1343 171.149 15.1533C170.569 15.1626 170.885 15.2297 170.832 15.2365C169.972 15.3384 169.373 15.2068 169.219 15.1799C168.649 15.0809 168.03 15.1979 167.642 15.1317C167.255 15.066 168.146 14.9686 166.992 14.9698C166.668 15.0318 167.525 15.1939 166.649 15.2202C163.342 15.3195 157.17 15.1924 154.511 15.1792C151.858 15.166 151.001 15.1774 149.455 15.155C146.662 15.1145 147.685 15.2347 145.951 15.2898C144.212 15.3448 145.058 15.0489 144.808 14.9853C144.562 14.9217 144.294 14.9872 143.989 14.9522C143.685 14.9173 144.343 14.874 143.628 14.8609C142.912 14.8478 140.954 14.9609 140.7 15.0274C140.164 15.1683 141.046 15.3162 139.151 15.2642C139.042 15.2612 139.396 15.1834 138.979 15.1755C135.665 15.1156 132.222 15.1119 128.912 15.0589C128.457 15.0515 128.864 14.965 128.599 14.9597C125.84 14.9043 126.826 15.0503 125.314 15.2124C125.654 14.9966 124.817 14.8646 122.724 14.8634C121.465 14.8625 121.682 14.9567 120.868 15.0232C120.623 15.0432 119.733 14.9785 119.571 15.0228C119.039 15.1676 119.878 15.3298 117.719 15.2652C117.625 15.2622 117.926 15.1829 117.599 15.1781C115.484 15.1466 115.23 15.2981 112.944 15.3165C111.151 15.3309 107.964 15.2385 105.923 15.2235C105.966 14.9809 104.038 15.0365 103.256 15.2037C101.932 15.1969 100.501 15.2063 99.2211 15.1832C98.7805 15.1753 99.07 15.1051 99.0145 15.0975C98.1625 14.9785 97.5867 15.1412 97.3009 15.1475C94.2024 15.2096 91.678 15.0862 88.7209 15.2068C88.616 15.2111 88.4459 15.3796 87.6554 15.2566C87.6043 15.2481 88.5809 15.1714 87.1899 15.1655C85.7987 15.1596 83.176 15.0692 81.2446 15.1473C80.7772 15.1661 79.5949 15.3029 78.6461 15.196C78.5197 15.1815 78.6581 15.1332 78.4756 15.1063C77.8857 15.0206 77.5636 15.1909 76.8703 15.0462C76.177 14.9016 74.7349 14.7932 72.787 14.893C72.725 14.8959 72.2639 15.0309 71.6513 15.0288C70.6734 15.0253 69.2853 14.9971 68.2643 14.998C67.7754 14.9985 68.0883 15.0823 68.0034 15.0838C64.7164 15.1308 62.377 15.0561 58.8557 15.0236C58.2102 15.0175 56.3551 15.1318 55.1055 15.0415C53.7333 14.9426 55.1433 14.5311 51.9893 14.6291C50.7171 14.6683 49.1066 15.1903 46.8205 14.9199C42.3867 14.9869 38.2863 14.8485 33.8402 14.9442C33.6403 14.9484 33.008 15.0941 32.5379 15.0921C31.8401 15.0889 31.4571 15.0208 30.9588 15.0163C28.8709 14.9958 26.9603 15.0541 24.9472 15.045C24.183 15.0417 24.4502 14.9713 23.5386 14.9674C22.6276 14.9635 22.0202 15.0562 20.7857 15.0114C19.8533 14.9773 18.9211 14.7878 17.6836 14.7657C17.6363 14.9526 16.7865 14.9488 15.2757 14.9981C14.9853 15.0077 15.2967 15.0728 15.1593 15.0807C14.6003 15.1142 14.0829 15.0603 13.5521 15.0968C13.423 15.1055 13.4169 15.1694 13.3113 15.1801C12.4137 15.2742 10.9348 15.1306 10.6808 15.1056C9.70727 15.0106 9.25237 15.0936 8.50568 15.0562C7.76023 15.0189 8.87485 14.9721 8.00404 14.9494C6.19902 14.9025 3.87985 14.9128 2.04665 14.9099C1.3152 14.9091 1.8142 14.9943 1.70956 14.9962C1.20692 15.0034 0.702434 14.9981 0.222046 14.9942C0.235741 14.0348 0.238489 13.1668 0.125157 12.6069C0.564034 11.5582 0.0825886 11.6948 0.170445 9.53285C0.177551 9.36255 0.385092 9.1459 0.415562 9.79972C0.446002 10.4535 0.381127 11.4449 0.428623 12.352C0.439769 12.5669 0.634249 13.7974 0.64603 13.9653C0.679467 14.4429 0.659855 14.7717 0.6205 15L0.222046 14.6015C0.622455 14.6706 0.714133 14.8003 0.758449 14.8111C1.5475 14.995 3.05124 14.7854 3.44721 14.771C5.25873 14.7046 6.79791 14.7482 8.31305 14.7009C9.30406 14.6703 9.40093 14.4671 10.1791 14.4734C12.7659 14.4939 13.6689 14.7773 16.1064 14.5316C16.6291 14.4792 16.1097 14.2571 17.9826 14.4317C18.1002 14.4427 19.4907 14.6025 20.2941 14.5014C20.395 14.4887 20.3918 14.424 20.5248 14.4185C21.4166 14.3834 22.0113 14.4349 22.9828 14.4102C23.9542 14.3856 25.1223 14.3487 26.2314 14.3707C26.8998 14.3838 27.7574 14.5044 28.0774 14.5339C28.9809 14.6189 29.9496 14.4795 30.5093 14.5825C31.0738 14.686 29.9703 14.8431 31.4504 14.91C31.5052 14.7419 31.6311 14.5693 31.7193 14.4002C34.9629 14.4062 38.1544 14.4605 41.4088 14.4531C41.8123 14.452 41.3997 14.3616 41.8322 14.3581C43.6571 14.3438 45.2511 14.4082 47.1435 14.3825C48.6084 14.3623 50.2147 14.2666 51.7465 14.2425C52.6821 14.4349 54.9551 14.3696 56.6063 14.3872C57.1847 14.3932 57.1461 14.4446 57.5574 14.4614C59.1093 14.5234 58.3821 14.3534 58.8075 14.3266C60.6328 14.2124 60.789 14.5972 62.941 14.5877C63.055 14.5874 64.4485 14.3822 64.6405 14.3695C65.8601 14.2862 64.8424 14.4409 65.6056 14.456C66.9992 14.4837 67.9676 14.5327 69.6027 14.4726C70.0794 14.4548 71.2231 14.327 72.149 14.4259C72.2708 14.4388 72.2034 14.5066 72.3014 14.5106C74.076 14.5768 74.1226 14.3637 75.1367 14.2916C76.1509 14.2195 77.7173 14.3665 78.0361 14.4089C78.8701 14.5185 77.3971 14.4558 77.3519 14.4665C76.8213 14.5946 77.9638 14.5725 78.8367 14.5833C78.9631 14.7922 80.1839 14.7797 79.7417 14.5937C79.6913 14.5734 79.0121 14.5929 78.8367 14.5833C79.603 14.3784 80.9446 14.3522 82.4264 14.5437C83.1201 14.6334 82.4643 14.7381 84.5714 14.6998C85.5277 14.6825 85.1581 14.5387 86.0021 14.4995C87.93 14.41 90.4353 14.5442 92.423 14.523C93.1444 14.5154 92.4416 14.4366 92.9347 14.4287C94.243 14.4073 95.3969 14.4664 96.711 14.4361C96.83 14.4333 96.5391 14.3509 96.9477 14.3498C100.045 14.3403 102.743 14.393 105.977 14.3945C107.54 14.3952 110.334 14.3497 111.953 14.3589C114.758 14.3742 118.21 14.494 120.607 14.4649C122.17 14.4463 121.827 14.3639 122.497 14.3077C123.789 14.1988 126.078 14.3938 126.386 14.424C126.395 14.425 125.05 14.4445 125.768 14.4868C126.185 14.5749 126.37 14.4244 126.386 14.424C126.588 14.4435 129.275 14.4623 129.809 14.4465C130.099 14.4379 129.936 14.3598 130.088 14.3568C133.681 14.2869 137.281 14.267 140.925 14.3036C140.989 14.3051 140.892 14.3925 141.043 14.3951C143.153 14.4339 144.504 14.3271 146.244 14.2636C147.984 14.2002 149.364 14.2215 150.394 14.3714C151.707 14.3525 153.59 14.4188 154.674 14.4591C155.757 14.4993 155.909 14.3293 156.004 14.3259C158.978 14.2183 160.698 14.3156 163.783 14.3308C165.25 14.3383 168.16 14.3136 169.749 14.295C171.004 14.28 171.76 14.3199 172.917 14.2944C173.074 14.291 172.916 14.2153 172.963 14.2124C174.254 14.1218 173.634 14.3069 173.9 14.3399C174.867 14.4601 175.464 14.5242 177.117 14.4676C177.498 14.4547 178.609 14.1882 179.304 14.1726C180.208 14.1528 179.867 14.2483 180.813 14.2252C180.894 14.2233 180.877 14.1644 181.461 14.167C184.172 14.1782 187.127 14.2125 189.945 14.2066C190.329 14.2061 189.836 14.1126 190.392 14.1102C193.001 14.0991 195.86 14.1026 198.402 14.1463C199.028 14.1574 198.636 14.2228 198.771 14.2423C199.605 14.3599 200.787 14.189 200.983 14.1858C205.636 14.1037 209.198 14.2583 213.941 14.1847C214.199 14.1803 216.186 13.9972 217.073 14.1543C217.134 14.1647 218.011 14.3254 218.787 14.2155C218.835 14.2087 218.288 14.1259 219.242 14.1344C220.196 14.1428 221.731 14.0875 223.042 14.1784C223.458 14.2071 224.439 14.3674 225.677 14.2396C225.758 14.2307 227.669 13.9417 228.352 14.1411C228.462 14.1739 228.346 14.3849 229.824 14.2767C230.107 14.2557 229.594 14.2087 230.338 14.1793C231.478 14.134 232.988 14.1905 234.389 14.0965C234.634 14.0799 235.674 13.9367 236.508 14.0454C236.639 14.0624 236.391 14.1328 236.831 14.1407C238.927 14.1785 241.121 14.1314 243.248 14.1801C244.002 14.1973 243.616 14.3111 244.402 14.3416C245.188 14.3721 246.77 14.4015 247.592 14.3495C248.415 14.2974 247.516 14.1159 248.748 14.1014C248.906 14.0995 249.064 14.0978 249.222 14.0963L248.318 15C248.272 10.3176 248.349 5.67166 248.376 1L249.222 1.84636C248.712 1.84344 248.201 1.84112 247.69 1.83963C246.897 1.83731 247.554 1.90224 246.386 1.90347C242.077 1.90831 234.638 1.96919 230.899 1.83121C227.904 1.72069 231.673 1.63656 229.384 1.59159C228.28 1.57013 227.085 1.78111 226.818 1.78775C224.213 1.85522 222.402 1.76176 220.058 1.79044C219.574 1.79639 220.049 1.8819 219.636 1.88602C218.229 1.90085 216.75 1.86268 215.405 1.86966C214.801 1.87299 214.912 1.9383 214.357 1.93326C213.029 1.92195 211.854 1.8945 210.559 1.83328C210.441 1.82771 211.237 1.74646 210.254 1.74344C208.663 1.73878 206.689 1.67839 204.858 1.74076C204.315 1.75951 204.294 1.90878 203.127 1.8057C202.882 1.78417 203.194 1.60493 201.835 1.7598C201.606 1.78553 199.322 1.99442 198.201 1.85977C197.905 1.82434 197.15 1.67767 196.497 1.70072C196.409 1.70439 196.763 1.78457 196.222 1.79239C194.315 1.81856 192.316 1.81 190.357 1.83512C189.834 1.84198 190.613 1.92495 189.833 1.93253C187.689 1.9535 185.012 1.93237 182.915 1.9064C182.142 1.89667 182.676 1.82795 182.62 1.82047C181.715 1.69882 181.18 1.86302 180.88 1.87259C179.013 1.92992 177.591 1.85279 175.87 1.8732C175.395 1.87863 175.732 1.95692 175.637 1.9639C174.657 2.03211 175.387 1.89151 174.766 1.87601C173.028 1.83212 171.089 1.83842 169.331 1.84842C168.685 1.85221 169.411 1.94299 168.831 1.94534C165.4 1.96099 161.834 1.9523 158.485 1.90225C157.855 1.89267 158.252 1.82276 158.12 1.80679C157.215 1.69509 155.887 1.84746 155.582 1.86197C154.193 1.92824 153.654 1.86642 152.428 1.87796C146.437 1.93541 139.04 1.89447 133.386 1.86917C126.017 1.83662 120.299 1.77012 113.272 1.78739C112.825 1.7884 113.276 1.88139 112.891 1.88345C107.92 1.90587 103.027 1.86953 98.0465 1.89639C97.6378 1.89843 98.2269 1.98659 97.5709 1.99283C96.2254 2.00624 94.521 2.00145 93.1606 1.9733C92.497 1.95974 93.3871 1.88409 92.7191 1.87198C91.164 1.84362 89.4969 1.83734 87.8995 1.85147C87.2196 1.85768 88.2453 1.94784 87.3617 1.94888C81.3427 1.95783 75.4315 1.97336 69.349 1.8566C68.9321 1.84858 68.5662 1.66533 67.6796 1.70047C67.6128 1.75133 67.6165 1.81115 67.5873 1.86551C58.8252 1.89479 50.1526 1.83127 41.3659 1.82144C40.9954 1.82105 41.6357 1.91815 40.9184 1.91788C36.7673 1.91644 32.7362 1.94334 28.49 1.84683C28.0687 1.8374 28.2848 1.66658 27.0433 1.69242C26.8243 1.69713 24.9543 1.71991 24.4709 1.75699C24.4052 1.76258 24.7464 1.84231 24.1438 1.84464C20.6422 1.85674 16.9727 1.83854 13.4771 1.78983C12.9129 1.78181 13.5137 1.69691 13.1119 1.69046C10.2616 1.64539 7.16125 1.70993 4.43764 1.63285C2.61455 1.58094 3.28951 1.43417 2.32074 1.28971C2.18372 1.26932 1.05481 1.26609 0.996429 1.18204C0.846552 0.970681 1.39336 0.739242 1.16899 0.513952C1.12159 0.465427 -0.390316 0.517692 0.504828 0.400427C0.567364 0.392579 1.6635 0.35366 1.93348 0.31388C2.12145 0.286376 1.78272 0.200894 2.16624 0.165687C2.54972 0.130513 2.97112 0.202169 3.60693 0.160804C4.24246 0.118927 3.96301 0.0216813 5.23222 0.0101698ZM159.554 14.6389C160.557 14.7205 160.705 14.4214 159.62 14.493C159.567 14.4968 159.502 14.6349 159.554 14.6389ZM38.1362 14.6861C39.4481 14.818 40.3459 14.6241 39.4204 14.5222C38.495 14.4204 37.7364 14.6461 38.1362 14.6861ZM24.5319 14.7824C26.0652 14.8865 26.3065 14.4623 24.6643 14.5481C24.5688 14.5529 24.4423 14.7764 24.5319 14.7824ZM6.81337 1.24857C6.79952 1.2446 5.98802 1.24073 5.96862 1.24466C5.53651 1.33965 7.15919 1.34733 6.81337 1.24857ZM11.0319 14.8873C11.5105 14.9447 12.8888 14.8784 12.294 14.8071C11.8152 14.7497 10.4358 14.8159 11.0319 14.8873ZM211.902 14.9581C211.918 14.9626 212.5 14.9666 212.488 14.9414C212.449 14.8602 211.639 14.8831 211.902 14.9581ZM0.329868 2.86514C0.313904 6.25512 -0.0364464 8.3105 0.0030873 4.61885C0.0102401 3.95033 0.114811 6.05967 0.146397 5.20877C0.203942 3.65183 -0.016035 2.61799 0.101842 1.02916C0.123417 0.741533 0.331558 2.67176 0.330357 2.87116C0.330194 2.86915 0.330031 2.86715 0.329868 2.86514ZM160.131 14.9981C160.152 15.0021 160.957 15.0058 160.976 15.0019C161.412 14.907 159.79 14.8994 160.131 14.9981ZM245.851 15.143C245.895 15.1515 247.764 15.1593 247.825 15.1516C248.8 14.9963 245.021 14.9799 245.851 15.143ZM105.891 15.217C105.012 15.3125 103.961 15.3238 103.26 15.2038C104.134 15.2102 105.013 15.2111 105.891 15.217Z" fill="black"/>
</svg>
