<svg width="16" height="76" viewBox="0 0 16 76" fill="none" xmlns="http://www.w3.org/2000/svg">
<path d="M1 75.3698L1 0.369751H15L15 75.3698H1Z" fill="#C02B53"/>
<path d="M0.0101698 73.6743C-0.015883 72.6768 0.0119737 71.3693 0.0502087 70.3756C0.0620673 70.0642 0.115075 70.2219 0.125648 70.0069C0.146258 69.5865 0.120261 69.1948 0.144813 68.7793C0.153209 68.6416 0.237174 68.813 0.244056 68.6686C0.281163 67.8774 0.259777 67.1288 0.277625 66.3273C0.365685 62.3793 0.397205 58.4985 0.435461 54.5022C0.448004 53.1845 0.524206 51.5827 0.490881 50.2217C0.486916 50.0628 0.413216 50.1576 0.407141 50.1273C0.31415 49.6532 0.462935 49.8108 0.482702 49.5013C0.560754 48.2726 0.567542 46.9063 0.539099 45.7239C0.526782 45.2208 0.380395 45.7252 0.462561 45.2187C0.468112 45.1835 0.546377 45.3112 0.554724 45.1732C0.573498 44.8604 0.559509 44.2668 0.56571 44.0243C0.578057 43.557 0.577269 43.4797 0.578161 43.0377C0.580061 42.4335 0.618966 41.7148 0.601232 41.0665C0.597215 40.9281 0.516985 41.1113 0.503332 40.8906C0.489702 40.6698 0.496505 40.0854 0.515417 39.8884C0.534339 39.6914 0.597399 39.7753 0.611852 39.7404C0.733849 39.4535 0.564884 38.7776 0.560705 38.6906C0.489506 37.1049 0.58576 35.7451 0.585485 34.2566C0.585073 33.1267 0.553296 31.9184 0.557653 30.8432C0.563155 29.5623 0.606631 28.4766 0.599157 27.2322C0.598461 27.1009 0.504129 27.2548 0.503088 27.0944C0.492111 25.3902 0.502394 23.6979 0.566076 22.0011C0.572546 21.8309 0.655368 22.0502 0.666784 21.8802C0.734849 20.8393 0.898357 19.1923 0.537756 18.5741C0.551837 17.869 0.566385 17.013 0.639074 16.3822C0.685858 15.9755 0.776084 16.3705 0.737585 15.8709C0.729007 15.7582 0.649991 15.9047 0.643102 15.7358C0.614176 15.0243 0.639861 14.247 0.599035 13.5432C0.590545 13.4001 0.519744 13.4392 0.506994 13.3986C0.403741 13.0577 0.574425 12.4902 0.586828 12.3665C0.679315 11.4244 0.642919 10.7365 0.645178 9.85887C0.645741 9.65521 0.550639 9.89594 0.547766 9.69998C0.534136 8.68362 0.54231 7.63076 0.584509 6.63557C0.594124 6.4142 0.675134 6.61777 0.683874 6.51199C0.721424 6.04556 0.568417 5.94216 0.601477 5.49483C0.60825 5.40052 0.6776 5.45364 0.685217 5.43643C0.804778 5.16721 0.635368 4.93325 0.631628 4.86402C0.580523 3.98803 0.757378 3.42809 0.732336 2.58184C0.729161 2.4806 0.641412 2.70891 0.637853 2.42431C0.629234 1.74971 0.626734 1.0613 0.63025 0.369751L0.626143 0.0042038L1 0C2.25202 0.00637054 3.51427 0.0324554 4.7232 0.0776749C5.01498 0.0884705 4.8067 0.154388 4.82506 0.162514C5.12431 0.289482 5.31795 0.119354 5.41308 0.112953C6.16366 0.0668335 6.86479 0.209496 7.37477 0.00687408C9.9254 0.0632935 12.4666 0.00118256 15 0.0682144L15.2981 0.0648651L15.3015 0.369751C15.285 0.993607 15.2607 1.61698 15.2248 2.23991C15.2227 2.27998 15.1389 2.20816 15.1351 2.28812C15.0881 3.25099 15.2183 3.06608 15.3775 3.70319C15.4175 3.86368 15.2252 4.3519 15.2111 4.3951C15.1592 4.55249 15.0346 4.38925 15.0245 4.44196C14.9455 4.87805 15.3577 4.80699 15.3579 5.39529C15.3572 5.4137 15.2813 5.33643 15.2738 5.38579C15.2501 5.53918 15.2802 5.69131 15.2541 5.84141C15.1937 6.18497 14.9934 6.30734 15.11 6.8321C15.1251 6.89851 15.3589 6.79709 15.3479 7.32235C15.3433 7.53174 15.3473 8.45863 15.3321 8.71841C15.317 8.97787 15.2416 8.79972 15.2384 8.81822C15.1387 9.51732 15.0974 9.25224 14.9499 9.60249C14.803 9.95271 15.1535 9.85558 15.1926 9.99836C15.2316 10.1414 15.1494 10.6539 15.1208 10.7799C15.0922 10.9058 15.0443 10.7488 15.0282 10.8607C14.9225 11.603 15.2021 11.1865 15.2578 11.4311C15.3895 12.0077 15.1296 12.4568 15.1041 12.9847C15.0972 13.1275 15.1564 13.011 15.162 13.1381C15.1831 13.6419 15.102 13.9448 15.1764 14.5179C15.1885 14.6116 15.3448 15.0749 15.2301 15.3748C15.2135 15.4173 15.1488 15.2966 15.1342 15.5113C15.1125 15.832 15.0983 16.4098 15.12 16.7546C15.136 17.0091 15.2427 16.7174 15.2096 17.0377C15.1948 17.1801 15.1323 16.9162 15.1097 17.1837C15.0871 17.4498 15.0899 18.1301 15.092 18.389C15.0942 18.6474 15.1752 18.5059 15.1806 18.5268C15.2119 18.6532 15.2509 19.1491 15.2508 19.1929C15.2607 21.4034 15.1242 23.4418 15.1694 25.594C15.1728 25.7629 15.2582 25.6504 15.2596 25.6762C15.2954 26.2544 15.0684 25.7985 14.9924 26.2024C15.1657 26.1441 15.1343 26.3825 15.1533 26.7898C15.1626 26.986 15.2297 26.8792 15.2365 26.8971C15.3384 27.1881 15.2068 27.3908 15.1799 27.443C15.0809 27.6357 15.1979 27.8455 15.1317 27.9767C15.066 28.1078 14.9686 27.8061 14.9698 28.1967C15.0318 28.3062 15.1939 28.0162 15.2202 28.3128C15.3195 29.4318 15.1924 31.5205 15.1792 32.4202C15.166 33.3181 15.1774 33.6081 15.155 34.1313C15.1145 35.0764 15.2347 34.7301 15.2898 35.3169C15.3448 35.9054 15.0489 35.6193 14.9853 35.7039C14.9217 35.787 14.9872 35.8777 14.9522 35.981C14.9173 36.0839 14.874 35.861 14.8609 36.1032C14.8478 36.3455 14.9609 37.008 15.0274 37.0939C15.1683 37.2754 15.3162 36.9769 15.2642 37.6181C15.2612 37.6549 15.1834 37.5353 15.1755 37.6765C15.1156 38.7979 15.1119 39.963 15.0589 41.0831C15.0515 41.2371 14.965 41.0994 14.9597 41.189C14.9043 42.1226 15.0503 41.7889 15.2124 42.3006C14.9966 42.1857 14.8646 42.4686 14.8634 43.1772C14.8625 43.6031 14.9567 43.5298 15.0232 43.8053C15.0432 43.8879 14.9785 44.1893 15.0228 44.2439C15.1676 44.424 15.3298 44.1401 15.2652 44.8707C15.2622 44.9027 15.1829 44.8007 15.1781 44.9114C15.1466 45.6273 15.2981 45.7129 15.3165 46.4867C15.3309 47.0933 15.2385 48.172 15.2235 48.8626C14.9809 48.8481 15.0365 49.5004 15.2037 49.765C15.1969 50.2132 15.2063 50.6973 15.1832 51.1305C15.1753 51.2796 15.1051 51.1817 15.0975 51.2005C14.9785 51.4888 15.1412 51.6836 15.1475 51.7803C15.2096 52.8289 15.0862 53.6831 15.2068 54.6838C15.2111 54.7193 15.3796 54.7769 15.2566 55.0444C15.2481 55.0617 15.1714 54.7312 15.1655 55.2019C15.1596 55.6727 15.0692 56.5602 15.1473 57.2138C15.1661 57.372 15.3029 57.7721 15.196 58.0932C15.1815 58.1359 15.1332 58.0891 15.1063 58.1509C15.0206 58.3505 15.1909 58.4595 15.0462 58.6941C14.9016 58.9287 14.7932 59.4167 14.893 60.0759C14.8959 60.0969 15.0309 60.2529 15.0288 60.4602C15.0253 60.7911 14.9971 61.2609 14.998 61.6064C14.9985 61.7718 15.0823 61.6659 15.0838 61.6947C15.1308 62.807 15.0561 63.5987 15.0236 64.7903C15.0175 65.0087 15.1318 65.6365 15.0415 66.0594C14.9426 66.5238 14.5311 66.0466 14.6291 67.1139C14.6683 67.5444 15.1903 68.0894 14.9199 68.8631C14.9869 70.3635 14.8485 71.751 14.9442 73.2556C14.9484 73.3233 15.0941 73.5372 15.0921 73.6963C15.0889 73.9325 15.0208 74.0621 15.0163 74.2307C15.0049 74.6235 15.0179 74.9978 15.03 75.3698L15.0304 75.3995L15 75.3998C14.7029 75.4095 14.4072 75.4188 14.1047 75.4148C13.8461 75.4115 13.9365 75.3411 13.628 75.3371C13.3198 75.3333 13.1142 75.426 12.6964 75.3812C12.3809 75.3471 12.0655 75.1576 11.6467 75.1355C11.6307 75.3224 11.3431 75.3185 10.8319 75.3679C10.7336 75.3775 10.839 75.4425 10.7925 75.4504C10.6033 75.4839 10.4282 75.43 10.2486 75.4665C10.2049 75.4753 10.2028 75.5391 10.1671 75.5499C9.86332 75.6439 9.36286 75.5003 9.27691 75.4753C8.94748 75.3804 8.79353 75.4634 8.54085 75.426C8.28859 75.3886 8.66578 75.3419 8.3711 75.3192C7.76028 75.2723 6.97545 75.2826 6.35509 75.2796C6.10757 75.2789 6.27644 75.3641 6.24102 75.3659C5.72919 75.3875 5.21159 75.2969 4.9278 75.4666C4.57293 75.0278 4.61915 75.5092 3.88754 75.4214C3.82991 75.4142 3.7566 75.2067 3.97785 75.1762C4.19909 75.1458 4.5346 75.2107 4.84156 75.1632C4.91426 75.152 5.33068 74.9575 5.38749 74.9458C5.83255 74.8537 5.89561 75.1638 5.91916 75.1809C6.18618 75.3647 6.69505 75.1552 6.82905 75.1407C7.44208 75.0744 7.96292 75.118 8.47566 75.0706C8.81101 75.04 8.84382 74.8369 9.10715 74.8431C9.98252 74.8637 10.2881 75.1471 11.113 74.9013C11.2898 74.8489 11.1141 74.6269 11.7478 74.8015C11.7877 74.8125 12.2582 74.9722 12.5301 74.8712C12.5642 74.8584 12.5631 74.7937 12.6082 74.7883C12.9099 74.7531 13.1112 74.8047 13.44 74.78C13.7687 74.7553 14.164 74.7185 14.5393 74.7404C14.6885 74.7491 14.8657 74.8045 15 74.8497L14.48 75.3698C14.5033 75.3005 14.5239 75.2426 14.5339 75.2058C14.6189 74.9 14.4795 74.5722 14.5825 74.3828C14.686 74.1918 14.8431 74.5652 14.91 74.0643C14.7419 74.0458 14.5693 74.0032 14.4002 73.9734C14.4062 72.8757 14.4605 71.7957 14.4531 70.6944C14.452 70.5578 14.3616 70.6975 14.3581 70.5511C14.3438 69.9335 14.4082 69.3942 14.3825 68.7537C14.3623 68.258 14.2666 67.7144 14.2425 67.1961C14.4349 66.8794 14.3696 66.1103 14.3872 65.5515C14.3932 65.3558 14.4446 65.3688 14.4614 65.2296C14.5234 64.7045 14.3534 64.9506 14.3266 64.8066C14.2124 64.1889 14.5972 64.1361 14.5877 63.4078C14.5874 63.3693 14.3822 62.8977 14.3695 62.8327C14.2862 62.42 14.4409 62.7644 14.456 62.5061C14.4837 62.0345 14.5327 61.7068 14.4726 61.1535C14.4548 60.9922 14.327 60.6051 14.4259 60.2918C14.4388 60.2506 14.5066 60.2734 14.5106 60.2402C14.5768 59.6397 14.3637 59.6239 14.2916 59.2808C14.2195 58.9375 14.3665 58.4075 14.4089 58.2996C14.5185 58.0174 14.4558 58.5158 14.4665 58.5311C14.5946 58.7107 14.5725 58.3241 14.5833 58.0287C14.7922 57.9859 14.7797 57.5728 14.5937 57.7224C14.5734 57.7394 14.5929 57.9693 14.5833 58.0287C14.3784 57.7694 14.3522 57.3154 14.5437 56.8139C14.6334 56.5792 14.7381 56.8011 14.6998 56.088C14.6825 55.7644 14.5387 55.8895 14.4995 55.6039C14.41 54.9515 14.5442 54.1037 14.523 53.431C14.5154 53.1869 14.4366 53.4247 14.4287 53.2579C14.4073 52.8151 14.4664 52.4246 14.4361 51.98C14.4333 51.9397 14.3509 52.0381 14.3498 51.8998C14.3403 50.8516 14.393 49.9388 14.3945 48.8443C14.3952 48.3154 14.3497 47.37 14.3589 46.8222C14.3742 45.8727 14.494 44.7047 14.4649 43.8935C14.4463 43.3645 14.3639 43.4806 14.3077 43.2539C14.1988 42.8165 14.3938 42.0423 14.424 41.938C14.425 41.9348 14.4445 42.39 14.4868 42.1471C14.5749 42.0059 14.4244 41.9431 14.424 41.938C14.4435 41.8695 14.4623 40.9601 14.4465 40.7796C14.4379 40.6815 14.3598 40.7363 14.3568 40.6852C14.2869 39.4692 14.267 38.2511 14.3036 37.0178C14.3051 36.9961 14.3925 37.0288 14.3951 36.9778C14.4339 36.2638 14.3271 35.8066 14.2636 35.2177C14.2002 34.629 14.2215 34.1621 14.3714 33.8135C14.3525 33.3693 14.4188 32.732 14.4591 32.3652C14.4993 31.9984 14.3293 31.9473 14.3259 31.915C14.2183 30.9085 14.3156 30.3267 14.3308 29.2825C14.3383 28.786 14.3136 27.8013 14.295 27.2637C14.28 26.8389 14.3199 26.583 14.2944 26.1916C14.291 26.1386 14.2153 26.1921 14.2124 26.1759C14.1218 25.7391 14.3069 25.949 14.3399 25.8588C14.4601 25.5318 14.5242 25.3298 14.4676 24.7704C14.4547 24.6413 14.1882 24.2655 14.1726 24.0303C14.1528 23.7244 14.2483 23.8398 14.2252 23.5196C14.2233 23.4922 14.1644 23.4979 14.167 23.3003C14.1782 22.3829 14.2125 21.3828 14.2066 20.4294C14.2061 20.2992 14.1126 20.4662 14.1102 20.278C14.0991 19.3951 14.1026 18.4275 14.1463 17.5674C14.1574 17.3557 14.2228 17.4884 14.2423 17.4424C14.3599 17.1603 14.189 16.7602 14.1858 16.6941C14.1037 15.1194 14.2583 13.9141 14.1847 12.3091C14.1803 12.2217 13.9972 11.5491 14.1543 11.2491C14.1647 11.2286 14.3254 10.9317 14.2155 10.6692C14.2087 10.6529 14.1259 10.8379 14.1344 10.5151C14.1428 10.1923 14.0875 9.67276 14.1784 9.22903C14.2071 9.08855 14.3674 8.75652 14.2396 8.33748C14.2307 8.31017 13.9417 7.66326 14.1411 7.43235C14.1739 7.39492 14.3849 7.4341 14.2767 6.93395C14.2557 6.8384 14.2087 7.01187 14.1793 6.76012C14.134 6.3744 14.1905 5.86334 14.0965 5.38918C14.0799 5.3065 13.9367 4.9545 14.0454 4.67214C14.0624 4.62792 14.1328 4.71194 14.1407 4.56282C14.1785 3.85374 14.1314 3.11127 14.1801 2.39133C14.1973 2.13632 14.3111 2.26669 14.3416 2.00089C14.3721 1.73501 14.4015 1.19942 14.3495 0.921249C14.2974 0.643013 14.1159 0.94696 14.1014 0.530136C14.0995 0.476662 14.0978 0.423195 14.0963 0.369751L15 1.27349C13.2424 1.3252 11.4999 1.22449 9.74386 1.20938C9.47549 1.20705 9.69797 1.272 9.3025 1.27322C7.84442 1.27805 5.32705 1.33894 4.06184 1.20096C3.04811 1.09045 4.32383 1.00631 3.54918 0.961334C3.17537 0.93988 2.77096 1.15086 2.68072 1.1575C2.03514 1.20692 1.53377 1.17001 1 1.15799L1.78823 0.369751C1.78384 0.564857 1.78276 0.764259 1.79044 0.976646C1.79639 1.14047 1.8819 0.97979 1.88602 1.11924C1.90085 1.59553 1.86268 2.09614 1.86966 2.55128C1.87299 2.75548 1.9383 2.71784 1.93326 2.90573C1.92195 3.35531 1.8945 3.75285 1.83328 4.19111C1.82771 4.23106 1.74646 3.96172 1.74344 4.29432C1.73878 4.83266 1.67839 5.50085 1.74076 6.1202C1.75951 6.30398 1.90878 6.31116 1.8057 6.70619C1.78417 6.78905 1.60493 6.68335 1.7598 7.14348C1.78553 7.22087 1.99442 7.99383 1.85977 8.37318C1.82434 8.47324 1.67767 8.72868 1.70072 8.94967C1.70439 8.97964 1.78457 8.85957 1.79239 9.04269C1.81856 9.68805 1.81 10.3644 1.83512 11.0275C1.84198 11.2045 1.92495 10.9408 1.93253 11.2047C1.9535 11.9303 1.93237 12.8363 1.9064 13.5459C1.89667 13.8076 1.82795 13.6267 1.82047 13.6458C1.69882 13.9519 1.86302 14.1329 1.87259 14.2345C1.92992 14.8664 1.85279 15.3475 1.8732 15.93C1.87863 16.0907 1.95692 15.9767 1.9639 16.0087C2.03211 16.3406 1.89151 16.0934 1.87601 16.3034C1.83212 16.8918 1.83842 17.5478 1.84842 18.1429C1.85221 18.3615 1.94299 18.1158 1.94534 18.312C1.96099 19.473 1.9523 20.6799 1.90225 21.813C1.89267 22.0263 1.82276 21.8921 1.80679 21.9366C1.69509 22.243 1.84746 22.6921 1.86197 22.7955C1.92824 23.2654 1.86642 23.4479 1.87796 23.8629C1.93541 25.8902 1.89447 28.3932 1.86917 30.3068C1.83662 32.8004 1.77012 34.7354 1.78739 37.1133C1.7884 37.2644 1.88139 37.112 1.88345 37.2423C1.90587 38.9243 1.86953 40.5803 1.89639 42.2657C1.89843 42.404 1.98659 42.2046 1.99283 42.4266C2.00624 42.8819 2.00145 43.4587 1.9733 43.9191C1.95974 44.1436 1.88409 43.8424 1.87198 44.0685C1.84362 44.5947 1.83734 45.1589 1.85147 45.6995C1.85768 45.9295 1.94784 45.5824 1.94888 45.8814C1.95783 47.9183 1.97336 49.9187 1.8566 51.977C1.84858 52.1181 1.66533 52.2419 1.70047 52.5419C1.75133 52.5645 1.81115 52.5633 1.86551 52.5731C1.89479 55.5383 1.83127 58.4731 1.82144 61.4465C1.82105 61.5719 1.91815 61.3552 1.91788 61.598C1.91644 63.0027 1.94334 64.3669 1.84683 65.8038C1.8374 65.9464 1.66658 65.8732 1.69242 66.2934C1.69713 66.3675 1.71991 67.0003 1.75699 67.1639C1.76258 67.1861 1.84231 67.0706 1.84464 67.2746C1.85674 68.4595 1.83854 69.7013 1.78983 70.8842C1.78181 71.0751 1.69691 70.8718 1.69046 71.0078C1.64539 71.9723 1.70993 73.0215 1.63285 73.9432C1.58094 74.5601 1.43417 74.3317 1.28971 74.6595C1.26932 74.7059 1.26609 75.0879 1.18204 75.1077C0.970681 75.1584 0.739242 74.9734 0.513952 75.0493C0.465427 75.0653 0.517692 75.577 0.400427 75.2741C0.392579 75.2529 0.35366 74.882 0.31388 74.7906C0.286376 74.727 0.200894 74.8416 0.165687 74.7118C0.130513 74.5821 0.202169 74.4395 0.160804 74.2243C0.118927 74.0092 0.0216813 74.1038 0.0101698 73.6743ZM14.6389 30.7138C14.7205 30.3742 14.4214 30.3241 14.493 30.6914C14.4968 30.7092 14.6349 30.7313 14.6389 30.7138ZM14.6861 71.8018C14.818 71.3579 14.6241 71.0541 14.5222 71.3673C14.4204 71.6804 14.6461 71.9371 14.6861 71.8018ZM13.9642 75.1522C14.483 75.2562 14.5647 74.8321 14.009 74.9178C13.9767 74.9227 13.9338 75.1461 13.9642 75.1522ZM1.24857 73.1392C1.2446 73.1439 1.24073 73.4185 1.24466 73.4251C1.33965 73.5713 1.34733 73.0222 1.24857 73.1392ZM9.39573 75.257C9.55771 75.3144 10.0241 75.2482 9.82283 75.1768C9.66082 75.1195 9.194 75.1857 9.39573 75.257ZM14.9581 12.9989C14.9626 12.9936 14.9666 12.7967 14.9414 12.8007C14.8602 12.814 14.8831 13.088 14.9581 12.9989ZM1.63117 75.2619C2.77835 75.2779 3.4739 75.6282 2.22463 75.5887C1.9984 75.5816 2.71221 75.477 2.42426 75.4454C1.89738 75.3879 1.54753 75.6078 1.00987 75.49C0.912533 75.4684 1.56573 75.2602 1.63321 75.2614C1.63253 75.2616 1.63185 75.2618 1.63117 75.2619ZM14.9981 30.5183C15.0021 30.5115 15.0058 30.2389 15.0019 30.2324C14.907 30.0848 14.8994 30.6339 14.9981 30.5183ZM15.143 1.51064C15.1515 1.49559 15.1593 0.863113 15.1516 0.842484C14.9963 0.512535 14.9799 1.79125 15.143 1.51064ZM15.217 48.8735C15.3125 49.1709 15.3238 49.5266 15.2038 49.7637C15.2102 49.4681 15.2111 49.1706 15.217 48.8735Z" fill="black"/>
</svg>
