<svg width="69" height="16" viewBox="0 0 69 16" fill="none" xmlns="http://www.w3.org/2000/svg">
<path d="M0.222168 1H68.2222V15H0.222168V1Z" fill="#C02B53"/>
<path d="M1.78428 0.0101698C2.70329 -0.015883 3.90796 0.0119737 4.8235 0.0502087C5.11043 0.0620673 4.96514 0.115075 5.16321 0.125648C5.55059 0.146258 5.91149 0.120261 6.29431 0.144813C6.42118 0.153209 6.26326 0.237174 6.39629 0.244056C7.12527 0.281163 7.81492 0.259777 8.55339 0.277625C12.1909 0.365685 15.7664 0.397205 19.4484 0.435461C20.6625 0.448004 22.1383 0.524206 23.3923 0.490881C23.5387 0.486916 23.4514 0.413216 23.4792 0.407141C23.9161 0.31415 23.7708 0.462935 24.056 0.482702C25.1881 0.560754 26.4469 0.567542 27.5363 0.539099C27.9998 0.526782 27.5351 0.380395 28.0018 0.462561C28.0342 0.468112 27.9166 0.546377 28.0437 0.554724C28.332 0.573498 28.8788 0.559509 29.1022 0.56571C29.5328 0.578057 29.604 0.577269 30.0112 0.578161C30.5679 0.580061 31.2301 0.618966 31.8274 0.601232C31.9549 0.597215 31.7861 0.516985 31.9894 0.503332C32.1929 0.489702 32.7313 0.496505 32.9128 0.515417C33.0944 0.534339 33.0171 0.597399 33.0492 0.611852C33.3135 0.733849 33.9363 0.564884 34.0164 0.560705C35.4774 0.489506 36.7303 0.58576 38.1017 0.585485C39.1428 0.585073 40.256 0.553296 41.2466 0.557653C42.4268 0.563155 43.4271 0.606631 44.5736 0.599157C44.6946 0.598461 44.5528 0.504129 44.7006 0.503088C46.2707 0.492111 47.83 0.502394 49.3933 0.566076C49.5501 0.572546 49.348 0.655368 49.5047 0.666784C50.4637 0.734849 51.9812 0.898357 52.5508 0.537756C53.2004 0.551837 53.9891 0.566385 54.5703 0.639074C54.945 0.685858 54.581 0.776084 55.0413 0.737585C55.1452 0.729007 55.0101 0.649991 55.1658 0.643102C55.8213 0.614176 56.5375 0.639861 57.1859 0.599035C57.3178 0.590545 57.2818 0.519744 57.3192 0.506994C57.6333 0.403741 58.1561 0.574425 58.2701 0.586828C59.1381 0.679315 59.7719 0.642919 60.5805 0.645178C60.7681 0.645741 60.5463 0.550639 60.7269 0.547766C61.6633 0.534136 62.6334 0.54231 63.5503 0.584509C63.7542 0.594124 63.5667 0.675134 63.6641 0.683874C64.0939 0.721424 64.1892 0.568417 64.6013 0.601477C64.6882 0.60825 64.6393 0.6776 64.6551 0.685217C64.9032 0.804778 65.1187 0.635368 65.1825 0.631628C65.9896 0.580523 66.5055 0.757378 67.2852 0.732336C67.3785 0.729161 67.1681 0.641412 67.4303 0.637853C67.6923 0.634221 67.9564 0.631675 68.2222 0.630209L68.5874 0.625755L68.592 1C68.6003 2.50635 68.5739 4.06169 68.5142 5.53149C68.5034 5.80032 68.4375 5.60842 68.4294 5.62533C68.3024 5.90105 68.4726 6.07946 68.479 6.16711C68.5251 6.85865 68.3824 7.50464 68.585 7.9745C68.5286 10.3245 68.5907 12.6659 68.5237 15L68.5273 15.2978L68.2222 15.3015C67.6474 15.285 67.073 15.2607 66.4991 15.2248C66.4622 15.2227 66.5284 15.1389 66.4547 15.1351C65.5675 15.0881 65.7379 15.2183 65.1509 15.3775C65.003 15.4175 64.5532 15.2252 64.5134 15.2111C64.3684 15.1592 64.5188 15.0346 64.4702 15.0245C64.0685 14.9455 64.1339 15.3577 63.5919 15.3579C63.5749 15.3572 63.6461 15.2813 63.6006 15.2738C63.4593 15.2501 63.3192 15.2802 63.1809 15.2541C62.8643 15.1937 62.7516 14.9934 62.2681 15.11C62.2069 15.1251 62.3004 15.3589 61.8164 15.3479C61.6235 15.3433 60.7695 15.3473 60.5301 15.3321C60.2911 15.317 60.4552 15.2416 60.4382 15.2384C59.7941 15.1387 60.0383 15.0974 59.7156 14.9499C59.3929 14.803 59.4824 15.1535 59.3509 15.1926C59.2191 15.2316 58.7468 15.1494 58.6308 15.1208C58.5148 15.0922 58.6595 15.0443 58.5563 15.0282C57.8725 14.9225 58.2562 15.2021 58.0308 15.2578C57.4996 15.3895 57.0858 15.1296 56.5994 15.1041C56.4678 15.0972 56.5752 15.1564 56.458 15.162C55.9939 15.1831 55.7148 15.102 55.1868 15.1764C55.1004 15.1885 54.6736 15.3448 54.3973 15.2301C54.3581 15.2135 54.4693 15.1488 54.2715 15.1342C53.9761 15.1125 53.4437 15.0983 53.126 15.12C52.8915 15.136 53.1603 15.2427 52.8652 15.2096C52.734 15.1948 52.9771 15.1323 52.7306 15.1097C52.4855 15.0871 51.8587 15.0899 51.6202 15.092C51.3821 15.0942 51.5124 15.1752 51.4932 15.1806C51.3768 15.2119 50.9198 15.2509 50.8795 15.2508C48.8428 15.2607 46.9647 15.1242 44.9818 15.1694C44.8262 15.1728 44.9299 15.2582 44.9061 15.2596C44.3734 15.2954 44.7934 15.0684 44.4213 14.9924C44.4751 15.1657 44.2554 15.1343 43.8801 15.1533C43.6993 15.1626 43.7978 15.2297 43.7813 15.2365C43.5131 15.3384 43.3264 15.2068 43.2783 15.1799C43.1007 15.0809 42.9074 15.1979 42.7865 15.1317C42.6658 15.066 42.9437 14.9686 42.5839 14.9698C42.4829 15.0318 42.7501 15.1939 42.4769 15.2202C41.4459 15.3195 39.5215 15.1924 38.6925 15.1792C37.8653 15.166 37.5981 15.1774 37.116 15.155C36.2453 15.1145 36.5644 15.2347 36.0237 15.2898C35.4814 15.3448 35.745 15.0489 35.6671 14.9853C35.5906 14.9217 35.507 14.9872 35.4118 14.9522C35.317 14.9173 35.5224 14.874 35.2992 14.8609C35.076 14.8478 34.4656 14.9609 34.3865 15.0274C34.2192 15.1683 34.4942 15.3162 33.9035 15.2642C33.8695 15.2612 33.9798 15.1834 33.8497 15.1755C32.8164 15.1156 31.743 15.1119 30.711 15.0589C30.5691 15.0515 30.696 14.965 30.6134 14.9597C29.7532 14.9043 30.0607 15.0503 29.5893 15.2124C29.6951 14.9966 29.4344 14.8646 28.7816 14.8634C28.3892 14.8625 28.4567 14.9567 28.2029 15.0232C28.1268 15.0432 27.8491 14.9785 27.7988 15.0228C27.6329 15.1676 27.8944 15.3298 27.2213 15.2652C27.1918 15.2622 27.2858 15.1829 27.1838 15.1781C26.5242 15.1466 26.4453 15.2981 25.7324 15.3165C25.1735 15.3309 24.1797 15.2385 23.5434 15.2235C23.5567 14.9809 22.9557 15.0365 22.7119 15.2037C22.299 15.1969 21.8529 15.2063 21.4538 15.1832C21.3165 15.1753 21.4067 15.1051 21.3894 15.0975C21.1238 14.9785 20.9442 15.1412 20.8551 15.1475C19.889 15.2096 19.102 15.0862 18.18 15.2068C18.1473 15.2111 18.0943 15.3796 17.8478 15.2566C17.8319 15.2481 18.1363 15.1714 17.7027 15.1655C17.2689 15.1596 16.4512 15.0692 15.849 15.1473C15.7032 15.1661 15.3346 15.3029 15.0388 15.196C14.9994 15.1815 15.0425 15.1332 14.9856 15.1063C14.8017 15.0206 14.7013 15.1909 14.4851 15.0462C14.269 14.9016 13.8193 14.7932 13.212 14.893C13.1927 14.8959 13.0489 15.0309 12.8579 15.0288C12.553 15.0253 12.1202 14.9971 11.8019 14.998C11.6495 14.9985 11.747 15.0823 11.7206 15.0838C10.6957 15.1308 9.9663 15.0561 8.86839 15.0236C8.66713 15.0175 8.08874 15.1318 7.69913 15.0415C7.27129 14.9426 7.71093 14.5311 6.72755 14.6291C6.3309 14.6683 5.82876 15.1903 5.11597 14.9199C3.73358 14.9869 2.45513 14.8485 1.06889 14.9442C1.00655 14.9484 0.809436 15.0941 0.662863 15.0921C0.469975 15.0893 0.354205 15.0354 0.222168 15.0201L0.202302 15.0204L0.202053 15C0.20401 14.9831 0.205337 14.966 0.205845 14.9483C0.226356 14.2974 0.168097 13.7017 0.177159 13.074C0.180451 12.8357 0.25086 12.919 0.254795 12.6348C0.258665 12.3508 0.16595 12.1614 0.210728 11.7765C0.24486 11.4858 0.434366 11.1952 0.456455 10.8093C0.269528 10.7946 0.273378 10.5296 0.224034 10.0586C0.21446 9.96802 0.149399 10.0651 0.141515 10.0223C0.107982 9.84798 0.161903 9.68667 0.125401 9.52116C0.116635 9.4809 0.0527979 9.479 0.0420276 9.44609C-0.051984 9.16621 0.0916105 8.70511 0.116612 8.62591C0.211564 8.32239 0.128537 8.18055 0.165929 7.94775C0.203315 7.71532 0.250052 8.06285 0.27274 7.79135C0.319667 7.22857 0.309357 6.50547 0.31229 5.93391C0.313067 5.70585 0.227855 5.86144 0.225987 5.8288C0.204375 5.35723 0.295016 4.88035 0.125279 4.61887C0.564156 4.29191 0.0827106 4.3345 0.170567 3.66043C0.177673 3.60733 0.385215 3.53979 0.415684 3.74364C0.446124 3.94748 0.38125 4.25659 0.428745 4.53942C0.439891 4.6064 0.634371 4.99006 0.646152 5.04241C0.738222 5.45246 0.428079 5.51056 0.411045 5.53226C0.227214 5.77827 0.436729 6.24712 0.451206 6.37058C0.517541 6.9354 0.473925 7.41528 0.521274 7.88769C0.551876 8.19667 0.755031 8.22689 0.748812 8.46951C0.728259 9.27603 0.444857 9.55756 0.690585 10.3176C0.742994 10.4805 0.965036 10.3186 0.790438 10.9025C0.779431 10.9392 0.619706 11.3727 0.720736 11.6232C0.733475 11.6547 0.798186 11.6537 0.803622 11.6952C0.838785 11.9732 0.787232 12.1586 0.811923 12.4615C0.836613 12.7644 0.873422 13.1286 0.851473 13.4744C0.838349 13.6828 0.717783 13.9502 0.688266 14.05C0.603234 14.3317 0.742651 14.6337 0.639682 14.8082C0.545052 14.9691 0.405542 14.6952 0.331231 15L0.222168 14.8909C0.250701 14.8979 0.284291 14.9043 0.323784 14.91C0.340879 14.7419 0.380143 14.5693 0.407614 14.4002C1.41894 14.4062 2.41401 14.4605 3.4287 14.4531C3.5545 14.452 3.42584 14.3616 3.5607 14.3581C4.12967 14.3438 4.62665 14.4082 5.21669 14.3825C5.67344 14.3623 6.17426 14.2666 6.65185 14.2425C6.94358 14.4349 7.65226 14.3696 8.16708 14.3872C8.34742 14.3932 8.33537 14.4446 8.46362 14.4614C8.94746 14.5234 8.72074 14.3534 8.85338 14.3266C9.42246 14.2124 9.47119 14.5972 10.1421 14.5877C10.1777 14.5874 10.6122 14.3822 10.672 14.3695C11.0523 14.2862 10.735 14.4409 10.9729 14.456C11.4075 14.4837 11.7094 14.5327 12.2192 14.4726C12.3678 14.4548 12.7244 14.327 13.0131 14.4259C13.051 14.4388 13.0301 14.5066 13.0606 14.5106C13.6139 14.5768 13.6284 14.3637 13.9446 14.2916C14.2608 14.2195 14.7492 14.3665 14.8486 14.4089C15.1086 14.5185 14.6494 14.4558 14.6353 14.4665C14.4699 14.5946 14.8261 14.5725 15.0982 14.5833C15.1376 14.7922 15.5182 14.7797 15.3804 14.5937C15.3647 14.5734 15.1529 14.5929 15.0982 14.5833C15.3371 14.3784 15.7554 14.3522 16.2174 14.5437C16.4337 14.6334 16.2293 14.7381 16.8862 14.6998C17.1844 14.6825 17.0692 14.5387 17.3323 14.4995C17.9334 14.41 18.7145 14.5442 19.3342 14.523C19.5592 14.5154 19.3401 14.4366 19.4938 14.4287C19.9017 14.4073 20.2615 14.4664 20.6712 14.4361C20.7083 14.4333 20.6176 14.3509 20.745 14.3498C21.7108 14.3403 22.5518 14.393 23.5603 14.3945C24.0475 14.3952 24.9186 14.3497 25.4233 14.3589C26.2981 14.3742 27.3743 14.494 28.1216 14.4649C28.609 14.4463 28.5021 14.3639 28.7109 14.3077C29.1139 14.1988 29.8273 14.3938 29.9233 14.424C29.9263 14.425 29.5069 14.4445 29.7307 14.4868C29.8608 14.5749 29.9186 14.4244 29.9233 14.424C29.9864 14.4435 30.8243 14.4623 30.9906 14.4465C31.081 14.4379 31.0305 14.3598 31.0776 14.3568C32.1979 14.2869 33.3202 14.267 34.4565 14.3036C34.4765 14.3051 34.4464 14.3925 34.4934 14.3951C35.1513 14.4339 35.5725 14.3271 36.115 14.2636C36.6575 14.2002 37.0877 14.2215 37.4088 14.3714C37.8181 14.3525 38.4053 14.4188 38.7432 14.4591C39.0811 14.4993 39.1283 14.3293 39.158 14.3259C40.0853 14.2183 40.6214 14.3156 41.5835 14.3308C42.0409 14.3383 42.9482 14.3136 43.4434 14.295C43.8348 14.28 44.0706 14.3199 44.4313 14.2944C44.4801 14.291 44.4308 14.2153 44.4457 14.2124C44.8482 14.1218 44.6547 14.3069 44.7378 14.3399C45.0391 14.4601 45.2253 14.5242 45.7407 14.4676C45.8596 14.4547 46.2059 14.1882 46.4226 14.1726C46.7044 14.1528 46.598 14.2483 46.8931 14.2252C46.9183 14.2233 46.9131 14.1644 47.0951 14.167C47.9404 14.1782 48.8619 14.2125 49.7402 14.2066C49.8602 14.2061 49.7064 14.1126 49.8797 14.1102C50.6932 14.0991 51.5847 14.1026 52.3772 14.1463C52.5722 14.1574 52.45 14.2228 52.4923 14.2423C52.7522 14.3599 53.1209 14.189 53.1817 14.1858C54.6326 14.1037 55.7431 14.2583 57.2219 14.1847C57.3024 14.1803 57.9221 13.9972 58.1985 14.1543C58.2174 14.1647 58.4909 14.3254 58.7328 14.2155C58.7478 14.2087 58.5774 14.1259 58.8748 14.1344C59.1722 14.1428 59.6509 14.0875 60.0597 14.1784C60.1891 14.2071 60.495 14.3674 60.8811 14.2396C60.9063 14.2307 61.5023 13.9417 61.7151 14.1411C61.7495 14.1739 61.7134 14.3849 62.1743 14.2767C62.2623 14.2557 62.1025 14.2087 62.3344 14.1793C62.6898 14.134 63.1607 14.1905 63.5975 14.0965C63.6737 14.0799 63.998 13.9367 64.2582 14.0454C64.2989 14.0624 64.2215 14.1328 64.3589 14.1407C65.0122 14.1785 65.6963 14.1314 66.3596 14.1801C66.5945 14.1973 66.4744 14.3111 66.7193 14.3416C66.9643 14.3721 67.4577 14.4015 67.714 14.3495C67.9704 14.2974 67.6904 14.1159 68.0744 14.1014C68.1237 14.0995 68.1729 14.0978 68.2222 14.0963L67.3184 15C67.2667 13.3806 67.3674 11.7752 67.3825 10.1573C67.3849 9.91 67.3199 10.115 67.3187 9.75062C67.3139 8.40722 67.253 6.08784 67.391 4.92214C67.5015 3.98815 67.5856 5.16353 67.6306 4.44981C67.652 4.1054 67.4411 3.73279 67.4344 3.64965C67.3669 2.83745 67.4604 2.27299 67.4317 1.54196C67.4258 1.39101 67.3403 1.53907 67.3362 1.41059C67.3316 1.27523 67.332 1.13773 67.3347 1L68.2222 1.88749C67.9134 1.8816 67.6033 1.86483 67.3133 1.86966C67.1252 1.87299 67.1599 1.9383 66.9868 1.93326C66.5726 1.92195 66.2063 1.8945 65.8025 1.83328C65.7657 1.82771 66.0138 1.74646 65.7074 1.74344C65.2114 1.73878 64.5958 1.67839 64.0251 1.74076C63.8558 1.75951 63.8492 1.90878 63.4852 1.8057C63.4089 1.78417 63.5063 1.60493 63.0823 1.7598C63.011 1.78553 62.2989 1.99442 61.9493 1.85977C61.8571 1.82434 61.6218 1.67767 61.4182 1.70072C61.3906 1.70439 61.5012 1.78457 61.3325 1.79239C60.7379 1.81856 60.1147 1.81 59.5038 1.83512C59.3407 1.84198 59.5837 1.92495 59.3405 1.93253C58.672 1.9535 57.8372 1.93237 57.1834 1.9064C56.9424 1.89667 57.109 1.82795 57.0915 1.82047C56.8094 1.69882 56.6427 1.86302 56.5491 1.87259C55.9669 1.92992 55.5235 1.85279 54.9869 1.8732C54.8388 1.87863 54.9438 1.95692 54.9143 1.9639C54.6086 2.03211 54.8364 1.89151 54.6428 1.87601C54.1007 1.83212 53.4963 1.83842 52.948 1.84842C52.7467 1.85221 52.973 1.94299 52.7923 1.94534C51.7226 1.96099 50.6105 1.9523 49.5666 1.90225C49.3701 1.89267 49.4937 1.82276 49.4528 1.80679C49.1704 1.69509 48.7566 1.84746 48.6614 1.86197C48.2284 1.92824 48.0602 1.86642 47.6779 1.87796C45.8101 1.93541 43.5039 1.89447 41.7408 1.86917C39.4434 1.83662 37.6606 1.77012 35.4697 1.78739C35.3305 1.7884 35.4709 1.88139 35.3508 1.88345C33.8011 1.90587 32.2754 1.86953 30.7226 1.89639C30.5951 1.89843 30.7788 1.98659 30.5743 1.99283C30.1548 2.00624 29.6234 2.00145 29.1992 1.9733C28.9923 1.95974 29.2698 1.88409 29.0616 1.87198C28.5767 1.84362 28.0569 1.83734 27.5588 1.85147C27.3469 1.85768 27.6667 1.94784 27.3912 1.94888C25.5146 1.95783 23.6715 1.97336 21.7751 1.8566C21.6451 1.84858 21.531 1.66533 21.2546 1.70047C21.2337 1.75133 21.2349 1.81115 21.2258 1.86551C18.4939 1.89479 15.7899 1.83127 13.0503 1.82144C12.9348 1.82105 13.1344 1.91815 12.9108 1.91788C11.6165 1.91644 10.3597 1.94334 9.03574 1.84683C8.90438 1.8374 8.97178 1.66658 8.58467 1.69242C8.5164 1.69713 7.93338 1.71991 7.78264 1.75699C7.76217 1.76258 7.86854 1.84231 7.68067 1.84464C6.5889 1.85674 5.44479 1.83854 4.35492 1.78983C4.17902 1.78181 4.36634 1.69691 4.24105 1.69046C3.35236 1.64539 2.38572 1.70993 1.53653 1.63285C0.968119 1.58094 1.17856 1.43417 0.876514 1.28971C0.833792 1.26932 0.481813 1.26609 0.463611 1.18204C0.416881 0.970681 0.587369 0.739242 0.517413 0.513952C0.502634 0.465427 0.0312414 0.517692 0.310336 0.400427C0.329834 0.392579 0.671595 0.35366 0.755771 0.31388C0.814378 0.286376 0.708767 0.200894 0.828342 0.165687C0.947907 0.130513 1.07929 0.202169 1.27753 0.160804C1.47568 0.118927 1.38855 0.0216813 1.78428 0.0101698ZM40.2647 14.6389C40.5776 14.7205 40.6238 14.4214 40.2854 14.493C40.269 14.4968 40.2486 14.6349 40.2647 14.6389ZM2.40833 14.6861C2.81737 14.818 3.09728 14.6241 2.80872 14.5222C2.5202 14.4204 2.28371 14.6461 2.40833 14.6861ZM0.439731 12.9445C0.335717 13.4226 0.759845 13.4978 0.674106 12.9858C0.669261 12.956 0.445771 12.9166 0.439731 12.9445ZM2.27726 1.24857C2.27294 1.2446 2.01992 1.24073 2.01388 1.24466C1.87915 1.33965 2.38508 1.34733 2.27726 1.24857ZM0.334873 8.73539C0.277501 8.88463 0.343731 9.31434 0.415073 9.1289C0.472467 8.97963 0.406241 8.54953 0.334873 8.73539ZM56.5863 14.9581C56.5912 14.9626 56.7726 14.9666 56.769 14.9414C56.7567 14.8602 56.5042 14.8831 56.5863 14.9581ZM0.329991 1.58153C0.314026 2.63848 -0.0363243 3.27932 0.00320937 2.12831C0.0103621 1.91987 0.114933 2.57754 0.146519 2.31224C0.204064 1.82681 -0.0159129 1.50447 0.101964 1.00909C0.123539 0.919413 0.33168 1.52123 0.330479 1.5834C0.330316 1.58278 0.330153 1.58215 0.329991 1.58153ZM40.4449 14.9981C40.4511 15.0021 40.7022 15.0058 40.7083 15.0019C40.8442 14.907 40.3384 14.8994 40.4449 14.9981ZM67.171 15.143C67.1849 15.1515 67.7676 15.1593 67.7866 15.1516C68.0906 14.9963 66.9125 14.9799 67.171 15.143ZM23.5334 15.217C23.2593 15.3125 22.9316 15.3238 22.7132 15.2038C22.9855 15.2102 23.2596 15.2111 23.5334 15.217Z" fill="black"/>
</svg>
