<svg width="16" height="258" viewBox="0 0 16 258" fill="none" xmlns="http://www.w3.org/2000/svg">
<path d="M1 257.336L1 0.336243H15L15 257.336H1Z" fill="#C02B53"/>
<path d="M0.0101698 252.174C-0.015883 249.136 0.0119737 245.155 0.0502087 242.129C0.0620673 241.181 0.115075 241.661 0.125648 241.007C0.146258 239.726 0.120261 238.534 0.144813 237.269C0.153209 236.849 0.237174 237.371 0.244056 236.932C0.281163 234.522 0.259777 232.243 0.277625 229.803C0.365685 217.781 0.397205 205.964 0.435461 193.796C0.448004 189.784 0.524206 184.906 0.490881 180.762C0.486916 180.278 0.413216 180.566 0.407141 180.474C0.31415 179.031 0.462935 179.511 0.482702 178.568C0.560754 174.827 0.567542 170.667 0.539099 167.066C0.526782 165.535 0.380395 167.07 0.462561 165.528C0.468112 165.421 0.546377 165.81 0.554724 165.389C0.573498 164.437 0.559509 162.629 0.56571 161.891C0.578057 160.468 0.577269 160.233 0.578161 158.887C0.580061 157.047 0.618966 154.859 0.601232 152.885C0.597215 152.463 0.516985 153.021 0.503332 152.349C0.489702 151.677 0.496505 149.897 0.515417 149.298C0.534339 148.698 0.597399 148.953 0.611852 148.847C0.733849 147.973 0.564884 145.915 0.560705 145.65C0.489506 140.822 0.58576 136.681 0.585485 132.149C0.585073 128.708 0.553296 125.029 0.557653 121.755C0.563155 117.855 0.606631 114.549 0.599157 110.76C0.598461 110.36 0.504129 110.829 0.503088 110.34C0.492111 105.151 0.502394 99.9983 0.566076 94.8316C0.572546 94.3134 0.655368 94.9812 0.666784 94.4635C0.734849 91.294 0.898357 86.279 0.537756 84.3966C0.551837 82.2496 0.566385 79.6432 0.639074 77.7224C0.685858 76.484 0.776084 77.6869 0.737585 76.1656C0.729007 75.8225 0.649991 76.2687 0.643102 75.7541C0.614176 73.5878 0.639861 71.221 0.599035 69.0779C0.590545 68.642 0.519744 68.7611 0.506994 68.6375C0.403741 67.5995 0.574425 65.8716 0.586828 65.4948C0.679315 62.6263 0.642919 60.5315 0.645178 57.8593C0.645741 57.2392 0.550639 57.9722 0.547766 57.3755C0.534136 54.2807 0.54231 51.0748 0.584509 48.0445C0.594124 47.3705 0.675134 47.9903 0.683874 47.6682C0.721424 46.248 0.568417 45.9331 0.601477 44.571C0.60825 44.2838 0.6776 44.4456 0.685217 44.3932C0.804778 43.5734 0.635368 42.8611 0.631628 42.6503C0.580523 39.9829 0.757378 38.2779 0.732336 35.7011C0.729161 35.3929 0.641412 36.088 0.637853 35.2215C0.61363 29.4485 0.637735 23.3429 0.707922 17.6285C0.718716 16.74 0.784634 17.3743 0.79276 17.3184C0.919728 16.4072 0.749606 15.8175 0.7432 15.5279C0.697082 13.2424 0.839748 11.1075 0.637121 9.55466C0.659477 6.47746 0.663224 3.40474 0.663769 0.336243L0.662533 0.00125122L1 0C5.6761 0.000854492 10.3424 -0.00576782 15 0.0346985L15.3004 0.0335999L15.3015 0.336243C15.285 2.23584 15.2607 4.13399 15.2248 6.03075C15.2227 6.1528 15.1389 5.9341 15.1351 6.17755C15.0881 9.10945 15.2183 8.5464 15.3775 10.4864C15.4175 10.9751 15.2252 12.4617 15.2111 12.5932C15.1592 13.0724 15.0346 12.5754 15.0245 12.7359C14.9455 14.0638 15.3577 13.8474 15.3579 15.6387C15.3572 15.6948 15.2813 15.4595 15.2738 15.6098C15.2501 16.0769 15.2802 16.5401 15.2541 16.9971C15.1937 18.0433 14.9934 18.4159 15.11 20.0137C15.1251 20.216 15.3589 19.9071 15.3479 21.5065C15.3433 22.1441 15.3473 24.9664 15.3321 25.7574C15.317 26.5475 15.2416 26.005 15.2384 26.0614C15.1387 28.1901 15.0974 27.3829 14.9499 28.4494C14.803 29.5158 15.1535 29.2201 15.1926 29.6548C15.2316 30.0903 15.1494 31.651 15.1208 32.0346C15.0922 32.4179 15.0443 31.9398 15.0282 32.2806C14.9225 34.5408 15.2021 33.2727 15.2578 34.0174C15.3895 35.7731 15.1296 37.1406 15.1041 38.748C15.0972 39.1829 15.1564 38.828 15.162 39.2153C15.1831 40.7491 15.102 41.6716 15.1764 43.4165C15.1885 43.702 15.3448 45.1127 15.2301 46.0258C15.2135 46.1552 15.1488 45.7877 15.1342 46.4414C15.1125 47.4179 15.0983 49.1774 15.12 50.2271C15.136 51.0021 15.2427 50.1138 15.2096 51.0893C15.1948 51.5228 15.1323 50.7193 15.1097 51.5338C15.0871 52.344 15.0899 54.4155 15.092 55.2038C15.0942 55.9906 15.1752 55.5599 15.1806 55.6235C15.2119 56.0083 15.2509 57.5183 15.2508 57.6518C15.2607 64.3826 15.1242 70.5894 15.1694 77.1427C15.1728 77.657 15.2582 77.3145 15.2596 77.3929C15.2954 79.1535 15.0684 77.7654 14.9924 78.9953C15.1657 78.8176 15.1343 79.5435 15.1533 80.7837C15.1626 81.3814 15.2297 81.0559 15.2365 81.1104C15.3384 81.9967 15.2068 82.6138 15.1799 82.7728C15.0809 83.3597 15.1979 83.9984 15.1317 84.3979C15.066 84.797 14.9686 83.8783 14.9698 85.0677C15.0318 85.4013 15.1939 84.5183 15.2202 85.4213C15.3195 88.8285 15.1924 95.1885 15.1792 97.928C15.166 100.662 15.1774 101.545 15.155 103.138C15.1145 106.016 15.2347 104.961 15.2898 106.748C15.3448 108.54 15.0489 107.669 14.9853 107.927C14.9217 108.18 14.9872 108.456 14.9522 108.77C14.9173 109.084 14.874 108.405 14.8609 109.143C14.8478 109.88 14.9609 111.898 15.0274 112.159C15.1683 112.712 15.3162 111.803 15.2642 113.755C15.2612 113.868 15.1834 113.503 15.1755 113.933C15.1156 117.348 15.1119 120.895 15.0589 124.306C15.0515 124.775 14.965 124.356 14.9597 124.629C14.9043 127.471 15.0503 126.455 15.2124 128.013C14.9966 127.663 14.8646 128.525 14.8634 130.682C14.8625 131.979 14.9567 131.756 15.0232 132.595C15.0432 132.847 14.9785 133.764 15.0228 133.931C15.1676 134.479 15.3298 133.615 15.2652 135.839C15.2622 135.937 15.1829 135.626 15.1781 135.963C15.1466 138.143 15.2981 138.404 15.3165 140.76C15.3309 142.607 15.2385 145.891 15.2235 147.994C14.9809 147.95 15.0365 149.936 15.2037 150.742C15.1969 152.107 15.2063 153.581 15.1832 154.9C15.1753 155.354 15.1051 155.056 15.0975 155.113C14.9785 155.991 15.1412 156.584 15.1475 156.879C15.2096 160.071 15.0862 162.673 15.2068 165.72C15.2111 165.828 15.3796 166.003 15.2566 166.817C15.2481 166.87 15.1714 165.864 15.1655 167.297C15.1596 168.731 15.0692 171.433 15.1473 173.423C15.1661 173.905 15.3029 175.123 15.196 176.101C15.1815 176.231 15.1332 176.089 15.1063 176.277C15.0206 176.884 15.1909 177.216 15.0462 177.931C14.9016 178.645 14.7932 180.131 14.893 182.138C14.8959 182.202 15.0309 182.677 15.0288 183.308C15.0253 184.316 14.9971 185.746 14.998 186.798C14.9985 187.302 15.0823 186.98 15.0838 187.067C15.1308 190.454 15.0561 192.865 15.0236 196.493C15.0175 197.158 15.1318 199.07 15.0415 200.358C14.9426 201.771 14.5311 200.319 14.6291 203.568C14.6683 204.879 15.1903 206.539 14.9199 208.895C14.9869 213.463 14.8485 217.688 14.9442 222.27C14.9484 222.476 15.0941 223.127 15.0921 223.611C15.0889 224.331 15.0208 224.725 15.0163 225.239C14.9958 227.39 15.0541 229.359 15.045 231.433C15.0417 232.221 14.9713 231.945 14.9674 232.885C14.9635 233.823 15.0562 234.449 15.0114 235.721C14.9773 236.682 14.7878 237.642 14.7657 238.918C14.9526 238.966 14.9488 239.842 14.9981 241.399C15.0077 241.698 15.0728 241.377 15.0807 241.519C15.1142 242.095 15.0603 242.628 15.0968 243.175C15.1055 243.308 15.1694 243.314 15.1801 243.423C15.2742 244.348 15.1306 245.872 15.1056 246.134C15.0106 247.137 15.0936 247.605 15.0562 248.375C15.0189 249.143 14.9721 247.994 14.9494 248.892C14.9025 250.752 14.9128 253.141 14.9099 255.03C14.9091 255.784 14.9943 255.27 14.9962 255.378C15.0055 256.047 14.9941 256.719 14.9914 257.336L15 257.328C14.1785 257.324 13.4532 257.336 12.9599 257.433C11.8794 256.994 12.0201 257.476 9.79241 257.388C9.61692 257.381 9.39369 257.173 10.0674 257.143C10.7411 257.112 11.7626 257.177 12.6973 257.13C12.9187 257.119 14.1867 256.924 14.3597 256.912C14.6109 256.895 14.8221 256.892 15 256.898L14.5618 257.336C14.5889 256.554 14.7972 256.416 14.8111 256.358C14.995 255.545 14.7854 253.995 14.771 253.587C14.7046 251.72 14.7482 250.135 14.7009 248.573C14.6703 247.552 14.4671 247.452 14.4734 246.65C14.4939 243.985 14.7773 243.055 14.5316 240.543C14.4792 240.004 14.2571 240.539 14.4317 238.61C14.4427 238.488 14.6025 237.056 14.5014 236.228C14.4887 236.124 14.424 236.127 14.4185 235.99C14.3834 235.071 14.4349 234.458 14.4102 233.457C14.3856 232.456 14.3487 231.253 14.3707 230.11C14.3838 229.421 14.5044 228.537 14.5339 228.208C14.6189 227.277 14.4795 226.279 14.5825 225.702C14.686 225.12 14.8431 226.257 14.91 224.732C14.7419 224.676 14.5693 224.546 14.4002 224.455C14.4062 221.113 14.4605 217.824 14.4531 214.471C14.452 214.055 14.3616 214.48 14.3581 214.035C14.3438 212.154 14.4082 210.512 14.3825 208.562C14.3623 207.052 14.2666 205.397 14.2425 203.819C14.4349 202.855 14.3696 200.512 14.3872 198.811C14.3932 198.215 14.4446 198.255 14.4614 197.831C14.5234 196.232 14.3534 196.981 14.3266 196.543C14.2124 194.662 14.5972 194.501 14.5877 192.284C14.5874 192.166 14.3822 190.73 14.3695 190.532C14.2862 189.276 14.4409 190.324 14.456 189.538C14.4837 188.102 14.5327 187.104 14.4726 185.419C14.4548 184.928 14.327 183.75 14.4259 182.796C14.4388 182.67 14.5066 182.739 14.5106 182.638C14.5768 180.81 14.3637 180.762 14.2916 179.717C14.2195 178.672 14.3665 177.058 14.4089 176.729C14.5185 175.87 14.4558 177.388 14.4665 177.434C14.5946 177.981 14.5725 176.804 14.5833 175.904C14.7922 175.774 14.7797 174.516 14.5937 174.972C14.5734 175.024 14.5929 175.724 14.5833 175.904C14.3784 175.115 14.3522 173.732 14.5437 172.205C14.6334 171.491 14.7381 172.166 14.6998 169.995C14.6825 169.01 14.5387 169.391 14.4995 168.521C14.41 166.534 14.5442 163.953 14.523 161.905C14.5154 161.162 14.4366 161.886 14.4287 161.378C14.4073 160.029 14.4664 158.84 14.4361 157.486C14.4333 157.364 14.3509 157.664 14.3498 157.242C14.3403 154.051 14.393 151.271 14.3945 147.938C14.3952 146.328 14.3497 143.449 14.3589 141.781C14.3742 138.89 14.494 135.334 14.4649 132.864C14.4463 131.253 14.3639 131.606 14.3077 130.916C14.1988 129.584 14.3938 127.227 14.424 126.909C14.425 126.899 14.4445 128.286 14.4868 127.546C14.5749 127.116 14.4244 126.925 14.424 126.909C14.4435 126.701 14.4623 123.932 14.4465 123.382C14.4379 123.083 14.3598 123.25 14.3568 123.094C14.2869 119.392 14.267 115.683 14.3036 111.928C14.3051 111.861 14.3925 111.961 14.3951 111.806C14.4339 109.632 14.3271 108.239 14.2636 106.446C14.2002 104.654 14.2215 103.232 14.3714 102.171C14.3525 100.818 14.4188 98.8773 14.4591 97.7606C14.4993 96.6438 14.3293 96.488 14.3259 96.3898C14.2183 93.325 14.3156 91.5534 14.3308 88.3738C14.3383 86.8622 14.3136 83.8636 14.295 82.2269C14.28 80.9334 14.3199 80.1541 14.2944 78.9622C14.291 78.801 14.2153 78.9639 14.2124 78.9147C14.1218 77.5845 14.3069 78.2237 14.3399 77.9491C14.4601 76.9534 14.5242 76.3382 14.4676 74.6348C14.4547 74.2419 14.1882 73.0974 14.1726 72.3811C14.1528 71.4499 14.2483 71.8014 14.2252 70.8263C14.2233 70.7429 14.1644 70.7603 14.167 70.1585C14.1782 67.3651 14.2125 64.3197 14.2066 61.4168C14.2061 61.0203 14.1126 61.5287 14.1102 60.9557C14.0991 58.2675 14.1026 55.321 14.1463 52.702C14.1574 52.0574 14.2228 52.4615 14.2423 52.3216C14.3599 51.4625 14.189 50.2441 14.1858 50.0431C14.1037 45.248 14.2583 41.5781 14.1847 36.6908C14.1803 36.4247 13.9972 34.3769 14.1543 33.4633C14.1647 33.4007 14.3254 32.4968 14.2155 31.6976C14.2087 31.6479 14.1259 32.2112 14.1344 31.2282C14.1428 30.2453 14.0875 28.6634 14.1784 27.3123C14.2071 26.8845 14.3674 25.8735 14.2396 24.5975C14.2307 24.5144 13.9417 22.5446 14.1411 21.8415C14.1739 21.7275 14.3849 21.8468 14.2767 20.3239C14.2557 20.0329 14.2087 20.5611 14.1793 19.7946C14.134 18.6201 14.1905 17.0639 14.0965 15.6201C14.0799 15.3683 13.9367 14.2965 14.0454 13.4368C14.0624 13.3021 14.1328 13.558 14.1407 13.1039C14.1785 10.9448 14.1314 8.68402 14.1801 6.49182C14.1973 5.71535 14.3111 6.11232 14.3416 5.30296C14.3721 4.49338 14.4015 2.86255 14.3495 2.01553C14.2974 1.1683 14.1159 2.09381 14.1014 0.824615C14.0995 0.661774 14.0978 0.498993 14.0963 0.336243L15 1.23999C10.3175 1.28522 5.67033 1.21381 1 1.18509L1.84885 0.336243C1.84475 1.00391 1.84152 1.67212 1.83963 2.3409C1.83731 3.15808 1.90224 2.48064 1.90347 3.68481C1.90831 8.12459 1.96919 15.7899 1.83121 19.6423C1.72069 22.7291 1.63656 18.8446 1.59159 21.2033C1.57013 22.3416 1.78111 23.573 1.78775 23.8478C1.85522 26.532 1.76176 28.3975 1.79044 30.8134C1.79639 31.3123 1.8819 30.823 1.88602 31.2476C1.90085 32.6979 1.86268 34.2222 1.86966 35.6081C1.87299 36.2298 1.9383 36.1153 1.93326 36.6874C1.92195 38.0563 1.8945 39.2668 1.83328 40.6013C1.82771 40.7229 1.74646 39.9028 1.74344 40.9156C1.73878 42.5547 1.67839 44.5894 1.74076 46.4753C1.75951 47.0348 1.90878 47.0568 1.8057 48.2596C1.78417 48.5119 1.60493 48.19 1.7598 49.5911C1.78553 49.8267 1.99442 52.1804 1.85977 53.3354C1.82434 53.6401 1.67767 54.4179 1.70072 55.0908C1.70439 55.1821 1.78457 54.8165 1.79239 55.3741C1.81856 57.3392 1.81 59.3987 1.83512 61.4176C1.84198 61.9567 1.92495 61.1537 1.93253 61.9572C1.9535 64.1668 1.93237 66.9255 1.9064 69.0862C1.89667 69.8828 1.82795 69.3322 1.82047 69.3901C1.69882 70.3222 1.86302 70.8734 1.87259 71.1827C1.92992 73.1068 1.85279 74.5719 1.8732 76.3454C1.87863 76.8349 1.95692 76.4878 1.9639 76.5853C2.03211 77.5957 1.89151 76.843 1.87601 77.4826C1.83212 79.2743 1.83842 81.2717 1.84842 83.0836C1.85221 83.7492 1.94299 83.0012 1.94534 83.5985C1.96099 87.1337 1.9523 90.8088 1.90225 94.2589C1.89267 94.9085 1.82276 94.4998 1.80679 94.6352C1.69509 95.5683 1.84746 96.9359 1.86197 97.2506C1.92824 98.6815 1.86642 99.2373 1.87796 100.501C1.93541 106.674 1.89447 114.295 1.86917 120.122C1.83662 127.715 1.77012 133.607 1.78739 140.847C1.7884 141.308 1.88139 140.844 1.88345 141.24C1.90587 146.362 1.86953 151.404 1.89639 156.536C1.89843 156.957 1.98659 156.35 1.99283 157.026C2.00624 158.413 2.00145 160.169 1.9733 161.571C1.95974 162.254 1.88409 161.337 1.87198 162.026C1.84362 163.628 1.83734 165.346 1.85147 166.992C1.85768 167.692 1.94784 166.635 1.94888 167.546C1.95783 173.748 1.97336 179.839 1.8566 186.107C1.84858 186.536 1.66533 186.913 1.70047 187.827C1.75133 187.896 1.81115 187.892 1.86551 187.922C1.89479 196.95 1.83127 205.887 1.82144 214.941C1.82105 215.323 1.91815 214.663 1.91788 215.402C1.91644 219.679 1.94334 223.833 1.84683 228.208C1.8374 228.643 1.66658 228.42 1.69242 229.699C1.69713 229.925 1.71991 231.852 1.75699 232.35C1.76258 232.417 1.84231 232.066 1.84464 232.687C1.85674 236.295 1.83854 240.076 1.78983 243.678C1.78181 244.259 1.69691 243.64 1.69046 244.054C1.64539 246.991 1.70993 250.186 1.63285 252.992C1.58094 254.871 1.43417 254.175 1.28971 255.174C1.26932 255.315 1.26609 256.478 1.18204 256.538C0.970681 256.693 0.739242 256.129 0.513952 256.36C0.465427 256.409 0.517692 257.967 0.400427 257.045C0.392579 256.98 0.35366 255.851 0.31388 255.573C0.286376 255.379 0.200894 255.728 0.165687 255.333C0.130513 254.938 0.202169 254.504 0.160804 253.848C0.118927 253.194 0.0216813 253.481 0.0101698 252.174ZM14.6389 92.7322C14.7205 91.6982 14.4214 91.5456 14.493 92.664C14.4968 92.7181 14.6349 92.7856 14.6389 92.7322ZM14.6861 217.843C14.818 216.491 14.6241 215.566 14.5222 216.52C14.4204 217.473 14.6461 218.255 14.6861 217.843ZM14.7824 231.861C14.8865 230.281 14.4623 230.032 14.5481 231.725C14.5529 231.823 14.7764 231.953 14.7824 231.861ZM1.24857 250.544C1.2446 250.559 1.24073 251.395 1.24466 251.415C1.33965 251.86 1.34733 250.188 1.24857 250.544ZM14.8873 245.772C14.9447 245.278 14.8784 243.858 14.8071 244.471C14.7497 244.965 14.8159 246.386 14.8873 245.772ZM14.9581 38.7914C14.9626 38.7751 14.9666 38.1756 14.9414 38.1877C14.8602 38.2284 14.8831 39.0626 14.9581 38.7914ZM2.92187 257.228C6.41497 257.244 8.53287 257.595 4.72893 257.555C4.04007 257.548 6.21357 257.443 5.33679 257.412C3.73249 257.354 2.6672 257.574 1.03004 257.456C0.733671 257.435 2.72261 257.227 2.92807 257.228C2.92601 257.228 2.92394 257.228 2.92187 257.228ZM14.9981 92.1368C15.0021 92.1161 15.0058 91.2862 15.0019 91.2663C14.907 90.8169 14.8994 92.4888 14.9981 92.1368ZM15.143 3.81018C15.1515 3.76437 15.1593 1.8385 15.1516 1.7757C14.9963 0.771027 14.9799 4.66464 15.143 3.81018ZM15.217 148.027C15.3125 148.933 15.3238 150.016 15.2038 150.738C15.2102 149.838 15.2111 148.932 15.217 148.027Z" fill="black"/>
</svg>
