<svg width="176" height="16" viewBox="0 0 176 16" fill="none" xmlns="http://www.w3.org/2000/svg">
<path d="M0.222168 1H175.222V15H0.222168V1Z" fill="#C02B53"/>
<path d="M3.82264 0.0101698C5.94085 -0.015883 8.71747 0.0119737 10.8277 0.0502087C11.489 0.0620673 11.1541 0.115075 11.6107 0.125648C12.5035 0.146258 13.3354 0.120261 14.2177 0.144813C14.5101 0.153209 14.1461 0.237174 14.4528 0.244056C16.133 0.281163 17.7225 0.259777 19.4246 0.277625C27.8086 0.365685 36.0498 0.397205 44.5363 0.435461C47.3346 0.448004 50.7362 0.524206 53.6264 0.490881C53.9638 0.486916 53.7627 0.413216 53.8269 0.407141C54.8337 0.31415 54.499 0.462935 55.1564 0.482702C57.7655 0.560754 60.667 0.567542 63.178 0.539099C64.2463 0.526782 63.1751 0.380395 64.2508 0.462561C64.3255 0.468112 64.0544 0.546377 64.3474 0.554724C65.0118 0.573498 66.2723 0.559509 66.7872 0.56571C67.7796 0.578057 67.9437 0.577269 68.8824 0.578161C70.1655 0.580061 71.6917 0.618966 73.0684 0.601232C73.3622 0.597215 72.9732 0.516985 73.4418 0.503332C73.9109 0.489702 75.1518 0.496505 75.5702 0.515417C75.9886 0.534339 75.8105 0.597399 75.8845 0.611852C76.4937 0.733849 77.9292 0.564884 78.1138 0.560705C81.4812 0.489506 84.3689 0.58576 87.5298 0.585485C89.9294 0.585073 92.4952 0.553296 94.7785 0.557653C97.4987 0.563155 99.8042 0.606631 102.447 0.599157C102.726 0.598461 102.399 0.504129 102.74 0.503088C106.359 0.492111 109.952 0.502394 113.556 0.566076C113.917 0.572546 113.451 0.655368 113.812 0.666784C116.023 0.734849 119.52 0.898357 120.833 0.537756C122.331 0.551837 124.148 0.566385 125.488 0.639074C126.352 0.685858 125.513 0.776084 126.574 0.737585C126.813 0.729007 126.502 0.649991 126.861 0.643102C128.371 0.614176 130.022 0.639861 131.517 0.599035C131.821 0.590545 131.738 0.519744 131.824 0.506994C132.548 0.403741 133.753 0.574425 134.016 0.586828C136.016 0.679315 137.477 0.642919 139.341 0.645178C139.773 0.645741 139.262 0.550639 139.678 0.547766C141.837 0.534136 144.072 0.54231 146.186 0.584509C146.656 0.594124 146.224 0.675134 146.448 0.683874C147.439 0.721424 147.658 0.568417 148.608 0.601477C148.809 0.60825 148.696 0.6776 148.732 0.685217C149.304 0.804778 149.801 0.635368 149.948 0.631628C151.808 0.580523 152.997 0.757378 154.794 0.732336C155.009 0.729161 154.524 0.641412 155.129 0.637853C159.155 0.61363 163.413 0.637735 167.398 0.707922C168.018 0.718716 167.576 0.784634 167.615 0.79276C168.25 0.919728 168.661 0.749606 168.863 0.7432C170.457 0.697082 171.946 0.839748 173.029 0.637121C173.761 0.644739 174.492 0.650197 175.222 0.654103L175.566 0.652282L175.568 1C175.543 5.68058 175.582 10.3466 175.524 15L175.525 15.2999L175.222 15.3015C173.897 15.285 172.574 15.2607 171.251 15.2248C171.166 15.2227 171.318 15.1389 171.148 15.1351C169.104 15.0881 169.496 15.2183 168.143 15.3775C167.802 15.4175 166.766 15.2252 166.674 15.2111C166.34 15.1592 166.686 15.0346 166.574 15.0245C165.648 14.9455 165.799 15.3577 164.55 15.3579C164.511 15.3572 164.675 15.2813 164.57 15.2738C164.244 15.2501 163.921 15.2802 163.603 15.2541C162.873 15.1937 162.613 14.9934 161.499 15.11C161.358 15.1251 161.573 15.3589 160.458 15.3479C160.013 15.3433 158.045 15.3473 157.493 15.3321C156.942 15.317 157.32 15.2416 157.281 15.2384C155.796 15.1387 156.359 15.0974 155.616 14.9499C154.872 14.803 155.078 15.1535 154.775 15.1926C154.471 15.2316 153.383 15.1494 153.115 15.1208C152.848 15.0922 153.181 15.0443 152.944 15.0282C151.367 14.9225 152.252 15.2021 151.732 15.2578C150.508 15.3895 149.554 15.1296 148.433 15.1041C148.13 15.0972 148.377 15.1564 148.107 15.162C147.038 15.1831 146.394 15.102 145.177 15.1764C144.978 15.1885 143.994 15.3448 143.357 15.2301C143.267 15.2135 143.524 15.1488 143.068 15.1342C142.387 15.1125 141.16 15.0983 140.427 15.12C139.887 15.136 140.506 15.2427 139.826 15.2096C139.524 15.1948 140.084 15.1323 139.516 15.1097C138.951 15.0871 137.506 15.0899 136.957 15.092C136.408 15.0942 136.708 15.1752 136.664 15.1806C136.396 15.2119 135.342 15.2509 135.249 15.2508C130.555 15.2607 126.226 15.1242 121.656 15.1694C121.297 15.1728 121.536 15.2582 121.482 15.2596C120.254 15.2954 121.222 15.0684 120.364 14.9924C120.488 15.1657 119.982 15.1343 119.117 15.1533C118.7 15.1626 118.927 15.2297 118.889 15.2365C118.271 15.3384 117.84 15.2068 117.73 15.1799C117.32 15.0809 116.875 15.1979 116.596 15.1317C116.318 15.066 116.958 14.9686 116.129 14.9698C115.896 15.0318 116.512 15.1939 115.882 15.2202C113.506 15.3195 109.071 15.1924 107.16 15.1792C105.253 15.166 104.637 15.1774 103.526 15.155C101.519 15.1145 102.255 15.2347 101.009 15.2898C99.7588 15.3448 100.366 15.0489 100.187 14.9853C100.01 14.9217 99.8177 14.9872 99.5984 14.9522C99.3797 14.9173 99.8531 14.874 99.3388 14.8609C98.8242 14.8478 97.4174 14.9609 97.235 15.0274C96.8494 15.1683 97.4834 15.3162 96.1218 15.2642C96.0435 15.2612 96.2976 15.1834 95.9978 15.1755C93.6162 15.1156 91.1421 15.1119 88.7635 15.0589C88.4364 15.0515 88.7289 14.965 88.5385 14.9597C86.556 14.9043 87.2647 15.0503 86.1781 15.2124C86.422 14.9966 85.8211 14.8646 84.3165 14.8634C83.412 14.8625 83.5677 14.9567 82.9827 15.0232C82.8072 15.0432 82.1671 14.9785 82.0512 15.0228C81.6687 15.1676 82.2716 15.3298 80.7202 15.2652C80.6522 15.2622 80.8689 15.1829 80.6337 15.1781C79.1135 15.1466 78.9316 15.2981 77.2884 15.3165C76.0003 15.3309 73.7096 15.2385 72.243 15.2235C72.2738 14.9809 70.8885 15.0365 70.3266 15.2037C69.3748 15.1969 68.3467 15.2063 67.4268 15.1832C67.1102 15.1753 67.3182 15.1051 67.2783 15.0975C66.6661 14.9785 66.2523 15.1412 66.0469 15.1475C63.8202 15.2096 62.0061 15.0862 59.8811 15.2068C59.8056 15.2111 59.6834 15.3796 59.1154 15.2566C59.0786 15.2481 59.7805 15.1714 58.7808 15.1655C57.781 15.1596 55.8963 15.0692 54.5083 15.1473C54.1724 15.1661 53.3229 15.3029 52.641 15.196C52.5502 15.1815 52.6495 15.1332 52.5184 15.1063C52.0945 15.0206 51.8631 15.1909 51.3648 15.0462C50.8666 14.9016 49.8302 14.7932 48.4305 14.893C48.3859 14.8959 48.0545 15.0309 47.6143 15.0288C46.9116 15.0253 45.914 14.9971 45.1803 14.998C44.829 14.9985 45.0538 15.0823 44.9928 15.0838C42.6307 15.1308 40.9495 15.0561 38.4189 15.0236C37.9551 15.0175 36.622 15.1318 35.7239 15.0415C34.7378 14.9426 35.7511 14.5311 33.4846 14.6291C32.5704 14.6683 31.413 15.1903 29.7701 14.9199C26.5838 14.9869 23.6372 14.8485 20.442 14.9442C20.2984 14.9484 19.844 15.0941 19.5062 15.0921C19.0047 15.0889 18.7295 15.0208 18.3714 15.0163C16.871 14.9958 15.4979 15.0541 14.0513 15.045C13.5021 15.0417 13.6941 14.9713 13.039 14.9674C12.3844 14.9635 11.9478 15.0562 11.0607 15.0114C10.3906 14.9773 9.72075 14.7878 8.83141 14.7657C8.79751 14.9526 8.18668 14.9488 7.10104 14.9981C6.89238 15.0077 7.11613 15.0728 7.01742 15.0807C6.61566 15.1142 6.24386 15.0603 5.86241 15.0968C5.7696 15.1055 5.76524 15.1694 5.68937 15.1801C5.04429 15.2742 3.98151 15.1306 3.79897 15.1056C3.09938 15.0106 2.77247 15.0936 2.23589 15.0562C1.70016 15.0189 2.50117 14.9721 1.8754 14.9494C1.36669 14.931 0.801163 14.9214 0.222168 14.9164L0.305792 15C0.313617 14.1026 0.310507 13.1728 0.31229 12.3721C0.313067 11.8464 0.227855 12.205 0.225987 12.1298C0.204375 11.0429 0.295016 9.94373 0.125279 9.34105C0.564156 8.58745 0.0827106 8.68562 0.170567 7.13197C0.177673 7.00959 0.385215 6.8539 0.415684 7.32375C0.446124 7.79359 0.38125 8.50605 0.428745 9.15793C0.439891 9.3123 0.634371 10.1966 0.646152 10.3173C0.738222 11.2624 0.428079 11.3963 0.411045 11.4463C0.227214 12.0133 0.436729 13.094 0.451206 13.3785C0.480423 13.9519 0.48831 14.4873 0.492035 15L0.222168 14.7301C0.873496 14.7254 1.48817 14.7274 2.09746 14.7009C2.80962 14.6703 2.87925 14.4671 3.43848 14.4734C5.29741 14.4939 5.94629 14.7773 7.69803 14.5316C8.07364 14.4792 7.70038 14.2571 9.04625 14.4317C9.13083 14.4427 10.1301 14.6025 10.7074 14.5014C10.7799 14.4887 10.7776 14.424 10.8732 14.4185C11.5141 14.3834 11.9415 14.4349 12.6396 14.4102C13.3377 14.3856 14.1771 14.3487 14.9742 14.3707C15.4545 14.3838 16.0708 14.5044 16.3008 14.5339C16.95 14.6189 17.6461 14.4795 18.0484 14.5825C18.454 14.686 17.661 14.8431 18.7247 14.91C18.764 14.7419 18.8546 14.5693 18.9179 14.4002C21.2489 14.4062 23.5424 14.4605 25.8811 14.4531C26.171 14.452 25.8745 14.3616 26.1854 14.3581C27.4968 14.3438 28.6422 14.4082 30.0022 14.3825C31.055 14.3623 32.2093 14.2666 33.3101 14.2425C33.9825 14.4349 35.616 14.3696 36.8025 14.3872C37.2182 14.3932 37.1904 14.4446 37.486 14.4614C38.6012 14.5234 38.0786 14.3534 38.3843 14.3266C39.696 14.2124 39.8083 14.5972 41.3548 14.5877C41.4367 14.5874 42.4382 14.3822 42.5761 14.3695C43.4525 14.2862 42.7212 14.4409 43.2697 14.456C44.2712 14.4837 44.9671 14.5327 46.1421 14.4726C46.4847 14.4548 47.3066 14.327 47.9719 14.4259C48.0594 14.4388 48.0111 14.5066 48.0815 14.5106C49.3567 14.5768 49.3903 14.3637 50.119 14.2916C50.8479 14.2195 51.9735 14.3665 52.2026 14.4089C52.802 14.5185 51.7434 14.4558 51.7109 14.4665C51.3297 14.5946 52.1506 14.5725 52.778 14.5833C52.8688 14.7922 53.7461 14.7797 53.4283 14.5937C53.3921 14.5734 52.904 14.5929 52.778 14.5833C53.3286 14.3784 54.2927 14.3522 55.3576 14.5437C55.8561 14.6334 55.3849 14.7381 56.8991 14.6998C57.5863 14.6825 57.3208 14.5387 57.9272 14.4995C59.3127 14.41 61.1131 14.5442 62.5415 14.523C63.0599 14.5154 62.5549 14.4366 62.9092 14.4287C63.8494 14.4073 64.6786 14.4664 65.6229 14.4361C65.7085 14.4333 65.4995 14.3509 65.7931 14.3498C68.0192 14.3403 69.9576 14.393 72.2819 14.3945C73.4049 14.3952 75.4127 14.3497 76.576 14.3589C78.5923 14.3742 81.0728 14.494 82.7952 14.4649C83.9186 14.4463 83.6722 14.3639 84.1535 14.3077C85.0824 14.1988 86.7267 14.3938 86.9481 14.424C86.9548 14.425 85.9881 14.4445 86.5039 14.4868C86.8038 14.5749 86.9372 14.4244 86.9481 14.424C87.0935 14.4435 89.0246 14.4623 89.408 14.4465C89.6164 14.4379 89.4998 14.3598 89.6085 14.3568C92.1907 14.2869 94.7775 14.267 97.3965 14.3036C97.4426 14.3051 97.3731 14.3925 97.4816 14.3951C98.9978 14.4339 99.9686 14.3271 101.219 14.2636C102.469 14.2002 103.461 14.2215 104.201 14.3714C105.144 14.3525 106.498 14.4188 107.277 14.4591C108.056 14.4993 108.164 14.3293 108.233 14.3259C110.37 14.2183 111.606 14.3156 113.823 14.3308C114.878 14.3383 116.969 14.3136 118.11 14.295C119.012 14.28 119.556 14.3199 120.387 14.2944C120.5 14.291 120.386 14.2153 120.42 14.2124C121.348 14.1218 120.902 14.3069 121.094 14.3399C121.788 14.4601 122.217 14.5242 123.405 14.4676C123.679 14.4547 124.477 14.1882 124.977 14.1726C125.626 14.1528 125.381 14.2483 126.061 14.2252C126.119 14.2233 126.107 14.1644 126.527 14.167C128.475 14.1782 130.599 14.2125 132.624 14.2066C132.9 14.2061 132.546 14.1126 132.945 14.1102C134.82 14.0991 136.875 14.1026 138.701 14.1463C139.151 14.1574 138.869 14.2228 138.967 14.2423C139.566 14.3599 140.416 14.189 140.556 14.1858C143.9 14.1037 146.459 14.2583 149.868 14.1847C150.053 14.1803 151.482 13.9972 152.119 14.1543C152.162 14.1647 152.793 14.3254 153.35 14.2155C153.385 14.2087 152.992 14.1259 153.678 14.1344C154.363 14.1428 155.466 14.0875 156.409 14.1784C156.707 14.2071 157.412 14.3674 158.302 14.2396C158.36 14.2307 159.734 13.9417 160.224 14.1411C160.304 14.1739 160.22 14.3849 161.282 14.2767C161.485 14.2557 161.117 14.2087 161.652 14.1793C162.471 14.134 163.556 14.1905 164.563 14.0965C164.739 14.0799 165.486 13.9367 166.086 14.0454C166.18 14.0624 166.001 14.1328 166.318 14.1407C167.824 14.1785 169.4 14.1314 170.929 14.1801C171.471 14.1973 171.194 14.3111 171.758 14.3416C172.323 14.3721 173.46 14.4015 174.051 14.3495C174.642 14.2974 173.996 14.1159 174.882 14.1014C174.995 14.0995 175.109 14.0978 175.222 14.0963L174.318 15C174.267 11.2675 174.367 7.56713 174.383 3.83808C174.385 3.26818 174.32 3.74064 174.319 2.90081C174.318 2.3328 174.315 1.6891 174.312 1L175.222 1.91022C172.155 1.92395 168.188 1.94388 165.994 1.83121C163.841 1.72069 166.55 1.63656 164.905 1.59159C164.111 1.57013 163.253 1.78111 163.061 1.78775C161.189 1.85522 159.888 1.76176 158.203 1.79044C157.855 1.79639 158.196 1.8819 157.9 1.88602C156.889 1.90085 155.826 1.86268 154.859 1.86966C154.426 1.87299 154.505 1.9383 154.106 1.93326C153.152 1.92195 152.308 1.8945 151.377 1.83328C151.292 1.82771 151.864 1.74646 151.158 1.74344C150.014 1.73878 148.595 1.67839 147.28 1.74076C146.89 1.75951 146.875 1.90878 146.036 1.8057C145.86 1.78417 146.084 1.60493 145.107 1.7598C144.943 1.78553 143.301 1.99442 142.496 1.85977C142.283 1.82434 141.741 1.67767 141.272 1.70072C141.208 1.70439 141.463 1.78457 141.074 1.79239C139.703 1.81856 138.267 1.81 136.859 1.83512C136.483 1.84198 137.043 1.92495 136.483 1.93253C134.942 1.9535 133.018 1.93237 131.511 1.9064C130.955 1.89667 131.339 1.82795 131.299 1.82047C130.649 1.69882 130.265 1.86302 130.049 1.87259C128.707 1.92992 127.685 1.85279 126.448 1.8732C126.107 1.87863 126.349 1.95692 126.281 1.9639C125.576 2.03211 126.101 1.89151 125.655 1.87601C124.406 1.83212 123.013 1.83842 121.749 1.84842C121.285 1.85221 121.806 1.94299 121.39 1.94534C118.924 1.96099 116.361 1.9523 113.955 1.90225C113.502 1.89267 113.787 1.82276 113.693 1.80679C113.042 1.69509 112.088 1.84746 111.869 1.86197C110.871 1.92824 110.483 1.86642 109.602 1.87796C105.297 1.93541 99.9813 1.89447 95.9176 1.86917C90.6223 1.83662 86.5132 1.77012 81.4634 1.78739C81.1425 1.7884 81.4661 1.88139 81.1895 1.88345C77.6175 1.90587 74.101 1.86953 70.5219 1.89639C70.2282 1.89843 70.6515 1.98659 70.1801 1.99283C69.2132 2.00624 67.9883 2.00145 67.0107 1.9733C66.5339 1.95974 67.1735 1.88409 66.6935 1.87198C65.5759 1.84362 64.3779 1.83734 63.2299 1.85147C62.7414 1.85768 63.4784 1.94784 62.8434 1.94888C58.518 1.95783 54.27 1.97336 49.899 1.8566C49.5993 1.84858 49.3364 1.66533 48.6993 1.70047C48.6513 1.75133 48.6539 1.81115 48.6329 1.86551C42.3362 1.89479 36.1038 1.83127 29.7894 1.82144C29.5232 1.82105 29.9833 1.91815 29.4679 1.91788C26.4847 1.91644 23.5878 1.94334 20.5364 1.84683C20.2336 1.8374 20.389 1.66658 19.4967 1.69242C19.3394 1.69713 17.9956 1.71991 17.6481 1.75699C17.6009 1.76258 17.8461 1.84231 17.4131 1.84464C14.8967 1.85674 12.2597 1.83854 9.74765 1.78983C9.34223 1.78181 9.77397 1.69691 9.48521 1.69046C7.43689 1.64539 5.20889 1.70993 3.25162 1.63285C1.94149 1.58094 2.42654 1.43417 1.73036 1.28971C1.63189 1.26932 0.820617 1.26609 0.778664 1.18204C0.670957 0.970681 1.06391 0.739242 0.902672 0.513952C0.868607 0.465427 -0.217894 0.517692 0.425384 0.400427C0.470324 0.392579 1.25804 0.35366 1.45206 0.31388C1.58714 0.286376 1.34372 0.200894 1.61933 0.165687C1.89491 0.130513 2.19774 0.202169 2.65465 0.160804C3.11136 0.118927 2.91054 0.0216813 3.82264 0.0101698ZM110.784 14.6389C111.505 14.7205 111.611 14.4214 110.831 14.493C110.793 14.4968 110.746 14.6349 110.784 14.6389ZM23.5293 14.6861C24.4721 14.818 25.1172 14.6241 24.4521 14.5222C23.7871 14.4204 23.2421 14.6461 23.5293 14.6861ZM13.7528 14.7824C14.8547 14.8865 15.0282 14.4623 13.848 14.5481C13.7793 14.5529 13.6884 14.7764 13.7528 14.7824ZM4.9589 1.24857C4.94895 1.2446 4.36577 1.24073 4.35184 1.24466C4.04131 1.33965 5.20742 1.34733 4.9589 1.24857ZM4.05132 14.8873C4.39525 14.9447 5.38573 14.8784 4.9583 14.8071C4.61426 14.7497 3.62289 14.8159 4.05132 14.8873ZM148.403 14.9581C148.414 14.9626 148.832 14.9666 148.824 14.9414C148.796 14.8602 148.214 14.8831 148.403 14.9581ZM0.329991 2.34035C0.314026 4.77649 -0.0363243 6.25355 0.00320937 3.60062C0.0103621 3.1202 0.114933 4.63603 0.146519 4.02455C0.204064 2.90568 -0.0159129 2.16274 0.101964 1.02095C0.123539 0.814257 0.33168 2.20138 0.330479 2.34467C0.330316 2.34323 0.330153 2.34179 0.329991 2.34035ZM111.199 14.9981C111.213 15.0021 111.792 15.0058 111.806 15.0019C112.119 14.907 110.953 14.8994 111.199 14.9981ZM172.799 15.143C172.831 15.1515 174.174 15.1593 174.218 15.1516C174.919 14.9963 172.203 14.9799 172.799 15.143ZM72.2199 15.217C71.5884 15.3125 70.8329 15.3238 70.3295 15.2038C70.9571 15.2102 71.5889 15.2111 72.2199 15.217Z" fill="black"/>
</svg>
