<svg width="16" height="244" viewBox="0 0 16 244" fill="none" xmlns="http://www.w3.org/2000/svg">
<path d="M1 243.336L1 0.336426H15L15 243.336H1Z" fill="#C02B53"/>
<path d="M0.0101698 238.441C-0.015883 235.56 0.0119737 231.785 0.0502087 228.915C0.0620673 228.016 0.115075 228.471 0.125648 227.85C0.146258 226.636 0.120261 225.505 0.144813 224.305C0.153209 223.908 0.237174 224.403 0.244056 223.986C0.281163 221.701 0.259777 219.54 0.277625 217.225C0.365685 205.825 0.397205 194.618 0.435461 183.079C0.448004 179.274 0.524206 174.648 0.490881 170.718C0.486916 170.259 0.413216 170.533 0.407141 170.445C0.31415 169.076 0.462935 169.531 0.482702 168.638C0.560754 165.09 0.567542 161.144 0.539099 157.73C0.526782 156.277 0.380395 157.734 0.462561 156.271C0.468112 156.169 0.546377 156.538 0.554724 156.14C0.573498 155.236 0.559509 153.522 0.56571 152.822C0.578057 151.473 0.577269 151.249 0.578161 149.973C0.580061 148.228 0.618966 146.153 0.601232 144.281C0.597215 143.881 0.516985 144.41 0.503332 143.773C0.489702 143.135 0.496505 141.448 0.515417 140.879C0.534339 140.31 0.597399 140.552 0.611852 140.452C0.733849 139.623 0.564884 137.671 0.560705 137.42C0.489506 132.841 0.58576 128.915 0.585485 124.617C0.585073 121.354 0.553296 117.865 0.557653 114.76C0.563155 111.061 0.606631 107.926 0.599157 104.333C0.598461 103.953 0.504129 104.398 0.503088 103.934C0.492111 99.0134 0.502394 94.1267 0.566076 89.2268C0.572546 88.7354 0.655368 89.3687 0.666784 88.8778C0.734849 85.872 0.898357 81.1161 0.537756 79.3309C0.551837 77.2948 0.566385 74.8231 0.639074 73.0016C0.685858 71.8271 0.776084 72.9678 0.737585 71.5251C0.729007 71.1998 0.649991 71.6229 0.643102 71.1349C0.614176 69.0805 0.639861 66.836 0.599035 64.8036C0.590545 64.3902 0.519744 64.5032 0.506994 64.386C0.403741 63.4016 0.574425 61.7629 0.586828 61.4056C0.679315 58.6853 0.642919 56.6988 0.645178 54.1646C0.645741 53.5765 0.550639 54.2716 0.547766 53.7057C0.534136 50.7708 0.54231 47.7306 0.584509 44.8568C0.594124 44.2176 0.675134 44.8054 0.683874 44.5C0.721424 43.1531 0.568417 42.8545 0.601477 41.5628C0.60825 41.2904 0.6776 41.4439 0.685217 41.3941C0.804778 40.6167 0.635368 39.9412 0.631628 39.7412C0.580523 37.2117 0.757378 35.5948 0.732336 33.1511C0.729161 32.8588 0.641412 33.518 0.637853 32.6962C0.61363 27.2215 0.637735 21.4312 0.707922 16.0121C0.718716 15.1695 0.784634 15.771 0.79276 15.718C0.919728 14.8539 0.749606 14.2947 0.7432 14.02C0.697082 11.8526 0.839748 9.82796 0.637121 8.35536C0.657625 5.67886 0.662476 3.00598 0.663559 0.336426L0.662255 0.001297L1 -1.52588e-05C5.67665 0.00187683 10.3429 -0.00778198 15 0.0348969L15.3004 0.0337219L15.3015 0.336426C15.285 2.13789 15.2607 3.93799 15.2248 5.73676C15.2227 5.85249 15.1389 5.64508 15.1351 5.87596C15.0881 8.65642 15.2183 8.12245 15.3775 9.96219C15.4175 10.4256 15.2252 11.8354 15.2111 11.9602C15.1592 12.4147 15.0346 11.9433 15.0245 12.0955C14.9455 13.3548 15.3577 13.1496 15.3579 14.8484C15.3572 14.9016 15.2813 14.6784 15.2738 14.8209C15.2501 15.2639 15.2802 15.7032 15.2541 16.1366C15.1937 17.1287 14.9934 17.4821 15.11 18.9974C15.1251 19.1891 15.3589 18.8963 15.3479 20.413C15.3433 21.0177 15.3473 23.6942 15.3321 24.4444C15.317 25.1936 15.2416 24.6792 15.2384 24.7326C15.1387 26.7513 15.0974 25.9858 14.9499 26.9973C14.803 28.0085 15.1535 27.7281 15.1926 28.1404C15.2316 28.5534 15.1494 30.0335 15.1208 30.3972C15.0922 30.7607 15.0443 30.3073 15.0282 30.6305C14.9225 32.7739 15.2021 31.5714 15.2578 32.2776C15.3895 33.9426 15.1296 35.2395 15.1041 36.7638C15.0972 37.1762 15.1564 36.8397 15.162 37.2069C15.1831 38.6615 15.102 39.5363 15.1764 41.1912C15.1885 41.4619 15.3448 42.7997 15.2301 43.6657C15.2135 43.7883 15.1488 43.4398 15.1342 44.0598C15.1125 44.9858 15.0983 46.6544 15.12 47.6499C15.136 48.3849 15.2427 47.5424 15.2096 48.4676C15.1948 48.8787 15.1323 48.1167 15.1097 48.8891C15.0871 49.6574 15.0899 51.6219 15.092 52.3695C15.0942 53.1156 15.1752 52.7072 15.1806 52.7675C15.2119 53.1324 15.2509 54.5645 15.2508 54.691C15.2607 61.0741 15.1242 66.9603 15.1694 73.1751C15.1728 73.6628 15.2582 73.3379 15.2596 73.4123C15.2954 75.082 15.0684 73.7656 14.9924 74.9319C15.1657 74.7634 15.1343 75.4519 15.1533 76.628C15.1626 77.1947 15.2297 76.886 15.2365 76.9378C15.3384 77.7782 15.2068 78.3635 15.1799 78.5142C15.0809 79.0708 15.1979 79.6766 15.1317 80.0554C15.066 80.4339 14.9686 79.5627 14.9698 80.6907C15.0318 81.0069 15.1939 80.1696 15.2202 81.026C15.3195 84.2571 15.1924 90.2886 15.1792 92.8866C15.166 95.4794 15.1774 96.3168 15.155 97.8277C15.1145 100.557 15.2347 99.5566 15.2898 101.251C15.3448 102.951 15.0489 102.125 14.9853 102.369C14.9217 102.609 14.9872 102.87 14.9522 103.169C14.9173 103.466 14.874 102.822 14.8609 103.522C14.8478 104.221 14.9609 106.134 15.0274 106.382C15.1683 106.907 15.3162 106.045 15.2642 107.896C15.2612 108.003 15.1834 107.657 15.1755 108.065C15.1156 111.303 15.1119 114.668 15.0589 117.902C15.0515 118.347 14.965 117.949 14.9597 118.208C14.9043 120.904 15.0503 119.94 15.2124 121.418C14.9966 121.086 14.8646 121.903 14.8634 123.949C14.8625 125.179 14.9567 124.967 15.0232 125.763C15.0432 126.001 14.9785 126.872 15.0228 127.029C15.1676 127.549 15.3298 126.73 15.2652 128.839C15.2622 128.932 15.1829 128.637 15.1781 128.957C15.1466 131.024 15.2981 131.271 15.3165 133.506C15.3309 135.257 15.2385 138.372 15.2235 140.366C14.9809 140.324 15.0365 142.208 15.2037 142.972C15.1969 144.266 15.2063 145.664 15.1832 146.915C15.1753 147.346 15.1051 147.063 15.0975 147.117C14.9785 147.95 15.1412 148.512 15.1475 148.792C15.2096 151.819 15.0862 154.286 15.2068 157.176C15.2111 157.278 15.3796 157.445 15.2566 158.217C15.2481 158.267 15.1714 157.313 15.1655 158.672C15.1596 160.031 15.0692 162.594 15.1473 164.482C15.1661 164.938 15.3029 166.094 15.196 167.021C15.1815 167.144 15.1332 167.009 15.1063 167.188C15.0206 167.764 15.1909 168.079 15.0462 168.756C14.9016 169.434 14.7932 170.843 14.893 172.746C14.8959 172.807 15.0309 173.258 15.0288 173.856C15.0253 174.812 14.9971 176.168 14.998 177.166C14.9985 177.644 15.0823 177.338 15.0838 177.421C15.1308 180.633 15.0561 182.919 15.0236 186.36C15.0175 186.991 15.1318 188.803 15.0415 190.025C14.9426 191.365 14.5311 189.988 14.6291 193.07C14.6683 194.313 15.1903 195.887 14.9199 198.12C14.9869 202.453 14.8485 206.46 14.9442 210.805C14.9484 211 15.0941 211.618 15.0921 212.077C15.0889 212.759 15.0208 213.133 15.0163 213.62C14.9958 215.661 15.0541 217.528 15.045 219.495C15.0417 220.242 14.9713 219.98 14.9674 220.871C14.9635 221.761 15.0562 222.355 15.0114 223.561C14.9773 224.472 14.7878 225.383 14.7657 226.593C14.9526 226.639 14.9488 227.469 14.9981 228.946C15.0077 229.229 15.0728 228.925 15.0807 229.059C15.1142 229.606 15.0603 230.111 15.0968 230.63C15.1055 230.756 15.1694 230.762 15.1801 230.865C15.2742 231.742 15.1306 233.187 15.1056 233.436C15.0106 234.387 15.0936 234.832 15.0562 235.561C15.0189 236.29 14.9721 235.2 14.9494 236.051C14.9025 237.815 14.9128 240.081 14.9099 241.873C14.9091 242.588 14.9943 242.1 14.9962 242.202C15.0018 242.583 14.9999 242.965 14.9969 243.336C13.9307 243.325 12.9504 243.307 12.3421 243.433C11.3173 242.994 11.4508 243.476 9.33819 243.388C9.17177 243.381 8.96007 243.173 9.59897 243.143C10.2378 243.112 11.2066 243.177 12.0931 243.13C12.303 243.119 13.5054 242.924 13.6695 242.912C14.4338 242.858 14.8079 242.945 15 243.029L14.6923 243.336C14.7492 243.206 14.8042 243.159 14.8111 243.132C14.995 242.361 14.7854 240.891 14.771 240.504C14.7046 238.734 14.7482 237.23 14.7009 235.749C14.6703 234.781 14.4671 234.686 14.4734 233.926C14.4939 231.398 14.7773 230.516 14.5316 228.134C14.4792 227.623 14.2571 228.131 14.4317 226.301C14.4427 226.186 14.6025 224.827 14.5014 224.042C14.4887 223.943 14.424 223.946 14.4185 223.816C14.3834 222.945 14.4349 222.364 14.4102 221.414C14.3856 220.465 14.3487 219.324 14.3707 218.24C14.3838 217.587 14.5044 216.749 14.5339 216.436C14.6189 215.553 14.4795 214.606 14.5825 214.059C14.686 213.508 14.8431 214.586 14.91 213.14C14.7419 213.086 14.5693 212.963 14.4002 212.877C14.4062 209.707 14.4605 206.589 14.4531 203.409C14.452 203.014 14.3616 203.418 14.3581 202.995C14.3438 201.212 14.4082 199.654 14.3825 197.805C14.3623 196.373 14.2666 194.804 14.2425 193.307C14.4349 192.393 14.3696 190.171 14.3872 188.558C14.3932 187.993 14.4446 188.03 14.4614 187.628C14.5234 186.112 14.3534 186.823 14.3266 186.407C14.2124 184.623 14.5972 184.471 14.5877 182.368C14.5874 182.256 14.3822 180.895 14.3695 180.707C14.2862 179.515 14.4409 180.51 14.456 179.764C14.4837 178.402 14.5327 177.456 14.4726 175.858C14.4548 175.392 14.327 174.275 14.4259 173.37C14.4388 173.251 14.5066 173.317 14.5106 173.221C14.5768 171.487 14.3637 171.441 14.2916 170.45C14.2195 169.459 14.3665 167.928 14.4089 167.617C14.5185 166.802 14.4558 168.241 14.4665 168.286C14.5946 168.804 14.5725 167.688 14.5833 166.835C14.7922 166.711 14.7797 165.518 14.5937 165.95C14.5734 165.999 14.5929 166.663 14.5833 166.835C14.3784 166.086 14.3522 164.775 14.5437 163.327C14.6334 162.649 14.7381 163.29 14.6998 161.231C14.6825 160.296 14.5387 160.657 14.4995 159.833C14.41 157.949 14.5442 155.501 14.523 153.558C14.5154 152.853 14.4366 153.54 14.4287 153.058C14.4073 151.78 14.4664 150.652 14.4361 149.368C14.4333 149.252 14.3509 149.536 14.3498 149.137C14.3403 146.11 14.393 143.474 14.3945 140.313C14.3952 138.786 14.3497 136.056 14.3589 134.474C14.3742 131.733 14.494 128.36 14.4649 126.018C14.4463 124.49 14.3639 124.825 14.3077 124.17C14.1988 122.907 14.3938 120.672 14.424 120.371C14.425 120.361 14.4445 121.676 14.4868 120.974C14.5749 120.567 14.4244 120.385 14.424 120.371C14.4435 120.173 14.4623 117.547 14.4465 117.025C14.4379 116.742 14.3598 116.901 14.3568 116.753C14.2869 113.242 14.267 109.724 14.3036 106.163C14.3051 106.1 14.3925 106.195 14.3951 106.047C14.4339 103.985 14.3271 102.665 14.2636 100.965C14.2002 99.2648 14.2215 97.9165 14.3714 96.91C14.3525 95.6273 14.4188 93.7868 14.4591 92.7278C14.4993 91.6687 14.3293 91.521 14.3259 91.4278C14.2183 88.5214 14.3156 86.8412 14.3308 83.8259C14.3383 82.3924 14.3136 79.5487 14.295 77.9966C14.28 76.7699 14.3199 76.0309 14.2944 74.9005C14.291 74.7476 14.2153 74.9021 14.2124 74.8555C14.1218 73.594 14.3069 74.2002 14.3399 73.9398C14.4601 72.9955 14.5242 72.4121 14.4676 70.7967C14.4547 70.4241 14.1882 69.3387 14.1726 68.6595C14.1528 67.7764 14.2483 68.1096 14.2252 67.185C14.2233 67.1059 14.1644 67.1223 14.167 66.5516C14.1782 63.9026 14.2125 61.0144 14.2066 58.2616C14.2061 57.8855 14.1126 58.3676 14.1102 57.8243C14.0991 55.2749 14.1026 52.4806 14.1463 49.9969C14.1574 49.3856 14.2228 49.7689 14.2423 49.6362C14.3599 48.8214 14.189 47.666 14.1858 47.4754C14.1037 42.928 14.2583 39.4477 14.1847 34.8128C14.1803 34.5605 13.9972 32.6185 14.1543 31.7521C14.1647 31.6928 14.3254 30.8356 14.2155 30.0776C14.2087 30.0305 14.1259 30.5647 14.1344 29.6325C14.1428 28.7004 14.0875 27.2002 14.1784 25.9188C14.2071 25.5132 14.3674 24.5544 14.2396 23.3444C14.2307 23.2655 13.9417 21.3974 14.1411 20.7307C14.1739 20.6226 14.3849 20.7357 14.2767 19.2915C14.2557 19.0156 14.2087 19.5165 14.1793 18.7895C14.134 17.6757 14.1905 16.1999 14.0965 14.8307C14.0799 14.592 13.9367 13.5755 14.0454 12.7602C14.0624 12.6325 14.1328 12.8751 14.1407 12.4445C14.1785 10.397 14.1314 8.25296 14.1801 6.174C14.1973 5.43764 14.3111 5.81412 14.3416 5.04657C14.3721 4.27881 14.4015 2.73222 14.3495 1.92896C14.2974 1.1255 14.1159 2.00319 14.1014 0.799561C14.0995 0.645142 14.0978 0.490768 14.0963 0.336426L15 1.24016C10.3178 1.28787 5.67276 1.20586 1 1.181L1.84457 0.336426C1.84249 0.728821 1.8408 1.12146 1.83963 1.51427C1.83731 2.2892 1.90224 1.64679 1.90347 2.78877C1.90831 6.99919 1.96919 14.2684 1.83121 17.9219C1.72069 20.8492 1.63656 17.1653 1.59159 19.4023C1.57013 20.4817 1.78111 21.6495 1.78775 21.9101C1.85522 24.4556 1.76176 26.2247 1.79044 28.5159C1.79639 28.989 1.8819 28.5249 1.88602 28.9276C1.90085 30.303 1.86268 31.7486 1.86966 33.0629C1.87299 33.6525 1.9383 33.5438 1.93326 34.0864C1.92195 35.3846 1.8945 36.5326 1.83328 37.7981C1.82771 37.9135 1.74646 37.1357 1.74344 38.0961C1.73878 39.6506 1.67839 41.5802 1.74076 43.3686C1.75951 43.8993 1.90878 43.9201 1.8057 45.0608C1.78417 45.3 1.60493 44.9947 1.7598 46.3235C1.78553 46.547 1.99442 48.779 1.85977 49.8744C1.82434 50.1634 1.67767 50.9009 1.70072 51.5391C1.70439 51.6256 1.78457 51.279 1.79239 51.8077C1.81856 53.6714 1.81 55.6245 1.83512 57.539C1.84198 58.0503 1.92495 57.2888 1.93253 58.0508C1.9535 60.1462 1.93237 62.7624 1.9064 64.8115C1.89667 65.5669 1.82795 65.0447 1.82047 65.0997C1.69882 65.9837 1.86302 66.5063 1.87259 66.7997C1.92992 68.6244 1.85279 70.0138 1.8732 71.6957C1.87863 72.1599 1.95692 71.8308 1.9639 71.9231C2.03211 72.8813 1.89151 72.1676 1.87601 72.7741C1.83212 74.4733 1.83842 76.3675 1.84842 78.0858C1.85221 78.717 1.94299 78.0076 1.94534 78.574C1.96099 81.9266 1.9523 85.4118 1.90225 88.6837C1.89267 89.2998 1.82276 88.9122 1.80679 89.0406C1.69509 89.9255 1.84746 91.2225 1.86197 91.5209C1.92824 92.8779 1.86642 93.4049 1.87796 94.6032C1.93541 100.457 1.89447 107.685 1.86917 113.211C1.83662 120.411 1.77012 125.999 1.78739 132.865C1.7884 133.302 1.88139 132.862 1.88345 133.238C1.90587 138.095 1.86953 142.877 1.89639 147.744C1.89843 148.143 1.98659 147.567 1.99283 148.208C2.00624 149.523 2.00145 151.189 1.9733 152.518C1.95974 153.167 1.88409 152.297 1.87198 152.95C1.84362 154.469 1.83734 156.098 1.85147 157.659C1.85768 158.324 1.94784 157.321 1.94888 158.185C1.95783 164.066 1.97336 169.843 1.8566 175.786C1.84858 176.194 1.66533 176.551 1.70047 177.418C1.75133 177.483 1.81115 177.48 1.86551 177.508C1.89479 186.07 1.83127 194.545 1.82144 203.131C1.82105 203.493 1.91815 202.868 1.91788 203.568C1.91644 207.625 1.94334 211.564 1.84683 215.713C1.8374 216.125 1.66658 215.914 1.69242 217.127C1.69713 217.341 1.71991 219.168 1.75699 219.641C1.76258 219.705 1.84231 219.372 1.84464 219.96C1.85674 223.382 1.83854 226.968 1.78983 230.384C1.78181 230.935 1.69691 230.348 1.69046 230.741C1.64539 233.526 1.70993 236.556 1.63285 239.217C1.58094 240.999 1.43417 240.339 1.28971 241.286C1.26932 241.42 1.26609 242.523 1.18204 242.58C0.970681 242.726 0.739242 242.192 0.513952 242.411C0.465427 242.457 0.517692 243.935 0.400427 243.06C0.392579 242.999 0.35366 241.928 0.31388 241.664C0.286376 241.48 0.200894 241.811 0.165687 241.437C0.130513 241.062 0.202169 240.65 0.160804 240.029C0.118927 239.408 0.0216813 239.681 0.0101698 238.441ZM14.6389 87.9592C14.7205 86.9785 14.4214 86.8339 14.493 87.8945C14.4968 87.9458 14.6349 88.0098 14.6389 87.9592ZM14.6861 206.607C14.818 205.325 14.6241 204.447 14.5222 205.352C14.4204 206.256 14.6461 206.997 14.6861 206.607ZM14.7824 219.901C14.8865 218.402 14.4623 218.166 14.5481 219.771C14.5529 219.864 14.7764 219.988 14.7824 219.901ZM1.24857 236.895C1.2446 236.909 1.24073 237.702 1.24466 237.721C1.33965 238.143 1.34733 236.558 1.24857 236.895ZM14.8873 233.093C14.9447 232.625 14.8784 231.278 14.8071 231.859C14.7497 232.327 14.8159 233.675 14.8873 233.093ZM14.9581 36.805C14.9626 36.7895 14.9666 36.221 14.9414 36.2324C14.8602 36.271 14.8831 37.0622 14.9581 36.805ZM2.82259 243.229C6.13522 243.245 8.14372 243.595 4.53629 243.555C3.88302 243.548 5.94424 243.444 5.11275 243.412C3.59133 243.355 2.58108 243.575 1.02849 243.457C0.747429 243.435 2.63362 243.227 2.82847 243.228C2.82651 243.228 2.82455 243.228 2.82259 243.229ZM14.9981 87.3945C15.0021 87.3749 15.0058 86.5879 15.0019 86.569C14.907 86.1428 14.8994 87.7283 14.9981 87.3945ZM15.143 3.63091C15.1515 3.58745 15.1593 1.76106 15.1516 1.70151C14.9963 0.748734 14.9799 4.44121 15.143 3.63091ZM15.217 140.398C15.3125 141.256 15.3238 142.284 15.2038 142.968C15.2102 142.115 15.2111 141.256 15.217 140.398Z" fill="black"/>
</svg>
