<svg width="249" height="16" viewBox="0 0 249 16" fill="none" xmlns="http://www.w3.org/2000/svg">
<path d="M0.222046 1H248.222V15H0.222046V1Z" fill="#C02B53"/>
<path d="M5.21317 0.0101698C8.14953 -0.015883 11.9986 0.0119737 14.9239 0.0502087C15.8406 0.0620673 15.3764 0.115075 16.0093 0.125648C17.247 0.146258 18.4001 0.120261 19.6233 0.144813C20.0286 0.153209 19.5241 0.237174 19.9491 0.244056C22.2783 0.281163 24.4818 0.259777 26.8413 0.277625C38.4635 0.365685 49.8879 0.397205 61.6523 0.435461C65.5313 0.448004 70.2468 0.524206 74.2534 0.490881C74.7211 0.486916 74.4422 0.413216 74.5312 0.407141C75.9269 0.31415 75.4629 0.462935 76.3742 0.482702C79.9912 0.560754 84.0132 0.567542 87.4941 0.539099C88.975 0.526782 87.4902 0.380395 88.9813 0.462561C89.0848 0.468112 88.7091 0.546377 89.1152 0.554724C90.0362 0.573498 91.7836 0.559509 92.4974 0.56571C93.873 0.578057 94.1006 0.577269 95.4018 0.578161C97.1805 0.580061 99.2962 0.618966 101.205 0.601232C101.612 0.597215 101.073 0.516985 101.722 0.503332C102.373 0.489702 104.093 0.496505 104.673 0.515417C105.253 0.534339 105.006 0.597399 105.108 0.611852C105.953 0.733849 107.943 0.564884 108.199 0.560705C112.867 0.489506 116.87 0.58576 121.252 0.585485C124.578 0.585073 128.135 0.553296 131.3 0.557653C135.071 0.563155 138.267 0.606631 141.93 0.599157C142.317 0.598461 141.864 0.504129 142.336 0.503088C147.353 0.492111 152.335 0.502394 157.33 0.566076C157.831 0.572546 157.185 0.655368 157.686 0.666784C160.75 0.734849 165.598 0.898357 167.418 0.537756C169.494 0.551837 172.014 0.566385 173.871 0.639074C175.068 0.685858 173.905 0.776084 175.376 0.737585C175.708 0.729007 175.276 0.649991 175.774 0.643102C177.868 0.614176 180.156 0.639861 182.228 0.599035C182.65 0.590545 182.535 0.519744 182.654 0.506994C183.658 0.403741 185.328 0.574425 185.692 0.586828C188.466 0.679315 190.491 0.642919 193.074 0.645178C193.674 0.645741 192.965 0.550639 193.542 0.547766C196.534 0.534136 199.633 0.54231 202.563 0.584509C203.215 0.594124 202.615 0.675134 202.927 0.683874C204.3 0.721424 204.604 0.568417 205.921 0.601477C206.199 0.60825 206.042 0.6776 206.093 0.685217C206.886 0.804778 207.574 0.635368 207.778 0.631628C210.357 0.580523 212.005 0.757378 214.497 0.732336C214.795 0.729161 214.123 0.641412 214.96 0.637853C220.542 0.61363 226.444 0.637735 231.969 0.707922C232.828 0.718716 232.215 0.784634 232.269 0.79276C233.15 0.919728 233.72 0.749606 234 0.7432C236.209 0.697082 238.273 0.839748 239.775 0.637121C242.594 0.658309 245.41 0.662782 248.222 0.663655L248.557 0.662376L248.558 1C248.557 5.67644 248.565 10.3427 248.524 15L248.525 15.3004L248.222 15.3015C246.386 15.285 244.55 15.2607 242.717 15.2248C242.599 15.2227 242.81 15.1389 242.575 15.1351C239.74 15.0881 240.285 15.2183 238.409 15.3775C237.937 15.4175 236.499 15.2252 236.372 15.2111C235.909 15.1592 236.389 15.0346 236.234 15.0245C234.95 14.9455 235.16 15.3577 233.428 15.3579C233.374 15.3572 233.601 15.2813 233.456 15.2738C233.004 15.2501 232.556 15.2802 232.114 15.2541C231.103 15.1937 230.743 14.9934 229.198 15.11C229.003 15.1251 229.301 15.3589 227.755 15.3479C227.138 15.3433 224.41 15.3473 223.645 15.3321C222.881 15.317 223.406 15.2416 223.351 15.2384C221.293 15.1387 222.074 15.0974 221.043 14.9499C220.012 14.803 220.297 15.1535 219.877 15.1926C219.456 15.2316 217.947 15.1494 217.576 15.1208C217.206 15.0922 217.668 15.0443 217.339 15.0282C215.153 14.9225 216.379 15.2021 215.659 15.2578C213.962 15.3895 212.64 15.1296 211.086 15.1041C210.666 15.0972 211.009 15.1564 210.634 15.162C209.151 15.1831 208.259 15.102 206.572 15.1764C206.296 15.1885 204.933 15.3448 204.05 15.2301C203.925 15.2135 204.28 15.1488 203.648 15.1342C202.704 15.1125 201.003 15.0983 199.988 15.12C199.239 15.136 200.098 15.2427 199.155 15.2096C198.735 15.1948 199.512 15.1323 198.725 15.1097C197.941 15.0871 195.939 15.0899 195.177 15.092C194.416 15.0942 194.832 15.1752 194.771 15.1806C194.399 15.2119 192.939 15.2509 192.81 15.2508C186.303 15.2607 180.302 15.1242 173.966 15.1694C173.469 15.1728 173.8 15.2582 173.724 15.2596C172.022 15.2954 173.364 15.0684 172.175 14.9924C172.347 15.1657 171.645 15.1343 170.446 15.1533C169.868 15.1626 170.183 15.2297 170.13 15.2365C169.274 15.3384 168.677 15.2068 168.523 15.1799C167.956 15.0809 167.338 15.1979 166.952 15.1317C166.566 15.066 167.454 14.9686 166.304 14.9698C165.982 15.0318 166.836 15.1939 165.963 15.2202C162.669 15.3195 156.52 15.1924 153.871 15.1792C151.228 15.166 150.374 15.1774 148.834 15.155C146.052 15.1145 147.072 15.2347 145.344 15.2898C143.611 15.3448 144.454 15.0489 144.205 14.9853C143.96 14.9217 143.693 14.9872 143.389 14.9522C143.086 14.9173 143.742 14.874 143.029 14.8609C142.316 14.8478 140.366 14.9609 140.113 15.0274C139.578 15.1683 140.457 15.3162 138.57 15.2642C138.461 15.2612 138.813 15.1834 138.398 15.1755C135.096 15.1156 131.667 15.1119 128.369 15.0589C127.916 15.0515 128.321 14.965 128.057 14.9597C125.309 14.9043 126.292 15.0503 124.785 15.2124C125.123 14.9966 124.29 14.8646 122.205 14.8634C120.951 14.8625 121.167 14.9567 120.356 15.0232C120.112 15.0432 119.225 14.9785 119.064 15.0228C118.534 15.1676 119.37 15.3298 117.219 15.2652C117.125 15.2622 117.425 15.1829 117.099 15.1781C114.992 15.1466 114.74 15.2981 112.462 15.3165C110.676 15.3309 107.501 15.2385 105.468 15.2235C105.511 14.9809 103.59 15.0365 102.811 15.2037C101.492 15.1969 100.067 15.2063 98.7915 15.1832C98.3526 15.1753 98.6409 15.1051 98.5856 15.0975C97.7369 14.9785 97.1633 15.1412 96.8785 15.1475C93.7918 15.2096 91.277 15.0862 88.3312 15.2068C88.2267 15.2111 88.0572 15.3796 87.2698 15.2566C87.2189 15.2481 88.1917 15.1714 86.806 15.1655C85.4201 15.1596 82.8074 15.0692 80.8833 15.1473C80.4177 15.1661 79.2399 15.3029 78.2947 15.196C78.1688 15.1815 78.3066 15.1332 78.1248 15.1063C77.5371 15.0206 77.2163 15.1909 76.5257 15.0462C75.835 14.9016 74.3983 14.7932 72.4579 14.893C72.3961 14.8959 71.9367 15.0309 71.3265 15.0288C70.3523 15.0253 68.9695 14.9971 67.9523 14.998C67.4654 14.9985 67.777 15.0823 67.6925 15.0838C64.418 15.1308 62.0874 15.0561 58.5795 15.0236C57.9364 15.0175 56.0885 15.1318 54.8435 15.0415C53.4766 14.9426 54.8812 14.5311 51.7392 14.6291C50.472 14.6683 48.8675 15.1903 46.5901 14.9199C42.1731 14.9869 38.0884 14.8485 33.6591 14.9442C33.46 14.9484 32.8301 15.0941 32.3619 15.0921C31.6667 15.0889 31.2851 15.0208 30.7887 15.0163C28.7087 14.9958 26.8054 15.0541 24.8 15.045C24.0386 15.0417 24.3048 14.9713 23.3968 14.9674C22.4892 14.9635 21.8841 15.0562 20.6543 15.0114C19.7254 14.9773 18.7968 14.7878 17.564 14.7657C17.5169 14.9526 16.6703 14.9488 15.1653 14.9981C14.876 15.0077 15.1862 15.0728 15.0493 15.0807C14.4924 15.1142 13.977 15.0603 13.4482 15.0968C13.3195 15.1055 13.3135 15.1694 13.2083 15.1801C12.3141 15.2742 10.8408 15.1306 10.5878 15.1056C9.61795 15.0106 9.1648 15.0936 8.42096 15.0562C7.67834 15.0189 8.78871 14.9721 7.92124 14.9494C6.12305 14.9025 3.81271 14.9128 1.98648 14.9099C1.25781 14.9091 1.75491 14.9943 1.65066 14.9962C1.16849 15.0031 0.68456 14.9985 0.222046 14.9947C0.235601 14.0172 0.240577 13.1308 0.125157 12.5627C0.564034 11.5181 0.0825886 11.6541 0.170445 9.50041C0.177551 9.33075 0.385092 9.11493 0.415562 9.76626C0.446002 10.4176 0.381127 11.4052 0.428623 12.3089C0.439769 12.5229 0.634249 13.7487 0.64603 13.916C0.68217 14.4303 0.656338 14.7713 0.610586 15L0.222046 14.6115C0.57601 14.6823 0.661047 14.8008 0.703184 14.8111C1.48923 14.995 2.98725 14.7854 3.38172 14.771C5.18638 14.7046 6.71962 14.7482 8.22906 14.7009C9.21627 14.6703 9.31282 14.4671 10.088 14.4734C12.665 14.4939 13.5645 14.7773 15.9928 14.5316C16.5135 14.4792 15.996 14.2571 17.8618 14.4317C17.979 14.4427 19.3642 14.6025 20.1645 14.5014C20.265 14.4887 20.2618 14.424 20.3944 14.4185C21.2828 14.3834 21.8753 14.4349 22.843 14.4102C23.8107 14.3856 24.9744 14.3487 26.0793 14.3707C26.7451 14.3838 27.5995 14.5044 27.9183 14.5339C28.8183 14.6189 29.7834 14.4795 30.3409 14.5825C30.9032 14.686 29.804 14.8431 31.2784 14.91C31.333 14.7419 31.4585 14.5693 31.5463 14.4002C34.7776 14.4062 37.957 14.4605 41.199 14.4531C41.6009 14.452 41.1899 14.3616 41.6208 14.3581C43.4387 14.3438 45.0266 14.4082 46.9119 14.3825C48.3712 14.3623 49.9715 14.2666 51.4974 14.2425C52.4295 14.4349 54.6938 14.3696 56.3387 14.3872C56.9149 14.3932 56.8764 14.4446 57.2862 14.4614C58.8321 14.5234 58.1077 14.3534 58.5315 14.3266C60.3498 14.2124 60.5055 14.5972 62.6493 14.5877C62.7628 14.5874 64.1511 14.3822 64.3423 14.3695C65.5573 14.2862 64.5434 14.4409 65.3038 14.456C66.6921 14.4837 67.6568 14.5327 69.2856 14.4726C69.7606 14.4548 70.8999 14.327 71.8222 14.4259C71.9436 14.4388 71.8765 14.5066 71.9742 14.5106C73.7419 14.5768 73.7884 14.3637 74.7986 14.2916C75.809 14.2195 77.3695 14.3665 77.687 14.4089C78.5178 14.5185 77.0504 14.4558 77.0054 14.4665C76.4769 14.5946 77.615 14.5725 78.4846 14.5833C78.6105 14.7922 79.8266 14.7797 79.3861 14.5937C79.336 14.5734 78.6592 14.5929 78.4846 14.5833C79.2479 14.3784 80.5844 14.3522 82.0606 14.5437C82.7516 14.6334 82.0984 14.7381 84.1975 14.6998C85.1501 14.6825 84.782 14.5387 85.6227 14.4995C87.5433 14.41 90.039 14.5442 92.0192 14.523C92.7378 14.5154 92.0378 14.4366 92.5289 14.4287C93.8323 14.4073 94.9818 14.4664 96.2908 14.4361C96.4094 14.4333 96.1197 14.3509 96.5267 14.3498C99.6127 14.3403 102.3 14.393 105.522 14.3945C107.079 14.3952 109.862 14.3497 111.475 14.3589C114.27 14.3742 117.708 14.494 120.096 14.4649C121.653 14.4463 121.311 14.3639 121.979 14.3077C123.266 14.1988 125.546 14.3938 125.853 14.424C125.862 14.425 124.522 14.4445 125.237 14.4868C125.653 14.5749 125.838 14.4244 125.853 14.424C126.054 14.4435 128.731 14.4623 129.263 14.4465C129.552 14.4379 129.39 14.3598 129.541 14.3568C133.12 14.2869 136.706 14.267 140.337 14.3036C140.401 14.3051 140.304 14.3925 140.455 14.3951C142.557 14.4339 143.902 14.3271 145.636 14.2636C147.369 14.2002 148.744 14.2215 149.77 14.3714C151.077 14.3525 152.954 14.4188 154.033 14.4591C155.113 14.4993 155.264 14.3293 155.358 14.3259C158.321 14.2183 160.034 14.3156 163.108 14.3308C164.57 14.3383 167.469 14.3136 169.051 14.295C170.302 14.28 171.055 14.3199 172.207 14.2944C172.363 14.291 172.206 14.2153 172.253 14.2124C173.539 14.1218 172.921 14.3069 173.187 14.3399C174.149 14.4601 174.744 14.5242 176.391 14.4676C176.771 14.4547 177.877 14.1882 178.57 14.1726C179.47 14.1528 179.13 14.2483 180.073 14.2252C180.154 14.2233 180.137 14.1644 180.719 14.167C183.419 14.1782 186.364 14.2125 189.17 14.2066C189.553 14.2061 189.062 14.1126 189.616 14.1102C192.215 14.0991 195.063 14.1026 197.595 14.1463C198.219 14.1574 197.828 14.2228 197.963 14.2423C198.794 14.3599 199.972 14.189 200.166 14.1858C204.802 14.1037 208.35 14.2583 213.075 14.1847C213.332 14.1803 215.312 13.9972 216.195 14.1543C216.256 14.1647 217.13 14.3254 217.902 14.2155C217.95 14.2087 217.406 14.1259 218.356 14.1344C219.306 14.1428 220.836 14.0875 222.142 14.1784C222.555 14.2071 223.533 14.3674 224.766 14.2396C224.847 14.2307 226.751 13.9417 227.431 14.1411C227.541 14.1739 227.426 14.3849 228.898 14.2767C229.18 14.2557 228.669 14.2087 229.41 14.1793C230.545 14.134 232.05 14.1905 233.446 14.0965C233.689 14.0799 234.725 13.9367 235.557 14.0454C235.687 14.0624 235.439 14.1328 235.878 14.1407C237.966 14.1785 240.151 14.1314 242.271 14.1801C243.022 14.1973 242.638 14.3111 243.42 14.3416C244.203 14.3721 245.78 14.4015 246.599 14.3495C247.418 14.2974 246.523 14.1159 247.75 14.1014C247.907 14.0995 248.065 14.0978 248.222 14.0963L247.318 15C247.271 10.3177 247.35 5.67184 247.376 1L248.222 1.84606C247.731 1.84328 247.24 1.84107 246.749 1.83963C245.959 1.83731 246.614 1.90224 245.45 1.90347C241.157 1.90831 233.747 1.96919 230.022 1.83121C227.038 1.72069 230.793 1.63656 228.513 1.59159C227.412 1.57013 226.222 1.78111 225.956 1.78775C223.361 1.85522 221.558 1.76176 219.222 1.79044C218.74 1.79639 219.213 1.8819 218.802 1.88602C217.4 1.90085 215.926 1.86268 214.587 1.86966C213.985 1.87299 214.096 1.9383 213.543 1.93326C212.22 1.92195 211.049 1.8945 209.759 1.83328C209.642 1.82771 210.434 1.74646 209.455 1.74344C207.871 1.73878 205.904 1.67839 204.08 1.74076C203.539 1.75951 203.518 1.90878 202.355 1.8057C202.111 1.78417 202.423 1.60493 201.068 1.7598C200.84 1.78553 198.565 1.99442 197.448 1.85977C197.153 1.82434 196.401 1.67767 195.751 1.70072C195.663 1.70439 196.016 1.78457 195.477 1.79239C193.577 1.81856 191.586 1.81 189.634 1.83512C189.113 1.84198 189.889 1.92495 189.112 1.93253C186.976 1.9535 184.309 1.93237 182.22 1.9064C181.45 1.89667 181.982 1.82795 181.926 1.82047C181.025 1.69882 180.492 1.86302 180.193 1.87259C178.333 1.92992 176.917 1.85279 175.202 1.8732C174.729 1.87863 175.064 1.95692 174.97 1.9639C173.993 2.03211 174.721 1.89151 174.103 1.87601C172.37 1.83212 170.439 1.83842 168.688 1.84842C168.044 1.85221 168.767 1.94299 168.19 1.94534C164.772 1.96099 161.219 1.9523 157.884 1.90225C157.256 1.89267 157.651 1.82276 157.52 1.80679C156.618 1.69509 155.295 1.84746 154.991 1.86197C153.608 1.92824 153.071 1.86642 151.849 1.87796C145.881 1.93541 138.513 1.89447 132.879 1.86917C125.539 1.83662 119.842 1.77012 112.842 1.78739C112.397 1.7884 112.846 1.88139 112.462 1.88345C107.511 1.90587 102.636 1.86953 97.6745 1.89639C97.2674 1.89843 97.8543 1.98659 97.2008 1.99283C95.8604 2.00624 94.1624 2.00145 92.8072 1.9733C92.1462 1.95974 93.0328 1.88409 92.3674 1.87198C90.8182 1.84362 89.1574 1.83734 87.5661 1.85147C86.8888 1.85768 87.9106 1.94784 87.0304 1.94888C81.0343 1.95783 75.1455 1.97336 69.0862 1.8566C68.6708 1.84858 68.3063 1.66533 67.4231 1.70047C67.3566 1.75133 67.3602 1.81115 67.3312 1.86551C58.6024 1.89479 49.9627 1.83127 41.2095 1.82144C40.8404 1.82105 41.4782 1.91815 40.7637 1.91788C36.6283 1.91644 32.6126 1.94334 28.3825 1.84683C27.9628 1.8374 28.1781 1.66658 26.9413 1.69242C26.7231 1.69713 24.8603 1.71991 24.3787 1.75699C24.3133 1.76258 24.6531 1.84231 24.0529 1.84464C20.5645 1.85674 16.909 1.83854 13.4267 1.78983C12.8647 1.78181 13.4632 1.69691 13.0629 1.69046C10.2234 1.64539 7.13486 1.70993 4.42161 1.63285C2.60545 1.58094 3.27784 1.43417 2.31276 1.28971C2.17626 1.26932 1.05164 1.26609 0.993485 1.18204C0.844177 0.970681 1.38891 0.739242 1.16539 0.513952C1.11817 0.465427 -0.387988 0.517692 0.503753 0.400427C0.56605 0.392579 1.65802 0.35366 1.92697 0.31388C2.11423 0.286376 1.77679 0.200894 2.15885 0.165687C2.54087 0.130513 2.96067 0.202169 3.59406 0.160804C4.22717 0.118927 3.94879 0.0216813 5.21317 0.0101698ZM158.895 14.6389C159.894 14.7205 160.042 14.4214 158.961 14.493C158.908 14.4968 158.843 14.6349 158.895 14.6389ZM37.9388 14.6861C39.2457 14.818 40.1401 14.6241 39.2181 14.5222C38.2962 14.4204 37.5406 14.6461 37.9388 14.6861ZM24.3862 14.7824C25.9137 14.8865 26.1541 14.4623 24.5182 14.5481C24.423 14.5529 24.2969 14.7764 24.3862 14.7824ZM6.78831 1.24857C6.77451 1.2446 5.96609 1.24073 5.94677 1.24466C5.5163 1.33965 7.13281 1.34733 6.78831 1.24857ZM10.9376 14.8873C11.4144 14.9447 12.7874 14.8784 12.1949 14.8071C11.7179 14.7497 10.3437 14.8159 10.9376 14.8873ZM211.044 14.9581C211.06 14.9626 211.639 14.9666 211.628 14.9414C211.588 14.8602 210.782 14.8831 211.044 14.9581ZM0.329868 2.85805C0.313904 6.23513 -0.0364464 8.2827 0.0030873 4.60509C0.0102401 3.93911 0.114811 6.04043 0.146397 5.19277C0.203942 3.64174 -0.016035 2.61183 0.101842 1.02905C0.123417 0.742518 0.331558 2.6654 0.330357 2.86404C0.330194 2.86204 0.330031 2.86004 0.329868 2.85805ZM159.47 14.9981C159.49 15.0021 160.293 15.0058 160.312 15.0019C160.746 14.907 159.13 14.8994 159.47 14.9981ZM244.863 15.143C244.908 15.1515 246.77 15.1593 246.83 15.1516C247.802 14.9963 244.037 14.9799 244.863 15.143ZM105.436 15.217C104.56 15.3125 103.513 15.3238 102.815 15.2038C103.685 15.2102 104.561 15.2111 105.436 15.217Z" fill="black"/>
</svg>
