<svg width="16" height="248" viewBox="0 0 16 248" fill="none" xmlns="http://www.w3.org/2000/svg">
<path d="M14.3829 0.222046L14.3829 247.222L0.382934 247.222L0.382945 0.222045L14.3829 0.222046Z" fill="#C02B53"/>
<path d="M15.3728 5.19412C15.3988 8.11927 15.371 11.9537 15.3327 14.8677C15.3209 15.781 15.2679 15.3186 15.2573 15.949C15.2367 17.182 15.2627 18.3307 15.2381 19.5492C15.2297 19.953 15.1458 19.4504 15.1389 19.8738C15.1018 22.1941 15.1232 24.3892 15.1053 26.7397C15.0172 38.3176 14.9857 49.6983 14.9475 61.4178C14.9349 65.282 14.8587 69.9795 14.8921 73.9708C14.896 74.4367 14.9697 74.159 14.9758 74.2476C15.0688 75.638 14.92 75.1757 14.9002 76.0835C14.8222 79.6867 14.8154 83.6934 14.8438 87.161C14.8561 88.6363 15.0025 87.1571 14.9204 88.6425C14.9148 88.7457 14.8366 88.3714 14.8282 88.7759C14.8094 89.6934 14.8234 91.4341 14.8172 92.1452C14.8049 93.5156 14.8057 93.7423 14.8048 95.0385C14.8029 96.8104 14.764 98.918 14.7817 100.819C14.7857 101.225 14.8659 100.688 14.8796 101.335C14.8932 101.983 14.8864 103.696 14.8675 104.274C14.8486 104.852 14.7855 104.606 14.7711 104.708C14.6491 105.549 14.818 107.532 14.8222 107.787C14.8934 112.437 14.7972 116.425 14.7974 120.79C14.7979 124.103 14.8296 127.647 14.8253 130.8C14.8198 134.556 14.7763 137.74 14.7838 141.389C14.7845 141.775 14.8788 141.323 14.8798 141.794C14.8908 146.791 14.8805 151.754 14.8169 156.73C14.8104 157.229 14.7276 156.586 14.7161 157.085C14.6481 160.137 14.4846 164.967 14.8452 166.78C14.8311 168.848 14.8165 171.358 14.7439 173.208C14.6971 174.401 14.6068 173.242 14.6453 174.707C14.6539 175.038 14.7329 174.608 14.7398 175.104C14.7688 177.19 14.7431 179.47 14.7839 181.534C14.7924 181.953 14.8632 181.839 14.8759 181.958C14.9792 182.957 14.8085 184.622 14.7961 184.984C14.7036 187.747 14.74 189.765 14.7377 192.338C14.7372 192.935 14.8323 192.229 14.8352 192.804C14.8488 195.785 14.8406 198.872 14.7984 201.791C14.7888 202.44 14.7078 201.843 14.6991 202.153C14.6615 203.521 14.8145 203.824 14.7814 205.136C14.7747 205.413 14.7053 205.257 14.6977 205.307C14.5781 206.097 14.7476 206.783 14.7513 206.986C14.8024 209.555 14.6255 211.197 14.6506 213.679C14.6538 213.976 14.7415 213.306 14.7451 214.141C14.7693 219.701 14.7452 225.581 14.675 231.084C14.6642 231.94 14.5983 231.329 14.5902 231.383C14.4632 232.261 14.6333 232.829 14.6397 233.108C14.6858 235.309 14.5432 237.365 14.7458 238.86C14.7247 241.651 14.7202 244.438 14.7193 247.222L14.7206 247.557L14.3829 247.558C9.70645 247.557 5.04014 247.566 0.382934 247.524L0.0825602 247.525L0.0814006 247.222C0.0979078 245.393 0.122247 243.564 0.158116 241.738C0.160219 241.62 0.244004 241.831 0.247838 241.596C0.294883 238.773 0.164665 239.315 0.00540745 237.446C-0.034583 236.976 0.157695 235.544 0.171788 235.417C0.223727 234.956 0.348376 235.435 0.358434 235.28C0.437417 234.001 0.0251935 234.209 0.025061 232.484C0.0257476 232.43 0.101623 232.657 0.109166 232.512C0.132852 232.062 0.102702 231.616 0.12882 231.176C0.189256 230.168 0.389561 229.81 0.272985 228.271C0.257855 228.076 0.0240245 228.373 0.035071 226.833C0.0396725 226.219 0.0356653 223.501 0.0508183 222.739C0.0659531 221.978 0.141305 222.5 0.144567 222.446C0.244207 220.396 0.285503 221.173 0.433019 220.146C0.579979 219.119 0.229466 219.404 0.190344 218.985C0.151333 218.566 0.233543 217.063 0.262121 216.693C0.290712 216.324 0.338594 216.785 0.354773 216.456C0.460481 214.28 0.180791 215.501 0.125158 214.784C-0.00656677 213.093 0.253373 211.776 0.278845 210.228C0.285724 209.809 0.226521 210.151 0.220984 209.778C0.19984 208.3 0.280949 207.412 0.20658 205.731C0.194461 205.456 0.0381772 204.098 0.152869 203.218C0.169408 203.094 0.234184 203.448 0.248694 202.818C0.27047 201.878 0.284629 200.183 0.262977 199.172C0.246957 198.426 0.14022 199.281 0.173377 198.342C0.188183 197.924 0.250625 198.698 0.27323 197.914C0.29583 197.133 0.293086 195.138 0.290931 194.379C0.288727 193.621 0.207762 194.036 0.202308 193.975C0.171063 193.604 0.132021 192.15 0.132117 192.021C0.122235 185.539 0.258709 179.561 0.213539 173.25C0.210112 172.754 0.124733 173.084 0.123329 173.009C0.0875579 171.313 0.31456 172.65 0.390541 171.466C0.217282 171.637 0.248654 170.938 0.229653 169.743C0.220355 169.168 0.153269 169.481 0.146401 169.428C0.0445044 168.575 0.176117 167.981 0.203041 167.827C0.302082 167.262 0.185059 166.647 0.251259 166.262C0.316965 165.878 0.414372 166.763 0.413124 165.617C0.351103 165.296 0.189026 166.146 0.162758 165.277C0.0633989 161.995 0.190565 155.87 0.203774 153.231C0.216973 150.598 0.20553 149.748 0.227945 148.213C0.268472 145.442 0.148221 146.458 0.0931801 144.737C0.0381436 143.011 0.334017 143.85 0.397622 143.602C0.461198 143.358 0.395753 143.092 0.430703 142.789C0.465644 142.487 0.508891 143.141 0.522011 142.431C0.535119 141.72 0.422014 139.777 0.355508 139.525C0.214611 138.993 0.066733 139.868 0.118692 137.988C0.121776 137.88 0.199575 138.231 0.207437 137.817C0.26733 134.528 0.271043 131.111 0.324015 127.827C0.33142 127.375 0.417969 127.779 0.423257 127.516C0.478616 124.778 0.332684 125.757 0.170573 124.256C0.386308 124.593 0.518297 123.764 0.519571 121.686C0.520412 120.437 0.42619 120.652 0.359782 119.844C0.339762 119.601 0.40446 118.717 0.360148 118.557C0.215299 118.029 0.0531507 118.862 0.117716 116.719C0.120785 116.625 0.200073 116.925 0.204875 116.6C0.236305 114.501 0.0847957 114.249 0.0664481 111.98C0.0520506 110.201 0.144439 107.038 0.159465 105.013C0.402015 105.055 0.346474 103.142 0.179241 102.366C0.186087 101.052 0.176633 99.6322 0.199749 98.3618C0.20763 97.9246 0.277854 98.2118 0.285442 98.1567C0.404472 97.3112 0.241771 96.7399 0.235393 96.4562C0.173389 93.3813 0.296702 90.876 0.176189 87.9415C0.171849 87.8373 0.00336646 87.6686 0.126385 86.8841C0.134865 86.8334 0.211521 87.8025 0.217449 86.4221C0.223391 85.0414 0.313709 82.4387 0.235638 80.522C0.216843 80.0581 0.080069 78.8849 0.186932 77.9433C0.201443 77.8178 0.249765 77.9551 0.276654 77.774C0.362333 77.1886 0.192039 76.869 0.336712 76.181C0.481379 75.4929 0.589724 74.0618 0.48991 72.1288C0.487008 72.0672 0.352034 71.6096 0.354169 71.0017C0.357692 70.0313 0.385809 68.6536 0.384931 67.6404C0.38446 67.1553 0.300648 67.4657 0.299115 67.3816C0.25215 64.1195 0.326868 61.7979 0.359296 58.3033C0.365406 57.6627 0.251115 55.8218 0.341474 54.5816C0.440388 53.2198 0.851856 54.6192 0.753826 51.4892C0.714616 50.2267 0.192596 48.6284 0.463056 46.3596C0.396038 41.9596 0.534458 37.8904 0.438764 33.4781C0.434525 33.2797 0.288833 32.6522 0.290816 32.1857C0.294041 31.4932 0.362135 31.1131 0.366622 30.6186C0.387132 28.5466 0.328873 26.6505 0.337935 24.6527C0.341227 23.8943 0.411636 24.1595 0.415571 23.2549C0.419441 22.3508 0.326726 21.748 0.371505 20.5228C0.405636 19.5976 0.595143 18.6725 0.617232 17.4443C0.430305 17.3975 0.434155 16.554 0.384811 15.0548C0.375237 14.7666 0.310176 15.0757 0.302291 14.9393C0.268759 14.3845 0.32268 13.8711 0.286178 13.3443C0.277411 13.2161 0.213575 13.2101 0.202804 13.1054C0.108793 12.2145 0.252388 10.7469 0.277389 10.4948C0.372341 9.52867 0.289314 9.07727 0.326706 8.33622C0.364092 7.59643 0.410829 8.70258 0.433516 7.83842C0.480444 6.04712 0.470134 3.74557 0.473067 1.92632C0.473844 1.20046 0.388632 1.69567 0.386764 1.59178C0.380115 1.12998 0.384091 0.666598 0.387841 0.222045C1.38329 0.23538 2.28813 0.242672 2.86434 0.125157C3.90503 0.564033 3.76946 0.0825881 5.91497 0.170445C6.08398 0.177551 6.29898 0.385092 5.65013 0.415561C5.00132 0.446001 4.01744 0.381127 3.11723 0.428623C2.90404 0.439769 1.68286 0.634248 1.51624 0.646029C0.96225 0.685109 0.610087 0.651723 0.382945 0.599046L0.759946 0.222045C0.688519 0.530058 0.581626 0.608127 0.571822 0.647919C0.387991 1.43092 0.597505 2.92328 0.611983 3.31623C0.678318 5.11402 0.634701 6.6414 0.682051 8.14507C0.712653 9.12851 0.915808 9.22471 0.909589 9.99696C0.889036 12.5641 0.605633 13.4602 0.851362 15.8792C0.903771 16.3979 1.12581 15.8824 0.951215 17.741C0.940208 17.8578 0.780482 19.2377 0.881513 20.035C0.894251 20.1351 0.958962 20.1319 0.964398 20.264C0.999561 21.149 0.948009 21.7392 0.972699 22.7033C0.99739 23.6673 1.0342 24.8265 1.01225 25.9272C0.999124 26.5905 0.878559 27.4416 0.849042 27.7591C0.764009 28.6557 0.903427 29.6171 0.800458 30.1726C0.696971 30.7327 0.53981 29.6376 0.472944 31.1065C0.641068 31.1608 0.813631 31.2858 0.982709 31.3733C0.976789 34.5923 0.922424 37.7595 0.929852 40.9892C0.930941 41.3896 1.02132 40.9801 1.02482 41.4093C1.03918 43.2204 0.974749 44.8021 1.00041 46.6802C1.02061 48.134 1.11631 49.7281 1.14042 51.2482C0.948041 52.1768 1.01335 54.4325 0.995768 56.0711C0.989694 56.6451 0.938313 56.6067 0.92155 57.015C0.859555 58.555 1.02956 57.8334 1.05631 58.2555C1.1705 60.0669 0.7857 60.222 0.795207 62.3576C0.795581 62.4707 1.0007 63.8537 1.01347 64.0442C1.09676 65.2545 0.942076 64.2445 0.926921 65.002C0.899225 66.385 0.850241 67.346 0.910319 68.9686C0.928114 69.4417 1.05596 70.5767 0.957072 71.4955C0.944123 71.6164 0.876325 71.5496 0.872355 71.6469C0.806171 73.4079 1.0192 73.4542 1.09135 74.4605C1.16348 75.467 1.01642 77.0216 0.97404 77.3379C0.864395 78.1656 0.927182 76.7037 0.916422 76.6589C0.788375 76.1324 0.81042 77.2662 0.799601 78.1324C0.590723 78.2579 0.603261 79.4693 0.789225 79.0305C0.809537 78.9806 0.790059 78.3064 0.799601 78.1324C1.00454 78.8929 1.03078 80.2243 0.839274 81.6948C0.749515 82.3832 0.644861 81.7325 0.683147 83.8235C0.700429 84.7725 0.844252 84.4058 0.883463 85.2433C0.972927 87.1566 0.838764 89.6428 0.859903 91.6154C0.867577 92.3313 0.946305 91.6339 0.954263 92.1231C0.975628 93.4216 0.916557 94.5667 0.946817 95.8707C0.949658 95.9889 1.03207 95.7002 1.03312 96.1057C1.04269 99.1799 0.989906 101.857 0.988443 105.066C0.987773 106.617 1.03322 109.39 1.02409 110.996C1.00873 113.781 0.888895 117.206 0.918007 119.585C0.936642 121.136 1.01907 120.796 1.07523 121.461C1.1841 122.743 0.989096 125.014 0.958901 125.32C0.957901 125.329 0.938469 123.994 0.896157 124.706C0.80799 125.121 0.958518 125.305 0.958901 125.32C0.939394 125.52 0.920682 128.187 0.93644 128.717C0.94505 129.005 1.02315 128.844 1.02616 128.994C1.09605 132.56 1.1159 136.132 1.07938 139.749C1.07781 139.812 0.99045 139.716 0.987831 139.866C0.948989 141.96 1.05585 143.301 1.1193 145.027C1.18272 146.754 1.16148 148.123 1.01151 149.145C1.03039 150.448 0.964094 152.317 0.923865 153.393C0.883637 154.468 1.05368 154.618 1.05704 154.713C1.16464 157.665 1.06731 159.371 1.05216 162.433C1.04467 163.889 1.06933 166.777 1.08793 168.353C1.10291 169.599 1.06306 170.35 1.08854 171.497C1.09194 171.653 1.16765 171.496 1.17057 171.543C1.26115 172.824 1.07606 172.209 1.043 172.473C0.922792 173.432 0.858768 174.025 0.915319 175.665C0.92827 176.044 1.19478 177.146 1.21036 177.836C1.23014 178.732 1.13461 178.394 1.15775 179.333C1.15964 179.413 1.21858 179.397 1.21598 179.976C1.20469 182.667 1.1704 185.6 1.1763 188.395C1.17688 188.777 1.27036 188.288 1.27274 188.839C1.28382 191.428 1.28036 194.266 1.23661 196.789C1.22554 197.409 1.16009 197.02 1.14066 197.155C1.02307 197.982 1.19392 199.156 1.19718 199.349C1.27928 203.968 1.12466 207.502 1.19828 212.209C1.2026 212.465 1.38575 214.438 1.22867 215.317C1.21822 215.378 1.05751 216.248 1.16739 217.018C1.17427 217.066 1.257 216.523 1.24857 217.47C1.24015 218.417 1.2954 219.94 1.2045 221.241C1.17587 221.653 1.01555 222.627 1.14334 223.856C1.15226 223.936 1.44122 225.833 1.24185 226.51C1.20904 226.62 0.998067 226.505 1.10623 227.972C1.1272 228.252 1.17426 227.743 1.20365 228.482C1.24893 229.613 1.19243 231.112 1.28641 232.502C1.30305 232.745 1.44624 233.777 1.33756 234.605C1.32053 234.735 1.2501 234.488 1.24222 234.926C1.20441 237.005 1.25152 239.182 1.20279 241.294C1.18567 242.041 1.0718 241.659 1.04129 242.439C1.01079 243.218 0.981448 244.789 1.03348 245.605C1.08553 246.421 1.267 245.529 1.28153 246.752C1.28339 246.909 1.2851 247.065 1.28667 247.222L0.382934 246.318C5.06525 246.271 9.71091 246.35 14.3829 246.376L13.5372 247.222C13.5398 246.751 13.5419 246.28 13.5433 245.808C13.5456 245.021 13.4807 245.673 13.4794 244.514C13.4746 240.238 13.4137 232.855 13.5517 229.145C13.6622 226.172 13.7464 229.913 13.7913 227.642C13.8128 226.545 13.6018 225.359 13.5952 225.095C13.5277 222.51 13.6212 220.713 13.5925 218.386C13.5865 217.906 13.501 218.377 13.4969 217.968C13.4821 216.571 13.5202 215.103 13.5133 213.768C13.5099 213.17 13.4446 213.28 13.4497 212.729C13.461 211.41 13.4884 210.245 13.5496 208.959C13.5552 208.842 13.6365 209.632 13.6395 208.657C13.6441 207.078 13.7045 205.118 13.6422 203.302C13.6234 202.763 13.4741 202.742 13.5772 201.584C13.5988 201.341 13.778 201.651 13.6231 200.301C13.5974 200.074 13.3885 197.808 13.5232 196.695C13.5586 196.402 13.7053 195.653 13.6822 195.005C13.6785 194.917 13.5984 195.269 13.5905 194.732C13.5644 192.839 13.5729 190.856 13.5478 188.911C13.5409 188.392 13.458 189.165 13.4504 188.392C13.4294 186.263 13.4506 183.607 13.4765 181.526C13.4863 180.758 13.555 181.289 13.5625 181.233C13.6841 180.335 13.5199 179.804 13.5103 179.506C13.453 177.653 13.5301 176.242 13.5097 174.534C13.5043 174.063 13.426 174.397 13.419 174.303C13.3508 173.33 13.4914 174.055 13.5069 173.439C13.5508 171.713 13.5445 169.79 13.5345 168.045C13.5307 167.404 13.4399 168.124 13.4376 167.549C13.4219 164.144 13.4306 160.605 13.4807 157.282C13.4903 156.656 13.5602 157.05 13.5761 156.919C13.6878 156.021 13.5355 154.704 13.521 154.4C13.4547 153.022 13.5165 152.487 13.505 151.27C13.4475 145.325 13.4885 137.985 13.5138 132.373C13.5463 125.06 13.6128 119.386 13.5955 112.412C13.5945 111.969 13.5015 112.416 13.4995 112.034C13.4771 107.101 13.5134 102.245 13.4865 97.3026C13.4845 96.897 13.3963 97.4817 13.3901 96.8307C13.3767 95.4954 13.3815 93.8039 13.4096 92.4538C13.4232 91.7953 13.4988 92.6786 13.511 92.0157C13.5393 90.4724 13.5456 88.818 13.5315 87.2327C13.5253 86.5581 13.4351 87.5759 13.434 86.699C13.4251 80.7258 13.4096 74.8595 13.5263 68.8234C13.5344 68.4095 13.7176 68.0465 13.6825 67.1666C13.6316 67.1003 13.5718 67.1039 13.5174 67.075C13.4881 58.3796 13.5517 49.7729 13.5615 41.053C13.5619 40.6854 13.4648 41.3208 13.4651 40.609C13.4665 36.4893 13.4396 32.4889 13.5361 28.275C13.5455 27.8569 13.7164 28.0714 13.6905 26.8393C13.6858 26.622 13.663 24.7663 13.6259 24.2865C13.6203 24.2213 13.5406 24.5599 13.5383 23.9619C13.5262 20.4869 13.5444 16.8453 13.5931 13.3763C13.6011 12.8164 13.686 13.4126 13.6925 13.0139C13.7375 10.1852 13.673 7.10848 13.7501 4.40558C13.802 2.59635 13.9488 3.26618 14.0932 2.30478C14.1136 2.1688 14.1168 1.04848 14.2009 0.99054C14.4123 0.841802 14.6437 1.38445 14.869 1.16179C14.9175 1.11475 14.8652 -0.385659 14.9825 0.502678C14.9904 0.564738 15.0293 1.65254 15.0691 1.92047C15.0966 2.10701 15.182 1.77086 15.2172 2.15145C15.2524 2.53202 15.1808 2.95022 15.2221 3.58119C15.264 4.21188 15.3613 3.93456 15.3728 5.19412ZM0.744056 158.236C0.662394 159.231 0.961488 159.378 0.88993 158.301C0.886116 158.249 0.748062 158.184 0.744056 158.236ZM0.69682 37.7414C0.564899 39.0434 0.758876 39.9343 0.86076 39.0158C0.962534 38.0975 0.73681 37.3447 0.69682 37.7414ZM0.600508 24.2406C0.496493 25.7622 0.920621 26.0017 0.834882 24.372C0.830037 24.2772 0.606547 24.1516 0.600508 24.2406ZM14.1344 6.76325C14.1383 6.7495 14.1422 5.94417 14.1383 5.92492C14.0433 5.4961 14.0356 7.10643 14.1344 6.76325ZM0.49565 10.8432C0.438278 11.3183 0.504507 12.686 0.57585 12.0958C0.633243 11.6206 0.567018 10.2517 0.49565 10.8432ZM0.42484 210.186C0.420384 210.202 0.416371 210.779 0.441564 210.767C0.522708 210.728 0.499808 209.925 0.42484 210.186ZM12.532 0.329868C9.16778 0.313903 7.12803 -0.0364467 10.7916 0.00308714C11.455 0.0102399 9.36174 0.114811 10.2062 0.146397C11.7513 0.203942 12.7773 -0.0160351 14.354 0.101842C14.6394 0.123417 12.7239 0.331558 12.526 0.330357C12.528 0.330194 12.53 0.330031 12.532 0.329868ZM0.384804 158.809C0.380849 158.829 0.377099 159.628 0.38102 159.647C0.475974 160.08 0.483584 158.47 0.384804 158.809ZM0.239903 243.876C0.231476 243.92 0.223593 245.775 0.231358 245.836C0.386634 246.803 0.403029 243.053 0.239903 243.876ZM0.165935 104.981C0.070411 104.109 0.0591634 103.065 0.179118 102.37C0.172751 103.237 0.171812 104.109 0.165935 104.981Z" fill="black"/>
</svg>
