<svg width="16" height="101" viewBox="0 0 16 101" fill="none" xmlns="http://www.w3.org/2000/svg">
<path d="M1 100.363L1 0.362854H15L15 100.363H1Z" fill="#C02B53"/>
<path d="M0.0101698 98.1911C-0.015883 96.9135 0.0119737 95.2387 0.0502087 93.9659C0.0620673 93.567 0.115075 93.769 0.125648 93.4936C0.146258 92.955 0.120261 92.4533 0.144813 91.9211C0.153209 91.7447 0.237174 91.9643 0.244056 91.7793C0.281163 90.7659 0.259777 89.8071 0.277625 88.7804C0.365685 83.7234 0.397205 78.7525 0.435461 73.6337C0.448004 71.9459 0.524206 69.8941 0.490881 68.1508C0.486916 67.9472 0.413216 68.0686 0.407141 68.0299C0.31415 67.4226 0.462935 67.6245 0.482702 67.2279C0.560754 65.6542 0.567542 63.9041 0.539099 62.3895C0.526782 61.7452 0.380395 62.3912 0.462561 61.7424C0.468112 61.6974 0.546377 61.8609 0.554724 61.6841C0.573498 61.2834 0.559509 60.5231 0.56571 60.2125C0.578057 59.614 0.577269 59.5149 0.578161 58.9488C0.580061 58.1748 0.618966 57.2543 0.601232 56.4239C0.597215 56.2466 0.516985 56.4813 0.503332 56.1986C0.489702 55.9157 0.496505 55.1672 0.515417 54.9149C0.534339 54.6624 0.597399 54.7699 0.611852 54.7253C0.733849 54.3578 0.564884 53.492 0.560705 53.3806C0.489506 51.3495 0.58576 49.6077 0.585485 47.7011C0.585073 46.2537 0.553296 44.7061 0.557653 43.3289C0.563155 41.6881 0.606631 40.2975 0.599157 38.7035C0.598461 38.5353 0.504129 38.7324 0.503088 38.527C0.492111 36.3441 0.502394 34.1764 0.566076 32.003C0.572546 31.785 0.655368 32.0659 0.666784 31.8481C0.734849 30.5148 0.898357 28.4052 0.537756 27.6133C0.551837 26.7102 0.566385 25.6137 0.639074 24.8058C0.685858 24.2848 0.776084 24.7908 0.737585 24.1508C0.729007 24.0065 0.649991 24.1942 0.643102 23.9778C0.614176 23.0665 0.639861 22.0708 0.599035 21.1693C0.590545 20.9859 0.519744 21.036 0.506994 20.9841C0.403741 20.5474 0.574425 19.8205 0.586828 19.662C0.679315 18.4554 0.642919 17.5742 0.645178 16.45C0.645741 16.1892 0.550639 16.4975 0.547766 16.2465C0.534136 14.9447 0.54231 13.5961 0.584509 12.3213C0.594124 12.0378 0.675134 12.2985 0.683874 12.163C0.721424 11.5656 0.568417 11.4331 0.601477 10.8601C0.60825 10.7393 0.6776 10.8074 0.685217 10.7853C0.804778 10.4405 0.635368 10.1409 0.631628 10.0521C0.580523 8.93009 0.757378 8.21288 0.732336 7.1289C0.729161 6.99921 0.641412 7.29166 0.637853 6.92712C0.616419 4.77827 0.632824 2.51986 0.685512 0.362854L0.682778 0.0511475L1 0.0483627C1.28069 0.0552216 1.55967 0.0626907 1.83646 0.0707779C2.2102 0.0815735 1.94341 0.147491 1.96692 0.155617C2.35024 0.282585 2.59828 0.112457 2.72013 0.106056C3.68154 0.0599365 4.57962 0.202599 5.23285 -2.28882e-05C8.49995 0.0563965 11.755 -0.00571442 15 0.0613174L15.2989 0.0587006L15.3015 0.362854C15.285 1.16195 15.2607 1.96043 15.2248 2.75833C15.2227 2.80967 15.1389 2.71767 15.1351 2.82008C15.0881 4.05343 15.2183 3.81657 15.3775 4.63264C15.4175 4.83822 15.2252 5.46358 15.2111 5.51893C15.1592 5.72052 15.0346 5.51142 15.0245 5.57894C14.9455 6.13754 15.3577 6.04651 15.3579 6.80007C15.3572 6.82365 15.2813 6.72466 15.2738 6.7879C15.2501 6.98438 15.2802 7.17923 15.2541 7.3715C15.1937 7.81157 14.9934 7.96831 15.11 8.64046C15.1251 8.72554 15.3589 8.59562 15.3479 9.26842C15.3433 9.53664 15.3473 10.7239 15.3321 11.0566C15.317 11.389 15.2416 11.1608 15.2384 11.1845C15.1387 12.08 15.0974 11.7404 14.9499 12.1891C14.803 12.6376 15.1535 12.5132 15.1926 12.6961C15.2316 12.8793 15.1494 13.5359 15.1208 13.6972C15.0922 13.8585 15.0443 13.6573 15.0282 13.8007C14.9225 14.7515 15.2021 14.218 15.2578 14.5313C15.3895 15.2699 15.1296 15.8451 15.1041 16.5213C15.0972 16.7042 15.1564 16.555 15.162 16.7179C15.1831 17.3631 15.102 17.7511 15.1764 18.4852C15.1885 18.6053 15.3448 19.1987 15.2301 19.5828C15.2135 19.6372 15.1488 19.4826 15.1342 19.7576C15.1125 20.1684 15.0983 20.9086 15.12 21.3502C15.136 21.6762 15.2427 21.3025 15.2096 21.7129C15.1948 21.8952 15.1323 21.5572 15.1097 21.8998C15.0871 22.2407 15.0899 23.1121 15.092 23.4437C15.0942 23.7746 15.1752 23.5935 15.1806 23.6202C15.2119 23.7821 15.2509 24.4173 15.2508 24.4734C15.2607 27.3049 15.1242 29.9159 15.1694 32.6726C15.1728 32.8889 15.2582 32.7448 15.2596 32.7778C15.2954 33.5185 15.0684 32.9345 14.9924 33.4519C15.1657 33.3771 15.1343 33.6825 15.1533 34.2042C15.1626 34.4556 15.2297 34.3187 15.2365 34.3417C15.3384 34.7145 15.2068 34.9741 15.1799 35.0409C15.0809 35.2878 15.1979 35.5565 15.1317 35.7246C15.066 35.8925 14.9686 35.506 14.9698 36.0064C15.0318 36.1467 15.1939 35.7752 15.2202 36.1551C15.3195 37.5884 15.1924 40.2638 15.1792 41.4162C15.166 42.5663 15.1774 42.9378 15.155 43.608C15.1145 44.8186 15.2347 44.3749 15.2898 45.1266C15.3448 45.8805 15.0489 45.514 14.9853 45.6224C14.9217 45.7287 14.9872 45.8449 14.9522 45.9772C14.9173 46.1091 14.874 45.8236 14.8609 46.1338C14.8478 46.4441 14.9609 47.2927 15.0274 47.4027C15.1683 47.6353 15.3162 47.2529 15.2642 48.0742C15.2612 48.1214 15.1834 47.9681 15.1755 48.149C15.1156 49.5855 15.1119 51.0778 15.0589 52.5125C15.0515 52.7098 14.965 52.5334 14.9597 52.6482C14.9043 53.8441 15.0503 53.4166 15.2124 54.072C14.9966 53.9248 14.8646 54.2873 14.8634 55.1949C14.8625 55.7404 14.9567 55.6465 15.0232 55.9994C15.0432 56.1052 14.9785 56.4913 15.0228 56.5612C15.1676 56.7919 15.3298 56.4283 15.2652 57.364C15.2622 57.4051 15.1829 57.2743 15.1781 57.4162C15.1466 58.3332 15.2981 58.4429 15.3165 59.434C15.3309 60.2109 15.2385 61.5927 15.2235 62.4773C14.9809 62.4587 15.0365 63.2942 15.2037 63.6332C15.1969 64.2073 15.2063 64.8274 15.1832 65.3823C15.1753 65.5732 15.1051 65.4478 15.0975 65.4718C14.9785 65.8411 15.1412 66.0907 15.1475 66.2146C15.2096 67.5577 15.0862 68.6519 15.2068 69.9337C15.2111 69.9792 15.3796 70.0529 15.2566 70.3955C15.2481 70.4177 15.1714 69.9944 15.1655 70.5973C15.1596 71.2003 15.0692 72.3372 15.1473 73.1744C15.1661 73.377 15.3029 73.8894 15.196 74.3007C15.1815 74.3555 15.1332 74.2956 15.1063 74.3746C15.0206 74.6303 15.1909 74.7699 15.0462 75.0704C14.9016 75.371 14.7932 75.9961 14.893 76.8404C14.8959 76.8673 15.0309 77.0671 15.0288 77.3327C15.0253 77.7565 14.9971 78.3582 14.998 78.8008C14.9985 79.0127 15.0823 78.8771 15.0838 78.9139C15.1308 80.3387 15.0561 81.3527 15.0236 82.8791C15.0175 83.1589 15.1318 83.963 15.0415 84.5046C14.9426 85.0994 14.5311 84.4882 14.6291 85.8554C14.6683 86.4068 15.1903 87.1049 14.9199 88.0959C14.9869 90.0177 14.8485 91.7951 14.9442 93.7223C14.9484 93.809 15.0941 94.083 15.0921 94.2868C15.0889 94.5892 15.0208 94.7553 15.0163 94.9713C14.9958 95.8763 15.0541 96.7045 15.045 97.577C15.0417 97.9083 14.9713 97.7925 14.9674 98.1876C14.9635 98.5825 15.0562 98.8458 15.0114 99.3809C14.9854 99.6888 14.8693 99.9966 14.8056 100.363L15 100.169C14.8854 100.149 14.7651 100.134 14.6373 100.129C14.6169 100.315 14.2484 100.312 13.5936 100.361C13.4677 100.371 13.6027 100.436 13.5432 100.444C13.3008 100.477 13.0766 100.423 12.8465 100.46C12.7905 100.468 12.7879 100.532 12.7421 100.543C12.353 100.637 11.712 100.493 11.6019 100.468C11.1799 100.373 10.9827 100.456 10.6591 100.419C10.3359 100.382 10.8191 100.335 10.4416 100.312C9.65923 100.265 8.65395 100.276 7.85933 100.273C7.54228 100.272 7.75859 100.357 7.71321 100.359C7.05761 100.381 6.39463 100.29 6.03111 100.46C5.57656 100.021 5.63577 100.502 4.69865 100.414C4.62483 100.407 4.53092 100.2 4.81433 100.169C5.09772 100.139 5.52746 100.204 5.92065 100.156C6.01377 100.145 6.54716 99.9507 6.61994 99.9389C7.19 99.8468 7.27078 100.157 7.30095 100.174C7.64297 100.358 8.29478 100.148 8.46642 100.134C9.25166 100.067 9.9188 100.111 10.5756 100.064C11.0051 100.033 11.0471 99.83 11.3844 99.8362C12.5057 99.8568 12.8971 100.14 13.9537 99.8944C14.1802 99.842 13.9551 99.62 14.7669 99.7946C14.7853 99.7986 14.8757 99.8219 15 99.8454L14.4825 100.363C14.5241 100.143 14.566 99.8165 14.5014 99.594C14.4887 99.5503 14.424 99.5516 14.4185 99.494C14.3834 99.1074 14.4349 98.8496 14.4102 98.4285C14.3856 98.0075 14.3487 97.5011 14.3707 97.0204C14.3838 96.7307 14.5044 96.3589 14.5339 96.2202C14.6189 95.8286 14.4795 95.4087 14.5825 95.1661C14.686 94.9214 14.8431 95.3997 14.91 94.7582C14.7419 94.7344 14.5693 94.6798 14.4002 94.6416C14.4062 93.2356 14.4605 91.8522 14.4531 90.4416C14.452 90.2667 14.3616 90.4455 14.3581 90.2581C14.3438 89.467 14.4082 88.7761 14.3825 87.9558C14.3623 87.3209 14.2666 86.6246 14.2425 85.9606C14.4349 85.555 14.3696 84.5698 14.3872 83.8541C14.3932 83.6034 14.4446 83.6201 14.4614 83.4418C14.5234 82.7692 14.3534 83.0843 14.3266 82.9C14.2124 82.1088 14.5972 82.0411 14.5877 81.1083C14.5874 81.0589 14.3822 80.4548 14.3695 80.3716C14.2862 79.8429 14.4409 80.2841 14.456 79.9532C14.4837 79.3492 14.5327 78.9294 14.4726 78.2207C14.4548 78.014 14.327 77.5183 14.4259 77.117C14.4388 77.0642 14.5066 77.0933 14.5106 77.0509C14.5768 76.2817 14.3637 76.2614 14.2916 75.8219C14.2195 75.3823 14.3665 74.7033 14.4089 74.5651C14.5185 74.2036 14.4558 74.8421 14.4665 74.8617C14.5946 75.0917 14.5725 74.5965 14.5833 74.2181C14.7922 74.1633 14.7797 73.6342 14.5937 73.8258C14.5734 73.8476 14.5929 74.1421 14.5833 74.2181C14.3784 73.8859 14.3522 73.3044 14.5437 72.6621C14.6334 72.3614 14.7381 72.6457 14.6998 71.7323C14.6825 71.3178 14.5387 71.478 14.4995 71.1122C14.41 70.2765 14.5442 69.1906 14.523 68.329C14.5154 68.0163 14.4366 68.3209 14.4287 68.1072C14.4073 67.5401 14.4664 67.0399 14.4361 66.4703C14.4333 66.4187 14.3509 66.5448 14.3498 66.3677C14.3403 65.0249 14.393 63.8558 14.3945 62.4538C14.3952 61.7764 14.3497 60.5654 14.3589 59.8637C14.3742 58.6475 14.494 57.1514 14.4649 56.1124C14.4463 55.4348 14.3639 55.5835 14.3077 55.2931C14.1988 54.7329 14.3938 53.7411 14.424 53.6076C14.425 53.6035 14.4445 54.1866 14.4868 53.8754C14.5749 53.6945 14.4244 53.6141 14.424 53.6076C14.4435 53.5199 14.4623 52.355 14.4465 52.1238C14.4379 51.9981 14.3598 52.0684 14.3568 52.0029C14.2869 50.4453 14.267 48.885 14.3036 47.3053C14.3051 47.2775 14.3925 47.3194 14.3951 47.254C14.4339 46.3395 14.3271 45.7539 14.2636 44.9996C14.2002 44.2455 14.2215 43.6474 14.3714 43.201C14.3525 42.6319 14.4188 41.8156 14.4591 41.3458C14.4993 40.876 14.3293 40.8105 14.3259 40.7691C14.2183 39.4799 14.3156 38.7346 14.3308 37.3971C14.3383 36.7612 14.3136 35.4998 14.295 34.8113C14.28 34.2672 14.3199 33.9394 14.2944 33.438C14.291 33.3702 14.2153 33.4387 14.2124 33.418C14.1218 32.8584 14.3069 33.1273 14.3399 33.0118C14.4601 32.5929 14.5242 32.3342 14.4676 31.6176C14.4547 31.4523 14.1882 30.9709 14.1726 30.6696C14.1528 30.2778 14.2483 30.4257 14.2252 30.0155C14.2233 29.9804 14.1644 29.9877 14.167 29.7346C14.1782 28.5595 14.2125 27.2784 14.2066 26.0573C14.2061 25.8905 14.1126 26.1043 14.1102 25.8633C14.0991 24.7325 14.1026 23.493 14.1463 22.3913C14.1574 22.1201 14.2228 22.2901 14.2423 22.2312C14.3599 21.8698 14.189 21.3573 14.1858 21.2728C14.1037 19.2556 14.2583 17.7118 14.1847 15.6559C14.1803 15.544 13.9972 14.6825 14.1543 14.2982C14.1647 14.2719 14.3254 13.8917 14.2155 13.5554C14.2087 13.5346 14.1259 13.7715 14.1344 13.358C14.1428 12.9445 14.0875 12.2791 14.1784 11.7107C14.2071 11.5308 14.3674 11.1055 14.2396 10.5687C14.2307 10.5337 13.9417 9.7051 14.1411 9.40932C14.1739 9.36138 14.3849 9.41157 14.2767 8.77093C14.2557 8.64854 14.2087 8.87074 14.1793 8.54827C14.134 8.05421 14.1905 7.39959 14.0965 6.79224C14.0799 6.68633 13.9367 6.23545 14.0454 5.87379C14.0624 5.81714 14.1328 5.92476 14.1407 5.73376C14.1785 4.8255 14.1314 3.87447 14.1801 2.95229C14.1973 2.62565 14.3111 2.79264 14.3416 2.45218C14.3721 2.11161 14.4015 1.42558 14.3495 1.06927C14.2974 0.712875 14.1159 1.1022 14.1014 0.568291C14.0995 0.499794 14.0978 0.431313 14.0963 0.362854L15 1.26659C12.7486 1.31831 10.5167 1.2176 8.26741 1.20248C7.92366 1.20016 8.20864 1.2651 7.70207 1.26633C5.83852 1.27115 2.62406 1.33178 1 1.19497L1.83211 0.362854C1.83181 0.366409 1.83151 0.36998 1.83121 0.373528C1.72069 1.67202 1.63656 0.0379562 1.59159 1.0302C1.57013 1.509 1.78111 2.02703 1.78775 2.14261C1.85522 3.27178 1.76176 4.05649 1.79044 5.07281C1.79639 5.28267 1.8819 5.07685 1.88602 5.25546C1.90085 5.86555 1.86268 6.50677 1.86966 7.08976C1.87299 7.35131 1.9383 7.30312 1.93326 7.54377C1.92195 8.11964 1.8945 8.62882 1.83328 9.19022C1.82771 9.24138 1.74646 8.89638 1.74344 9.32242C1.73878 10.012 1.67839 10.8679 1.74076 11.6612C1.75951 11.8966 1.90878 11.9058 1.8057 12.4118C1.78417 12.5179 1.60493 12.3825 1.7598 12.9719C1.78553 13.071 1.99442 14.0611 1.85977 14.547C1.82434 14.6752 1.67767 15.0024 1.70072 15.2854C1.70439 15.3238 1.78457 15.1701 1.79239 15.4046C1.81856 16.2313 1.81 17.0976 1.83512 17.9469C1.84198 18.1737 1.92495 17.8359 1.93253 18.1739C1.9535 19.1034 1.93237 20.2639 1.9064 21.1728C1.89667 21.5079 1.82795 21.2763 1.82047 21.3007C1.69882 21.6928 1.86302 21.9246 1.87259 22.0547C1.92992 22.8641 1.85279 23.4804 1.8732 24.2265C1.87863 24.4324 1.95692 24.2864 1.9639 24.3274C2.03211 24.7524 1.89151 24.4358 1.87601 24.7049C1.83212 25.4586 1.83842 26.2988 1.84842 27.061C1.85221 27.341 1.94299 27.0263 1.94534 27.2776C1.96099 28.7647 1.9523 30.3107 1.90225 31.762C1.89267 32.0353 1.82276 31.8634 1.80679 31.9203C1.69509 32.3129 1.84746 32.8882 1.86197 33.0206C1.92824 33.6225 1.86642 33.8563 1.87796 34.3878C1.93541 36.9845 1.89447 40.1907 1.86917 42.6418C1.83662 45.8358 1.77012 48.3143 1.78739 51.3602C1.7884 51.5538 1.88139 51.3586 1.88345 51.5254C1.90587 53.68 1.86953 55.801 1.89639 57.9599C1.89843 58.137 1.98659 57.8816 1.99283 58.166C2.00624 58.7492 2.00145 59.488 1.9733 60.0777C1.95974 60.3653 1.88409 59.9795 1.87198 60.2691C1.84362 60.9432 1.83734 61.6658 1.85147 62.3582C1.85768 62.6529 1.94784 62.2083 1.94888 62.5913C1.95783 65.2003 1.97336 67.7626 1.8566 70.3991C1.84858 70.5798 1.66533 70.7384 1.70047 71.1227C1.75133 71.1516 1.81115 71.1501 1.86551 71.1627C1.89479 74.9607 1.83127 78.72 1.82144 82.5286C1.82105 82.6892 1.91815 82.4117 1.91788 82.7226C1.91644 84.522 1.94334 86.2693 1.84683 88.1098C1.8374 88.2925 1.66658 88.1988 1.69242 88.7369C1.69713 88.8318 1.71991 89.6424 1.75699 89.852C1.76258 89.8804 1.84231 89.7325 1.84464 89.9937C1.85674 91.5115 1.83854 93.1021 1.78983 94.6173C1.78181 94.8619 1.69691 94.6014 1.69046 94.7756C1.64539 96.0111 1.70993 97.355 1.63285 98.5356C1.58094 99.3258 1.43417 99.0332 1.28971 99.4532C1.26932 99.5125 1.26609 100.002 1.18204 100.027C0.970681 100.092 0.739242 99.8551 0.513952 99.9524C0.465427 99.9729 0.517692 100.628 0.400427 100.24C0.392579 100.213 0.35366 99.738 0.31388 99.621C0.286376 99.5395 0.200894 99.6864 0.165687 99.5201C0.130513 99.3539 0.202169 99.1712 0.160804 98.8956C0.118927 98.6202 0.0216813 98.7413 0.0101698 98.1911ZM14.6389 39.2305C14.7205 38.7956 14.4214 38.7314 14.493 39.2018C14.4968 39.2246 14.6349 39.253 14.6389 39.2305ZM14.6861 91.8601C14.818 91.2915 14.6241 90.9023 14.5222 91.3035C14.4204 91.7046 14.6461 92.0334 14.6861 91.8601ZM14.7824 97.7571C14.8865 97.0924 14.4623 96.9878 14.5481 97.6997C14.5529 97.7411 14.7764 97.7959 14.7824 97.7571ZM1.24857 97.5058C1.2446 97.5118 1.24073 97.8635 1.24466 97.8719C1.33965 98.0592 1.34733 97.3559 1.24857 97.5058ZM11.7541 100.25C11.9616 100.308 12.559 100.241 12.3012 100.17C12.0936 100.113 11.4957 100.179 11.7541 100.25ZM14.9581 16.5396C14.9626 16.5327 14.9666 16.2805 14.9414 16.2856C14.8602 16.3027 14.8831 16.6537 14.9581 16.5396ZM1.80846 100.255C3.27788 100.271 4.16881 100.621 2.56863 100.582C2.27885 100.575 3.19316 100.47 2.82433 100.439C2.14946 100.381 1.70133 100.601 1.01264 100.483C0.887966 100.461 1.72464 100.253 1.81107 100.255C1.8102 100.255 1.80933 100.255 1.80846 100.255ZM14.9981 38.9801C15.0021 38.9713 15.0058 38.6223 15.0019 38.6139C14.907 38.4248 14.8994 39.1281 14.9981 38.9801ZM15.143 1.82422C15.1515 1.80495 15.1593 0.994797 15.1516 0.968376C14.9963 0.545746 14.9799 2.18365 15.143 1.82422ZM15.217 62.4912C15.3125 62.8721 15.3238 63.3278 15.2038 63.6315C15.2102 63.2529 15.2111 62.8718 15.217 62.4912Z" fill="black"/>
</svg>
