<svg width="89" height="16" viewBox="0 0 89 16" fill="none" xmlns="http://www.w3.org/2000/svg">
<path d="M0.222046 1H88.222V15H0.222046V1Z" fill="#C02B53"/>
<path d="M2.16516 0.0101698C3.30832 -0.015883 4.80681 0.0119737 5.94565 0.0502087C6.30256 0.0620673 6.12184 0.115075 6.36821 0.125648C6.85008 0.146258 7.29901 0.120261 7.7752 0.144813C7.93301 0.153209 7.73657 0.237174 7.90205 0.244056C8.80884 0.281163 9.66669 0.259777 10.5853 0.277625C15.11 0.365685 19.5576 0.397205 24.1376 0.435461C25.6478 0.448004 27.4836 0.524206 29.0434 0.490881C29.2255 0.486916 29.1169 0.413216 29.1516 0.407141C29.6949 0.31415 29.5143 0.462935 29.8691 0.482702C31.2772 0.560754 32.843 0.567542 34.1982 0.539099C34.7747 0.526782 34.1967 0.380395 34.7772 0.462561C34.8175 0.468112 34.6712 0.546377 34.8293 0.554724C35.1879 0.573498 35.8681 0.559509 36.146 0.56571C36.6816 0.578057 36.7702 0.577269 37.2768 0.578161C37.9692 0.580061 38.7929 0.618966 39.5359 0.601232C39.6945 0.597215 39.4845 0.516985 39.7374 0.503332C39.9906 0.489702 40.6603 0.496505 40.886 0.515417C41.1119 0.534339 41.0157 0.597399 41.0557 0.611852C41.3845 0.733849 42.1592 0.564884 42.2588 0.560705C44.0761 0.489506 45.6345 0.58576 47.3404 0.585485C48.6355 0.585073 50.0202 0.553296 51.2524 0.557653C52.7205 0.563155 53.9647 0.606631 55.3909 0.599157C55.5414 0.598461 55.365 0.504129 55.5489 0.503088C57.502 0.492111 59.4415 0.502394 61.3862 0.566076C61.5812 0.572546 61.3299 0.655368 61.5247 0.666784C62.7176 0.734849 64.6052 0.898357 65.3137 0.537756C66.1218 0.551837 67.1028 0.566385 67.8258 0.639074C68.2919 0.685858 67.8392 0.776084 68.4118 0.737585C68.5409 0.729007 68.373 0.649991 68.5666 0.643102C69.382 0.614176 70.2728 0.639861 71.0794 0.599035C71.2435 0.590545 71.1987 0.519744 71.2452 0.506994C71.6359 0.403741 72.2863 0.574425 72.428 0.586828C73.5077 0.679315 74.2961 0.642919 75.3019 0.645178C75.5353 0.645741 75.2595 0.550639 75.484 0.547766C76.6488 0.534136 77.8555 0.54231 78.996 0.584509C79.2497 0.594124 79.0164 0.675134 79.1377 0.683874C79.6722 0.721424 79.7907 0.568417 80.3034 0.601477C80.4115 0.60825 80.3506 0.6776 80.3703 0.685217C80.6789 0.804778 80.947 0.635368 81.0264 0.631628C82.0303 0.580523 82.672 0.757378 83.6419 0.732336C83.7579 0.729161 83.4963 0.641412 83.8224 0.637853C85.2605 0.621822 86.7533 0.626958 88.222 0.652611L88.566 0.649239L88.5694 1C88.5563 1.75052 88.5379 2.49473 88.5141 3.2221C88.5033 3.5565 88.4374 3.31779 88.4293 3.33883C88.3023 3.68179 88.4724 3.90372 88.4788 4.01275C88.525 4.87296 88.3823 5.6765 88.5849 6.26097C88.5285 9.18417 88.5906 12.0966 88.5236 15L88.5265 15.2985L88.222 15.3015C87.5071 15.285 86.7926 15.2607 86.0787 15.2248C86.0328 15.2227 86.1151 15.1389 86.0235 15.1351C84.92 15.0881 85.1319 15.2183 84.4017 15.3775C84.2178 15.4175 83.6582 15.2252 83.6087 15.2111C83.4283 15.1592 83.6154 15.0346 83.555 15.0245C83.0552 14.9455 83.1367 15.3577 82.4624 15.3579C82.4413 15.3572 82.5299 15.2813 82.4733 15.2738C82.2975 15.2501 82.1232 15.2802 81.9512 15.2541C81.5574 15.1937 81.4172 14.9934 80.8158 15.11C80.7396 15.1251 80.8559 15.3589 80.2539 15.3479C80.0139 15.3433 78.9516 15.3473 78.6539 15.3321C78.3566 15.317 78.5607 15.2416 78.5395 15.2384C77.7383 15.1387 78.0421 15.0974 77.6407 14.9499C77.2393 14.803 77.3506 15.1535 77.187 15.1926C77.0231 15.2316 76.4357 15.1494 76.2913 15.1208C76.147 15.0922 76.327 15.0443 76.1987 15.0282C75.348 14.9225 75.8253 15.2021 75.545 15.2578C74.8842 15.3895 74.3695 15.1296 73.7645 15.1041C73.6008 15.0972 73.7344 15.1564 73.5886 15.162C73.0113 15.1831 72.6641 15.102 72.0073 15.1764C71.8999 15.1885 71.3689 15.3448 71.0252 15.2301C70.9766 15.2135 71.1149 15.1488 70.8688 15.1342C70.5013 15.1125 69.839 15.0983 69.4439 15.12C69.1522 15.136 69.4866 15.2427 69.1194 15.2096C68.9563 15.1948 69.2587 15.1323 68.9521 15.1097C68.6472 15.0871 67.8675 15.0899 67.5708 15.092C67.2747 15.0942 67.4368 15.1752 67.4128 15.1806C67.268 15.2119 66.6996 15.2509 66.6494 15.2508C64.116 15.2607 61.7799 15.1242 59.3133 15.1694C59.1198 15.1728 59.2487 15.2582 59.2192 15.2596C58.5565 15.2954 59.079 15.0684 58.6161 14.9924C58.683 15.1657 58.4097 15.1343 57.9429 15.1533C57.718 15.1626 57.8405 15.2297 57.82 15.2365C57.4864 15.3384 57.2541 15.2068 57.1943 15.1799C56.9734 15.0809 56.733 15.1979 56.5826 15.1317C56.4324 15.066 56.7781 14.9686 56.3305 14.9698C56.205 15.0318 56.5373 15.1939 56.1974 15.2202C54.915 15.3195 52.5212 15.1924 51.4901 15.1792C50.461 15.166 50.1287 15.1774 49.529 15.155C48.4459 15.1145 48.8428 15.2347 48.1703 15.2898C47.4958 15.3448 47.8237 15.0489 47.7267 14.9853C47.6315 14.9217 47.5276 14.9872 47.4092 14.9522C47.2912 14.9173 47.5467 14.874 47.2691 14.8609C46.9914 14.8478 46.2322 14.9609 46.1337 15.0274C45.9256 15.1683 46.2678 15.3162 45.533 15.2642C45.4907 15.2612 45.6278 15.1834 45.466 15.1755C44.1808 15.1156 42.8455 15.1119 41.5618 15.0589C41.3853 15.0515 41.5431 14.965 41.4404 14.9597C40.3704 14.9043 40.7529 15.0503 40.1665 15.2124C40.2982 14.9966 39.9739 14.8646 39.1618 14.8634C38.6737 14.8625 38.7577 14.9567 38.442 15.0232C38.3473 15.0432 38.0019 14.9785 37.9393 15.0228C37.7329 15.1676 38.0582 15.3298 37.221 15.2652C37.1843 15.2622 37.3012 15.1829 37.1743 15.1781C36.3539 15.1466 36.2557 15.2981 35.3689 15.3165C34.6738 15.3309 33.4375 15.2385 32.646 15.2235C32.6626 14.9809 31.915 15.0365 31.6117 15.2037C31.0981 15.1969 30.5433 15.2063 30.0468 15.1832C29.8759 15.1753 29.9882 15.1051 29.9666 15.0975C29.6362 14.9785 29.4129 15.1412 29.302 15.1475C28.1004 15.2096 27.1213 15.0862 25.9745 15.2068C25.9338 15.2111 25.8678 15.3796 25.5612 15.2566C25.5414 15.2481 25.9202 15.1714 25.3807 15.1655C24.8411 15.1596 23.824 15.0692 23.0749 15.1473C22.8936 15.1661 22.4351 15.3029 22.0671 15.196C22.0181 15.1815 22.0717 15.1332 22.001 15.1063C21.7722 15.0206 21.6473 15.1909 21.3784 15.0462C21.1095 14.9016 20.5502 14.7932 19.7948 14.893C19.7707 14.8959 19.5919 15.0309 19.3543 15.0288C18.9751 15.0253 18.4367 14.9971 18.0407 14.998C17.8511 14.9985 17.9725 15.0823 17.9396 15.0838C16.6647 15.1308 15.7574 15.0561 14.3917 15.0236C14.1414 15.0175 13.422 15.1318 12.9373 15.0415C12.4051 14.9426 12.952 14.5311 11.7287 14.6291C11.2354 14.6683 10.6107 15.1903 9.72409 14.9199C8.00454 14.9869 6.41427 14.8485 4.68992 14.9442C4.61238 14.9484 4.36717 15.0941 4.18487 15.0921C3.91423 15.0889 3.76566 15.0208 3.57243 15.0163C2.76267 14.9958 2.02167 15.0541 1.24094 15.045C0.944521 15.0417 1.04819 14.9713 0.694639 14.9674C0.523135 14.9655 0.379349 14.9864 0.222046 15.0032C0.200929 14.8332 0.187565 14.6513 0.210606 14.4049C0.244738 14.0433 0.434244 13.6818 0.456333 13.2018C0.269406 13.1835 0.273256 12.8539 0.223912 12.268C0.214338 12.1553 0.149277 12.2761 0.141393 12.2228C0.10786 12.006 0.161781 11.8054 0.125279 11.5995C0.116513 11.5494 0.0526758 11.5471 0.0419055 11.5061C-0.052106 11.158 0.0914884 10.5844 0.11649 10.4859C0.211442 10.1083 0.128415 9.93191 0.165807 9.64232C0.203193 9.35321 0.24993 9.7855 0.272618 9.44777C0.319545 8.74773 0.309235 7.84827 0.312168 7.1373C0.312945 6.85362 0.227732 7.04716 0.225865 7.00656C0.204253 6.41997 0.294894 5.82677 0.125157 5.50152C0.564034 5.09482 0.0825886 5.14779 0.170445 4.30932C0.177551 4.24327 0.385092 4.15925 0.415562 4.41282C0.446002 4.66638 0.381127 5.05088 0.428623 5.40269C0.439769 5.48601 0.634249 5.96325 0.64603 6.02836C0.7381 6.53842 0.427957 6.6107 0.410923 6.63769C0.227092 6.94371 0.436607 7.52691 0.451084 7.68048C0.517419 8.38306 0.473803 8.97998 0.521152 9.56762C0.551754 9.95195 0.754909 9.98954 0.74869 10.2913C0.728137 11.2946 0.444735 11.6448 0.690463 12.5901C0.742872 12.7929 0.964914 12.5914 0.790316 13.3178C0.779309 13.3634 0.619584 13.9027 0.720614 14.2142C0.733353 14.2534 0.798064 14.2521 0.8035 14.3037C0.829954 14.5639 0.807327 14.7589 0.80501 15L0.222046 14.417C0.301393 14.4178 0.385766 14.4164 0.479082 14.4102C0.8558 14.3856 1.30885 14.3487 1.73898 14.3707C1.99822 14.3838 2.33083 14.5044 2.45493 14.5339C2.80533 14.6189 3.18102 14.4795 3.39811 14.5825C3.61703 14.686 3.18904 14.8431 3.76309 14.91C3.78433 14.7419 3.83319 14.5693 3.86736 14.4002C5.12534 14.4062 6.3631 14.4605 7.62529 14.4531C7.78177 14.452 7.62172 14.3616 7.78949 14.3581C8.49724 14.3438 9.11542 14.4082 9.84938 14.3825C10.4175 14.3623 11.0405 14.2666 11.6346 14.2425C11.9974 14.4349 12.879 14.3696 13.5194 14.3872C13.7437 14.3932 13.7287 14.4446 13.8882 14.4614C14.4901 14.5234 14.2081 14.3534 14.3731 14.3266C15.0809 14.2124 15.1416 14.5972 15.9762 14.5877C16.0204 14.5874 16.5609 14.3822 16.6353 14.3695C17.1083 14.2862 16.7136 14.4409 17.0096 14.456C17.5501 14.4837 17.9257 14.5327 18.5598 14.4726C18.7447 14.4548 19.1882 14.327 19.5473 14.4259C19.5946 14.4388 19.5684 14.5066 19.6065 14.5106C20.2947 14.5768 20.3128 14.3637 20.706 14.2916C21.0994 14.2195 21.7069 14.3665 21.8305 14.4089C22.154 14.5185 21.5827 14.4558 21.5652 14.4665C21.3594 14.5946 21.8025 14.5725 22.1411 14.5833C22.1901 14.7922 22.6635 14.7797 22.492 14.5937C22.4725 14.5734 22.209 14.5929 22.1411 14.5833C22.4382 14.3784 22.9586 14.3522 23.5332 14.5437C23.8023 14.6334 23.548 14.7381 24.3651 14.6998C24.736 14.6825 24.5927 14.5387 24.92 14.4995C25.6677 14.41 26.6394 14.5442 27.4102 14.523C27.69 14.5154 27.4175 14.4366 27.6087 14.4287C28.1161 14.4073 28.5636 14.4664 29.0733 14.4361C29.1194 14.4333 29.0066 14.3509 29.1651 14.3498C30.3665 14.3403 31.4126 14.393 32.667 14.3945C33.2731 14.3952 34.3566 14.3497 34.9845 14.3589C36.0726 14.3742 37.4112 14.494 38.3408 14.4649C38.9471 14.4463 38.8141 14.3639 39.0739 14.3077C39.5752 14.1988 40.4626 14.3938 40.5821 14.424C40.5857 14.425 40.064 14.4445 40.3424 14.4868C40.5042 14.5749 40.5762 14.4244 40.5821 14.424C40.6605 14.4435 41.7027 14.4623 41.9097 14.4465C42.0221 14.4379 41.9592 14.3598 42.0178 14.3568C43.4114 14.2869 44.8075 14.267 46.2209 14.3036C46.2458 14.3051 46.2083 14.3925 46.2668 14.3951C47.0851 14.4339 47.609 14.3271 48.2839 14.2636C48.9587 14.2002 49.4938 14.2215 49.8932 14.3714C50.4023 14.3525 51.1328 14.4188 51.5531 14.4591C51.9734 14.4993 52.0321 14.3293 52.0691 14.3259C53.2226 14.2183 53.8894 14.3156 55.0861 14.3308C55.6551 14.3383 56.7837 14.3136 57.3997 14.295C57.8866 14.28 58.1799 14.3199 58.6285 14.2944C58.6892 14.291 58.6279 14.2153 58.6464 14.2124C59.1471 14.1218 58.9065 14.3069 59.0098 14.3399C59.3846 14.4601 59.6161 14.5242 60.2573 14.4676C60.4052 14.4547 60.8359 14.1882 61.1055 14.1726C61.456 14.1528 61.3237 14.2483 61.6907 14.2252C61.7221 14.2233 61.7156 14.1644 61.9421 14.167C62.9935 14.1782 64.1397 14.2125 65.2323 14.2066C65.3816 14.2061 65.1902 14.1126 65.4058 14.1102C66.4177 14.0991 67.5267 14.1026 68.5124 14.1463C68.7551 14.1574 68.603 14.2228 68.6556 14.2423C68.979 14.3599 69.4375 14.189 69.5132 14.1858C71.318 14.1037 72.6993 14.2583 74.5388 14.1847C74.6389 14.1803 75.4097 13.9972 75.7536 14.1543C75.7771 14.1647 76.1173 14.3254 76.4182 14.2155C76.4368 14.2087 76.2248 14.1259 76.5948 14.1344C76.9648 14.1428 77.5602 14.0875 78.0687 14.1784C78.2297 14.2071 78.6102 14.3674 79.0905 14.2396C79.1218 14.2307 79.8632 13.9417 80.1278 14.1411C80.1707 14.1739 80.1258 14.3849 80.699 14.2767C80.8085 14.2557 80.6097 14.2087 80.8982 14.1793C81.3403 14.134 81.926 14.1905 82.4694 14.0965C82.5642 14.0799 82.9676 13.9367 83.2912 14.0454C83.3419 14.0624 83.2456 14.1328 83.4165 14.1407C84.2291 14.1785 85.0801 14.1314 85.9052 14.1801C86.1974 14.1973 86.048 14.3111 86.3527 14.3416C86.6574 14.3721 87.2712 14.4015 87.59 14.3495C87.9089 14.2974 87.5605 14.1159 88.0382 14.1014C88.0995 14.0995 88.1608 14.0978 88.222 14.0963L87.3183 15C87.2666 12.9856 87.3673 10.9886 87.3824 8.97611C87.3847 8.66854 87.3198 8.92352 87.3186 8.47028C87.3137 6.79922 87.2529 3.91415 87.3908 2.46413C87.5014 1.30233 87.5855 2.76439 87.6305 1.87659C87.6471 1.54383 87.5236 1.18992 87.4644 1L88.222 1.7576C88.1674 1.7746 88.1264 1.78627 88.1033 1.78775C87.093 1.85522 86.3909 1.76176 85.4816 1.79044C85.2938 1.79639 85.478 1.8819 85.3181 1.88602C84.7723 1.90085 84.1985 1.86268 83.6769 1.86966C83.4429 1.87299 83.486 1.9383 83.2707 1.93326C82.7555 1.92195 82.2998 1.8945 81.7976 1.83328C81.7518 1.82771 82.0605 1.74646 81.6793 1.74344C81.0623 1.73878 80.2965 1.67839 79.5867 1.74076C79.3761 1.75951 79.3678 1.90878 78.9151 1.8057C78.8201 1.78417 78.9413 1.60493 78.414 1.7598C78.3253 1.78553 77.4394 1.99442 77.0046 1.85977C76.8899 1.82434 76.5972 1.67767 76.3439 1.70072C76.3096 1.70439 76.4472 1.78457 76.2373 1.79239C75.4977 1.81856 74.7225 1.81 73.9626 1.83512C73.7597 1.84198 74.062 1.92495 73.7595 1.93253C72.9279 1.9535 71.8896 1.93237 71.0763 1.9064C70.7765 1.89667 70.9837 1.82795 70.9619 1.82047C70.6111 1.69882 70.4036 1.86302 70.2872 1.87259C69.563 1.92992 69.0116 1.85279 68.344 1.8732C68.1598 1.87863 68.2904 1.95692 68.2538 1.9639C67.8735 2.03211 68.1568 1.89151 67.916 1.87601C67.2417 1.83212 66.4899 1.83842 65.8079 1.84842C65.5574 1.85221 65.8389 1.94299 65.6141 1.94534C64.2835 1.96099 62.9003 1.9523 61.6017 1.90225C61.3572 1.89267 61.5111 1.82276 61.4601 1.80679C61.1089 1.69509 60.5941 1.84746 60.4757 1.86197C59.9371 1.92824 59.7279 1.86642 59.2523 1.87796C56.929 1.93541 54.0603 1.89447 51.8672 1.86917C49.0094 1.83662 46.7918 1.77012 44.0665 1.78739C43.8933 1.7884 44.068 1.88139 43.9187 1.88345C41.991 1.90587 40.0932 1.86953 38.1616 1.89639C38.0031 1.89843 38.2315 1.98659 37.9771 1.99283C37.4553 2.00624 36.7943 2.00145 36.2667 1.9733C36.0093 1.95974 36.3545 1.88409 36.0954 1.87198C35.4923 1.84362 34.8457 1.83734 34.2262 1.85147C33.9626 1.85768 34.3603 1.94784 34.0177 1.94888C31.6833 1.95783 29.3907 1.97336 27.0318 1.8566C26.87 1.84858 26.7281 1.66533 26.3843 1.70047C26.3584 1.75133 26.3598 1.81115 26.3485 1.86551C22.9503 1.89479 19.5867 1.83127 16.179 1.82144C16.0353 1.82105 16.2836 1.91815 16.0054 1.91788C14.3955 1.91644 12.8321 1.94334 11.1853 1.84683C11.0219 1.8374 11.1057 1.66658 10.6242 1.69242C10.5393 1.69713 9.81404 1.71991 9.62654 1.75699C9.60107 1.76258 9.73338 1.84231 9.49969 1.84464C8.14164 1.85674 6.71848 1.83854 5.36278 1.78983C5.14398 1.78181 5.37699 1.69691 5.22115 1.69046C4.1157 1.64539 2.91329 1.70993 1.85699 1.63285C1.14994 1.58094 1.41171 1.43417 1.03599 1.28971C0.982847 1.26932 0.545019 1.26609 0.522377 1.18204C0.46425 0.970681 0.67632 0.739242 0.589302 0.513952C0.570918 0.465427 -0.0154481 0.517692 0.331718 0.400427C0.355971 0.392579 0.781089 0.35366 0.885796 0.31388C0.958697 0.286376 0.827328 0.200894 0.976068 0.165687C1.1248 0.130513 1.28823 0.202169 1.53482 0.160804C1.78129 0.118927 1.67291 0.0216813 2.16516 0.0101698ZM53.4457 14.6389C53.8349 14.7205 53.8923 14.4214 53.4714 14.493C53.451 14.4968 53.4256 14.6349 53.4457 14.6389ZM6.35605 14.6861C6.86485 14.818 7.21304 14.6241 6.85409 14.5222C6.49521 14.4204 6.201 14.6461 6.35605 14.6861ZM1.07985 14.7824C1.67451 14.8865 1.76813 14.4623 1.13121 14.5481C1.09418 14.5529 1.04508 14.7764 1.07985 14.7824ZM2.77838 1.24857C2.77301 1.2446 2.45828 1.24073 2.45076 1.24466C2.28317 1.33965 2.9125 1.34733 2.77838 1.24857ZM0.334751 10.6221C0.277379 10.8077 0.343608 11.3422 0.414951 11.1116C0.472344 10.9259 0.406119 10.3909 0.334751 10.6221ZM73.7481 14.9581C73.7543 14.9626 73.9799 14.9666 73.9754 14.9414C73.9601 14.8602 73.6461 14.8831 73.7481 14.9581ZM0.329868 1.72336C0.313904 3.03811 -0.0364464 3.83525 0.0030873 2.40351C0.0102401 2.14423 0.114811 2.9623 0.146397 2.6323C0.203942 2.02846 -0.016035 1.62751 0.101842 1.01131C0.123417 0.899757 0.331558 1.64836 0.330357 1.7257C0.330194 1.72492 0.330031 1.72414 0.329868 1.72336ZM53.6698 14.9981C53.6776 15.0021 53.99 15.0058 53.9974 15.0019C54.1666 14.907 53.5373 14.8994 53.6698 14.9981ZM86.9145 15.143C86.9318 15.1515 87.6566 15.1593 87.6803 15.1516C88.0584 14.9963 86.5929 14.9799 86.9145 15.143ZM32.6335 15.217C32.2927 15.3125 31.885 15.3238 31.6133 15.2038C31.952 15.2102 32.293 15.2111 32.6335 15.217Z" fill="black"/>
</svg>
