<svg width="15" height="97" viewBox="0 0 15 97" fill="none" xmlns="http://www.w3.org/2000/svg">
<path d="M2.31499 0.00762737C3.5366 -0.0119122 5.13793 0.00898027 6.35493 0.0376565C6.73633 0.0465505 6.5432 0.0863066 6.80649 0.094236C7.32143 0.109694 7.80116 0.0901957 8.31003 0.10861C8.47867 0.114907 8.26875 0.177881 8.44558 0.183042C9.4146 0.210873 10.3313 0.194832 11.313 0.208219C12.2909 0.221577 13.2655 0.2332 14.2385 0.243481L14.7415 0.24002L14.745 0.75C14.7045 4.58799 14.6848 8.4024 14.6619 12.3068C14.6525 13.9206 14.5954 15.8824 14.6204 17.5493C14.6233 17.7439 14.6786 17.6279 14.6832 17.6649C14.7529 18.2456 14.6413 18.0525 14.6265 18.4316C14.568 19.9364 14.5629 21.6097 14.5842 23.0578C14.5934 23.6739 14.7032 23.0562 14.6416 23.6766C14.6374 23.7196 14.5787 23.5633 14.5725 23.7323C14.5584 24.1154 14.5689 24.8424 14.5642 25.1394C14.555 25.7117 14.5556 25.8063 14.5549 26.3477C14.5535 27.0877 14.5243 27.9679 14.5376 28.7618C14.5406 28.9313 14.6008 28.7069 14.611 28.9772C14.6212 29.2477 14.6161 29.9634 14.602 30.2047C14.5878 30.446 14.5405 30.3432 14.5296 30.386C14.4381 30.7373 14.5649 31.5651 14.568 31.6716C14.6214 33.6137 14.5492 35.279 14.5494 37.102C14.5497 38.4859 14.5736 39.9657 14.5703 41.2825C14.5662 42.8513 14.5336 44.1809 14.5392 45.705C14.5397 45.8658 14.6104 45.6773 14.6112 45.8738C14.6194 47.9609 14.6117 50.0335 14.564 52.1117C14.5591 52.3201 14.497 52.0515 14.4884 52.2597C14.4374 53.5345 14.3148 55.5516 14.5852 56.3088C14.5746 57.1723 14.5637 58.2207 14.5092 58.9932C14.4741 59.4913 14.4065 59.0075 14.4353 59.6194C14.4418 59.7574 14.501 59.5779 14.5062 59.7849C14.5279 60.6562 14.5086 61.6082 14.5392 62.4701C14.5456 62.6455 14.5987 62.5976 14.6083 62.6473C14.6857 63.0648 14.5577 63.7598 14.5484 63.9113C14.479 65.0651 14.5063 65.9076 14.5046 66.9824C14.5042 67.2318 14.5755 66.937 14.5777 67.177C14.5879 68.4218 14.5818 69.7112 14.5501 70.9301C14.5429 71.2012 14.4822 70.9519 14.4756 71.0814C14.4475 71.6527 14.5622 71.7793 14.5374 72.3272C14.5323 72.4427 14.4803 72.3776 14.4746 72.3987C14.3849 72.7284 14.512 73.0149 14.5148 73.0997C14.5531 74.1726 14.4205 74.8583 14.4393 75.8947C14.4417 76.0187 14.5075 75.7391 14.5101 76.0877C14.5283 78.4097 14.5102 80.8654 14.4576 83.1638C14.4495 83.5212 14.4001 83.2661 14.394 83.2886C14.2987 83.6551 14.4263 83.8922 14.4311 84.0087C14.4657 84.928 14.3587 85.7866 14.5107 86.4112C14.4684 89.535 14.515 92.6474 14.4647 95.75L14.4662 95.9746L14.2385 95.9762C13.4745 95.9638 12.711 95.9455 11.9481 95.9186C11.899 95.917 11.987 95.8542 11.8891 95.8513C10.7098 95.816 10.9363 95.9137 10.156 96.0331C9.95945 96.0631 9.36151 95.9189 9.3086 95.9084C9.11585 95.8694 9.31577 95.7759 9.25122 95.7684C8.71712 95.7091 8.80415 96.0183 8.08364 96.0184C8.0611 96.0179 8.15575 95.961 8.09529 95.9553C7.90742 95.9376 7.72112 95.9602 7.53728 95.9406C7.11651 95.8953 6.96664 95.745 6.32397 95.8325C6.24262 95.8438 6.36685 96.0192 5.72355 96.0109C5.4671 96.0074 4.33192 96.0105 4.01376 95.9991C3.696 95.9877 3.91418 95.9312 3.89152 95.9288C3.03533 95.854 3.35998 95.8231 2.93101 95.7124C2.5021 95.6022 2.62105 95.8651 2.44619 95.8944C2.27103 95.9237 1.64329 95.862 1.48901 95.8406C1.33484 95.8192 1.52713 95.7833 1.39005 95.7711C0.480986 95.6918 0.991035 95.9016 0.6915 95.9433C0.533646 95.9654 0.383595 95.9728 0.238525 95.9708L0.0192591 95.9723L0.0177295 95.75C0.0247684 95.2461 0.145624 94.8023 0.160457 94.3003C0.165616 94.1253 0.121214 94.2681 0.117061 94.1123C0.101203 93.4954 0.162035 93.1244 0.106258 92.4225C0.0971691 92.3077 -0.0200437 91.7403 0.0659752 91.373C0.0783789 91.321 0.126961 91.4688 0.137844 91.2059C0.154176 90.8131 0.164795 90.1054 0.148555 89.6832C0.136541 89.3715 0.056488 89.7288 0.081356 89.3364C0.09246 89.162 0.139291 89.4852 0.156246 89.1576C0.173195 88.8317 0.171138 87.9986 0.169521 87.6815C0.167868 87.365 0.107145 87.5383 0.103054 87.5127C0.0796199 87.3579 0.050339 86.7506 0.0504113 86.6969C0.0429984 83.9897 0.145354 81.4932 0.111477 78.8573C0.108906 78.6505 0.0448718 78.7883 0.0438195 78.7567C0.0169905 78.0486 0.187242 78.6069 0.244228 78.1122C0.114284 78.1837 0.137813 77.8917 0.123562 77.3929C0.116589 77.1525 0.0662736 77.2834 0.0611229 77.2615C-0.0152999 76.905 0.0834102 76.6568 0.103603 76.5929C0.177884 76.3568 0.0901162 76.0999 0.139766 75.9392C0.189046 75.7787 0.262101 76.1482 0.261165 75.6698C0.214649 75.5357 0.0930919 75.8908 0.0733909 75.5276C-0.00112879 74.1572 0.0942454 71.5991 0.104153 70.4972C0.114051 69.3976 0.105469 69.0424 0.12228 68.4016C0.152675 67.2441 0.0624876 67.6683 0.021206 66.9496C-0.0200707 66.2288 0.201834 66.5792 0.249538 66.4756C0.29722 66.3739 0.248136 66.2628 0.274349 66.1363C0.300555 66.0102 0.332989 66.2832 0.34283 65.9866C0.35266 65.6898 0.267832 64.8785 0.217952 64.7733C0.112279 64.5509 0.00137079 64.9165 0.0403405 64.1313C0.0426532 64.0861 0.101002 64.2327 0.106899 64.0597C0.151818 62.6863 0.154603 61.2594 0.194332 59.8876C0.199886 59.699 0.264797 59.8676 0.268764 59.7579C0.310282 58.6145 0.200834 59.0232 0.0792503 58.3965C0.241052 58.5372 0.340043 58.1907 0.340999 57.3229C0.34163 56.8013 0.270963 56.8911 0.221157 56.5537C0.206142 56.4525 0.254665 56.0833 0.221431 56.0165C0.112795 55.7959 -0.00881629 56.1436 0.0396081 55.2489C0.0419094 55.2096 0.101375 55.3346 0.104977 55.199C0.128549 54.3223 0.0149172 54.2174 0.00115603 53.2697C-0.00964174 52.5268 0.0596496 51.2057 0.070919 50.3599C0.252831 50.3777 0.211176 49.5788 0.0857505 49.2547C0.0908854 48.7057 0.0837949 48.1129 0.101131 47.5823C0.107042 47.3997 0.15971 47.5197 0.165401 47.4967C0.254673 47.1436 0.132649 46.9049 0.127865 46.7865C0.0813616 45.5023 0.173846 44.4561 0.0834617 43.2305C0.0802063 43.187 -0.0461555 43.1166 0.0461083 42.7889C0.0524682 42.7678 0.109961 43.1725 0.114406 42.596C0.118862 42.0194 0.186601 40.9324 0.128048 40.132C0.113951 39.9383 0.0113711 39.4483 0.0915183 39.055C0.102402 39.0026 0.138643 39.06 0.158809 38.9843C0.223069 38.7399 0.0953482 38.6064 0.203853 38.3191C0.312353 38.0317 0.393612 37.434 0.318751 36.6267C0.316575 36.601 0.215344 36.4099 0.216945 36.1561C0.219587 35.7508 0.240676 35.1755 0.240016 34.7523C0.239664 34.5497 0.176805 34.6794 0.175655 34.6442C0.140431 33.2819 0.19647 32.3123 0.22079 30.8529C0.225373 30.5854 0.139655 29.8166 0.207424 29.2986C0.281609 28.7299 0.59021 29.3143 0.516688 28.0071C0.487281 27.4799 0.0957651 26.8124 0.29861 25.8649C0.248346 24.0273 0.352162 22.328 0.280391 20.4853C0.277211 20.4024 0.167942 20.1404 0.169429 19.9456C0.171849 19.6563 0.222919 19.4976 0.226283 19.2911C0.241667 18.4258 0.197972 17.6339 0.204769 16.7996C0.207238 16.4829 0.260045 16.5936 0.262996 16.2158C0.265898 15.8382 0.196362 15.5865 0.229946 15.0748C0.255544 14.6884 0.397674 14.3021 0.414241 13.7892C0.274045 13.7696 0.276933 13.4174 0.239925 12.7913C0.232744 12.6709 0.183949 12.8 0.178035 12.743C0.152886 12.5113 0.193327 12.2969 0.16595 12.0769C0.159375 12.0234 0.111498 12.0209 0.10342 11.9771C0.0329115 11.6051 0.140607 10.9922 0.159359 10.8869C0.230573 10.4834 0.168302 10.2949 0.196346 9.98542C0.224386 9.67648 0.259438 10.1384 0.276454 9.77752C0.311649 9.02944 0.303917 8.06825 0.306117 7.30849C0.3067 7.00532 0.24279 7.21216 0.24139 7.16878C0.22518 6.5419 0.293162 5.90804 0.165859 5.56045C0.495016 5.12583 0.133932 5.18244 0.199825 4.28643C0.205154 4.21585 0.36081 4.12606 0.383662 4.39703C0.406492 4.66799 0.357837 5.07889 0.393458 5.45483C0.401818 5.54387 0.547678 6.05388 0.556513 6.12344C0.625566 6.66852 0.392959 6.74575 0.380183 6.7746C0.24231 7.1016 0.399446 7.72484 0.410304 7.88895C0.460055 8.63973 0.427343 9.27763 0.462855 9.90558C0.485807 10.3163 0.638173 10.3565 0.633509 10.679C0.618094 11.7511 0.405542 12.1253 0.589838 13.1355C0.629145 13.3522 0.795677 13.1369 0.664728 13.9131C0.656473 13.9619 0.536679 14.5381 0.612452 14.8711C0.622006 14.9129 0.670539 14.9116 0.674616 14.9667C0.700988 15.3363 0.662323 15.5828 0.680841 15.9855C0.699359 16.3881 0.726966 16.8722 0.710504 17.3318C0.700661 17.6089 0.610237 17.9643 0.588099 18.0969C0.524325 18.4714 0.628887 18.8728 0.551661 19.1048C0.474046 19.3387 0.356175 18.8814 0.306026 19.4948C0.432119 19.5176 0.56154 19.5697 0.688349 19.6063C0.683909 20.9506 0.643136 22.2733 0.648706 23.6221C0.649523 23.7893 0.717311 23.6183 0.719934 23.7976C0.730703 24.5539 0.68238 25.2145 0.701624 25.9988C0.716779 26.606 0.788552 27.2717 0.806634 27.9065C0.662349 28.2943 0.71133 29.2363 0.698145 29.9207C0.693589 30.1604 0.655053 30.1444 0.642481 30.3149C0.595985 30.958 0.723489 30.6566 0.743555 30.8329C0.829192 31.5894 0.540593 31.6542 0.547724 32.5461C0.548004 32.5933 0.70184 33.1709 0.71142 33.2504C0.773888 33.7559 0.657876 33.3341 0.646509 33.6504C0.625738 34.228 0.588999 34.6293 0.634058 35.307C0.647404 35.5046 0.743289 35.9786 0.669123 36.3623C0.659411 36.4128 0.608563 36.3849 0.605585 36.4255C0.555947 37.1609 0.715719 37.1803 0.76983 37.6006C0.823929 38.0209 0.713636 38.6701 0.681848 38.8022C0.599615 39.1479 0.646705 38.5374 0.638636 38.5186C0.542601 38.2988 0.559135 38.7722 0.55102 39.134C0.394362 39.1864 0.403765 39.6924 0.543238 39.5091C0.558472 39.4882 0.543863 39.2067 0.55102 39.134C0.704723 39.4516 0.724408 40.0076 0.580775 40.6218C0.513456 40.9093 0.434965 40.6375 0.463679 41.5108C0.476641 41.9071 0.584508 41.7539 0.613917 42.1037C0.681015 42.9027 0.580393 43.9411 0.596247 44.7648C0.602003 45.0638 0.661049 44.7726 0.667017 44.9769C0.683041 45.5192 0.638737 45.9974 0.661432 46.542C0.663563 46.5913 0.725372 46.4708 0.72616 46.6401C0.733338 47.924 0.693749 49.0419 0.692652 50.3823C0.69215 51.03 0.726239 52.1879 0.719385 52.8589C0.707871 54.0217 0.617992 55.4522 0.639826 56.4456C0.653802 57.0935 0.715624 56.9513 0.757745 57.2289C0.839394 57.7647 0.693142 58.7129 0.670496 58.8406C0.669746 58.8445 0.655173 58.287 0.623438 58.5845C0.557314 58.7574 0.670209 58.8343 0.670496 58.8406C0.655866 58.9244 0.641832 60.0382 0.65365 60.2593C0.660109 60.3795 0.718681 60.3123 0.720941 60.3749C0.773358 61.8641 0.788245 63.356 0.760858 64.8664C0.759675 64.893 0.694158 64.853 0.692194 64.9155C0.663063 65.7899 0.743211 66.3498 0.790796 67.071C0.838359 67.7921 0.822429 68.3639 0.709955 68.7908C0.724116 69.3348 0.674392 70.1154 0.64422 70.5646C0.614049 71.0137 0.741583 71.0764 0.744104 71.1159C0.824801 72.3486 0.751803 73.0612 0.740442 74.3401C0.734822 74.9481 0.753321 76.1541 0.767267 76.8124C0.778502 77.3327 0.748614 77.6461 0.767725 78.1255C0.770277 78.1904 0.827062 78.1249 0.829248 78.1447C0.897187 78.6797 0.758368 78.4226 0.733576 78.533C0.643416 78.9335 0.595398 79.1809 0.637812 79.8661C0.647525 80.0241 0.847405 80.4845 0.859094 80.7725C0.873925 81.1471 0.80228 81.0057 0.819635 81.3979C0.821054 81.4314 0.865254 81.4245 0.863305 81.6665C0.85484 82.79 0.829121 84.015 0.833551 85.1825C0.833986 85.342 0.904094 85.1376 0.905877 85.368C0.914188 86.4492 0.911593 87.6344 0.878778 88.6878C0.87048 88.947 0.821393 88.7845 0.806818 88.8408C0.718629 89.1863 0.846765 89.6764 0.849206 89.7572C0.910782 91.6859 0.794821 93.1619 0.85003 95.1277C0.851794 95.1859 0.893269 95.4564 0.911737 95.75L0.238525 95.0768C0.484537 95.0613 0.746856 95.062 0.91437 95.1157C0.939525 95.1235 1.3031 95.2441 1.62456 95.1617C1.64453 95.1565 1.41798 95.0945 1.81334 95.1008C2.20868 95.1071 2.84496 95.0657 3.3884 95.1338C3.56045 95.1553 3.96709 95.2755 4.4803 95.1797C4.51374 95.173 5.30603 94.9563 5.58883 95.1058C5.63467 95.1304 5.58668 95.2887 6.19922 95.2075C6.31625 95.1918 6.1038 95.1565 6.41212 95.1345C6.88451 95.1005 7.51042 95.1429 8.09113 95.0724C8.1924 95.0599 8.6235 94.9525 8.9693 95.034C9.02346 95.0468 8.92056 95.0996 9.10319 95.1055C9.97161 95.1339 10.8809 95.0986 11.7627 95.1351C12.075 95.1479 11.9153 95.2333 12.2408 95.2562C12.5665 95.2791 13.2224 95.3011 13.5631 95.2621C13.9039 95.2231 13.5316 95.0869 14.0421 95.0761C14.1076 95.0747 14.1731 95.0734 14.2385 95.0722L13.5607 95.75C13.5219 93.5974 13.5975 91.4633 13.6088 89.3127C13.6105 88.984 13.5618 89.2565 13.5609 88.7722C13.5573 86.9864 13.5116 83.9033 13.6151 82.3538C13.698 81.1123 13.7611 82.6747 13.7948 81.726C13.8109 81.2681 13.6527 80.7729 13.6477 80.6623C13.5971 79.5827 13.6672 78.8324 13.6457 77.8607C13.6412 77.66 13.5771 77.8568 13.574 77.686C13.5629 77.1027 13.5915 76.4896 13.5863 75.9322C13.5838 75.6821 13.5348 75.7282 13.5386 75.4981C13.5471 74.9475 13.5677 74.4606 13.6136 73.9238C13.6177 73.8749 13.6787 74.2048 13.6809 73.7974C13.6844 73.1381 13.7297 72.3198 13.683 71.5612C13.6689 71.3362 13.5569 71.3274 13.6343 70.8436C13.6504 70.7421 13.7848 70.8716 13.6687 70.308C13.6494 70.2132 13.4927 69.2666 13.5937 68.802C13.6203 68.6794 13.7303 68.3666 13.713 68.0959C13.7102 68.0593 13.6501 68.2063 13.6442 67.982C13.6246 67.1916 13.631 66.3632 13.6122 65.5512C13.607 65.3344 13.5448 65.6574 13.5391 65.3342C13.5234 64.4455 13.5392 63.3359 13.5587 62.4668C13.566 62.1464 13.6176 62.3679 13.6232 62.3446C13.7144 61.9697 13.5913 61.748 13.5841 61.6236C13.5411 60.8497 13.5989 60.2604 13.5836 59.547C13.5796 59.3502 13.5208 59.4898 13.5156 59.4506C13.4644 59.0442 13.5699 59.3469 13.5815 59.0897C13.6144 58.369 13.6097 57.5656 13.6022 56.8368C13.5994 56.5691 13.5313 56.87 13.5295 56.6298C13.5178 55.2079 13.5243 53.7297 13.5618 52.342C13.569 52.0807 13.6215 52.2451 13.6334 52.1907C13.7172 51.8153 13.6029 51.2653 13.592 51.1387C13.5423 50.5632 13.5887 50.3396 13.5801 49.8314C13.537 47.3486 13.5677 44.2831 13.5866 41.9395C13.6111 38.8855 13.6609 36.5157 13.648 33.6034C13.6472 33.4183 13.5775 33.605 13.5759 33.4454C13.5591 31.3854 13.5864 29.3574 13.5662 27.2932C13.5647 27.1238 13.4986 27.368 13.4939 27.0961C13.4838 26.5385 13.4874 25.8321 13.5086 25.2683C13.5187 24.9932 13.5755 25.3621 13.5845 25.0853C13.6058 24.4408 13.6105 23.7498 13.5999 23.0878C13.5953 22.806 13.5276 23.2311 13.5269 22.8649C13.5202 20.3704 13.5085 17.9204 13.5961 15.3996C13.6021 15.2268 13.7395 15.0751 13.7132 14.7077C13.675 14.68 13.6302 14.6815 13.5894 14.6694C13.5674 11.038 13.6151 7.44365 13.6224 3.80202C13.6227 3.64848 13.5499 3.91383 13.5501 3.61657C13.5507 2.65357 13.5447 1.70617 13.5519 0.75L14.2385 1.43662C13.4864 1.43092 12.7289 1.41699 11.9541 1.38513C11.7795 1.37805 11.8691 1.24994 11.3545 1.26931C11.2638 1.27285 10.4888 1.28993 10.2884 1.31774C10.2612 1.32194 10.4026 1.38173 10.1529 1.38348C8.70162 1.39256 7.18079 1.37891 5.73205 1.34237C5.49824 1.33636 5.74724 1.27268 5.5807 1.26785C4.39939 1.23404 3.11447 1.28245 1.98567 1.22463C1.23009 1.1857 1.50983 1.07563 1.10833 0.96728C1.05154 0.951993 0.583663 0.949571 0.559468 0.886531C0.497351 0.72801 0.723975 0.554432 0.630986 0.385464C0.61134 0.34907 -0.0152672 0.388269 0.355724 0.300321C0.381642 0.294434 0.835935 0.265245 0.947827 0.23541C1.02573 0.214782 0.885346 0.15067 1.04429 0.124265C1.20323 0.0978846 1.37788 0.151627 1.64139 0.120603C1.90478 0.0891954 1.78896 0.016261 2.31499 0.00762737ZM0.509364 72.587C0.448117 73.0029 0.672438 73.0643 0.618769 72.6145C0.615908 72.5927 0.512368 72.5656 0.509364 72.587ZM0.473933 22.2657C0.374992 22.8095 0.520475 23.1815 0.596888 22.798C0.673219 22.4144 0.503926 22.1001 0.473933 22.2657ZM0.401698 16.6275C0.323687 17.2629 0.641783 17.363 0.577479 16.6823C0.573845 16.6428 0.406228 16.5903 0.401698 16.6275ZM2.97029 0.936427C2.96455 0.933448 2.62822 0.930545 2.62019 0.933497C2.4411 1.00474 3.11362 1.0105 2.97029 0.936427ZM0.323054 11.0324C0.280025 11.2308 0.329697 11.802 0.383204 11.5555C0.426249 11.3571 0.376581 10.7853 0.323054 11.0324ZM0.269954 94.2828C0.266611 94.2894 0.263601 94.5305 0.282497 94.5256C0.343355 94.5093 0.326179 94.1737 0.269954 94.2828ZM0.319392 1.523C0.307419 2.92798 0.0446562 3.77983 0.0743064 2.24982C0.079671 1.97276 0.158099 2.84698 0.181789 2.49432C0.224948 1.84905 0.0599647 1.42057 0.148372 0.762084C0.164554 0.642875 0.320659 1.44286 0.319759 1.5255C0.319636 1.52465 0.319514 1.52385 0.319392 1.523ZM0.239925 72.8265C0.236959 72.8349 0.234146 73.1686 0.237087 73.1766C0.308302 73.3574 0.31401 72.685 0.239925 72.8265ZM12.8413 95.8573C12.8597 95.8636 13.6343 95.8695 13.6596 95.8637C14.0637 95.7472 12.4976 95.7349 12.8413 95.8573ZM0.0757713 50.3466C0.00412792 49.9824 -0.00430728 49.5467 0.0856589 49.2563C0.0808831 49.6183 0.0801795 49.9826 0.0757713 50.3466Z" fill="black"/>
<path d="M1.35283 45.3153C1.42007 45.2958 1.50822 45.3167 1.57521 45.3454C1.5962 45.3543 1.58557 45.394 1.60006 45.4019C1.62841 45.4174 1.65482 45.3979 1.68283 45.4163C1.69211 45.4226 1.68056 45.4856 1.69029 45.4907C1.74363 45.5186 1.79409 45.5025 1.84813 45.5159C2.11428 45.582 2.37591 45.6056 2.64532 45.6343C2.73416 45.6437 2.84214 45.7009 2.9339 45.6759C2.94461 45.6729 2.93822 45.6176 2.94026 45.6131C2.97223 45.5433 2.9616 45.6549 2.98247 45.6697C3.0653 45.7283 3.15741 45.7334 3.23712 45.712C3.27104 45.7028 3.23703 45.593 3.27118 45.6546C3.27355 45.6588 3.26495 45.7175 3.27425 45.7237C3.29534 45.7378 3.33535 45.7273 3.3517 45.732C3.3832 45.7412 3.38842 45.7407 3.41821 45.7413C3.45895 45.7427 3.5074 45.7719 3.5511 45.7586C3.56043 45.7556 3.54808 45.6954 3.56296 45.6852C3.57785 45.675 3.61724 45.6801 3.63053 45.6943C3.64381 45.7085 3.63815 45.7557 3.6405 45.7666C3.65985 45.8581 3.70541 45.7314 3.71128 45.7282C3.81818 45.6748 3.90985 45.747 4.0102 45.7468C4.08637 45.7465 4.16783 45.7227 4.24031 45.7259C4.32667 45.7301 4.39986 45.7627 4.48375 45.7571C4.49261 45.7565 4.48223 45.6858 4.49305 45.685C4.60793 45.6768 4.72202 45.6845 4.83641 45.7323C4.84789 45.7371 4.8331 45.7992 4.84456 45.8078C4.91474 45.8588 5.02577 45.9815 5.06745 45.711C5.11498 45.7216 5.17269 45.7325 5.21521 45.787C5.24263 45.8221 5.216 45.8898 5.24968 45.8609C5.25728 45.8545 5.2474 45.7952 5.25879 45.79C5.30676 45.7683 5.35916 45.7876 5.40661 45.757C5.41626 45.7506 5.41362 45.6975 5.41636 45.6879C5.43934 45.6105 5.4776 45.7385 5.48594 45.7478C5.54945 45.8172 5.59583 45.7899 5.65499 45.7916C5.66872 45.792 5.65249 45.7207 5.6657 45.7185C5.73422 45.7083 5.8052 45.7144 5.87229 45.7461C5.88721 45.7533 5.87349 45.8141 5.88062 45.8206C5.91207 45.8488 5.91904 45.734 5.94919 45.7588C5.95555 45.7639 5.95197 45.8159 5.95313 45.8216C5.97128 45.9113 5.98705 45.7842 5.99172 45.7814C6.05078 45.7431 6.08852 45.8757 6.14558 45.857C6.1524 45.8546 6.13701 45.7888 6.1562 45.7861C6.28401 45.7679 6.41919 45.786 6.54571 45.8386C6.56538 45.8467 6.55134 45.8962 6.55257 45.9023C6.57275 45.9975 6.5858 45.8699 6.59222 45.8651C6.64282 45.8305 6.69008 45.9375 6.72446 45.7855C6.93876 45.8383 7.15208 45.7529 7.3646 45.8891C7.3673 45.8907 7.36246 45.9535 7.36785 45.9564C7.43277 45.9917 7.4203 45.894 7.46325 45.7746C7.47407 45.7446 7.50698 45.8888 7.5099 45.8993C7.52051 45.9383 7.5095 46.0318 7.51306 46.0393C7.54246 46.0986 7.53766 45.7894 7.57733 45.7893C7.57857 45.7898 7.57336 45.8467 7.57669 45.8524C7.58703 45.8701 7.59728 45.8475 7.6074 45.8671C7.63056 45.9124 7.63881 46.0627 7.67419 45.9752C7.67867 45.9639 7.67183 45.7885 7.70724 45.7968C7.72136 45.8003 7.78384 45.7972 7.80136 45.8086C7.81885 45.82 7.80684 45.8765 7.80809 45.8789C7.85522 45.9537 7.83734 45.9846 7.86096 46.0953C7.88457 46.2055 7.87802 45.9426 7.88764 45.9133C7.89729 45.884 7.93184 45.9457 7.94033 45.9671C7.94882 45.9885 7.93824 46.0244 7.94578 46.0366C7.99582 46.1159 7.96774 45.9061 7.98423 45.8644C8.02311 45.7656 8.05338 45.9605 8.08897 45.9796C8.0986 45.9848 8.09074 45.9404 8.09931 45.9362C8.13327 45.9204 8.1537 45.9812 8.19233 45.9254C8.19865 45.9163 8.22989 45.7991 8.2501 45.8852C8.25297 45.8976 8.24483 45.9461 8.2593 45.957C8.28092 45.9734 8.31988 45.984 8.34312 45.9677C8.36028 45.9557 8.34061 45.8757 8.36221 45.9005C8.37181 45.9116 8.35402 45.9585 8.37205 45.9754C8.38999 45.9924 8.43585 45.9903 8.45331 45.9887C8.47073 45.987 8.46119 45.9263 8.4626 45.9222C8.47112 45.8988 8.50455 45.8695 8.5075 45.8696C8.65653 45.8622 8.79395 45.9645 8.93904 45.9307C8.95042 45.9281 8.94284 45.864 8.94458 45.863C8.98356 45.8362 8.95283 46.0064 8.98005 46.0634C8.97612 45.9335 8.99219 45.957 9.01965 45.9427C9.03288 45.9358 9.02568 45.8854 9.02688 45.8803C9.0465 45.8039 9.06017 45.9026 9.06369 45.9228C9.07668 45.9971 9.09083 45.9093 9.09967 45.9589C9.10851 46.0082 9.08817 46.0813 9.1145 46.0803C9.12188 46.0338 9.10233 45.9123 9.12233 45.8926C9.19776 45.818 9.33858 45.9134 9.39923 45.9233C9.45976 45.9332 9.47931 45.9246 9.51459 45.9415C9.5783 45.9719 9.55495 45.8817 9.59451 45.8404C9.63419 45.7991 9.6149 46.021 9.6206 46.0687C9.6262 46.1164 9.63232 46.0673 9.63928 46.0935C9.64622 46.1197 9.6312 46.1522 9.64752 46.162C9.66386 46.1718 9.70852 46.087 9.71431 46.0371C9.72655 45.9315 9.70642 45.8205 9.74965 45.8595C9.75213 45.8618 9.74407 45.9202 9.75358 45.9261C9.82919 45.971 9.90773 45.9738 9.98325 46.0135C9.99363 46.0191 9.98435 46.084 9.99039 46.0879C10.0533 46.1295 10.0308 46.02 10.0653 45.8984C10.0576 46.0602 10.0767 46.1592 10.1244 46.1602C10.1531 46.1608 10.1482 46.0901 10.1668 46.0403C10.1723 46.0253 10.1927 46.0738 10.1963 46.0406C10.2085 45.932 10.1893 45.8104 10.2386 45.8588C10.2407 45.8611 10.2339 45.9206 10.2413 45.9242C10.2896 45.9477 10.2954 45.8341 10.3475 45.8203C10.3884 45.8095 10.4611 45.8788 10.5077 45.8901C10.5067 46.072 10.5507 46.0303 10.5685 45.9049C10.5988 45.9101 10.6314 45.903 10.6606 45.9203C10.6707 45.9262 10.664 45.9789 10.6653 45.9846C10.6848 46.0738 10.6979 45.9518 10.7044 45.947C10.7751 45.9005 10.8327 45.993 10.9001 45.9026C10.9025 45.8994 10.9064 45.773 10.9245 45.8653C10.9256 45.8716 10.9033 45.9291 10.9351 45.9336C10.9668 45.938 11.0266 46.0058 11.0707 45.9472C11.0814 45.9331 11.1083 45.8305 11.13 45.9107C11.1329 45.9216 11.1297 45.9578 11.1339 45.978C11.1473 46.0422 11.1547 45.9145 11.1705 46.023C11.1863 46.1315 11.2192 46.2128 11.2637 46.1379C11.2651 46.1357 11.2756 46.0345 11.2896 46.0361C11.3119 46.0388 11.3435 46.0599 11.3668 46.0592C11.378 46.0588 11.3709 45.996 11.3728 45.9948C11.4478 45.9596 11.5011 46.0156 11.5815 46.04C11.5962 46.0445 11.6385 45.9588 11.667 46.0266C11.6983 46.1008 11.6662 46.4094 11.7381 46.3359C11.7672 46.3065 11.8039 45.9149 11.8561 46.1178C11.9572 46.0675 12.0507 46.1713 12.1522 46.0996C12.1567 46.0964 12.1712 45.9871 12.1819 45.9886C12.1978 45.991 12.2065 46.0421 12.2179 46.0455C12.2655 46.0608 12.3091 46.0171 12.3551 46.0239C12.3725 46.0264 12.3664 46.0792 12.3872 46.0822C12.408 46.0851 12.4218 46.0155 12.45 46.0491C12.4713 46.0747 12.4925 46.2169 12.5208 46.2334C12.5218 46.0932 12.5412 46.0961 12.5757 46.0591C12.5823 46.0519 12.5752 46.0031 12.5784 45.9972C12.5911 45.9721 12.6029 46.0125 12.615 45.9851C12.618 45.9785 12.6181 45.9307 12.6205 45.9226C12.641 45.8521 12.6747 45.9598 12.6805 45.9785C12.7027 46.0497 12.7131 45.9875 12.7302 46.0155C12.7472 46.0436 12.7217 46.0786 12.7416 46.0956C12.7828 46.1308 12.8357 46.1231 12.8775 46.1253C12.8942 46.1259 12.8828 46.062 12.8852 46.0606C12.9197 46.0444 12.9546 46.1123 12.9737 45.985C12.9977 46.3142 12.9945 45.9531 13.0439 46.019C13.0477 46.0243 13.0527 46.18 13.0378 46.2028C13.0229 46.2257 13.0002 46.177 12.9795 46.2126C12.9746 46.221 12.9466 46.3669 12.9427 46.3757C12.9127 46.4447 12.9085 46.2121 12.9069 46.1994C12.8889 46.0615 12.8546 46.2186 12.8456 46.2295C12.8042 46.2792 12.7691 46.2465 12.7345 46.282C12.7119 46.305 12.7097 46.4573 12.692 46.4527C12.633 46.4373 12.6124 46.2247 12.5568 46.409C12.5448 46.4483 12.5567 46.6149 12.514 46.4839C12.5113 46.4756 12.4795 46.3559 12.4612 46.4316C12.4589 46.4412 12.459 46.4897 12.456 46.4938C12.4356 46.5202 12.422 46.4815 12.3999 46.5C12.3777 46.5185 12.3511 46.5461 12.3258 46.5297C12.3105 46.5198 12.291 46.4294 12.2836 46.4073C12.263 46.3435 12.2409 46.4481 12.2282 46.3708C12.2153 46.2932 12.2405 46.1754 12.2067 46.1252C12.2055 46.2513 12.2026 46.3807 12.2006 46.5075C12.1266 46.5031 12.0538 46.4623 11.9795 46.4679C11.9703 46.4687 11.9797 46.5365 11.9699 46.5391C11.9282 46.5499 11.8919 46.5016 11.8487 46.5208C11.8153 46.536 11.7786 46.6077 11.7437 46.6258C11.7223 46.4815 11.6705 46.5305 11.6328 46.5173C11.6196 46.5128 11.6205 46.4742 11.6111 46.4617C11.5757 46.4152 11.5923 46.5427 11.5826 46.5627C11.5409 46.6484 11.5374 46.3598 11.4883 46.3669C11.4857 46.3672 11.4539 46.521 11.4495 46.5306C11.4217 46.5931 11.4449 46.4771 11.4275 46.4657C11.3957 46.4449 11.3736 46.4082 11.3363 46.4532C11.3254 46.4666 11.2993 46.5625 11.2782 46.4883C11.2754 46.4786 11.277 46.4277 11.2747 46.4248C11.2343 46.3751 11.2332 46.5349 11.2101 46.589C11.1869 46.6431 11.1512 46.5328 11.1439 46.501C11.1249 46.4188 11.1585 46.4659 11.1595 46.4578C11.1716 46.3618 11.1456 46.3783 11.1256 46.3702C11.1228 46.2135 11.0949 46.2229 11.105 46.3624C11.1061 46.3776 11.1216 46.363 11.1256 46.3702C11.1082 46.5239 11.0776 46.5436 11.0437 46.4C11.0279 46.3326 11.0429 46.2541 10.9948 46.2829C10.973 46.2958 10.9814 46.4037 10.9622 46.4331C10.9182 46.5002 10.861 46.3996 10.8157 46.4154C10.7992 46.4212 10.8153 46.4802 10.804 46.4862C10.7742 46.5022 10.7478 46.4579 10.7179 46.4806C10.7151 46.4827 10.7218 46.5445 10.7125 46.5453C10.6418 46.5525 10.5803 46.5129 10.5065 46.5118C10.4708 46.5113 10.4071 46.5454 10.3701 46.5386C10.3061 46.527 10.2274 46.4372 10.1727 46.459C10.1371 46.473 10.1449 46.5348 10.1296 46.5769C10.1001 46.6586 10.0479 46.5123 10.0409 46.4897C10.0407 46.4889 10.0714 46.4743 10.055 46.4426C10.0455 46.3765 10.0412 46.4894 10.0409 46.4897C10.0363 46.475 9.97496 46.461 9.96278 46.4728C9.95617 46.4793 9.95987 46.5379 9.95642 46.5401C9.87444 46.5925 9.79232 46.6074 9.70918 46.58C9.70772 46.5788 9.70992 46.5133 9.70648 46.5114C9.65835 46.4822 9.62753 46.5624 9.58783 46.61C9.54814 46.6575 9.51666 46.6416 9.49316 46.5291C9.46321 46.5433 9.42025 46.4936 9.39552 46.4634C9.3708 46.4332 9.36735 46.5608 9.36517 46.5633C9.29732 46.644 9.25809 46.571 9.1877 46.5596C9.15423 46.554 9.08784 46.5725 9.0516 46.5864C9.02297 46.5977 9.00571 46.5678 8.97932 46.5869C8.97575 46.5895 8.97936 46.6462 8.97827 46.6484C8.94882 46.7164 8.96297 46.5775 8.95689 46.5527C8.93485 46.4626 8.92123 46.4146 8.88351 46.457C8.87481 46.4667 8.84947 46.6666 8.83362 46.6783C8.813 46.6931 8.82078 46.6215 8.79919 46.6388C8.79734 46.6402 8.79773 46.6844 8.78441 46.6825C8.72256 46.674 8.65513 46.6483 8.59086 46.6527C8.58208 46.6532 8.59334 46.7233 8.58066 46.7251C8.52114 46.7334 8.4559 46.7308 8.39791 46.698C8.38364 46.6897 8.39259 46.6406 8.38949 46.626C8.37047 46.5378 8.3435 46.6659 8.33905 46.6684C8.23288 46.73 8.15163 46.614 8.04342 46.6692C8.03753 46.6724 7.99219 46.8098 7.97196 46.692C7.97058 46.6842 7.95057 46.5636 7.93287 46.646C7.93177 46.6512 7.94424 46.7132 7.92248 46.7069C7.90072 46.7006 7.86569 46.7421 7.83578 46.6739C7.82631 46.6524 7.80393 46.5322 7.77568 46.628C7.77383 46.6347 7.73022 46.8514 7.71466 46.7019C7.71213 46.6773 7.71477 46.5191 7.68106 46.6002C7.67461 46.6159 7.68631 46.6512 7.66934 46.6732C7.64333 46.7072 7.60888 46.6648 7.57691 46.7353C7.57134 46.7478 7.54761 46.8552 7.52857 46.7737C7.52559 46.7609 7.53126 46.7081 7.5212 46.7022C7.4734 46.6738 7.42335 46.7091 7.37481 46.6726C7.35762 46.6598 7.36641 46.5744 7.34849 46.5515C7.33057 46.5286 7.29446 46.5066 7.27571 46.5456C7.25695 46.5847 7.27744 46.7208 7.24934 46.7316C7.12718 46.7789 7.00616 46.6991 6.88418 46.6874C6.86609 46.6857 6.88109 46.7344 6.85442 46.7353C6.75613 46.7389 6.58642 46.7846 6.50112 46.6811C6.43278 46.5982 6.51878 46.5351 6.46656 46.5014C6.44136 46.4853 6.4141 46.6435 6.40801 46.6485C6.34858 46.6991 6.30728 46.629 6.25379 46.6505C6.24274 46.655 6.25358 46.7191 6.24418 46.7222C6.21207 46.7333 6.17832 46.7047 6.14764 46.7099C6.13387 46.7124 6.13641 46.7614 6.12374 46.7576C6.09343 46.7492 6.06663 46.7286 6.03709 46.6827C6.03439 46.6785 6.05255 46.6175 6.03013 46.6153C5.99384 46.6118 5.94879 46.5665 5.90703 46.6133C5.89465 46.6273 5.89416 46.7393 5.86753 46.662C5.86194 46.6458 5.86907 46.5114 5.83805 46.6275C5.83283 46.6469 5.78072 46.8035 5.75515 46.7025C5.7484 46.676 5.73118 46.566 5.71628 46.5832C5.71426 46.586 5.72236 46.6461 5.71001 46.652C5.6665 46.6716 5.62091 46.6652 5.57621 46.684C5.56427 46.6892 5.58205 46.7514 5.56426 46.7571C5.51534 46.7728 5.45426 46.757 5.40642 46.7375C5.38879 46.7302 5.40098 46.6787 5.39969 46.673C5.37906 46.5818 5.36685 46.705 5.36001 46.7121C5.31741 46.7551 5.28497 46.6973 5.2457 46.7126C5.23487 46.7167 5.24255 46.7754 5.24039 46.7806C5.21802 46.8318 5.23469 46.7263 5.22052 46.7147C5.18086 46.6818 5.13663 46.6865 5.09652 46.694C5.08178 46.6969 5.09834 46.7649 5.08512 46.7667C5.00685 46.7784 4.92548 46.7719 4.84909 46.7344C4.83471 46.7272 4.84376 46.6748 4.84076 46.6628C4.8201 46.579 4.78982 46.6933 4.78286 46.7042C4.75118 46.7539 4.73887 46.7075 4.7109 46.7162C4.57423 46.7593 4.40548 46.7285 4.27648 46.7096C4.10837 46.6852 3.97792 46.6353 3.81761 46.6482C3.80743 46.649 3.8177 46.7187 3.80892 46.7203C3.69552 46.7371 3.58388 46.7099 3.47026 46.73C3.46094 46.7315 3.47438 46.7976 3.45941 46.8023C3.42872 46.8124 3.38983 46.8088 3.3588 46.7877C3.34366 46.7775 3.36396 46.7208 3.34873 46.7117C3.31325 46.6904 3.27521 46.6857 3.23877 46.6963C3.22326 46.701 3.24666 46.7686 3.2265 46.7694C3.08919 46.7761 2.95433 46.7877 2.81557 46.7001C2.80605 46.6941 2.79771 46.5567 2.77748 46.5831C2.77596 46.6212 2.77604 46.6661 2.77538 46.7068C2.57548 46.7288 2.37762 46.6811 2.17717 46.6738C2.16872 46.6735 2.18332 46.7463 2.16696 46.7461C2.07226 46.745 1.98029 46.7652 1.88342 46.6928C1.87381 46.6857 1.87874 46.5576 1.85042 46.577C1.84542 46.5805 1.80276 46.5976 1.79173 46.6254C1.79023 46.6296 1.79802 46.6894 1.78427 46.6912C1.70438 46.7003 1.62067 46.6866 1.54092 46.6501C1.52805 46.6441 1.54176 46.5804 1.53259 46.5755C1.46756 46.5417 1.39683 46.5902 1.3347 46.5323C1.29311 46.4934 1.30851 46.3833 1.2864 46.275C1.28328 46.2597 1.25752 46.2573 1.25619 46.1942C1.25277 46.0357 1.26525 45.8621 1.26013 45.6932C1.25905 45.6568 1.22456 45.696 1.24498 45.608C1.2464 45.6021 1.27141 45.5729 1.27757 45.5431C1.28186 45.5225 1.27413 45.4584 1.28288 45.432C1.29163 45.4056 1.30124 45.4593 1.31575 45.4283C1.33025 45.3969 1.32387 45.324 1.35283 45.3153ZM9.28419 46.3285C9.2613 46.2673 9.25792 46.4916 9.28268 46.4379C9.28388 46.4351 9.28537 46.3315 9.28419 46.3285ZM12.0542 46.2931C12.0242 46.1942 12.0038 46.3396 12.0249 46.4161C12.046 46.4924 12.0633 46.3231 12.0542 46.2931ZM12.3645 46.2209C12.3296 46.1429 12.324 46.461 12.3615 46.3967C12.3637 46.393 12.3666 46.2254 12.3645 46.2209ZM1.3889 46.2441C1.38858 46.2411 1.37007 46.2382 1.36963 46.2412C1.35977 46.3124 1.39679 46.3182 1.3889 46.2441ZM12.6725 46.1422C12.6616 46.0992 12.6302 46.1489 12.6437 46.2024C12.6547 46.2454 12.6861 46.1958 12.6725 46.1422ZM8.08993 46.0891C8.08957 46.0858 8.0763 46.0828 8.07656 46.1017C8.07746 46.1625 8.09594 46.1454 8.08993 46.0891ZM13.196 46.1386C13.1186 46.1266 13.0717 45.8638 13.156 45.8935C13.1712 45.8988 13.1231 45.9773 13.1425 46.001C13.178 46.0441 13.2016 45.8791 13.2379 45.9675C13.2444 45.9837 13.2004 46.1398 13.1958 46.1389C13.1959 46.1388 13.1959 46.1387 13.196 46.1386ZM9.27101 46.0591C9.27055 46.0561 9.25218 46.0533 9.25174 46.0563C9.24179 46.1275 9.2788 46.1332 9.27101 46.0591ZM7.31544 45.9504C7.31443 45.9441 7.27179 45.9382 7.2704 45.944C7.24815 46.0605 7.33436 46.0728 7.31544 45.9504ZM10.5084 45.8949C10.5285 45.8233 10.5525 45.8149 10.5685 45.9048C10.5485 45.9001 10.5285 45.8994 10.5084 45.8949ZM7.9809 3.09555C8.00044 3.61561 7.97955 4.29734 7.95087 4.81544C7.94198 4.97782 7.90222 4.8956 7.89429 5.00768C7.87883 5.22691 7.89833 5.43114 7.87992 5.64778C7.87362 5.71957 7.81064 5.6302 7.80548 5.70548C7.77765 6.11802 7.79369 6.50829 7.78031 6.92619C7.71426 8.98465 7.69062 11.0081 7.66193 13.0917C7.65252 13.7787 7.59537 14.6139 7.62036 15.3235C7.62334 15.4064 7.67861 15.357 7.68317 15.3727C7.75291 15.6199 7.64132 15.5377 7.6265 15.6992C7.56796 16.3398 7.56287 17.0521 7.5842 17.6686C7.59344 17.9309 7.70323 17.668 7.6416 17.932C7.63744 17.9504 7.57874 17.8838 7.57248 17.9558C7.5584 18.1189 7.56889 18.4284 7.56424 18.5548C7.55498 18.7984 7.55557 18.8387 7.5549 19.0692C7.55348 19.3842 7.5243 19.759 7.5376 20.097C7.54061 20.1691 7.60079 20.0736 7.61103 20.1887C7.62125 20.3038 7.61615 20.6085 7.60196 20.7112C7.58777 20.814 7.54048 20.7702 7.52964 20.7884C7.43814 20.938 7.56486 21.2904 7.568 21.3357C7.6214 22.1625 7.54921 22.8715 7.54941 23.6476C7.54972 24.2367 7.57355 24.8667 7.57029 25.4273C7.56616 26.0952 7.53355 26.6612 7.53916 27.3101C7.53968 27.3785 7.61043 27.2983 7.61121 27.3819C7.61944 28.2705 7.61173 29.1528 7.56397 30.0375C7.55912 30.1263 7.497 30.0119 7.48844 30.1005C7.43739 30.6433 7.31476 31.502 7.58521 31.8243C7.57465 32.192 7.56374 32.6383 7.50922 32.9672C7.47413 33.1792 7.40646 32.9733 7.43534 33.2337C7.44177 33.2925 7.50103 33.2161 7.5062 33.3042C7.52789 33.6751 7.50863 34.0804 7.53925 34.4474C7.54562 34.522 7.59872 34.5016 7.60828 34.5228C7.68572 34.7005 7.55771 34.9964 7.5484 35.0609C7.47904 35.5521 7.50634 35.9108 7.50464 36.3684C7.50422 36.4745 7.57555 36.349 7.5777 36.4512C7.58792 36.9811 7.58179 37.5301 7.55014 38.049C7.54293 38.1644 7.48217 38.0582 7.47562 38.1134C7.44746 38.3566 7.56221 38.4105 7.53742 38.6437C7.53234 38.6929 7.48033 38.6652 7.47461 38.6742C7.38494 38.8146 7.512 38.9365 7.5148 38.9726C7.55313 39.4294 7.42049 39.7213 7.43927 40.1625C7.44165 40.2153 7.50747 40.0963 7.51014 40.2447C7.5283 41.2332 7.51022 42.2787 7.45758 43.2572C7.44949 43.4093 7.40005 43.3007 7.39396 43.3103C7.29873 43.4663 7.42632 43.5673 7.43113 43.6169C7.46571 44.0082 7.35871 44.3738 7.51068 44.6397C7.45795 46.297 7.54329 47.9468 7.40714 49.5905C7.40556 49.6114 7.34272 49.5739 7.33985 49.6156C7.30456 50.1176 7.40223 50.0212 7.52167 50.3534C7.55166 50.4371 7.40746 50.6917 7.39688 50.7142C7.35793 50.7962 7.26445 50.7111 7.2569 50.7386C7.19766 50.966 7.50683 50.9289 7.50693 51.2357C7.50642 51.2453 7.44951 51.205 7.44385 51.2307C7.42609 51.3107 7.4487 51.39 7.42911 51.4683C7.38378 51.6474 7.23356 51.7112 7.32099 51.9848C7.33234 52.0194 7.50771 51.9665 7.49942 52.2404C7.49597 52.3496 7.49898 52.8329 7.48761 52.9683C7.47626 53.1036 7.41975 53.0107 7.4173 53.0204C7.34257 53.3848 7.3116 53.2466 7.20096 53.4293C7.09074 53.6119 7.35363 53.5612 7.38297 53.6357C7.41223 53.7102 7.35057 53.9775 7.32914 54.0432C7.30769 54.1088 7.27178 54.0269 7.25965 54.0853C7.18037 54.4723 7.39013 54.2552 7.43186 54.3827C7.53065 54.6833 7.3357 54.9175 7.31659 55.1927C7.31143 55.2672 7.35584 55.2064 7.35999 55.2727C7.37585 55.5354 7.31502 55.6933 7.37079 55.9921C7.37988 56.041 7.49709 56.2825 7.41108 56.4389C7.39867 56.4611 7.35009 56.3981 7.33921 56.5101C7.32288 56.6773 7.31226 56.9786 7.3285 57.1583C7.34051 57.291 7.42056 57.1389 7.39569 57.3059C7.38459 57.3802 7.33776 57.2426 7.32081 57.3821C7.30386 57.5208 7.30591 57.8755 7.30753 58.0105C7.30918 58.1452 7.36991 58.0714 7.374 58.0823C7.39743 58.1482 7.42671 58.4068 7.42664 58.4296C7.43405 59.5822 7.3317 60.645 7.36557 61.7671C7.36814 61.8552 7.43218 61.7965 7.43323 61.81C7.46006 62.1114 7.28981 61.8737 7.23282 62.0843C7.36277 62.0539 7.33924 62.1782 7.35349 62.3906C7.36046 62.4929 7.41078 62.4372 7.41593 62.4465C7.49235 62.5983 7.39364 62.7039 7.37345 62.7312C7.29917 62.8317 7.38693 62.941 7.33728 63.0094C7.28801 63.0778 7.21495 62.9205 7.21589 63.1241C7.2624 63.1812 7.38396 63.0301 7.40366 63.1847C7.47818 63.7681 7.38281 64.8571 7.3729 65.3262C7.363 65.7944 7.37158 65.9456 7.35477 66.2184C7.32438 66.7111 7.41456 66.5306 7.45584 66.8365C7.49712 67.1434 7.27522 66.9942 7.22751 67.0383C7.17983 67.0816 7.22891 67.1289 7.2027 67.1828C7.1765 67.2365 7.14406 67.1202 7.13422 67.2465C7.12439 67.3728 7.20922 67.7183 7.2591 67.763C7.36477 67.8577 7.47568 67.7021 7.43671 68.0364C7.4344 68.0556 7.37605 67.9932 7.37015 68.0668C7.32523 68.6515 7.32245 69.259 7.28272 69.843C7.27716 69.9233 7.21225 69.8515 7.20829 69.8982C7.16677 70.385 7.27622 70.211 7.3978 70.4778C7.236 70.4179 7.13701 70.5654 7.13605 70.9348C7.13542 71.1569 7.20609 71.1187 7.25589 71.2623C7.27091 71.3054 7.22239 71.4625 7.25562 71.491C7.36426 71.5849 7.48587 71.4369 7.43744 71.8178C7.43514 71.8345 7.37568 71.7813 7.37207 71.839C7.3485 72.2123 7.46213 72.2569 7.47589 72.6604C7.48669 72.9766 7.4174 73.5391 7.40613 73.8992C7.22422 73.8916 7.26588 74.2317 7.3913 74.3697C7.38617 74.6034 7.39326 74.8558 7.37592 75.0816C7.37001 75.1594 7.31734 75.1083 7.31165 75.1181C7.22238 75.2684 7.3444 75.37 7.34919 75.4204C7.39569 75.9671 7.3032 76.4126 7.39359 76.9343C7.39684 76.9528 7.52321 76.9828 7.43094 77.1223C7.42458 77.1313 7.36709 76.959 7.36264 77.2044C7.35819 77.4499 7.29045 77.9126 7.349 78.2534C7.3631 78.3359 7.46568 78.5445 7.38553 78.7119C7.37465 78.7342 7.33841 78.7098 7.31824 78.742C7.25398 78.8461 7.3817 78.9029 7.2732 79.0252C7.1647 79.1475 7.08344 79.402 7.1583 79.7457C7.16048 79.7566 7.26171 79.838 7.26011 79.9461C7.25746 80.1186 7.23638 80.3635 7.23703 80.5437C7.23739 80.6299 7.30025 80.5747 7.3014 80.5897C7.33662 81.1696 7.28058 81.5824 7.25626 82.2037C7.25168 82.3176 7.3374 82.6449 7.26963 82.8654C7.19544 83.1075 6.88684 82.8587 6.96036 83.4152C6.98977 83.6397 7.38129 83.9239 7.17844 84.3272C7.2287 85.1095 7.12489 85.833 7.19666 86.6175C7.19984 86.6528 7.30911 86.7643 7.30762 86.8472C7.3052 86.9704 7.25413 87.0379 7.25077 87.1259C7.23538 87.4943 7.27908 87.8314 7.27228 88.1866C7.26981 88.3214 7.21701 88.2742 7.21405 88.4351C7.21115 88.5958 7.28069 88.703 7.24711 88.9208C7.22151 89.0853 7.07938 89.2498 7.06281 89.4682C7.20301 89.4765 7.20012 89.6264 7.23713 89.893C7.24431 89.9442 7.2931 89.8893 7.29902 89.9135C7.32416 90.0122 7.28372 90.1034 7.3111 90.1971C7.31768 90.2199 7.36555 90.221 7.37363 90.2396C7.44414 90.398 7.33644 90.6589 7.31769 90.7037C7.24648 90.8755 7.30875 90.9558 7.2807 91.0875C7.25267 91.219 7.21761 91.0224 7.2006 91.176C7.1654 91.4945 7.17313 91.9037 7.17093 92.2271C7.17035 92.3562 7.23426 92.2681 7.23566 92.2866C7.25187 92.5535 7.18389 92.8234 7.31119 92.9713C6.98203 93.1563 7.34312 93.1322 7.27723 93.5137C7.2719 93.5437 7.11624 93.582 7.09339 93.4666C7.07056 93.3513 7.11921 93.1763 7.08359 93.0163C7.07523 92.9784 6.92937 92.7613 6.92054 92.7316C6.85149 92.4996 7.08409 92.4667 7.09687 92.4544C7.23474 92.3152 7.0776 92.0499 7.06675 91.98C7.017 91.6604 7.04971 91.3888 7.0142 91.1215C6.99124 90.9467 6.83888 90.9295 6.84354 90.7922C6.85896 90.3358 7.07151 90.1765 6.88721 89.7464C6.84791 89.6542 6.68137 89.7458 6.81232 89.4154C6.82058 89.3946 6.94037 89.1493 6.8646 89.0075C6.85505 88.9898 6.80651 88.9903 6.80243 88.9668C6.77606 88.8095 6.81473 88.7046 6.79621 88.5331C6.77769 88.3618 6.75009 88.1557 6.76655 87.96C6.77639 87.842 6.86681 87.6907 6.88895 87.6343C6.95273 87.4748 6.84816 87.3039 6.92539 87.2052C7.00301 87.1056 7.12088 87.3003 7.17103 87.0391C7.04493 87.0294 6.91551 87.0072 6.7887 86.9917C6.79314 86.4194 6.83391 85.8563 6.82834 85.2821C6.82753 85.2109 6.75974 85.2837 6.75712 85.2074C6.74635 84.8854 6.79467 84.6041 6.77543 84.2702C6.76027 84.0118 6.6885 83.7283 6.67042 83.4581C6.8147 83.293 6.76572 82.8919 6.77891 82.6006C6.78346 82.4985 6.822 82.5054 6.83457 82.4328C6.88107 82.159 6.75356 82.2873 6.7335 82.2122C6.64786 81.8902 6.93646 81.8626 6.92933 81.4829C6.92905 81.4628 6.77521 81.2169 6.76563 81.1831C6.70316 80.9679 6.81918 81.1474 6.83054 81.0128C6.85131 80.7669 6.88805 80.596 6.84299 80.3075C6.82965 80.2234 6.73376 80.0216 6.80793 79.8583C6.81764 79.8368 6.86849 79.8486 6.87147 79.8314C6.9211 79.5182 6.76133 79.51 6.70722 79.3311C6.65312 79.1521 6.76341 78.8758 6.7952 78.8195C6.87744 78.6724 6.83035 78.9323 6.83842 78.9402C6.93445 79.0339 6.91792 78.8323 6.92603 78.6783C7.08269 78.656 7.07329 78.4406 6.93381 78.5186C6.91858 78.5275 6.93319 78.6473 6.92603 78.6783C6.77233 78.5431 6.75264 78.3063 6.89628 78.0449C6.96359 77.9225 7.04209 78.0382 7.01337 77.6664C7.00041 77.4977 6.89254 77.5629 6.86313 77.414C6.79604 77.0738 6.89666 76.6318 6.8808 76.2811C6.87505 76.1538 6.816 76.2778 6.81003 76.1908C6.79401 75.96 6.83831 75.7564 6.81562 75.5245C6.81349 75.5035 6.75168 75.5548 6.75089 75.4827C6.74371 74.9362 6.7833 74.4603 6.7844 73.8896C6.7849 73.6139 6.75081 73.1209 6.75767 72.8353C6.76918 72.3402 6.85906 71.7312 6.83722 71.3083C6.82325 71.0325 6.76143 71.093 6.71931 70.9748C6.63766 70.7468 6.78391 70.3431 6.80655 70.2887C6.8073 70.2871 6.82188 70.5244 6.85361 70.3978C6.91974 70.3241 6.80684 70.2914 6.80655 70.2887C6.82118 70.253 6.83522 69.7789 6.8234 69.6847C6.81694 69.6336 6.75837 69.6622 6.75611 69.6355C6.70369 69.0015 6.68881 68.3664 6.71619 67.7234C6.71738 67.7121 6.78289 67.7291 6.78486 67.7025C6.81399 67.3302 6.73384 67.0919 6.68625 66.7848C6.63869 66.4779 6.65462 66.2344 6.7671 66.0527C6.75293 65.8211 6.80266 65.4888 6.83283 65.2975C6.863 65.1063 6.73547 65.0796 6.73295 65.0628C6.65225 64.538 6.72525 64.2347 6.73661 63.6902C6.74223 63.4314 6.72373 62.9179 6.70978 62.6377C6.69855 62.4162 6.72844 62.2828 6.70933 62.0787C6.70677 62.0511 6.64999 62.079 6.6478 62.0705C6.57986 61.8427 6.71868 61.9522 6.74348 61.9052C6.83363 61.7347 6.88165 61.6294 6.83924 61.3377C6.82953 61.2704 6.62965 61.0744 6.61796 60.9518C6.60313 60.7923 6.67477 60.8525 6.65742 60.6855C6.656 60.6713 6.6118 60.6742 6.61375 60.5712C6.62221 60.0929 6.64793 59.5714 6.6435 59.0743C6.64306 59.0064 6.57296 59.0935 6.57117 58.9954C6.56286 58.5351 6.56546 58.0305 6.59827 57.5821C6.60657 57.4717 6.65566 57.5409 6.67023 57.5169C6.75842 57.3698 6.63029 57.1612 6.62784 57.1268C6.56627 56.3057 6.68223 55.6773 6.62702 54.8404C6.62378 54.7949 6.48641 54.4442 6.60422 54.2878C6.61206 54.2771 6.73259 54.1223 6.65018 53.9855C6.64503 53.977 6.58298 54.0734 6.5893 53.9051C6.59561 53.7368 6.55417 53.4659 6.62235 53.2345C6.64383 53.1613 6.76406 52.9882 6.66822 52.7697C6.66153 52.7555 6.44482 52.4182 6.59434 52.2978C6.61895 52.2783 6.77718 52.2987 6.69605 52.0379C6.68032 51.9881 6.64503 52.0785 6.62299 51.9473C6.58903 51.7462 6.63141 51.4797 6.56092 51.2325C6.54844 51.1894 6.44105 51.0058 6.52256 50.8586C6.53533 50.8356 6.58815 50.8794 6.59406 50.8016C6.62242 50.4319 6.58708 50.0448 6.62363 49.6694C6.63648 49.5365 6.72187 49.6044 6.74476 49.4659C6.76763 49.3272 6.78964 49.048 6.75062 48.9029C6.71158 48.7579 6.57547 48.9163 6.56458 48.699C6.51728 47.7542 6.59712 46.8183 6.6088 45.8749C6.61055 45.735 6.56184 45.851 6.56092 45.6448C6.5573 44.8845 6.51163 43.572 6.61512 42.9123C6.698 42.3838 6.76111 43.0489 6.79484 42.645C6.81093 42.4501 6.65269 42.2393 6.64771 42.1922C6.59711 41.7326 6.6672 41.4132 6.6457 40.9995C6.64123 40.9141 6.5771 40.9978 6.57401 40.9251C6.56289 40.6768 6.59152 40.4158 6.58628 40.1785C6.58378 40.072 6.5348 40.0916 6.53858 39.9937C6.54706 39.7593 6.56765 39.552 6.61356 39.3235C6.61775 39.3027 6.67868 39.4431 6.68094 39.2697C6.68444 38.989 6.72973 38.6406 6.68296 38.3177C6.66889 38.2219 6.55694 38.2181 6.63425 38.0121C6.6504 37.9689 6.78483 38.0241 6.66868 37.7841C6.64938 37.7438 6.49271 37.3408 6.5937 37.143C6.62027 37.0908 6.73028 36.9576 6.71299 36.8424C6.71023 36.8268 6.6501 36.8894 6.64423 36.7939C6.62461 36.4574 6.63102 36.1048 6.61219 35.7591C6.60704 35.6668 6.54482 35.8042 6.53913 35.6667C6.5234 35.2883 6.53925 34.8159 6.55872 34.446C6.56602 34.3096 6.61757 34.4038 6.62318 34.3939C6.71441 34.2343 6.59126 34.1399 6.58408 34.087C6.54108 33.7575 6.59893 33.5066 6.58362 33.2029C6.57956 33.1191 6.52084 33.1786 6.5156 33.1619C6.46444 32.9889 6.5699 33.1177 6.58152 33.0082C6.61443 32.7014 6.60971 32.3594 6.60221 32.0492C6.59937 31.9352 6.53128 32.0633 6.52952 31.961C6.51778 31.3557 6.5243 30.7264 6.56184 30.1356C6.56903 30.0244 6.62145 30.0943 6.63343 30.0712C6.71721 29.9114 6.60293 29.6772 6.59205 29.6233C6.54234 29.3783 6.58871 29.2831 6.58005 29.0668C6.53697 28.0098 6.56768 26.7047 6.58665 25.707C6.61106 24.4068 6.66094 23.398 6.64799 22.1582C6.64723 22.0794 6.57748 22.1588 6.57593 22.0909C6.55912 21.2139 6.58637 20.3505 6.56623 19.4717C6.5647 19.3996 6.49858 19.5036 6.4939 19.3878C6.48385 19.1504 6.48744 18.8497 6.50855 18.6097C6.51872 18.4926 6.57546 18.6496 6.58454 18.5318C6.60581 18.2574 6.61052 17.9632 6.59992 17.6814C6.59527 17.5614 6.52764 17.7424 6.52686 17.5865C6.52015 16.5245 6.50851 15.4815 6.59608 14.4083C6.60209 14.3348 6.73953 14.2702 6.71317 14.1138C6.67503 14.102 6.63016 14.1026 6.58939 14.0975C6.56743 12.5515 6.61508 11.0213 6.62244 9.47099C6.62274 9.40563 6.54992 9.51859 6.55012 9.39204C6.55119 8.6596 6.53102 7.94836 6.6034 7.19915C6.61048 7.12482 6.73859 7.16296 6.71921 6.9439C6.71568 6.90526 6.69859 6.57533 6.67078 6.49002C6.66659 6.47844 6.60679 6.53863 6.60505 6.43232C6.59597 5.81448 6.60962 5.16703 6.64615 4.55027C6.65217 4.45073 6.71584 4.55673 6.72068 4.48584C6.75448 3.98293 6.70607 3.4359 6.76389 2.95535C6.80282 2.63368 6.9129 2.75277 7.02125 2.58184C7.03653 2.55767 7.03895 2.35848 7.10199 2.34818C7.26051 2.32174 7.43409 2.41822 7.60306 2.37863C7.63946 2.37026 7.60026 2.1035 7.6882 2.26144C7.69409 2.27248 7.72328 2.46588 7.75312 2.51351C7.77374 2.54668 7.83785 2.48691 7.86426 2.55458C7.89064 2.62224 7.8369 2.6966 7.86792 2.80878C7.89933 2.92091 7.97226 2.87161 7.9809 3.09555ZM6.96769 64.4365C7.02893 64.2595 6.80461 64.2333 6.85828 64.4249C6.86114 64.4341 6.96468 64.4457 6.96769 64.4365ZM7.00312 85.8595C7.10206 85.628 6.95658 85.4696 6.88016 85.6329C6.80383 85.7962 6.97312 85.93 7.00312 85.8595ZM7.07535 88.2598C7.15336 87.9893 6.83527 87.9467 6.89957 88.2365C6.90321 88.2533 7.07082 88.2757 7.07535 88.2598ZM7.0521 3.37452C7.05508 3.37208 7.05798 3.2289 7.05503 3.22548C6.98378 3.14923 6.97803 3.43554 7.0521 3.37452ZM7.154 90.6418C7.19703 90.5573 7.14735 90.3141 7.09385 90.4191C7.0508 90.5036 7.10047 90.747 7.154 90.6418ZM7.2071 55.2001C7.21044 55.1973 7.21345 55.0947 7.19455 55.0968C7.1337 55.1037 7.15087 55.2466 7.2071 55.2001ZM7.15766 94.6902C7.16963 94.092 7.43239 93.7294 7.40274 94.3807C7.39738 94.4987 7.31895 94.1265 7.29526 94.2766C7.2521 94.5513 7.41709 94.7338 7.32868 95.0141C7.3125 95.0648 7.15639 94.7243 7.15729 94.6891C7.15741 94.6895 7.15754 94.6898 7.15766 94.6902ZM7.23713 64.3346C7.24009 64.331 7.2429 64.1889 7.23996 64.1855C7.16875 64.1086 7.16304 64.3948 7.23713 64.3346ZM7.3458 49.2102C7.35212 49.2024 7.35803 48.8726 7.35221 48.8619C7.23575 48.6898 7.22345 49.3566 7.3458 49.2102ZM7.40128 73.9048C7.47292 74.0599 7.48136 74.2454 7.39139 74.369C7.39617 74.2149 7.39687 74.0597 7.40128 73.9048Z" fill="black"/>
</svg>
