<svg width="67" height="15" viewBox="0 0 67 15" fill="none" xmlns="http://www.w3.org/2000/svg">
<rect width="14" height="65" transform="translate(65.2872 0.238525) rotate(90)" fill="#E6DBB2"/>
<path d="M66.0296 1.74348C66.0491 2.62887 66.0283 3.78947 65.9996 4.67151C65.9907 4.94795 65.9509 4.80797 65.943 4.99879C65.9275 5.372 65.947 5.7197 65.9286 6.08852C65.9223 6.21074 65.8594 6.0586 65.8542 6.18676C65.8264 6.88908 65.8424 7.55349 65.829 8.26495C65.7913 10.2655 65.7674 12.2467 65.7485 14.2385L65.7529 14.6954L65.2872 14.6998C63.7899 14.6856 62.2866 14.6742 60.7644 14.6619C59.5947 14.6525 58.1729 14.5954 56.9648 14.6204C56.8238 14.6233 56.9079 14.6786 56.881 14.6832C56.4602 14.7529 56.6001 14.6413 56.3253 14.6265C55.2347 14.568 54.0219 14.5629 52.9724 14.5842C52.5258 14.5934 52.9735 14.7032 52.5239 14.6416C52.4927 14.6374 52.606 14.5787 52.4836 14.5725C52.2059 14.5584 51.679 14.5689 51.4638 14.5642C51.049 14.555 50.9803 14.5556 50.588 14.5549C50.0517 14.5535 49.4137 14.5243 48.8383 14.5376C48.7155 14.5406 48.8781 14.6008 48.6822 14.611C48.4861 14.6212 47.9674 14.6161 47.7926 14.602C47.6177 14.5878 47.6921 14.5405 47.6612 14.5296C47.4065 14.4381 46.8065 14.5649 46.7294 14.568C45.3218 14.6214 44.1148 14.5492 42.7936 14.5494C41.7906 14.5497 40.7181 14.5736 39.7637 14.5703C38.6267 14.5662 37.663 14.5336 36.5584 14.5392C36.4418 14.5397 36.5784 14.6104 36.4361 14.6112C34.9234 14.6194 33.4212 14.6117 31.915 14.564C31.764 14.5591 31.9586 14.497 31.8077 14.4884C30.8838 14.4374 29.4218 14.3148 28.8731 14.5852C28.2472 14.5746 27.4874 14.5637 26.9275 14.5092C26.5665 14.4741 26.9171 14.4065 26.4736 14.4353C26.3736 14.4418 26.5037 14.501 26.3537 14.5062C25.7222 14.5279 25.0322 14.5086 24.4075 14.5392C24.2804 14.5456 24.3151 14.5987 24.2791 14.6083C23.9765 14.6857 23.4728 14.5577 23.363 14.5484C22.5268 14.479 21.9161 14.5063 21.1371 14.5046C20.9564 14.5042 21.17 14.5755 20.9961 14.5777C20.0939 14.5879 19.1594 14.5818 18.276 14.5501C18.0795 14.5429 18.2602 14.4822 18.1663 14.4756C17.7523 14.4475 17.6605 14.5622 17.2634 14.5374C17.1797 14.5323 17.2269 14.4803 17.2116 14.4746C16.9726 14.3849 16.765 14.512 16.7035 14.5148C15.9259 14.5531 15.4289 14.4205 14.6777 14.4393C14.5879 14.4417 14.7905 14.5075 14.5379 14.5101C12.855 14.5283 11.0751 14.5102 9.40933 14.4576C9.15033 14.4495 9.33522 14.4 9.31892 14.394C9.05329 14.2987 8.88141 14.4263 8.79697 14.4311C8.13072 14.4657 7.50837 14.3587 7.0557 14.5107C4.79164 14.4684 2.53595 14.5149 0.287231 14.4647L0.0632471 14.4668L0.0610803 14.2385C0.0734629 13.6848 0.0917124 13.1314 0.118614 12.5785C0.120193 12.5429 0.183036 12.6067 0.185905 12.5357C0.221191 11.681 0.123527 11.8452 0.00408887 11.2796C-0.0259099 11.1372 0.118301 10.7038 0.128868 10.6655C0.167823 10.5258 0.261314 10.6707 0.268852 10.6239C0.328094 10.2368 0.0189281 10.2998 0.0188289 9.77764C0.0193401 9.7613 0.0762477 9.8299 0.0819088 9.78608C0.09967 9.64992 0.0770565 9.51489 0.0966488 9.38166C0.141975 9.0767 0.292198 8.96807 0.204765 8.50228C0.19342 8.44333 0.0180508 8.53336 0.0263363 8.06712C0.0297848 7.88125 0.0267789 7.0585 0.0381467 6.82792C0.0494916 6.59761 0.10601 6.75574 0.108452 6.73932C0.183182 6.11877 0.214157 6.35407 0.324791 6.04317C0.435013 5.73231 0.172127 5.81851 0.142784 5.69178C0.113533 5.56483 0.175186 5.10986 0.196617 4.99805C0.218063 4.88631 0.253975 5.02568 0.266105 4.92632C0.34539 4.26746 0.13562 4.63713 0.0939024 4.42004C-0.00489823 3.90821 0.190063 3.50957 0.20916 3.041C0.214325 2.91423 0.169922 3.01768 0.165764 2.90479C0.14991 2.45766 0.210739 2.18875 0.154961 1.68006C0.145874 1.59684 0.0286636 1.18561 0.114677 0.919418C0.127083 0.881719 0.175667 0.988846 0.186546 0.798271C0.194931 0.652199 0.201805 0.446011 0.204323 0.238523L0.203545 0.156408L0.287231 0.155613C0.484077 0.157999 0.682091 0.156458 0.83107 0.148553C1.05698 0.136538 0.798035 0.0564851 1.08241 0.0813532C1.20878 0.0924572 0.974556 0.139288 1.21199 0.156243C1.44816 0.173193 2.05204 0.171135 2.28183 0.169518C2.51119 0.167866 2.38564 0.107142 2.40418 0.103051C2.51635 0.0796172 2.95654 0.0503362 2.99545 0.0504085C4.95757 0.0429958 6.76694 0.145352 8.67732 0.111474C8.82724 0.108904 8.72738 0.0448694 8.75025 0.043817C9.26349 0.0169881 8.85884 0.18724 9.21736 0.244225C9.16555 0.114282 9.37719 0.13781 9.73872 0.123559C9.91293 0.116586 9.81805 0.0662712 9.83395 0.0611205C10.0923 -0.0153023 10.2722 0.0834078 10.3185 0.103601C10.4896 0.177881 10.6758 0.0901138 10.7923 0.139764C10.9086 0.189043 10.6408 0.262098 10.9876 0.261163C11.0848 0.214647 10.8274 0.0930895 11.0906 0.0733885C12.0839 -0.00113112 13.9379 0.0942431 14.7365 0.10415C15.5335 0.114049 15.7909 0.105467 16.2554 0.122278C17.0943 0.152673 16.7868 0.0624855 17.3077 0.0212039C17.8301 -0.0200727 17.5762 0.201832 17.6513 0.249536C17.725 0.297218 17.8055 0.248134 17.8972 0.274346C17.9886 0.300553 17.7907 0.332987 18.0057 0.342828C18.2208 0.352658 18.8088 0.26783 18.885 0.21795C19.0462 0.112277 18.7812 0.00136875 19.3503 0.0403385C19.3831 0.0426512 19.2769 0.101 19.4022 0.106897C20.3977 0.151817 21.4318 0.154601 22.426 0.19433C22.5628 0.199884 22.4405 0.264795 22.5201 0.268762C23.3488 0.310281 23.0525 0.200832 23.5067 0.0792484C23.4047 0.24105 23.6559 0.340041 24.2848 0.340997C24.6629 0.341628 24.5978 0.270961 24.8424 0.221155C24.9157 0.206141 25.1833 0.254663 25.2317 0.221429C25.3916 0.112793 25.1396 -0.00881804 25.788 0.0396063C25.8165 0.0419076 25.7259 0.101373 25.8242 0.104975C26.4596 0.128547 26.5357 0.0149155 27.2225 0.00115437C27.7609 -0.00964338 28.7184 0.059648 29.3314 0.0709174C29.3186 0.25283 29.8976 0.211174 30.1325 0.085749C30.5303 0.0908839 30.96 0.0837934 31.3445 0.10113C31.4769 0.10704 31.3899 0.159709 31.4066 0.1654C31.6625 0.254672 31.8355 0.132647 31.9213 0.127863C32.8521 0.0813602 33.6104 0.173845 34.4986 0.0834603C34.5301 0.0802049 34.5812 -0.0461568 34.8186 0.046107C34.834 0.0524668 34.5406 0.109959 34.9585 0.114405C35.3764 0.118861 36.1642 0.1866 36.7443 0.128046C36.8847 0.11395 37.2399 0.0113699 37.5249 0.0915171C37.5628 0.1024 37.5213 0.138641 37.5761 0.158808C37.7533 0.223067 37.85 0.095347 38.0583 0.203852C38.2665 0.312352 38.6997 0.393611 39.2848 0.31875C39.3035 0.316574 39.442 0.215343 39.626 0.216944C39.9197 0.219586 40.3367 0.240675 40.6434 0.240015C40.7902 0.239663 40.6962 0.176804 40.7217 0.175654C41.7091 0.14043 42.4118 0.196469 43.4695 0.220789C43.6634 0.225372 44.2206 0.139654 44.596 0.207423C45.0082 0.281609 44.5846 0.590209 45.532 0.516687C45.9142 0.48728 46.398 0.0957643 47.0847 0.298609C48.4165 0.248346 49.6482 0.352161 50.9837 0.28039C51.0437 0.277211 51.2337 0.167942 51.3748 0.169429C51.5845 0.171848 51.6995 0.222919 51.8492 0.226283C52.4764 0.241666 53.0503 0.197972 53.655 0.204768C53.8845 0.207238 53.8043 0.260044 54.0781 0.262996C54.3517 0.265898 54.5342 0.196362 54.905 0.229945C55.1851 0.255544 55.4651 0.397673 55.8368 0.41424C55.851 0.274045 56.1063 0.276933 56.5601 0.239924C56.6473 0.232744 56.5538 0.183949 56.595 0.178035C56.763 0.152886 56.9184 0.193326 57.0778 0.16595C57.1166 0.159375 57.1184 0.111497 57.1501 0.10342C57.4198 0.0329111 57.864 0.140607 57.9403 0.159358C58.2327 0.230572 58.3694 0.168302 58.5937 0.196346C58.8176 0.224386 58.4828 0.259438 58.7443 0.276454C59.2865 0.311649 59.9832 0.303917 60.5338 0.306117C60.7536 0.306699 60.6036 0.24279 60.6351 0.241389C61.0894 0.22518 61.5488 0.293161 61.8008 0.165859C62.1158 0.495016 62.0747 0.133932 62.7241 0.199825C62.7753 0.205154 62.8404 0.36081 62.644 0.383662C62.4476 0.406492 62.1498 0.357836 61.8773 0.393458C61.8128 0.401818 61.4431 0.547677 61.3927 0.556513C60.9977 0.625565 60.9417 0.392959 60.9208 0.380183C60.6838 0.24231 60.2321 0.399446 60.1131 0.410304C59.569 0.460055 59.1067 0.427343 58.6515 0.462855C58.3539 0.485806 58.3247 0.638173 58.091 0.633508C57.314 0.618093 57.0428 0.405542 56.3106 0.589838C56.1536 0.629145 56.3096 0.795676 55.747 0.664728C55.7117 0.656472 55.294 0.536678 55.0527 0.612451C55.0224 0.622005 55.0233 0.670538 54.9834 0.674615C54.7155 0.700988 54.5368 0.662323 54.245 0.680841C53.9532 0.699359 53.6024 0.726965 53.2692 0.710504C53.0684 0.70066 52.8108 0.610236 52.7147 0.588098C52.4433 0.524324 52.1523 0.628887 51.9842 0.55166C51.8147 0.474045 52.1461 0.356174 51.7015 0.306025C51.6851 0.432118 51.6472 0.56154 51.6208 0.688348C50.6464 0.683908 49.6878 0.643135 48.7102 0.648706C48.589 0.649522 48.713 0.717311 48.583 0.719934C48.0349 0.730703 47.5561 0.682379 46.9876 0.701623C46.5476 0.716778 46.0651 0.788551 45.605 0.806634C45.3239 0.662348 44.6412 0.711329 44.1452 0.698144C43.9714 0.693588 43.983 0.655052 43.8595 0.64248C43.3934 0.595984 43.6118 0.723488 43.484 0.743554C42.9357 0.829191 42.8888 0.540592 42.2424 0.547723C42.2081 0.548003 41.7895 0.701839 41.7319 0.711419C41.3655 0.773887 41.6712 0.657875 41.442 0.646508C41.0234 0.625737 40.7325 0.588998 40.2413 0.634057C40.0981 0.647403 39.7546 0.743287 39.4765 0.669122C39.4399 0.65941 39.4601 0.608562 39.4307 0.605584C38.8976 0.555946 38.8836 0.715718 38.579 0.769829C38.2744 0.823928 37.8039 0.713635 37.7081 0.681847C37.4576 0.599614 37.9001 0.646704 37.9136 0.638634C38.073 0.5426 37.7298 0.559134 37.4676 0.551019C37.4296 0.39436 37.063 0.403764 37.1958 0.543237C37.2109 0.558471 37.4149 0.543862 37.4676 0.551019C37.2374 0.704722 36.8344 0.724407 36.3893 0.580773C36.181 0.513454 36.378 0.434964 35.745 0.463678C35.4578 0.47664 35.5688 0.584507 35.3153 0.613915C34.7362 0.681013 33.9836 0.580391 33.3866 0.596246C33.1699 0.602001 33.381 0.661047 33.2329 0.667016C32.8399 0.683039 32.4933 0.638736 32.0986 0.661431C32.0628 0.663562 32.1502 0.725371 32.0274 0.726158C31.0969 0.733336 30.2867 0.693747 29.3152 0.69265C28.8458 0.692148 28.0065 0.726237 27.5203 0.719383C26.6775 0.70787 25.6407 0.61799 24.9207 0.639824C24.4511 0.6538 24.5542 0.715622 24.353 0.757744C23.9647 0.839392 23.2774 0.693141 23.1849 0.670494C23.182 0.669745 23.5861 0.655171 23.3705 0.623436C23.2452 0.557312 23.1894 0.670207 23.1849 0.670494C23.1241 0.655864 22.3169 0.641831 22.1566 0.653648C22.0695 0.660107 22.1183 0.718679 22.0728 0.720939C20.9935 0.773356 19.9123 0.788243 18.8175 0.760856C18.7983 0.759673 18.8273 0.694156 18.782 0.692192C18.1482 0.663061 17.7424 0.743209 17.2197 0.790794C16.6971 0.838357 16.2827 0.822427 15.9733 0.709953C15.579 0.724114 15.0132 0.67439 14.6877 0.644218C14.3621 0.614047 14.3167 0.741581 14.2881 0.744102C13.3947 0.824799 12.8782 0.7518 11.9513 0.74044C11.5106 0.73482 10.6365 0.753318 10.1594 0.767264C9.78234 0.778499 9.55517 0.748611 9.20772 0.767722C9.16072 0.770274 9.2082 0.827059 9.19386 0.829245C8.80609 0.897185 8.99244 0.758366 8.91238 0.733573C8.62212 0.643414 8.4428 0.595396 7.94622 0.637809C7.83168 0.647522 7.49804 0.847402 7.28925 0.859091C7.01779 0.873923 7.12024 0.802278 6.836 0.819632C6.81169 0.821052 6.81675 0.865252 6.64132 0.863303C5.82701 0.854838 4.93922 0.829119 4.09301 0.833548C3.97742 0.833984 4.12561 0.904091 3.9586 0.905875C3.17494 0.914185 2.31599 0.91159 1.55253 0.878775C1.36461 0.870477 1.48241 0.82139 1.44163 0.806815C1.19118 0.718626 0.836021 0.846762 0.777428 0.849204C0.609695 0.856592 0.446693 0.861424 0.287231 0.864303L0.91301 0.238523C0.934128 1.40802 0.850151 2.38694 0.898735 3.64071C0.901977 3.71827 1.03934 4.31524 0.921531 4.58157C0.913696 4.5998 0.793167 4.8633 0.875572 5.09629C0.880729 5.11077 0.942779 4.94657 0.936455 5.23311C0.930145 5.51965 0.97158 5.9808 0.903404 6.37467C0.881927 6.49936 0.761696 6.79409 0.857536 7.16604C0.864227 7.19029 1.08094 7.76451 0.931419 7.96947C0.906807 8.0027 0.748581 7.96792 0.829704 8.41187C0.845436 8.49669 0.880729 8.34271 0.902763 8.56617C0.936729 8.90855 0.894348 9.36219 0.964836 9.78307C0.977317 9.85647 1.08471 10.1689 1.0032 10.4195C0.990432 10.4588 0.937606 10.3842 0.931694 10.5166C0.903335 11.146 0.938674 11.805 0.902122 12.4441C0.889282 12.6704 0.803886 12.5547 0.780998 12.7907C0.758125 13.0267 0.736114 13.5021 0.775138 13.749C0.814178 13.996 0.950286 13.7262 0.961173 14.0962C0.96257 14.1436 0.963859 14.1911 0.965034 14.2385L0.287231 13.5607C1.84739 13.5219 3.39408 13.5975 4.9528 13.6088C5.19101 13.6105 4.99352 13.5618 5.34457 13.5609C6.63881 13.5573 8.87333 13.5116 9.99638 13.6151C10.8962 13.698 9.76383 13.7611 10.4514 13.7948C10.7832 13.8109 11.1422 13.6527 11.2223 13.6477C12.0048 13.5971 12.5486 13.6672 13.2529 13.6457C13.3983 13.6412 13.2557 13.5771 13.3795 13.574C13.8023 13.5629 14.2466 13.5915 14.6506 13.5863C14.8319 13.5838 14.7985 13.5348 14.9652 13.5386C15.3643 13.5471 15.7172 13.5677 16.1062 13.6136C16.1417 13.6177 15.9026 13.6787 16.1978 13.6809C16.6756 13.6844 17.2688 13.7297 17.8185 13.683C17.9817 13.6689 17.988 13.5569 18.3387 13.6343C18.4122 13.6504 18.3184 13.7848 18.7268 13.6687C18.7955 13.6494 19.4816 13.4927 19.8184 13.5937C19.9072 13.6203 20.1339 13.7303 20.3301 13.713C20.3567 13.7102 20.2501 13.6501 20.4127 13.6442C20.9855 13.6246 21.5859 13.631 22.1744 13.6122C22.3316 13.607 22.0975 13.5448 22.3317 13.5391C22.9758 13.5234 23.78 13.5392 24.4099 13.5587C24.6421 13.566 24.4816 13.6176 24.4985 13.6232C24.7702 13.7144 24.9309 13.5913 25.0211 13.5841C25.582 13.5411 26.0091 13.5989 26.5261 13.5836C26.6688 13.5796 26.5676 13.5208 26.596 13.5156C26.8905 13.4644 26.6711 13.5699 26.8576 13.5815C27.3799 13.6144 27.9621 13.6097 28.4903 13.6022C28.6844 13.5994 28.4663 13.5313 28.6404 13.5295C29.671 13.5178 30.7423 13.5243 31.7481 13.5618C31.9374 13.569 31.8183 13.6215 31.8578 13.6334C32.1298 13.7172 32.5285 13.6029 32.6202 13.592C33.0373 13.5423 33.1993 13.5887 33.5677 13.5801C35.3671 13.537 37.589 13.5677 39.2875 13.5866C41.501 13.6111 43.2185 13.6609 45.3292 13.648C45.4634 13.6472 45.3281 13.5775 45.4438 13.5759C46.9368 13.5591 48.4067 13.5864 49.9027 13.5662C50.0255 13.5647 49.8485 13.4986 50.0455 13.4939C50.4497 13.4838 50.9617 13.4874 51.3703 13.5086C51.5696 13.5187 51.3023 13.5755 51.5029 13.5845C51.9701 13.6058 52.4708 13.6105 52.9507 13.5999C53.1549 13.5953 52.8468 13.5276 53.1122 13.5269C54.9202 13.5202 56.6958 13.5085 58.5228 13.5961C58.6481 13.6021 58.758 13.7395 59.0243 13.7132C59.0444 13.675 59.0433 13.6302 59.052 13.5894C61.1372 13.572 63.2054 13.5983 65.2872 13.6136L64.6623 14.2385C64.6663 13.6926 64.6696 13.1457 64.6711 12.5973C64.6714 12.486 64.5986 12.6784 64.5988 12.4629C64.5999 11.216 64.5797 10.0051 64.6521 8.72965C64.6592 8.6031 64.7873 8.66803 64.7679 8.29509C64.7644 8.22931 64.7473 7.66762 64.7195 7.5224C64.7153 7.50267 64.6555 7.60515 64.6538 7.42415C64.6447 6.37233 64.6583 5.27008 64.6949 4.22007C64.7009 4.05061 64.7646 4.23108 64.7694 4.11038C64.8032 3.2542 64.7548 2.32292 64.8126 1.50481C64.8515 0.957186 64.9616 1.15993 65.07 0.868932C65.0852 0.827774 65.0877 0.488671 65.1507 0.471135C65.3092 0.426115 65.4828 0.590365 65.6518 0.522969C65.6882 0.50873 65.649 0.054584 65.7369 0.323468C65.7428 0.342252 65.772 0.67151 65.8018 0.752607C65.8224 0.809069 65.8866 0.707322 65.913 0.822523C65.9393 0.937713 65.8856 1.06429 65.9166 1.25528C65.948 1.44618 66.021 1.36224 66.0296 1.74348ZM13.2219 0.509361C12.9204 0.448115 12.8759 0.672436 13.202 0.618767C13.2178 0.615906 13.2374 0.512366 13.2219 0.509361ZM49.6933 0.473932C49.2992 0.374991 49.0295 0.520474 49.3075 0.596887C49.5855 0.673218 49.8133 0.503925 49.6933 0.473932ZM53.7797 0.401697C53.3191 0.323687 53.2466 0.641783 53.7399 0.577478C53.7686 0.573844 53.8066 0.406227 53.7797 0.401697ZM65.1008 2.21843C65.1038 2.21427 65.1067 1.97051 65.1037 1.96468C65.0325 1.83489 65.0267 2.32231 65.1008 2.21843ZM57.8348 0.323054C57.6911 0.280025 57.2771 0.329697 57.4557 0.383204C57.5995 0.426249 58.0139 0.37658 57.8348 0.323054ZM0.318657 3.02835C0.315315 3.0331 0.312309 3.20786 0.3312 3.20434C0.392059 3.19248 0.374885 2.94928 0.318657 3.02835ZM64.727 0.319392C63.7087 0.307419 63.0913 0.0446561 64.2002 0.0743064C64.401 0.079671 63.7674 0.158099 64.023 0.181789C64.4907 0.224948 64.8012 0.0599647 65.2785 0.148372C65.3649 0.164554 64.7851 0.320659 64.7252 0.319759C64.7258 0.319636 64.7264 0.319514 64.727 0.319392ZM13.0483 0.239923C13.0422 0.236956 12.8003 0.234144 12.7945 0.237084C12.6635 0.3083 13.1509 0.314008 13.0483 0.239923ZM0.179954 13.2258C0.173637 13.2392 0.167724 13.8006 0.173545 13.8189C0.290008 14.1118 0.302299 12.9767 0.179954 13.2258ZM29.3411 0.0757697C29.6051 0.00412636 29.9208 -0.00430883 30.1313 0.0856574C29.8689 0.0808815 29.6049 0.080178 29.3411 0.0757697Z" fill="black"/>
<path d="M35.0296 1.35282C35.0491 1.42007 35.0283 1.50822 34.9996 1.57521C34.9907 1.5962 34.9509 1.58557 34.943 1.60006C34.9275 1.62841 34.947 1.65482 34.9286 1.68283C34.9223 1.69211 34.8594 1.68055 34.8542 1.69029C34.8264 1.74363 34.8424 1.79409 34.829 1.84813C34.763 2.11428 34.7393 2.37591 34.7106 2.64532C34.7012 2.73416 34.6441 2.84214 34.6691 2.9339C34.672 2.94461 34.7273 2.93822 34.7319 2.94026C34.8016 2.97222 34.69 2.9616 34.6752 2.98247C34.6167 3.0653 34.6116 3.15741 34.6329 3.23712C34.6421 3.27103 34.7519 3.23703 34.6903 3.27118C34.6861 3.27355 34.6274 3.26495 34.6212 3.27425C34.6071 3.29534 34.6176 3.33535 34.6129 3.3517C34.6037 3.3832 34.6043 3.38841 34.6036 3.41821C34.6022 3.45895 34.573 3.5074 34.5863 3.5511C34.5893 3.56043 34.6495 3.54808 34.6597 3.56296C34.67 3.57785 34.6649 3.61724 34.6507 3.63052C34.6365 3.64381 34.5892 3.63815 34.5783 3.6405C34.4868 3.65984 34.6136 3.70541 34.6167 3.71127C34.6701 3.81818 34.5979 3.90985 34.5981 4.01019C34.5984 4.08637 34.6223 4.16783 34.619 4.24031C34.6149 4.32667 34.5823 4.39986 34.5879 4.48375C34.5884 4.4926 34.6591 4.48223 34.6599 4.49304C34.6681 4.60793 34.6604 4.72202 34.6127 4.83641C34.6078 4.84789 34.5457 4.8331 34.5371 4.84456C34.4861 4.91473 34.3635 5.02577 34.6339 5.06745C34.6234 5.11498 34.6124 5.17269 34.5579 5.21521C34.5228 5.24263 34.4552 5.216 34.484 5.24968C34.4905 5.25728 34.5497 5.2474 34.5549 5.25879C34.5766 5.30676 34.5573 5.35916 34.588 5.4066C34.5943 5.41626 34.6474 5.41362 34.657 5.41636C34.7344 5.43934 34.6064 5.4776 34.5971 5.48594C34.5277 5.54944 34.555 5.59582 34.5533 5.65499C34.5529 5.66872 34.6243 5.65249 34.6264 5.6657C34.6366 5.73422 34.6305 5.8052 34.5989 5.87229C34.5916 5.88721 34.5309 5.87349 34.5243 5.88062C34.4962 5.91207 34.6109 5.91904 34.5861 5.94919C34.581 5.95555 34.529 5.95197 34.5233 5.95313C34.4336 5.97128 34.5607 5.98705 34.5635 5.99172C34.6018 6.05078 34.4692 6.08852 34.488 6.14557C34.4904 6.1524 34.5562 6.13701 34.5588 6.15619C34.577 6.28401 34.5589 6.41919 34.5063 6.54571C34.4982 6.56538 34.4488 6.55133 34.4427 6.55257C34.3474 6.57275 34.475 6.5858 34.4798 6.59222C34.5144 6.64282 34.4074 6.69008 34.5594 6.72446C34.5067 6.93876 34.592 7.15207 34.4558 7.3646C34.4543 7.3673 34.3914 7.36246 34.3886 7.36785C34.3533 7.43276 34.4509 7.4203 34.5704 7.46325C34.6004 7.47407 34.4562 7.50698 34.4456 7.5099C34.4066 7.52051 34.3132 7.5095 34.3056 7.51305C34.2464 7.54245 34.5555 7.53766 34.5556 7.57732C34.5551 7.57856 34.4982 7.57336 34.4926 7.57668C34.4748 7.58703 34.4974 7.59728 34.4778 7.6074C34.4325 7.63056 34.2823 7.63881 34.3697 7.67419C34.381 7.67866 34.5564 7.67183 34.5481 7.70724C34.5447 7.72136 34.5477 7.78384 34.5363 7.80136C34.525 7.81885 34.4685 7.80684 34.466 7.80808C34.3913 7.85521 34.3603 7.83734 34.2497 7.86096C34.1394 7.88457 34.4023 7.87802 34.4317 7.88764C34.4609 7.89729 34.3993 7.93184 34.3778 7.94033C34.3564 7.94882 34.3205 7.93823 34.3084 7.94578C34.2291 7.99582 34.4388 7.96774 34.4806 7.98423C34.5794 8.02311 34.3844 8.05338 34.3653 8.08897C34.3601 8.0986 34.4045 8.09074 34.4087 8.09931C34.4246 8.13327 34.3637 8.1537 34.4195 8.19233C34.4286 8.19865 34.5458 8.22988 34.4598 8.2501C34.4474 8.25296 34.3988 8.24483 34.3879 8.2593C34.3716 8.28092 34.361 8.31988 34.3772 8.34312C34.3892 8.36028 34.4693 8.34061 34.4444 8.36221C34.4333 8.37181 34.3865 8.35402 34.3695 8.37205C34.3526 8.38999 34.3546 8.43585 34.3562 8.4533C34.3579 8.47072 34.4186 8.46119 34.4227 8.4626C34.4461 8.47112 34.4754 8.50455 34.4753 8.5075C34.4828 8.65652 34.3804 8.79395 34.4143 8.93904C34.4169 8.95042 34.4809 8.94284 34.4819 8.94458C34.5088 8.98355 34.3385 8.95282 34.2815 8.98005C34.4115 8.97612 34.3879 8.99219 34.4022 9.01965C34.4092 9.03288 34.4595 9.02567 34.4646 9.02688C34.5411 9.0465 34.4423 9.06017 34.4222 9.06369C34.3479 9.07668 34.4356 9.09082 34.386 9.09967C34.3367 9.1085 34.2637 9.08816 34.2646 9.1145C34.3111 9.12188 34.4327 9.10233 34.4524 9.12233C34.5269 9.19776 34.4315 9.33857 34.4216 9.39923C34.4117 9.45976 34.4203 9.47931 34.4035 9.51459C34.3731 9.5783 34.4633 9.55495 34.5046 9.59451C34.5458 9.63419 34.3239 9.6149 34.2762 9.6206C34.2285 9.6262 34.2776 9.63231 34.2514 9.63928C34.2252 9.64622 34.1928 9.63119 34.1829 9.64752C34.1731 9.66386 34.2579 9.70852 34.3078 9.71431C34.4135 9.72655 34.5244 9.70642 34.4854 9.74965C34.4831 9.75213 34.4248 9.74407 34.4189 9.75358C34.3739 9.82919 34.3712 9.90773 34.3314 9.98324C34.3259 9.99363 34.261 9.98434 34.257 9.99039C34.2155 10.0533 34.3249 10.0308 34.4465 10.0653C34.2847 10.0576 34.1857 10.0767 34.1848 10.1244C34.1841 10.1531 34.2548 10.1482 34.3046 10.1668C34.3196 10.1723 34.2711 10.1927 34.3043 10.1963C34.413 10.2085 34.5346 10.1893 34.4861 10.2386C34.4838 10.2407 34.4244 10.2339 34.4208 10.2413C34.3972 10.2896 34.5108 10.2954 34.5246 10.3475C34.5354 10.3884 34.4661 10.4611 34.4548 10.5077C34.2729 10.5067 34.3146 10.5507 34.44 10.5685C34.4349 10.5988 34.442 10.6314 34.4246 10.6606C34.4187 10.6707 34.366 10.664 34.3604 10.6653C34.2711 10.6847 34.3931 10.6979 34.3979 10.7044C34.4444 10.7751 34.3519 10.8327 34.4423 10.9001C34.4456 10.9025 34.5719 10.9064 34.4796 10.9245C34.4733 10.9256 34.4158 10.9033 34.4113 10.9351C34.4069 10.9668 34.3392 11.0266 34.3977 11.0707C34.4118 11.0814 34.5144 11.1083 34.4342 11.13C34.4234 11.1329 34.3871 11.1297 34.3669 11.1339C34.3027 11.1473 34.4304 11.1547 34.3219 11.1705C34.2134 11.1863 34.1321 11.2192 34.207 11.2637C34.2092 11.2651 34.3104 11.2756 34.3088 11.2896C34.3062 11.3119 34.2851 11.3435 34.2857 11.3668C34.2861 11.378 34.349 11.3709 34.3501 11.3728C34.3853 11.4478 34.3293 11.5011 34.305 11.5815C34.3004 11.5962 34.3861 11.6385 34.3183 11.667C34.2441 11.6983 33.9355 11.6662 34.0091 11.7381C34.0385 11.7672 34.43 11.8039 34.2271 11.8561C34.2774 11.9572 34.1736 12.0507 34.2454 12.1522C34.2485 12.1567 34.3578 12.1712 34.3563 12.1819C34.3539 12.1978 34.3028 12.2065 34.2995 12.2179C34.2841 12.2655 34.3278 12.3091 34.321 12.3551C34.3185 12.3725 34.2657 12.3664 34.2628 12.3872C34.2599 12.408 34.3294 12.4218 34.2958 12.45C34.2702 12.4713 34.1281 12.4925 34.1115 12.5208C34.2517 12.5218 34.2488 12.5412 34.2858 12.5757C34.293 12.5823 34.3418 12.5752 34.3477 12.5784C34.3729 12.5911 34.3324 12.6029 34.3598 12.615C34.3664 12.618 34.4143 12.6181 34.4223 12.6205C34.4928 12.641 34.3851 12.6747 34.3664 12.6805C34.2952 12.7027 34.3575 12.7131 34.3294 12.7302C34.3014 12.7472 34.2663 12.7217 34.2493 12.7416C34.2141 12.7828 34.2218 12.8357 34.2196 12.8775C34.2191 12.8942 34.283 12.8828 34.2844 12.8852C34.3006 12.9197 34.2326 12.9546 34.3599 12.9737C34.0307 12.9977 34.3918 12.9945 34.3259 13.0439C34.3206 13.0477 34.1649 13.0527 34.1421 13.0378C34.1193 13.0229 34.1679 13.0002 34.1323 12.9795C34.1239 12.9746 33.9781 12.9466 33.9692 12.9427C33.9002 12.9127 34.1328 12.9085 34.1456 12.9069C34.2834 12.8889 34.1263 12.8546 34.1155 12.8456C34.0657 12.8042 34.0984 12.7691 34.0629 12.7345C34.0399 12.7119 33.8876 12.7097 33.8922 12.692C33.9077 12.633 34.1202 12.6124 33.9359 12.5568C33.8966 12.5448 33.7301 12.5567 33.861 12.5139C33.8693 12.5113 33.9891 12.4795 33.9133 12.4612C33.9038 12.4589 33.8552 12.459 33.8511 12.456C33.8248 12.4356 33.8634 12.422 33.8449 12.3999C33.8264 12.3777 33.7988 12.3511 33.8153 12.3258C33.8251 12.3105 33.9155 12.2909 33.9377 12.2836C34.0014 12.263 33.8969 12.2409 33.9741 12.2282C34.0517 12.2153 34.1696 12.2405 34.2197 12.2067C34.0936 12.2054 33.9642 12.2026 33.8374 12.2006C33.8418 12.1266 33.8826 12.0538 33.877 11.9795C33.8762 11.9703 33.8084 11.9797 33.8058 11.9699C33.7951 11.9282 33.8434 11.8919 33.8241 11.8487C33.809 11.8153 33.7372 11.7786 33.7191 11.7437C33.8634 11.7223 33.8144 11.6705 33.8276 11.6328C33.8322 11.6196 33.8707 11.6205 33.8833 11.6111C33.9298 11.5757 33.8023 11.5923 33.7822 11.5826C33.6966 11.5409 33.9852 11.5374 33.978 11.4883C33.9778 11.4857 33.8239 11.4539 33.8143 11.4495C33.7519 11.4217 33.8679 11.4449 33.8792 11.4275C33.9 11.3957 33.9368 11.3736 33.8917 11.3363C33.8784 11.3254 33.7825 11.2993 33.8566 11.2782C33.8663 11.2754 33.9172 11.277 33.9202 11.2747C33.9698 11.2343 33.81 11.2332 33.7559 11.2101C33.7018 11.1869 33.8121 11.1512 33.8439 11.1439C33.9261 11.1249 33.8791 11.1585 33.8871 11.1595C33.9832 11.1716 33.9666 11.1456 33.9747 11.1256C34.1314 11.1228 34.122 11.0949 33.9825 11.105C33.9673 11.1061 33.9819 11.1216 33.9747 11.1256C33.821 11.1082 33.8013 11.0776 33.945 11.0437C34.0123 11.0279 34.0908 11.0429 34.0621 10.9948C34.0491 10.973 33.9412 10.9814 33.9118 10.9622C33.8447 10.9182 33.9454 10.861 33.9295 10.8157C33.9238 10.7992 33.8647 10.8153 33.8587 10.804C33.8427 10.7742 33.887 10.7478 33.8643 10.7179C33.8622 10.7151 33.8004 10.7218 33.7996 10.7125C33.7924 10.6418 33.832 10.5803 33.8331 10.5065C33.8336 10.4708 33.7995 10.4071 33.8064 10.3701C33.8179 10.3061 33.9078 10.2274 33.8859 10.1727C33.872 10.1371 33.8101 10.1449 33.768 10.1296C33.6864 10.1001 33.8326 10.0479 33.8553 10.0409C33.856 10.0407 33.8706 10.0714 33.9023 10.055C33.9684 10.0455 33.8555 10.0412 33.8553 10.0409C33.8699 10.0363 33.8839 9.97495 33.8721 9.96278C33.8656 9.95617 33.8071 9.95987 33.8048 9.95642C33.7524 9.87444 33.7375 9.79232 33.7649 9.70918C33.7661 9.70772 33.8316 9.70992 33.8336 9.70648C33.8627 9.65835 33.7825 9.62752 33.735 9.58783C33.6874 9.54813 33.7033 9.51666 33.8158 9.49316C33.8016 9.46321 33.8514 9.42025 33.8815 9.39552C33.9117 9.37079 33.7842 9.36735 33.7817 9.36517C33.701 9.29732 33.774 9.25809 33.7853 9.1877C33.7909 9.15423 33.7724 9.08784 33.7585 9.0516C33.7473 9.02296 33.7771 9.00571 33.758 8.97932C33.7555 8.97575 33.6987 8.97936 33.6965 8.97827C33.6286 8.94882 33.7674 8.96297 33.7922 8.95689C33.8823 8.93484 33.9304 8.92123 33.8879 8.88351C33.8782 8.87481 33.6784 8.84947 33.6667 8.83361C33.6518 8.813 33.7235 8.82078 33.7061 8.79919C33.7047 8.79734 33.6605 8.79773 33.6625 8.7844C33.6709 8.72256 33.6966 8.65513 33.6922 8.59086C33.6918 8.58208 33.6217 8.59334 33.6199 8.58065C33.6116 8.52113 33.6142 8.4559 33.647 8.39791C33.6553 8.38364 33.7044 8.39259 33.7189 8.38949C33.8071 8.37047 33.679 8.34349 33.6765 8.33905C33.615 8.23288 33.7309 8.15163 33.6757 8.04342C33.6725 8.03753 33.5351 7.99219 33.6529 7.97196C33.6608 7.97058 33.7813 7.95057 33.6989 7.93287C33.6937 7.93177 33.6317 7.94424 33.638 7.92248C33.6443 7.90072 33.6029 7.86569 33.6711 7.83578C33.6925 7.82631 33.8128 7.80392 33.7169 7.77567C33.7102 7.77383 33.4935 7.73022 33.643 7.71465C33.6677 7.71213 33.8259 7.71477 33.7448 7.68105C33.729 7.67461 33.6937 7.68631 33.6717 7.66934C33.6377 7.64333 33.6801 7.60888 33.6096 7.57691C33.5971 7.57134 33.4898 7.54761 33.5713 7.52857C33.584 7.52559 33.6369 7.53126 33.6428 7.5212C33.6711 7.4734 33.6358 7.42335 33.6723 7.37481C33.6852 7.35762 33.7706 7.36641 33.7935 7.34849C33.8163 7.33056 33.8383 7.29446 33.7993 7.2757C33.7603 7.25695 33.6242 7.27744 33.6133 7.24934C33.566 7.12717 33.6458 7.00616 33.6575 6.88418C33.6593 6.86609 33.6105 6.88108 33.6096 6.85442C33.606 6.75612 33.5603 6.58641 33.6638 6.50112C33.7467 6.43278 33.8098 6.51878 33.8435 6.46656C33.8596 6.44136 33.7014 6.41409 33.6964 6.40801C33.6458 6.34858 33.7159 6.30728 33.6944 6.25379C33.6899 6.24274 33.6258 6.25358 33.6227 6.24418C33.6116 6.21207 33.6402 6.17832 33.635 6.14763C33.6325 6.13387 33.5835 6.13641 33.5873 6.12374C33.5958 6.09343 33.6164 6.06663 33.6623 6.03708C33.6665 6.03439 33.7274 6.05255 33.7297 6.03013C33.7331 5.99383 33.7784 5.94879 33.7317 5.90703C33.7176 5.89464 33.6056 5.89416 33.683 5.86753C33.6991 5.86194 33.8335 5.86907 33.7174 5.83805C33.6981 5.83283 33.5414 5.78072 33.6424 5.75515C33.669 5.7484 33.779 5.73118 33.7617 5.71628C33.7589 5.71426 33.6988 5.72236 33.6929 5.71001C33.6733 5.6665 33.6797 5.62091 33.6609 5.57621C33.6557 5.56427 33.5935 5.58205 33.5878 5.56426C33.5721 5.51534 33.588 5.45426 33.6074 5.40642C33.6147 5.38878 33.6663 5.40098 33.6719 5.39969C33.7631 5.37906 33.64 5.36685 33.6328 5.36C33.5898 5.31741 33.6476 5.28497 33.6323 5.2457C33.6283 5.23486 33.5695 5.24255 33.5643 5.24039C33.5131 5.21802 33.6186 5.23468 33.6302 5.22052C33.6631 5.18086 33.6584 5.13663 33.6509 5.09652C33.6481 5.08178 33.58 5.09834 33.5782 5.08512C33.5665 5.00685 33.573 4.92548 33.6105 4.84909C33.6177 4.83471 33.6702 4.84376 33.6821 4.84076C33.7659 4.8201 33.6516 4.78982 33.6408 4.78285C33.5911 4.75118 33.6374 4.73887 33.6288 4.71089C33.5857 4.57423 33.6164 4.40548 33.6354 4.27648C33.6598 4.10837 33.7096 3.97792 33.6967 3.81761C33.6959 3.80742 33.6262 3.8177 33.6246 3.80891C33.6078 3.69552 33.6351 3.58388 33.6149 3.47026C33.6134 3.46094 33.5473 3.47438 33.5426 3.45941C33.5326 3.42872 33.5361 3.38983 33.5573 3.3588C33.5674 3.34366 33.6242 3.36396 33.6332 3.34872C33.6545 3.31324 33.6592 3.27521 33.6486 3.23877C33.644 3.22326 33.5763 3.24666 33.5756 3.2265C33.5689 3.08919 33.5572 2.95433 33.6448 2.81557C33.6508 2.80605 33.7882 2.79771 33.7619 2.77748C33.7237 2.77596 33.6789 2.77604 33.6381 2.77537C33.6161 2.57548 33.6638 2.37762 33.6711 2.17717C33.6714 2.16872 33.5986 2.18332 33.5988 2.16696C33.5999 2.07225 33.5797 1.98029 33.6521 1.88342C33.6592 1.87381 33.7873 1.87874 33.7679 1.85041C33.7644 1.84542 33.7473 1.80276 33.7195 1.79173C33.7153 1.79023 33.6555 1.79801 33.6538 1.78427C33.6447 1.70438 33.6583 1.62067 33.6949 1.54092C33.7009 1.52805 33.7646 1.54176 33.7694 1.53259C33.8032 1.46756 33.7548 1.39683 33.8126 1.3347C33.8515 1.29311 33.9616 1.3085 34.07 1.2864C34.0852 1.28328 34.0877 1.25752 34.1507 1.25619C34.3092 1.25277 34.4828 1.26525 34.6518 1.26013C34.6882 1.25905 34.649 1.22455 34.7369 1.24498C34.7428 1.2464 34.772 1.27141 34.8018 1.27757C34.8224 1.28186 34.8866 1.27413 34.913 1.28288C34.9393 1.29163 34.8856 1.30124 34.9166 1.31575C34.948 1.33024 35.021 1.32387 35.0296 1.35282ZM34.0164 9.28419C34.0776 9.2613 33.8533 9.25792 33.907 9.28268C33.9098 9.28388 34.0134 9.28537 34.0164 9.28419ZM34.0518 12.0542C34.1508 12.0242 34.0053 12.0038 33.9289 12.0249C33.8525 12.046 34.0218 12.0633 34.0518 12.0542ZM34.1241 12.3645C34.2021 12.3296 33.884 12.324 33.9483 12.3615C33.9519 12.3637 34.1195 12.3666 34.1241 12.3645ZM34.1008 1.3889C34.1038 1.38858 34.1067 1.37007 34.1037 1.36962C34.0325 1.35977 34.0267 1.39679 34.1008 1.3889ZM34.2027 12.6725C34.2457 12.6616 34.1961 12.6302 34.1426 12.6437C34.0995 12.6546 34.1492 12.6861 34.2027 12.6725ZM34.2558 8.08993C34.2591 8.08957 34.2622 8.0763 34.2433 8.07656C34.1824 8.07746 34.1996 8.09594 34.2558 8.08993ZM34.2064 13.196C34.2183 13.1186 34.4811 13.0717 34.4514 13.156C34.4461 13.1712 34.3677 13.1231 34.344 13.1425C34.3008 13.178 34.4658 13.2016 34.3774 13.2379C34.3612 13.2444 34.2051 13.2004 34.206 13.1958C34.2061 13.1959 34.2062 13.1959 34.2064 13.196ZM34.2858 9.27101C34.2888 9.27055 34.2916 9.25218 34.2887 9.25174C34.2175 9.24179 34.2117 9.2788 34.2858 9.27101ZM34.3945 7.31544C34.4008 7.31443 34.4067 7.27178 34.4009 7.27039C34.2845 7.24815 34.2722 7.33436 34.3945 7.31544ZM34.45 10.5084C34.5216 10.5285 34.5301 10.5525 34.4401 10.5685C34.4449 10.5485 34.4456 10.5285 34.45 10.5084ZM63.6824 7.9809C63.3266 8.00044 62.8601 7.97955 62.5056 7.95087C62.3945 7.94198 62.4508 7.90222 62.3741 7.89429C62.2241 7.87883 62.0844 7.89833 61.9361 7.87992C61.887 7.87362 61.9482 7.81064 61.8966 7.80548C61.6144 7.77765 61.3474 7.79369 61.0614 7.78031C59.653 7.71426 58.2686 7.69062 56.8429 7.66193C56.3728 7.65252 55.8014 7.59537 55.3159 7.62036C55.2592 7.62334 55.293 7.67861 55.2822 7.68317C55.1131 7.75291 55.1693 7.64132 55.0589 7.6265C54.6206 7.56796 54.1331 7.56287 53.7113 7.5842C53.5319 7.59344 53.7118 7.70323 53.5311 7.6416C53.5186 7.63744 53.5641 7.57874 53.5149 7.57248C53.4033 7.5584 53.1915 7.56889 53.105 7.56424C52.9383 7.55498 52.9107 7.55557 52.753 7.5549C52.5375 7.55348 52.2811 7.5243 52.0498 7.5376C52.0005 7.54061 52.0658 7.60079 51.9871 7.61103C51.9083 7.62125 51.6998 7.61615 51.6296 7.60196C51.5593 7.58777 51.5892 7.54048 51.5768 7.52964C51.4744 7.43814 51.2333 7.56486 51.2023 7.568C50.6366 7.62139 50.1515 7.54921 49.6205 7.54941C49.2174 7.54972 48.7863 7.57355 48.4028 7.57028C47.9458 7.56616 47.5585 7.53355 47.1146 7.53916C47.0677 7.53968 47.1226 7.61043 47.0654 7.61121C46.4575 7.61944 45.8537 7.61173 45.2484 7.56397C45.1877 7.55912 45.2659 7.497 45.2053 7.48844C44.8339 7.43739 44.2464 7.31476 44.0258 7.58521C43.7743 7.57465 43.4689 7.56374 43.2439 7.50922C43.0988 7.47413 43.2397 7.40646 43.0615 7.43534C43.0213 7.44177 43.0736 7.50103 43.0133 7.5062C42.7595 7.52789 42.4822 7.50863 42.2311 7.53925C42.1801 7.54562 42.194 7.59872 42.1795 7.60828C42.0579 7.68572 41.8555 7.55771 41.8113 7.5484C41.4753 7.47904 41.2298 7.50633 40.9168 7.50464C40.8441 7.50422 40.93 7.57554 40.8601 7.5777C40.4975 7.58792 40.1219 7.58179 39.7669 7.55014C39.6879 7.54293 39.7605 7.48217 39.7228 7.47562C39.5564 7.44746 39.5195 7.56221 39.3599 7.53742C39.3263 7.53234 39.3452 7.48032 39.3391 7.47461C39.2431 7.38494 39.1596 7.512 39.1349 7.5148C38.8224 7.55313 38.6227 7.42049 38.3208 7.43927C38.2846 7.44165 38.3661 7.50747 38.2646 7.51013C37.5882 7.5283 36.8729 7.51022 36.2034 7.45758C36.0993 7.44949 36.1736 7.40005 36.1671 7.39395C36.0603 7.29873 35.9912 7.42632 35.9573 7.43112C35.6895 7.46571 35.4394 7.35871 35.2575 7.51068C34.1235 7.45794 32.9947 7.54328 31.8701 7.40714C31.8558 7.40556 31.8814 7.34272 31.8529 7.33985C31.5094 7.30456 31.5753 7.40223 31.3481 7.52167C31.2908 7.55166 31.1166 7.40745 31.1012 7.39688C31.0451 7.35793 31.1033 7.26444 31.0845 7.2569C30.9289 7.19766 30.9543 7.50683 30.7444 7.50693C30.7378 7.50641 30.7654 7.44951 30.7478 7.44385C30.6931 7.42609 30.6388 7.4487 30.5853 7.42911C30.4627 7.38378 30.419 7.23355 30.2318 7.32099C30.2082 7.33233 30.2443 7.50771 30.0569 7.49942C29.9823 7.49597 29.6516 7.49898 29.5589 7.48761C29.4664 7.47626 29.5299 7.41975 29.5233 7.4173C29.2739 7.34257 29.3685 7.3116 29.2435 7.20096C29.1186 7.09074 29.1532 7.35363 29.1023 7.38297C29.0513 7.41223 28.8684 7.35057 28.8235 7.32913C28.7786 7.30769 28.8346 7.27178 28.7947 7.25965C28.5299 7.18036 28.6784 7.39013 28.5912 7.43186C28.3855 7.53065 28.2253 7.3357 28.037 7.31659C27.986 7.31143 28.0276 7.35584 27.9822 7.35999C27.8025 7.37585 27.6944 7.31501 27.49 7.37079C27.4566 7.37988 27.2913 7.49709 27.1843 7.41107C27.1692 7.39867 27.2122 7.35009 27.1356 7.33921C27.0212 7.32287 26.8151 7.31225 26.6921 7.32849C26.6013 7.34051 26.7054 7.42056 26.5911 7.39569C26.5403 7.38459 26.6344 7.33776 26.539 7.3208C26.4441 7.30385 26.2014 7.30591 26.109 7.30753C26.0168 7.30918 26.0673 7.3699 26.0599 7.374C26.0148 7.39743 25.8379 7.42671 25.8222 7.42664C25.0336 7.43405 24.3065 7.33169 23.5387 7.36557C23.4784 7.36814 23.5186 7.43218 23.5094 7.43323C23.3031 7.46006 23.4657 7.28981 23.3216 7.23282C23.3425 7.36276 23.2574 7.33924 23.1121 7.35349C23.0421 7.36046 23.0802 7.41078 23.0738 7.41593C22.97 7.49235 22.8977 7.39364 22.8791 7.37345C22.8103 7.29917 22.7355 7.38693 22.6887 7.33728C22.6419 7.288 22.7495 7.21495 22.6102 7.21588C22.5711 7.2624 22.6746 7.38396 22.5688 7.40366C22.1696 7.47818 21.4245 7.3828 21.1035 7.3729C20.7832 7.363 20.6797 7.37158 20.4931 7.35477C20.1559 7.32437 20.2795 7.41456 20.0701 7.45584C19.8602 7.49712 19.9622 7.27521 19.9321 7.22751C19.9024 7.17983 19.8701 7.22891 19.8332 7.2027C19.7965 7.17649 19.876 7.14406 19.7896 7.13422C19.7032 7.12439 19.4668 7.20922 19.4362 7.2591C19.3714 7.36477 19.4779 7.47568 19.2492 7.43671C19.236 7.4344 19.2788 7.37605 19.2284 7.37015C18.8283 7.32523 18.4127 7.32245 18.0131 7.28272C17.9582 7.27716 18.0073 7.21225 17.9753 7.20828C17.6422 7.16677 17.7613 7.27621 17.5788 7.3978C17.6198 7.236 17.5188 7.13701 17.266 7.13605C17.1141 7.13542 17.1403 7.20609 17.042 7.25589C17.0125 7.27091 16.905 7.22238 16.8855 7.25562C16.8212 7.36425 16.9225 7.48586 16.6619 7.43744C16.6505 7.43514 16.6869 7.37567 16.6474 7.37207C16.392 7.3485 16.3614 7.46213 16.0854 7.47589C15.869 7.48669 15.4842 7.4174 15.2378 7.40613C15.243 7.22422 15.0103 7.26587 14.9159 7.3913C14.756 7.38616 14.5833 7.39325 14.4288 7.37592C14.3756 7.37001 14.4105 7.31734 14.4038 7.31165C14.301 7.22238 14.2314 7.3444 14.1969 7.34918C13.8229 7.39569 13.5181 7.3032 13.1611 7.39359C13.1485 7.39684 13.1279 7.5232 13.0325 7.43094C13.0264 7.42458 13.1442 7.36709 12.9763 7.36264C12.8084 7.35819 12.4918 7.29045 12.2586 7.349C12.2022 7.3631 12.0594 7.46568 11.9449 7.38553C11.9296 7.37465 11.9463 7.33841 11.9243 7.31824C11.8531 7.25398 11.8142 7.3817 11.7305 7.2732C11.6468 7.1647 11.4727 7.08344 11.2376 7.1583C11.2301 7.16047 11.1744 7.2617 11.1005 7.2601C10.9824 7.25746 10.8148 7.23637 10.6916 7.23703C10.6325 7.23738 10.6703 7.30024 10.6601 7.30139C10.2633 7.33662 9.98084 7.28058 9.55574 7.25626C9.47781 7.25168 9.25386 7.33739 9.103 7.26962C8.93735 7.19544 9.10757 6.88684 8.72681 6.96036C8.57324 6.98977 8.3788 7.38128 8.10282 7.17844C7.56757 7.2287 7.07255 7.12489 6.53581 7.19666C6.51168 7.19984 6.43534 7.30911 6.3786 7.30762C6.29436 7.3052 6.24812 7.25413 6.18796 7.25076C5.93592 7.23538 5.70524 7.27908 5.46223 7.27228C5.36997 7.26981 5.40223 7.217 5.29218 7.21405C5.1822 7.21115 5.10888 7.28069 4.95983 7.2471C4.84728 7.2215 4.73475 7.07937 4.58534 7.06281C4.57964 7.203 4.47704 7.20011 4.29466 7.23712C4.25961 7.2443 4.2972 7.2931 4.28061 7.29901C4.21312 7.32416 4.15067 7.28372 4.08659 7.3111C4.071 7.31767 4.07026 7.36555 4.05751 7.37363C3.94915 7.44414 3.77061 7.33644 3.73995 7.31769C3.62243 7.24648 3.56751 7.30875 3.47737 7.2807C3.38736 7.25266 3.52194 7.21761 3.41681 7.20059C3.19889 7.1654 2.91893 7.17313 2.69762 7.17093C2.60931 7.17035 2.66956 7.23426 2.65692 7.23566C2.47433 7.25187 2.28969 7.18389 2.18844 7.31119C2.06185 6.98203 2.07833 7.34312 1.81734 7.27722C1.79678 7.27189 1.77063 7.11624 1.84956 7.09339C1.92848 7.07056 2.04817 7.11921 2.15768 7.08359C2.1836 7.07523 2.33216 6.92937 2.35243 6.92053C2.51121 6.85148 2.53369 7.08409 2.5421 7.09686C2.63735 7.23474 2.81889 7.0776 2.8667 7.06674C3.08538 7.01699 3.2712 7.04971 3.45411 7.01419C3.57374 6.99124 3.58545 6.83888 3.67939 6.84354C3.99167 6.85895 4.10067 7.07151 4.39495 6.88721C4.45805 6.8479 4.39535 6.68137 4.62144 6.81232C4.63565 6.82058 4.8035 6.94037 4.90049 6.8646C4.91267 6.85504 4.91228 6.80651 4.92834 6.80243C5.036 6.77606 5.10781 6.81472 5.22508 6.79621C5.34235 6.77769 5.48337 6.75008 5.61726 6.76654C5.69796 6.77639 5.80148 6.86681 5.84011 6.88895C5.94919 6.95272 6.06613 6.84816 6.1337 6.92539C6.20184 7.003 6.06863 7.12087 6.24731 7.17102C6.25393 7.04493 6.26912 6.91551 6.27977 6.7887C6.67136 6.79314 7.05663 6.83391 7.44952 6.82834C7.49823 6.82753 7.44841 6.75974 7.50063 6.75711C7.72093 6.74634 7.91336 6.79467 8.14182 6.77542C8.31866 6.76027 8.51258 6.6885 8.6975 6.67041C8.81047 6.8147 9.08486 6.76572 9.28419 6.7789C9.35402 6.78346 9.34935 6.822 9.39901 6.83457C9.58635 6.88106 9.49857 6.75356 9.54992 6.73349C9.77029 6.64786 9.78913 6.93645 10.0489 6.92932C10.0627 6.92904 10.2309 6.77521 10.2541 6.76563C10.4013 6.70316 10.2785 6.81917 10.3706 6.83054C10.5388 6.85131 10.6558 6.88805 10.8531 6.84299C10.9107 6.82964 11.0488 6.73376 11.1605 6.80793C11.1752 6.81764 11.1671 6.86849 11.1789 6.87146C11.3932 6.9211 11.3988 6.76133 11.5212 6.70722C11.6437 6.65312 11.8328 6.76341 11.8712 6.7952C11.9719 6.87743 11.7941 6.83034 11.7887 6.83841C11.7246 6.93445 11.8625 6.91791 11.9679 6.92603C11.9832 7.08269 12.1305 7.07328 12.0771 6.93381C12.0711 6.91858 11.9891 6.93319 11.9679 6.92603C12.0604 6.77233 12.2224 6.75264 12.4013 6.89627C12.485 6.96359 12.4058 7.04208 12.6602 7.01337C12.7757 7.00041 12.731 6.89254 12.8329 6.86313C13.0657 6.79603 13.3681 6.89666 13.6081 6.8808C13.6951 6.87505 13.6103 6.816 13.6698 6.81003C13.8278 6.79401 13.9671 6.83831 14.1257 6.81562C14.1401 6.81349 14.105 6.75168 14.1543 6.75089C14.5283 6.74371 14.8539 6.7833 15.2444 6.7844C15.433 6.7849 15.7703 6.75081 15.9657 6.75766C16.3044 6.76918 16.7211 6.85906 17.0105 6.83722C17.1992 6.82325 17.1578 6.76142 17.2387 6.7193C17.3947 6.63765 17.6709 6.78391 17.7081 6.80655C17.7093 6.8073 17.5469 6.82188 17.6335 6.85361C17.6839 6.91974 17.7063 6.80684 17.7081 6.80655C17.7325 6.82118 18.057 6.83522 18.1214 6.8234C18.1564 6.81694 18.1368 6.75837 18.155 6.75611C18.5888 6.70369 19.0234 6.6888 19.4633 6.71619C19.4711 6.71737 19.4594 6.78289 19.4776 6.78485C19.7323 6.81399 19.8954 6.73384 20.1055 6.68625C20.3155 6.63869 20.4821 6.65462 20.6064 6.76709C20.7649 6.75293 20.9923 6.80266 21.1231 6.83283C21.254 6.863 21.2722 6.73547 21.2837 6.73294C21.6428 6.65225 21.8504 6.72525 22.2229 6.73661C22.4 6.74223 22.7513 6.72373 22.943 6.70978C23.0946 6.69855 23.1859 6.72844 23.3255 6.70932C23.3444 6.70677 23.3253 6.64999 23.3311 6.6478C23.4869 6.57986 23.412 6.71868 23.4442 6.74347C23.5609 6.83363 23.6329 6.88165 23.8325 6.83924C23.8785 6.82952 24.0126 6.62964 24.0965 6.61795C24.2057 6.60312 24.1645 6.67477 24.2787 6.65741C24.2885 6.65599 24.2864 6.61179 24.3569 6.61374C24.6842 6.62221 25.041 6.64793 25.3811 6.6435C25.4276 6.64306 25.368 6.57296 25.4351 6.57117C25.7501 6.56286 26.0953 6.56546 26.4021 6.59827C26.4777 6.60657 26.4303 6.65566 26.4467 6.67023C26.5473 6.75842 26.6901 6.63028 26.7136 6.62784C27.2754 6.56627 27.7054 6.68223 28.278 6.62702C28.3092 6.62378 28.5491 6.48641 28.6561 6.60422C28.6634 6.61206 28.7693 6.73259 28.863 6.65018C28.8688 6.64503 28.8028 6.58298 28.918 6.5893C29.0331 6.59561 29.2185 6.55417 29.3768 6.62235C29.4269 6.64383 29.5453 6.76406 29.6948 6.66822C29.7046 6.66153 29.9353 6.44481 30.0177 6.59434C30.0311 6.61895 30.0171 6.77717 30.1955 6.69605C30.2296 6.68032 30.1677 6.64503 30.2575 6.62299C30.3951 6.58902 30.5774 6.6314 30.7466 6.56092C30.7761 6.54844 30.9017 6.44104 31.0024 6.52256C31.0182 6.53532 30.9882 6.58815 31.0414 6.59406C31.2943 6.62242 31.5592 6.58708 31.8161 6.62363C31.907 6.63647 31.8605 6.72187 31.9553 6.74476C32.0502 6.76763 32.2413 6.78964 32.3405 6.75061C32.4397 6.71157 32.3313 6.57547 32.48 6.56458C33.1264 6.51728 33.7668 6.59712 34.4123 6.6088C34.5081 6.61054 34.4287 6.56184 34.5698 6.56092C35.0899 6.55729 35.988 6.51163 36.4393 6.61512C36.801 6.698 36.3459 6.76111 36.6222 6.79483C36.7556 6.81092 36.8998 6.65269 36.932 6.64771C37.2465 6.59711 37.4651 6.6672 37.7481 6.6457C37.8066 6.64123 37.7492 6.5771 37.799 6.57401C37.9689 6.56289 38.1475 6.59151 38.3099 6.58628C38.3827 6.58378 38.3693 6.5348 38.4363 6.53858C38.5967 6.54706 38.7385 6.56765 38.8949 6.61356C38.9091 6.61774 38.813 6.67868 38.9317 6.68094C39.1237 6.68444 39.3621 6.72973 39.583 6.68296C39.6486 6.66889 39.6512 6.55694 39.7921 6.63425C39.8216 6.6504 39.7839 6.78483 39.9481 6.66868C39.9757 6.64937 40.2514 6.49271 40.3868 6.59369C40.4225 6.62027 40.5136 6.73027 40.5924 6.71299C40.6031 6.71023 40.5603 6.6501 40.6256 6.64423C40.8558 6.62461 41.0971 6.63102 41.3337 6.61219C41.3968 6.60704 41.3027 6.54482 41.3969 6.53913C41.6558 6.5234 41.979 6.53924 42.2321 6.55872C42.3254 6.56602 42.2609 6.61757 42.2677 6.62317C42.3769 6.71441 42.4415 6.59126 42.4777 6.58408C42.7032 6.54108 42.8748 6.59893 43.0826 6.58362C43.1399 6.57956 43.0993 6.52084 43.1107 6.5156C43.2291 6.46444 43.1409 6.56989 43.2158 6.58152C43.4257 6.61443 43.6597 6.60971 43.872 6.60221C43.95 6.59937 43.8624 6.53128 43.9323 6.52952C44.3465 6.51778 44.7771 6.5243 45.1813 6.56183C45.2574 6.56903 45.2095 6.62145 45.2254 6.63343C45.3347 6.71721 45.4949 6.60293 45.5318 6.59205C45.6995 6.54234 45.7646 6.58871 45.9126 6.58005C46.6358 6.53697 47.5287 6.56767 48.2114 6.58665C49.101 6.61106 49.7913 6.66094 50.6396 6.64799C50.6935 6.64723 50.6391 6.57748 50.6856 6.57593C51.2856 6.55912 51.8764 6.58637 52.4776 6.56623C52.527 6.5647 52.4558 6.49858 52.535 6.4939C52.6975 6.48385 52.9032 6.48744 53.0675 6.50855C53.1476 6.51872 53.0401 6.57546 53.1208 6.58454C53.3085 6.60581 53.5098 6.61052 53.7026 6.59992C53.7847 6.59527 53.6608 6.52764 53.7675 6.52686C54.4941 6.52015 55.2078 6.50851 55.9421 6.59608C55.9924 6.60209 56.0366 6.73953 56.1436 6.71317C56.1517 6.67503 56.1512 6.63016 56.1547 6.58939C57.2125 6.56743 58.2595 6.61508 59.3202 6.62244C59.365 6.62274 59.2877 6.54992 59.3743 6.55012C59.8754 6.55119 60.362 6.53102 60.8747 6.6034C60.9255 6.61048 60.8994 6.73859 61.0493 6.71921C61.0757 6.71568 61.3015 6.69859 61.3599 6.67078C61.3678 6.66659 61.3266 6.60679 61.3993 6.60505C61.8221 6.59597 62.2651 6.60962 62.6871 6.64615C62.7552 6.65217 62.6826 6.71584 62.7311 6.72068C63.0752 6.75448 63.4495 6.70607 63.7783 6.76389C63.9984 6.80282 63.9169 6.9129 64.0339 7.02125C64.0504 7.03653 64.1867 7.03895 64.1937 7.10199C64.2118 7.26051 64.1458 7.43409 64.1729 7.60306C64.1786 7.63946 64.3612 7.60026 64.2531 7.6882C64.2455 7.69409 64.1132 7.72328 64.0806 7.75312C64.0579 7.77374 64.0988 7.83785 64.0525 7.86426C64.0062 7.89064 63.9554 7.8369 63.8786 7.86792C63.8019 7.89933 63.8356 7.97226 63.6824 7.9809ZM21.7122 6.96769C21.8334 7.02893 21.8513 6.80461 21.7202 6.85828C21.7139 6.86114 21.706 6.96468 21.7122 6.96769ZM7.05443 7.00312C7.21281 7.10206 7.3212 6.95657 7.20946 6.88016C7.09776 6.80383 7.00618 6.97312 7.05443 7.00312ZM5.41209 7.07535C5.59719 7.15336 5.62634 6.83526 5.42807 6.89957C5.41654 6.9032 5.40127 7.07082 5.41209 7.07535ZM63.4915 7.0521C63.4932 7.05508 63.5911 7.05798 63.5935 7.05503C63.6457 6.98378 63.4498 6.97803 63.4915 7.0521ZM3.78234 7.15399C3.84012 7.19702 4.0065 7.14735 3.9347 7.09384C3.8769 7.0508 3.71038 7.10047 3.78234 7.15399ZM28.0319 7.20709C28.0338 7.21044 28.104 7.21345 28.1026 7.19455C28.0978 7.13369 28.0001 7.15087 28.0319 7.20709ZM1.01239 7.15766C1.42164 7.16963 1.66977 7.43239 1.22411 7.40274C1.1434 7.39738 1.39805 7.31895 1.29533 7.29526C1.10736 7.2521 0.982559 7.41708 0.790752 7.32868C0.756035 7.31249 0.989048 7.15639 1.01312 7.15729C1.01288 7.15741 1.01264 7.15753 1.01239 7.15766ZM21.782 7.23712C21.7844 7.24009 21.8816 7.2429 21.884 7.23996C21.9366 7.16875 21.7408 7.16304 21.782 7.23712ZM32.1302 7.3458C32.1356 7.35212 32.3612 7.35803 32.3686 7.35221C32.4863 7.23575 32.0301 7.22345 32.1302 7.3458ZM15.2339 7.40128C15.1278 7.47292 15.0009 7.48136 14.9164 7.39139C15.0218 7.39617 15.1279 7.39687 15.2339 7.40128Z" fill="black"/>
</svg>
