<svg width="15" height="99" viewBox="0 0 15 99" fill="none" xmlns="http://www.w3.org/2000/svg">
<path d="M2.35309 0.00762737C3.59711 -0.0119122 5.22783 0.00898027 6.46715 0.0376565C6.85556 0.0465505 6.65888 0.0863066 6.927 0.094236C7.45139 0.109694 7.93993 0.0901957 8.45813 0.10861C8.62987 0.114907 8.4161 0.177881 8.59617 0.183042C9.58297 0.210873 10.5165 0.194832 11.5162 0.208219C12.426 0.220423 13.333 0.231178 14.2385 0.240786L14.7443 0.237369L14.7477 0.75C14.7054 4.74516 14.6853 8.7126 14.6619 12.7758C14.6525 14.4192 14.5954 16.4169 14.6204 18.1144C14.6233 18.3126 14.6786 18.1944 14.6832 18.2321C14.7529 18.8235 14.6413 18.6268 14.6265 19.0129C14.568 20.5453 14.5629 22.2493 14.5842 23.724C14.5934 24.3514 14.7032 23.7224 14.6416 24.3541C14.6374 24.398 14.5787 24.2388 14.5725 24.4109C14.5584 24.801 14.5689 25.5413 14.5642 25.8437C14.555 26.4266 14.5556 26.523 14.5549 27.0742C14.5535 27.8278 14.5243 28.7241 14.5376 29.5327C14.5406 29.7053 14.6008 29.4768 14.611 29.752C14.6212 30.0275 14.6161 30.7563 14.602 31.002C14.5878 31.2478 14.5405 31.1431 14.5296 31.1866C14.4381 31.5444 14.5649 32.3874 14.568 32.4959C14.6214 34.4736 14.5492 36.1695 14.5494 38.0259C14.5497 39.4352 14.5736 40.9421 14.5703 42.2831C14.5662 43.8807 14.5336 45.2347 14.5392 46.7867C14.5397 46.9505 14.6104 46.7586 14.6112 46.9586C14.6194 49.084 14.6117 51.1947 14.564 53.311C14.5591 53.5232 14.497 53.2497 14.4884 53.4617C14.4374 54.7599 14.3148 56.814 14.5852 57.5851C14.5746 58.4644 14.5637 59.532 14.5092 60.3187C14.4741 60.826 14.4065 60.3333 14.4353 60.9564C14.4418 61.097 14.501 60.9142 14.5062 61.125C14.5279 62.0123 14.5086 62.9817 14.5392 63.8595C14.5456 64.038 14.5987 63.9893 14.6083 64.0399C14.6857 64.465 14.5577 65.1728 14.5484 65.3271C14.479 66.502 14.5063 67.36 14.5046 68.4546C14.5042 68.7086 14.5755 68.4083 14.5777 68.6527C14.5879 69.9203 14.5818 71.2335 14.5501 72.4746C14.5429 72.7507 14.4822 72.4968 14.4756 72.6288C14.4475 73.2105 14.5622 73.3395 14.5374 73.8974C14.5323 74.015 14.4803 73.9487 14.4746 73.9702C14.3849 74.306 14.512 74.5977 14.5148 74.6841C14.5531 75.7766 14.4205 76.475 14.4393 77.5304C14.4417 77.6567 14.5075 77.372 14.5101 77.7269C14.5283 80.0915 14.5102 82.5923 14.4576 84.9329C14.4495 85.2968 14.4001 85.037 14.394 85.0599C14.2987 85.4331 14.4263 85.6746 14.4311 85.7933C14.4657 86.7294 14.3587 87.6038 14.5107 88.2399C14.4684 91.421 14.515 94.5904 14.4647 97.75L14.4662 97.9746L14.2385 97.9762C13.4605 97.9638 12.683 97.9455 11.9061 97.9186C11.8561 97.917 11.9457 97.8542 11.846 97.8513C10.6451 97.816 10.8757 97.9137 10.0811 98.0331C9.88093 98.0631 9.27202 97.9189 9.21814 97.9084C9.02185 97.8694 9.22544 97.7759 9.15971 97.7684C8.61581 97.7091 8.70444 98.0183 7.97071 98.0184C7.94775 98.0179 8.04413 97.961 7.98257 97.9553C7.79125 97.9376 7.60153 97.9602 7.41432 97.9406C6.98583 97.8953 6.83321 97.745 6.17874 97.8325C6.09591 97.8438 6.22241 98.0192 5.56731 98.0109C5.30616 98.0074 4.15014 98.0105 3.82616 97.9991C3.50256 97.9877 3.72474 97.9312 3.70166 97.9288C2.82977 97.854 3.16037 97.8231 2.72354 97.7124C2.28676 97.6022 2.40788 97.8651 2.22981 97.8944C2.05144 97.9237 1.41218 97.862 1.25507 97.8406C1.09808 97.8192 1.2939 97.7833 1.1543 97.7711C0.228555 97.6918 0.747961 97.9016 0.44293 97.9433C0.373387 97.9529 0.305327 97.9597 0.238525 97.9642L0.0258045 97.9656L0.0243477 97.75C-0.0175401 97.126 0.143201 96.6115 0.160457 96.0168C0.165616 95.8386 0.121214 95.984 0.117061 95.8254C0.101203 95.1971 0.162035 94.8193 0.106258 94.1046C0.0971691 93.9876 -0.0200437 93.4098 0.0659752 93.0358C0.0783789 92.9828 0.126961 93.1334 0.137844 92.8656C0.154176 92.4656 0.164795 91.745 0.148555 91.315C0.136541 90.9976 0.056488 91.3614 0.081356 90.9618C0.09246 90.7843 0.139291 91.1134 0.156246 90.7798C0.173195 90.4479 0.171138 89.5994 0.169521 89.2766C0.167868 88.9543 0.107145 89.1307 0.103054 89.1047C0.0796199 88.9471 0.050339 88.3286 0.0504113 88.2739C0.0429984 85.517 0.145354 82.9747 0.111477 80.2905C0.108906 80.0799 0.0448718 80.2202 0.0438195 80.188C0.0169905 79.4669 0.187242 80.0355 0.244228 79.5317C0.114284 79.6045 0.137813 79.3072 0.123562 78.7992C0.116589 78.5544 0.0662736 78.6877 0.0611229 78.6654C-0.0152999 78.3024 0.0834102 78.0496 0.103603 77.9845C0.177884 77.7441 0.0901162 77.4825 0.139766 77.3189C0.189046 77.1554 0.262101 77.5316 0.261165 77.0445C0.214649 76.9079 0.0930919 77.2695 0.0733909 76.8997C-0.00112879 75.5041 0.0942454 72.8991 0.104153 71.777C0.114051 70.6571 0.105469 70.2954 0.12228 69.6429C0.152675 68.4642 0.0624876 68.8961 0.021206 68.1643C-0.0200707 67.4302 0.201834 67.787 0.249538 67.6815C0.29722 67.578 0.248136 67.4649 0.274349 67.336C0.300555 67.2076 0.332989 67.4856 0.34283 67.1836C0.35266 66.8814 0.267832 66.0551 0.217952 65.948C0.112279 65.7215 0.00137079 66.0939 0.0403405 65.2942C0.0426532 65.2482 0.101002 65.3975 0.106899 65.2214C0.151818 63.8227 0.154603 62.3696 0.194332 60.9727C0.199886 60.7806 0.264797 60.9524 0.268764 60.8406C0.310282 59.6762 0.200834 60.0924 0.0792503 59.4543C0.241052 59.5975 0.340043 59.2446 0.340999 58.361C0.34163 57.8297 0.270963 57.9212 0.221157 57.5776C0.206142 57.4745 0.254665 57.0986 0.221431 57.0305C0.112795 56.8059 -0.00881629 57.16 0.0396081 56.2489C0.0419094 56.2089 0.101375 56.3362 0.104977 56.1981C0.128549 55.3052 0.0149172 55.1984 0.00115603 54.2333C-0.00964174 53.4769 0.0596496 52.1315 0.070919 51.2702C0.252831 51.2883 0.211176 50.4747 0.0857505 50.1447C0.0908854 49.5857 0.0837949 48.9819 0.101131 48.4416C0.107042 48.2557 0.15971 48.3778 0.165401 48.3544C0.254673 47.9948 0.132649 47.7518 0.127865 47.6312C0.0813616 46.3235 0.173846 45.258 0.0834617 44.01C0.0802063 43.9657 -0.0461555 43.8939 0.0461083 43.5603C0.0524682 43.5387 0.109961 43.9509 0.114406 43.3638C0.118862 42.7766 0.186601 41.6697 0.128048 40.8546C0.113951 40.6573 0.0113711 40.1583 0.0915183 39.7579C0.102402 39.7045 0.138643 39.7629 0.158809 39.6859C0.223069 39.4369 0.0953482 39.301 0.203853 39.0084C0.312353 38.7158 0.393612 38.1071 0.318751 37.285C0.316575 37.2589 0.215344 37.0642 0.216945 36.8057C0.219587 36.393 0.240676 35.8071 0.240016 35.3762C0.239664 35.1699 0.176805 35.3019 0.175655 35.2661C0.140431 33.8788 0.19647 32.8914 0.22079 31.4052C0.225373 31.1328 0.139655 30.3499 0.207424 29.8225C0.281609 29.2433 0.59021 29.8385 0.516688 28.5073C0.487281 27.9704 0.0957651 27.2906 0.29861 26.3258C0.248346 24.4545 0.352162 22.7239 0.280391 20.8474C0.277211 20.763 0.167942 20.4962 0.169429 20.2978C0.171849 20.0032 0.222919 19.8416 0.226283 19.6313C0.241667 18.7501 0.197972 17.9437 0.204769 17.0941C0.207238 16.7715 0.260045 16.8843 0.262996 16.4996C0.265898 16.1151 0.196362 15.8587 0.229946 15.3377C0.255544 14.9442 0.397674 14.5507 0.414241 14.0284C0.274045 14.0085 0.276933 13.6498 0.239925 13.0122C0.232744 12.8896 0.183949 13.0211 0.178035 12.9631C0.152886 12.7271 0.193327 12.5088 0.16595 12.2847C0.159375 12.2302 0.111498 12.2277 0.10342 12.1831C0.0329115 11.8043 0.140607 11.1801 0.159359 11.0729C0.230573 10.662 0.168302 10.47 0.196346 10.1549C0.224386 9.84025 0.259438 10.3107 0.276454 9.94316C0.311649 9.18137 0.303917 8.20253 0.306117 7.42882C0.3067 7.12012 0.24279 7.33072 0.24139 7.28655C0.22518 6.6482 0.293162 6.00267 0.165859 5.64871C0.495016 5.20612 0.133932 5.26377 0.199825 4.35132C0.205154 4.27943 0.36081 4.18801 0.383662 4.46395C0.406492 4.73988 0.357837 5.15831 0.393458 5.54116C0.401818 5.63182 0.547678 6.15119 0.556513 6.22204C0.625566 6.77711 0.392959 6.85575 0.380183 6.88514C0.24231 7.21815 0.399446 7.85281 0.410304 8.01993C0.460055 8.7845 0.427343 9.4341 0.462855 10.0736C0.485807 10.4918 0.638173 10.5327 0.633509 10.8612C0.618094 11.9529 0.405542 12.334 0.589838 13.3628C0.629145 13.5834 0.795677 13.3642 0.664728 14.1546C0.656473 14.2043 0.536679 14.7911 0.612452 15.1302C0.622006 15.1728 0.670539 15.1714 0.674616 15.2276C0.700988 15.604 0.662323 15.855 0.680841 16.265C0.699359 16.675 0.726966 17.168 0.710504 17.6361C0.700661 17.9182 0.610237 18.2801 0.588099 18.4152C0.524325 18.7965 0.628887 19.2054 0.551661 19.4416C0.474046 19.6798 0.356175 19.2141 0.306026 19.8388C0.432119 19.8619 0.56154 19.9151 0.688349 19.9523C0.683909 21.3212 0.643136 22.6682 0.648706 24.0418C0.649523 24.2121 0.717311 24.0379 0.719934 24.2204C0.730703 24.9907 0.68238 25.6634 0.701624 26.4621C0.716779 27.0804 0.788552 27.7583 0.806634 28.4048C0.662349 28.7997 0.71133 29.759 0.698145 30.4559C0.693589 30.7 0.655053 30.6837 0.642481 30.8573C0.595985 31.5123 0.723489 31.2054 0.743555 31.3849C0.829192 32.1553 0.540593 32.2212 0.547724 33.1295C0.548004 33.1776 0.70184 33.7658 0.71142 33.8468C0.773888 34.3615 0.657876 33.932 0.646509 34.2541C0.625738 34.8423 0.588999 35.251 0.634058 35.9411C0.647404 36.1423 0.743289 36.625 0.669123 37.0157C0.659411 37.0671 0.608563 37.0387 0.605585 37.0801C0.555947 37.829 0.715719 37.8487 0.76983 38.2767C0.823929 38.7048 0.713636 39.3659 0.681848 39.5004C0.599615 39.8524 0.646705 39.2307 0.638636 39.2117C0.542601 38.9877 0.559135 39.4699 0.55102 39.8383C0.394362 39.8917 0.403765 40.4069 0.543238 40.2203C0.558472 40.199 0.543863 39.9123 0.55102 39.8383C0.704723 40.1617 0.724408 40.728 0.580775 41.3534C0.513456 41.6461 0.434965 41.3694 0.463679 42.2587C0.476641 42.6623 0.584508 42.5063 0.613917 42.8625C0.681015 43.6762 0.580393 44.7335 0.596247 45.5724C0.602003 45.8769 0.661049 45.5803 0.667017 45.7884C0.683041 46.3406 0.638737 46.8276 0.661432 47.3822C0.663563 47.4324 0.725372 47.3097 0.72616 47.4821C0.733338 48.7895 0.693749 49.928 0.692652 51.293C0.69215 51.9526 0.726239 53.1317 0.719385 53.815C0.707871 54.9991 0.617992 56.4559 0.639826 57.4675C0.653802 58.1273 0.715624 57.9825 0.757745 58.2653C0.839394 58.8108 0.693142 59.7764 0.670496 59.9065C0.669746 59.9104 0.655173 59.3427 0.623438 59.6456C0.557314 59.8218 0.670209 59.9001 0.670496 59.9065C0.655866 59.9919 0.641832 61.126 0.65365 61.3512C0.660109 61.4736 0.718681 61.4051 0.720941 61.4689C0.773358 62.9855 0.788245 64.5047 0.760858 66.0429C0.759675 66.0699 0.694158 66.0292 0.692194 66.0928C0.663063 66.9833 0.743211 67.5535 0.790796 68.2879C0.838359 69.0222 0.822429 69.6045 0.709955 70.0392C0.724116 70.5933 0.674392 71.3882 0.64422 71.8456C0.614049 72.303 0.741583 72.3668 0.744104 72.407C0.824801 73.6623 0.751803 74.388 0.740442 75.6903C0.734822 76.3095 0.753321 77.5377 0.767267 78.2081C0.778502 78.7379 0.748614 79.0571 0.767725 79.5453C0.770277 79.6113 0.827062 79.5446 0.829248 79.5647C0.897187 80.1096 0.758368 79.8477 0.733576 79.9602C0.643416 80.3681 0.595398 80.62 0.637812 81.3177C0.647525 81.4787 0.847405 81.9475 0.859094 82.2408C0.873925 82.6223 0.80228 82.4783 0.819635 82.8777C0.821054 82.9118 0.865254 82.9047 0.863305 83.1512C0.85484 84.2954 0.829121 85.5428 0.833551 86.7318C0.833986 86.8942 0.904094 86.6859 0.905877 86.9206C0.914188 88.0217 0.911593 89.2286 0.878778 90.3013C0.87048 90.5653 0.821393 90.3998 0.806818 90.4571C0.718629 90.809 0.846765 91.308 0.849206 91.3904C0.910782 93.3544 0.794821 94.8576 0.85003 96.8594C0.852296 96.9356 0.920123 97.3685 0.920468 97.75L0.238525 97.0681C0.402681 97.0679 0.55731 97.0803 0.66989 97.1157C0.695507 97.1235 1.06575 97.2441 1.39311 97.1617C1.41345 97.1565 1.18275 97.0945 1.58535 97.1008C1.98795 97.1071 2.6359 97.0657 3.18931 97.1338C3.36452 97.1553 3.77862 97.2755 4.30125 97.1797C4.3353 97.173 5.14213 96.9563 5.43012 97.1058C5.4768 97.1304 5.42793 97.2887 6.05171 97.2075C6.17088 97.1918 5.95454 97.1565 6.26851 97.1345C6.74957 97.1005 7.38697 97.1429 7.97833 97.0724C8.08146 97.0599 8.52047 96.9525 8.87262 97.034C8.92777 97.0468 8.82299 97.0996 9.00897 97.1055C9.89332 97.1339 10.8193 97.0986 11.7172 97.1351C12.0353 97.1479 11.8727 97.2333 12.2042 97.2562C12.5358 97.2791 13.2038 97.3011 13.5507 97.2621C13.8977 97.2231 13.5186 97.0869 14.0385 97.0761C14.1052 97.0747 14.1719 97.0734 14.2385 97.0722L13.5607 97.75C13.5219 95.5579 13.5975 93.3847 13.6088 91.1946C13.6105 90.8599 13.5618 91.1374 13.5609 90.6441C13.5573 88.8256 13.5116 85.686 13.6151 84.108C13.698 82.8437 13.7611 84.4348 13.7948 83.4686C13.8109 83.0024 13.6527 82.498 13.6477 82.3855C13.5971 81.2861 13.6672 80.522 13.6457 79.5324C13.6412 79.3281 13.5771 79.5285 13.574 79.3546C13.5629 78.7605 13.5915 78.1362 13.5863 77.5685C13.5838 77.3139 13.5348 77.3608 13.5386 77.1265C13.5471 76.5658 13.5677 76.0699 13.6136 75.5234C13.6177 75.4735 13.6787 75.8095 13.6809 75.3946C13.6844 74.7232 13.7297 73.8899 13.683 73.1174C13.6689 72.8882 13.5569 72.8792 13.6343 72.3866C13.6504 72.2832 13.7848 72.4151 13.6687 71.8412C13.6494 71.7447 13.4927 70.7806 13.5937 70.3075C13.6203 70.1827 13.7303 69.8642 13.713 69.5885C13.7102 69.5512 13.6501 69.7009 13.6442 69.4725C13.6246 68.6676 13.631 67.8241 13.6122 66.9971C13.607 66.7763 13.5448 67.1052 13.5391 66.7761C13.5234 65.8711 13.5392 64.7411 13.5587 63.8561C13.566 63.5298 13.6176 63.7554 13.6232 63.7316C13.7144 63.3498 13.5913 63.1241 13.5841 62.9974C13.5411 62.2093 13.5989 61.6092 13.5836 60.8828C13.5796 60.6823 13.5208 60.8244 13.5156 60.7845C13.4644 60.3707 13.5699 60.679 13.5815 60.417C13.6144 59.6831 13.6097 58.865 13.6022 58.1228C13.5994 57.8502 13.5313 58.1566 13.5295 57.912C13.5178 56.464 13.5243 54.9587 13.5618 53.5455C13.569 53.2795 13.6215 53.4469 13.6334 53.3914C13.7172 53.0092 13.6029 52.449 13.592 52.3201C13.5423 51.7341 13.5887 51.5064 13.5801 50.9888C13.537 48.4605 13.5677 45.3387 13.5866 42.9521C13.6111 39.8421 13.6609 37.4288 13.648 34.4631C13.6472 34.2746 13.5775 34.4647 13.5759 34.3022C13.5591 32.2044 13.5864 30.1391 13.5662 28.0371C13.5647 27.8646 13.4986 28.1133 13.4939 27.8364C13.4838 27.2685 13.4874 26.5492 13.5086 25.975C13.5187 25.695 13.5755 26.0706 13.5845 25.7887C13.6058 25.1323 13.6105 24.4287 13.5999 23.7545C13.5953 23.4676 13.5276 23.9005 13.5269 23.5276C13.5202 20.9872 13.5085 18.4924 13.5961 15.9253C13.6021 15.7493 13.7395 15.5949 13.7132 15.2207C13.675 15.1925 13.6302 15.194 13.5894 15.1817C13.5674 11.4837 13.6151 7.82335 13.6224 4.1149C13.6227 3.95854 13.5499 4.22876 13.5501 3.92605C13.5508 2.85922 13.5435 1.81118 13.5541 0.75L14.2385 1.43439C13.557 1.42758 12.87 1.41343 12.1691 1.38513C11.9913 1.37805 12.0825 1.24994 11.5585 1.26931C11.4661 1.27285 10.6769 1.28993 10.4728 1.31774C10.4451 1.32194 10.5891 1.38173 10.3348 1.38348C8.8569 1.39256 7.30817 1.37891 5.83285 1.34237C5.59475 1.33636 5.84831 1.27268 5.67872 1.26785C4.47574 1.23404 3.16724 1.28245 2.01773 1.22463C1.24829 1.1857 1.53316 1.07563 1.12429 0.96728C1.06646 0.951993 0.589996 0.949571 0.565356 0.886531C0.5021 0.72801 0.732883 0.554432 0.638187 0.385464C0.61818 0.34907 -0.019924 0.388269 0.357875 0.300321C0.384268 0.294434 0.846896 0.265245 0.960842 0.23541C1.04017 0.214782 0.897214 0.15067 1.05908 0.124265C1.22093 0.0978846 1.39878 0.151627 1.66713 0.120603C1.93535 0.0891954 1.81741 0.016261 2.35309 0.00762737ZM0.509364 73.9052C0.448117 74.3287 0.672438 74.3912 0.618769 73.9331C0.615908 73.9109 0.512368 73.8833 0.509364 73.9052ZM0.473933 22.6605C0.374992 23.2142 0.520475 23.5931 0.596888 23.2025C0.673219 22.812 0.503926 22.4918 0.473933 22.6605ZM0.401698 16.9188C0.323687 17.5659 0.641783 17.6678 0.577479 16.9747C0.573845 16.9344 0.406228 16.881 0.401698 16.9188ZM3.02042 0.936427C3.01457 0.933448 2.67207 0.930545 2.66389 0.933497C2.48151 1.00474 3.16637 1.0105 3.02042 0.936427ZM0.323054 11.2211C0.280025 11.4231 0.329697 12.0048 0.383204 11.7538C0.426249 11.5517 0.376581 10.9695 0.323054 11.2211ZM0.269954 95.999C0.266611 96.0057 0.263601 96.2512 0.282497 96.2463C0.343355 96.2296 0.326179 95.8879 0.269954 95.999ZM0.319392 1.53718C0.307419 2.96794 0.0446562 3.83543 0.0743064 2.27734C0.079671 1.9952 0.158099 2.88545 0.181789 2.52632C0.224948 1.86922 0.0599647 1.43288 0.148372 0.762303C0.164554 0.64092 0.320659 1.45557 0.319759 1.53973C0.319636 1.53888 0.319514 1.53803 0.319392 1.53718ZM0.239925 74.149C0.236959 74.1575 0.234146 74.4974 0.237087 74.5056C0.308302 74.6897 0.31401 74.0049 0.239925 74.149ZM12.8156 97.8573C12.8344 97.8636 13.6232 97.8695 13.6489 97.8637C14.0604 97.7472 12.4656 97.7349 12.8156 97.8573ZM0.0757713 51.2566C0.00412792 50.8857 -0.00430728 50.442 0.0856589 50.1464C0.0808831 50.5149 0.0801795 50.886 0.0757713 51.2566Z" fill="black"/>
<path d="M1.35283 46.2692C1.42007 46.2496 1.50822 46.2705 1.57521 46.2992C1.5962 46.3081 1.58557 46.3478 1.60006 46.3558C1.62841 46.3712 1.65482 46.3517 1.68283 46.3701C1.69211 46.3764 1.68056 46.4394 1.69029 46.4446C1.74363 46.4724 1.79409 46.4564 1.84813 46.4698C2.11428 46.5358 2.37591 46.5594 2.64532 46.5881C2.73416 46.5975 2.84214 46.6547 2.9339 46.6297C2.94461 46.6267 2.93822 46.5714 2.94026 46.5669C2.97223 46.4972 2.9616 46.6087 2.98247 46.6236C3.0653 46.6821 3.15741 46.6872 3.23712 46.6659C3.27104 46.6566 3.23703 46.5468 3.27118 46.6085C3.27355 46.6126 3.26495 46.6713 3.27425 46.6776C3.29534 46.6917 3.33535 46.6812 3.3517 46.6858C3.3832 46.6951 3.38842 46.6945 3.41821 46.6952C3.45895 46.6966 3.5074 46.7258 3.5511 46.7125C3.56043 46.7094 3.54808 46.6493 3.56296 46.639C3.57785 46.6288 3.61724 46.6339 3.63053 46.6481C3.64381 46.6623 3.63815 46.7096 3.6405 46.7204C3.65985 46.8119 3.70541 46.6852 3.71128 46.6821C3.81818 46.6287 3.90985 46.7009 4.0102 46.7007C4.08637 46.7003 4.16783 46.6765 4.24031 46.6798C4.32667 46.6839 4.39986 46.7165 4.48375 46.7109C4.49261 46.7104 4.48223 46.6396 4.49305 46.6389C4.60793 46.6306 4.72202 46.6383 4.83641 46.6861C4.84789 46.6909 4.8331 46.7531 4.84456 46.7616C4.91474 46.8127 5.02577 46.9353 5.06745 46.6649C5.11498 46.6754 5.17269 46.6863 5.21521 46.7408C5.24263 46.7759 5.216 46.8436 5.24968 46.8147C5.25728 46.8083 5.2474 46.749 5.25879 46.7439C5.30676 46.7222 5.35916 46.7414 5.40661 46.7108C5.41626 46.7044 5.41362 46.6513 5.41636 46.6418C5.43934 46.5643 5.4776 46.6924 5.48594 46.7017C5.54945 46.771 5.59583 46.7437 5.65499 46.7454C5.66872 46.7458 5.65249 46.6745 5.6657 46.6724C5.73422 46.6621 5.8052 46.6683 5.87229 46.6999C5.88721 46.7071 5.87349 46.7679 5.88062 46.7744C5.91207 46.8026 5.91904 46.6879 5.94919 46.7126C5.95555 46.7177 5.95197 46.7697 5.95313 46.7755C5.97128 46.8651 5.98705 46.7381 5.99172 46.7353C6.05078 46.6969 6.08852 46.8296 6.14558 46.8108C6.1524 46.8084 6.13701 46.7426 6.1562 46.7399C6.28401 46.7218 6.41919 46.7398 6.54571 46.7925C6.56538 46.8006 6.55134 46.85 6.55257 46.8561C6.57275 46.9513 6.5858 46.8237 6.59222 46.8189C6.64282 46.7844 6.69008 46.8913 6.72446 46.7394C6.93876 46.7921 7.15208 46.7068 7.3646 46.8429C7.3673 46.8445 7.36246 46.9073 7.36785 46.9102C7.43277 46.9455 7.4203 46.8478 7.46325 46.7284C7.47407 46.6984 7.50698 46.8426 7.5099 46.8532C7.52051 46.8921 7.5095 46.9856 7.51306 46.9932C7.54246 47.0524 7.53766 46.7432 7.57733 46.7431C7.57857 46.7436 7.57336 46.8006 7.57669 46.8062C7.58703 46.824 7.59728 46.8014 7.6074 46.821C7.63056 46.8663 7.63881 47.0165 7.67419 46.9291C7.67867 46.9177 7.67183 46.7424 7.70724 46.7506C7.72136 46.7541 7.78384 46.7511 7.80136 46.7625C7.81885 46.7738 7.80684 46.8303 7.80809 46.8328C7.85522 46.9075 7.83734 46.9385 7.86096 47.0491C7.88457 47.1593 7.87802 46.8964 7.88764 46.8671C7.89729 46.8378 7.93184 46.8995 7.94033 46.9209C7.94882 46.9424 7.93824 46.9783 7.94578 46.9904C7.99582 47.0697 7.96774 46.8599 7.98423 46.8182C8.02311 46.7194 8.05338 46.9144 8.08897 46.9335C8.0986 46.9386 8.09074 46.8942 8.09931 46.8901C8.13327 46.8742 8.1537 46.935 8.19233 46.8793C8.19865 46.8702 8.22989 46.753 8.2501 46.839C8.25297 46.8514 8.24483 46.9 8.2593 46.9109C8.28092 46.9272 8.31988 46.9378 8.34312 46.9216C8.36028 46.9096 8.34061 46.8295 8.36221 46.8544C8.37181 46.8655 8.35402 46.9123 8.37205 46.9293C8.38999 46.9462 8.43585 46.9442 8.45331 46.9425C8.47073 46.9409 8.46119 46.8802 8.4626 46.8761C8.47112 46.8526 8.50455 46.8234 8.5075 46.8234C8.65653 46.816 8.79395 46.9184 8.93904 46.8845C8.95042 46.8819 8.94284 46.8179 8.94458 46.8168C8.98356 46.79 8.95283 46.9603 8.98005 47.0172C8.97612 46.8873 8.99219 46.9108 9.01965 46.8966C9.03288 46.8896 9.02568 46.8393 9.02688 46.8341C9.0465 46.7577 9.06017 46.8564 9.06369 46.8766C9.07668 46.9509 9.09083 46.8631 9.09967 46.9128C9.10851 46.9621 9.08817 47.0351 9.1145 47.0342C9.12188 46.9877 9.10233 46.8661 9.12233 46.8464C9.19776 46.7719 9.33858 46.8673 9.39923 46.8772C9.45976 46.8871 9.47931 46.8785 9.51459 46.8953C9.5783 46.9257 9.55495 46.8355 9.59451 46.7942C9.63419 46.7529 9.6149 46.9748 9.6206 47.0226C9.6262 47.0702 9.63232 47.0211 9.63928 47.0474C9.64622 47.0736 9.6312 47.106 9.64752 47.1158C9.66386 47.1257 9.70852 47.0408 9.71431 46.991C9.72655 46.8853 9.70642 46.7744 9.74965 46.8134C9.75213 46.8157 9.74407 46.874 9.75358 46.8799C9.82919 46.9248 9.90773 46.9276 9.98325 46.9673C9.99363 46.9729 9.98435 47.0378 9.99039 47.0418C10.0533 47.0833 10.0308 46.9738 10.0653 46.8523C10.0576 47.0141 10.0767 47.1131 10.1244 47.114C10.1531 47.1146 10.1482 47.044 10.1668 46.9942C10.1723 46.9792 10.1927 47.0277 10.1963 46.9944C10.2085 46.8858 10.1893 46.7642 10.2386 46.8126C10.2407 46.8149 10.2339 46.8744 10.2413 46.878C10.2896 46.9016 10.2954 46.7879 10.3475 46.7742C10.3884 46.7634 10.4611 46.8327 10.5077 46.8439C10.5067 47.0258 10.5507 46.9842 10.5685 46.8588C10.5988 46.8639 10.6314 46.8568 10.6606 46.8741C10.6707 46.8801 10.664 46.9327 10.6653 46.9384C10.6848 47.0277 10.6979 46.9057 10.7044 46.9009C10.7751 46.8544 10.8327 46.9469 10.9001 46.8565C10.9025 46.8532 10.9064 46.7269 10.9245 46.8191C10.9256 46.8255 10.9033 46.883 10.9351 46.8874C10.9668 46.8919 11.0266 46.9596 11.0707 46.9011C11.0814 46.887 11.1083 46.7844 11.13 46.8645C11.1329 46.8754 11.1297 46.9117 11.1339 46.9318C11.1473 46.9961 11.1547 46.8684 11.1705 46.9769C11.1863 47.0854 11.2192 47.1666 11.2637 47.0918C11.2651 47.0896 11.2756 46.9884 11.2896 46.99C11.3119 46.9926 11.3435 47.0137 11.3668 47.013C11.378 47.0127 11.3709 46.9498 11.3728 46.9487C11.4478 46.9134 11.5011 46.9695 11.5815 46.9938C11.5962 46.9984 11.6385 46.9127 11.667 46.9804C11.6983 47.0546 11.6662 47.3632 11.7381 47.2897C11.7672 47.2603 11.8039 46.8688 11.8561 47.0716C11.9572 47.0214 12.0507 47.1252 12.1522 47.0534C12.1567 47.0502 12.1712 46.941 12.1819 46.9424C12.1978 46.9449 12.2065 46.9959 12.2179 46.9993C12.2655 47.0147 12.3091 46.971 12.3551 46.9778C12.3725 46.9803 12.3664 47.0331 12.3872 47.036C12.408 47.0389 12.4218 46.9694 12.45 47.003C12.4713 47.0286 12.4925 47.1707 12.5208 47.1873C12.5218 47.0471 12.5412 47.0499 12.5757 47.0129C12.5823 47.0058 12.5752 46.957 12.5784 46.951C12.5911 46.9259 12.6029 46.9663 12.615 46.939C12.618 46.9324 12.6181 46.8845 12.6205 46.8764C12.641 46.8059 12.6747 46.9136 12.6805 46.9324C12.7027 47.0036 12.7131 46.9413 12.7302 46.9694C12.7472 46.9974 12.7217 47.0325 12.7416 47.0495C12.7828 47.0847 12.8357 47.0769 12.8775 47.0791C12.8942 47.0797 12.8828 47.0158 12.8852 47.0144C12.9197 46.9982 12.9546 47.0662 12.9737 46.9389C12.9977 47.268 12.9945 46.9069 13.0439 46.9728C13.0477 46.9782 13.0527 47.1338 13.0378 47.1567C13.0229 47.1795 13.0002 47.1309 12.9795 47.1665C12.9746 47.1748 12.9466 47.3207 12.9427 47.3295C12.9127 47.3986 12.9085 47.166 12.9069 47.1532C12.8889 47.0153 12.8546 47.1725 12.8456 47.1833C12.8042 47.2331 12.7691 47.2004 12.7345 47.2359C12.7119 47.2588 12.7097 47.4112 12.692 47.4065C12.633 47.3911 12.6124 47.1786 12.5568 47.3629C12.5448 47.4022 12.5567 47.5687 12.514 47.4377C12.5113 47.4295 12.4795 47.3097 12.4612 47.3855C12.4589 47.395 12.459 47.4436 12.456 47.4476C12.4356 47.474 12.422 47.4353 12.3999 47.4539C12.3777 47.4724 12.3511 47.5 12.3258 47.4835C12.3105 47.4737 12.291 47.3833 12.2836 47.3611C12.263 47.2973 12.2409 47.4019 12.2282 47.3247C12.2153 47.2471 12.2405 47.1292 12.2067 47.079C12.2055 47.2051 12.2026 47.3346 12.2006 47.4614C12.1266 47.4569 12.0538 47.4161 11.9795 47.4217C11.9703 47.4225 11.9797 47.4903 11.9699 47.4929C11.9282 47.5037 11.8919 47.4554 11.8487 47.4746C11.8153 47.4898 11.7786 47.5616 11.7437 47.5796C11.7223 47.4354 11.6705 47.4843 11.6328 47.4712C11.6196 47.4666 11.6205 47.4281 11.6111 47.4155C11.5757 47.369 11.5923 47.4965 11.5826 47.5166C11.5409 47.6022 11.5374 47.3136 11.4883 47.3207C11.4857 47.321 11.4539 47.4749 11.4495 47.4844C11.4217 47.5469 11.4449 47.4309 11.4275 47.4195C11.3957 47.3988 11.3736 47.362 11.3363 47.4071C11.3254 47.4204 11.2993 47.5163 11.2782 47.4421C11.2754 47.4324 11.277 47.3816 11.2747 47.3786C11.2343 47.329 11.2332 47.4887 11.2101 47.5428C11.1869 47.5969 11.1512 47.4866 11.1439 47.4549C11.1249 47.3726 11.1585 47.4197 11.1595 47.4117C11.1716 47.3156 11.1456 47.3321 11.1256 47.324C11.1228 47.1674 11.0949 47.1768 11.105 47.3163C11.1061 47.3315 11.1216 47.3169 11.1256 47.324C11.1082 47.4777 11.0776 47.4974 11.0437 47.3538C11.0279 47.2865 11.0429 47.208 10.9948 47.2367C10.973 47.2497 10.9814 47.3575 10.9622 47.3869C10.9182 47.454 10.861 47.3534 10.8157 47.3693C10.7992 47.375 10.8153 47.4341 10.804 47.44C10.7742 47.4561 10.7478 47.4118 10.7179 47.4344C10.7151 47.4366 10.7218 47.4984 10.7125 47.4992C10.6418 47.5064 10.5803 47.4668 10.5065 47.4657C10.4708 47.4652 10.4071 47.4993 10.3701 47.4924C10.3061 47.4809 10.2274 47.391 10.1727 47.4128C10.1371 47.4268 10.1449 47.4886 10.1296 47.5308C10.1001 47.6124 10.0479 47.4662 10.0409 47.4435C10.0407 47.4428 10.0714 47.4282 10.055 47.3965C10.0455 47.3303 10.0412 47.4432 10.0409 47.4435C10.0363 47.4289 9.97496 47.4148 9.96278 47.4267C9.95617 47.4331 9.95987 47.4917 9.95642 47.494C9.87444 47.5464 9.79232 47.5613 9.70918 47.5339C9.70772 47.5327 9.70992 47.4672 9.70648 47.4652C9.65835 47.4361 9.62753 47.5162 9.58783 47.5638C9.54814 47.6114 9.51666 47.5954 9.49316 47.483C9.46321 47.4971 9.42025 47.4474 9.39552 47.4172C9.3708 47.3871 9.36735 47.5146 9.36517 47.5171C9.29732 47.5978 9.25809 47.5248 9.1877 47.5135C9.15423 47.5078 9.08784 47.5263 9.0516 47.5403C9.02297 47.5515 9.00571 47.5216 8.97932 47.5407C8.97575 47.5433 8.97936 47.6001 8.97827 47.6023C8.94882 47.6702 8.96297 47.5314 8.95689 47.5066C8.93485 47.4164 8.92123 47.3684 8.88351 47.4108C8.87481 47.4205 8.84947 47.6204 8.83362 47.6321C8.813 47.6469 8.82078 47.5753 8.79919 47.5926C8.79734 47.5941 8.79773 47.6383 8.78441 47.6363C8.72256 47.6279 8.65513 47.6021 8.59086 47.6066C8.58208 47.607 8.59334 47.6771 8.58066 47.6789C8.52114 47.6872 8.4559 47.6846 8.39791 47.6518C8.38364 47.6435 8.39259 47.5944 8.38949 47.5798C8.37047 47.4916 8.3435 47.6198 8.33905 47.6222C8.23288 47.6838 8.15163 47.5678 8.04342 47.623C8.03753 47.6263 7.99219 47.7636 7.97196 47.6458C7.97058 47.638 7.95057 47.5175 7.93287 47.5999C7.93177 47.605 7.94424 47.6671 7.92248 47.6608C7.90072 47.6545 7.86569 47.6959 7.83578 47.6277C7.82631 47.6062 7.80393 47.486 7.77568 47.5818C7.77383 47.5885 7.73022 47.8052 7.71466 47.6557C7.71213 47.6311 7.71477 47.4729 7.68106 47.554C7.67461 47.5697 7.68631 47.605 7.66934 47.6271C7.64333 47.661 7.60888 47.6187 7.57691 47.6891C7.57134 47.7016 7.54761 47.809 7.52857 47.7275C7.52559 47.7147 7.53126 47.6619 7.5212 47.656C7.4734 47.6276 7.42335 47.663 7.37481 47.6264C7.35762 47.6136 7.36641 47.5282 7.34849 47.5053C7.33057 47.4824 7.29446 47.4604 7.27571 47.4994C7.25695 47.5385 7.27744 47.6746 7.24934 47.6855C7.12718 47.7328 7.00616 47.6529 6.88418 47.6413C6.86609 47.6395 6.88109 47.6882 6.85442 47.6891C6.75613 47.6928 6.58642 47.7384 6.50112 47.6349C6.43278 47.5521 6.51878 47.489 6.46656 47.4552C6.44136 47.4391 6.4141 47.5974 6.40801 47.6024C6.34858 47.653 6.30728 47.5829 6.25379 47.6044C6.24274 47.6088 6.25358 47.673 6.24418 47.6761C6.21207 47.6872 6.17832 47.6586 6.14764 47.6638C6.13387 47.6663 6.13641 47.7153 6.12374 47.7115C6.09343 47.703 6.06663 47.6824 6.03709 47.6365C6.03439 47.6323 6.05255 47.5714 6.03013 47.5691C5.99384 47.5656 5.94879 47.5203 5.90703 47.5671C5.89465 47.5812 5.89416 47.6931 5.86753 47.6158C5.86194 47.5997 5.86907 47.4652 5.83805 47.5814C5.83283 47.6007 5.78072 47.7574 5.75515 47.6564C5.7484 47.6298 5.73118 47.5198 5.71628 47.5371C5.71426 47.5398 5.72236 47.6 5.71001 47.6058C5.6665 47.6255 5.62091 47.619 5.57621 47.6379C5.56427 47.643 5.58205 47.7052 5.56426 47.7109C5.51534 47.7267 5.45426 47.7108 5.40642 47.6913C5.38879 47.684 5.40098 47.6325 5.39969 47.6269C5.37906 47.5357 5.36685 47.6588 5.36001 47.666C5.31741 47.709 5.28497 47.6511 5.2457 47.6664C5.23487 47.6705 5.24255 47.7292 5.24039 47.7345C5.21802 47.7856 5.23469 47.6802 5.22052 47.6685C5.18086 47.6356 5.13663 47.6404 5.09652 47.6479C5.08178 47.6507 5.09834 47.7188 5.08512 47.7205C5.00685 47.7323 4.92548 47.7258 4.84909 47.6882C4.83471 47.681 4.84376 47.6286 4.84076 47.6166C4.8201 47.5329 4.78982 47.6471 4.78286 47.658C4.75118 47.7077 4.73887 47.6614 4.7109 47.67C4.57423 47.7131 4.40548 47.6824 4.27648 47.6634C4.10837 47.639 3.97792 47.5891 3.81761 47.6021C3.80743 47.6028 3.8177 47.6726 3.80892 47.6741C3.69552 47.6909 3.58388 47.6637 3.47026 47.6838C3.46094 47.6854 3.47438 47.7515 3.45941 47.7562C3.42872 47.7662 3.38983 47.7626 3.3588 47.7415C3.34366 47.7313 3.36396 47.6746 3.34873 47.6655C3.31325 47.6443 3.27521 47.6395 3.23877 47.6501C3.22326 47.6548 3.24666 47.7224 3.2265 47.7232C3.08919 47.7299 2.95433 47.7416 2.81557 47.654C2.80605 47.648 2.79771 47.5105 2.77748 47.5369C2.77596 47.575 2.77604 47.6199 2.77538 47.6607C2.57548 47.6826 2.37762 47.635 2.17717 47.6276C2.16872 47.6273 2.18332 47.7001 2.16696 47.6999C2.07226 47.6989 1.98029 47.719 1.88342 47.6467C1.87381 47.6396 1.87874 47.5115 1.85042 47.5308C1.84542 47.5344 1.80276 47.5515 1.79173 47.5793C1.79023 47.5835 1.79802 47.6433 1.78427 47.645C1.70438 47.6541 1.62067 47.6404 1.54092 47.6039C1.52805 47.5979 1.54176 47.5342 1.53259 47.5294C1.46756 47.4956 1.39683 47.544 1.3347 47.4862C1.29311 47.4472 1.30851 47.3372 1.2864 47.2288C1.28328 47.2135 1.25752 47.2111 1.25619 47.1481C1.25277 46.9896 1.26525 46.816 1.26013 46.647C1.25905 46.6106 1.22456 46.6498 1.24498 46.5619C1.2464 46.556 1.27141 46.5268 1.27757 46.4969C1.28186 46.4763 1.27413 46.4122 1.28288 46.3858C1.29163 46.3594 1.30124 46.4132 1.31575 46.3821C1.33025 46.3507 1.32387 46.2778 1.35283 46.2692ZM9.28419 47.2824C9.2613 47.2211 9.25792 47.4455 9.28268 47.3918C9.28388 47.3889 9.28537 47.2854 9.28419 47.2824ZM12.0542 47.2469C12.0242 47.148 12.0038 47.2935 12.0249 47.3699C12.046 47.4462 12.0633 47.2769 12.0542 47.2469ZM12.3645 47.1747C12.3296 47.0967 12.324 47.4148 12.3615 47.3505C12.3637 47.3469 12.3666 47.1792 12.3645 47.1747ZM1.3889 47.198C1.38858 47.195 1.37007 47.1921 1.36963 47.195C1.35977 47.2663 1.39679 47.272 1.3889 47.198ZM12.6725 47.0961C12.6616 47.053 12.6302 47.1027 12.6437 47.1562C12.6547 47.1993 12.6861 47.1496 12.6725 47.0961ZM8.08993 47.043C8.08957 47.0396 8.0763 47.0366 8.07656 47.0555C8.07746 47.1164 8.09594 47.0992 8.08993 47.043ZM13.196 47.0924C13.1186 47.0804 13.0717 46.8177 13.156 46.8473C13.1712 46.8527 13.1231 46.9311 13.1425 46.9548C13.178 46.998 13.2016 46.833 13.2379 46.9214C13.2444 46.9376 13.2004 47.0937 13.1958 47.0928C13.1959 47.0927 13.1959 47.0925 13.196 47.0924ZM9.27101 47.0129C9.27055 47.01 9.25218 47.0072 9.25174 47.0101C9.24179 47.0813 9.2788 47.087 9.27101 47.0129ZM7.31544 46.9043C7.31443 46.8979 7.27179 46.892 7.2704 46.8979C7.24815 47.0143 7.33436 47.0266 7.31544 46.9043ZM10.5084 46.8488C10.5285 46.7771 10.5525 46.7687 10.5685 46.8587C10.5485 46.8539 10.5285 46.8532 10.5084 46.8488ZM7.9809 3.14492C8.00044 3.67594 7.97955 4.37201 7.95087 4.90102C7.94198 5.06682 7.90222 4.98286 7.89429 5.09731C7.87883 5.32115 7.89833 5.52968 7.87992 5.75088C7.87362 5.82419 7.81064 5.73294 7.80548 5.8098C7.77765 6.23102 7.79369 6.62951 7.78031 7.05621C7.71426 9.158 7.69062 11.224 7.66193 13.3515C7.65252 14.053 7.59537 14.9058 7.62036 15.6303C7.62334 15.7149 7.67861 15.6645 7.68317 15.6806C7.75291 15.933 7.64132 15.8491 7.6265 16.0139C7.56796 16.668 7.56287 17.3953 7.5842 18.0248C7.59344 18.2926 7.70323 18.0241 7.6416 18.2938C7.63744 18.3125 7.57874 18.2445 7.57248 18.318C7.5584 18.4845 7.56889 18.8005 7.56424 18.9296C7.55498 19.1784 7.55557 19.2196 7.5549 19.4549C7.55348 19.7765 7.5243 20.1591 7.5376 20.5043C7.54061 20.5779 7.60079 20.4804 7.61103 20.5979C7.62125 20.7155 7.61615 21.0266 7.60196 21.1314C7.58777 21.2363 7.54048 21.1917 7.52964 21.2102C7.43814 21.363 7.56486 21.7228 7.568 21.7691C7.6214 22.6133 7.54921 23.3372 7.54941 24.1296C7.54972 24.7312 7.57355 25.3744 7.57029 25.9468C7.56616 26.6288 7.53355 27.2067 7.53916 27.8692C7.53968 27.9391 7.61043 27.8572 7.61121 27.9426C7.61944 28.8498 7.61173 29.7508 7.56397 30.6541C7.55912 30.7447 7.497 30.6279 7.48844 30.7184C7.43739 31.2726 7.31476 32.1494 7.58521 32.4785C7.57465 32.8539 7.56374 33.3096 7.50922 33.6454C7.47413 33.8619 7.40646 33.6516 7.43534 33.9176C7.44177 33.9776 7.50103 33.8996 7.5062 33.9895C7.52789 34.3683 7.50863 34.7821 7.53925 35.1568C7.54562 35.233 7.59872 35.2122 7.60828 35.2338C7.68572 35.4153 7.55771 35.7174 7.5484 35.7832C7.47904 36.2848 7.50634 36.651 7.50464 37.1182C7.50422 37.2266 7.57555 37.0985 7.5777 37.2028C7.58792 37.7439 7.58179 38.3044 7.55014 38.8342C7.54293 38.952 7.48217 38.8437 7.47562 38.9C7.44746 39.1483 7.56221 39.2034 7.53742 39.4415C7.53234 39.4917 7.48033 39.4634 7.47461 39.4726C7.38494 39.6159 7.512 39.7405 7.5148 39.7773C7.55313 40.2437 7.42049 40.5418 7.43927 40.9923C7.44165 41.0462 7.50747 40.9246 7.51014 41.0761C7.5283 42.0855 7.51022 43.153 7.45758 44.152C7.44949 44.3074 7.40005 44.1965 7.39396 44.2063C7.29873 44.3656 7.42632 44.4687 7.43113 44.5193C7.46571 44.9189 7.35871 45.2922 7.51068 45.5636C7.45795 47.2559 7.54329 48.9404 7.40714 50.6187C7.40556 50.64 7.34272 50.6018 7.33985 50.6444C7.30456 51.157 7.40223 51.0585 7.52167 51.3977C7.55166 51.4831 7.40746 51.743 7.39688 51.766C7.35793 51.8498 7.26445 51.7629 7.2569 51.791C7.19766 52.0232 7.50683 51.9853 7.50693 52.2985C7.50642 52.3083 7.44951 52.2672 7.44385 52.2935C7.42609 52.3751 7.4487 52.4561 7.42911 52.536C7.38378 52.7189 7.23356 52.7841 7.32099 53.0634C7.33234 53.0988 7.50771 53.0448 7.49942 53.3244C7.49597 53.4359 7.49898 53.9293 7.48761 54.0676C7.47626 54.2058 7.41975 54.1109 7.4173 54.1208C7.34257 54.493 7.3116 54.3518 7.20096 54.5383C7.09074 54.7247 7.35363 54.673 7.38297 54.749C7.41223 54.8252 7.35057 55.098 7.32914 55.1651C7.30769 55.2321 7.27178 55.1485 7.25965 55.2081C7.18037 55.6033 7.39013 55.3816 7.43186 55.5118C7.53065 55.8188 7.3357 56.0578 7.31659 56.3389C7.31143 56.4149 7.35584 56.3529 7.35999 56.4206C7.37585 56.6887 7.31502 56.85 7.37079 57.1551C7.37988 57.205 7.49709 57.4516 7.41108 57.6113C7.39867 57.6339 7.35009 57.5697 7.33921 57.684C7.32288 57.8547 7.31226 58.1623 7.3285 58.3458C7.34051 58.4813 7.42056 58.326 7.39569 58.4966C7.38459 58.5724 7.33776 58.4319 7.32081 58.5743C7.30386 58.716 7.30591 59.0781 7.30753 59.2159C7.30918 59.3535 7.36991 59.2782 7.374 59.2893C7.39743 59.3566 7.42671 59.6206 7.42664 59.6439C7.43405 60.8207 7.3317 61.9059 7.36557 63.0517C7.36814 63.1416 7.43218 63.0817 7.43323 63.0954C7.46006 63.4032 7.28981 63.1605 7.23282 63.3756C7.36277 63.3445 7.33924 63.4714 7.35349 63.6883C7.36046 63.7927 7.41078 63.7359 7.41593 63.7454C7.49235 63.9003 7.39364 64.0082 7.37345 64.036C7.29917 64.1386 7.38693 64.2503 7.33728 64.3201C7.28801 64.3899 7.21495 64.2293 7.21589 64.4373C7.2624 64.4956 7.38396 64.3412 7.40366 64.4991C7.47818 65.0948 7.38281 66.2067 7.3729 66.6857C7.363 67.1637 7.37158 67.3181 7.35477 67.5967C7.32438 68.0998 7.41456 67.9154 7.45584 68.2278C7.49712 68.5411 7.27522 68.3888 7.22751 68.4339C7.17983 68.4781 7.22891 68.5263 7.2027 68.5814C7.1765 68.6362 7.14406 68.5175 7.13422 68.6464C7.12439 68.7754 7.20922 69.1281 7.2591 69.1738C7.36477 69.2705 7.47568 69.1116 7.43671 69.4529C7.4344 69.4725 7.37605 69.4088 7.37015 69.484C7.32523 70.081 7.32245 70.7013 7.28272 71.2976C7.27716 71.3796 7.21225 71.3062 7.20829 71.354C7.16677 71.851 7.27622 71.6733 7.3978 71.9457C7.236 71.8845 7.13701 72.0352 7.13605 72.4124C7.13542 72.6392 7.20609 72.6001 7.25589 72.7468C7.27091 72.7907 7.22239 72.9512 7.25562 72.9803C7.36426 73.0762 7.48587 72.925 7.43744 73.3139C7.43514 73.331 7.37568 73.2767 7.37207 73.3356C7.3485 73.7167 7.46213 73.7624 7.47589 74.1743C7.48669 74.4972 7.4174 75.0715 7.40613 75.4391C7.22422 75.4314 7.26588 75.7787 7.3913 75.9195C7.38617 76.1581 7.39326 76.4159 7.37592 76.6465C7.37001 76.7259 7.31734 76.6737 7.31165 76.6837C7.22238 76.8372 7.3444 76.9409 7.34919 76.9924C7.39569 77.5507 7.3032 78.0054 7.39359 78.5382C7.39684 78.5571 7.52321 78.5877 7.43094 78.7301C7.42458 78.7393 7.36709 78.5634 7.36264 78.814C7.35819 79.0646 7.29045 79.5371 7.349 79.8851C7.3631 79.9693 7.46568 80.1822 7.38553 80.3532C7.37465 80.376 7.33841 80.351 7.31824 80.3839C7.25398 80.4902 7.3817 80.5482 7.2732 80.6731C7.1647 80.798 7.08344 81.0578 7.1583 81.4087C7.16048 81.4199 7.26171 81.503 7.26011 81.6133C7.25746 81.7895 7.23638 82.0396 7.23703 82.2235C7.23739 82.3116 7.30025 82.2552 7.3014 82.2705C7.33662 82.8627 7.28058 83.2842 7.25626 83.9185C7.25168 84.0348 7.3374 84.369 7.26963 84.5942C7.19544 84.8414 6.88684 84.5873 6.96036 85.1555C6.98977 85.3847 7.38129 85.6749 7.17844 86.0867C7.2287 86.8855 7.12489 87.6242 7.19666 88.4252C7.19984 88.4612 7.30911 88.5751 7.30762 88.6598C7.3052 88.7855 7.25413 88.8545 7.25077 88.9443C7.23538 89.3204 7.27908 89.6646 7.27228 90.0273C7.26981 90.165 7.21701 90.1169 7.21405 90.2811C7.21115 90.4452 7.28069 90.5546 7.24711 90.777C7.22151 90.945 7.07938 91.1129 7.06281 91.3359C7.20301 91.3444 7.20012 91.4975 7.23713 91.7697C7.24431 91.822 7.2931 91.7659 7.29902 91.7906C7.32416 91.8914 7.28372 91.9846 7.3111 92.0802C7.31768 92.1035 7.36555 92.1046 7.37363 92.1236C7.44414 92.2853 7.33644 92.5517 7.31769 92.5975C7.24648 92.7729 7.30875 92.8548 7.2807 92.9893C7.25267 93.1236 7.21761 92.9228 7.2006 93.0797C7.1654 93.4049 7.17313 93.8227 7.17093 94.153C7.17035 94.2847 7.23426 94.1948 7.23566 94.2137C7.25187 94.4862 7.18389 94.7617 7.31119 94.9128C6.98203 95.1017 7.34312 95.0771 7.27723 95.4666C7.2719 95.4973 7.11624 95.5363 7.09339 95.4185C7.07056 95.3008 7.11921 95.1221 7.08359 94.9587C7.07523 94.92 6.92937 94.6983 6.92054 94.6681C6.85149 94.4311 7.08409 94.3976 7.09687 94.385C7.23474 94.2429 7.0776 93.972 7.06675 93.9006C7.017 93.5743 7.04971 93.297 7.0142 93.024C6.99124 92.8455 6.83888 92.828 6.84354 92.6879C6.85896 92.2218 7.07151 92.0592 6.88721 91.62C6.84791 91.5259 6.68137 91.6194 6.81232 91.282C6.82058 91.2608 6.94037 91.0103 6.8646 90.8656C6.85505 90.8474 6.80651 90.848 6.80243 90.824C6.77606 90.6634 6.81473 90.5562 6.79621 90.3812C6.77769 90.2062 6.75009 89.9958 6.76655 89.796C6.77639 89.6756 6.86681 89.521 6.88895 89.4634C6.95273 89.3006 6.84816 89.1261 6.92539 89.0253C7.00301 88.9236 7.12088 89.1224 7.17103 88.8557C7.04493 88.8459 6.91551 88.8232 6.7887 88.8073C6.79314 88.2229 6.83391 87.648 6.82834 87.0617C6.82753 86.989 6.75974 87.0633 6.75712 86.9854C6.74635 86.6566 6.79467 86.3695 6.77543 86.0285C6.76027 85.7646 6.6885 85.4752 6.67042 85.1993C6.8147 85.0307 6.76572 84.6212 6.77891 84.3238C6.78346 84.2196 6.822 84.2265 6.83457 84.1524C6.88107 83.8728 6.75356 84.0039 6.7335 83.9272C6.64786 83.5984 6.93646 83.5702 6.92933 83.1825C6.92905 83.162 6.77521 82.9109 6.76563 82.8764C6.70316 82.6566 6.81918 82.84 6.83054 82.7025C6.85131 82.4514 6.88805 82.277 6.84299 81.9824C6.82965 81.8965 6.73376 81.6905 6.80793 81.5237C6.81764 81.5017 6.86849 81.5139 6.87147 81.4962C6.9211 81.1765 6.76133 81.1681 6.70722 80.9854C6.65312 80.8027 6.76341 80.5205 6.7952 80.4631C6.87744 80.3128 6.83035 80.5782 6.83842 80.5863C6.93445 80.6819 6.91792 80.4761 6.92603 80.3188C7.08269 80.2961 7.07329 80.0762 6.93381 80.1558C6.91858 80.1649 6.93319 80.2873 6.92603 80.3188C6.77233 80.1808 6.75264 79.9391 6.89628 79.6721C6.96359 79.5472 7.04209 79.6653 7.01337 79.2857C7.00041 79.1134 6.89254 79.18 6.86313 79.028C6.79604 78.6806 6.89666 78.2293 6.8808 77.8712C6.87505 77.7413 6.816 77.8678 6.81003 77.779C6.79401 77.5433 6.83831 77.3354 6.81562 77.0987C6.81349 77.0773 6.75168 77.1297 6.75089 77.0561C6.74371 76.498 6.7833 76.012 6.7844 75.4294C6.7849 75.1478 6.75081 74.6445 6.75767 74.3529C6.76918 73.8474 6.85906 73.2256 6.83722 72.7938C6.82325 72.5121 6.76143 72.5739 6.71931 72.4532C6.63766 72.2204 6.78391 71.8082 6.80655 71.7527C6.8073 71.751 6.82188 71.9933 6.85361 71.864C6.91974 71.7888 6.80684 71.7554 6.80655 71.7527C6.82118 71.7162 6.83522 71.2321 6.8234 71.136C6.81694 71.0837 6.75837 71.113 6.75611 71.0857C6.70369 70.4384 6.68881 69.7899 6.71619 69.1333C6.71738 69.1218 6.78289 69.1392 6.78486 69.112C6.81399 68.7319 6.73384 68.4885 6.68625 68.175C6.63869 67.8616 6.65462 67.613 6.7671 67.4275C6.75293 67.191 6.80266 66.8517 6.83283 66.6564C6.863 66.4612 6.73547 66.434 6.73295 66.4168C6.65225 65.8809 6.72525 65.5712 6.73661 65.0153C6.74223 64.751 6.72373 64.2267 6.70978 63.9406C6.69855 63.7144 6.72844 63.5782 6.70933 63.3698C6.70677 63.3416 6.64999 63.3701 6.6478 63.3615C6.57986 63.1289 6.71868 63.2407 6.74348 63.1927C6.83363 63.0186 6.88165 62.911 6.83924 62.6132C6.82953 62.5445 6.62965 62.3444 6.61796 62.2192C6.60313 62.0564 6.67477 62.1178 6.65742 61.9473C6.656 61.9328 6.6118 61.9358 6.61375 61.8306C6.62221 61.3422 6.64793 60.8097 6.6435 60.3022C6.64306 60.2329 6.57296 60.3218 6.57117 60.2216C6.56286 59.7516 6.56546 59.2364 6.59827 58.7785C6.60657 58.6658 6.65566 58.7365 6.67023 58.712C6.75842 58.5618 6.63029 58.3488 6.62784 58.3137C6.56627 57.4753 6.68223 56.8337 6.62702 55.9792C6.62378 55.9327 6.48641 55.5746 6.60422 55.4149C6.61206 55.404 6.73259 55.2459 6.65018 55.1062C6.64503 55.0975 6.58298 55.196 6.5893 55.0241C6.59561 54.8523 6.55417 54.5757 6.62235 54.3395C6.64383 54.2647 6.76406 54.0879 6.66822 53.8648C6.66153 53.8503 6.44482 53.5059 6.59434 53.383C6.61895 53.3631 6.77718 53.3839 6.69605 53.1176C6.68032 53.0668 6.64503 53.1591 6.62299 53.0251C6.58903 52.8198 6.63141 52.5477 6.56092 52.2953C6.54844 52.2512 6.44105 52.0639 6.52256 51.9135C6.53533 51.89 6.58815 51.9347 6.59406 51.8553C6.62242 51.4778 6.58708 51.0826 6.62363 50.6993C6.63648 50.5635 6.72187 50.633 6.74476 50.4914C6.76763 50.3499 6.78964 50.0648 6.75062 49.9167C6.71158 49.7686 6.57547 49.9304 6.56458 49.7085C6.51728 48.7438 6.59712 47.7882 6.6088 46.8249C6.61055 46.682 6.56184 46.8004 6.56092 46.5899C6.5573 45.8137 6.51163 44.4735 6.61512 43.7999C6.698 43.2603 6.76111 43.9394 6.79484 43.527C6.81093 43.328 6.65269 43.1127 6.64771 43.0647C6.59711 42.5954 6.6672 42.2692 6.6457 41.8468C6.64123 41.7596 6.5771 41.8452 6.57401 41.7709C6.56289 41.5174 6.59152 41.2509 6.58628 41.0085C6.58378 40.8998 6.5348 40.9199 6.53858 40.8198C6.54706 40.5805 6.56765 40.3689 6.61356 40.1356C6.61775 40.1143 6.67868 40.2577 6.68094 40.0806C6.68444 39.794 6.72973 39.4383 6.68296 39.1086C6.66889 39.0107 6.55694 39.0069 6.63425 38.7966C6.6504 38.7525 6.78483 38.8088 6.66868 38.5638C6.64938 38.5226 6.49271 38.1111 6.5937 37.9092C6.62027 37.8559 6.73028 37.7199 6.71299 37.6022C6.71023 37.5863 6.6501 37.6502 6.64423 37.5527C6.62461 37.2091 6.63102 36.8491 6.61219 36.4961C6.60704 36.4018 6.54482 36.5422 6.53913 36.4017C6.5234 36.0154 6.53925 35.5331 6.55872 35.1553C6.56602 35.0161 6.61757 35.1123 6.62318 35.1022C6.71441 34.9392 6.59126 34.8429 6.58408 34.7888C6.54108 34.4524 6.59893 34.1962 6.58362 33.8862C6.57956 33.8006 6.52084 33.8613 6.5156 33.8442C6.46444 33.6676 6.5699 33.7992 6.58152 33.6873C6.61443 33.3741 6.60971 33.0249 6.60221 32.7081C6.59937 32.5917 6.53128 32.7225 6.52952 32.6181C6.51778 32 6.5243 31.3574 6.56184 30.7542C6.56903 30.6407 6.62145 30.7121 6.63343 30.6884C6.71721 30.5253 6.60293 30.2862 6.59205 30.2312C6.54234 29.981 6.58871 29.8838 6.58005 29.6629C6.53697 28.5837 6.56768 27.2511 6.58665 26.2324C6.61106 24.9049 6.66094 23.8748 6.64799 22.6088C6.64723 22.5284 6.57748 22.6095 6.57593 22.5402C6.55912 21.6447 6.58637 20.7631 6.56623 19.8659C6.5647 19.7922 6.49858 19.8984 6.4939 19.7802C6.48385 19.5378 6.48744 19.2307 6.50855 18.9857C6.51872 18.8661 6.57546 19.0265 6.58454 18.9061C6.60581 18.626 6.61052 18.3256 6.59992 18.0378C6.59527 17.9154 6.52764 18.1001 6.52686 17.941C6.52015 16.8566 6.50851 15.7917 6.59608 14.6959C6.60209 14.6208 6.73953 14.5548 6.71317 14.3951C6.67503 14.3831 6.63016 14.3837 6.58939 14.3785C6.56743 12.8 6.61508 11.2375 6.62244 9.65458C6.62274 9.58784 6.54992 9.70318 6.55012 9.57397C6.55119 8.82611 6.53102 8.09989 6.6034 7.33492C6.61048 7.25902 6.73859 7.29796 6.71921 7.07429C6.71568 7.03484 6.69859 6.69796 6.67078 6.61086C6.66659 6.59903 6.60679 6.66049 6.60505 6.55194C6.59597 5.9211 6.60962 5.26002 6.64615 4.63027C6.65217 4.52863 6.71584 4.63687 6.72068 4.56448C6.75448 4.05098 6.70607 3.49244 6.76389 3.00177C6.80282 2.67333 6.9129 2.79493 7.02125 2.6204C7.03653 2.59571 7.03895 2.39234 7.10199 2.38182C7.26051 2.35482 7.43409 2.45333 7.60306 2.41291C7.63946 2.40437 7.60026 2.13199 7.6882 2.29325C7.69409 2.30452 7.72328 2.50199 7.75312 2.55063C7.77374 2.5845 7.83785 2.52347 7.86426 2.59257C7.89064 2.66165 7.8369 2.73757 7.86792 2.85211C7.89933 2.96661 7.97226 2.91626 7.9809 3.14492ZM6.96769 65.7773C7.02893 65.5965 6.80461 65.5698 6.85828 65.7654C6.86114 65.7748 6.96468 65.7866 6.96769 65.7773ZM7.00312 87.6513C7.10206 87.4149 6.95658 87.2532 6.88016 87.4199C6.80383 87.5866 6.97312 87.7233 7.00312 87.6513ZM7.07535 90.1021C7.15336 89.8259 6.83527 89.7824 6.89957 90.0783C6.90321 90.0955 7.07082 90.1183 7.07535 90.1021ZM7.0521 3.42977C7.05508 3.42727 7.05798 3.28108 7.05503 3.27758C6.98378 3.19974 6.97803 3.49207 7.0521 3.42977ZM7.154 92.5342C7.19703 92.448 7.14735 92.1997 7.09385 92.3068C7.0508 92.3931 7.10047 92.6416 7.154 92.5342ZM7.2071 56.3465C7.21044 56.3436 7.21345 56.2388 7.19455 56.2409C7.1337 56.248 7.15087 56.3939 7.2071 56.3465ZM7.15766 96.6678C7.16963 96.0571 7.43239 95.6868 7.40274 96.3519C7.39738 96.4723 7.31895 96.0923 7.29526 96.2456C7.2521 96.5261 7.41709 96.7124 7.32868 96.9986C7.3125 97.0504 7.15639 96.7027 7.15729 96.6667C7.15741 96.6671 7.15754 96.6675 7.15766 96.6678ZM7.23713 65.6732C7.24009 65.6696 7.2429 65.5245 7.23996 65.521C7.16875 65.4424 7.16304 65.7347 7.23713 65.6732ZM7.3458 50.2304C7.35212 50.2224 7.35803 49.8857 7.35221 49.8747C7.23575 49.6991 7.22345 50.3798 7.3458 50.2304ZM7.40128 75.4449C7.47292 75.6032 7.48136 75.7926 7.39139 75.9188C7.39617 75.7615 7.39687 75.6031 7.40128 75.4449Z" fill="black"/>
</svg>
