<svg width="15" height="94" viewBox="0 0 15 94" fill="none" xmlns="http://www.w3.org/2000/svg">
<path d="M2.25784 0.00762737C3.44583 -0.0119122 5.00309 0.00898027 6.18659 0.0376565C6.55749 0.0465505 6.36968 0.0863066 6.62572 0.094236C7.12649 0.109694 7.59302 0.0901957 8.08788 0.10861C8.25188 0.114907 8.04774 0.177881 8.2197 0.183042C9.16205 0.210873 10.0535 0.194832 11.0082 0.208219C12.0883 0.22339 13.1642 0.236324 14.2385 0.247595L14.7374 0.244066L14.7409 0.75C14.7031 4.3525 14.684 7.93716 14.6619 11.6034C14.6525 13.1728 14.5954 15.0806 14.6204 16.7016C14.6233 16.8908 14.6786 16.778 14.6832 16.814C14.7529 17.3787 14.6413 17.1909 14.6265 17.5597C14.568 19.023 14.5629 20.6503 14.5842 22.0585C14.5934 22.6577 14.7032 22.057 14.6416 22.6602C14.6374 22.7021 14.5787 22.5501 14.5725 22.7144C14.5584 23.087 14.5689 23.794 14.5642 24.0828C14.555 24.6393 14.5556 24.7314 14.5549 25.2578C14.5535 25.9775 14.5243 26.8334 14.5376 27.6055C14.5406 27.7703 14.6008 27.5522 14.611 27.815C14.6212 28.0781 14.6161 28.774 14.602 29.0087C14.5878 29.2434 14.5405 29.1434 14.5296 29.185C14.4381 29.5266 14.5649 30.3317 14.568 30.4352C14.6214 32.3238 14.5492 33.9434 14.5494 35.7162C14.5497 37.062 14.5736 38.501 14.5703 39.7816C14.5662 41.3072 14.5336 42.6002 14.5392 44.0824C14.5397 44.2388 14.6104 44.0555 14.6112 44.2465C14.6194 46.2762 14.6117 48.2918 14.564 50.3127C14.5591 50.5154 14.497 50.2542 14.4884 50.4567C14.4374 51.6964 14.3148 53.658 14.5852 54.3943C14.5746 55.2341 14.5637 56.2536 14.5092 57.0048C14.4741 57.4892 14.4065 57.0188 14.4353 57.6138C14.4418 57.748 14.501 57.5735 14.5062 57.7747C14.5279 58.6221 14.5086 59.5478 14.5392 60.3861C14.5456 60.5566 14.5987 60.51 14.6083 60.5583C14.6857 60.9644 14.5577 61.6402 14.5484 61.7876C14.479 62.9096 14.5063 63.729 14.5046 64.7742C14.5042 65.0167 14.5755 64.7301 14.5777 64.9634C14.5879 66.1739 14.5818 67.4279 14.5501 68.6132C14.5429 68.8768 14.4822 68.6344 14.4756 68.7604C14.4475 69.3159 14.5622 69.439 14.5374 69.9718C14.5323 70.0841 14.4803 70.0209 14.4746 70.0414C14.3849 70.362 14.512 70.6406 14.5148 70.7231C14.5531 71.7664 14.4205 72.4333 14.4393 73.4412C14.4417 73.5618 14.5075 73.2899 14.5101 73.6288C14.5283 75.8869 14.5102 78.2751 14.4576 80.5102C14.4495 80.8577 14.4001 80.6097 14.394 80.6315C14.2987 80.988 14.4263 81.2186 14.4311 81.3319C14.4657 82.2258 14.3587 83.0609 14.5107 83.6683C14.4684 86.7061 14.515 89.7327 14.4647 92.75L14.4663 92.9745L14.2385 92.9762C13.4955 92.9638 12.7531 92.9455 12.0112 92.9186C11.9634 92.917 12.049 92.8542 11.9537 92.8513C10.8069 92.816 11.0272 92.9137 10.2684 93.0331C10.0772 93.0631 9.49574 92.9189 9.44428 92.9084C9.25684 92.8694 9.45126 92.7759 9.38848 92.7684C8.86908 92.7091 8.95372 93.0183 8.25304 93.0184C8.23112 93.0179 8.32316 92.961 8.26437 92.9553C8.08167 92.9376 7.90049 92.9602 7.72172 92.9406C7.31253 92.8953 7.16678 92.745 6.5418 92.8325C6.4627 92.8438 6.5835 93.0192 5.9579 93.0109C5.70852 93.0074 4.60458 93.0105 4.29518 92.9991C3.98616 92.9877 4.19834 92.9312 4.1763 92.9288C3.34368 92.854 3.65939 92.8231 3.24223 92.7124C2.82512 92.6022 2.94079 92.8651 2.77075 92.8944C2.60041 92.9237 1.98994 92.862 1.83991 92.8406C1.68998 92.8192 1.87699 92.7833 1.74368 92.7711C0.859636 92.6918 1.35564 92.9016 1.06435 92.9433C0.767288 92.9861 0.498643 92.9738 0.238525 92.9447L0.0452585 92.946L0.0438716 92.75C0.0821559 92.4088 0.149617 92.0822 0.160457 91.7255C0.165616 91.5554 0.121214 91.6942 0.117061 91.5427C0.101203 90.9428 0.162035 90.5819 0.106258 89.8994C0.0971691 89.7877 -0.0200437 89.236 0.0659752 88.8788C0.0783789 88.8282 0.126961 88.972 0.137844 88.7162C0.154176 88.3343 0.164795 87.6461 0.148555 87.2355C0.136541 86.9324 0.056488 87.2798 0.081356 86.8982C0.09246 86.7287 0.139291 87.043 0.156246 86.7244C0.173195 86.4075 0.171138 85.5972 0.169521 85.2889C0.167868 84.9811 0.107145 85.1496 0.103054 85.1247C0.0796199 84.9742 0.050339 84.3836 0.0504113 84.3314C0.0429984 81.6987 0.145354 79.2709 0.111477 76.7076C0.108906 76.5064 0.0448718 76.6404 0.0438195 76.6097C0.0169905 75.9211 0.187242 76.464 0.244228 75.983C0.114284 76.0525 0.137813 75.7685 0.123562 75.2834C0.116589 75.0497 0.0662736 75.177 0.0611229 75.1557C-0.0152999 74.809 0.0834102 74.5676 0.103603 74.5055C0.177884 74.2759 0.0901162 74.026 0.139766 73.8698C0.189046 73.7137 0.262101 74.073 0.261165 73.6078C0.214649 73.4773 0.0930919 73.8227 0.0733909 73.4695C-0.00112879 72.1368 0.0942454 69.6491 0.104153 68.5776C0.114051 67.5082 0.105469 67.1628 0.12228 66.5396C0.152675 65.414 0.0624876 65.8265 0.021206 65.1276C-0.0200707 64.4266 0.201834 64.7674 0.249538 64.6666C0.29722 64.5677 0.248136 64.4597 0.274349 64.3366C0.300555 64.214 0.332989 64.4795 0.34283 64.1911C0.35266 63.9025 0.267832 63.1135 0.217952 63.0112C0.112279 62.7949 0.00137079 63.1505 0.0403405 62.3868C0.0426532 62.3429 0.101002 62.4855 0.106899 62.3173C0.151818 60.9816 0.154603 59.594 0.194332 58.2599C0.199886 58.0765 0.264797 58.2405 0.268764 58.1338C0.310282 57.0219 0.200834 57.4193 0.0792503 56.8099C0.241052 56.9468 0.340043 56.6097 0.340999 55.7659C0.34163 55.2586 0.270963 55.3459 0.221157 55.0178C0.206142 54.9194 0.254665 54.5604 0.221431 54.4954C0.112795 54.2809 -0.00881629 54.619 0.0396081 53.7489C0.0419094 53.7108 0.101375 53.8323 0.104977 53.7004C0.128549 52.8478 0.0149172 52.7458 0.00115603 51.8242C-0.00964174 51.1018 0.0596496 49.817 0.070919 48.9945C0.252831 49.0118 0.211176 48.2348 0.0857505 47.9197C0.0908854 47.3859 0.0837949 46.8093 0.101131 46.2934C0.107042 46.1158 0.15971 46.2325 0.165401 46.2101C0.254673 45.8667 0.132649 45.6346 0.127865 45.5194C0.0813616 44.2706 0.173846 43.2531 0.0834617 42.0613C0.0802063 42.0191 -0.0461555 41.9505 0.0461083 41.6319C0.0524682 41.6113 0.109961 42.0049 0.114406 41.4443C0.118862 40.8835 0.186601 39.8265 0.128048 39.0481C0.113951 38.8597 0.0113711 38.3832 0.0915183 38.0008C0.102402 37.9498 0.138643 38.0056 0.158809 37.932C0.223069 37.6943 0.0953482 37.5645 0.203853 37.285C0.312353 37.0056 0.393612 36.4244 0.318751 35.6393C0.316575 35.6143 0.215344 35.4285 0.216945 35.1816C0.219587 34.7875 0.240676 34.228 0.240016 33.8165C0.239664 33.6194 0.176805 33.7455 0.175655 33.7113C0.140431 32.3865 0.19647 31.4436 0.22079 30.0244C0.225373 29.7642 0.139655 29.0166 0.207424 28.5129C0.281609 27.9598 0.59021 28.5282 0.516688 27.257C0.487281 26.7442 0.0957651 26.0951 0.29861 25.1737C0.248346 23.3867 0.352162 21.7341 0.280391 19.9421C0.277211 19.8615 0.167942 19.6067 0.169429 19.4172C0.171849 19.136 0.222919 18.9816 0.226283 18.7808C0.241667 17.9393 0.197972 17.1692 0.204769 16.3579C0.207238 16.0498 0.260045 16.1575 0.262996 15.7901C0.265898 15.423 0.196362 15.1781 0.229946 14.6806C0.255544 14.3048 0.397674 13.9291 0.414241 13.4303C0.274045 13.4113 0.276933 13.0687 0.239925 12.4598C0.232744 12.3428 0.183949 12.4683 0.178035 12.4129C0.152886 12.1876 0.193327 11.9791 0.16595 11.7652C0.159375 11.7131 0.111498 11.7107 0.10342 11.6681C0.0329115 11.3063 0.140607 10.7103 0.159359 10.6079C0.230573 10.2155 0.168302 10.0322 0.196346 9.73124C0.224386 9.43078 0.259438 9.88003 0.276454 9.52906C0.311649 8.80156 0.303917 7.86683 0.306117 7.12797C0.3067 6.83318 0.24279 7.0343 0.24139 6.99211C0.22518 6.38251 0.293162 5.76606 0.165859 5.42805C0.495016 5.00538 0.133932 5.06045 0.199825 4.1891C0.205154 4.12045 0.36081 4.03315 0.383662 4.29665C0.406492 4.56017 0.357837 4.95973 0.393458 5.32535C0.401818 5.41192 0.547678 5.90789 0.556513 5.97556C0.625566 6.50562 0.392959 6.58073 0.380183 6.60878C0.24231 6.9268 0.399446 7.53286 0.410304 7.69246C0.460055 8.4226 0.427343 9.04291 0.462855 9.6536C0.485807 10.053 0.638173 10.0921 0.633509 10.4057C0.618094 11.4483 0.405542 11.8122 0.589838 12.7947C0.629145 13.0053 0.795677 12.796 0.664728 13.5508C0.656473 13.5982 0.536679 14.1587 0.612452 14.4825C0.622006 14.5231 0.670539 14.5218 0.674616 14.5755C0.700988 14.9349 0.662323 15.1746 0.680841 15.5661C0.699359 15.9576 0.726966 16.4284 0.710504 16.8755C0.700661 17.1448 0.610237 17.4905 0.588099 17.6195C0.524325 17.9836 0.628887 18.374 0.551661 18.5996C0.474046 18.8271 0.356175 18.3824 0.306026 18.9789C0.432119 19.001 0.56154 19.0518 0.688349 19.0873C0.683909 20.3946 0.643136 21.6809 0.648706 22.9926C0.649523 23.1552 0.717311 22.9889 0.719934 23.1632C0.730703 23.8987 0.68238 24.5412 0.701624 25.3039C0.716779 25.8943 0.788552 26.5417 0.806634 27.1591C0.662349 27.5362 0.71133 28.4523 0.698145 29.1178C0.693589 29.3509 0.655053 29.3354 0.642481 29.5011C0.595985 30.1266 0.723489 29.8335 0.743555 30.005C0.829192 30.7406 0.540593 30.8036 0.547724 31.6709C0.548004 31.7169 0.70184 32.2786 0.71142 32.3559C0.773888 32.8475 0.657876 32.4373 0.646509 32.7449C0.625738 33.3066 0.588999 33.6969 0.634058 34.3559C0.647404 34.548 0.743289 35.009 0.669123 35.3821C0.659411 35.4312 0.608563 35.4041 0.605585 35.4436C0.555947 36.1588 0.715719 36.1776 0.76983 36.5863C0.823929 36.9951 0.713636 37.6264 0.681848 37.7549C0.599615 38.091 0.646705 37.4973 0.638636 37.4791C0.542601 37.2653 0.559135 37.7258 0.55102 38.0776C0.394362 38.1285 0.403765 38.6205 0.543238 38.4423C0.558472 38.4221 0.543863 38.1482 0.55102 38.0776C0.704723 38.3864 0.724408 38.9271 0.580775 39.5244C0.513456 39.804 0.434965 39.5397 0.463679 40.3889C0.476641 40.7743 0.584508 40.6254 0.613917 40.9655C0.681015 41.7426 0.580393 42.7523 0.596247 43.5534C0.602003 43.8442 0.661049 43.5609 0.667017 43.7596C0.683041 44.287 0.638737 44.752 0.661432 45.2817C0.663563 45.3296 0.725372 45.2124 0.72616 45.3771C0.733338 46.6256 0.693749 47.7127 0.692652 49.0163C0.69215 49.6461 0.726239 50.7722 0.719385 51.4247C0.707871 52.5555 0.617992 53.9466 0.639826 54.9127C0.653802 55.5427 0.715624 55.4045 0.757745 55.6745C0.839394 56.1954 0.693142 57.1176 0.670496 57.2418C0.669746 57.2456 0.655173 56.7034 0.623438 56.9927C0.557314 57.1609 0.670209 57.2356 0.670496 57.2418C0.655866 57.3233 0.641832 58.4064 0.65365 58.6214C0.660109 58.7383 0.718681 58.6729 0.720941 58.7339C0.773358 60.1821 0.788245 61.6329 0.760858 63.1017C0.759675 63.1276 0.694158 63.0886 0.692194 63.1495C0.663063 63.9998 0.743211 64.5443 0.790796 65.2456C0.838359 65.9469 0.822429 66.503 0.709955 66.9181C0.724116 67.4472 0.674392 68.2062 0.64422 68.6431C0.614049 69.0799 0.741583 69.1408 0.744104 69.1792C0.824801 70.378 0.751803 71.071 0.740442 72.3146C0.734822 72.9059 0.753321 74.0788 0.767267 74.719C0.778502 75.2249 0.748614 75.5297 0.767725 75.9959C0.770277 76.059 0.827062 75.9953 0.829248 76.0145C0.897187 76.5348 0.758368 76.2848 0.733576 76.3922C0.643416 76.7817 0.595398 77.0223 0.637812 77.6886C0.647525 77.8423 0.847405 78.2899 0.859094 78.5701C0.873925 78.9343 0.80228 78.7968 0.819635 79.1782C0.821054 79.2109 0.865254 79.2041 0.863305 79.4394C0.85484 80.5321 0.829121 81.7233 0.833551 82.8587C0.833986 83.0138 0.904094 82.815 0.905877 83.039C0.914188 84.0905 0.911593 85.2431 0.878778 86.2674C0.87048 86.5196 0.821393 86.3615 0.806818 86.4163C0.718629 86.7523 0.846765 87.2288 0.849206 87.3075C0.910782 89.1831 0.794821 90.6185 0.85003 92.5302C0.85092 92.5587 0.861929 92.6399 0.87499 92.75L0.238525 92.1135C0.529286 92.079 1.02189 92.0303 1.28109 92.1157C1.30555 92.1235 1.65912 92.2441 1.97174 92.1617C1.99116 92.1565 1.77085 92.0945 2.15531 92.1008C2.53978 92.1071 3.15854 92.0657 3.68702 92.1338C3.85434 92.1553 4.24979 92.2755 4.74887 92.1797C4.78139 92.173 5.55188 91.9563 5.82689 92.1058C5.87147 92.1304 5.82481 92.2887 6.42049 92.2075C6.53429 92.1918 6.32769 92.1565 6.62752 92.1345C7.08691 92.1005 7.6956 92.1429 8.26032 92.0724C8.35881 92.0599 8.77804 91.9525 9.11433 92.034C9.167 92.0468 9.06693 92.0996 9.24453 92.1055C10.089 92.1339 10.9733 92.0986 11.8308 92.1351C12.1345 92.1479 11.9792 92.2333 12.2958 92.2562C12.6125 92.2791 13.2504 92.3011 13.5817 92.2621C13.9131 92.2231 13.5511 92.0869 14.0475 92.0761C14.1112 92.0747 14.1749 92.0734 14.2385 92.0722L13.5607 92.75C13.5219 90.6566 13.5975 88.5813 13.6088 86.4899C13.6105 86.1703 13.5618 86.4352 13.5609 85.9642C13.5573 84.2276 13.5116 81.2294 13.6151 79.7225C13.698 78.5152 13.7611 80.0345 13.7948 79.1119C13.8109 78.6667 13.6527 78.1851 13.6477 78.0776C13.5971 77.0277 13.6672 76.298 13.6457 75.353C13.6412 75.1579 13.5771 75.3493 13.574 75.1832C13.5629 74.6159 13.5915 74.0197 13.5863 73.4776C13.5838 73.2344 13.5348 73.2792 13.5386 73.0555C13.5471 72.52 13.5677 72.0465 13.6136 71.5246C13.6177 71.477 13.6787 71.7978 13.6809 71.4016C13.6844 70.7605 13.7297 69.9647 13.683 69.227C13.6689 69.0081 13.5569 68.9995 13.6343 68.5291C13.6504 68.4304 13.7848 68.5563 13.6687 68.0083C13.6494 67.9161 13.4927 66.9955 13.5937 66.5437C13.6203 66.4245 13.7303 66.1203 13.713 65.8571C13.7102 65.8214 13.6501 65.9644 13.6442 65.7463C13.6246 64.9776 13.631 64.1721 13.6122 63.3824C13.607 63.1715 13.5448 63.4856 13.5391 63.1713C13.5234 62.307 13.5392 61.228 13.5587 60.3829C13.566 60.0713 13.6176 60.2866 13.6232 60.264C13.7144 59.8994 13.5913 59.6838 13.5841 59.5628C13.5411 58.8102 13.5989 58.2372 13.5836 57.5434C13.5796 57.352 13.5208 57.4878 13.5156 57.4496C13.4644 57.0544 13.5699 57.3488 13.5815 57.0987C13.6144 56.3978 13.6097 55.6166 13.6022 54.9078C13.5994 54.6475 13.5313 54.9401 13.5295 54.7065C13.5178 53.3237 13.5243 51.8862 13.5618 50.5367C13.569 50.2826 13.6215 50.4425 13.6334 50.3895C13.7172 50.0245 13.6029 49.4896 13.592 49.3665C13.5423 48.8068 13.5887 48.5895 13.5801 48.0952C13.537 45.6808 13.5677 42.6996 13.5866 40.4205C13.6111 37.4506 13.6609 35.146 13.648 32.3139C13.6472 32.1339 13.5775 32.3154 13.5759 32.1602C13.5591 30.1569 13.5864 28.1847 13.5662 26.1773C13.5647 26.0126 13.4986 26.2501 13.4939 25.9857C13.4838 25.4434 13.4874 24.7564 13.5086 24.2081C13.5187 23.9407 13.5755 24.2994 13.5845 24.0302C13.6058 23.4034 13.6105 22.7315 13.5999 22.0877C13.5953 21.8137 13.5276 22.2271 13.5269 21.8709C13.5202 19.445 13.5085 17.0625 13.5961 14.6111C13.6021 14.443 13.7395 14.2955 13.7132 13.9382C13.675 13.9113 13.6302 13.9128 13.5894 13.901C13.5674 10.3695 13.6151 6.8741 13.6224 3.3327C13.6227 3.18338 13.5499 3.44143 13.5501 3.15235C13.5506 2.34536 13.5462 1.54963 13.5496 0.75L14.2385 1.43891C13.3803 1.43526 12.5176 1.42259 11.6317 1.38513C11.4619 1.37805 11.549 1.24994 11.0486 1.26931C10.9603 1.27285 10.2067 1.28993 10.0118 1.31774C9.98536 1.32194 10.1229 1.38173 9.88 1.38348C8.46869 1.39256 6.98972 1.37891 5.58086 1.34237C5.35348 1.33636 5.59562 1.27268 5.43367 1.26785C4.28488 1.23404 3.03531 1.28245 1.93758 1.22463C1.2028 1.1857 1.47484 1.07563 1.08439 0.96728C1.02916 0.951993 0.574164 0.949571 0.550634 0.886531C0.490227 0.72801 0.710614 0.554432 0.620184 0.385464C0.601079 0.34907 -0.00828208 0.388269 0.352498 0.300321C0.377703 0.294434 0.819492 0.265245 0.928305 0.23541C1.00406 0.214782 0.867544 0.15067 1.02212 0.124265C1.17668 0.0978846 1.34652 0.151627 1.60278 0.120603C1.85892 0.0891954 1.74629 0.016261 2.25784 0.00762737ZM0.509364 70.6099C0.448117 71.0143 0.672438 71.074 0.618769 70.6366C0.615908 70.6154 0.512368 70.589 0.509364 70.6099ZM0.473933 21.6736C0.374992 22.2023 0.520475 22.5642 0.596888 22.1911C0.673219 21.8182 0.503926 21.5125 0.473933 21.6736ZM0.401698 16.1905C0.323687 16.8085 0.641783 16.9057 0.577479 16.2438C0.573845 16.2054 0.406228 16.1543 0.401698 16.1905ZM2.89511 0.936427C2.88952 0.933448 2.56245 0.930545 2.55464 0.933497C2.38048 1.00474 3.03448 1.0105 2.89511 0.936427ZM0.323054 10.7494C0.280025 10.9423 0.329697 11.4978 0.383204 11.2581C0.426249 11.0651 0.376581 10.5091 0.323054 10.7494ZM0.269954 91.7085C0.266611 91.7149 0.263601 91.9494 0.282497 91.9446C0.343355 91.9287 0.326179 91.6024 0.269954 91.7085ZM0.319392 1.50173C0.307419 2.86803 0.0446562 3.69643 0.0743064 2.20855C0.079671 1.93909 0.158099 2.78927 0.181789 2.44631C0.224948 1.8188 0.0599647 1.4021 0.148372 0.761751C0.164554 0.645824 0.320659 1.42378 0.319759 1.50416C0.319636 1.50335 0.319514 1.50254 0.319392 1.50173ZM0.239925 70.8428C0.236959 70.8509 0.234146 71.1755 0.237087 71.1833C0.308302 71.359 0.31401 70.7051 0.239925 70.8428ZM12.8797 92.8573C12.8976 92.8636 13.6509 92.8695 13.6755 92.8637C14.0685 92.7472 12.5455 92.7349 12.8797 92.8573ZM0.0757713 48.9815C0.00412792 48.6273 -0.00430728 48.2036 0.0856589 47.9213C0.0808831 48.2733 0.0801795 48.6276 0.0757713 48.9815Z" fill="black"/>
<path d="M1.35283 43.8846C1.42007 43.865 1.50822 43.8859 1.57521 43.9146C1.5962 43.9235 1.58557 43.9633 1.60006 43.9712C1.62841 43.9866 1.65482 43.9671 1.68283 43.9856C1.69211 43.9919 1.68056 44.0548 1.69029 44.06C1.74363 44.0878 1.79409 44.0718 1.84813 44.0852C2.11428 44.1512 2.37591 44.1748 2.64532 44.2035C2.73416 44.2129 2.84214 44.2701 2.9339 44.2451C2.94461 44.2421 2.93822 44.1869 2.94026 44.1823C2.97223 44.1126 2.9616 44.2241 2.98247 44.239C3.0653 44.2975 3.15741 44.3026 3.23712 44.2813C3.27104 44.272 3.23703 44.1622 3.27118 44.2239C3.27355 44.228 3.26495 44.2867 3.27425 44.293C3.29534 44.3071 3.33535 44.2966 3.3517 44.3012C3.3832 44.3105 3.38842 44.3099 3.41821 44.3106C3.45895 44.312 3.5074 44.3412 3.5511 44.3279C3.56043 44.3249 3.54808 44.2647 3.56296 44.2544C3.57785 44.2442 3.61724 44.2493 3.63053 44.2635C3.64381 44.2777 3.63815 44.325 3.6405 44.3358C3.65985 44.4273 3.70541 44.3006 3.71128 44.2975C3.81818 44.2441 3.90985 44.3163 4.0102 44.3161C4.08637 44.3158 4.16783 44.2919 4.24031 44.2952C4.32667 44.2993 4.39986 44.3319 4.48375 44.3263C4.49261 44.3258 4.48223 44.255 4.49305 44.2543C4.60793 44.246 4.72202 44.2537 4.83641 44.3015C4.84789 44.3064 4.8331 44.3685 4.84456 44.377C4.91474 44.4281 5.02577 44.5507 5.06745 44.2803C5.11498 44.2908 5.17269 44.3017 5.21521 44.3563C5.24263 44.3913 5.216 44.459 5.24968 44.4301C5.25728 44.4237 5.2474 44.3644 5.25879 44.3593C5.30676 44.3376 5.35916 44.3568 5.40661 44.3262C5.41626 44.3199 5.41362 44.2668 5.41636 44.2572C5.43934 44.1798 5.4776 44.3078 5.48594 44.3171C5.54945 44.3864 5.59583 44.3591 5.65499 44.3608C5.66872 44.3613 5.65249 44.2899 5.6657 44.2878C5.73422 44.2775 5.8052 44.2837 5.87229 44.3153C5.88721 44.3225 5.87349 44.3833 5.88062 44.3899C5.91207 44.418 5.91904 44.3033 5.94919 44.3281C5.95555 44.3331 5.95197 44.3851 5.95313 44.3909C5.97128 44.4805 5.98705 44.3535 5.99172 44.3507C6.05078 44.3123 6.08852 44.445 6.14558 44.4262C6.1524 44.4238 6.13701 44.358 6.1562 44.3553C6.28401 44.3372 6.41919 44.3552 6.54571 44.4079C6.56538 44.416 6.55134 44.4654 6.55257 44.4715C6.57275 44.5667 6.5858 44.4391 6.59222 44.4343C6.64282 44.3998 6.69008 44.5068 6.72446 44.3548C6.93876 44.4075 7.15208 44.3222 7.3646 44.4583C7.3673 44.4599 7.36246 44.5227 7.36785 44.5256C7.43277 44.5609 7.4203 44.4632 7.46325 44.3438C7.47407 44.3138 7.50698 44.458 7.5099 44.4686C7.52051 44.5075 7.5095 44.601 7.51306 44.6086C7.54246 44.6678 7.53766 44.3586 7.57733 44.3585C7.57857 44.3591 7.57336 44.416 7.57669 44.4216C7.58703 44.4394 7.59728 44.4168 7.6074 44.4364C7.63056 44.4817 7.63881 44.6319 7.67419 44.5445C7.67867 44.5331 7.67183 44.3578 7.70724 44.366C7.72136 44.3695 7.78384 44.3665 7.80136 44.3779C7.81885 44.3892 7.80684 44.4457 7.80809 44.4482C7.85522 44.5229 7.83734 44.5539 7.86096 44.6645C7.88457 44.7747 7.87802 44.5118 7.88764 44.4825C7.89729 44.4532 7.93184 44.5149 7.94033 44.5363C7.94882 44.5578 7.93824 44.5937 7.94578 44.6058C7.99582 44.6851 7.96774 44.4753 7.98423 44.4336C8.02311 44.3348 8.05338 44.5298 8.08897 44.5489C8.0986 44.554 8.09074 44.5096 8.09931 44.5055C8.13327 44.4896 8.1537 44.5505 8.19233 44.4947C8.19865 44.4856 8.22989 44.3684 8.2501 44.4544C8.25297 44.4668 8.24483 44.5154 8.2593 44.5263C8.28092 44.5426 8.31988 44.5532 8.34312 44.537C8.36028 44.525 8.34061 44.4449 8.36221 44.4698C8.37181 44.4809 8.35402 44.5277 8.37205 44.5447C8.38999 44.5616 8.43585 44.5596 8.45331 44.5579C8.47073 44.5563 8.46119 44.4956 8.4626 44.4915C8.47112 44.468 8.50455 44.4388 8.5075 44.4388C8.65653 44.4314 8.79395 44.5338 8.93904 44.4999C8.95042 44.4973 8.94284 44.4333 8.94458 44.4322C8.98356 44.4054 8.95283 44.5757 8.98005 44.6326C8.97612 44.5027 8.99219 44.5262 9.01965 44.512C9.03288 44.505 9.02568 44.4547 9.02688 44.4495C9.0465 44.3731 9.06017 44.4718 9.06369 44.492C9.07668 44.5663 9.09083 44.4785 9.09967 44.5282C9.10851 44.5775 9.08817 44.6505 9.1145 44.6496C9.12188 44.6031 9.10233 44.4815 9.12233 44.4618C9.19776 44.3873 9.33858 44.4827 9.39923 44.4926C9.45976 44.5025 9.47931 44.4939 9.51459 44.5107C9.5783 44.5411 9.55495 44.4509 9.59451 44.4096C9.63419 44.3683 9.6149 44.5903 9.6206 44.638C9.6262 44.6856 9.63232 44.6366 9.63928 44.6628C9.64622 44.689 9.6312 44.7214 9.64752 44.7313C9.66386 44.7411 9.70852 44.6562 9.71431 44.6064C9.72655 44.5007 9.70642 44.3898 9.74965 44.4288C9.75213 44.4311 9.74407 44.4894 9.75358 44.4953C9.82919 44.5402 9.90773 44.543 9.98325 44.5828C9.99363 44.5883 9.98435 44.6532 9.99039 44.6572C10.0533 44.6987 10.0308 44.5893 10.0653 44.4677C10.0576 44.6295 10.0767 44.7285 10.1244 44.7294C10.1531 44.73 10.1482 44.6594 10.1668 44.6096C10.1723 44.5946 10.1927 44.6431 10.1963 44.6099C10.2085 44.5012 10.1893 44.3796 10.2386 44.428C10.2407 44.4303 10.2339 44.4898 10.2413 44.4934C10.2896 44.517 10.2954 44.4033 10.3475 44.3896C10.3884 44.3788 10.4611 44.4481 10.5077 44.4593C10.5067 44.6413 10.5507 44.5996 10.5685 44.4742C10.5988 44.4793 10.6314 44.4722 10.6606 44.4896C10.6707 44.4955 10.664 44.5481 10.6653 44.5538C10.6848 44.6431 10.6979 44.5211 10.7044 44.5163C10.7751 44.4698 10.8327 44.5623 10.9001 44.4719C10.9025 44.4686 10.9064 44.3423 10.9245 44.4345C10.9256 44.4409 10.9033 44.4984 10.9351 44.5028C10.9668 44.5073 11.0266 44.575 11.0707 44.5165C11.0814 44.5024 11.1083 44.3998 11.13 44.4799C11.1329 44.4908 11.1297 44.5271 11.1339 44.5472C11.1473 44.6115 11.1547 44.4838 11.1705 44.5923C11.1863 44.7008 11.2192 44.782 11.2637 44.7072C11.2651 44.705 11.2756 44.6038 11.2896 44.6054C11.3119 44.608 11.3435 44.6291 11.3668 44.6284C11.378 44.6281 11.3709 44.5652 11.3728 44.5641C11.4478 44.5289 11.5011 44.5849 11.5815 44.6092C11.5962 44.6138 11.6385 44.5281 11.667 44.5958C11.6983 44.67 11.6662 44.9786 11.7381 44.9051C11.7672 44.8757 11.8039 44.4842 11.8561 44.687C11.9572 44.6368 12.0507 44.7406 12.1522 44.6688C12.1567 44.6656 12.1712 44.5564 12.1819 44.5578C12.1978 44.5603 12.2065 44.6113 12.2179 44.6147C12.2655 44.6301 12.3091 44.5864 12.3551 44.5932C12.3725 44.5957 12.3664 44.6485 12.3872 44.6514C12.408 44.6543 12.4218 44.5848 12.45 44.6184C12.4713 44.644 12.4925 44.7861 12.5208 44.8027C12.5218 44.6625 12.5412 44.6654 12.5757 44.6283C12.5823 44.6212 12.5752 44.5724 12.5784 44.5665C12.5911 44.5413 12.6029 44.5817 12.615 44.5544C12.618 44.5478 12.6181 44.4999 12.6205 44.4918C12.641 44.4213 12.6747 44.529 12.6805 44.5478C12.7027 44.619 12.7131 44.5567 12.7302 44.5848C12.7472 44.6128 12.7217 44.6479 12.7416 44.6649C12.7828 44.7001 12.8357 44.6923 12.8775 44.6945C12.8942 44.6951 12.8828 44.6312 12.8852 44.6298C12.9197 44.6136 12.9546 44.6816 12.9737 44.5543C12.9977 44.8834 12.9945 44.5224 13.0439 44.5882C13.0477 44.5936 13.0527 44.7492 13.0378 44.7721C13.0229 44.7949 13.0002 44.7463 12.9795 44.7819C12.9746 44.7902 12.9466 44.9361 12.9427 44.9449C12.9127 45.014 12.9085 44.7814 12.9069 44.7686C12.8889 44.6307 12.8546 44.7879 12.8456 44.7987C12.8042 44.8485 12.7691 44.8158 12.7345 44.8513C12.7119 44.8742 12.7097 45.0266 12.692 45.0219C12.633 45.0065 12.6124 44.794 12.5568 44.9783C12.5448 45.0176 12.5567 45.1841 12.514 45.0531C12.5113 45.0449 12.4795 44.9251 12.4612 45.0009C12.4589 45.0104 12.459 45.059 12.456 45.063C12.4356 45.0894 12.422 45.0507 12.3999 45.0693C12.3777 45.0878 12.3511 45.1154 12.3258 45.0989C12.3105 45.0891 12.291 44.9987 12.2836 44.9765C12.263 44.9127 12.2409 45.0173 12.2282 44.9401C12.2153 44.8625 12.2405 44.7446 12.2067 44.6944C12.2055 44.8205 12.2026 44.95 12.2006 45.0768C12.1266 45.0723 12.0538 45.0316 11.9795 45.0371C11.9703 45.0379 11.9797 45.1057 11.9699 45.1084C11.9282 45.1191 11.8919 45.0708 11.8487 45.09C11.8153 45.1052 11.7786 45.177 11.7437 45.1951C11.7223 45.0508 11.6705 45.0998 11.6328 45.0866C11.6196 45.082 11.6205 45.0435 11.6111 45.0309C11.5757 44.9844 11.5923 45.1119 11.5826 45.132C11.5409 45.2176 11.5374 44.929 11.4883 44.9361C11.4857 44.9364 11.4539 45.0903 11.4495 45.0998C11.4217 45.1623 11.4449 45.0463 11.4275 45.0349C11.3957 45.0142 11.3736 44.9774 11.3363 45.0225C11.3254 45.0358 11.2993 45.1317 11.2782 45.0575C11.2754 45.0478 11.277 44.997 11.2747 44.994C11.2343 44.9444 11.2332 45.1041 11.2101 45.1582C11.1869 45.2123 11.1512 45.1021 11.1439 45.0703C11.1249 44.988 11.1585 45.0351 11.1595 45.0271C11.1716 44.931 11.1456 44.9476 11.1256 44.9394C11.1228 44.7828 11.0949 44.7922 11.105 44.9317C11.1061 44.9469 11.1216 44.9323 11.1256 44.9394C11.1082 45.0931 11.0776 45.1128 11.0437 44.9692C11.0279 44.9019 11.0429 44.8234 10.9948 44.8521C10.973 44.8651 10.9814 44.9729 10.9622 45.0023C10.9182 45.0694 10.861 44.9688 10.8157 44.9847C10.7992 44.9904 10.8153 45.0495 10.804 45.0554C10.7742 45.0715 10.7478 45.0272 10.7179 45.0499C10.7151 45.052 10.7218 45.1138 10.7125 45.1146C10.6418 45.1218 10.5803 45.0822 10.5065 45.0811C10.4708 45.0806 10.4071 45.1147 10.3701 45.1078C10.3061 45.0963 10.2274 45.0064 10.1727 45.0282C10.1371 45.0422 10.1449 45.104 10.1296 45.1462C10.1001 45.2278 10.0479 45.0816 10.0409 45.0589C10.0407 45.0582 10.0714 45.0436 10.055 45.0119C10.0455 44.9457 10.0412 45.0586 10.0409 45.0589C10.0363 45.0443 9.97496 45.0303 9.96278 45.0421C9.95617 45.0485 9.95987 45.1071 9.95642 45.1094C9.87444 45.1618 9.79232 45.1767 9.70918 45.1493C9.70772 45.1481 9.70992 45.0826 9.70648 45.0806C9.65835 45.0515 9.62753 45.1316 9.58783 45.1792C9.54814 45.2268 9.51666 45.2108 9.49316 45.0984C9.46321 45.1125 9.42025 45.0628 9.39552 45.0326C9.3708 45.0025 9.36735 45.13 9.36517 45.1325C9.29732 45.2132 9.25809 45.1402 9.1877 45.1289C9.15423 45.1232 9.08784 45.1417 9.0516 45.1557C9.02297 45.1669 9.00571 45.137 8.97932 45.1561C8.97575 45.1587 8.97936 45.2155 8.97827 45.2177C8.94882 45.2856 8.96297 45.1468 8.95689 45.122C8.93485 45.0318 8.92123 44.9838 8.88351 45.0262C8.87481 45.0359 8.84947 45.2358 8.83362 45.2475C8.813 45.2623 8.82078 45.1907 8.79919 45.2081C8.79734 45.2095 8.79773 45.2537 8.78441 45.2517C8.72256 45.2433 8.65513 45.2175 8.59086 45.222C8.58208 45.2224 8.59334 45.2925 8.58066 45.2943C8.52114 45.3026 8.4559 45.3 8.39791 45.2672C8.38364 45.2589 8.39259 45.2098 8.38949 45.1952C8.37047 45.107 8.3435 45.2352 8.33905 45.2376C8.23288 45.2992 8.15163 45.1832 8.04342 45.2384C8.03753 45.2417 7.99219 45.3791 7.97196 45.2612C7.97058 45.2534 7.95057 45.1329 7.93287 45.2153C7.93177 45.2204 7.94424 45.2825 7.92248 45.2762C7.90072 45.2699 7.86569 45.3113 7.83578 45.2431C7.82631 45.2216 7.80393 45.1014 7.77568 45.1973C7.77383 45.2039 7.73022 45.4207 7.71466 45.2711C7.71213 45.2465 7.71477 45.0883 7.68106 45.1694C7.67461 45.1851 7.68631 45.2204 7.66934 45.2425C7.64333 45.2764 7.60888 45.2341 7.57691 45.3046C7.57134 45.317 7.54761 45.4244 7.52857 45.3429C7.52559 45.3301 7.53126 45.2773 7.5212 45.2714C7.4734 45.243 7.42335 45.2784 7.37481 45.2418C7.35762 45.229 7.36641 45.1436 7.34849 45.1207C7.33057 45.0978 7.29446 45.0758 7.27571 45.1149C7.25695 45.1539 7.27744 45.29 7.24934 45.3009C7.12718 45.3482 7.00616 45.2683 6.88418 45.2567C6.86609 45.2549 6.88109 45.3036 6.85442 45.3046C6.75613 45.3082 6.58642 45.3538 6.50112 45.2504C6.43278 45.1675 6.51878 45.1044 6.46656 45.0706C6.44136 45.0545 6.4141 45.2128 6.40801 45.2178C6.34858 45.2684 6.30728 45.1983 6.25379 45.2198C6.24274 45.2242 6.25358 45.2884 6.24418 45.2915C6.21207 45.3026 6.17832 45.274 6.14764 45.2792C6.13387 45.2817 6.13641 45.3307 6.12374 45.3269C6.09343 45.3184 6.06663 45.2978 6.03709 45.2519C6.03439 45.2477 6.05255 45.1868 6.03013 45.1845C5.99384 45.181 5.94879 45.1357 5.90703 45.1825C5.89465 45.1966 5.89416 45.3085 5.86753 45.2312C5.86194 45.2151 5.86907 45.0806 5.83805 45.1968C5.83283 45.2161 5.78072 45.3728 5.75515 45.2718C5.7484 45.2452 5.73118 45.1352 5.71628 45.1525C5.71426 45.1552 5.72236 45.2154 5.71001 45.2212C5.6665 45.2409 5.62091 45.2344 5.57621 45.2533C5.56427 45.2584 5.58205 45.3207 5.56426 45.3263C5.51534 45.3421 5.45426 45.3262 5.40642 45.3067C5.38879 45.2994 5.40098 45.2479 5.39969 45.2423C5.37906 45.1511 5.36685 45.2742 5.36001 45.2814C5.31741 45.3244 5.28497 45.2665 5.2457 45.2818C5.23487 45.2859 5.24255 45.3446 5.24039 45.3499C5.21802 45.401 5.23469 45.2956 5.22052 45.284C5.18086 45.251 5.13663 45.2558 5.09652 45.2633C5.08178 45.2661 5.09834 45.3342 5.08512 45.336C5.00685 45.3477 4.92548 45.3412 4.84909 45.3036C4.83471 45.2964 4.84376 45.244 4.84076 45.232C4.8201 45.1483 4.78982 45.2625 4.78286 45.2734C4.75118 45.3231 4.73887 45.2768 4.7109 45.2854C4.57423 45.3285 4.40548 45.2978 4.27648 45.2788C4.10837 45.2544 3.97792 45.2045 3.81761 45.2175C3.80743 45.2182 3.8177 45.288 3.80892 45.2895C3.69552 45.3064 3.58388 45.2791 3.47026 45.2992C3.46094 45.3008 3.47438 45.3669 3.45941 45.3716C3.42872 45.3816 3.38983 45.378 3.3588 45.3569C3.34366 45.3467 3.36396 45.29 3.34873 45.2809C3.31325 45.2597 3.27521 45.2549 3.23877 45.2655C3.22326 45.2702 3.24666 45.3378 3.2265 45.3386C3.08919 45.3453 2.95433 45.357 2.81557 45.2694C2.80605 45.2634 2.79771 45.1259 2.77748 45.1523C2.77596 45.1904 2.77604 45.2353 2.77538 45.2761C2.57548 45.298 2.37762 45.2504 2.17717 45.243C2.16872 45.2427 2.18332 45.3156 2.16696 45.3154C2.07226 45.3143 1.98029 45.3344 1.88342 45.2621C1.87381 45.255 1.87874 45.1269 1.85042 45.1463C1.84542 45.1498 1.80276 45.1669 1.79173 45.1947C1.79023 45.1989 1.79802 45.2587 1.78427 45.2604C1.70438 45.2695 1.62067 45.2559 1.54092 45.2193C1.52805 45.2133 1.54176 45.1496 1.53259 45.1448C1.46756 45.111 1.39683 45.1594 1.3347 45.1016C1.29311 45.0626 1.30851 44.9526 1.2864 44.8442C1.28328 44.8289 1.25752 44.8265 1.25619 44.7635C1.25277 44.605 1.26525 44.4314 1.26013 44.2624C1.25905 44.226 1.22456 44.2652 1.24498 44.1773C1.2464 44.1714 1.27141 44.1422 1.27757 44.1124C1.28186 44.0917 1.27413 44.0276 1.28288 44.0012C1.29163 43.9748 1.30124 44.0286 1.31575 43.9975C1.33025 43.9661 1.32387 43.8932 1.35283 43.8846ZM9.28419 44.8978C9.2613 44.8365 9.25792 45.0609 9.28268 45.0072C9.28388 45.0043 9.28537 44.9008 9.28419 44.8978ZM12.0542 44.8624C12.0242 44.7634 12.0038 44.9089 12.0249 44.9853C12.046 45.0616 12.0633 44.8923 12.0542 44.8624ZM12.3645 44.7901C12.3296 44.7121 12.324 45.0302 12.3615 44.9659C12.3637 44.9623 12.3666 44.7946 12.3645 44.7901ZM1.3889 44.8134C1.38858 44.8104 1.37007 44.8075 1.36963 44.8104C1.35977 44.8817 1.39679 44.8874 1.3889 44.8134ZM12.6725 44.7115C12.6616 44.6684 12.6302 44.7181 12.6437 44.7716C12.6547 44.8147 12.6861 44.765 12.6725 44.7115ZM8.08993 44.6584C8.08957 44.655 8.0763 44.652 8.07656 44.6709C8.07746 44.7318 8.09594 44.7146 8.08993 44.6584ZM13.196 44.7078C13.1186 44.6958 13.0717 44.4331 13.156 44.4627C13.1712 44.4681 13.1231 44.5465 13.1425 44.5702C13.178 44.6134 13.2016 44.4484 13.2379 44.5368C13.2444 44.553 13.2004 44.7091 13.1958 44.7082C13.1959 44.7081 13.1959 44.7079 13.196 44.7078ZM9.27101 44.6283C9.27055 44.6254 9.25218 44.6226 9.25174 44.6255C9.24179 44.6967 9.2788 44.7024 9.27101 44.6283ZM7.31544 44.5197C7.31443 44.5134 7.27179 44.5074 7.2704 44.5133C7.24815 44.6297 7.33436 44.642 7.31544 44.5197ZM10.5084 44.4642C10.5285 44.3925 10.5525 44.3841 10.5685 44.4741C10.5485 44.4693 10.5285 44.4686 10.5084 44.4642ZM7.9809 3.02149C8.00044 3.52513 7.97955 4.18533 7.95087 4.68707C7.94198 4.84432 7.90222 4.76469 7.89429 4.87324C7.87883 5.08554 7.89833 5.28332 7.87992 5.49312C7.87362 5.56265 7.81064 5.4761 7.80548 5.54901C7.77765 5.94851 7.79369 6.32646 7.78031 6.73117C7.71426 8.72462 7.69062 10.6841 7.66193 12.702C7.65252 13.3673 7.59537 14.1761 7.62036 14.8633C7.62334 14.9435 7.67861 14.8957 7.68317 14.911C7.75291 15.1504 7.64132 15.0708 7.6265 15.2271C7.56796 15.8475 7.56287 16.5373 7.5842 17.1344C7.59344 17.3884 7.70323 17.1337 7.6416 17.3895C7.63744 17.4072 7.57874 17.3428 7.57248 17.4124C7.5584 17.5704 7.56889 17.8701 7.56424 17.9925C7.55498 18.2285 7.55557 18.2675 7.5549 18.4907C7.55348 18.7958 7.5243 19.1587 7.5376 19.486C7.54061 19.5559 7.60079 19.4634 7.61103 19.5748C7.62125 19.6863 7.61615 19.9814 7.60196 20.0809C7.58777 20.1804 7.54048 20.138 7.52964 20.1556C7.43814 20.3005 7.56486 20.6418 7.568 20.6857C7.6214 21.4863 7.54921 22.1729 7.54941 22.9245C7.54972 23.4951 7.57355 24.1051 7.57029 24.648C7.56616 25.2948 7.53355 25.843 7.53916 26.4713C7.53968 26.5376 7.61043 26.4599 7.61121 26.5409C7.61944 27.4014 7.61173 28.2559 7.56397 29.1127C7.55912 29.1986 7.497 29.0879 7.48844 29.1737C7.43739 29.6993 7.31476 30.5309 7.58521 30.8431C7.57465 31.1991 7.56374 31.6313 7.50922 31.9498C7.47413 32.1551 7.40646 31.9557 7.43534 32.208C7.44177 32.2649 7.50103 32.1909 7.5062 32.2762C7.52789 32.6354 7.50863 33.0279 7.53925 33.3833C7.54562 33.4555 7.59872 33.4358 7.60828 33.4563C7.68572 33.6284 7.55771 33.915 7.5484 33.9774C7.47904 34.4531 7.50634 34.8005 7.50464 35.2436C7.50422 35.3464 7.57555 35.2249 7.5777 35.3238C7.58792 35.837 7.58179 36.3686 7.55014 36.8711C7.54293 36.9829 7.48217 36.8801 7.47562 36.9335C7.44746 37.169 7.56221 37.2212 7.53742 37.4471C7.53234 37.4947 7.48033 37.4679 7.47461 37.4766C7.38494 37.6125 7.512 37.7307 7.5148 37.7656C7.55313 38.2079 7.42049 38.4907 7.43927 38.918C7.44165 38.9691 7.50747 38.8538 7.51014 38.9975C7.5283 39.9548 7.51022 40.9673 7.45758 41.9148C7.44949 42.0622 7.40005 41.957 7.39396 41.9663C7.29873 42.1174 7.42632 42.2151 7.43113 42.2632C7.46571 42.6422 7.35871 42.9962 7.51068 43.2537C7.45795 44.8587 7.54329 46.4564 7.40714 48.0482C7.40556 48.0684 7.34272 48.0321 7.33985 48.0725C7.30456 48.5587 7.40223 48.4653 7.52167 48.787C7.55166 48.868 7.40746 49.1146 7.39688 49.1364C7.35793 49.2158 7.26445 49.1334 7.2569 49.16C7.19766 49.3802 7.50683 49.3443 7.50693 49.6414C7.50642 49.6507 7.44951 49.6117 7.44385 49.6366C7.42609 49.7141 7.4487 49.7909 7.42911 49.8667C7.38378 50.0401 7.23356 50.1019 7.32099 50.3669C7.33234 50.4004 7.50771 50.3492 7.49942 50.6144C7.49597 50.7201 7.49898 51.1882 7.48761 51.3193C7.47626 51.4503 7.41975 51.3604 7.4173 51.3697C7.34257 51.7227 7.3116 51.5889 7.20096 51.7657C7.09074 51.9426 7.35363 51.8935 7.38297 51.9656C7.41223 52.0378 7.35057 52.2966 7.32914 52.3602C7.30769 52.4238 7.27178 52.3445 7.25965 52.401C7.18037 52.7758 7.39013 52.5655 7.43186 52.689C7.53065 52.9802 7.3357 53.2069 7.31659 53.4735C7.31143 53.5456 7.35584 53.4867 7.35999 53.551C7.37585 53.8053 7.31502 53.9583 7.37079 54.2476C7.37988 54.295 7.49709 54.5289 7.41108 54.6803C7.39867 54.7018 7.35009 54.6408 7.33921 54.7492C7.32288 54.9112 7.31226 55.2029 7.3285 55.377C7.34051 55.5055 7.42056 55.3582 7.39569 55.52C7.38459 55.5919 7.33776 55.4586 7.32081 55.5937C7.30386 55.728 7.30591 56.0715 7.30753 56.2023C7.30918 56.3327 7.36991 56.2613 7.374 56.2719C7.39743 56.3357 7.42671 56.5861 7.42664 56.6082C7.43405 57.7243 7.3317 58.7536 7.36557 59.8403C7.36814 59.9256 7.43218 59.8688 7.43323 59.8818C7.46006 60.1737 7.28981 59.9435 7.23282 60.1475C7.36277 60.118 7.33924 60.2384 7.35349 60.444C7.36046 60.5431 7.41078 60.4892 7.41593 60.4982C7.49235 60.6452 7.39364 60.7475 7.37345 60.7739C7.29917 60.8712 7.38693 60.9771 7.33728 61.0434C7.28801 61.1095 7.21495 60.9572 7.21589 61.1544C7.2624 61.2097 7.38396 61.0633 7.40366 61.2131C7.47818 61.7781 7.38281 62.8327 7.3729 63.287C7.363 63.7404 7.37158 63.8868 7.35477 64.151C7.32438 64.6282 7.41456 64.4533 7.45584 64.7496C7.49712 65.0468 7.27522 64.9023 7.22751 64.945C7.17983 64.987 7.22891 65.0327 7.2027 65.0849C7.1765 65.1369 7.14406 65.0243 7.13422 65.1466C7.12439 65.269 7.20922 65.6035 7.2591 65.6469C7.36477 65.7385 7.47568 65.5878 7.43671 65.9115C7.4344 65.9302 7.37605 65.8697 7.37015 65.941C7.32523 66.5073 7.32245 67.0956 7.28272 67.6611C7.27716 67.7389 7.21225 67.6694 7.20829 67.7146C7.16677 68.186 7.27622 68.0175 7.3978 68.2759C7.236 68.2178 7.13701 68.3607 7.13605 68.7185C7.13542 68.9336 7.20609 68.8965 7.25589 69.0356C7.27091 69.0774 7.22239 69.2295 7.25562 69.2571C7.36426 69.348 7.48587 69.2047 7.43744 69.5736C7.43514 69.5897 7.37568 69.5382 7.37207 69.5941C7.3485 69.9556 7.46213 69.9988 7.47589 70.3895C7.48669 70.6958 7.4174 71.2405 7.40613 71.5892C7.22422 71.5818 7.26588 71.9112 7.3913 72.0448C7.38617 72.2712 7.39326 72.5156 7.37592 72.7343C7.37001 72.8096 7.31734 72.7602 7.31165 72.7696C7.22238 72.9152 7.3444 73.0136 7.34919 73.0624C7.39569 73.5919 7.3032 74.0232 7.39359 74.5285C7.39684 74.5464 7.52321 74.5755 7.43094 74.7105C7.42458 74.7193 7.36709 74.5524 7.36264 74.7901C7.35819 75.0278 7.29045 75.4759 7.349 75.806C7.3631 75.8858 7.46568 76.0878 7.38553 76.2499C7.37465 76.2716 7.33841 76.2479 7.31824 76.2791C7.25398 76.3799 7.3817 76.4349 7.2732 76.5534C7.1647 76.6718 7.08344 76.9183 7.1583 77.2511C7.16048 77.2617 7.26171 77.3405 7.26011 77.4451C7.25746 77.6122 7.23638 77.8494 7.23703 78.0239C7.23739 78.1074 7.30025 78.054 7.3014 78.0685C7.33662 78.6301 7.28058 79.0298 7.25626 79.6315C7.25168 79.7418 7.3374 80.0588 7.26963 80.2723C7.19544 80.5068 6.88684 80.2658 6.96036 80.8048C6.98977 81.0221 7.38129 81.2973 7.17844 81.688C7.2287 82.4455 7.12489 83.1462 7.19666 83.9059C7.19984 83.94 7.30911 84.0481 7.30762 84.1284C7.3052 84.2477 7.25413 84.3131 7.25077 84.3982C7.23538 84.755 7.27908 85.0815 7.27228 85.4254C7.26981 85.556 7.21701 85.5103 7.21405 85.6661C7.21115 85.8218 7.28069 85.9255 7.24711 86.1365C7.22151 86.2958 7.07938 86.4551 7.06281 86.6665C7.20301 86.6746 7.20012 86.8198 7.23713 87.078C7.24431 87.1276 7.2931 87.0744 7.29902 87.0979C7.32416 87.1934 7.28372 87.2818 7.3111 87.3725C7.31768 87.3945 7.36555 87.3956 7.37363 87.4136C7.44414 87.567 7.33644 87.8197 7.31769 87.8631C7.24648 88.0294 7.30875 88.1072 7.2807 88.2347C7.25267 88.3621 7.21761 88.1717 7.2006 88.3205C7.1654 88.6289 7.17313 89.0252 7.17093 89.3384C7.17035 89.4634 7.23426 89.3781 7.23566 89.396C7.25187 89.6545 7.18389 89.9158 7.31119 90.0591C6.98203 90.2383 7.34312 90.2149 7.27723 90.5843C7.2719 90.6134 7.11624 90.6504 7.09339 90.5387C7.07056 90.427 7.11921 90.2576 7.08359 90.1026C7.07523 90.0659 6.92937 89.8557 6.92054 89.827C6.85149 89.6022 7.08409 89.5704 7.09687 89.5585C7.23474 89.4237 7.0776 89.1667 7.06675 89.0991C7.017 88.7896 7.04971 88.5266 7.0142 88.2677C6.99124 88.0983 6.83888 88.0818 6.84354 87.9488C6.85896 87.5068 7.07151 87.3525 6.88721 86.936C6.84791 86.8467 6.68137 86.9355 6.81232 86.6155C6.82058 86.5954 6.94037 86.3578 6.8646 86.2205C6.85505 86.2033 6.80651 86.2038 6.80243 86.1811C6.77606 86.0287 6.81473 85.9271 6.79621 85.7611C6.77769 85.5951 6.75009 85.3955 6.76655 85.206C6.77639 85.0918 6.86681 84.9452 6.88895 84.8906C6.95273 84.7362 6.84816 84.5707 6.92539 84.475C7.00301 84.3786 7.12088 84.5671 7.17103 84.3142C7.04493 84.3049 6.91551 84.2833 6.7887 84.2683C6.79314 83.7141 6.83391 83.1687 6.82834 82.6126C6.82753 82.5437 6.75974 82.6142 6.75712 82.5403C6.74635 82.2285 6.79467 81.9561 6.77543 81.6328C6.76027 81.3824 6.6885 81.108 6.67042 80.8463C6.8147 80.6864 6.76572 80.298 6.77891 80.0159C6.78346 79.917 6.822 79.9236 6.83457 79.8533C6.88107 79.5882 6.75356 79.7124 6.7335 79.6397C6.64786 79.3279 6.93646 79.3012 6.92933 78.9335C6.92905 78.914 6.77521 78.6759 6.76563 78.6431C6.70316 78.4347 6.81918 78.6086 6.83054 78.4782C6.85131 78.2401 6.88805 78.0746 6.84299 77.7952C6.82965 77.7137 6.73376 77.5183 6.80793 77.3601C6.81764 77.3393 6.86849 77.3508 6.87147 77.3341C6.9211 77.0309 6.76133 77.0229 6.70722 76.8496C6.65312 76.6763 6.76341 76.4087 6.7952 76.3542C6.87744 76.2117 6.83035 76.4634 6.83842 76.4711C6.93445 76.5618 6.91792 76.3665 6.92603 76.2174C7.08269 76.1958 7.07329 75.9872 6.93381 76.0628C6.91858 76.0714 6.93319 76.1874 6.92603 76.2174C6.77233 76.0864 6.75264 75.8572 6.89628 75.604C6.96359 75.4855 7.04209 75.5975 7.01337 75.2375C7.00041 75.0741 6.89254 75.1372 6.86313 74.993C6.79604 74.6636 6.89666 74.2356 6.8808 73.8959C6.87505 73.7727 6.816 73.8927 6.81003 73.8085C6.79401 73.5849 6.83831 73.3878 6.81562 73.1632C6.81349 73.1429 6.75168 73.1926 6.75089 73.1228C6.74371 72.5935 6.7833 72.1326 6.7844 71.5799C6.7849 71.3129 6.75081 70.8355 6.75767 70.5589C6.76918 70.0795 6.85906 69.4897 6.83722 69.0802C6.82325 68.8131 6.76143 68.8717 6.71931 68.7572C6.63766 68.5364 6.78391 68.1454 6.80655 68.0928C6.8073 68.0912 6.82188 68.321 6.85361 68.1984C6.91974 68.1271 6.80684 68.0954 6.80655 68.0928C6.82118 68.0582 6.83522 67.599 6.8234 67.5079C6.81694 67.4583 6.75837 67.486 6.75611 67.4602C6.70369 66.8462 6.68881 66.2312 6.71619 65.6085C6.71738 65.5975 6.78289 65.614 6.78486 65.5882C6.81399 65.2277 6.73384 64.9969 6.68625 64.6995C6.63869 64.4023 6.65462 64.1665 6.7671 63.9905C6.75293 63.7662 6.80266 63.4444 6.83283 63.2592C6.863 63.074 6.73547 63.0482 6.73295 63.0319C6.65225 62.5237 6.72525 62.2299 6.73661 61.7027C6.74223 61.452 6.72373 60.9548 6.70978 60.6834C6.69855 60.4689 6.72844 60.3396 6.70933 60.142C6.70677 60.1153 6.64999 60.1423 6.6478 60.1341C6.57986 59.9135 6.71868 60.0195 6.74348 59.974C6.83363 59.8089 6.88165 59.7069 6.83924 59.4244C6.82953 59.3592 6.62965 59.1694 6.61796 59.0507C6.60313 58.8963 6.67477 58.9546 6.65742 58.7929C6.656 58.779 6.6118 58.7819 6.61375 58.6821C6.62221 58.2189 6.64793 57.7139 6.6435 57.2325C6.64306 57.1668 6.57296 57.2511 6.57117 57.1561C6.56286 56.7103 6.56546 56.2217 6.59827 55.7874C6.60657 55.6805 6.65566 55.7475 6.67023 55.7243C6.75842 55.5819 6.63029 55.3798 6.62784 55.3465C6.56627 54.5513 6.68223 53.9428 6.62702 53.1323C6.62378 53.0882 6.48641 52.7486 6.60422 52.5971C6.61206 52.5868 6.73259 52.4369 6.65018 52.3043C6.64503 52.2961 6.58298 52.3895 6.5893 52.2265C6.59561 52.0635 6.55417 51.8012 6.62235 51.5772C6.64383 51.5062 6.76406 51.3386 6.66822 51.127C6.66153 51.1132 6.44482 50.7866 6.59434 50.67C6.61895 50.6511 6.77718 50.6708 6.69605 50.4183C6.68032 50.3701 6.64503 50.4577 6.62299 50.3305C6.58903 50.1358 6.63141 49.8777 6.56092 49.6383C6.54844 49.5966 6.44105 49.4188 6.52256 49.2763C6.53533 49.2539 6.58815 49.2964 6.59406 49.2211C6.62242 48.863 6.58708 48.4881 6.62363 48.1246C6.63648 47.9958 6.72187 48.0617 6.74476 47.9275C6.76763 47.7932 6.78964 47.5228 6.75062 47.3823C6.71158 47.2418 6.57547 47.3953 6.56458 47.1849C6.51728 46.2699 6.59712 45.3635 6.6088 44.4499C6.61055 44.3144 6.56184 44.4267 6.56092 44.227C6.5573 43.4908 6.51163 42.2197 6.61512 41.5809C6.698 41.069 6.76111 41.7132 6.79484 41.322C6.81093 41.1333 6.65269 40.9291 6.64771 40.8835C6.59711 40.4384 6.6672 40.1291 6.6457 39.7285C6.64123 39.6457 6.5771 39.7269 6.57401 39.6565C6.56289 39.416 6.59152 39.1632 6.58628 38.9334C6.58378 38.8303 6.5348 38.8493 6.53858 38.7544C6.54706 38.5274 6.56765 38.3267 6.61356 38.1054C6.61775 38.0852 6.67868 38.2212 6.68094 38.0533C6.68444 37.7815 6.72973 37.4441 6.68296 37.1313C6.66889 37.0386 6.55694 37.0349 6.63425 36.8355C6.6504 36.7936 6.78483 36.847 6.66868 36.6147C6.64938 36.5756 6.49271 36.1853 6.5937 35.9938C6.62027 35.9432 6.73028 35.8143 6.71299 35.7027C6.71023 35.6875 6.6501 35.7482 6.64423 35.6557C6.62461 35.3298 6.63102 34.9883 6.61219 34.6535C6.60704 34.5641 6.54482 34.6973 6.53913 34.564C6.5234 34.1976 6.53925 33.7402 6.55872 33.3819C6.56602 33.2498 6.61757 33.3411 6.62318 33.3315C6.71441 33.1769 6.59126 33.0855 6.58408 33.0342C6.54108 32.7152 6.59893 32.4722 6.58362 32.1781C6.57956 32.097 6.52084 32.1545 6.5156 32.1384C6.46444 31.9708 6.5699 32.0956 6.58152 31.9896C6.61443 31.6924 6.60971 31.3612 6.60221 31.0608C6.59937 30.9504 6.53128 31.0744 6.52952 30.9754C6.51778 30.3892 6.5243 29.7798 6.56184 29.2076C6.56903 29.0999 6.62145 29.1677 6.63343 29.1452C6.71721 28.9905 6.60293 28.7637 6.59205 28.7115C6.54234 28.4743 6.58871 28.3821 6.58005 28.1726C6.53697 27.149 6.56768 25.8851 6.58665 24.9189C6.61106 23.6598 6.66094 22.6828 6.64799 21.4821C6.64723 21.4058 6.57748 21.4827 6.57593 21.417C6.55912 20.5677 6.58637 19.7315 6.56623 18.8805C6.5647 18.8107 6.49858 18.9114 6.4939 18.7993C6.48385 18.5694 6.48744 18.2781 6.50855 18.0457C6.51872 17.9323 6.57546 18.0844 6.58454 17.9703C6.60581 17.7045 6.61052 17.4197 6.59992 17.1467C6.59527 17.0306 6.52764 17.2058 6.52686 17.0548C6.52015 16.0264 6.50851 15.0163 6.59608 13.977C6.60209 13.9058 6.73953 13.8433 6.71317 13.6918C6.67503 13.6804 6.63016 13.681 6.58939 13.676C6.56743 12.1788 6.61508 10.697 6.62244 9.1956C6.62274 9.1323 6.54992 9.2417 6.55012 9.11915C6.55119 8.40984 6.53102 7.72105 6.6034 6.99551C6.61048 6.92352 6.73859 6.96045 6.71921 6.74831C6.71568 6.71089 6.69859 6.39138 6.67078 6.30877C6.66659 6.29755 6.60679 6.35584 6.60505 6.25289C6.59597 5.65456 6.60962 5.02756 6.64615 4.43027C6.65217 4.33388 6.71584 4.43653 6.72068 4.36788C6.75448 3.88085 6.70607 3.3511 6.76389 2.88572C6.80282 2.57421 6.9129 2.68954 7.02125 2.52401C7.03653 2.50059 7.03895 2.3077 7.10199 2.29772C7.26051 2.27211 7.43409 2.36555 7.60306 2.32721C7.63946 2.31911 7.60026 2.06077 7.6882 2.21372C7.69409 2.22441 7.72328 2.4117 7.75312 2.45784C7.77374 2.48995 7.83785 2.43208 7.86426 2.49761C7.89064 2.56313 7.8369 2.63514 7.86792 2.74378C7.89933 2.85237 7.97226 2.80462 7.9809 3.02149ZM6.96769 62.4254C7.02893 62.2539 6.80461 62.2286 6.85828 62.4141C6.86114 62.4231 6.96468 62.4342 6.96769 62.4254ZM7.00312 83.1718C7.10206 82.9477 6.95658 82.7943 6.88016 82.9524C6.80383 83.1105 6.97312 83.2401 7.00312 83.1718ZM7.07535 85.4964C7.15336 85.2344 6.83527 85.1931 6.89957 85.4737C6.90321 85.4901 7.07082 85.5117 7.07535 85.4964ZM7.0521 3.29166C7.05508 3.28929 7.05798 3.15063 7.05503 3.14732C6.98378 3.07348 6.97803 3.35075 7.0521 3.29166ZM7.154 87.8031C7.19703 87.7213 7.14735 87.4858 7.09385 87.5874C7.0508 87.6692 7.10047 87.905 7.154 87.8031ZM7.2071 53.4807C7.21044 53.478 7.21345 53.3786 7.19455 53.3806C7.1337 53.3873 7.15087 53.5257 7.2071 53.4807ZM7.15766 91.7236C7.16963 91.1444 7.43239 90.7932 7.40274 91.424C7.39738 91.5382 7.31895 91.1778 7.29526 91.3232C7.2521 91.5892 7.41709 91.7659 7.32868 92.0373C7.3125 92.0865 7.15639 91.7567 7.15729 91.7226C7.15741 91.723 7.15754 91.7233 7.15766 91.7236ZM7.23713 62.3267C7.24009 62.3232 7.2429 62.1856 7.23996 62.1823C7.16875 62.1078 7.16304 62.385 7.23713 62.3267ZM7.3458 47.6799C7.35212 47.6723 7.35803 47.353 7.35221 47.3426C7.23575 47.176 7.22345 47.8216 7.3458 47.6799ZM7.40128 71.5947C7.47292 71.7448 7.48136 71.9245 7.39139 72.0442C7.39617 71.895 7.39687 71.7447 7.40128 71.5947Z" fill="black"/>
</svg>
