<svg width="98" height="15" viewBox="0 0 98 15" fill="none" xmlns="http://www.w3.org/2000/svg">
<path d="M97.0297 2.33404C97.0493 3.56686 97.0284 5.18288 96.9997 6.41104C96.9908 6.79595 96.951 6.60104 96.9431 6.86675C96.9277 7.38641 96.9472 7.87055 96.9287 8.38408C96.9224 8.55427 96.8595 8.34242 96.8543 8.52088C96.8265 9.49879 96.8425 10.4239 96.8291 11.4146C96.8164 12.3584 96.8052 13.2992 96.7952 14.2385L96.7987 14.7429L96.2874 14.7464C92.3708 14.7049 88.4799 14.6851 84.496 14.6619C82.8674 14.6525 80.8877 14.5954 79.2055 14.6204C79.0091 14.6233 79.1262 14.6786 79.0888 14.6832C78.5028 14.7529 78.6977 14.6413 78.3151 14.6265C76.7965 14.568 75.1078 14.5629 73.6464 14.5842C73.0247 14.5934 73.648 14.7032 73.022 14.6416C72.9785 14.6374 73.1363 14.5787 72.9658 14.5725C72.5791 14.5584 71.8455 14.5689 71.5458 14.5642C70.9682 14.555 70.8727 14.5556 70.3264 14.5549C69.5796 14.5535 68.6914 14.5243 67.8901 14.5376C67.7191 14.5406 67.9455 14.6008 67.6727 14.611C67.3997 14.6213 66.6775 14.6161 66.434 14.602C66.1905 14.5878 66.2942 14.5405 66.2511 14.5296C65.8965 14.4381 65.0611 14.5649 64.9536 14.568C62.9938 14.6214 61.3131 14.5492 59.4734 14.5494C58.0768 14.5497 56.5835 14.5736 55.2546 14.5703C53.6714 14.5662 52.3296 14.5336 50.7915 14.5392C50.6292 14.5397 50.8194 14.6104 50.6212 14.6112C48.5149 14.6194 46.4232 14.6117 44.3261 14.564C44.1157 14.5591 44.3868 14.497 44.1767 14.4884C42.8901 14.4374 40.8545 14.3148 40.0904 14.5852C39.219 14.5746 38.161 14.5637 37.3814 14.5092C36.8787 14.4741 37.3669 14.4065 36.7494 14.4353C36.6102 14.4418 36.7913 14.501 36.5824 14.5062C35.7031 14.5279 34.7424 14.5086 33.8725 14.5393C33.6956 14.5456 33.7439 14.5987 33.6938 14.6083C33.2724 14.6857 32.5711 14.5577 32.4181 14.5484C31.2538 14.479 30.4035 14.5063 29.3188 14.5046C29.0671 14.5042 29.3647 14.5755 29.1225 14.5777C27.8663 14.5879 26.565 14.5818 25.335 14.5501C25.0614 14.5429 25.313 14.4822 25.1823 14.4756C24.6058 14.4475 24.478 14.5622 23.9251 14.5374C23.8085 14.5323 23.8742 14.4803 23.8529 14.4746C23.5202 14.3849 23.231 14.512 23.1454 14.5148C22.0628 14.5531 21.3707 14.4205 20.3248 14.4393C20.1997 14.4417 20.4818 14.5075 20.1301 14.5101C17.7868 14.5283 15.3085 14.5102 12.989 14.4576C12.6284 14.4495 12.8858 14.4001 12.8631 14.394C12.4933 14.2987 12.2539 14.4263 12.1364 14.4311C11.2087 14.4657 10.3421 14.3587 9.7118 14.5107C6.55933 14.4684 3.41846 14.515 0.287353 14.4647L0.0627511 14.4662L0.0612024 14.2385C0.0735849 13.4675 0.0918345 12.697 0.118736 11.9271C0.120315 11.8776 0.183158 11.9663 0.186027 11.8675C0.221313 10.6774 0.123649 10.906 0.00421099 10.1185C-0.0257878 9.92019 0.118423 9.31676 0.12899 9.26337C0.167945 9.06885 0.261436 9.27061 0.268974 9.20546C0.328216 8.66646 0.0190502 8.75429 0.0189511 8.02718C0.0194622 8.00442 0.0763699 8.09994 0.0820309 8.03892C0.0997921 7.84934 0.0771786 7.66132 0.0967709 7.4758C0.142097 7.05117 0.29232 6.89993 0.204887 6.25135C0.193542 6.16926 0.018173 6.29463 0.0264585 5.64543C0.029907 5.38663 0.0269011 4.24103 0.0382689 3.91996C0.0496138 3.59928 0.106132 3.81946 0.108574 3.79659C0.183304 2.93255 0.214279 3.26017 0.324913 2.82728C0.435135 2.39443 0.172249 2.51446 0.142906 2.338C0.113655 2.16124 0.175308 1.52773 0.196739 1.37204C0.218185 1.21645 0.254097 1.41052 0.266228 1.27217C0.345512 0.354769 0.135742 0.869498 0.0940246 0.567215C0.078331 0.454016 0.0700455 0.344789 0.0672989 0.238521L0.0658035 0.0199737L0.287354 0.0184631C0.850121 0.00389081 1.33002 0.144384 1.87883 0.160453C2.05536 0.165612 1.91131 0.12121 2.0685 0.117057C2.69108 0.101199 3.06552 0.162031 3.77383 0.106254C3.88969 0.0971651 4.4623 -0.0200477 4.83294 0.0659712C4.88543 0.0783749 4.73627 0.126957 5.00163 0.13784C5.39798 0.154172 6.11217 0.164791 6.53826 0.148552C6.85283 0.136537 6.49226 0.056484 6.88822 0.0813521C7.06419 0.0924561 6.73805 0.139287 7.06866 0.156242C7.39751 0.173191 8.23834 0.171134 8.5583 0.169517C8.87767 0.167865 8.70286 0.107141 8.72867 0.10305C8.88486 0.0796161 9.49779 0.0503352 9.55196 0.0504075C12.284 0.0429948 14.8034 0.145351 17.4634 0.111473C17.6722 0.108903 17.5331 0.0448684 17.565 0.043816C18.2796 0.0169871 17.7162 0.187239 18.2154 0.244224C18.1432 0.114281 18.4379 0.137809 18.9413 0.123558C19.1839 0.116585 19.0518 0.0662702 19.0739 0.0611195C19.4336 -0.0153032 19.6842 0.0834068 19.7487 0.1036C19.9869 0.17788 20.2462 0.0901128 20.4083 0.139763C20.5703 0.189042 20.1974 0.262097 20.6802 0.261162C20.8156 0.214646 20.4572 0.0930886 20.8237 0.0733876C22.2067 -0.00113203 24.7883 0.0942422 25.9003 0.104149C27.01 0.114048 27.3685 0.105466 28.0151 0.122277C29.1832 0.152672 28.7551 0.0624847 29.4804 0.0212031C30.2079 -0.0200736 29.8542 0.201831 29.9588 0.249535C30.0614 0.297217 30.1735 0.248133 30.3012 0.274346C30.4285 0.300552 30.153 0.332987 30.4523 0.342827C30.7518 0.352657 31.5706 0.267829 31.6767 0.217949C31.9011 0.112276 31.5322 0.00136796 32.3246 0.0403377C32.3702 0.0426504 32.2223 0.100999 32.3968 0.106896C33.7829 0.151816 35.2228 0.1546 36.6072 0.194329C36.7976 0.199883 36.6274 0.264795 36.7381 0.268761C37.892 0.31028 37.4795 0.200831 38.112 0.0792477C37.97 0.241049 38.3197 0.340041 39.1954 0.340996C39.7219 0.341627 39.6312 0.27096 39.9717 0.221154C40.0739 0.20614 40.4464 0.254662 40.5139 0.221429C40.7364 0.112793 40.3856 -0.00881873 41.2885 0.0396057C41.3281 0.0419069 41.202 0.101373 41.3388 0.104974C42.2236 0.128547 42.3295 0.0149148 43.2859 0.00115372C44.0355 -0.00964402 45.3687 0.0596473 46.2223 0.0709168C46.2044 0.252829 47.0106 0.211173 47.3377 0.0857484C47.8916 0.0908833 48.49 0.0837928 49.0254 0.101129C49.2097 0.10704 49.0886 0.159708 49.1118 0.165399C49.4681 0.254671 49.709 0.132647 49.8285 0.127863C51.1245 0.0813596 52.1803 0.173845 53.4171 0.0834598C53.461 0.0802044 53.5321 -0.0461574 53.8627 0.0461064C53.8841 0.0524663 53.4757 0.109959 54.0574 0.114405C54.6393 0.11886 55.7363 0.1866 56.5441 0.128046C56.7396 0.11395 57.234 0.0113694 57.6309 0.0915166C57.6838 0.1024 57.6259 0.138641 57.7022 0.158808C57.949 0.223067 58.0836 0.0953465 58.3736 0.203851C58.6636 0.312352 59.2668 0.39361 60.0815 0.31875C60.1074 0.316573 60.3003 0.215343 60.5565 0.216944C60.9655 0.219586 61.5461 0.240674 61.9731 0.240015C62.1776 0.239663 62.0467 0.176803 62.0822 0.175653C63.457 0.140429 64.4355 0.196468 65.9083 0.220789C66.1783 0.225372 66.9541 0.139654 67.4768 0.207422C68.0507 0.281608 67.461 0.590209 68.7801 0.516687C69.3122 0.487279 69.9858 0.095764 70.942 0.298609C72.7964 0.248345 74.5114 0.352161 76.371 0.28039C76.4546 0.27721 76.7191 0.167941 76.9157 0.169429C77.2076 0.171848 77.3678 0.222918 77.5762 0.226283C78.4494 0.241666 79.2486 0.197972 80.0905 0.204768C80.4102 0.207237 80.2984 0.260044 80.6796 0.262995C81.0607 0.265897 81.3147 0.196361 81.8311 0.229945C82.221 0.255544 82.6109 0.397673 83.1285 0.41424C83.1483 0.274045 83.5038 0.276932 84.1356 0.239924C84.2571 0.232744 84.1268 0.183948 84.1843 0.178035C84.4181 0.152886 84.6345 0.193326 84.8565 0.16595C84.9105 0.159375 84.9131 0.111497 84.9572 0.10342C85.3327 0.032911 85.9512 0.140607 86.0575 0.159358C86.4646 0.230572 86.6549 0.168302 86.9672 0.196345C87.279 0.224385 86.8128 0.259438 87.177 0.276454C87.932 0.311649 88.902 0.303917 89.6687 0.306117C89.9746 0.306699 89.7659 0.24279 89.8097 0.241389C90.4423 0.22518 91.082 0.293161 91.4328 0.165859C91.8714 0.495016 91.8142 0.133932 92.7185 0.199825C92.7897 0.205154 92.8803 0.36081 92.6069 0.383662C92.3334 0.406492 91.9188 0.357836 91.5394 0.393458C91.4495 0.401818 90.9348 0.547677 90.8646 0.556513C90.3145 0.625565 90.2366 0.392959 90.2075 0.380183C89.8775 0.24231 89.2485 0.399446 89.0829 0.410304C88.3252 0.460055 87.6815 0.427343 87.0478 0.462855C86.6333 0.485806 86.5928 0.638172 86.2673 0.633508C85.1854 0.618093 84.8077 0.405542 83.7882 0.589838C83.5696 0.629144 83.7868 0.795676 83.0035 0.664728C82.9543 0.656472 82.3727 0.536678 82.0367 0.612451C81.9945 0.622005 81.9958 0.670538 81.9402 0.674615C81.5672 0.700987 81.3184 0.662323 80.9121 0.680841C80.5058 0.699359 80.0173 0.726965 79.5534 0.710504C79.2738 0.70066 78.9151 0.610236 78.7813 0.588098C78.4034 0.524324 77.9983 0.628887 77.7642 0.55166C77.5281 0.474045 77.9896 0.356174 77.3705 0.306025C77.3476 0.432118 77.2949 0.561539 77.2581 0.688348C75.9014 0.683908 74.5666 0.643135 73.2054 0.648705C73.0367 0.649522 73.2093 0.71731 73.0283 0.719933C72.2651 0.730702 71.5984 0.682379 70.8069 0.701623C70.1942 0.716778 69.5223 0.788551 68.8817 0.806633C68.4904 0.662347 67.5397 0.711329 66.8491 0.698144C66.6071 0.693587 66.6233 0.655052 66.4513 0.64248C65.8022 0.595983 66.1064 0.723488 65.9284 0.743553C65.165 0.829191 65.0996 0.540592 64.1996 0.547723C64.1519 0.548003 63.569 0.701839 63.4888 0.711418C62.9787 0.773887 63.4043 0.657874 63.0851 0.646508C62.5022 0.625736 62.0972 0.588998 61.4133 0.634057C61.2139 0.647403 60.7356 0.743287 60.3483 0.669121C60.2974 0.659409 60.3255 0.608561 60.2846 0.605584C59.5424 0.555946 59.5228 0.715718 59.0987 0.769829C58.6745 0.823928 58.0194 0.713635 57.886 0.681847C57.5372 0.599614 58.1533 0.646703 58.1722 0.638634C58.3941 0.542599 57.9163 0.559133 57.5512 0.551018C57.4983 0.39436 56.9877 0.403763 57.1727 0.543236C57.1937 0.558471 57.4779 0.543861 57.5512 0.551018C57.2307 0.704722 56.6696 0.724406 56.0498 0.580773C55.7597 0.513454 56.0339 0.434963 55.1526 0.463677C54.7527 0.476639 54.9072 0.584506 54.5543 0.613915C53.7479 0.681013 52.7001 0.580391 51.8687 0.596245C51.567 0.602001 51.8609 0.661047 51.6547 0.667015C51.1075 0.683039 50.6249 0.638735 50.0753 0.66143C50.0255 0.663561 50.1471 0.72537 49.9762 0.726158C48.6806 0.733336 47.5524 0.693747 46.1997 0.692649C45.5461 0.692147 44.3775 0.726236 43.7004 0.719383C42.5269 0.707869 41.0833 0.617989 40.0808 0.639823C39.427 0.6538 39.5704 0.715621 39.2903 0.757743C38.7496 0.839392 37.7927 0.69314 37.6638 0.670493C37.6599 0.669744 38.2225 0.65517 37.9223 0.623435C37.7477 0.557311 37.6702 0.670207 37.6638 0.670493C37.5792 0.655864 36.4552 0.64183 36.2321 0.653648C36.1108 0.660106 36.1786 0.718678 36.1154 0.720939C34.6125 0.773355 33.107 0.788242 31.5827 0.760855C31.5559 0.759672 31.5963 0.694155 31.5332 0.692191C30.6507 0.663061 30.0857 0.743208 29.3579 0.790793C28.6302 0.838357 28.0531 0.822426 27.6224 0.709952C27.0733 0.724113 26.2856 0.674389 25.8323 0.644217C25.379 0.614046 25.3158 0.74158 25.2759 0.744101C24.0319 0.824798 23.3128 0.7518 22.0221 0.740439C21.4086 0.734819 20.1915 0.753318 19.5271 0.767264C19.0021 0.778498 18.6857 0.748611 18.202 0.767721C18.1365 0.770273 18.2026 0.827058 18.1826 0.829244C17.6427 0.897184 17.9022 0.758365 17.7907 0.733572C17.3866 0.643413 17.1369 0.595395 16.4454 0.637808C16.286 0.647521 15.8214 0.847401 15.5307 0.85909C15.1527 0.873922 15.2953 0.802277 14.8996 0.819631C14.8657 0.821051 14.8727 0.865251 14.6285 0.863302C13.4946 0.854837 12.2585 0.829118 11.0802 0.833547C10.9193 0.833983 11.1256 0.90409 10.8931 0.905874C9.80188 0.914184 8.60588 0.911589 7.54283 0.878774C7.28117 0.870476 7.4452 0.821389 7.38841 0.806814C7.0397 0.718625 6.54516 0.846761 6.46357 0.849202C4.5172 0.910778 3.02759 0.794817 1.04379 0.850026C0.976601 0.852043 0.629417 0.905984 0.287353 0.918075L0.966911 0.238521C0.974251 0.446219 0.966164 0.652028 0.921654 0.792129C0.913818 0.817518 0.793289 1.18442 0.875694 1.50884C0.880852 1.52899 0.942902 1.30037 0.936577 1.69934C0.930267 2.09832 0.971702 2.74043 0.903526 3.28885C0.882049 3.46248 0.761818 3.87286 0.857658 4.39077C0.864349 4.42452 1.08106 5.22408 0.931541 5.50947C0.906929 5.55573 0.748703 5.5073 0.829826 6.12547C0.845558 6.24356 0.880851 6.02917 0.902885 6.34031C0.936851 6.81704 0.89447 7.44869 0.964958 8.03473C0.97744 8.13693 1.08483 8.57198 1.00332 8.92096C0.990554 8.97562 0.937729 8.87177 0.931816 9.05608C0.903457 9.93246 0.938797 10.8501 0.902244 11.74C0.889404 12.0551 0.804008 11.894 0.78112 12.2225C0.758247 12.5511 0.736236 13.2131 0.77526 13.5569C0.8143 13.9008 0.950408 13.5251 0.961295 14.0403C0.962692 14.1064 0.963981 14.1725 0.965156 14.2385L0.287353 13.5607C2.45972 13.5219 4.61336 13.5975 6.78371 13.6088C7.11541 13.6105 6.84042 13.5618 7.32921 13.5609C9.13133 13.5573 12.2427 13.5116 13.8064 13.6151C15.0593 13.698 13.4826 13.7611 14.44 13.7948C14.9021 13.8109 15.4019 13.6527 15.5134 13.6477C16.603 13.5971 17.3602 13.6672 18.3408 13.6457C18.5433 13.6412 18.3447 13.5771 18.5171 13.574C19.1058 13.5629 19.7245 13.5915 20.287 13.5863C20.5394 13.5838 20.4929 13.5348 20.7251 13.5386C21.2807 13.5471 21.7721 13.5677 22.3138 13.6136C22.3631 13.6177 22.0302 13.6787 22.4413 13.6809C23.1067 13.6844 23.9325 13.7297 24.698 13.683C24.9251 13.6689 24.9341 13.5569 25.4223 13.6343C25.5247 13.6504 25.394 13.7848 25.9627 13.6687C26.0584 13.6494 27.0138 13.4927 27.4826 13.5937C27.6063 13.6203 27.922 13.7303 28.1951 13.713C28.2321 13.7102 28.0838 13.6501 28.3101 13.6442C29.1077 13.6246 29.9437 13.631 30.7632 13.6122C30.982 13.607 30.6561 13.5448 30.9822 13.5391C31.8791 13.5234 32.9989 13.5392 33.8759 13.5587C34.1992 13.566 33.9757 13.6176 33.9993 13.6232C34.3776 13.7144 34.6013 13.5913 34.7269 13.5841C35.5079 13.5411 36.1026 13.5989 36.8224 13.5836C37.0211 13.5796 36.8803 13.5208 36.9198 13.5156C37.3299 13.4644 37.0244 13.5699 37.284 13.5815C38.0113 13.6144 38.822 13.6097 39.5575 13.6022C39.8277 13.5994 39.524 13.5313 39.7665 13.5295C41.2014 13.5178 42.6932 13.5243 44.0936 13.5618C44.3573 13.569 44.1914 13.6215 44.2463 13.6334C44.6251 13.7172 45.1802 13.6029 45.308 13.592C45.8887 13.5423 46.1143 13.5887 46.6272 13.5801C49.1328 13.537 52.2265 13.5677 54.5916 13.5866C57.6736 13.6111 60.0651 13.6609 63.0041 13.648C63.1909 13.6472 63.0025 13.5775 63.1635 13.5759C65.2424 13.5591 67.2891 13.5864 69.3722 13.5662C69.5431 13.5647 69.2967 13.4986 69.5711 13.4939C70.1338 13.4838 70.8467 13.4874 71.4157 13.5086C71.6933 13.5187 71.321 13.5755 71.6004 13.5845C72.2508 13.6058 72.9481 13.6105 73.6162 13.5999C73.9005 13.5953 73.4715 13.5276 73.8411 13.5269C76.3586 13.5202 78.8309 13.5085 81.3749 13.5961C81.5493 13.6021 81.7024 13.7395 82.0732 13.7132C82.1011 13.675 82.0996 13.6302 82.1118 13.5894C85.7765 13.5674 89.4039 13.6151 93.0789 13.6224C93.2338 13.6227 92.9661 13.5499 93.266 13.5501C94.281 13.5507 95.2787 13.5441 96.2874 13.553L95.6018 14.2385C95.6081 13.5217 95.6222 12.7994 95.6522 12.0616C95.6593 11.8854 95.7874 11.9758 95.768 11.4565C95.7645 11.3649 95.7474 10.5828 95.7196 10.3806C95.7154 10.3532 95.6556 10.4958 95.6539 10.2438C95.6448 8.77926 95.6584 7.24448 95.695 5.78245C95.701 5.5465 95.7647 5.79778 95.7695 5.62971C95.8033 4.43757 95.7549 3.14085 95.8127 2.0017C95.8516 1.23919 95.9617 1.52149 96.0701 1.11631C96.0854 1.059 96.0878 0.586829 96.1508 0.562412C96.3093 0.499725 96.4829 0.728429 96.6519 0.634586C96.6883 0.61476 96.6491 -0.0175956 96.737 0.356799C96.7429 0.382955 96.7721 0.841416 96.8019 0.954335C96.8226 1.03295 96.8867 0.89128 96.9131 1.05169C96.9395 1.21208 96.8857 1.38833 96.9168 1.65426C96.9482 1.92007 97.0211 1.80319 97.0297 2.33404ZM23.7913 0.50936C23.3715 0.448114 23.3096 0.672435 23.7636 0.618766C23.7855 0.615905 23.8129 0.512365 23.7913 0.50936ZM74.5742 0.473932C74.0255 0.374991 73.65 0.520474 74.0371 0.596887C74.4242 0.673218 74.7414 0.503925 74.5742 0.473932ZM80.2642 0.401697C79.6229 0.323687 79.522 0.641783 80.2088 0.577478C80.2488 0.573844 80.3017 0.406227 80.2642 0.401697ZM96.1009 2.99535C96.1039 2.98956 96.1068 2.65015 96.1039 2.64204C96.0326 2.46131 96.0269 3.13999 96.1009 2.99535ZM85.9106 0.323054C85.7104 0.280025 85.134 0.329697 85.3827 0.383204C85.583 0.426249 86.1599 0.37658 85.9106 0.323054ZM1.89645 0.26995C1.88983 0.266607 1.64651 0.263597 1.6514 0.282493C1.66792 0.343351 2.00655 0.326175 1.89645 0.26995ZM95.5073 0.319392C94.0894 0.307419 93.2297 0.0446561 94.7738 0.0743064C95.0534 0.079671 94.1711 0.158099 94.527 0.181789C95.1782 0.224947 95.6106 0.0599647 96.2752 0.148372C96.3955 0.164554 95.5881 0.320659 95.5047 0.319759C95.5056 0.319636 95.5064 0.319514 95.5073 0.319392ZM23.5496 0.239922C23.5412 0.236955 23.2043 0.234143 23.1962 0.237083C23.0138 0.308299 23.6924 0.314007 23.5496 0.239922ZM0.180076 12.8284C0.173759 12.847 0.167846 13.6288 0.173667 13.6542C0.29013 14.062 0.302421 12.4816 0.180076 12.8284ZM46.2358 0.0757691C46.6033 0.00412575 47.043 -0.00430944 47.336 0.0856568C46.9707 0.0808809 46.603 0.0801774 46.2358 0.0757691Z" fill="black"/>
<path d="M51.2452 1.35282C51.2648 1.42007 51.2439 1.50822 51.2152 1.57521C51.2063 1.5962 51.1665 1.58557 51.1586 1.60006C51.1432 1.62841 51.1627 1.65482 51.1442 1.68283C51.1379 1.69211 51.075 1.68055 51.0698 1.69029C51.042 1.74363 51.058 1.79409 51.0446 1.84813C50.9786 2.11428 50.9549 2.37591 50.9263 2.64532C50.9169 2.73416 50.8597 2.84214 50.8847 2.9339C50.8877 2.94461 50.9429 2.93822 50.9475 2.94026C51.0172 2.97222 50.9057 2.9616 50.8908 2.98247C50.8323 3.0653 50.8272 3.15741 50.8485 3.23712C50.8578 3.27103 50.9676 3.23703 50.9059 3.27118C50.9018 3.27355 50.8431 3.26495 50.8368 3.27425C50.8227 3.29534 50.8332 3.33535 50.8286 3.3517C50.8193 3.3832 50.8199 3.38842 50.8192 3.41821C50.8178 3.45895 50.7886 3.5074 50.8019 3.5511C50.8049 3.56043 50.8651 3.54808 50.8754 3.56296C50.8856 3.57785 50.8805 3.61724 50.8663 3.63052C50.8521 3.64381 50.8048 3.63815 50.794 3.6405C50.7025 3.65984 50.8292 3.70541 50.8323 3.71127C50.8857 3.81817 50.8135 3.90985 50.8137 4.01019C50.814 4.08637 50.8379 4.16783 50.8346 4.24031C50.8305 4.32667 50.7979 4.39986 50.8035 4.48375C50.804 4.49261 50.8748 4.48223 50.8755 4.49304C50.8838 4.60793 50.8761 4.72202 50.8283 4.83641C50.8234 4.84789 50.7613 4.8331 50.7528 4.84456C50.7017 4.91474 50.5791 5.02577 50.8495 5.06745C50.839 5.11498 50.8281 5.17269 50.7735 5.21521C50.7385 5.24263 50.6708 5.216 50.6997 5.24968C50.7061 5.25728 50.7654 5.2474 50.7705 5.25879C50.7922 5.30676 50.773 5.35916 50.8036 5.40661C50.8099 5.41626 50.863 5.41362 50.8726 5.41636C50.95 5.43934 50.822 5.4776 50.8127 5.48594C50.7434 5.54944 50.7707 5.59583 50.769 5.65499C50.7685 5.66872 50.8399 5.65249 50.842 5.6657C50.8523 5.73422 50.8461 5.8052 50.8145 5.87229C50.8073 5.88721 50.7465 5.87349 50.7399 5.88062C50.7118 5.91207 50.8265 5.91904 50.8017 5.94919C50.7967 5.95555 50.7447 5.95197 50.7389 5.95313C50.6493 5.97128 50.7763 5.98705 50.7791 5.99172C50.8175 6.05078 50.6848 6.08852 50.7036 6.14558C50.706 6.1524 50.7718 6.13701 50.7745 6.1562C50.7926 6.28401 50.7746 6.41919 50.7219 6.54571C50.7138 6.56538 50.6644 6.55134 50.6583 6.55257C50.5631 6.57275 50.6906 6.5858 50.6955 6.59222C50.73 6.64282 50.623 6.69008 50.775 6.72446C50.7223 6.93876 50.8076 7.15208 50.6715 7.3646C50.6699 7.3673 50.6071 7.36246 50.6042 7.36785C50.5689 7.43277 50.6666 7.4203 50.786 7.46325C50.816 7.47407 50.6718 7.50698 50.6612 7.5099C50.6223 7.52051 50.5288 7.5095 50.5212 7.51306C50.462 7.54246 50.7712 7.53766 50.7713 7.57733C50.7707 7.57857 50.7138 7.57336 50.7082 7.57668C50.6904 7.58703 50.713 7.59728 50.6934 7.6074C50.6481 7.63056 50.4979 7.63881 50.5853 7.67419C50.5967 7.67867 50.772 7.67183 50.7638 7.70724C50.7603 7.72135 50.7633 7.78384 50.7519 7.80136C50.7406 7.81885 50.6841 7.80684 50.6816 7.80808C50.6069 7.85521 50.5759 7.83734 50.4653 7.86096C50.3551 7.88457 50.618 7.87802 50.6473 7.88764C50.6766 7.89729 50.6149 7.93184 50.5935 7.94033C50.572 7.94882 50.5361 7.93823 50.524 7.94578C50.4447 7.99582 50.6545 7.96774 50.6962 7.98423C50.795 8.0231 50.6 8.05338 50.5809 8.08897C50.5758 8.0986 50.6202 8.09074 50.6243 8.09932C50.6402 8.13328 50.5793 8.1537 50.6351 8.19233C50.6442 8.19865 50.7614 8.22989 50.6754 8.2501C50.663 8.25297 50.6144 8.24483 50.6035 8.2593C50.5872 8.28092 50.5766 8.31988 50.5928 8.34312C50.6048 8.36028 50.6849 8.34061 50.66 8.36221C50.6489 8.37181 50.6021 8.35402 50.5851 8.37205C50.5682 8.38999 50.5702 8.43585 50.5719 8.4533C50.5735 8.47072 50.6342 8.46119 50.6383 8.4626C50.6618 8.47112 50.691 8.50455 50.691 8.5075C50.6984 8.65653 50.596 8.79395 50.6299 8.93904C50.6325 8.95043 50.6965 8.94284 50.6976 8.94458C50.7244 8.98356 50.5541 8.95283 50.4972 8.98005C50.6271 8.97612 50.6036 8.99219 50.6178 9.01965C50.6248 9.03288 50.6751 9.02568 50.6803 9.02688C50.7567 9.0465 50.658 9.06017 50.6378 9.06369C50.5635 9.07668 50.6513 9.09083 50.6016 9.09967C50.5523 9.10851 50.4793 9.08817 50.4802 9.1145C50.5267 9.12188 50.6483 9.10233 50.668 9.12233C50.7425 9.19776 50.6471 9.33858 50.6372 9.39923C50.6273 9.45976 50.6359 9.47931 50.6191 9.51459C50.5887 9.5783 50.6789 9.55495 50.7202 9.59451C50.7614 9.63419 50.5395 9.6149 50.4918 9.6206C50.4442 9.6262 50.4932 9.63232 50.467 9.63928C50.4408 9.64622 50.4084 9.6312 50.3985 9.64752C50.3887 9.66386 50.4735 9.70852 50.5234 9.71431C50.6291 9.72655 50.74 9.70642 50.701 9.74965C50.6987 9.75213 50.6404 9.74407 50.6345 9.75358C50.5896 9.82919 50.5868 9.90773 50.547 9.98325C50.5415 9.99363 50.4766 9.98434 50.4726 9.99039C50.4311 10.0533 50.5405 10.0308 50.6621 10.0653C50.5003 10.0576 50.4013 10.0767 50.4004 10.1244C50.3997 10.1531 50.4704 10.1482 50.5202 10.1668C50.5352 10.1723 50.4867 10.1927 50.5199 10.1963C50.6286 10.2085 50.7502 10.1893 50.7018 10.2386C50.6995 10.2407 50.64 10.2339 50.6364 10.2413C50.6128 10.2896 50.7265 10.2954 50.7402 10.3475C50.751 10.3884 50.6817 10.4611 50.6705 10.5077C50.4885 10.5067 50.5302 10.5507 50.6556 10.5685C50.6505 10.5988 50.6576 10.6314 50.6402 10.6606C50.6343 10.6707 50.5817 10.664 50.576 10.6653C50.4867 10.6848 50.6087 10.6979 50.6135 10.7044C50.66 10.7751 50.5675 10.8327 50.6579 10.9001C50.6612 10.9025 50.7875 10.9064 50.6953 10.9245C50.6889 10.9256 50.6314 10.9033 50.627 10.9351C50.6225 10.9668 50.5548 11.0266 50.6133 11.0707C50.6274 11.0814 50.73 11.1083 50.6499 11.13C50.639 11.1329 50.6027 11.1297 50.5826 11.1339C50.5183 11.1473 50.646 11.1547 50.5375 11.1705C50.429 11.1863 50.3478 11.2192 50.4226 11.2637C50.4248 11.2651 50.526 11.2756 50.5244 11.2896C50.5218 11.3119 50.5007 11.3435 50.5014 11.3668C50.5017 11.378 50.5646 11.3709 50.5657 11.3728C50.6009 11.4478 50.5449 11.5011 50.5206 11.5815C50.516 11.5962 50.6017 11.6385 50.534 11.667C50.4598 11.6983 50.1512 11.6662 50.2247 11.7381C50.2541 11.7672 50.6456 11.8039 50.4428 11.8561C50.493 11.9572 50.3892 12.0507 50.461 12.1522C50.4642 12.1567 50.5734 12.1712 50.5719 12.1819C50.5695 12.1978 50.5185 12.2065 50.5151 12.2179C50.4997 12.2655 50.5434 12.3091 50.5366 12.3551C50.5341 12.3725 50.4813 12.3664 50.4784 12.3872C50.4755 12.408 50.545 12.4218 50.5114 12.45C50.4858 12.4713 50.3437 12.4925 50.3271 12.5208C50.4673 12.5218 50.4644 12.5412 50.5015 12.5757C50.5086 12.5823 50.5574 12.5752 50.5633 12.5784C50.5885 12.5911 50.5481 12.6029 50.5754 12.615C50.582 12.618 50.6299 12.6181 50.638 12.6205C50.7085 12.641 50.6008 12.6747 50.582 12.6805C50.5108 12.7027 50.5731 12.7131 50.545 12.7302C50.517 12.7472 50.4819 12.7217 50.4649 12.7416C50.4297 12.7828 50.4375 12.8357 50.4353 12.8775C50.4347 12.8942 50.4986 12.8828 50.5 12.8852C50.5162 12.9197 50.4482 12.9546 50.5755 12.9737C50.2464 12.9977 50.6074 12.9945 50.5416 13.0439C50.5362 13.0477 50.3806 13.0527 50.3577 13.0378C50.3349 13.0229 50.3835 13.0002 50.3479 12.9795C50.3396 12.9746 50.1937 12.9466 50.1849 12.9427C50.1158 12.9127 50.3484 12.9085 50.3612 12.9069C50.4991 12.8889 50.3419 12.8546 50.3311 12.8456C50.2813 12.8042 50.314 12.7691 50.2785 12.7345C50.2556 12.7119 50.1032 12.7097 50.1079 12.692C50.1233 12.633 50.3358 12.6124 50.1515 12.5568C50.1122 12.5448 49.9457 12.5567 50.0767 12.514C50.0849 12.5113 50.2047 12.4795 50.1289 12.4612C50.1194 12.4589 50.0708 12.459 50.0668 12.456C50.0404 12.4356 50.0791 12.422 50.0605 12.3999C50.042 12.3777 50.0144 12.3511 50.0309 12.3258C50.0407 12.3105 50.1311 12.291 50.1533 12.2837C50.2171 12.263 50.1125 12.2409 50.1897 12.2282C50.2673 12.2153 50.3852 12.2405 50.4354 12.2067C50.3093 12.2054 50.1798 12.2026 50.053 12.2006C50.0575 12.1266 50.0982 12.0538 50.0927 11.9795C50.0919 11.9703 50.0241 11.9797 50.0214 11.9699C50.0107 11.9282 50.059 11.8919 50.0398 11.8487C50.0246 11.8153 49.9528 11.7786 49.9347 11.7437C50.079 11.7223 50.03 11.6705 50.0432 11.6328C50.0478 11.6196 50.0863 11.6205 50.0989 11.6111C50.1454 11.5757 50.0179 11.5923 49.9978 11.5826C49.9122 11.5409 50.2008 11.5374 50.1937 11.4883C50.1934 11.4857 50.0395 11.4539 50.03 11.4495C49.9675 11.4217 50.0835 11.4449 50.0949 11.4275C50.1156 11.3957 50.1524 11.3736 50.1073 11.3363C50.094 11.3254 49.9981 11.2993 50.0723 11.2782C50.082 11.2754 50.1328 11.277 50.1358 11.2747C50.1854 11.2343 50.0257 11.2332 49.9715 11.2101C49.9174 11.1869 50.0277 11.1512 50.0595 11.1439C50.1418 11.1249 50.0947 11.1585 50.1027 11.1595C50.1988 11.1716 50.1822 11.1456 50.1904 11.1256C50.347 11.1228 50.3376 11.0949 50.1981 11.105C50.1829 11.1061 50.1975 11.1216 50.1904 11.1256C50.0367 11.1082 50.017 11.0776 50.1606 11.0437C50.2279 11.0279 50.3064 11.0429 50.2777 10.9948C50.2647 10.973 50.1569 10.9814 50.1275 10.9622C50.0604 10.9182 50.161 10.861 50.1451 10.8157C50.1394 10.7992 50.0803 10.8153 50.0744 10.804C50.0583 10.7742 50.1026 10.7478 50.0799 10.7179C50.0778 10.7151 50.016 10.7218 50.0152 10.7125C50.008 10.6418 50.0476 10.5803 50.0487 10.5065C50.0492 10.4708 50.0151 10.4071 50.022 10.3701C50.0335 10.3061 50.1234 10.2274 50.1016 10.1727C50.0876 10.1371 50.0258 10.1449 49.9836 10.1296C49.902 10.1001 50.0482 10.0479 50.0709 10.0409C50.0716 10.0407 50.0862 10.0714 50.1179 10.055C50.1841 10.0455 50.0712 10.0412 50.0709 10.0409C50.0855 10.0363 50.0995 9.97496 50.0877 9.96278C50.0813 9.95617 50.0227 9.95987 50.0204 9.95642C49.968 9.87444 49.9531 9.79233 49.9805 9.70918C49.9817 9.70772 50.0472 9.70992 50.0492 9.70648C50.0783 9.65835 49.9982 9.62753 49.9506 9.58783C49.903 9.54814 49.9189 9.51666 50.0314 9.49316C50.0173 9.46321 50.067 9.42025 50.0972 9.39552C50.1273 9.3708 49.9998 9.36735 49.9973 9.36517C49.9166 9.29732 49.9896 9.25809 50.0009 9.1877C50.0066 9.15423 49.9881 9.08784 49.9741 9.0516C49.9629 9.02297 49.9928 9.00571 49.9737 8.97932C49.9711 8.97575 49.9143 8.97936 49.9121 8.97827C49.8442 8.94882 49.983 8.96297 50.0078 8.95689C50.098 8.93485 50.146 8.92123 50.1036 8.88351C50.0939 8.87481 49.894 8.84947 49.8823 8.83361C49.8675 8.813 49.9391 8.82078 49.9217 8.79919C49.9203 8.79734 49.8761 8.79773 49.8781 8.78441C49.8865 8.72256 49.9123 8.65513 49.9078 8.59086C49.9074 8.58208 49.8373 8.59334 49.8355 8.58065C49.8272 8.52114 49.8298 8.4559 49.8626 8.39791C49.8709 8.38364 49.92 8.39259 49.9346 8.38949C50.0228 8.37047 49.8946 8.3435 49.8922 8.33905C49.8306 8.23288 49.9466 8.15163 49.8913 8.04342C49.8881 8.03753 49.7507 7.99219 49.8686 7.97196C49.8764 7.97058 49.9969 7.95057 49.9145 7.93287C49.9094 7.93177 49.8473 7.94424 49.8536 7.92248C49.8599 7.90072 49.8185 7.86569 49.8867 7.83578C49.9082 7.82631 50.0284 7.80393 49.9325 7.77567C49.9259 7.77383 49.7091 7.73022 49.8587 7.71466C49.8833 7.71213 50.0415 7.71477 49.9604 7.68106C49.9447 7.67461 49.9094 7.68631 49.8873 7.66934C49.8534 7.64333 49.8957 7.60888 49.8252 7.57691C49.8128 7.57134 49.7054 7.54761 49.7869 7.52857C49.7997 7.52559 49.8525 7.53126 49.8584 7.5212C49.8867 7.4734 49.8514 7.42335 49.888 7.37481C49.9008 7.35762 49.9862 7.36641 50.0091 7.34849C50.032 7.33056 50.054 7.29446 50.0149 7.2757C49.9759 7.25695 49.8398 7.27744 49.8289 7.24934C49.7816 7.12718 49.8614 7.00616 49.8731 6.88418C49.8749 6.86609 49.8262 6.88108 49.8252 6.85442C49.8216 6.75613 49.776 6.58642 49.8794 6.50112C49.9623 6.43278 50.0254 6.51878 50.0592 6.46656C50.0753 6.44136 49.917 6.41409 49.912 6.40801C49.8614 6.34858 49.9315 6.30728 49.91 6.25379C49.9056 6.24274 49.8414 6.25358 49.8383 6.24418C49.8272 6.21207 49.8558 6.17832 49.8506 6.14763C49.8481 6.13387 49.7991 6.13641 49.8029 6.12374C49.8114 6.09343 49.832 6.06663 49.8779 6.03708C49.8821 6.03439 49.943 6.05255 49.9453 6.03013C49.9488 5.99383 49.9941 5.94879 49.9473 5.90703C49.9332 5.89464 49.8213 5.89416 49.8986 5.86753C49.9147 5.86194 50.0492 5.86907 49.933 5.83805C49.9137 5.83283 49.757 5.78072 49.858 5.75515C49.8846 5.7484 49.9946 5.73118 49.9773 5.71628C49.9746 5.71426 49.9144 5.72236 49.9086 5.71001C49.8889 5.6665 49.8954 5.62091 49.8765 5.57621C49.8714 5.56427 49.8091 5.58205 49.8035 5.56426C49.7877 5.51534 49.8036 5.45426 49.8231 5.40642C49.8303 5.38879 49.8819 5.40098 49.8875 5.39969C49.9787 5.37906 49.8556 5.36685 49.8484 5.36C49.8054 5.31741 49.8633 5.28497 49.848 5.2457C49.8439 5.23486 49.7852 5.24255 49.7799 5.24039C49.7288 5.21802 49.8342 5.23468 49.8458 5.22052C49.8788 5.18085 49.874 5.13663 49.8665 5.09652C49.8637 5.08178 49.7956 5.09834 49.7938 5.08512C49.7821 5.00685 49.7886 4.92548 49.8262 4.84909C49.8334 4.83471 49.8858 4.84376 49.8978 4.84076C49.9815 4.8201 49.8673 4.78982 49.8564 4.78285C49.8067 4.75118 49.853 4.73887 49.8444 4.71089C49.8013 4.57423 49.832 4.40548 49.851 4.27648C49.8754 4.10837 49.9253 3.97792 49.9123 3.81761C49.9116 3.80742 49.8418 3.8177 49.8403 3.80891C49.8234 3.69552 49.8507 3.58388 49.8306 3.47026C49.829 3.46094 49.7629 3.47438 49.7582 3.45941C49.7482 3.42871 49.7518 3.38983 49.7729 3.35879C49.7831 3.34366 49.8398 3.36396 49.8489 3.34872C49.8701 3.31324 49.8748 3.27521 49.8643 3.23877C49.8596 3.22326 49.792 3.24666 49.7912 3.2265C49.7845 3.08919 49.7728 2.95433 49.8604 2.81557C49.8664 2.80605 50.0039 2.79771 49.9775 2.77748C49.9394 2.77596 49.8945 2.77604 49.8537 2.77537C49.8318 2.57548 49.8794 2.37762 49.8868 2.17717C49.8871 2.16872 49.8142 2.18332 49.8144 2.16696C49.8155 2.07225 49.7953 1.98029 49.8677 1.88342C49.8748 1.87381 50.0029 1.87874 49.9835 1.85041C49.98 1.84542 49.9629 1.80276 49.9351 1.79173C49.9309 1.79023 49.8711 1.79801 49.8694 1.78427C49.8603 1.70438 49.8739 1.62067 49.9105 1.54092C49.9165 1.52805 49.9802 1.54176 49.985 1.53259C50.0188 1.46756 49.9704 1.39683 50.0282 1.3347C50.0672 1.29311 50.1772 1.3085 50.2856 1.2864C50.3009 1.28328 50.3033 1.25752 50.3663 1.25619C50.5248 1.25277 50.6984 1.26525 50.8674 1.26013C50.9038 1.25905 50.8646 1.22455 50.9525 1.24497C50.9584 1.2464 50.9876 1.27141 51.0174 1.27757C51.0381 1.28186 51.1022 1.27413 51.1286 1.28288C51.155 1.29163 51.1012 1.30124 51.1323 1.31575C51.1637 1.33024 51.2366 1.32387 51.2452 1.35282ZM50.232 9.28419C50.2933 9.2613 50.0689 9.25792 50.1226 9.28268C50.1255 9.28388 50.229 9.28537 50.232 9.28419ZM50.2674 12.0542C50.3664 12.0242 50.2209 12.0038 50.1445 12.0249C50.0682 12.046 50.2375 12.0633 50.2674 12.0542ZM50.3397 12.3645C50.4177 12.3296 50.0996 12.3241 50.1639 12.3615C50.1675 12.3637 50.3352 12.3666 50.3397 12.3645ZM50.3164 1.3889C50.3194 1.38858 50.3223 1.37007 50.3194 1.36962C50.2481 1.35977 50.2424 1.39679 50.3164 1.3889ZM50.4183 12.6725C50.4614 12.6616 50.4117 12.6302 50.3582 12.6437C50.3151 12.6547 50.3648 12.6861 50.4183 12.6725ZM50.4714 8.08993C50.4748 8.08957 50.4778 8.0763 50.4589 8.07656C50.398 8.07747 50.4152 8.09593 50.4714 8.08993ZM50.422 13.196C50.434 13.1186 50.6967 13.0717 50.6671 13.156C50.6617 13.1712 50.5833 13.1231 50.5596 13.1425C50.5164 13.178 50.6814 13.2016 50.593 13.2379C50.5768 13.2444 50.4207 13.2004 50.4216 13.1958C50.4217 13.1959 50.4219 13.1959 50.422 13.196ZM50.5015 9.27101C50.5044 9.27055 50.5072 9.25218 50.5043 9.25174C50.4331 9.24179 50.4274 9.2788 50.5015 9.27101ZM50.6101 7.31544C50.6164 7.31443 50.6224 7.27179 50.6165 7.27039C50.5001 7.24815 50.4878 7.33436 50.6101 7.31544ZM50.6656 10.5084C50.7373 10.5285 50.7457 10.5525 50.6557 10.5685C50.6605 10.5485 50.6612 10.5285 50.6656 10.5084ZM93.9172 7.9809C93.3917 8.00044 92.7028 7.97955 92.1792 7.95087C92.0152 7.94198 92.0982 7.90222 91.985 7.89429C91.7634 7.87883 91.5571 7.89833 91.3381 7.87992C91.2656 7.87362 91.3559 7.81065 91.2798 7.80548C90.863 7.77765 90.4686 7.79369 90.0463 7.78031C87.9662 7.71426 85.9214 7.69062 83.8159 7.66193C83.1216 7.65252 82.2776 7.59537 81.5605 7.62037C81.4768 7.62334 81.5267 7.67861 81.5108 7.68317C81.261 7.75291 81.3441 7.64133 81.181 7.6265C80.5336 7.56796 79.8137 7.56287 79.1907 7.5842C78.9257 7.59344 79.1914 7.70323 78.9246 7.64161C78.906 7.63744 78.9733 7.57874 78.9006 7.57248C78.7358 7.5584 78.423 7.56889 78.2953 7.56424C78.0491 7.55498 78.0083 7.55557 77.7754 7.55491C77.4571 7.55348 77.0784 7.5243 76.7369 7.5376C76.664 7.54062 76.7605 7.60079 76.6442 7.61103C76.5278 7.62125 76.2199 7.61615 76.1161 7.60196C76.0123 7.58777 76.0565 7.54048 76.0382 7.52964C75.887 7.43814 75.5309 7.56486 75.4851 7.568C74.6496 7.6214 73.9331 7.54921 73.1489 7.54941C72.5535 7.54972 71.9169 7.57355 71.3504 7.57029C70.6755 7.56616 70.1035 7.53355 69.4478 7.53916C69.3787 7.53968 69.4597 7.61043 69.3752 7.61121C68.4773 7.61944 67.5857 7.61173 66.6917 7.56397C66.602 7.55912 66.7175 7.497 66.628 7.48844C66.0795 7.43739 65.2118 7.31476 64.886 7.58521C64.5145 7.57465 64.0635 7.56374 63.7312 7.50922C63.5169 7.47413 63.725 7.40646 63.4618 7.43534C63.4024 7.44177 63.4796 7.50103 63.3906 7.5062C63.0158 7.52789 62.6062 7.50863 62.2354 7.53925C62.16 7.54562 62.1806 7.59872 62.1592 7.60828C61.9796 7.68572 61.6806 7.55771 61.6154 7.5484C61.119 7.47904 60.7566 7.50634 60.2942 7.50464C60.1869 7.50422 60.3137 7.57555 60.2105 7.5777C59.675 7.58792 59.1202 7.58179 58.5959 7.55014C58.4793 7.54293 58.5865 7.48217 58.5308 7.47562C58.285 7.44746 58.2305 7.56221 57.9949 7.53742C57.9452 7.53234 57.9732 7.48033 57.9641 7.47461C57.8222 7.38494 57.699 7.512 57.6625 7.5148C57.201 7.55313 56.9059 7.42049 56.4601 7.43927C56.4067 7.44165 56.527 7.50747 56.3771 7.51013C55.3781 7.5283 54.3217 7.51022 53.3329 7.45758C53.1791 7.44949 53.2889 7.40005 53.2792 7.39395C53.1215 7.29873 53.0195 7.42632 52.9694 7.43113C52.5739 7.46571 52.2045 7.35871 51.9358 7.51068C50.261 7.45795 48.5939 7.54328 46.9329 7.40714C46.9118 7.40556 46.9496 7.34272 46.9075 7.33985C46.4002 7.30456 46.4976 7.40223 46.1619 7.52167C46.0774 7.55166 45.8201 7.40745 45.7974 7.39688C45.7144 7.35793 45.8004 7.26444 45.7727 7.2569C45.5429 7.19766 45.5803 7.50683 45.2704 7.50693C45.2607 7.50641 45.3014 7.44951 45.2754 7.44385C45.1946 7.42609 45.1144 7.4487 45.0353 7.42911C44.8543 7.38378 44.7898 7.23356 44.5134 7.32099C44.4784 7.33233 44.5318 7.50771 44.2551 7.49942C44.1447 7.49597 43.6564 7.49898 43.5195 7.48761C43.3828 7.47626 43.4767 7.41975 43.4669 7.4173C43.0986 7.34257 43.2382 7.3116 43.0537 7.20096C42.8692 7.09074 42.9204 7.35363 42.8451 7.38297C42.7698 7.41223 42.4997 7.35057 42.4333 7.32914C42.367 7.30769 42.4497 7.27178 42.3908 7.25965C41.9997 7.18037 42.2191 7.39013 42.0902 7.43186C41.7864 7.53065 41.5498 7.3357 41.2717 7.31659C41.1964 7.31143 41.2579 7.35584 41.1908 7.35999C40.9254 7.37585 40.7658 7.31501 40.4639 7.37079C40.4145 7.37988 40.1704 7.49709 40.0124 7.41107C39.99 7.39867 40.0536 7.35009 39.9405 7.33921C39.7715 7.32287 39.467 7.31226 39.2854 7.32849C39.1513 7.34051 39.305 7.42056 39.1362 7.39569C39.0612 7.38459 39.2002 7.33776 39.0593 7.3208C38.9191 7.30385 38.5607 7.30591 38.4243 7.30753C38.2881 7.30918 38.3627 7.3699 38.3516 7.374C38.2851 7.39743 38.0238 7.42671 38.0007 7.42664C36.836 7.43405 35.762 7.3317 34.6281 7.36557C34.5391 7.36814 34.5984 7.43218 34.5848 7.43323C34.2801 7.46006 34.5203 7.28981 34.3075 7.23282C34.3383 7.36277 34.2127 7.33924 33.9981 7.35349C33.8946 7.36046 33.951 7.41078 33.9415 7.41593C33.7882 7.49235 33.6814 7.39364 33.6539 7.37345C33.5523 7.29917 33.4418 7.38693 33.3727 7.33728C33.3036 7.288 33.4626 7.21495 33.2568 7.21588C33.1991 7.2624 33.3519 7.38396 33.1956 7.40366C32.606 7.47818 31.5055 7.3828 31.0315 7.3729C30.5584 7.363 30.4056 7.37158 30.13 7.35477C29.632 7.32437 29.8145 7.41456 29.5053 7.45584C29.1952 7.49712 29.346 7.27522 29.3014 7.22751C29.2576 7.17983 29.2098 7.22891 29.1554 7.2027C29.1012 7.17649 29.2186 7.14406 29.091 7.13422C28.9634 7.12439 28.6143 7.20922 28.569 7.2591C28.4734 7.36477 28.6307 7.47568 28.2928 7.43671C28.2734 7.4344 28.3365 7.37605 28.2621 7.37015C27.6712 7.32523 27.0574 7.32245 26.4672 7.28272C26.386 7.27716 26.4586 7.21225 26.4114 7.20829C25.9195 7.16677 26.0953 7.27622 25.8257 7.3978C25.8863 7.236 25.7372 7.13701 25.3639 7.13605C25.1394 7.13542 25.1781 7.20609 25.0329 7.25589C24.9894 7.27091 24.8306 7.22238 24.8018 7.25562C24.7069 7.36425 24.8565 7.48587 24.4716 7.43744C24.4547 7.43514 24.5085 7.37567 24.4501 7.37207C24.073 7.3485 24.0278 7.46213 23.6201 7.47589C23.3006 7.48669 22.7322 7.4174 22.3683 7.40613C22.376 7.22422 22.0323 7.26587 21.8929 7.3913C21.6567 7.38616 21.4016 7.39325 21.1734 7.37592C21.0948 7.37001 21.1465 7.31734 21.1366 7.31165C20.9847 7.22238 20.882 7.3444 20.831 7.34918C20.2786 7.39569 19.8285 7.3032 19.3013 7.39359C19.2825 7.39684 19.2522 7.5232 19.1113 7.43094C19.1021 7.42458 19.2763 7.36709 19.0283 7.36264C18.7802 7.35819 18.3126 7.29045 17.9682 7.349C17.8849 7.3631 17.6741 7.46568 17.5049 7.38553C17.4824 7.37465 17.5071 7.33841 17.4745 7.31824C17.3693 7.25398 17.3119 7.3817 17.1883 7.2732C17.0647 7.1647 16.8076 7.08344 16.4603 7.1583C16.4492 7.16047 16.367 7.2617 16.2578 7.2601C16.0834 7.25746 15.8359 7.23637 15.6539 7.23703C15.5667 7.23738 15.6225 7.30024 15.6074 7.30139C15.0213 7.33662 14.6042 7.28058 13.9763 7.25626C13.8613 7.25168 13.5305 7.33739 13.3077 7.26962C13.063 7.19544 13.3144 6.88684 12.7521 6.96036C12.5253 6.98977 12.2381 7.38128 11.8305 7.17844C11.04 7.2287 10.3089 7.12489 9.51614 7.19666C9.48048 7.19984 9.36777 7.30911 9.28395 7.30762C9.15953 7.3052 9.09124 7.25413 9.0024 7.25076C8.63012 7.23538 8.28947 7.27908 7.93054 7.27228C7.7943 7.26981 7.84191 7.217 7.6794 7.21405C7.51695 7.21115 7.40868 7.28069 7.18855 7.2471C7.0223 7.2215 6.85611 7.07937 6.63545 7.06281C6.62703 7.203 6.4755 7.20012 6.20614 7.23712C6.15437 7.2443 6.20988 7.2931 6.18539 7.29901C6.0857 7.32416 5.99348 7.28372 5.89882 7.3111C5.8758 7.31767 5.87471 7.36555 5.85588 7.37363C5.69584 7.44414 5.43215 7.33644 5.38686 7.31769C5.21329 7.24648 5.13219 7.30875 4.99905 7.2807C4.86615 7.25266 5.06486 7.21761 4.90961 7.20059C4.58778 7.1654 4.17429 7.17313 3.84741 7.17093C3.717 7.17035 3.80599 7.23426 3.78731 7.23566C3.51764 7.25187 3.24494 7.18389 3.09541 7.31119C2.90843 6.98203 2.93278 7.34312 2.54732 7.27722C2.51695 7.27189 2.47833 7.11624 2.59489 7.09339C2.71148 7.07056 2.88825 7.11921 3.04996 7.08359C3.08827 7.07523 3.30769 6.92937 3.33761 6.92053C3.57209 6.85148 3.60533 7.08409 3.61773 7.09687C3.75842 7.23474 4.02653 7.0776 4.09714 7.06674C4.42012 7.01699 4.69456 7.04971 4.96471 7.01419C5.14139 6.99124 5.15868 6.83888 5.29742 6.84354C5.75864 6.85895 5.91963 7.07151 6.35424 6.88721C6.44743 6.8479 6.35483 6.68137 6.68875 6.81232C6.70972 6.82058 6.95765 6.94037 7.10089 6.8646C7.11888 6.85504 7.11832 6.80651 7.14204 6.80243C7.30104 6.77606 7.40707 6.81472 7.5803 6.79621C7.75349 6.77769 7.96176 6.75008 8.15951 6.76654C8.27869 6.77639 8.43161 6.86681 8.48865 6.88895C8.64974 6.95272 8.82246 6.84816 8.92226 6.92539C9.02289 7.003 8.82616 7.12087 9.09004 7.17102C9.09982 7.04493 9.12228 6.91551 9.13798 6.7887C9.71631 6.79314 10.2854 6.83391 10.8656 6.82834C10.9375 6.82753 10.864 6.75974 10.9411 6.75711C11.2665 6.74635 11.5507 6.79467 11.8881 6.77542C12.1493 6.76027 12.4357 6.6885 12.7088 6.67041C12.8756 6.8147 13.2809 6.76572 13.5753 6.7789C13.6784 6.78346 13.6715 6.822 13.7449 6.83457C14.0216 6.88106 13.8919 6.75356 13.9678 6.73349C14.2932 6.64786 14.3211 6.93646 14.7047 6.92932C14.7251 6.92904 14.9735 6.77521 15.0078 6.76563C15.2252 6.70316 15.0438 6.81917 15.1798 6.83054C15.4283 6.85131 15.601 6.88805 15.8925 6.84299C15.9775 6.82964 16.1814 6.73376 16.3465 6.80793C16.3682 6.81764 16.3562 6.86849 16.3737 6.87146C16.6901 6.9211 16.6984 6.76133 16.8792 6.70722C17.06 6.65312 17.3393 6.76341 17.3962 6.7952C17.5449 6.87743 17.2822 6.83034 17.2742 6.83841C17.1796 6.93445 17.3833 6.91791 17.5389 6.92603C17.5614 7.08269 17.7791 7.07328 17.7003 6.93381C17.6913 6.91858 17.5702 6.93319 17.5389 6.92603C17.6755 6.77233 17.9148 6.75264 18.179 6.89627C18.3026 6.96359 18.1857 7.04208 18.5614 7.01337C18.7319 7.00041 18.666 6.89254 18.8165 6.86313C19.1603 6.79603 19.6069 6.89666 19.9613 6.8808C20.0899 6.87505 19.9646 6.816 20.0525 6.81003C20.2858 6.79401 20.4916 6.83831 20.7259 6.81562C20.7471 6.81349 20.6952 6.75168 20.7681 6.75089C21.3204 6.74371 21.8013 6.7833 22.378 6.7844C22.6566 6.7849 23.1547 6.75081 23.4434 6.75766C23.9437 6.76918 24.5591 6.85906 24.9864 6.83722C25.2652 6.82325 25.204 6.76143 25.3234 6.7193C25.5539 6.63766 25.9618 6.78391 26.0168 6.80655C26.0184 6.8073 25.7786 6.82188 25.9066 6.85361C25.981 6.91974 26.0141 6.80684 26.0168 6.80655C26.0529 6.82118 26.532 6.83522 26.6271 6.8234C26.6788 6.81694 26.6499 6.75837 26.6768 6.75611C27.3175 6.70369 27.9593 6.6888 28.6091 6.71619C28.6205 6.71737 28.6033 6.78289 28.6302 6.78486C29.0064 6.81399 29.2473 6.73384 29.5575 6.68625C29.8678 6.63869 30.1138 6.65462 30.2974 6.76709C30.5314 6.75293 30.8672 6.80266 31.0605 6.83283C31.2537 6.863 31.2807 6.73547 31.2977 6.73295C31.828 6.65225 32.1345 6.72525 32.6847 6.73661C32.9463 6.74223 33.4651 6.72373 33.7483 6.70978C33.9722 6.69855 34.107 6.72844 34.3132 6.70933C34.3411 6.70677 34.313 6.64999 34.3215 6.6478C34.5516 6.57986 34.441 6.71868 34.4885 6.74347C34.6608 6.83363 34.7673 6.88165 35.062 6.83924C35.13 6.82952 35.3281 6.62965 35.452 6.61796C35.6131 6.60312 35.5523 6.67477 35.721 6.65741C35.7355 6.656 35.7325 6.6118 35.8366 6.61374C36.3199 6.62221 36.8469 6.64793 37.3492 6.6435C37.4178 6.64306 37.3298 6.57296 37.429 6.57117C37.8941 6.56286 38.404 6.56546 38.8572 6.59827C38.9687 6.60657 38.8988 6.65566 38.923 6.67023C39.0717 6.75842 39.2825 6.63029 39.3172 6.62784C40.147 6.56627 40.782 6.68223 41.6277 6.62702C41.6737 6.62378 42.028 6.48641 42.1861 6.60422C42.197 6.61206 42.3534 6.73259 42.4917 6.65018C42.5002 6.64503 42.4028 6.58298 42.5729 6.5893C42.743 6.59561 43.0167 6.55417 43.2505 6.62235C43.3245 6.64383 43.4994 6.76406 43.7202 6.66822C43.7346 6.66153 44.0754 6.44481 44.1971 6.59434C44.2168 6.61895 44.1962 6.77718 44.4597 6.69605C44.51 6.68032 44.4186 6.64503 44.5513 6.62299C44.7545 6.58903 45.0238 6.6314 45.2736 6.56092C45.3172 6.54844 45.5026 6.44105 45.6514 6.52256C45.6747 6.53532 45.6304 6.58815 45.709 6.59406C46.0826 6.62242 46.4738 6.58708 46.8531 6.62363C46.9875 6.63647 46.9188 6.72187 47.0588 6.74476C47.1989 6.76763 47.4811 6.78964 47.6277 6.75062C47.7743 6.71157 47.6141 6.57547 47.8337 6.56458C48.7885 6.51728 49.7343 6.59712 50.6876 6.6088C50.829 6.61055 50.7118 6.56184 50.9201 6.56092C51.6884 6.5573 53.0147 6.51163 53.6813 6.61512C54.2155 6.698 53.5433 6.76111 53.9514 6.79484C54.1484 6.81093 54.3615 6.65269 54.409 6.64771C54.8735 6.59711 55.1963 6.6672 55.6143 6.6457C55.7006 6.64123 55.616 6.5771 55.6894 6.57401C55.9404 6.56289 56.2042 6.59152 56.444 6.58628C56.5515 6.58378 56.5317 6.5348 56.6307 6.53858C56.8676 6.54706 57.077 6.56765 57.308 6.61356C57.329 6.61775 57.1871 6.67868 57.3623 6.68094C57.646 6.68444 57.998 6.72973 58.3244 6.68296C58.4212 6.66889 58.425 6.55694 58.6331 6.63425C58.6768 6.6504 58.6211 6.78483 58.8635 6.66868C58.9043 6.64938 59.3115 6.49271 59.5114 6.5937C59.5641 6.62027 59.6987 6.73028 59.8151 6.71299C59.8309 6.71023 59.7677 6.6501 59.8642 6.64423C60.2042 6.62461 60.5606 6.63102 60.9099 6.61219C61.0032 6.60704 60.8642 6.54482 61.0033 6.53913C61.3856 6.5234 61.8629 6.53925 62.2368 6.55872C62.3747 6.56602 62.2794 6.61757 62.2894 6.62318C62.4507 6.71441 62.5461 6.59126 62.5996 6.58408C62.9325 6.54108 63.186 6.59893 63.4929 6.58362C63.5776 6.57956 63.5176 6.52084 63.5344 6.5156C63.7093 6.46444 63.579 6.5699 63.6897 6.58152C63.9997 6.61443 64.3453 6.60971 64.6589 6.60221C64.774 6.59937 64.6446 6.53128 64.7479 6.52952C65.3597 6.51778 65.9956 6.5243 66.5926 6.56184C66.705 6.56903 66.6342 6.62145 66.6577 6.63343C66.8191 6.71721 67.0558 6.60293 67.1102 6.59205C67.3578 6.54234 67.454 6.58871 67.6726 6.58005C68.7407 6.53697 70.0596 6.56768 71.0678 6.58665C72.3816 6.61106 73.4011 6.66094 74.654 6.64799C74.7336 6.64723 74.6533 6.57748 74.722 6.57593C75.6082 6.55912 76.4807 6.58637 77.3687 6.56623C77.4415 6.5647 77.3365 6.49858 77.4535 6.4939C77.6934 6.48385 77.9973 6.48744 78.2398 6.50855C78.3581 6.51872 78.1994 6.57546 78.3185 6.58454C78.5958 6.60581 78.893 6.61052 79.1779 6.59992C79.2991 6.59527 79.1162 6.52764 79.2737 6.52686C80.3469 6.52015 81.4009 6.50851 82.4854 6.59608C82.5597 6.60209 82.6249 6.73953 82.783 6.71317C82.7949 6.67503 82.7943 6.63016 82.7995 6.58939C84.3617 6.56743 85.908 6.61508 87.4747 6.62244C87.5407 6.62274 87.4266 6.54992 87.5545 6.55012C88.2946 6.55119 89.0134 6.53102 89.7704 6.6034C89.8456 6.61048 89.807 6.73859 90.0284 6.71922C90.0674 6.71568 90.4008 6.69859 90.487 6.67078C90.4987 6.66659 90.4379 6.60679 90.5453 6.60505C91.1697 6.59597 91.824 6.60962 92.4472 6.64616C92.5478 6.65217 92.4407 6.71585 92.5123 6.72068C93.0205 6.75448 93.5733 6.70608 94.0589 6.76389C94.384 6.80282 94.2636 6.9129 94.4364 7.02125C94.4608 7.03653 94.6621 7.03896 94.6725 7.102C94.6992 7.26052 94.6017 7.4341 94.6417 7.60306C94.6502 7.63946 94.9197 7.60026 94.7601 7.68821C94.749 7.69409 94.5535 7.72328 94.5054 7.75312C94.4719 7.77374 94.5323 7.83786 94.4639 7.86426C94.3955 7.89064 94.3204 7.8369 94.207 7.86792C94.0937 7.89933 94.1435 7.97227 93.9172 7.9809ZM31.9306 6.96769C32.1095 7.02893 32.1359 6.80461 31.9424 6.85828C31.933 6.86114 31.9213 6.96468 31.9306 6.96769ZM10.2821 7.00312C10.516 7.10206 10.6761 6.95657 10.5111 6.88016C10.3461 6.80383 10.2108 6.97312 10.2821 7.00312ZM7.85649 7.07535C8.12986 7.15336 8.1729 6.83527 7.8801 6.89957C7.86308 6.9032 7.8405 7.07082 7.85649 7.07535ZM93.6353 7.0521C93.6378 7.05508 93.7825 7.05798 93.7859 7.05503C93.863 6.98379 93.5737 6.97803 93.6353 7.0521ZM5.44948 7.15399C5.53481 7.19702 5.78055 7.14735 5.67451 7.09384C5.58915 7.0508 5.34317 7.10047 5.44948 7.15399ZM41.2642 7.2071C41.267 7.21044 41.3707 7.21345 41.3686 7.19455C41.3616 7.1337 41.2172 7.15087 41.2642 7.2071ZM1.35847 7.15766C1.96291 7.16963 2.32937 7.43239 1.67116 7.40274C1.55196 7.39738 1.92805 7.31895 1.77634 7.29526C1.49876 7.2521 1.31441 7.41708 1.03112 7.32868C0.979866 7.31249 1.32397 7.15639 1.35956 7.15729C1.35918 7.15741 1.35884 7.15753 1.35847 7.15766ZM32.0336 7.23712C32.0372 7.24009 32.1808 7.2429 32.1842 7.23996C32.262 7.16875 31.9727 7.16304 32.0336 7.23712ZM47.3171 7.3458C47.3251 7.35212 47.6583 7.35803 47.6692 7.35221C47.843 7.23575 47.1693 7.22345 47.3171 7.3458ZM22.3626 7.40128C22.2059 7.47292 22.0185 7.48136 21.8936 7.39139C22.0493 7.39617 22.206 7.39687 22.3626 7.40128Z" fill="black"/>
</svg>
