<svg width="15" height="100" viewBox="0 0 15 100" fill="none" xmlns="http://www.w3.org/2000/svg">
<path d="M2.37214 0.00762737C3.62737 -0.0119122 5.27278 0.00898027 6.52327 0.0376565C6.91517 0.0465505 6.71673 0.0863066 6.98726 0.094236C7.51637 0.109694 8.00931 0.0901957 8.53218 0.10861C8.70547 0.114907 8.48977 0.177881 8.67147 0.183042C9.66716 0.210873 10.6091 0.194832 11.6178 0.208219C12.4936 0.219861 13.3667 0.230186 14.2385 0.239453L14.7456 0.236057L14.7491 0.75C14.7058 4.8238 14.6856 8.86771 14.6619 13.0102C14.6525 14.6685 14.5954 16.6842 14.6204 18.397C14.6233 18.5969 14.6786 18.4777 14.6832 18.5158C14.7529 19.1124 14.6413 18.914 14.6265 19.3036C14.568 20.8498 14.5629 22.5691 14.5842 24.0571C14.5934 24.6902 14.7032 24.0555 14.6416 24.6929C14.6374 24.7372 14.5787 24.5765 14.5725 24.7501C14.5584 25.1439 14.5689 25.8908 14.5642 26.1959C14.555 26.784 14.5556 26.8813 14.5549 27.4375C14.5535 28.1979 14.5243 29.1023 14.5376 29.9181C14.5406 30.0923 14.6008 29.8617 14.611 30.1394C14.6212 30.4174 14.6161 31.1528 14.602 31.4007C14.5878 31.6486 14.5405 31.5431 14.5296 31.5869C14.4381 31.948 14.5649 32.7986 14.568 32.908C14.6214 34.9035 14.5492 36.6147 14.5494 38.4878C14.5497 39.9098 14.5736 41.4303 14.5703 42.7834C14.5662 44.3954 14.5336 45.7616 14.5392 47.3276C14.5397 47.4929 14.6104 47.2992 14.6112 47.501C14.6194 49.6456 14.6117 51.7753 14.564 53.9106C14.5591 54.1247 14.497 53.8488 14.4884 54.0627C14.4374 55.3726 14.3148 57.4452 14.5852 58.2232C14.5746 59.1105 14.5637 60.1877 14.5092 60.9815C14.4741 61.4933 14.4065 60.9963 14.4353 61.625C14.4418 61.7668 14.501 61.5824 14.5062 61.795C14.5279 62.6903 14.5086 63.6685 14.5392 64.5542C14.5456 64.7343 14.5987 64.6851 14.6083 64.7362C14.6857 65.1652 14.5577 65.8793 14.5484 66.035C14.479 67.2205 14.5063 68.0863 14.5046 69.1907C14.5042 69.4469 14.5755 69.144 14.5777 69.3906C14.5879 70.6696 14.5818 71.9946 14.5501 73.2469C14.5429 73.5255 14.4822 73.2693 14.4756 73.4025C14.4475 73.9894 14.5622 74.1196 14.5374 74.6825C14.5323 74.8012 14.4803 74.7343 14.4746 74.756C14.3849 75.0948 14.512 75.3892 14.5148 75.4763C14.5531 76.5787 14.4205 77.2833 14.4393 78.3483C14.4417 78.4757 14.5075 78.1884 14.5101 78.5465C14.5283 80.9324 14.5102 83.4558 14.4576 85.8174C14.4495 86.1846 14.4001 85.9225 14.394 85.9456C14.2987 86.3222 14.4263 86.5658 14.4311 86.6856C14.4657 87.6301 14.3587 88.5124 14.5107 89.1542C14.4684 92.364 14.515 95.562 14.4647 98.75L14.4662 98.9746L14.2385 98.9762C13.4534 98.9638 12.669 98.9455 11.8851 98.9186C11.8346 98.917 11.925 98.8542 11.8244 98.8513C10.6127 98.816 10.8454 98.9137 10.0436 99.0331C9.84167 99.0631 9.22728 98.9189 9.17291 98.9084C8.97486 98.8694 9.18028 98.7759 9.11395 98.7684C8.56515 98.7091 8.65458 99.0183 7.91424 99.0184C7.89108 99.0179 7.98833 98.961 7.92621 98.9553C7.73317 98.9376 7.54174 98.9602 7.35284 98.9406C6.92049 98.8953 6.7665 98.745 6.10613 98.8325C6.02255 98.8438 6.15019 99.0192 5.48919 99.0109C5.22568 99.0074 4.05926 99.0105 3.73235 98.9991C3.40584 98.9877 3.63002 98.9312 3.60674 98.9288C2.72698 98.854 3.06057 98.8231 2.6198 98.7124C2.17908 98.6022 2.3013 98.8651 2.12163 98.8944C1.94165 98.9237 1.29663 98.862 1.13811 98.8406C0.979691 98.8192 1.17728 98.7833 1.03642 98.7711C0.102341 98.6918 0.626422 98.9016 0.318647 98.9433C0.291721 98.947 0.265019 98.9503 0.238525 98.9531L0.0367544 98.9545L0.0353851 98.75C-0.0393767 98.0624 0.142063 97.5147 0.160457 96.875C0.165616 96.6953 0.121214 96.842 0.117061 96.6819C0.101203 96.048 0.162035 95.6668 0.106258 94.9456C0.0971691 94.8276 -0.0200437 94.2446 0.0659752 93.8672C0.0783789 93.8138 0.126961 93.9656 0.137844 93.6955C0.154176 93.2919 0.164795 92.5647 0.148555 92.1309C0.136541 91.8106 0.056488 92.1777 0.081356 91.7746C0.09246 91.5954 0.139291 91.9275 0.156246 91.5909C0.173195 91.256 0.171138 90.3999 0.169521 90.0741C0.167868 89.7489 0.107145 89.9269 0.103054 89.9007C0.0796199 89.7416 0.050339 89.1176 0.0504113 89.0624C0.0429984 86.2807 0.145354 83.7155 0.111477 81.0071C0.108906 80.7945 0.0448718 80.9361 0.0438195 80.9037C0.0169905 80.1761 0.187242 80.7497 0.244228 80.2415C0.114284 80.3149 0.137813 80.0149 0.123562 79.5023C0.116589 79.2553 0.0662736 79.3899 0.0611229 79.3673C-0.0152999 79.001 0.0834102 78.746 0.103603 78.6803C0.177884 78.4377 0.0901162 78.1738 0.139766 78.0087C0.189046 77.8437 0.262101 78.2234 0.261165 77.7318C0.214649 77.594 0.0930919 77.9589 0.0733909 77.5857C-0.00112879 76.1776 0.0942454 73.5491 0.104153 72.4169C0.114051 71.2869 0.105469 70.922 0.12228 70.2635C0.152675 69.0742 0.0624876 69.5101 0.021206 68.7716C-0.0200707 68.0309 0.201834 68.391 0.249538 68.2845C0.29722 68.18 0.248136 68.0659 0.274349 67.9359C0.300555 67.8063 0.332989 68.0868 0.34283 67.7821C0.35266 67.4771 0.267832 66.6435 0.217952 66.5354C0.112279 66.3069 0.00137079 66.6826 0.0403405 65.8757C0.0426532 65.8293 0.101002 65.9799 0.106899 65.8022C0.151818 64.3909 0.154603 62.9248 0.194332 61.5152C0.199886 61.3214 0.264797 61.4947 0.268764 61.3819C0.310282 60.2071 0.200834 60.627 0.0792503 59.9831C0.241052 60.1277 0.340043 59.7716 0.340999 58.88C0.34163 58.344 0.270963 58.4362 0.221157 58.0896C0.206142 57.9855 0.254665 57.6063 0.221431 57.5376C0.112795 57.3109 -0.00881629 57.6682 0.0396081 56.7489C0.0419094 56.7085 0.101375 56.837 0.104977 56.6976C0.128549 55.7967 0.0149172 55.6889 0.00115603 54.7152C-0.00964174 53.9519 0.0596496 52.5944 0.070919 51.7253C0.252831 51.7436 0.211176 50.9227 0.0857505 50.5897C0.0908854 50.0256 0.0837949 49.4164 0.101131 48.8713C0.107042 48.6837 0.15971 48.8069 0.165401 48.7833C0.254673 48.4205 0.132649 48.1753 0.127865 48.0535C0.0813616 46.734 0.173846 45.659 0.0834617 44.3997C0.0802063 44.355 -0.0461555 44.2826 0.0461083 43.946C0.0524682 43.9242 0.109961 44.3401 0.114406 43.7477C0.118862 43.1553 0.186601 42.0384 0.128048 41.2159C0.113951 41.0168 0.0113711 40.5134 0.0915183 40.1093C0.102402 40.0555 0.138643 40.1144 0.158809 40.0367C0.223069 39.7855 0.0953482 39.6483 0.203853 39.3531C0.312353 39.0578 0.393612 38.4437 0.318751 37.6142C0.316575 37.5877 0.215344 37.3914 0.216945 37.1305C0.219587 36.7141 0.240676 36.1229 0.240016 35.6881C0.239664 35.48 0.176805 35.6132 0.175655 35.5771C0.140431 34.1773 0.19647 33.181 0.22079 31.6814C0.225373 31.4065 0.139655 30.6166 0.207424 30.0844C0.281609 29.5 0.59021 30.1005 0.516688 28.7573C0.487281 28.2156 0.0957651 27.5297 0.29861 26.5562C0.248346 24.668 0.352162 22.9218 0.280391 21.0284C0.277211 20.9433 0.167942 20.6741 0.169429 20.4739C0.171849 20.1767 0.222919 20.0136 0.226283 19.8014C0.241667 18.9123 0.197972 18.0986 0.204769 17.2413C0.207238 16.9159 0.260045 17.0297 0.262996 16.6415C0.265898 16.2535 0.196362 15.9948 0.229946 15.4691C0.255544 15.0721 0.397674 14.6751 0.414241 14.1481C0.274045 14.128 0.276933 13.766 0.239925 13.1227C0.232744 12.999 0.183949 13.1316 0.178035 13.0731C0.152886 12.835 0.193327 12.6147 0.16595 12.3887C0.159375 12.3336 0.111498 12.3311 0.10342 12.2861C0.0329115 11.9038 0.140607 11.2741 0.159359 11.1659C0.230573 10.7513 0.168302 10.5576 0.196346 10.2396C0.224386 9.92214 0.259438 10.3968 0.276454 10.026C0.311649 9.2573 0.303917 8.26967 0.306117 7.48899C0.3067 7.17751 0.24279 7.39002 0.24139 7.34544C0.22518 6.70134 0.293162 6.04998 0.165859 5.69285C0.495016 5.24628 0.133932 5.30444 0.199825 4.38376C0.205154 4.31125 0.36081 4.21897 0.383662 4.49742C0.406492 4.77582 0.357837 5.19804 0.393458 5.58433C0.401818 5.67581 0.547678 6.19985 0.556513 6.27134C0.625566 6.83142 0.392959 6.91077 0.380183 6.9404C0.24231 7.27642 0.399446 7.9168 0.410304 8.08542C0.460055 8.85691 0.427343 9.51232 0.462855 10.1576C0.485807 10.5796 0.638173 10.6209 0.633509 10.9523C0.618094 12.0538 0.405542 12.4384 0.589838 13.4764C0.629145 13.699 0.795677 13.4778 0.664728 14.2754C0.656473 14.3255 0.536679 14.9176 0.612452 15.2598C0.622006 15.3027 0.670539 15.3014 0.674616 15.358C0.700988 15.7378 0.662323 15.9911 0.680841 16.4048C0.699359 16.8184 0.726966 17.3159 0.710504 17.7882C0.700661 18.0728 0.610237 18.4381 0.588099 18.5743C0.524325 18.9591 0.628887 19.3716 0.551661 19.61C0.474046 19.8503 0.356175 19.3804 0.306026 20.0107C0.432119 20.0341 0.56154 20.0877 0.688349 20.1252C0.683909 21.5066 0.643136 22.8657 0.648706 24.2516C0.649523 24.4234 0.717311 24.2477 0.719934 24.4319C0.730703 25.209 0.68238 25.8878 0.701624 26.6937C0.716779 27.3176 0.788552 28.0016 0.806634 28.654C0.662349 29.0524 0.71133 30.0204 0.698145 30.7235C0.693589 30.9699 0.655053 30.9534 0.642481 31.1286C0.595985 31.7894 0.723489 31.4797 0.743555 31.6609C0.829192 32.4382 0.540593 32.5047 0.547724 33.4212C0.548004 33.4697 0.70184 34.0632 0.71142 34.1449C0.773888 34.6643 0.657876 34.2309 0.646509 34.556C0.625738 35.1494 0.588999 35.5618 0.634058 36.2581C0.647404 36.4611 0.743289 36.9482 0.669123 37.3424C0.659411 37.3943 0.608563 37.3657 0.605585 37.4074C0.555947 38.1631 0.715719 38.183 0.76983 38.6148C0.823929 39.0467 0.713636 39.7138 0.681848 39.8495C0.599615 40.2047 0.646705 39.5774 0.638636 39.5581C0.542601 39.3322 0.559135 39.8187 0.55102 40.1905C0.394362 40.2443 0.403765 40.7642 0.543238 40.5759C0.558472 40.5544 0.543863 40.2651 0.55102 40.1905C0.704723 40.5168 0.724408 41.0881 0.580775 41.7192C0.513456 42.0146 0.434965 41.7353 0.463679 42.6326C0.476641 43.0399 0.584508 42.8825 0.613917 43.2419C0.681015 44.0629 0.580393 45.1298 0.596247 45.9762C0.602003 46.2835 0.661049 45.9842 0.667017 46.1941C0.683041 46.7513 0.638737 47.2427 0.661432 47.8023C0.663563 47.853 0.725372 47.7291 0.72616 47.9031C0.733338 49.2223 0.693749 50.371 0.692652 51.7484C0.69215 52.4138 0.726239 53.6036 0.719385 54.293C0.707871 55.4879 0.617992 56.9578 0.639826 57.9785C0.653802 58.6442 0.715624 58.4981 0.757745 58.7834C0.839394 59.3339 0.693142 60.3082 0.670496 60.4394C0.669746 60.4434 0.655173 59.8706 0.623438 60.1762C0.557314 60.354 0.670209 60.433 0.670496 60.4394C0.655866 60.5256 0.641832 61.67 0.65365 61.8972C0.660109 62.0207 0.718681 61.9516 0.720941 62.016C0.773358 63.5462 0.788245 65.0791 0.760858 66.6311C0.759675 66.6584 0.694158 66.6173 0.692194 66.6815C0.663063 67.58 0.743211 68.1553 0.790796 68.8963C0.838359 69.6373 0.822429 70.2248 0.709955 70.6634C0.724116 71.2225 0.674392 72.0245 0.64422 72.4861C0.614049 72.9476 0.741583 73.012 0.744104 73.0526C0.824801 74.3192 0.751803 75.0514 0.740442 76.3655C0.734822 76.9902 0.753321 78.2295 0.767267 78.9059C0.778502 79.4405 0.748614 79.7625 0.767725 80.2551C0.770277 80.3218 0.827062 80.2544 0.829248 80.2748C0.897187 80.8245 0.758368 80.5603 0.733576 80.6738C0.643416 81.0853 0.595398 81.3396 0.637812 82.0436C0.647525 82.206 0.847405 82.679 0.859094 82.975C0.873925 83.3598 0.80228 83.2146 0.819635 83.6176C0.821054 83.652 0.865254 83.6449 0.863305 83.8936C0.85484 85.048 0.829121 86.3067 0.833551 87.5064C0.833986 87.6702 0.904094 87.4601 0.905877 87.6969C0.914188 88.8079 0.911593 90.0257 0.878778 91.1081C0.87048 91.3745 0.821393 91.2075 0.806818 91.2653C0.718629 91.6203 0.846765 92.1239 0.849206 92.2069C0.910782 94.1887 0.794821 95.7054 0.85003 97.7253C0.852549 97.8107 0.936047 98.3407 0.917888 98.75L0.238525 98.0706C0.355968 98.0759 0.463459 98.0894 0.54765 98.1157C0.573499 98.1235 0.947073 98.2441 1.27739 98.1617C1.29791 98.1565 1.06513 98.0945 1.47136 98.1008C1.87759 98.1071 2.53137 98.0657 3.08977 98.1338C3.26656 98.1553 3.68439 98.2755 4.21172 98.1797C4.24609 98.173 5.06018 97.9563 5.35076 98.1058C5.39787 98.1304 5.34856 98.2887 5.97796 98.2075C6.0982 98.1918 5.87991 98.1565 6.19671 98.1345C6.6821 98.1005 7.32524 98.1429 7.92193 98.0724C8.02599 98.0599 8.46896 97.9525 8.82428 98.034C8.87993 98.0468 8.7742 98.0996 8.96185 98.1055C9.85417 98.1339 10.7885 98.0986 11.6945 98.1351C12.0154 98.1479 11.8514 98.2333 12.1859 98.2562C12.5204 98.2791 13.1944 98.3011 13.5445 98.2621C13.8946 98.2231 13.5122 98.0869 14.0367 98.0761C14.104 98.0747 14.1713 98.0734 14.2385 98.0722L13.5607 98.75C13.5219 96.5381 13.5975 94.3453 13.6088 92.1355C13.6105 91.7978 13.5618 92.0778 13.5609 91.5801C13.5573 89.7452 13.5116 86.5773 13.6151 84.9851C13.698 83.7094 13.7611 85.3148 13.7948 84.34C13.8109 83.8696 13.6527 83.3606 13.6477 83.2471C13.5971 82.1377 13.6672 81.3668 13.6457 80.3683C13.6412 80.1621 13.5771 80.3643 13.574 80.1889C13.5629 79.5894 13.5915 78.9595 13.5863 78.3867C13.5838 78.1298 13.5348 78.1771 13.5386 77.9407C13.5471 77.3749 13.5677 76.8746 13.6136 76.3231C13.6177 76.2728 13.6787 76.6118 13.6809 76.1932C13.6844 75.5158 13.7297 74.6749 13.683 73.8955C13.6689 73.6642 13.5569 73.6552 13.6343 73.1581C13.6504 73.0538 13.7848 73.1868 13.6687 72.6078C13.6494 72.5104 13.4927 71.5377 13.5937 71.0603C13.6203 70.9343 13.7303 70.613 13.713 70.3348C13.7102 70.2971 13.6501 70.4482 13.6442 70.2178C13.6246 69.4056 13.631 68.5544 13.6122 67.7201C13.607 67.4973 13.5448 67.8291 13.5391 67.4971C13.5234 66.5839 13.5392 65.4437 13.5587 64.5508C13.566 64.2215 13.6176 64.4491 13.6232 64.4251C13.7144 64.0399 13.5913 63.8121 13.5841 63.6843C13.5411 62.8891 13.5989 62.2836 13.5836 61.5506C13.5796 61.3483 13.5208 61.4918 13.5156 61.4515C13.4644 61.0339 13.5699 61.345 13.5815 61.0807C13.6144 60.3402 13.6097 59.5147 13.6022 58.7658C13.5994 58.4908 13.5313 58.7999 13.5295 58.5531C13.5178 57.092 13.5243 55.5732 13.5618 54.1473C13.569 53.8788 13.6215 54.0477 13.6334 53.9918C13.7172 53.6061 13.6029 53.0409 13.592 52.9108C13.5423 52.3195 13.5887 52.0898 13.5801 51.5676C13.537 49.0165 13.5677 45.8665 13.5866 43.4584C13.6111 40.3204 13.6609 37.8854 13.648 34.893C13.6472 34.7028 13.5775 34.8946 13.5759 34.7306C13.5591 32.6139 13.5864 30.53 13.5662 28.4091C13.5647 28.235 13.4986 28.4859 13.4939 28.2066C13.4838 27.6336 13.4874 26.9077 13.5086 26.3284C13.5187 26.0458 13.5755 26.4248 13.5845 26.1404C13.6058 25.4781 13.6105 24.7682 13.5999 24.0879C13.5953 23.7984 13.5276 24.2352 13.5269 23.8589C13.5202 21.2957 13.5085 18.7783 13.5961 16.1881C13.6021 16.0105 13.7395 15.8547 13.7132 15.4772C13.675 15.4487 13.6302 15.4503 13.5894 15.4379C13.5674 11.7065 13.6151 8.0132 13.6224 4.27134C13.6227 4.11357 13.5499 4.38623 13.5501 4.08079C13.5508 2.9621 13.543 1.8639 13.5555 0.75L14.2385 1.43306C13.5922 1.4258 12.9406 1.4117 12.2766 1.38513C12.0972 1.37805 12.1892 1.24994 11.6605 1.26931C11.5672 1.27285 10.7709 1.28993 10.565 1.31774C10.5371 1.32194 10.6823 1.38173 10.4257 1.38348C8.93455 1.39256 7.37186 1.37891 5.88325 1.34237C5.643 1.33636 5.89885 1.27268 5.72774 1.26785C4.51392 1.23404 3.19362 1.28245 2.03376 1.22463C1.25739 1.1857 1.54482 1.07563 1.13227 0.96728C1.07392 0.951993 0.593162 0.949571 0.568301 0.886531C0.504475 0.72801 0.737336 0.554432 0.641787 0.385464C0.6216 0.34907 -0.0222523 0.388269 0.35895 0.300321C0.385581 0.294434 0.852377 0.265245 0.967349 0.23541C1.0474 0.214782 0.903149 0.15067 1.06647 0.124265C1.22978 0.0978846 1.40923 0.151627 1.68 0.120603C1.95064 0.0891954 1.83164 0.016261 2.37214 0.00762737ZM0.509364 74.5642C0.448117 74.9916 0.672438 75.0546 0.618769 74.5924C0.615908 74.57 0.512368 74.5422 0.509364 74.5642ZM0.473933 22.8579C0.374992 23.4166 0.520475 23.7989 0.596888 23.4048C0.673219 23.0107 0.503926 22.6877 0.473933 22.8579ZM0.401698 17.0645C0.323687 17.7174 0.641783 17.8202 0.577479 17.1208C0.573845 17.0802 0.406228 17.0263 0.401698 17.0645ZM3.04548 0.936427C3.03958 0.933448 2.694 0.930545 2.68574 0.933497C2.50172 1.00474 3.19275 1.0105 3.04548 0.936427ZM0.323054 11.3154C0.280025 11.5193 0.329697 12.1062 0.383204 11.8529C0.426249 11.649 0.376581 11.0616 0.323054 11.3154ZM0.269954 96.8571C0.266611 96.8638 0.263601 97.1116 0.282497 97.1066C0.343355 97.0898 0.326179 96.745 0.269954 96.8571ZM0.319392 1.54428C0.307419 2.9879 0.0446562 3.86322 0.0743064 2.29111C0.079671 2.00642 0.158099 2.90469 0.181789 2.54233C0.224948 1.8793 0.0599647 1.43902 0.148372 0.762419C0.164554 0.639914 0.320659 1.46193 0.319759 1.54685C0.319636 1.54599 0.319514 1.54514 0.319392 1.54428ZM0.239925 74.8103C0.236959 74.8188 0.234146 75.1618 0.237087 75.17C0.308302 75.3558 0.31401 74.6648 0.239925 74.8103ZM12.8028 98.8573C12.8217 98.8636 13.6177 98.8695 13.6436 98.8637C14.0588 98.7472 12.4497 98.7349 12.8028 98.8573ZM0.0757713 51.7116C0.00412792 51.3374 -0.00430728 50.8897 0.0856589 50.5914C0.0808831 50.9633 0.0801795 51.3377 0.0757713 51.7116Z" fill="black"/>
<path d="M1.35283 46.7461C1.42007 46.7265 1.50822 46.7474 1.57521 46.7761C1.5962 46.785 1.58557 46.8248 1.60006 46.8327C1.62841 46.8482 1.65482 46.8287 1.68283 46.8471C1.69211 46.8534 1.68056 46.9163 1.69029 46.9215C1.74363 46.9493 1.79409 46.9333 1.84813 46.9467C2.11428 47.0127 2.37591 47.0364 2.64532 47.0651C2.73416 47.0745 2.84214 47.1316 2.9339 47.1066C2.94461 47.1036 2.93822 47.0484 2.94026 47.0438C2.97223 46.9741 2.9616 47.0857 2.98247 47.1005C3.0653 47.159 3.15741 47.1641 3.23712 47.1428C3.27104 47.1335 3.23703 47.0238 3.27118 47.0854C3.27355 47.0895 3.26495 47.1482 3.27425 47.1545C3.29534 47.1686 3.33535 47.1581 3.3517 47.1627C3.3832 47.172 3.38842 47.1714 3.41821 47.1721C3.45895 47.1735 3.5074 47.2027 3.5511 47.1894C3.56043 47.1864 3.54808 47.1262 3.56296 47.116C3.57785 47.1057 3.61724 47.1108 3.63053 47.125C3.64381 47.1392 3.63815 47.1865 3.6405 47.1973C3.65985 47.2888 3.70541 47.1621 3.71128 47.159C3.81818 47.1056 3.90985 47.1778 4.0102 47.1776C4.08637 47.1773 4.16783 47.1534 4.24031 47.1567C4.32667 47.1608 4.39986 47.1934 4.48375 47.1878C4.49261 47.1873 4.48223 47.1166 4.49305 47.1158C4.60793 47.1075 4.72202 47.1153 4.83641 47.163C4.84789 47.1679 4.8331 47.23 4.84456 47.2385C4.91474 47.2896 5.02577 47.4122 5.06745 47.1418C5.11498 47.1523 5.17269 47.1632 5.21521 47.2178C5.24263 47.2529 5.216 47.3205 5.24968 47.2916C5.25728 47.2852 5.2474 47.226 5.25879 47.2208C5.30676 47.1991 5.35916 47.2184 5.40661 47.1877C5.41626 47.1814 5.41362 47.1283 5.41636 47.1187C5.43934 47.0413 5.4776 47.1693 5.48594 47.1786C5.54945 47.2479 5.59583 47.2206 5.65499 47.2223C5.66872 47.2228 5.65249 47.1514 5.6657 47.1493C5.73422 47.1391 5.8052 47.1452 5.87229 47.1768C5.88721 47.1841 5.87349 47.2448 5.88062 47.2514C5.91207 47.2795 5.91904 47.1648 5.94919 47.1896C5.95555 47.1946 5.95197 47.2467 5.95313 47.2524C5.97128 47.342 5.98705 47.215 5.99172 47.2122C6.05078 47.1739 6.08852 47.3065 6.14558 47.2877C6.1524 47.2853 6.13701 47.2195 6.1562 47.2169C6.28401 47.1987 6.41919 47.2168 6.54571 47.2694C6.56538 47.2775 6.55134 47.3269 6.55257 47.333C6.57275 47.4283 6.5858 47.3007 6.59222 47.2959C6.64282 47.2613 6.69008 47.3683 6.72446 47.2163C6.93876 47.269 7.15208 47.1837 7.3646 47.3198C7.3673 47.3214 7.36246 47.3843 7.36785 47.3871C7.43277 47.4224 7.4203 47.3248 7.46325 47.2053C7.47407 47.1753 7.50698 47.3195 7.5099 47.3301C7.52051 47.3691 7.5095 47.4625 7.51306 47.4701C7.54246 47.5293 7.53766 47.2202 7.57733 47.2201C7.57857 47.2206 7.57336 47.2775 7.57669 47.2831C7.58703 47.3009 7.59728 47.2783 7.6074 47.2979C7.63056 47.3432 7.63881 47.4934 7.67419 47.406C7.67867 47.3946 7.67183 47.2193 7.70724 47.2276C7.72136 47.231 7.78384 47.228 7.80136 47.2394C7.81885 47.2507 7.80684 47.3072 7.80809 47.3097C7.85522 47.3844 7.83734 47.4154 7.86096 47.526C7.88457 47.6362 7.87802 47.3734 7.88764 47.344C7.89729 47.3148 7.93184 47.3764 7.94033 47.3979C7.94882 47.4193 7.93824 47.4552 7.94578 47.4673C7.99582 47.5466 7.96774 47.3369 7.98423 47.2951C8.02311 47.1963 8.05338 47.3913 8.08897 47.4104C8.0986 47.4156 8.09074 47.3712 8.09931 47.367C8.13327 47.3511 8.1537 47.412 8.19233 47.3562C8.19865 47.3471 8.22989 47.2299 8.2501 47.3159C8.25297 47.3283 8.24483 47.3769 8.2593 47.3878C8.28092 47.4041 8.31988 47.4147 8.34312 47.3985C8.36028 47.3865 8.34061 47.3064 8.36221 47.3313C8.37181 47.3424 8.35402 47.3892 8.37205 47.4062C8.38999 47.4231 8.43585 47.4211 8.45331 47.4195C8.47073 47.4178 8.46119 47.3571 8.4626 47.353C8.47112 47.3296 8.50455 47.3003 8.5075 47.3003C8.65653 47.2929 8.79395 47.3953 8.93904 47.3614C8.95042 47.3588 8.94284 47.2948 8.94458 47.2938C8.98356 47.2669 8.95283 47.4372 8.98005 47.4942C8.97612 47.3642 8.99219 47.3877 9.01965 47.3735C9.03288 47.3665 9.02568 47.3162 9.02688 47.3111C9.0465 47.2346 9.06017 47.3333 9.06369 47.3535C9.07668 47.4278 9.09083 47.34 9.09967 47.3897C9.10851 47.439 9.08817 47.512 9.1145 47.5111C9.12188 47.4646 9.10233 47.343 9.12233 47.3233C9.19776 47.2488 9.33858 47.3442 9.39923 47.3541C9.45976 47.364 9.47931 47.3554 9.51459 47.3722C9.5783 47.4026 9.55495 47.3124 9.59451 47.2711C9.63419 47.2299 9.6149 47.4518 9.6206 47.4995C9.6262 47.5472 9.63232 47.4981 9.63928 47.5243C9.64622 47.5505 9.6312 47.5829 9.64752 47.5928C9.66386 47.6026 9.70852 47.5178 9.71431 47.4679C9.72655 47.3622 9.70642 47.2513 9.74965 47.2903C9.75213 47.2926 9.74407 47.3509 9.75358 47.3568C9.82919 47.4018 9.90773 47.4045 9.98325 47.4443C9.99363 47.4498 9.98435 47.5147 9.99039 47.5187C10.0533 47.5602 10.0308 47.4508 10.0653 47.3292C10.0576 47.491 10.0767 47.59 10.1244 47.5909C10.1531 47.5916 10.1482 47.5209 10.1668 47.4711C10.1723 47.4561 10.1927 47.5046 10.1963 47.4714C10.2085 47.3627 10.1893 47.2411 10.2386 47.2895C10.2407 47.2918 10.2339 47.3513 10.2413 47.3549C10.2896 47.3785 10.2954 47.2649 10.3475 47.2511C10.3884 47.2403 10.4611 47.3096 10.5077 47.3209C10.5067 47.5028 10.5507 47.4611 10.5685 47.3357C10.5988 47.3408 10.6314 47.3337 10.6606 47.3511C10.6707 47.357 10.664 47.4096 10.6653 47.4153C10.6848 47.5046 10.6979 47.3826 10.7044 47.3778C10.7751 47.3313 10.8327 47.4238 10.9001 47.3334C10.9025 47.3301 10.9064 47.2038 10.9245 47.296C10.9256 47.3024 10.9033 47.3599 10.9351 47.3643C10.9668 47.3688 11.0266 47.4365 11.0707 47.378C11.0814 47.3639 11.1083 47.2613 11.13 47.3415C11.1329 47.3523 11.1297 47.3886 11.1339 47.4087C11.1473 47.473 11.1547 47.3453 11.1705 47.4538C11.1863 47.5623 11.2192 47.6435 11.2637 47.5687C11.2651 47.5665 11.2756 47.4653 11.2896 47.4669C11.3119 47.4695 11.3435 47.4906 11.3668 47.49C11.378 47.4896 11.3709 47.4267 11.3728 47.4256C11.4478 47.3904 11.5011 47.4464 11.5815 47.4707C11.5962 47.4753 11.6385 47.3896 11.667 47.4574C11.6983 47.5315 11.6662 47.8401 11.7381 47.7666C11.7672 47.7372 11.8039 47.3457 11.8561 47.5485C11.9572 47.4983 12.0507 47.6021 12.1522 47.5303C12.1567 47.5271 12.1712 47.4179 12.1819 47.4194C12.1978 47.4218 12.2065 47.4729 12.2179 47.4762C12.2655 47.4916 12.3091 47.4479 12.3551 47.4547C12.3725 47.4572 12.3664 47.51 12.3872 47.5129C12.408 47.5158 12.4218 47.4463 12.45 47.4799C12.4713 47.5055 12.4925 47.6476 12.5208 47.6642C12.5218 47.524 12.5412 47.5269 12.5757 47.4899C12.5823 47.4827 12.5752 47.4339 12.5784 47.428C12.5911 47.4028 12.6029 47.4433 12.615 47.4159C12.618 47.4093 12.6181 47.3614 12.6205 47.3534C12.641 47.2828 12.6747 47.3905 12.6805 47.4093C12.7027 47.4805 12.7131 47.4182 12.7302 47.4463C12.7472 47.4743 12.7217 47.5094 12.7416 47.5264C12.7828 47.5616 12.8357 47.5539 12.8775 47.5561C12.8942 47.5566 12.8828 47.4927 12.8852 47.4913C12.9197 47.4751 12.9546 47.5431 12.9737 47.4158C12.9977 47.745 12.9945 47.3839 13.0439 47.4498C13.0477 47.4551 13.0527 47.6107 13.0378 47.6336C13.0229 47.6564 13.0002 47.6078 12.9795 47.6434C12.9746 47.6518 12.9466 47.7976 12.9427 47.8064C12.9127 47.8755 12.9085 47.6429 12.9069 47.6301C12.8889 47.4922 12.8546 47.6494 12.8456 47.6602C12.8042 47.71 12.7691 47.6773 12.7345 47.7128C12.7119 47.7357 12.7097 47.8881 12.692 47.8834C12.633 47.868 12.6124 47.6555 12.5568 47.8398C12.5448 47.8791 12.5567 48.0456 12.514 47.9147C12.5113 47.9064 12.4795 47.7866 12.4612 47.8624C12.4589 47.8719 12.459 47.9205 12.456 47.9245C12.4356 47.9509 12.422 47.9123 12.3999 47.9308C12.3777 47.9493 12.3511 47.9769 12.3258 47.9604C12.3105 47.9506 12.291 47.8602 12.2836 47.838C12.263 47.7743 12.2409 47.8788 12.2282 47.8016C12.2153 47.724 12.2405 47.6061 12.2067 47.556C12.2055 47.6821 12.2026 47.8115 12.2006 47.9383C12.1266 47.9338 12.0538 47.8931 11.9795 47.8986C11.9703 47.8995 11.9797 47.9672 11.9699 47.9699C11.9282 47.9806 11.8919 47.9323 11.8487 47.9516C11.8153 47.9667 11.7786 48.0385 11.7437 48.0566C11.7223 47.9123 11.6705 47.9613 11.6328 47.9481C11.6196 47.9435 11.6205 47.905 11.6111 47.8924C11.5757 47.8459 11.5923 47.9734 11.5826 47.9935C11.5409 48.0791 11.5374 47.7905 11.4883 47.7977C11.4857 47.7979 11.4539 47.9518 11.4495 47.9614C11.4217 48.0238 11.4449 47.9078 11.4275 47.8964C11.3957 47.8757 11.3736 47.8389 11.3363 47.884C11.3254 47.8973 11.2993 47.9932 11.2782 47.9191C11.2754 47.9093 11.277 47.8585 11.2747 47.8555C11.2343 47.8059 11.2332 47.9657 11.2101 48.0198C11.1869 48.0739 11.1512 47.9636 11.1439 47.9318C11.1249 47.8496 11.1585 47.8966 11.1595 47.8886C11.1716 47.7925 11.1456 47.8091 11.1256 47.801C11.1228 47.6443 11.0949 47.6537 11.105 47.7932C11.1061 47.8084 11.1216 47.7938 11.1256 47.801C11.1082 47.9547 11.0776 47.9743 11.0437 47.8307C11.0279 47.7634 11.0429 47.6849 10.9948 47.7136C10.973 47.7266 10.9814 47.8344 10.9622 47.8639C10.9182 47.931 10.861 47.8303 10.8157 47.8462C10.7992 47.8519 10.8153 47.911 10.804 47.917C10.7742 47.933 10.7478 47.8887 10.7179 47.9114C10.7151 47.9135 10.7218 47.9753 10.7125 47.9761C10.6418 47.9833 10.5803 47.9437 10.5065 47.9426C10.4708 47.9421 10.4071 47.9762 10.3701 47.9693C10.3061 47.9578 10.2274 47.8679 10.1727 47.8898C10.1371 47.9037 10.1449 47.9656 10.1296 48.0077C10.1001 48.0893 10.0479 47.9431 10.0409 47.9204C10.0407 47.9197 10.0714 47.9051 10.055 47.8734C10.0455 47.8072 10.0412 47.9201 10.0409 47.9204C10.0363 47.9058 9.97496 47.8918 9.96278 47.9036C9.95617 47.91 9.95987 47.9686 9.95642 47.9709C9.87444 48.0233 9.79232 48.0382 9.70918 48.0108C9.70772 48.0096 9.70992 47.9441 9.70648 47.9421C9.65835 47.913 9.62753 47.9931 9.58783 48.0407C9.54814 48.0883 9.51666 48.0724 9.49316 47.9599C9.46321 47.9741 9.42025 47.9243 9.39552 47.8942C9.3708 47.864 9.36735 47.9915 9.36517 47.994C9.29732 48.0747 9.25809 48.0017 9.1877 47.9904C9.15423 47.9848 9.08784 48.0033 9.0516 48.0172C9.02297 48.0284 9.00571 47.9986 8.97932 48.0177C8.97575 48.0202 8.97936 48.077 8.97827 48.0792C8.94882 48.1471 8.96297 48.0083 8.95689 47.9835C8.93485 47.8934 8.92123 47.8453 8.88351 47.8877C8.87481 47.8975 8.84947 48.0973 8.83362 48.109C8.813 48.1239 8.82078 48.0522 8.79919 48.0696C8.79734 48.071 8.79773 48.1152 8.78441 48.1132C8.72256 48.1048 8.65513 48.0791 8.59086 48.0835C8.58208 48.0839 8.59334 48.154 8.58066 48.1558C8.52114 48.1641 8.4559 48.1615 8.39791 48.1287C8.38364 48.1204 8.39259 48.0713 8.38949 48.0568C8.37047 47.9686 8.3435 48.0967 8.33905 48.0991C8.23288 48.1607 8.15163 48.0448 8.04342 48.1C8.03753 48.1032 7.99219 48.2406 7.97196 48.1228C7.97058 48.1149 7.95057 47.9944 7.93287 48.0768C7.93177 48.082 7.94424 48.144 7.92248 48.1377C7.90072 48.1314 7.86569 48.1728 7.83578 48.1046C7.82631 48.0832 7.80393 47.9629 7.77568 48.0588C7.77383 48.0655 7.73022 48.2822 7.71466 48.1326C7.71213 48.108 7.71477 47.9498 7.68106 48.0309C7.67461 48.0467 7.68631 48.082 7.66934 48.104C7.64333 48.138 7.60888 48.0956 7.57691 48.1661C7.57134 48.1785 7.54761 48.2859 7.52857 48.2044C7.52559 48.1917 7.53126 48.1388 7.5212 48.1329C7.4734 48.1046 7.42335 48.1399 7.37481 48.1034C7.35762 48.0905 7.36641 48.0051 7.34849 47.9822C7.33057 47.9594 7.29446 47.9373 7.27571 47.9764C7.25695 48.0154 7.27744 48.1515 7.24934 48.1624C7.12718 48.2097 7.00616 48.1299 6.88418 48.1182C6.86609 48.1164 6.88109 48.1651 6.85442 48.1661C6.75613 48.1697 6.58642 48.2154 6.50112 48.1119C6.43278 48.029 6.51878 47.9659 6.46656 47.9321C6.44136 47.9161 6.4141 48.0743 6.40801 48.0793C6.34858 48.1299 6.30728 48.0598 6.25379 48.0813C6.24274 48.0858 6.25358 48.1499 6.24418 48.153C6.21207 48.1641 6.17832 48.1355 6.14764 48.1407C6.13387 48.1432 6.13641 48.1922 6.12374 48.1884C6.09343 48.1799 6.06663 48.1593 6.03709 48.1134C6.03439 48.1092 6.05255 48.0483 6.03013 48.046C5.99384 48.0425 5.94879 47.9973 5.90703 48.044C5.89465 48.0581 5.89416 48.17 5.86753 48.0927C5.86194 48.0766 5.86907 47.9422 5.83805 48.0583C5.83283 48.0776 5.78072 48.2343 5.75515 48.1333C5.7484 48.1067 5.73118 47.9967 5.71628 48.014C5.71426 48.0168 5.72236 48.0769 5.71001 48.0828C5.6665 48.1024 5.62091 48.096 5.57621 48.1148C5.56427 48.1199 5.58205 48.1822 5.56426 48.1879C5.51534 48.2036 5.45426 48.1877 5.40642 48.1683C5.38879 48.161 5.40098 48.1094 5.39969 48.1038C5.37906 48.0126 5.36685 48.1357 5.36001 48.1429C5.31741 48.1859 5.28497 48.1281 5.2457 48.1434C5.23487 48.1474 5.24255 48.2062 5.24039 48.2114C5.21802 48.2625 5.23469 48.1571 5.22052 48.1455C5.18086 48.1126 5.13663 48.1173 5.09652 48.1248C5.08178 48.1276 5.09834 48.1957 5.08512 48.1975C5.00685 48.2092 4.92548 48.2027 4.84909 48.1651C4.83471 48.158 4.84376 48.1055 4.84076 48.0936C4.8201 48.0098 4.78982 48.1241 4.78286 48.1349C4.75118 48.1846 4.73887 48.1383 4.7109 48.1469C4.57423 48.19 4.40548 48.1593 4.27648 48.1403C4.10837 48.1159 3.97792 48.066 3.81761 48.079C3.80743 48.0798 3.8177 48.1495 3.80892 48.1511C3.69552 48.1679 3.58388 48.1406 3.47026 48.1608C3.46094 48.1623 3.47438 48.2284 3.45941 48.2331C3.42872 48.2431 3.38983 48.2395 3.3588 48.2184C3.34366 48.2083 3.36396 48.1515 3.34873 48.1424C3.31325 48.1212 3.27521 48.1165 3.23877 48.1271C3.22326 48.1317 3.24666 48.1993 3.2265 48.2001C3.08919 48.2068 2.95433 48.2185 2.81557 48.1309C2.80605 48.1249 2.79771 47.9875 2.77748 48.0138C2.77596 48.052 2.77604 48.0968 2.77538 48.1376C2.57548 48.1596 2.37762 48.1119 2.17717 48.1045C2.16872 48.1042 2.18332 48.1771 2.16696 48.1769C2.07226 48.1758 1.98029 48.196 1.88342 48.1236C1.87381 48.1165 1.87874 47.9884 1.85042 48.0078C1.84542 48.0113 1.80276 48.0284 1.79173 48.0562C1.79023 48.0604 1.79802 48.1202 1.78427 48.1219C1.70438 48.131 1.62067 48.1174 1.54092 48.0808C1.52805 48.0748 1.54176 48.0111 1.53259 48.0063C1.46756 47.9725 1.39683 48.0209 1.3347 47.9631C1.29311 47.9242 1.30851 47.8141 1.2864 47.7057C1.28328 47.6905 1.25752 47.688 1.25619 47.625C1.25277 47.4665 1.26525 47.2929 1.26013 47.1239C1.25905 47.0875 1.22456 47.1267 1.24498 47.0388C1.2464 47.0329 1.27141 47.0037 1.27757 46.9739C1.28186 46.9532 1.27413 46.8891 1.28288 46.8627C1.29163 46.8363 1.30124 46.8901 1.31575 46.8591C1.33025 46.8277 1.32387 46.7547 1.35283 46.7461ZM9.28419 47.7593C9.2613 47.6981 9.25792 47.9224 9.28268 47.8687C9.28388 47.8658 9.28537 47.7623 9.28419 47.7593ZM12.0542 47.7239C12.0242 47.6249 12.0038 47.7704 12.0249 47.8468C12.046 47.9232 12.0633 47.7539 12.0542 47.7239ZM12.3645 47.6516C12.3296 47.5736 12.324 47.8917 12.3615 47.8274C12.3637 47.8238 12.3666 47.6562 12.3645 47.6516ZM1.3889 47.6749C1.38858 47.6719 1.37007 47.669 1.36963 47.672C1.35977 47.7432 1.39679 47.749 1.3889 47.6749ZM12.6725 47.573C12.6616 47.53 12.6302 47.5796 12.6437 47.6331C12.6547 47.6762 12.6861 47.6265 12.6725 47.573ZM8.08993 47.5199C8.08957 47.5165 8.0763 47.5135 8.07656 47.5324C8.07746 47.5933 8.09594 47.5761 8.08993 47.5199ZM13.196 47.5693C13.1186 47.5574 13.0717 47.2946 13.156 47.3242C13.1712 47.3296 13.1231 47.408 13.1425 47.4317C13.178 47.4749 13.2016 47.3099 13.2379 47.3983C13.2444 47.4145 13.2004 47.5706 13.1958 47.5697C13.1959 47.5696 13.1959 47.5695 13.196 47.5693ZM9.27101 47.4899C9.27055 47.4869 9.25218 47.4841 9.25174 47.487C9.24179 47.5582 9.2788 47.5639 9.27101 47.4899ZM7.31544 47.3812C7.31443 47.3749 7.27179 47.369 7.2704 47.3748C7.24815 47.4912 7.33436 47.5035 7.31544 47.3812ZM10.5084 47.3257C10.5285 47.2541 10.5525 47.2456 10.5685 47.3356C10.5485 47.3308 10.5285 47.3301 10.5084 47.3257ZM7.9809 3.1696C8.00044 3.7061 7.97955 4.40935 7.95087 4.94381C7.94198 5.11132 7.90222 5.0265 7.89429 5.14213C7.87883 5.36827 7.89833 5.57895 7.87992 5.80243C7.87362 5.87649 7.81064 5.7843 7.80548 5.86196C7.77765 6.28752 7.79369 6.69012 7.78031 7.12122C7.71426 9.24468 7.69062 11.332 7.66193 13.4814C7.65252 14.1901 7.59537 15.0517 7.62036 15.7837C7.62334 15.8692 7.67861 15.8182 7.68317 15.8345C7.75291 16.0895 7.64132 16.0047 7.6265 16.1712C7.56796 16.8321 7.56287 17.5669 7.5842 18.2029C7.59344 18.4735 7.70323 18.2022 7.6416 18.4746C7.63744 18.4935 7.57874 18.4249 7.57248 18.4991C7.5584 18.6674 7.56889 18.9866 7.56424 19.117C7.55498 19.3684 7.55557 19.41 7.5549 19.6477C7.55348 19.9727 7.5243 20.3592 7.5376 20.7079C7.54061 20.7823 7.60079 20.6838 7.61103 20.8025C7.62125 20.9213 7.61615 21.2356 7.60196 21.3416C7.58777 21.4475 7.54048 21.4024 7.52964 21.4212C7.43814 21.5755 7.56486 21.939 7.568 21.9858C7.6214 22.8387 7.54921 23.5701 7.54941 24.3706C7.54972 24.9784 7.57355 25.6283 7.57029 26.2066C7.56616 26.8955 7.53355 27.4795 7.53916 28.1488C7.53968 28.2194 7.61043 28.1366 7.61121 28.2229C7.61944 29.1395 7.61173 30.0497 7.56397 30.9624C7.55912 31.0539 7.497 30.936 7.48844 31.0274C7.43739 31.5873 7.31476 32.4731 7.58521 32.8056C7.57465 33.1849 7.56374 33.6453 7.50922 33.9845C7.47413 34.2033 7.40646 33.9908 7.43534 34.2595C7.44177 34.3201 7.50103 34.2413 7.5062 34.3322C7.52789 34.7149 7.50863 35.1329 7.53925 35.5115C7.54562 35.5885 7.59872 35.5675 7.60828 35.5893C7.68572 35.7726 7.55771 36.0779 7.5484 36.1444C7.47904 36.6511 7.50634 37.0211 7.50464 37.4931C7.50422 37.6027 7.57555 37.4732 7.5777 37.5786C7.58792 38.1253 7.58179 38.6915 7.55014 39.2268C7.54293 39.3459 7.48217 39.2364 7.47562 39.2933C7.44746 39.5442 7.56221 39.5998 7.53742 39.8404C7.53234 39.8911 7.48033 39.8625 7.47461 39.8718C7.38494 40.0166 7.512 40.1424 7.5148 40.1797C7.55313 40.6508 7.42049 40.952 7.43927 41.4071C7.44165 41.4616 7.50747 41.3388 7.51014 41.4919C7.5283 42.5116 7.51022 43.5901 7.45758 44.5995C7.44949 44.7564 7.40005 44.6444 7.39396 44.6543C7.29873 44.8152 7.42632 44.9194 7.43113 44.9705C7.46571 45.3742 7.35871 45.7513 7.51068 46.0256C7.45795 47.7354 7.54329 49.4372 7.40714 51.1328C7.40556 51.1544 7.34272 51.1157 7.33985 51.1587C7.30456 51.6766 7.40223 51.5772 7.52167 51.9198C7.55166 52.0062 7.40746 52.2687 7.39688 52.292C7.35793 52.3766 7.26445 52.2888 7.2569 52.3172C7.19766 52.5517 7.50683 52.5135 7.50693 52.8299C7.50642 52.8399 7.44951 52.7983 7.44385 52.8248C7.42609 52.9073 7.4487 52.9892 7.42911 53.0699C7.38378 53.2547 7.23356 53.3205 7.32099 53.6027C7.33234 53.6385 7.50771 53.5839 7.49942 53.8664C7.49597 53.979 7.49898 54.4776 7.48761 54.6173C7.47626 54.7569 7.41975 54.661 7.4173 54.671C7.34257 55.047 7.3116 54.9044 7.20096 55.0928C7.09074 55.2812 7.35363 55.2289 7.38297 55.3057C7.41223 55.3826 7.35057 55.6583 7.32914 55.7261C7.30769 55.7938 7.27178 55.7094 7.25965 55.7696C7.18037 56.1688 7.39013 55.9448 7.43186 56.0763C7.53065 56.3865 7.3357 56.628 7.31659 56.9119C7.31143 56.9888 7.35584 56.9261 7.35999 56.9945C7.37585 57.2654 7.31502 57.4283 7.37079 57.7366C7.37988 57.787 7.49709 58.0362 7.41108 58.1975C7.39867 58.2203 7.35009 58.1554 7.33921 58.2709C7.32288 58.4434 7.31226 58.7542 7.3285 58.9396C7.34051 59.0765 7.42056 58.9196 7.39569 59.0919C7.38459 59.1685 7.33776 59.0266 7.32081 59.1704C7.30386 59.3135 7.30591 59.6795 7.30753 59.8187C7.30918 59.9577 7.36991 59.8816 7.374 59.8928C7.39743 59.9608 7.42671 60.2275 7.42664 60.2511C7.43405 61.44 7.3317 62.5364 7.36557 63.694C7.36814 63.7848 7.43218 63.7243 7.43323 63.7382C7.46006 64.0491 7.28981 63.804 7.23282 64.0212C7.36277 63.9898 7.33924 64.118 7.35349 64.3371C7.36046 64.4427 7.41078 64.3852 7.41593 64.3948C7.49235 64.5513 7.39364 64.6604 7.37345 64.6884C7.29917 64.7921 7.38693 64.9049 7.33728 64.9755C7.28801 65.046 7.21495 64.8837 7.21589 65.0938C7.2624 65.1527 7.38396 64.9968 7.40366 65.1563C7.47818 65.7581 7.38281 66.8816 7.3729 67.3655C7.363 67.8484 7.37158 68.0044 7.35477 68.2858C7.32438 68.7941 7.41456 68.6078 7.45584 68.9235C7.49712 69.24 7.27522 69.0861 7.22751 69.1316C7.17983 69.1763 7.22891 69.2251 7.2027 69.2806C7.1765 69.336 7.14406 69.2161 7.13422 69.3464C7.12439 69.4767 7.20922 69.833 7.2591 69.8792C7.36477 69.9769 7.47568 69.8163 7.43671 70.1612C7.4344 70.181 7.37605 70.1166 7.37015 70.1926C7.32523 70.7958 7.32245 71.4224 7.28272 72.0249C7.27716 72.1077 7.21225 72.0336 7.20829 72.0818C7.16677 72.584 7.27622 72.4045 7.3978 72.6797C7.236 72.6179 7.13701 72.7701 7.13605 73.1512C7.13542 73.3803 7.20609 73.3408 7.25589 73.489C7.27091 73.5334 7.22239 73.6956 7.25562 73.7249C7.36426 73.8218 7.48587 73.6691 7.43744 74.062C7.43514 74.0793 7.37568 74.0244 7.37207 74.0839C7.3485 74.469 7.46213 74.515 7.47589 74.9312C7.48669 75.2574 7.4174 75.8377 7.40613 76.2091C7.22422 76.2013 7.26588 76.5522 7.3913 76.6945C7.38617 76.9356 7.39326 77.1959 7.37592 77.4289C7.37001 77.5091 7.31734 77.4564 7.31165 77.4666C7.22238 77.6216 7.3444 77.7264 7.34919 77.7784C7.39569 78.3424 7.3032 78.8019 7.39359 79.3401C7.39684 79.3592 7.52321 79.3902 7.43094 79.534C7.42458 79.5433 7.36709 79.3656 7.36264 79.6188C7.35819 79.872 7.29045 80.3493 7.349 80.7009C7.3631 80.786 7.46568 81.0011 7.38553 81.1738C7.37465 81.1968 7.33841 81.1717 7.31824 81.2049C7.25398 81.3123 7.3817 81.3708 7.2732 81.4971C7.1647 81.6233 7.08344 81.8857 7.1583 82.2403C7.16048 82.2516 7.26171 82.3355 7.26011 82.447C7.25746 82.625 7.23638 82.8776 7.23703 83.0635C7.23739 83.1524 7.30025 83.0955 7.3014 83.1109C7.33662 83.7092 7.28058 84.135 7.25626 84.7759C7.25168 84.8934 7.3374 85.2311 7.26963 85.4585C7.19544 85.7083 6.88684 85.4516 6.96036 86.0257C6.98977 86.2573 7.38129 86.5504 7.17844 86.9665C7.2287 87.7735 7.12489 88.5198 7.19666 89.3291C7.19984 89.3655 7.30911 89.4805 7.30762 89.5661C7.3052 89.6931 7.25413 89.7628 7.25077 89.8535C7.23538 90.2335 7.27908 90.5813 7.27228 90.9477C7.26981 91.0868 7.21701 91.0382 7.21405 91.2041C7.21115 91.3699 7.28069 91.4805 7.24711 91.7051C7.22151 91.8749 7.07938 92.0445 7.06281 92.2698C7.20301 92.2784 7.20012 92.4331 7.23713 92.708C7.24431 92.7609 7.2931 92.7042 7.29902 92.7292C7.32416 92.831 7.28372 92.9251 7.3111 93.0217C7.31768 93.0452 7.36555 93.0464 7.37363 93.0656C7.44414 93.229 7.33644 93.4981 7.31769 93.5444C7.24648 93.7216 7.30875 93.8044 7.2807 93.9403C7.25267 94.0759 7.21761 93.8731 7.2006 94.0316C7.1654 94.3601 7.17313 94.7822 7.17093 95.1159C7.17035 95.249 7.23426 95.1582 7.23566 95.1772C7.25187 95.4525 7.18389 95.7309 7.31119 95.8836C6.98203 96.0744 7.34312 96.0496 7.27723 96.4431C7.2719 96.4741 7.11624 96.5135 7.09339 96.3945C7.07056 96.2755 7.11921 96.095 7.08359 95.9299C7.07523 95.8908 6.92937 95.6669 6.92054 95.6363C6.85149 95.3969 7.08409 95.363 7.09687 95.3503C7.23474 95.2067 7.0776 94.933 7.06675 94.861C7.017 94.5312 7.04971 94.2511 7.0142 93.9753C6.99124 93.7949 6.83888 93.7773 6.84354 93.6357C6.85896 93.1648 7.07151 93.0005 6.88721 92.5568C6.84791 92.4617 6.68137 92.5562 6.81232 92.2154C6.82058 92.1939 6.94037 91.9409 6.8646 91.7946C6.85505 91.7763 6.80651 91.7768 6.80243 91.7526C6.77606 91.5903 6.81473 91.4821 6.79621 91.3052C6.77769 91.1284 6.75009 90.9158 6.76655 90.714C6.77639 90.5923 6.86681 90.4362 6.88895 90.378C6.95273 90.2135 6.84816 90.0372 6.92539 89.9353C7.00301 89.8326 7.12088 90.0334 7.17103 89.764C7.04493 89.7541 6.91551 89.7311 6.7887 89.7151C6.79314 89.1247 6.83391 88.5438 6.82834 87.9515C6.82753 87.8781 6.75974 87.9531 6.75712 87.8744C6.74635 87.5423 6.79467 87.2522 6.77543 86.9077C6.76027 86.6411 6.6885 86.3487 6.67042 86.0699C6.8147 85.8996 6.76572 85.4859 6.77891 85.1853C6.78346 85.0801 6.822 85.0871 6.83457 85.0122C6.88107 84.7298 6.75356 84.8622 6.7335 84.7847C6.64786 84.4525 6.93646 84.424 6.92933 84.0324C6.92905 84.0116 6.77521 83.758 6.76563 83.723C6.70316 83.5011 6.81918 83.6863 6.83054 83.5474C6.85131 83.2937 6.88805 83.1175 6.84299 82.8199C6.82965 82.7331 6.73376 82.5249 6.80793 82.3564C6.81764 82.3342 6.86849 82.3465 6.87147 82.3286C6.9211 82.0057 6.76133 81.9972 6.70722 81.8126C6.65312 81.628 6.76341 81.3429 6.7952 81.2849C6.87744 81.1331 6.83035 81.4012 6.83842 81.4094C6.93445 81.506 6.91792 81.298 6.92603 81.1391C7.08269 81.1161 7.07329 80.8939 6.93381 80.9744C6.91858 80.9836 6.93319 81.1072 6.92603 81.1391C6.77233 80.9997 6.75264 80.7555 6.89628 80.4858C6.96359 80.3595 7.04209 80.4789 7.01337 80.0954C7.00041 79.9213 6.89254 79.9886 6.86313 79.835C6.79604 79.4841 6.89666 79.0281 6.8808 78.6663C6.87505 78.535 6.816 78.6629 6.81003 78.5732C6.79401 78.335 6.83831 78.125 6.81562 77.8858C6.81349 77.8642 6.75168 77.9171 6.75089 77.8427C6.74371 77.2789 6.7833 76.7879 6.7844 76.1993C6.7849 75.9148 6.75081 75.4063 6.75767 75.1116C6.76918 74.601 6.85906 73.9727 6.83722 73.5365C6.82325 73.252 6.76143 73.3144 6.71931 73.1925C6.63766 72.9572 6.78391 72.5407 6.80655 72.4847C6.8073 72.4829 6.82188 72.7278 6.85361 72.5972C6.91974 72.5212 6.80684 72.4874 6.80655 72.4847C6.82118 72.4478 6.83522 71.9587 6.8234 71.8616C6.81694 71.8088 6.75837 71.8384 6.75611 71.8108C6.70369 71.1568 6.68881 70.5017 6.71619 69.8383C6.71738 69.8266 6.78289 69.8442 6.78486 69.8168C6.81399 69.4328 6.73384 69.1869 6.68625 68.8701C6.63869 68.5535 6.65462 68.3023 6.7671 68.1149C6.75293 67.876 6.80266 67.5331 6.83283 67.3359C6.863 67.1386 6.73547 67.1111 6.73295 67.0937C6.65225 66.5524 6.72525 66.2394 6.73661 65.6778C6.74223 65.4108 6.72373 64.8811 6.70978 64.592C6.69855 64.3635 6.72844 64.2259 6.70933 64.0154C6.70677 63.9869 6.64999 64.0156 6.6478 64.007C6.57986 63.772 6.71868 63.8849 6.74348 63.8364C6.83363 63.6605 6.88165 63.5519 6.83924 63.251C6.82953 63.1816 6.62965 62.9794 6.61796 62.8529C6.60313 62.6884 6.67477 62.7505 6.65742 62.5782C6.656 62.5635 6.6118 62.5666 6.61375 62.4603C6.62221 61.9669 6.64793 61.4289 6.6435 60.9161C6.64306 60.8461 6.57296 60.9359 6.57117 60.8347C6.56286 60.3598 6.56546 59.8394 6.59827 59.3768C6.60657 59.2629 6.65566 59.3343 6.67023 59.3096C6.75842 59.1578 6.63029 58.9426 6.62784 58.9071C6.56627 58.0601 6.68223 57.4118 6.62702 56.5486C6.62378 56.5016 6.48641 56.1398 6.60422 55.9785C6.61206 55.9674 6.73259 55.8077 6.65018 55.6666C6.64503 55.6578 6.58298 55.7573 6.5893 55.5837C6.59561 55.41 6.55417 55.1306 6.62235 54.8919C6.64383 54.8164 6.76406 54.6378 6.66822 54.4124C6.66153 54.3977 6.44482 54.0498 6.59434 53.9256C6.61895 53.9055 6.77718 53.9265 6.69605 53.6575C6.68032 53.6061 6.64503 53.6994 6.62299 53.564C6.58903 53.3566 6.63141 53.0817 6.56092 52.8267C6.54844 52.7822 6.44105 52.5929 6.52256 52.441C6.53533 52.4172 6.58815 52.4624 6.59406 52.3822C6.62242 52.0008 6.58708 51.6015 6.62363 51.2142C6.63648 51.0771 6.72187 51.1472 6.74476 51.0042C6.76763 50.8612 6.78964 50.5732 6.75062 50.4235C6.71158 50.2739 6.57547 50.4374 6.56458 50.2132C6.51728 49.2386 6.59712 48.2731 6.6088 47.2999C6.61055 47.1555 6.56184 47.2752 6.56092 47.0625C6.5573 46.2782 6.51163 44.9243 6.61512 44.2438C6.698 43.6985 6.76111 44.3847 6.79484 43.968C6.81093 43.767 6.65269 43.5495 6.64771 43.5009C6.59711 43.0268 6.6672 42.6973 6.6457 42.2705C6.64123 42.1824 6.5771 42.2688 6.57401 42.1938C6.56289 41.9376 6.59152 41.6684 6.58628 41.4236C6.58378 41.3138 6.5348 41.334 6.53858 41.2329C6.54706 40.9911 6.56765 40.7773 6.61356 40.5416C6.61775 40.5201 6.67868 40.665 6.68094 40.4861C6.68444 40.1965 6.72973 39.8371 6.68296 39.504C6.66889 39.4052 6.55694 39.4013 6.63425 39.1888C6.6504 39.1443 6.78483 39.2011 6.66868 38.9536C6.64938 38.912 6.49271 38.4963 6.5937 38.2922C6.62027 38.2384 6.73028 38.101 6.71299 37.9822C6.71023 37.966 6.6501 38.0306 6.64423 37.9321C6.62461 37.585 6.63102 37.2212 6.61219 36.8646C6.60704 36.7694 6.54482 36.9112 6.53913 36.7693C6.5234 36.379 6.53925 35.8917 6.55872 35.51C6.56602 35.3693 6.61757 35.4666 6.62318 35.4563C6.71441 35.2917 6.59126 35.1943 6.58408 35.1397C6.54108 34.7998 6.59893 34.541 6.58362 34.2278C6.57956 34.1413 6.52084 34.2026 6.5156 34.1854C6.46444 34.0069 6.5699 34.1399 6.58152 34.0269C6.61443 33.7104 6.60971 33.3576 6.60221 33.0375C6.59937 32.92 6.53128 33.0521 6.52952 32.9466C6.51778 32.3221 6.5243 31.673 6.56184 31.0636C6.56903 30.9488 6.62145 31.021 6.63343 30.9971C6.71721 30.8323 6.60293 30.5907 6.59205 30.5351C6.54234 30.2823 6.58871 30.1842 6.58005 29.961C6.53697 28.8706 6.56768 27.5243 6.58665 26.4951C6.61106 25.1539 6.66094 24.1132 6.64799 22.8342C6.64723 22.7529 6.57748 22.8349 6.57593 22.7648C6.55912 21.8601 6.58637 20.9694 6.56623 20.0629C6.5647 19.9886 6.49858 20.0958 6.4939 19.9764C6.48385 19.7315 6.48744 19.4213 6.50855 19.1736C6.51872 19.0529 6.57546 19.2149 6.58454 19.0933C6.60581 18.8102 6.61052 18.5068 6.59992 18.2161C6.59527 18.0923 6.52764 18.279 6.52686 18.1182C6.52015 17.0226 6.50851 15.9467 6.59608 14.8397C6.60209 14.7638 6.73953 14.6972 6.71317 14.5358C6.67503 14.5236 6.63016 14.5243 6.58939 14.519C6.56743 12.9242 6.61508 11.3457 6.62244 9.74638C6.62274 9.67895 6.54992 9.79548 6.55012 9.66494C6.55119 8.90937 6.53102 8.17566 6.6034 7.4028C6.61048 7.32612 6.73859 7.36546 6.71921 7.13948C6.71568 7.09962 6.69859 6.75927 6.67078 6.67128C6.66659 6.65933 6.60679 6.72142 6.60505 6.61175C6.59597 5.9744 6.60962 5.30651 6.64615 4.67027C6.65217 4.56759 6.71584 4.67694 6.72068 4.6038C6.75448 4.08501 6.70607 3.52071 6.76389 3.02498C6.80282 2.69316 6.9129 2.81601 7.02125 2.63968C7.03653 2.61474 7.03895 2.40926 7.10199 2.39864C7.26051 2.37136 7.43409 2.47088 7.60306 2.43005C7.63946 2.42142 7.60026 2.14623 7.6882 2.30916C7.69409 2.32054 7.72328 2.52005 7.75312 2.56919C7.77374 2.60341 7.83785 2.54175 7.86426 2.61156C7.89064 2.68136 7.8369 2.75806 7.86792 2.87378C7.89933 2.98945 7.97226 2.93859 7.9809 3.1696ZM6.96769 66.4477C7.02893 66.265 6.80461 66.2381 6.85828 66.4356C6.86114 66.4452 6.96468 66.4571 6.96769 66.4477ZM7.00312 88.5471C7.10206 88.3083 6.95658 88.145 6.88016 88.3134C6.80383 88.4818 6.97312 88.6199 7.00312 88.5471ZM7.07535 91.0233C7.15336 90.7442 6.83527 90.7003 6.89957 90.9992C6.90321 91.0166 7.07082 91.0396 7.07535 91.0233ZM7.0521 3.45739C7.05508 3.45487 7.05798 3.30717 7.05503 3.30364C6.98378 3.22499 6.97803 3.52034 7.0521 3.45739ZM7.154 93.4805C7.19703 93.3933 7.14735 93.1425 7.09385 93.2507C7.0508 93.3379 7.10047 93.589 7.154 93.4805ZM7.2071 56.9196C7.21044 56.9167 7.21345 56.8108 7.19455 56.813C7.1337 56.8202 7.15087 56.9675 7.2071 56.9196ZM7.15766 97.6567C7.16963 97.0396 7.43239 96.6656 7.40274 97.3375C7.39738 97.4592 7.31895 97.0752 7.29526 97.2301C7.2521 97.5135 7.41709 97.7017 7.32868 97.9908C7.3125 98.0432 7.15639 97.6919 7.15729 97.6556C7.15741 97.656 7.15754 97.6563 7.15766 97.6567ZM7.23713 66.3425C7.24009 66.3389 7.2429 66.1923 7.23996 66.1887C7.16875 66.1094 7.16304 66.4047 7.23713 66.3425ZM7.3458 50.7406C7.35212 50.7325 7.35803 50.3923 7.35221 50.3812C7.23575 50.2037 7.22345 50.8915 7.3458 50.7406ZM7.40128 76.215C7.47292 76.3749 7.48136 76.5662 7.39139 76.6938C7.39617 76.5348 7.39687 76.3748 7.40128 76.215Z" fill="black"/>
</svg>
