<svg width="98" height="15" viewBox="0 0 98 15" fill="none" xmlns="http://www.w3.org/2000/svg">
<path d="M97.0296 2.33404C97.0491 3.56686 97.0283 5.18288 96.9996 6.41104C96.9907 6.79595 96.9509 6.60104 96.943 6.86675C96.9275 7.38641 96.947 7.87055 96.9286 8.38408C96.9223 8.55427 96.8594 8.34242 96.8542 8.52088C96.8264 9.49879 96.8424 10.4239 96.829 11.4146C96.8162 12.3584 96.805 13.2992 96.7951 14.2385L96.7985 14.7429L96.2872 14.7464C92.3707 14.7049 88.4797 14.6851 84.4959 14.6619C82.8673 14.6525 80.8876 14.5954 79.2054 14.6204C79.009 14.6233 79.1261 14.6786 79.0887 14.6832C78.5027 14.7529 78.6976 14.6413 78.315 14.6265C76.7964 14.568 75.1077 14.5629 73.6463 14.5842C73.0245 14.5934 73.6479 14.7032 73.0219 14.6416C72.9784 14.6374 73.1362 14.5787 72.9657 14.5725C72.579 14.5584 71.8454 14.5689 71.5457 14.5642C70.9681 14.555 70.8726 14.5556 70.3263 14.5549C69.5795 14.5535 68.6912 14.5243 67.89 14.5376C67.7189 14.5406 67.9454 14.6008 67.6726 14.611C67.3996 14.6213 66.6774 14.6161 66.4339 14.602C66.1904 14.5878 66.2941 14.5405 66.2509 14.5296C65.8964 14.4381 65.0609 14.5649 64.9535 14.568C62.9936 14.6214 61.313 14.5492 59.4733 14.5494C58.0767 14.5497 56.5833 14.5736 55.2545 14.5703C53.6713 14.5662 52.3294 14.5336 50.7914 14.5392C50.6291 14.5397 50.8193 14.6104 50.621 14.6112C48.5148 14.6194 46.4231 14.6117 44.3259 14.564C44.1156 14.5591 44.3867 14.497 44.1765 14.4884C42.89 14.4374 40.8544 14.3148 40.0903 14.5852C39.2189 14.5746 38.1609 14.5637 37.3813 14.5092C36.8786 14.4741 37.3668 14.4065 36.7493 14.4353C36.6101 14.4418 36.7912 14.501 36.5823 14.5062C35.703 14.5279 34.7423 14.5086 33.8724 14.5393C33.6955 14.5456 33.7438 14.5987 33.6937 14.6083C33.2723 14.6857 32.5709 14.5577 32.418 14.5484C31.2537 14.479 30.4034 14.5063 29.3187 14.5046C29.067 14.5042 29.3646 14.5755 29.1223 14.5777C27.8662 14.5879 26.5649 14.5818 25.3349 14.5501C25.0613 14.5429 25.3129 14.4822 25.1821 14.4756C24.6057 14.4475 24.4778 14.5622 23.925 14.5374C23.8084 14.5323 23.8741 14.4803 23.8528 14.4746C23.52 14.3849 23.2309 14.512 23.1453 14.5148C22.0626 14.5531 21.3706 14.4205 20.3246 14.4393C20.1995 14.4417 20.4817 14.5075 20.1299 14.5101C17.7867 14.5283 15.3084 14.5102 12.9889 14.4576C12.6283 14.4495 12.8857 14.4001 12.863 14.394C12.4932 14.2987 12.2538 14.4263 12.1362 14.4311C11.2086 14.4657 10.342 14.3587 9.71168 14.5107C6.55921 14.4684 3.41833 14.515 0.287231 14.4647L0.0626291 14.4662L0.0610803 14.2385C0.0734629 13.4675 0.0917124 12.697 0.118614 11.9271C0.120193 11.8776 0.183036 11.9663 0.185905 11.8675C0.221191 10.6774 0.123527 10.906 0.00408892 10.1185C-0.0259098 9.92019 0.118301 9.31676 0.128868 9.26337C0.167823 9.06885 0.261314 9.27061 0.268852 9.20546C0.328094 8.66646 0.0189282 8.75429 0.018829 8.02718C0.0193402 8.00442 0.0762478 8.09994 0.0819088 8.03892C0.0996701 7.84934 0.0770566 7.66132 0.0966489 7.4758C0.141975 7.05117 0.292198 6.89993 0.204765 6.25135C0.19342 6.16926 0.0180509 6.29463 0.0263364 5.64543C0.0297849 5.38663 0.026779 4.24103 0.0381468 3.91996C0.0494917 3.59928 0.10601 3.81946 0.108452 3.79659C0.183182 2.93255 0.214157 3.26017 0.324791 2.82728C0.435013 2.39443 0.172127 2.51446 0.142784 2.338C0.113533 2.16124 0.175186 1.52773 0.196617 1.37204C0.218063 1.21645 0.253975 1.41052 0.266106 1.27217C0.34539 0.354769 0.13562 0.869498 0.0939026 0.567215C0.0782089 0.454016 0.0699234 0.344789 0.0671768 0.238521L0.0656815 0.0199737L0.287231 0.0184631C0.849998 0.00389081 1.3299 0.144384 1.87871 0.160453C2.05524 0.165612 1.91119 0.12121 2.06837 0.117057C2.69096 0.101199 3.0654 0.162031 3.7737 0.106254C3.88957 0.0971651 4.46217 -0.0200477 4.83282 0.0659712C4.88531 0.0783749 4.73615 0.126957 5.0015 0.13784C5.39786 0.154172 6.11205 0.164791 6.53814 0.148552C6.85271 0.136537 6.49214 0.056484 6.8881 0.0813521C7.06406 0.0924561 6.73793 0.139287 7.06853 0.156242C7.39738 0.173191 8.23822 0.171134 8.55818 0.169517C8.87755 0.167865 8.70274 0.107141 8.72855 0.10305C8.88474 0.0796161 9.49767 0.0503352 9.55183 0.0504075C12.2839 0.0429948 14.8033 0.145351 17.4633 0.111473C17.6721 0.108903 17.533 0.0448684 17.5648 0.043816C18.2795 0.0169871 17.716 0.187239 18.2153 0.244224C18.1431 0.114281 18.4378 0.137809 18.9412 0.123558C19.1838 0.116585 19.0517 0.0662702 19.0738 0.0611195C19.4335 -0.0153032 19.684 0.0834068 19.7485 0.1036C19.9868 0.17788 20.2461 0.0901128 20.4082 0.139763C20.5702 0.189042 20.1973 0.262097 20.6801 0.261162C20.8155 0.214646 20.4571 0.0930886 20.8236 0.0733876C22.2066 -0.00113203 24.7881 0.0942422 25.9001 0.104149C27.0099 0.114048 27.3683 0.105466 28.015 0.122277C29.1831 0.152672 28.755 0.0624847 29.4803 0.0212031C30.2077 -0.0200736 29.8541 0.201831 29.9587 0.249535C30.0613 0.297217 30.1734 0.248133 30.3011 0.274346C30.4283 0.300552 30.1528 0.332987 30.4521 0.342827C30.7516 0.352657 31.5704 0.267829 31.6766 0.217949C31.901 0.112276 31.532 0.00136796 32.3245 0.0403377C32.37 0.0426504 32.2222 0.100999 32.3967 0.106896C33.7827 0.151816 35.2227 0.1546 36.6071 0.194329C36.7975 0.199883 36.6272 0.264795 36.738 0.268761C37.8919 0.31028 37.4794 0.200831 38.1118 0.0792477C37.9698 0.241049 38.3196 0.340041 39.1953 0.340996C39.7217 0.341627 39.6311 0.27096 39.9716 0.221154C40.0737 0.20614 40.4462 0.254662 40.5137 0.221429C40.7363 0.112793 40.3855 -0.00881873 41.2883 0.0396057C41.328 0.0419069 41.2018 0.101373 41.3387 0.104974C42.2235 0.128547 42.3293 0.0149148 43.2857 0.00115372C44.0354 -0.00964402 45.3686 0.0596473 46.2222 0.0709168C46.2043 0.252829 47.0105 0.211173 47.3376 0.0857484C47.8915 0.0908833 48.4898 0.0837928 49.0253 0.101129C49.2095 0.10704 49.0885 0.159708 49.1117 0.165399C49.468 0.254671 49.7088 0.132647 49.8284 0.127863C51.1243 0.0813596 52.1802 0.173845 53.417 0.0834598C53.4609 0.0802044 53.532 -0.0461574 53.8626 0.0461064C53.884 0.0524663 53.4755 0.109959 54.0573 0.114405C54.6392 0.11886 55.7361 0.1866 56.544 0.128046C56.7395 0.11395 57.2339 0.0113694 57.6308 0.0915166C57.6836 0.1024 57.6258 0.138641 57.7021 0.158808C57.9488 0.223067 58.0835 0.0953465 58.3735 0.203851C58.6635 0.312352 59.2666 0.39361 60.0813 0.31875C60.1073 0.316573 60.3001 0.215343 60.5564 0.216944C60.9653 0.219586 61.5459 0.240674 61.973 0.240015C62.1775 0.239663 62.0466 0.176803 62.0821 0.175653C63.4569 0.140429 64.4353 0.196468 65.9082 0.220789C66.1781 0.225372 66.954 0.139654 67.4767 0.207422C68.0506 0.281608 67.4608 0.590209 68.78 0.516687C69.3121 0.487279 69.9857 0.095764 70.9419 0.298609C72.7963 0.248345 74.5113 0.352161 76.3709 0.28039C76.4545 0.27721 76.719 0.167941 76.9156 0.169429C77.2074 0.171848 77.3676 0.222918 77.576 0.226283C78.4493 0.241666 79.2484 0.197972 80.0904 0.204768C80.41 0.207237 80.2983 0.260044 80.6795 0.262995C81.0606 0.265897 81.3146 0.196361 81.831 0.229945C82.2209 0.255544 82.6108 0.397673 83.1284 0.41424C83.1481 0.274045 83.5037 0.276932 84.1355 0.239924C84.257 0.232744 84.1267 0.183948 84.1842 0.178035C84.418 0.152886 84.6344 0.193326 84.8564 0.16595C84.9104 0.159375 84.913 0.111497 84.9571 0.10342C85.3326 0.032911 85.9511 0.140607 86.0574 0.159358C86.4645 0.230572 86.6548 0.168302 86.9671 0.196345C87.2789 0.224385 86.8127 0.259438 87.1769 0.276454C87.9318 0.311649 88.9018 0.303917 89.6686 0.306117C89.9745 0.306699 89.7658 0.24279 89.8096 0.241389C90.4422 0.22518 91.0819 0.293161 91.4326 0.165859C91.8713 0.495016 91.8141 0.133932 92.7184 0.199825C92.7896 0.205154 92.8802 0.36081 92.6067 0.383662C92.3333 0.406492 91.9186 0.357836 91.5392 0.393458C91.4494 0.401818 90.9347 0.547677 90.8645 0.556513C90.3144 0.625565 90.2365 0.392959 90.2074 0.380183C89.8774 0.24231 89.2484 0.399446 89.0828 0.410304C88.3251 0.460055 87.6814 0.427343 87.0476 0.462855C86.6332 0.485806 86.5926 0.638172 86.2672 0.633508C85.1852 0.618093 84.8076 0.405542 83.7881 0.589838C83.5694 0.629144 83.7867 0.795676 83.0034 0.664728C82.9542 0.656472 82.3726 0.536678 82.0366 0.612451C81.9944 0.622005 81.9957 0.670538 81.9401 0.674615C81.5671 0.700987 81.3183 0.662323 80.912 0.680841C80.5057 0.699359 80.0172 0.726965 79.5533 0.710504C79.2737 0.70066 78.915 0.610236 78.7812 0.588098C78.4033 0.524324 77.9981 0.628887 77.764 0.55166C77.5279 0.474045 77.9895 0.356174 77.3704 0.306025C77.3475 0.432118 77.2948 0.561539 77.258 0.688348C75.9013 0.683908 74.5665 0.643135 73.2053 0.648705C73.0365 0.649522 73.2091 0.71731 73.0282 0.719933C72.265 0.730702 71.5983 0.682379 70.8068 0.701623C70.1941 0.716778 69.5222 0.788551 68.8816 0.806633C68.4902 0.662347 67.5395 0.711329 66.8489 0.698144C66.607 0.693587 66.6232 0.655052 66.4511 0.64248C65.8021 0.595983 66.1062 0.723488 65.9283 0.743553C65.1649 0.829191 65.0995 0.540592 64.1995 0.547723C64.1518 0.548003 63.5689 0.701839 63.4886 0.711418C62.9785 0.773887 63.4042 0.657874 63.085 0.646508C62.5021 0.625736 62.0971 0.588998 61.4132 0.634057C61.2138 0.647403 60.7355 0.743287 60.3482 0.669121C60.2973 0.659409 60.3254 0.608561 60.2844 0.605584C59.5422 0.555946 59.5227 0.715718 59.0986 0.769829C58.6744 0.823928 58.0192 0.713635 57.8859 0.681847C57.5371 0.599614 58.1532 0.646703 58.1721 0.638634C58.394 0.542599 57.9162 0.559133 57.551 0.551018C57.4982 0.39436 56.9876 0.403763 57.1726 0.543236C57.1936 0.558471 57.4777 0.543861 57.551 0.551018C57.2306 0.704722 56.6694 0.724406 56.0497 0.580773C55.7595 0.513454 56.0338 0.434963 55.1525 0.463677C54.7526 0.476639 54.9071 0.584506 54.5541 0.613915C53.7478 0.681013 52.6999 0.580391 51.8686 0.596245C51.5669 0.602001 51.8608 0.661047 51.6546 0.667015C51.1074 0.683039 50.6247 0.638735 50.0751 0.66143C50.0254 0.663561 50.147 0.72537 49.9761 0.726158C48.6805 0.733336 47.5523 0.693747 46.1996 0.692649C45.546 0.692147 44.3774 0.726236 43.7003 0.719383C42.5268 0.707869 41.0832 0.617989 40.0807 0.639823C39.4268 0.6538 39.5703 0.715621 39.2901 0.757743C38.7495 0.839392 37.7926 0.69314 37.6637 0.670493C37.6598 0.669744 38.2224 0.65517 37.9222 0.623435C37.7476 0.557311 37.67 0.670207 37.6637 0.670493C37.5791 0.655864 36.4551 0.64183 36.232 0.653648C36.1107 0.660106 36.1785 0.718678 36.1153 0.720939C34.6124 0.773355 33.1069 0.788242 31.5826 0.760855C31.5558 0.759672 31.5962 0.694155 31.5331 0.692191C30.6506 0.663061 30.0856 0.743208 29.3578 0.790793C28.6301 0.838357 28.053 0.822426 27.6222 0.709952C27.0732 0.724113 26.2855 0.674389 25.8322 0.644217C25.3789 0.614046 25.3156 0.74158 25.2757 0.744101C24.0317 0.824798 23.3126 0.7518 22.022 0.740439C21.4084 0.734819 20.1913 0.753318 19.527 0.767264C19.0019 0.778498 18.6856 0.748611 18.2018 0.767721C18.1364 0.770273 18.2025 0.827058 18.1825 0.829244C17.6426 0.897184 17.9021 0.758365 17.7906 0.733572C17.3865 0.643413 17.1368 0.595395 16.4453 0.637808C16.2858 0.647521 15.8213 0.847401 15.5305 0.85909C15.1526 0.873922 15.2952 0.802277 14.8994 0.819631C14.8656 0.821051 14.8726 0.865251 14.6284 0.863302C13.4945 0.854837 12.2584 0.829118 11.0801 0.833547C10.9191 0.833983 11.1255 0.90409 10.8929 0.905874C9.80176 0.914184 8.60576 0.911589 7.54271 0.878774C7.28104 0.870476 7.44508 0.821389 7.38829 0.806814C7.03957 0.718625 6.54504 0.846761 6.46345 0.849202C4.51708 0.910778 3.02747 0.794817 1.04367 0.850026C0.976479 0.852043 0.629295 0.905984 0.287231 0.918075L0.966789 0.238521C0.974129 0.446219 0.966042 0.652028 0.921532 0.792129C0.913696 0.817518 0.793167 1.18442 0.875572 1.50884C0.88073 1.52899 0.942779 1.30037 0.936455 1.69934C0.930145 2.09832 0.97158 2.74043 0.903404 3.28885C0.881927 3.46248 0.761696 3.87286 0.857536 4.39077C0.864227 4.42452 1.08094 5.22408 0.931419 5.50947C0.906807 5.55573 0.748581 5.5073 0.829704 6.12547C0.845436 6.24356 0.880729 6.02917 0.902763 6.34031C0.936729 6.81704 0.894348 7.44869 0.964836 8.03473C0.977317 8.13693 1.08471 8.57198 1.0032 8.92096C0.990432 8.97562 0.937606 8.87177 0.931694 9.05608C0.903335 9.93246 0.938674 10.8501 0.902122 11.74C0.889282 12.0551 0.803886 11.894 0.780998 12.2225C0.758125 12.5511 0.736114 13.2131 0.775138 13.5569C0.814178 13.9008 0.950286 13.5251 0.961173 14.0403C0.96257 14.1064 0.963859 14.1725 0.965034 14.2385L0.287231 13.5607C2.4596 13.5219 4.61323 13.5975 6.78358 13.6088C7.11529 13.6105 6.8403 13.5618 7.32909 13.5609C9.13121 13.5573 12.2426 13.5116 13.8063 13.6151C15.0592 13.698 13.4825 13.7611 14.4399 13.7948C14.9019 13.8109 15.4018 13.6527 15.5133 13.6477C16.6028 13.5971 17.3601 13.6672 18.3407 13.6457C18.5432 13.6412 18.3446 13.5771 18.5169 13.574C19.1056 13.5629 19.7243 13.5915 20.2869 13.5863C20.5393 13.5838 20.4927 13.5348 20.725 13.5386C21.2806 13.5471 21.772 13.5677 22.3136 13.6136C22.363 13.6177 22.0301 13.6787 22.4412 13.6809C23.1066 13.6844 23.9324 13.7297 24.6979 13.683C24.925 13.6689 24.9339 13.5569 25.4222 13.6343C25.5246 13.6504 25.3939 13.7848 25.9626 13.6687C26.0583 13.6494 27.0136 13.4927 27.4825 13.5937C27.6062 13.6203 27.9219 13.7303 28.195 13.713C28.232 13.7102 28.0837 13.6501 28.31 13.6442C29.1076 13.6246 29.9436 13.631 30.7631 13.6122C30.9819 13.607 30.656 13.5448 30.9821 13.5391C31.879 13.5234 32.9988 13.5392 33.8758 13.5587C34.1991 13.566 33.9756 13.6176 33.9991 13.6232C34.3775 13.7144 34.6012 13.5913 34.7268 13.5841C35.5077 13.5411 36.1025 13.5989 36.8223 13.5836C37.021 13.5796 36.8801 13.5208 36.9197 13.5156C37.3298 13.4644 37.0243 13.5699 37.2839 13.5815C38.0112 13.6144 38.8219 13.6097 39.5574 13.6022C39.8276 13.5994 39.5239 13.5313 39.7664 13.5295C41.2013 13.5178 42.693 13.5243 44.0935 13.5618C44.3571 13.569 44.1912 13.6215 44.2462 13.6334C44.625 13.7172 45.1801 13.6029 45.3078 13.592C45.8886 13.5423 46.1142 13.5887 46.6271 13.5801C49.1327 13.537 52.2264 13.5677 54.5915 13.5866C57.6734 13.6111 60.065 13.6609 63.0039 13.648C63.1907 13.6472 63.0024 13.5775 63.1634 13.5759C65.2423 13.5591 67.289 13.5864 69.3721 13.5662C69.543 13.5647 69.2966 13.4986 69.571 13.4939C70.1337 13.4838 70.8466 13.4874 71.4156 13.5086C71.6931 13.5187 71.3209 13.5755 71.6002 13.5845C72.2507 13.6058 72.9479 13.6105 73.6161 13.5999C73.9004 13.5953 73.4714 13.5276 73.841 13.5269C76.3584 13.5202 78.8308 13.5085 81.3748 13.5961C81.5492 13.6021 81.7022 13.7395 82.073 13.7132C82.101 13.675 82.0995 13.6302 82.1117 13.5894C85.7764 13.5674 89.4037 13.6151 93.0788 13.6224C93.2337 13.6227 92.9659 13.5499 93.2659 13.5501C94.2809 13.5507 95.2786 13.5441 96.2872 13.553L95.6017 14.2385C95.6079 13.5217 95.622 12.7994 95.6521 12.0616C95.6592 11.8854 95.7873 11.9758 95.7679 11.4565C95.7644 11.3649 95.7473 10.5828 95.7195 10.3806C95.7153 10.3532 95.6555 10.4958 95.6538 10.2438C95.6447 8.77926 95.6583 7.24448 95.6949 5.78245C95.7009 5.5465 95.7646 5.79778 95.7694 5.62971C95.8032 4.43757 95.7548 3.14085 95.8126 2.0017C95.8515 1.23919 95.9616 1.52149 96.07 1.11631C96.0852 1.059 96.0877 0.586829 96.1507 0.562412C96.3092 0.499725 96.4828 0.728429 96.6518 0.634586C96.6882 0.61476 96.649 -0.0175956 96.7369 0.356799C96.7428 0.382955 96.772 0.841416 96.8018 0.954335C96.8224 1.03295 96.8866 0.89128 96.913 1.05169C96.9393 1.21208 96.8856 1.38833 96.9166 1.65426C96.948 1.92007 97.021 1.80319 97.0296 2.33404ZM23.7911 0.50936C23.3714 0.448114 23.3095 0.672435 23.7634 0.618766C23.7854 0.615905 23.8128 0.512365 23.7911 0.50936ZM74.5741 0.473932C74.0254 0.374991 73.6499 0.520474 74.037 0.596887C74.424 0.673218 74.7413 0.503925 74.5741 0.473932ZM80.2641 0.401697C79.6228 0.323687 79.5219 0.641783 80.2087 0.577478C80.2487 0.573844 80.3016 0.406227 80.2641 0.401697ZM96.1008 2.99535C96.1038 2.98956 96.1067 2.65015 96.1037 2.64204C96.0325 2.46131 96.0267 3.13999 96.1008 2.99535ZM85.9105 0.323054C85.7103 0.280025 85.1338 0.329697 85.3826 0.383204C85.5828 0.426249 86.1598 0.37658 85.9105 0.323054ZM1.89633 0.26995C1.88971 0.266607 1.64639 0.263597 1.65128 0.282493C1.6678 0.343351 2.00643 0.326175 1.89633 0.26995ZM95.5071 0.319392C94.0893 0.307419 93.2296 0.0446561 94.7736 0.0743064C95.0533 0.079671 94.171 0.158099 94.5269 0.181789C95.1781 0.224947 95.6105 0.0599647 96.275 0.148372C96.3953 0.164554 95.588 0.320659 95.5046 0.319759C95.5055 0.319636 95.5063 0.319514 95.5071 0.319392ZM23.5494 0.239922C23.541 0.236955 23.2042 0.234143 23.1961 0.237083C23.0137 0.308299 23.6923 0.314007 23.5494 0.239922ZM0.179954 12.8284C0.173637 12.847 0.167724 13.6288 0.173545 13.6542C0.290008 14.062 0.302299 12.4816 0.179954 12.8284ZM46.2356 0.0757691C46.6032 0.00412575 47.0429 -0.00430944 47.3359 0.0856568C46.9706 0.0808809 46.6029 0.0801774 46.2356 0.0757691Z" fill="black"/>
<path d="M51.245 1.35282C51.2645 1.42007 51.2436 1.50822 51.215 1.57521C51.2061 1.5962 51.1663 1.58557 51.1584 1.60006C51.1429 1.62841 51.1624 1.65482 51.144 1.68283C51.1377 1.69211 51.0747 1.68055 51.0696 1.69029C51.0417 1.74363 51.0578 1.79409 51.0444 1.84813C50.9783 2.11428 50.9547 2.37591 50.926 2.64532C50.9166 2.73416 50.8595 2.84214 50.8844 2.9339C50.8874 2.94461 50.9427 2.93822 50.9473 2.94026C51.017 2.97222 50.9054 2.9616 50.8906 2.98247C50.832 3.0653 50.827 3.15741 50.8483 3.23712C50.8575 3.27103 50.9673 3.23703 50.9057 3.27118C50.9015 3.27355 50.8428 3.26495 50.8366 3.27425C50.8225 3.29534 50.833 3.33535 50.8283 3.3517C50.8191 3.3832 50.8197 3.38842 50.819 3.41821C50.8176 3.45895 50.7884 3.5074 50.8017 3.5511C50.8047 3.56043 50.8649 3.54808 50.8751 3.56296C50.8853 3.57785 50.8802 3.61724 50.866 3.63052C50.8519 3.64381 50.8046 3.63815 50.7937 3.6405C50.7022 3.65984 50.8289 3.70541 50.8321 3.71127C50.8855 3.81817 50.8133 3.90985 50.8135 4.01019C50.8138 4.08637 50.8376 4.16783 50.8344 4.24031C50.8302 4.32667 50.7976 4.39986 50.8032 4.48375C50.8038 4.49261 50.8745 4.48223 50.8753 4.49304C50.8835 4.60793 50.8758 4.72202 50.8281 4.83641C50.8232 4.84789 50.7611 4.8331 50.7525 4.84456C50.7015 4.91474 50.5788 5.02577 50.8493 5.06745C50.8387 5.11498 50.8278 5.17269 50.7733 5.21521C50.7382 5.24263 50.6705 5.216 50.6994 5.24968C50.7059 5.25728 50.7651 5.2474 50.7703 5.25879C50.792 5.30676 50.7727 5.35916 50.8033 5.40661C50.8097 5.41626 50.8628 5.41362 50.8724 5.41636C50.9498 5.43934 50.8218 5.4776 50.8125 5.48594C50.7431 5.54944 50.7704 5.59583 50.7687 5.65499C50.7683 5.66872 50.8396 5.65249 50.8418 5.6657C50.852 5.73422 50.8459 5.8052 50.8142 5.87229C50.807 5.88721 50.7463 5.87349 50.7397 5.88062C50.7115 5.91207 50.8263 5.91904 50.8015 5.94919C50.7964 5.95555 50.7444 5.95197 50.7387 5.95313C50.649 5.97128 50.7761 5.98705 50.7789 5.99172C50.8172 6.05078 50.6846 6.08852 50.7034 6.14558C50.7057 6.1524 50.7715 6.13701 50.7742 6.1562C50.7924 6.28401 50.7743 6.41919 50.7217 6.54571C50.7136 6.56538 50.6641 6.55134 50.658 6.55257C50.5628 6.57275 50.6904 6.5858 50.6952 6.59222C50.7298 6.64282 50.6228 6.69008 50.7748 6.72446C50.722 6.93876 50.8074 7.15208 50.6712 7.3646C50.6696 7.3673 50.6068 7.36246 50.6039 7.36785C50.5686 7.43277 50.6663 7.4203 50.7858 7.46325C50.8157 7.47407 50.6715 7.50698 50.661 7.5099C50.622 7.52051 50.5285 7.5095 50.521 7.51306C50.4617 7.54246 50.7709 7.53766 50.771 7.57733C50.7705 7.57857 50.7136 7.57336 50.7079 7.57668C50.6902 7.58703 50.7128 7.59728 50.6932 7.6074C50.6479 7.63056 50.4976 7.63881 50.5851 7.67419C50.5964 7.67867 50.7718 7.67183 50.7635 7.70724C50.7601 7.72135 50.7631 7.78384 50.7517 7.80136C50.7403 7.81885 50.6838 7.80684 50.6814 7.80808C50.6067 7.85521 50.5757 7.83734 50.465 7.86096C50.3548 7.88457 50.6177 7.87802 50.6471 7.88764C50.6763 7.89729 50.6147 7.93184 50.5932 7.94033C50.5718 7.94882 50.5359 7.93823 50.5237 7.94578C50.4445 7.99582 50.6542 7.96774 50.6959 7.98423C50.7947 8.0231 50.5998 8.05338 50.5807 8.08897C50.5755 8.0986 50.6199 8.09074 50.6241 8.09932C50.6399 8.13328 50.5791 8.1537 50.6349 8.19233C50.644 8.19865 50.7612 8.22989 50.6752 8.2501C50.6628 8.25297 50.6142 8.24483 50.6033 8.2593C50.587 8.28092 50.5763 8.31988 50.5926 8.34312C50.6046 8.36028 50.6846 8.34061 50.6598 8.36221C50.6487 8.37181 50.6018 8.35402 50.5849 8.37205C50.5679 8.38999 50.57 8.43585 50.5716 8.4533C50.5733 8.47072 50.634 8.46119 50.6381 8.4626C50.6615 8.47112 50.6908 8.50455 50.6907 8.5075C50.6981 8.65653 50.5958 8.79395 50.6297 8.93904C50.6322 8.95043 50.6963 8.94284 50.6973 8.94458C50.7241 8.98356 50.5539 8.95283 50.4969 8.98005C50.6268 8.97612 50.6033 8.99219 50.6176 9.01965C50.6245 9.03288 50.6749 9.02568 50.68 9.02688C50.7564 9.0465 50.6577 9.06017 50.6375 9.06369C50.5633 9.07668 50.651 9.09083 50.6014 9.09967C50.5521 9.10851 50.479 9.08817 50.48 9.1145C50.5265 9.12188 50.648 9.10233 50.6677 9.12233C50.7423 9.19776 50.6469 9.33858 50.637 9.39923C50.6271 9.45976 50.6357 9.47931 50.6189 9.51459C50.5885 9.5783 50.6786 9.55495 50.7199 9.59451C50.7612 9.63419 50.5393 9.6149 50.4916 9.6206C50.4439 9.6262 50.493 9.63232 50.4668 9.63928C50.4406 9.64622 50.4081 9.6312 50.3983 9.64752C50.3885 9.66386 50.4733 9.70852 50.5232 9.71431C50.6289 9.72655 50.7398 9.70642 50.7008 9.74965C50.6985 9.75213 50.6401 9.74407 50.6342 9.75358C50.5893 9.82919 50.5865 9.90773 50.5468 9.98325C50.5412 9.99363 50.4763 9.98434 50.4724 9.99039C50.4309 10.0533 50.5403 10.0308 50.6619 10.0653C50.5001 10.0576 50.4011 10.0767 50.4001 10.1244C50.3995 10.1531 50.4702 10.1482 50.52 10.1668C50.535 10.1723 50.4865 10.1927 50.5197 10.1963C50.6283 10.2085 50.75 10.1893 50.7015 10.2386C50.6992 10.2407 50.6398 10.2339 50.6362 10.2413C50.6126 10.2896 50.7262 10.2954 50.74 10.3475C50.7508 10.3884 50.6815 10.4611 50.6702 10.5077C50.4883 10.5067 50.53 10.5507 50.6554 10.5685C50.6502 10.5988 50.6573 10.6314 50.64 10.6606C50.6341 10.6707 50.5814 10.664 50.5757 10.6653C50.4865 10.6848 50.6085 10.6979 50.6133 10.7044C50.6598 10.7751 50.5673 10.8327 50.6577 10.9001C50.6609 10.9025 50.7873 10.9064 50.695 10.9245C50.6887 10.9256 50.6312 10.9033 50.6267 10.9351C50.6223 10.9668 50.5545 11.0266 50.6131 11.0707C50.6272 11.0814 50.7298 11.1083 50.6496 11.13C50.6387 11.1329 50.6025 11.1297 50.5823 11.1339C50.5181 11.1473 50.6458 11.1547 50.5373 11.1705C50.4288 11.1863 50.3475 11.2192 50.4224 11.2637C50.4246 11.2651 50.5258 11.2756 50.5242 11.2896C50.5215 11.3119 50.5005 11.3435 50.5011 11.3668C50.5015 11.378 50.5643 11.3709 50.5655 11.3728C50.6007 11.4478 50.5447 11.5011 50.5203 11.5815C50.5158 11.5962 50.6015 11.6385 50.5337 11.667C50.4595 11.6983 50.1509 11.6662 50.2244 11.7381C50.2539 11.7672 50.6454 11.8039 50.4425 11.8561C50.4928 11.9572 50.389 12.0507 50.4607 12.1522C50.4639 12.1567 50.5732 12.1712 50.5717 12.1819C50.5693 12.1978 50.5182 12.2065 50.5149 12.2179C50.4995 12.2655 50.5432 12.3091 50.5364 12.3551C50.5339 12.3725 50.4811 12.3664 50.4781 12.3872C50.4752 12.408 50.5448 12.4218 50.5112 12.45C50.4856 12.4713 50.3435 12.4925 50.3269 12.5208C50.4671 12.5218 50.4642 12.5412 50.5012 12.5757C50.5084 12.5823 50.5572 12.5752 50.5631 12.5784C50.5882 12.5911 50.5478 12.6029 50.5752 12.615C50.5818 12.618 50.6296 12.6181 50.6377 12.6205C50.7082 12.641 50.6005 12.6747 50.5818 12.6805C50.5106 12.7027 50.5728 12.7131 50.5448 12.7302C50.5167 12.7472 50.4817 12.7217 50.4647 12.7416C50.4295 12.7828 50.4372 12.8357 50.435 12.8775C50.4344 12.8942 50.4983 12.8828 50.4997 12.8852C50.516 12.9197 50.448 12.9546 50.5753 12.9737C50.2461 12.9977 50.6072 12.9945 50.5413 13.0439C50.536 13.0477 50.3803 13.0527 50.3575 13.0378C50.3346 13.0229 50.3833 13.0002 50.3477 12.9795C50.3393 12.9746 50.1935 12.9466 50.1846 12.9427C50.1156 12.9127 50.3482 12.9085 50.3609 12.9069C50.4988 12.8889 50.3417 12.8546 50.3308 12.8456C50.2811 12.8042 50.3138 12.7691 50.2783 12.7345C50.2553 12.7119 50.103 12.7097 50.1076 12.692C50.123 12.633 50.3356 12.6124 50.1513 12.5568C50.112 12.5448 49.9455 12.5567 50.0764 12.514C50.0847 12.5113 50.2045 12.4795 50.1287 12.4612C50.1191 12.4589 50.0706 12.459 50.0665 12.456C50.0401 12.4356 50.0788 12.422 50.0603 12.3999C50.0418 12.3777 50.0142 12.3511 50.0306 12.3258C50.0405 12.3105 50.1309 12.291 50.153 12.2837C50.2168 12.263 50.1122 12.2409 50.1895 12.2282C50.2671 12.2153 50.385 12.2405 50.4351 12.2067C50.309 12.2054 50.1796 12.2026 50.0528 12.2006C50.0572 12.1266 50.098 12.0538 50.0924 11.9795C50.0916 11.9703 50.0238 11.9797 50.0212 11.9699C50.0104 11.9282 50.0588 11.8919 50.0395 11.8487C50.0244 11.8153 49.9526 11.7786 49.9345 11.7437C50.0788 11.7223 50.0298 11.6705 50.043 11.6328C50.0475 11.6196 50.0861 11.6205 50.0987 11.6111C50.1451 11.5757 50.0176 11.5923 49.9976 11.5826C49.9119 11.5409 50.2005 11.5374 50.1934 11.4883C50.1931 11.4857 50.0393 11.4539 50.0297 11.4495C49.9672 11.4217 50.0833 11.4449 50.0946 11.4275C50.1154 11.3957 50.1521 11.3736 50.1071 11.3363C50.0937 11.3254 49.9978 11.2993 50.072 11.2782C50.0817 11.2754 50.1326 11.277 50.1356 11.2747C50.1852 11.2343 50.0254 11.2332 49.9713 11.2101C49.9172 11.1869 50.0275 11.1512 50.0593 11.1439C50.1415 11.1249 50.0944 11.1585 50.1025 11.1595C50.1985 11.1716 50.182 11.1456 50.1901 11.1256C50.3468 11.1228 50.3374 11.0949 50.1979 11.105C50.1827 11.1061 50.1973 11.1216 50.1901 11.1256C50.0364 11.1082 50.0167 11.0776 50.1604 11.0437C50.2277 11.0279 50.3062 11.0429 50.2775 10.9948C50.2645 10.973 50.1566 10.9814 50.1272 10.9622C50.0601 10.9182 50.1607 10.861 50.1449 10.8157C50.1391 10.7992 50.0801 10.8153 50.0741 10.804C50.0581 10.7742 50.1024 10.7478 50.0797 10.7179C50.0776 10.7151 50.0158 10.7218 50.015 10.7125C50.0078 10.6418 50.0474 10.5803 50.0485 10.5065C50.049 10.4708 50.0149 10.4071 50.0218 10.3701C50.0333 10.3061 50.1231 10.2274 50.1013 10.1727C50.0873 10.1371 50.0255 10.1449 49.9834 10.1296C49.9017 10.1001 50.048 10.0479 50.0706 10.0409C50.0714 10.0407 50.086 10.0714 50.1177 10.055C50.1838 10.0455 50.0709 10.0412 50.0706 10.0409C50.0853 10.0363 50.0993 9.97496 50.0875 9.96278C50.081 9.95617 50.0225 9.95987 50.0202 9.95642C49.9678 9.87444 49.9529 9.79233 49.9803 9.70918C49.9815 9.70772 50.047 9.70992 50.0489 9.70648C50.0781 9.65835 49.9979 9.62753 49.9503 9.58783C49.9028 9.54814 49.9187 9.51666 50.0312 9.49316C50.017 9.46321 50.0667 9.42025 50.0969 9.39552C50.1271 9.3708 49.9995 9.36735 49.997 9.36517C49.9163 9.29732 49.9893 9.25809 50.0007 9.1877C50.0063 9.15423 49.9878 9.08784 49.9739 9.0516C49.9626 9.02297 49.9925 9.00571 49.9734 8.97932C49.9709 8.97575 49.9141 8.97936 49.9119 8.97827C49.8439 8.94882 49.9828 8.96297 50.0076 8.95689C50.0977 8.93485 50.1457 8.92123 50.1033 8.88351C50.0936 8.87481 49.8937 8.84947 49.882 8.83361C49.8672 8.813 49.9389 8.82078 49.9215 8.79919C49.9201 8.79734 49.8759 8.79773 49.8778 8.78441C49.8863 8.72256 49.912 8.65513 49.9076 8.59086C49.9071 8.58208 49.837 8.59334 49.8353 8.58065C49.8269 8.52114 49.8295 8.4559 49.8624 8.39791C49.8707 8.38364 49.9197 8.39259 49.9343 8.38949C50.0225 8.37047 49.8944 8.3435 49.8919 8.33905C49.8304 8.23288 49.9463 8.15163 49.8911 8.04342C49.8879 8.03753 49.7505 7.99219 49.8683 7.97196C49.8761 7.97058 49.9967 7.95057 49.9143 7.93287C49.9091 7.93177 49.8471 7.94424 49.8534 7.92248C49.8597 7.90072 49.8183 7.86569 49.8864 7.83578C49.9079 7.82631 50.0281 7.80393 49.9323 7.77567C49.9256 7.77383 49.7089 7.73022 49.8584 7.71466C49.883 7.71213 50.0413 7.71477 49.9601 7.68106C49.9444 7.67461 49.9091 7.68631 49.8871 7.66934C49.8531 7.64333 49.8955 7.60888 49.825 7.57691C49.8125 7.57134 49.7051 7.54761 49.7866 7.52857C49.7994 7.52559 49.8522 7.53126 49.8581 7.5212C49.8865 7.4734 49.8512 7.42335 49.8877 7.37481C49.9006 7.35762 49.986 7.36641 50.0088 7.34849C50.0317 7.33056 50.0537 7.29446 50.0147 7.2757C49.9757 7.25695 49.8396 7.27744 49.8287 7.24934C49.7814 7.12718 49.8612 7.00616 49.8729 6.88418C49.8746 6.86609 49.8259 6.88108 49.825 6.85442C49.8214 6.75613 49.7757 6.58642 49.8792 6.50112C49.9621 6.43278 50.0252 6.51878 50.0589 6.46656C50.075 6.44136 49.9168 6.41409 49.9118 6.40801C49.8612 6.34858 49.9313 6.30728 49.9098 6.25379C49.9053 6.24274 49.8412 6.25358 49.8381 6.24418C49.827 6.21207 49.8556 6.17832 49.8504 6.14763C49.8479 6.13387 49.7989 6.13641 49.8027 6.12374C49.8111 6.09343 49.8317 6.06663 49.8776 6.03708C49.8818 6.03439 49.9428 6.05255 49.945 6.03013C49.9485 5.99383 49.9938 5.94879 49.947 5.90703C49.933 5.89464 49.821 5.89416 49.8983 5.86753C49.9145 5.86194 50.0489 5.86907 49.9328 5.83805C49.9135 5.83283 49.7568 5.78072 49.8578 5.75515C49.8844 5.7484 49.9944 5.73118 49.9771 5.71628C49.9743 5.71426 49.9142 5.72236 49.9083 5.71001C49.8887 5.6665 49.8951 5.62091 49.8763 5.57621C49.8711 5.56427 49.8089 5.58205 49.8032 5.56426C49.7875 5.51534 49.8033 5.45426 49.8228 5.40642C49.8301 5.38879 49.8816 5.40098 49.8873 5.39969C49.9785 5.37906 49.8553 5.36685 49.8482 5.36C49.8052 5.31741 49.863 5.28497 49.8477 5.2457C49.8436 5.23486 49.7849 5.24255 49.7797 5.24039C49.7285 5.21802 49.834 5.23468 49.8456 5.22052C49.8785 5.18085 49.8738 5.13663 49.8663 5.09652C49.8635 5.08178 49.7954 5.09834 49.7936 5.08512C49.7819 5.00685 49.7884 4.92548 49.8259 4.84909C49.8331 4.83471 49.8855 4.84376 49.8975 4.84076C49.9813 4.8201 49.867 4.78982 49.8561 4.78285C49.8064 4.75118 49.8528 4.73887 49.8441 4.71089C49.8011 4.57423 49.8318 4.40548 49.8507 4.27648C49.8751 4.10837 49.925 3.97792 49.9121 3.81761C49.9113 3.80742 49.8416 3.8177 49.84 3.80891C49.8232 3.69552 49.8505 3.58388 49.8303 3.47026C49.8288 3.46094 49.7627 3.47438 49.758 3.45941C49.7479 3.42871 49.7515 3.38983 49.7726 3.35879C49.7828 3.34366 49.8395 3.36396 49.8486 3.34872C49.8699 3.31324 49.8746 3.27521 49.864 3.23877C49.8593 3.22326 49.7917 3.24666 49.7909 3.2265C49.7842 3.08919 49.7726 2.95433 49.8602 2.81557C49.8662 2.80605 50.0036 2.79771 49.9773 2.77748C49.9391 2.77596 49.8942 2.77604 49.8535 2.77537C49.8315 2.57548 49.8792 2.37762 49.8865 2.17717C49.8868 2.16872 49.814 2.18332 49.8142 2.16696C49.8153 2.07225 49.7951 1.98029 49.8675 1.88342C49.8746 1.87381 50.0027 1.87874 49.9833 1.85041C49.9798 1.84542 49.9627 1.80276 49.9349 1.79173C49.9307 1.79023 49.8709 1.79801 49.8691 1.78427C49.8601 1.70438 49.8737 1.62067 49.9102 1.54092C49.9162 1.52805 49.9799 1.54176 49.9848 1.53259C50.0186 1.46756 49.9702 1.39683 50.028 1.3347C50.0669 1.29311 50.177 1.3085 50.2853 1.2864C50.3006 1.28328 50.303 1.25752 50.3661 1.25619C50.5246 1.25277 50.6982 1.26525 50.8671 1.26013C50.9035 1.25905 50.8643 1.22455 50.9523 1.24497C50.9582 1.2464 50.9874 1.27141 51.0172 1.27757C51.0378 1.28186 51.1019 1.27413 51.1283 1.28288C51.1547 1.29163 51.101 1.30124 51.132 1.31575C51.1634 1.33024 51.2363 1.32387 51.245 1.35282ZM50.2318 9.28419C50.293 9.2613 50.0687 9.25792 50.1224 9.28268C50.1252 9.28388 50.2288 9.28537 50.2318 9.28419ZM50.2672 12.0542C50.3661 12.0242 50.2207 12.0038 50.1442 12.0249C50.0679 12.046 50.2372 12.0633 50.2672 12.0542ZM50.3394 12.3645C50.4174 12.3296 50.0993 12.3241 50.1637 12.3615C50.1673 12.3637 50.3349 12.3666 50.3394 12.3645ZM50.3162 1.3889C50.3192 1.38858 50.3221 1.37007 50.3191 1.36962C50.2479 1.35977 50.2421 1.39679 50.3162 1.3889ZM50.4181 12.6725C50.4611 12.6616 50.4114 12.6302 50.3579 12.6437C50.3149 12.6547 50.3646 12.6861 50.4181 12.6725ZM50.4712 8.08993C50.4745 8.08957 50.4775 8.0763 50.4586 8.07656C50.3978 8.07747 50.415 8.09593 50.4712 8.08993ZM50.4217 13.196C50.4337 13.1186 50.6965 13.0717 50.6668 13.156C50.6615 13.1712 50.583 13.1231 50.5593 13.1425C50.5162 13.178 50.6812 13.2016 50.5928 13.2379C50.5766 13.2444 50.4205 13.2004 50.4214 13.1958C50.4215 13.1959 50.4216 13.1959 50.4217 13.196ZM50.5012 9.27101C50.5042 9.27055 50.507 9.25218 50.504 9.25174C50.4328 9.24179 50.4271 9.2788 50.5012 9.27101ZM50.6099 7.31544C50.6162 7.31443 50.6221 7.27179 50.6163 7.27039C50.4998 7.24815 50.4875 7.33436 50.6099 7.31544ZM50.6654 10.5084C50.737 10.5285 50.7454 10.5525 50.6555 10.5685C50.6603 10.5485 50.661 10.5285 50.6654 10.5084ZM93.917 7.9809C93.3915 8.00044 92.7026 7.97955 92.179 7.95087C92.0149 7.94198 92.098 7.90222 91.9847 7.89429C91.7632 7.87883 91.5568 7.89833 91.3379 7.87992C91.2654 7.87362 91.3557 7.81065 91.2796 7.80548C90.8627 7.77765 90.4683 7.79369 90.046 7.78031C87.9659 7.71426 85.9212 7.69062 83.8156 7.66193C83.1214 7.65252 82.2774 7.59537 81.5603 7.62037C81.4766 7.62334 81.5265 7.67861 81.5106 7.68317C81.2608 7.75291 81.3438 7.64133 81.1807 7.6265C80.5334 7.56796 79.8135 7.56287 79.1905 7.5842C78.9255 7.59344 79.1912 7.70323 78.9243 7.64161C78.9058 7.63744 78.973 7.57874 78.9004 7.57248C78.7355 7.5584 78.4228 7.56889 78.295 7.56424C78.0488 7.55498 78.0081 7.55557 77.7752 7.55491C77.4568 7.55348 77.0782 7.5243 76.7366 7.5376C76.6637 7.54062 76.7602 7.60079 76.644 7.61103C76.5276 7.62125 76.2197 7.61615 76.1159 7.60196C76.0121 7.58777 76.0563 7.54048 76.0379 7.52964C75.8868 7.43814 75.5306 7.56486 75.4848 7.568C74.6493 7.6214 73.9329 7.54921 73.1486 7.54941C72.5533 7.54972 71.9167 7.57355 71.3502 7.57029C70.6753 7.56616 70.1033 7.53355 69.4476 7.53916C69.3784 7.53968 69.4595 7.61043 69.375 7.61121C68.4771 7.61944 67.5854 7.61173 66.6914 7.56397C66.6018 7.55912 66.7173 7.497 66.6277 7.48844C66.0793 7.43739 65.2115 7.31476 64.8858 7.58521C64.5143 7.57465 64.0633 7.56374 63.7309 7.50922C63.5167 7.47413 63.7248 7.40646 63.4615 7.43534C63.4022 7.44177 63.4794 7.50103 63.3904 7.5062C63.0155 7.52789 62.606 7.50863 62.2351 7.53925C62.1597 7.54562 62.1803 7.59872 62.1589 7.60828C61.9793 7.68572 61.6803 7.55771 61.6152 7.5484C61.1188 7.47904 60.7563 7.50634 60.2939 7.50464C60.1866 7.50422 60.3135 7.57555 60.2102 7.5777C59.6747 7.58792 59.12 7.58179 58.5956 7.55014C58.479 7.54293 58.5863 7.48217 58.5305 7.47562C58.2848 7.44746 58.2303 7.56221 57.9946 7.53742C57.9449 7.53234 57.9729 7.48033 57.9638 7.47461C57.822 7.38494 57.6987 7.512 57.6623 7.5148C57.2007 7.55313 56.9057 7.42049 56.4598 7.43927C56.4065 7.44165 56.5268 7.50747 56.3768 7.51013C55.3779 7.5283 54.3214 7.51022 53.3326 7.45758C53.1789 7.44949 53.2886 7.40005 53.279 7.39395C53.1213 7.29873 53.0193 7.42632 52.9691 7.43113C52.5737 7.46571 52.2043 7.35871 51.9356 7.51068C50.2608 7.45795 48.5936 7.54328 46.9327 7.40714C46.9115 7.40556 46.9494 7.34272 46.9072 7.33985C46.3999 7.30456 46.4974 7.40223 46.1617 7.52167C46.0771 7.55166 45.8199 7.40745 45.7971 7.39688C45.7142 7.35793 45.8002 7.26444 45.7724 7.2569C45.5427 7.19766 45.5801 7.50683 45.2701 7.50693C45.2604 7.50641 45.3012 7.44951 45.2751 7.44385C45.1943 7.42609 45.1142 7.4487 45.0351 7.42911C44.8541 7.38378 44.7896 7.23356 44.5131 7.32099C44.4781 7.33233 44.5316 7.50771 44.2548 7.49942C44.1445 7.49597 43.6561 7.49898 43.5193 7.48761C43.3826 7.47626 43.4764 7.41975 43.4667 7.4173C43.0983 7.34257 43.238 7.3116 43.0534 7.20096C42.8689 7.09074 42.9201 7.35363 42.8449 7.38297C42.7695 7.41223 42.4995 7.35057 42.4331 7.32914C42.3668 7.30769 42.4495 7.27178 42.3905 7.25965C41.9994 7.18037 42.2189 7.39013 42.09 7.43186C41.7862 7.53065 41.5496 7.3357 41.2714 7.31659C41.1962 7.31143 41.2576 7.35584 41.1906 7.35999C40.9252 7.37585 40.7656 7.31501 40.4636 7.37079C40.4142 7.37988 40.1701 7.49709 40.0121 7.41107C39.9897 7.39867 40.0533 7.35009 39.9402 7.33921C39.7713 7.32287 39.4668 7.31226 39.2852 7.32849C39.1511 7.34051 39.3048 7.42056 39.136 7.39569C39.061 7.38459 39.2 7.33776 39.0591 7.3208C38.9189 7.30385 38.5604 7.30591 38.424 7.30753C38.2879 7.30918 38.3624 7.3699 38.3514 7.374C38.2848 7.39743 38.0235 7.42671 38.0004 7.42664C36.8358 7.43405 35.7618 7.3317 34.6278 7.36557C34.5388 7.36814 34.5981 7.43218 34.5845 7.43323C34.2799 7.46006 34.5201 7.28981 34.3073 7.23282C34.338 7.36277 34.2124 7.33924 33.9978 7.35349C33.8944 7.36046 33.9507 7.41078 33.9413 7.41593C33.7879 7.49235 33.6811 7.39364 33.6536 7.37345C33.5521 7.29917 33.4416 7.38693 33.3724 7.33728C33.3034 7.288 33.4623 7.21495 33.2565 7.21588C33.1988 7.2624 33.3516 7.38396 33.1954 7.40366C32.6058 7.47818 31.5053 7.3828 31.0313 7.3729C30.5582 7.363 30.4054 7.37158 30.1297 7.35477C29.6318 7.32437 29.8142 7.41456 29.5051 7.45584C29.195 7.49712 29.3457 7.27522 29.3011 7.22751C29.2574 7.17983 29.2096 7.22891 29.1552 7.2027C29.1009 7.17649 29.2184 7.14406 29.0908 7.13422C28.9631 7.12439 28.614 7.20922 28.5688 7.2591C28.4731 7.36477 28.6304 7.47568 28.2926 7.43671C28.2732 7.4344 28.3362 7.37605 28.2618 7.37015C27.671 7.32523 27.0571 7.32245 26.4669 7.28272C26.3858 7.27716 26.4584 7.21225 26.4111 7.20829C25.9192 7.16677 26.0951 7.27622 25.8255 7.3978C25.886 7.236 25.7369 7.13701 25.3636 7.13605C25.1392 7.13542 25.1778 7.20609 25.0327 7.25589C24.9891 7.27091 24.8304 7.22238 24.8016 7.25562C24.7067 7.36425 24.8563 7.48587 24.4714 7.43744C24.4545 7.43514 24.5082 7.37567 24.4499 7.37207C24.0727 7.3485 24.0276 7.46213 23.6199 7.47589C23.3003 7.48669 22.732 7.4174 22.3681 7.40613C22.3757 7.22422 22.032 7.26587 21.8926 7.3913C21.6565 7.38616 21.4014 7.39325 21.1732 7.37592C21.0946 7.37001 21.1462 7.31734 21.1363 7.31165C20.9844 7.22238 20.8817 7.3444 20.8308 7.34918C20.2783 7.39569 19.8282 7.3032 19.301 7.39359C19.2823 7.39684 19.252 7.5232 19.111 7.43094C19.1019 7.42458 19.2761 7.36709 19.028 7.36264C18.78 7.35819 18.3123 7.29045 17.968 7.349C17.8846 7.3631 17.6739 7.46568 17.5047 7.38553C17.4821 7.37465 17.5068 7.33841 17.4743 7.31824C17.3691 7.25398 17.3117 7.3817 17.1881 7.2732C17.0645 7.1647 16.8073 7.08344 16.46 7.1583C16.449 7.16047 16.3667 7.2617 16.2575 7.2601C16.0832 7.25746 15.8357 7.23637 15.6536 7.23703C15.5665 7.23738 15.6222 7.30024 15.6071 7.30139C15.021 7.33662 14.604 7.28058 13.9761 7.25626C13.861 7.25168 13.5302 7.33739 13.3074 7.26962C13.0628 7.19544 13.3142 6.88684 12.7518 6.96036C12.525 6.98977 12.2379 7.38128 11.8302 7.17844C11.0397 7.2287 10.3086 7.12489 9.5159 7.19666C9.48023 7.19984 9.36753 7.30911 9.28371 7.30762C9.15929 7.3052 9.091 7.25413 9.00215 7.25076C8.62987 7.23538 8.28922 7.27908 7.9303 7.27228C7.79405 7.26981 7.84167 7.217 7.67915 7.21405C7.51671 7.21115 7.40843 7.28069 7.18831 7.2471C7.02206 7.2215 6.85587 7.07937 6.63521 7.06281C6.62679 7.203 6.47526 7.20012 6.20589 7.23712C6.15412 7.2443 6.20963 7.2931 6.18514 7.29901C6.08546 7.32416 5.99324 7.28372 5.89857 7.3111C5.87556 7.31767 5.87447 7.36555 5.85564 7.37363C5.69559 7.44414 5.43191 7.33644 5.38662 7.31769C5.21304 7.24648 5.13195 7.30875 4.9988 7.2807C4.86591 7.25266 5.06462 7.21761 4.90936 7.20059C4.58754 7.1654 4.17404 7.17313 3.84717 7.17093C3.71676 7.17035 3.80575 7.23426 3.78706 7.23566C3.51739 7.25187 3.2447 7.18389 3.09516 7.31119C2.90819 6.98203 2.93254 7.34312 2.54707 7.27722C2.51671 7.27189 2.47809 7.11624 2.59465 7.09339C2.71123 7.07056 2.88801 7.11921 3.04972 7.08359C3.08803 7.07523 3.30744 6.92937 3.33736 6.92053C3.57185 6.85148 3.60509 7.08409 3.61748 7.09687C3.75818 7.23474 4.02629 7.0776 4.09689 7.06674C4.41988 7.01699 4.69432 7.04971 4.96446 7.01419C5.14114 6.99124 5.15843 6.83888 5.29718 6.84354C5.7584 6.85895 5.91939 7.07151 6.354 6.88721C6.44719 6.8479 6.35458 6.68137 6.68851 6.81232C6.70948 6.82058 6.9574 6.94037 7.10065 6.8646C7.11864 6.85504 7.11807 6.80651 7.1418 6.80243C7.3008 6.77606 7.40683 6.81472 7.58005 6.79621C7.75324 6.77769 7.96152 6.75008 8.15926 6.76654C8.27844 6.77639 8.43137 6.86681 8.4884 6.88895C8.6495 6.95272 8.82222 6.84816 8.92201 6.92539C9.02264 7.003 8.82591 7.12087 9.0898 7.17102C9.09957 7.04493 9.12203 6.91551 9.13774 6.7887C9.71606 6.79314 10.2851 6.83391 10.8654 6.82834C10.9373 6.82753 10.8637 6.75974 10.9409 6.75711C11.2662 6.74635 11.5504 6.79467 11.8878 6.77542C12.149 6.76027 12.4355 6.6885 12.7085 6.67041C12.8754 6.8147 13.2806 6.76572 13.5751 6.7789C13.6782 6.78346 13.6713 6.822 13.7446 6.83457C14.0213 6.88106 13.8917 6.75356 13.9675 6.73349C14.293 6.64786 14.3208 6.93646 14.7045 6.92932C14.7248 6.92904 14.9733 6.77521 15.0075 6.76563C15.225 6.70316 15.0435 6.81917 15.1796 6.83054C15.4281 6.85131 15.6007 6.88805 15.8923 6.84299C15.9773 6.82964 16.1812 6.73376 16.3463 6.80793C16.368 6.81764 16.356 6.86849 16.3734 6.87146C16.6899 6.9211 16.6982 6.76133 16.879 6.70722C17.0598 6.65312 17.3391 6.76341 17.3959 6.7952C17.5446 6.87743 17.282 6.83034 17.2739 6.83841C17.1793 6.93445 17.383 6.91791 17.5387 6.92603C17.5612 7.08269 17.7789 7.07328 17.7 6.93381C17.6911 6.91858 17.5699 6.93319 17.5387 6.92603C17.6753 6.77233 17.9145 6.75264 18.1787 6.89627C18.3024 6.96359 18.1855 7.04208 18.5612 7.01337C18.7317 7.00041 18.6658 6.89254 18.8162 6.86313C19.16 6.79603 19.6067 6.89666 19.9611 6.8808C20.0897 6.87505 19.9644 6.816 20.0523 6.81003C20.2856 6.79401 20.4913 6.83831 20.7256 6.81562C20.7468 6.81349 20.695 6.75168 20.7678 6.75089C21.3202 6.74371 21.8011 6.7833 22.3777 6.7844C22.6564 6.7849 23.1545 6.75081 23.4432 6.75766C23.9434 6.76918 24.5588 6.85906 24.9862 6.83722C25.2649 6.82325 25.2038 6.76143 25.3232 6.7193C25.5537 6.63766 25.9616 6.78391 26.0165 6.80655C26.0182 6.8073 25.7784 6.82188 25.9063 6.85361C25.9807 6.91974 26.0138 6.80684 26.0165 6.80655C26.0526 6.82118 26.5317 6.83522 26.6269 6.8234C26.6786 6.81694 26.6497 6.75837 26.6766 6.75611C27.3173 6.70369 27.9591 6.6888 28.6089 6.71619C28.6203 6.71737 28.6031 6.78289 28.63 6.78486C29.0061 6.81399 29.247 6.73384 29.5573 6.68625C29.8675 6.63869 30.1135 6.65462 30.2971 6.76709C30.5312 6.75293 30.867 6.80266 31.0602 6.83283C31.2535 6.863 31.2804 6.73547 31.2974 6.73295C31.8278 6.65225 32.1343 6.72525 32.6845 6.73661C32.946 6.74223 33.4649 6.72373 33.7481 6.70978C33.9719 6.69855 34.1068 6.72844 34.313 6.70933C34.3409 6.70677 34.3127 6.64999 34.3212 6.6478C34.5514 6.57986 34.4408 6.71868 34.4883 6.74347C34.6606 6.83363 34.767 6.88165 35.0618 6.83924C35.1298 6.82952 35.3278 6.62965 35.4517 6.61796C35.6129 6.60312 35.5521 6.67477 35.7208 6.65741C35.7352 6.656 35.7322 6.6118 35.8363 6.61374C36.3197 6.62221 36.8467 6.64793 37.349 6.6435C37.4176 6.64306 37.3296 6.57296 37.4287 6.57117C37.8939 6.56286 38.4037 6.56546 38.8569 6.59827C38.9685 6.60657 38.8985 6.65566 38.9227 6.67023C39.0714 6.75842 39.2822 6.63029 39.317 6.62784C40.1467 6.56627 40.7817 6.68223 41.6274 6.62702C41.6735 6.62378 42.0278 6.48641 42.1859 6.60422C42.1967 6.61206 42.3531 6.73259 42.4914 6.65018C42.5 6.64503 42.4025 6.58298 42.5726 6.5893C42.7427 6.59561 43.0164 6.55417 43.2502 6.62235C43.3242 6.64383 43.4992 6.76406 43.72 6.66822C43.7344 6.66153 44.0752 6.44481 44.1969 6.59434C44.2166 6.61895 44.1959 6.77718 44.4594 6.69605C44.5098 6.68032 44.4184 6.64503 44.551 6.62299C44.7543 6.58903 45.0235 6.6314 45.2734 6.56092C45.3169 6.54844 45.5024 6.44105 45.6511 6.52256C45.6744 6.53532 45.6302 6.58815 45.7087 6.59406C46.0824 6.62242 46.4735 6.58708 46.8529 6.62363C46.9872 6.63647 46.9185 6.72187 47.0586 6.74476C47.1987 6.76763 47.4809 6.78964 47.6274 6.75062C47.774 6.71157 47.6139 6.57547 47.8335 6.56458C48.7882 6.51728 49.734 6.59712 50.6874 6.6088C50.8287 6.61055 50.7115 6.56184 50.9199 6.56092C51.6881 6.5573 53.0145 6.51163 53.6811 6.61512C54.2152 6.698 53.5431 6.76111 53.9512 6.79484C54.1482 6.81093 54.3612 6.65269 54.4088 6.64771C54.8732 6.59711 55.196 6.6672 55.6141 6.6457C55.7004 6.64123 55.6157 6.5771 55.6892 6.57401C55.9402 6.56289 56.2039 6.59152 56.4437 6.58628C56.5513 6.58378 56.5315 6.5348 56.6305 6.53858C56.8673 6.54706 57.0768 6.56765 57.3077 6.61356C57.3288 6.61775 57.1869 6.67868 57.3621 6.68094C57.6457 6.68444 57.9978 6.72973 58.3241 6.68296C58.4209 6.66889 58.4247 6.55694 58.6329 6.63425C58.6765 6.6504 58.6208 6.78483 58.8633 6.66868C58.904 6.64938 59.3113 6.49271 59.5112 6.5937C59.5639 6.62027 59.6985 6.73028 59.8149 6.71299C59.8307 6.71023 59.7674 6.6501 59.8639 6.64423C60.2039 6.62461 60.5603 6.63102 60.9096 6.61219C61.0029 6.60704 60.864 6.54482 61.003 6.53913C61.3854 6.5234 61.8627 6.53925 62.2366 6.55872C62.3744 6.56602 62.2791 6.61757 62.2892 6.62318C62.4505 6.71441 62.5458 6.59126 62.5993 6.58408C62.9323 6.54108 63.1858 6.59893 63.4927 6.58362C63.5774 6.57956 63.5173 6.52084 63.5342 6.5156C63.709 6.46444 63.5788 6.5699 63.6894 6.58152C63.9995 6.61443 64.3451 6.60971 64.6586 6.60221C64.7738 6.59937 64.6443 6.53128 64.7477 6.52952C65.3594 6.51778 65.9953 6.5243 66.5923 6.56184C66.7047 6.56903 66.634 6.62145 66.6574 6.63343C66.8189 6.71721 67.0555 6.60293 67.11 6.59205C67.3576 6.54234 67.4537 6.58871 67.6724 6.58005C68.7405 6.53697 70.0593 6.56768 71.0675 6.58665C72.3814 6.61106 73.4009 6.66094 74.6537 6.64799C74.7334 6.64723 74.6531 6.57748 74.7217 6.57593C75.6079 6.55912 76.4804 6.58637 77.3684 6.56623C77.4413 6.5647 77.3363 6.49858 77.4532 6.4939C77.6931 6.48385 77.997 6.48744 78.2396 6.50855C78.3579 6.51872 78.1992 6.57546 78.3183 6.58454C78.5956 6.60581 78.8928 6.61052 79.1776 6.59992C79.2988 6.59527 79.116 6.52764 79.2735 6.52686C80.3467 6.52015 81.4006 6.50851 82.4851 6.59608C82.5595 6.60209 82.6247 6.73953 82.7828 6.71317C82.7947 6.67503 82.794 6.63016 82.7992 6.58939C84.3615 6.56743 85.9078 6.61508 87.4744 6.62244C87.5405 6.62274 87.4263 6.54992 87.5542 6.55012C88.2944 6.55119 89.0131 6.53102 89.7702 6.6034C89.8453 6.61048 89.8068 6.73859 90.0281 6.71922C90.0672 6.71568 90.4006 6.69859 90.4868 6.67078C90.4985 6.66659 90.4377 6.60679 90.5451 6.60505C91.1694 6.59597 91.8237 6.60962 92.447 6.64616C92.5475 6.65217 92.4404 6.71585 92.5121 6.72068C93.0203 6.75448 93.5731 6.70608 94.0587 6.76389C94.3837 6.80282 94.2634 6.9129 94.4361 7.02125C94.4605 7.03653 94.6618 7.03896 94.6722 7.102C94.699 7.26052 94.6015 7.4341 94.6415 7.60306C94.6499 7.63946 94.9195 7.60026 94.7599 7.68821C94.7487 7.69409 94.5533 7.72328 94.5052 7.75312C94.4716 7.77374 94.532 7.83786 94.4637 7.86426C94.3953 7.89064 94.3201 7.8369 94.2068 7.86792C94.0935 7.89933 94.1433 7.97227 93.917 7.9809ZM31.9303 6.96769C32.1092 7.02893 32.1356 6.80461 31.9421 6.85828C31.9327 6.86114 31.9211 6.96468 31.9303 6.96769ZM10.2819 7.00312C10.5158 7.10206 10.6758 6.95657 10.5108 6.88016C10.3458 6.80383 10.2106 6.97312 10.2819 7.00312ZM7.85625 7.07535C8.12962 7.15336 8.17266 6.83527 7.87986 6.89957C7.86283 6.9032 7.84026 7.07082 7.85625 7.07535ZM93.6351 7.0521C93.6376 7.05508 93.7822 7.05798 93.7857 7.05503C93.8627 6.98379 93.5734 6.97803 93.6351 7.0521ZM5.44923 7.15399C5.53457 7.19702 5.7803 7.14735 5.67426 7.09384C5.58891 7.0508 5.34293 7.10047 5.44923 7.15399ZM41.2639 7.2071C41.2668 7.21044 41.3705 7.21345 41.3684 7.19455C41.3614 7.1337 41.217 7.15087 41.2639 7.2071ZM1.35823 7.15766C1.96266 7.16963 2.32912 7.43239 1.67091 7.40274C1.55172 7.39738 1.92781 7.31895 1.7761 7.29526C1.49851 7.2521 1.31417 7.41708 1.03088 7.32868C0.979622 7.31249 1.32373 7.15639 1.35931 7.15729C1.35893 7.15741 1.3586 7.15753 1.35823 7.15766ZM32.0333 7.23712C32.0369 7.24009 32.1805 7.2429 32.184 7.23996C32.2617 7.16875 31.9724 7.16304 32.0333 7.23712ZM47.3169 7.3458C47.3248 7.35212 47.658 7.35803 47.6689 7.35221C47.8428 7.23575 47.169 7.22345 47.3169 7.3458ZM22.3624 7.40128C22.2057 7.47292 22.0182 7.48136 21.8933 7.39139C22.049 7.39617 22.2058 7.39687 22.3624 7.40128Z" fill="black"/>
</svg>
