<svg width="15" height="63" viewBox="0 0 15 63" fill="none" xmlns="http://www.w3.org/2000/svg">
<path d="M1.66728 0.00762737C2.50784 -0.0119122 3.60968 0.00898027 4.44706 0.0376565C4.7095 0.0465505 4.5766 0.0863066 4.75777 0.094236C5.11208 0.109694 5.44217 0.0901957 5.79231 0.10861C5.90835 0.114907 5.76391 0.177881 5.88558 0.183042C6.55234 0.210873 7.18312 0.194832 7.85855 0.208219C9.99497 0.25063 12.108 0.275555 14.2385 0.29556L14.6884 0.291061L14.693 0.75C14.6818 1.93723 14.6722 3.12988 14.6619 4.33499C14.6525 5.4454 14.5954 6.79524 14.6204 7.94217C14.6233 8.07606 14.6786 7.99624 14.6832 8.02171C14.7529 8.42125 14.6413 8.28841 14.6265 8.54928C14.568 9.58467 14.5629 10.736 14.5842 11.7325C14.5934 12.1564 14.7032 11.7313 14.6416 12.1582C14.6374 12.1878 14.5787 12.0803 14.5725 12.1965C14.5584 12.4602 14.5689 12.9604 14.5642 13.1647C14.555 13.5585 14.5556 13.6236 14.5549 13.9961C14.5535 14.5053 14.5243 15.1109 14.5376 15.6572C14.5406 15.7738 14.6008 15.6195 14.611 15.8054C14.6212 15.9916 14.6161 16.484 14.602 16.65C14.5878 16.8161 14.5405 16.7454 14.5296 16.7747C14.4381 17.0165 14.5649 17.5861 14.568 17.6594C14.6214 18.9956 14.5492 20.1415 14.5494 21.3959C14.5497 22.3481 14.5736 23.3663 14.5703 24.2724C14.5662 25.3518 14.5336 26.2667 14.5392 27.3153C14.5397 27.426 14.6104 27.2963 14.6112 27.4315C14.6194 28.8676 14.6117 30.2937 14.564 31.7236C14.5591 31.867 14.497 31.6822 14.4884 31.8255C14.4374 32.7026 14.3148 34.0906 14.5852 34.6115C14.5746 35.2057 14.5637 35.9271 14.5092 36.4586C14.4741 36.8013 14.4065 36.4685 14.4353 36.8895C14.4418 36.9844 14.501 36.861 14.5062 37.0034C14.5279 37.6029 14.5086 38.2579 14.5392 38.851C14.5456 38.9716 14.5987 38.9387 14.6083 38.9729C14.6857 39.2602 14.5577 39.7384 14.5484 39.8426C14.479 40.6365 14.5063 41.2163 14.5046 41.9558C14.5042 42.1274 14.5755 41.9246 14.5777 42.0897C14.5879 42.9462 14.5818 43.8334 14.5501 44.6721C14.5429 44.8586 14.4822 44.6871 14.4756 44.7762C14.4475 45.1693 14.5622 45.2564 14.5374 45.6334C14.5323 45.7128 14.4803 45.6681 14.4746 45.6826C14.3849 45.9094 14.512 46.1066 14.5148 46.1649C14.5531 46.9031 14.4205 47.375 14.4393 48.0881C14.4417 48.1734 14.5075 47.9811 14.5101 48.2209C14.5283 49.8186 14.5102 51.5083 14.4576 53.0898C14.4495 53.3357 14.4001 53.1601 14.394 53.1756C14.2987 53.4278 14.4263 53.591 14.4311 53.6711C14.4657 54.3036 14.3587 54.8945 14.5107 55.3242C14.4684 57.4737 14.515 59.6152 14.4647 61.75L14.4669 61.9739L14.2385 61.9762C13.7128 61.9638 13.1875 61.9455 12.6626 61.9186C12.6288 61.917 12.6893 61.8542 12.6219 61.8513C11.8105 61.816 11.9663 61.9137 11.4295 62.0331C11.2942 62.0631 10.8828 61.9189 10.8464 61.9084C10.7137 61.8694 10.8513 61.7759 10.8069 61.7684C10.4394 61.7091 10.4993 62.0183 10.0035 62.0184C9.988 62.0179 10.0531 61.961 10.0115 61.9553C9.88226 61.9376 9.75407 61.9602 9.62757 61.9406C9.33806 61.8953 9.23493 61.745 8.79273 61.8325C8.73676 61.8438 8.82223 62.0192 8.37959 62.0109C8.20314 62.0074 7.42205 62.0105 7.20314 61.9991C6.98449 61.9877 7.13462 61.9312 7.11903 61.9288C6.5299 61.854 6.75329 61.8231 6.45813 61.7124C6.163 61.6022 6.24485 61.8651 6.12453 61.8944C6.00401 61.9237 5.57208 61.862 5.46592 61.8406C5.35984 61.8192 5.49215 61.7833 5.39783 61.7711C4.77233 61.6918 5.12328 61.9016 4.91718 61.9433C4.43127 62.0421 4.05282 61.8472 3.60797 61.8281C3.48761 61.8229 3.58583 61.8673 3.47865 61.8715C3.05417 61.8873 2.79886 61.8265 2.31593 61.8823C2.23693 61.8914 1.84652 62.0086 1.59381 61.9226C1.55802 61.9101 1.65972 61.8616 1.47879 61.8507C1.20855 61.8344 0.721604 61.8237 0.431085 61.84C0.230434 61.8512 0.432659 61.922 0.238525 61.9107L0.079431 61.9123L0.0778079 61.75C0.0785853 61.7366 0.0797525 61.7214 0.081356 61.7039C0.09246 61.584 0.139291 61.8063 0.156246 61.5809C0.173195 61.3567 0.171138 60.7834 0.169521 60.5653C0.167868 60.3475 0.107145 60.4667 0.103054 60.4491C0.0796199 60.3426 0.050339 59.9247 0.0504113 59.8878C0.0429984 58.025 0.145354 56.3072 0.111477 54.4936C0.108906 54.3513 0.0448718 54.4461 0.0438195 54.4243C0.0169905 53.9371 0.187242 54.3213 0.244228 53.9809C0.114284 54.0301 0.137813 53.8292 0.123562 53.4859C0.116589 53.3205 0.0662736 53.4106 0.0611229 53.3955C-0.0152999 53.1502 0.0834102 52.9795 0.103603 52.9355C0.177884 52.773 0.0901162 52.5963 0.139766 52.4857C0.189046 52.3752 0.262101 52.6295 0.261165 52.3003C0.214649 52.208 0.0930919 52.4524 0.0733909 52.2025C-0.00112879 51.2595 0.0942454 49.4994 0.104153 48.7412C0.114051 47.9845 0.105469 47.7402 0.12228 47.2992C0.152675 46.5028 0.0624876 46.7947 0.021206 46.3002C-0.0200707 45.8042 0.201834 46.0453 0.249538 45.974C0.29722 45.904 0.248136 45.8276 0.274349 45.7406C0.300555 45.6538 0.332989 45.8416 0.34283 45.6376C0.35266 45.4334 0.267832 44.8751 0.217952 44.8027C0.112279 44.6497 0.00137079 44.9013 0.0403405 44.361C0.0426532 44.3299 0.101002 44.4307 0.106899 44.3118C0.151818 43.3667 0.154603 42.3849 0.194332 41.441C0.199886 41.3112 0.264797 41.4273 0.268764 41.3517C0.310282 40.565 0.200834 40.8462 0.0792503 40.415C0.241052 40.5119 0.340043 40.2734 0.340999 39.6763C0.34163 39.3174 0.270963 39.3792 0.221157 39.147C0.206142 39.0774 0.254665 38.8234 0.221431 38.7774C0.112795 38.6256 -0.00881629 38.8649 0.0396081 38.2492C0.0419094 38.2222 0.101375 38.3082 0.104977 38.2149C0.128549 37.6116 0.0149172 37.5395 0.00115603 36.8874C-0.00964174 36.3763 0.0596496 35.4672 0.070919 34.8852C0.252831 34.8975 0.211176 34.3478 0.0857505 34.1248C0.0908854 33.7471 0.0837949 33.3391 0.101131 32.9741C0.107042 32.8484 0.15971 32.931 0.165401 32.9151C0.254673 32.6722 0.132649 32.508 0.127865 32.4265C0.0813616 31.5429 0.173846 30.823 0.0834617 29.9797C0.0802063 29.9498 -0.0461555 29.9013 0.0461083 29.6759C0.0524682 29.6613 0.109961 29.9398 0.114406 29.5431C0.118862 29.1464 0.186601 28.3985 0.128048 27.8477C0.113951 27.7144 0.0113711 27.3773 0.0915183 27.1067C0.102402 27.0706 0.138643 27.1101 0.158809 27.058C0.223069 26.8898 0.0953482 26.798 0.203853 26.6003C0.312353 26.4026 0.393612 25.9913 0.318751 25.4358C0.316575 25.4181 0.215344 25.2867 0.216945 25.112C0.219587 24.8331 0.240676 24.4372 0.240016 24.1461C0.239664 24.0067 0.176805 24.0959 0.175655 24.0717C0.140431 23.1343 0.19647 22.4672 0.22079 21.463C0.225373 21.2789 0.139655 20.7499 0.207424 20.3936C0.281609 20.0022 0.59021 20.4043 0.516688 19.5049C0.487281 19.1421 0.0957651 18.6829 0.29861 18.0309C0.248346 16.7665 0.352162 15.5972 0.280391 14.3293C0.277211 14.2723 0.167942 14.092 0.169429 13.958C0.171849 13.7589 0.222919 13.6497 0.226283 13.5076C0.241667 12.9122 0.197972 12.3674 0.204769 11.7933C0.207238 11.5754 0.260045 11.6516 0.262996 11.3916C0.265898 11.1318 0.196362 10.9586 0.229946 10.6065C0.255544 10.3407 0.397674 10.0748 0.414241 9.72192C0.274045 9.70847 0.276933 9.46607 0.239925 9.03527C0.232744 8.95246 0.183949 9.04126 0.178035 9.00208C0.152886 8.84266 0.193327 8.69512 0.16595 8.54375C0.159375 8.50691 0.111498 8.50519 0.10342 8.47508C0.0329115 8.21909 0.140607 7.79736 0.159359 7.72492C0.230573 7.44731 0.168302 7.31758 0.196346 7.10465C0.224386 6.89207 0.259438 7.20992 0.276454 6.9616C0.311649 6.44687 0.303917 5.78549 0.306117 5.26272C0.3067 5.05413 0.24279 5.19645 0.24139 5.16659C0.22518 4.73528 0.293162 4.29909 0.165859 4.05994C0.495016 3.76089 0.133932 3.79985 0.199825 3.18332C0.205154 3.13475 0.36081 3.07298 0.383662 3.25942C0.406492 3.44587 0.357837 3.7286 0.393458 3.98727C0.401818 4.04853 0.547678 4.39944 0.556513 4.44733C0.625566 4.82238 0.392959 4.87551 0.380183 4.89536C0.24231 5.12037 0.399446 5.5492 0.410304 5.66212C0.460055 6.17872 0.427343 6.61763 0.462855 7.04972C0.485807 7.33232 0.638173 7.35996 0.633509 7.58187C0.618094 8.31955 0.405542 8.57703 0.589838 9.27217C0.629145 9.42122 0.795677 9.2731 0.664728 9.80718C0.656473 9.84073 0.536679 10.2373 0.612452 10.4664C0.622006 10.4951 0.670539 10.4942 0.674616 10.5322C0.700988 10.7865 0.662323 10.9561 0.680841 11.2331C0.699359 11.5101 0.726966 11.8432 0.710504 12.1595C0.700661 12.3501 0.610237 12.5947 0.588099 12.6859C0.524325 12.9436 0.628887 13.2198 0.551661 13.3795C0.474046 13.5404 0.356175 13.2257 0.306026 13.6478C0.432119 13.6634 0.56154 13.6994 0.688349 13.7245C0.683909 14.6495 0.643136 15.5596 0.648706 16.4877C0.649523 16.6027 0.717311 16.4851 0.719934 16.6084C0.730703 17.1288 0.68238 17.5834 0.701624 18.123C0.716779 18.5408 0.788552 18.9989 0.806634 19.4357C0.662349 19.7025 0.71133 20.3507 0.698145 20.8216C0.693589 20.9865 0.655053 20.9755 0.642481 21.0928C0.595985 21.5353 0.723489 21.328 0.743555 21.4493C0.829192 21.9698 0.540593 22.0143 0.547724 22.628C0.548004 22.6605 0.70184 23.0579 0.71142 23.1127C0.773888 23.4605 0.657876 23.1703 0.646509 23.3879C0.625738 23.7853 0.588999 24.0615 0.634058 24.5277C0.647404 24.6637 0.743289 24.9898 0.669123 25.2539C0.659411 25.2886 0.608563 25.2694 0.605585 25.2974C0.555947 25.8034 0.715719 25.8167 0.76983 26.1059C0.823929 26.3951 0.713636 26.8418 0.681848 26.9327C0.599615 27.1706 0.646705 26.7505 0.638636 26.7376C0.542601 26.5863 0.559135 26.9121 0.55102 27.161C0.394362 27.1971 0.403765 27.5452 0.543238 27.4191C0.558472 27.4047 0.543863 27.211 0.55102 27.161C0.704723 27.3795 0.724408 27.7621 0.580775 28.1847C0.513456 28.3825 0.434965 28.1955 0.463679 28.7964C0.476641 29.0691 0.584508 28.9637 0.613917 29.2044C0.681015 29.7542 0.580393 30.4686 0.596247 31.0354C0.602003 31.2412 0.661049 31.0408 0.667017 31.1814C0.683041 31.5545 0.638737 31.8835 0.661432 32.2582C0.663563 32.2922 0.725372 32.2092 0.72616 32.3258C0.733338 33.2091 0.693749 33.9784 0.692652 34.9007C0.69215 35.3463 0.726239 36.1431 0.719385 36.6047C0.707871 37.4048 0.617992 38.3891 0.639826 39.0726C0.653802 39.5184 0.715624 39.4206 0.757745 39.6117C0.839394 39.9803 0.693142 40.6327 0.670496 40.7206C0.669746 40.7233 0.655173 40.3397 0.623438 40.5444C0.557314 40.6634 0.670209 40.7163 0.670496 40.7206C0.655866 40.7783 0.641832 41.5446 0.65365 41.6968C0.660109 41.7795 0.718681 41.7332 0.720941 41.7763C0.773358 42.801 0.788245 43.8275 0.760858 44.8668C0.759675 44.8851 0.694158 44.8575 0.692194 44.9006C0.663063 45.5022 0.743211 45.8875 0.790796 46.3837C0.838359 46.8799 0.822429 47.2733 0.709955 47.567C0.724116 47.9414 0.674392 48.4785 0.64422 48.7875C0.614049 49.0966 0.741583 49.1397 0.744104 49.1669C0.824801 50.0151 0.751803 50.5054 0.740442 51.3854C0.734822 51.8037 0.753321 52.6336 0.767267 53.0865C0.778502 53.4445 0.748614 53.6602 0.767725 53.99C0.770277 54.0347 0.827062 53.9896 0.829248 54.0032C0.897187 54.3713 0.758368 54.1944 0.733576 54.2704C0.643416 54.546 0.595398 54.7162 0.637812 55.1877C0.647525 55.2964 0.847405 55.6132 0.859094 55.8114C0.873925 56.0691 0.80228 55.9718 0.819635 56.2417C0.821054 56.2648 0.865254 56.26 0.863305 56.4265C0.85484 57.1996 0.829121 58.0424 0.833551 58.8458C0.833986 58.9555 0.904094 58.8148 0.905877 58.9734C0.914188 59.7174 0.911593 60.5328 0.878778 61.2576C0.87048 61.436 0.821393 61.3242 0.806818 61.3629C0.762297 61.4829 0.772908 61.6283 0.794647 61.75L0.238525 61.1939C0.357886 61.1726 0.454465 61.1405 0.482011 61.1393C1.80908 61.0777 2.82473 61.1937 4.17732 61.1385C4.25094 61.1353 4.81769 60.9979 5.07053 61.1157C5.08784 61.1235 5.338 61.2441 5.55919 61.1617C5.57293 61.1565 5.41705 61.0945 5.68908 61.1008C5.96111 61.1071 6.39891 61.0656 6.77284 61.1338C6.89122 61.1553 7.17103 61.2755 7.52415 61.1797C7.54716 61.173 8.09231 60.9563 8.2869 61.1058C8.31844 61.1304 8.28542 61.2887 8.7069 61.2075C8.78742 61.1918 8.64124 61.1565 8.85338 61.1345C9.17842 61.1005 9.6091 61.1429 10.0087 61.0724C10.0783 61.0599 10.375 60.9525 10.6129 61.034C10.6502 61.0468 10.5794 61.0996 10.705 61.1055C11.3026 61.1339 11.9283 61.0986 12.535 61.1351C12.7498 61.1479 12.64 61.2333 12.864 61.2562C13.088 61.2791 13.5394 61.3011 13.7738 61.2621C14.0082 61.223 13.7521 61.0869 14.1034 61.0761C14.1484 61.0747 14.1935 61.0734 14.2385 61.0722L13.5607 61.75C13.5219 60.2688 13.5975 58.8004 13.6088 57.3207C13.6105 57.0945 13.5618 57.282 13.5609 56.9487C13.5573 55.72 13.5116 53.5986 13.6151 52.5324C13.698 51.6782 13.7611 52.7532 13.7948 52.1004C13.8109 51.7854 13.6527 51.4446 13.6477 51.3686C13.5971 50.6257 13.6672 50.1094 13.6457 49.4408C13.6412 49.3027 13.5771 49.4382 13.574 49.3207C13.5629 48.9193 13.5915 48.4974 13.5863 48.1139C13.5838 47.9418 13.5348 47.9735 13.5386 47.8152C13.5471 47.4363 13.5677 47.1013 13.6136 46.732C13.6177 46.6983 13.6787 46.9253 13.6809 46.645C13.6844 46.1914 13.7297 45.6283 13.683 45.1064C13.6689 44.9515 13.5569 44.9454 13.6343 44.6125C13.6504 44.5427 13.7848 44.6318 13.6687 44.244C13.6494 44.1788 13.4927 43.5275 13.5937 43.2078C13.6203 43.1235 13.7303 42.9082 13.713 42.722C13.7102 42.6967 13.6501 42.7979 13.6442 42.6436C13.6246 42.0997 13.631 41.5298 13.6122 40.971C13.607 40.8218 13.5448 41.0441 13.5391 40.8217C13.5234 40.2102 13.5392 39.4467 13.5587 38.8487C13.566 38.6283 13.6176 38.7806 13.6232 38.7646C13.7144 38.5066 13.5913 38.3541 13.5841 38.2685C13.5411 37.736 13.5989 37.3305 13.5836 36.8397C13.5796 36.7043 13.5208 36.8003 13.5156 36.7733C13.4644 36.4937 13.5699 36.702 13.5815 36.525C13.6144 36.0291 13.6097 35.4764 13.6022 34.9749C13.5994 34.7907 13.5313 34.9977 13.5295 34.8324C13.5178 33.854 13.5243 32.8369 13.5618 31.8821C13.569 31.7023 13.6215 31.8154 13.6334 31.778C13.7172 31.5197 13.6029 31.1412 13.592 31.0541C13.5423 30.6581 13.5887 30.5043 13.5801 30.1546C13.537 28.4463 13.5677 26.337 13.5866 24.7244C13.6111 22.6231 13.6609 20.9925 13.648 18.9886C13.6472 18.8612 13.5775 18.9897 13.5759 18.8799C13.5591 17.4624 13.5864 16.067 13.5662 14.6467C13.5647 14.5302 13.4986 14.6982 13.4939 14.5111C13.4838 14.1274 13.4874 13.6413 13.5086 13.2534C13.5187 13.0642 13.5755 13.318 13.5845 13.1275C13.6058 12.684 13.6105 12.2086 13.5999 11.7531C13.5953 11.5592 13.5276 11.8517 13.5269 11.5997C13.5202 9.88327 13.5085 8.19755 13.5961 6.46302C13.6021 6.34411 13.7395 6.23977 13.7132 5.98694C13.675 5.9679 13.6302 5.96894 13.5894 5.96062C13.5741 4.2179 13.5926 2.48759 13.6077 0.75L14.2385 1.38079C13.4848 1.37423 12.7297 1.36831 11.9716 1.36608C11.8659 1.36579 12.0485 1.43861 11.844 1.43841C10.6602 1.43733 9.51062 1.45751 8.29972 1.38513C8.17958 1.37805 8.24122 1.24994 7.88716 1.26931C7.82472 1.27285 7.29146 1.28993 7.15359 1.31774C7.13487 1.32194 7.23215 1.38173 7.06032 1.38348C6.06175 1.39256 5.01531 1.37891 4.01848 1.34237C3.8576 1.33636 4.02892 1.27268 3.91434 1.26785C3.10151 1.23404 2.21738 1.28245 1.44069 1.22463C0.920798 1.1857 1.11328 1.07563 0.837013 0.96728C0.797938 0.951993 0.476005 0.949571 0.459357 0.886531C0.416616 0.72801 0.572551 0.554432 0.508567 0.385464C0.495049 0.34907 0.0638974 0.388269 0.319167 0.300321C0.337 0.294434 0.649587 0.265245 0.726577 0.23541C0.78018 0.214782 0.683586 0.15067 0.792953 0.124265C0.902312 0.0978846 1.02248 0.151627 1.2038 0.120603C1.38503 0.0891954 1.30534 0.016261 1.66728 0.00762737ZM0.509364 50.1792C0.448117 50.4653 0.672438 50.5076 0.618769 50.198C0.615908 50.1831 0.512368 50.1644 0.509364 50.1792ZM0.473933 15.5544C0.374992 15.9285 0.520475 16.1846 0.596888 15.9206C0.673219 15.6567 0.503926 15.4404 0.473933 15.5544ZM0.401698 11.6749C0.323687 12.1121 0.641783 12.1809 0.577479 11.7126C0.573845 11.6854 0.406228 11.6493 0.401698 11.6749ZM2.11818 0.936427C2.11423 0.933448 1.88281 0.930545 1.87728 0.933497C1.75406 1.00474 2.2168 1.0105 2.11818 0.936427ZM0.323054 7.82505C0.280025 7.96156 0.329697 8.35457 0.383204 8.18497C0.426249 8.04843 0.376581 7.65506 0.323054 7.82505ZM3.59595 61.7186C3.60047 61.7219 3.76637 61.7249 3.76304 61.706C3.75177 61.6452 3.52089 61.6623 3.59595 61.7186ZM0.319392 1.28188C0.307419 2.24861 0.0446562 2.83474 0.0743064 1.78199C0.079671 1.59135 0.158099 2.19287 0.181789 1.95022C0.224948 1.50622 0.0599647 1.21141 0.148372 0.758315C0.164554 0.67629 0.320659 1.22674 0.319759 1.2836C0.319636 1.28303 0.319514 1.28246 0.319392 1.28188ZM0.239925 50.3439C0.236959 50.3497 0.234146 50.5793 0.237087 50.5848C0.308302 50.7092 0.31401 50.2465 0.239925 50.3439ZM13.2771 61.8573C13.2898 61.8636 13.8228 61.8695 13.8402 61.8637C14.1182 61.7472 13.0406 61.7349 13.2771 61.8573ZM0.0757713 34.8761C0.00412792 34.6255 -0.00430728 34.3257 0.0856589 34.1259C0.0808831 34.375 0.0801795 34.6257 0.0757713 34.8761Z" fill="black"/>
<path d="M1.35283 29.1C1.42007 29.0804 1.50822 29.1013 1.57521 29.13C1.5962 29.1389 1.58557 29.1786 1.60006 29.1866C1.62841 29.202 1.65482 29.1825 1.68283 29.2009C1.69211 29.2072 1.68056 29.2702 1.69029 29.2754C1.74363 29.3032 1.79409 29.2872 1.84813 29.3005C2.11428 29.3666 2.37591 29.3902 2.64532 29.4189C2.73416 29.4283 2.84214 29.4855 2.9339 29.4605C2.94461 29.4575 2.93822 29.4022 2.94026 29.3977C2.97223 29.3279 2.9616 29.4395 2.98247 29.4543C3.0653 29.5129 3.15741 29.518 3.23712 29.4966C3.27104 29.4874 3.23703 29.3776 3.27118 29.4392C3.27355 29.4434 3.26495 29.5021 3.27425 29.5084C3.29534 29.5224 3.33535 29.512 3.3517 29.5166C3.3832 29.5259 3.38842 29.5253 3.41821 29.5259C3.45895 29.5274 3.5074 29.5565 3.5511 29.5432C3.56043 29.5402 3.54808 29.4801 3.56296 29.4698C3.57785 29.4596 3.61724 29.4647 3.63053 29.4789C3.64381 29.4931 3.63815 29.5404 3.6405 29.5512C3.65985 29.6427 3.70541 29.516 3.71128 29.5129C3.81818 29.4595 3.90985 29.5316 4.0102 29.5314C4.08637 29.5311 4.16783 29.5073 4.24031 29.5106C4.32667 29.5147 4.39986 29.5473 4.48375 29.5417C4.49261 29.5412 4.48223 29.4704 4.49305 29.4696C4.60793 29.4614 4.72202 29.4691 4.83641 29.5169C4.84789 29.5217 4.8331 29.5838 4.84456 29.5924C4.91474 29.6435 5.02577 29.7661 5.06745 29.4956C5.11498 29.5062 5.17269 29.5171 5.21521 29.5716C5.24263 29.6067 5.216 29.6744 5.24968 29.6455C5.25728 29.6391 5.2474 29.5798 5.25879 29.5746C5.30676 29.553 5.35916 29.5722 5.40661 29.5416C5.41626 29.5352 5.41362 29.4821 5.41636 29.4726C5.43934 29.3951 5.4776 29.5231 5.48594 29.5324C5.54945 29.6018 5.59583 29.5745 5.65499 29.5762C5.66872 29.5766 5.65249 29.5053 5.6657 29.5031C5.73422 29.4929 5.8052 29.4991 5.87229 29.5307C5.88721 29.5379 5.87349 29.5987 5.88062 29.6052C5.91207 29.6334 5.91904 29.5186 5.94919 29.5434C5.95555 29.5485 5.95197 29.6005 5.95313 29.6062C5.97128 29.6959 5.98705 29.5688 5.99172 29.566C6.05078 29.5277 6.08852 29.6604 6.14558 29.6416C6.1524 29.6392 6.13701 29.5734 6.1562 29.5707C6.28401 29.5525 6.41919 29.5706 6.54571 29.6233C6.56538 29.6314 6.55134 29.6808 6.55257 29.6869C6.57275 29.7821 6.5858 29.6545 6.59222 29.6497C6.64282 29.6151 6.69008 29.7221 6.72446 29.5702C6.93876 29.6229 7.15208 29.5376 7.3646 29.6737C7.3673 29.6753 7.36246 29.7381 7.36785 29.741C7.43277 29.7763 7.4203 29.6786 7.46325 29.5592C7.47407 29.5292 7.50698 29.6734 7.5099 29.684C7.52051 29.7229 7.5095 29.8164 7.51306 29.8239C7.54246 29.8832 7.53766 29.574 7.57733 29.5739C7.57857 29.5744 7.57336 29.6313 7.57669 29.637C7.58703 29.6548 7.59728 29.6321 7.6074 29.6517C7.63056 29.6971 7.63881 29.8473 7.67419 29.7599C7.67867 29.7485 7.67183 29.5731 7.70724 29.5814C7.72136 29.5849 7.78384 29.5819 7.80136 29.5932C7.81885 29.6046 7.80684 29.6611 7.80809 29.6635C7.85522 29.7383 7.83734 29.7692 7.86096 29.8799C7.88457 29.9901 7.87802 29.7272 7.88764 29.6979C7.89729 29.6686 7.93184 29.7303 7.94033 29.7517C7.94882 29.7732 7.93824 29.8091 7.94578 29.8212C7.99582 29.9005 7.96774 29.6907 7.98423 29.649C8.02311 29.5502 8.05338 29.7452 8.08897 29.7643C8.0986 29.7694 8.09074 29.725 8.09931 29.7209C8.13327 29.705 8.1537 29.7658 8.19233 29.7101C8.19865 29.701 8.22989 29.5838 8.2501 29.6698C8.25297 29.6822 8.24483 29.7308 8.2593 29.7416C8.28092 29.758 8.31988 29.7686 8.34312 29.7524C8.36028 29.7403 8.34061 29.6603 8.36221 29.6852C8.37181 29.6963 8.35402 29.7431 8.37205 29.76C8.38999 29.777 8.43585 29.7749 8.45331 29.7733C8.47073 29.7717 8.46119 29.7109 8.4626 29.7069C8.47112 29.6834 8.50455 29.6541 8.5075 29.6542C8.65653 29.6468 8.79395 29.7492 8.93904 29.7153C8.95042 29.7127 8.94284 29.6487 8.94458 29.6476C8.98356 29.6208 8.95283 29.791 8.98005 29.848C8.97612 29.7181 8.99219 29.7416 9.01965 29.7274C9.03288 29.7204 9.02568 29.6701 9.02688 29.6649C9.0465 29.5885 9.06017 29.6872 9.06369 29.7074C9.07668 29.7817 9.09083 29.6939 9.09967 29.7436C9.10851 29.7928 9.08817 29.8659 9.1145 29.865C9.12188 29.8184 9.10233 29.6969 9.12233 29.6772C9.19776 29.6027 9.33858 29.698 9.39923 29.708C9.45976 29.7178 9.47931 29.7093 9.51459 29.7261C9.5783 29.7565 9.55495 29.6663 9.59451 29.625C9.63419 29.5837 9.6149 29.8056 9.6206 29.8533C9.6262 29.901 9.63232 29.8519 9.63928 29.8781C9.64622 29.9044 9.6312 29.9368 9.64752 29.9466C9.66386 29.9565 9.70852 29.8716 9.71431 29.8217C9.72655 29.7161 9.70642 29.6052 9.74965 29.6441C9.75213 29.6465 9.74407 29.7048 9.75358 29.7107C9.82919 29.7556 9.90773 29.7584 9.98325 29.7981C9.99363 29.8037 9.98435 29.8686 9.99039 29.8726C10.0533 29.9141 10.0308 29.8046 10.0653 29.683C10.0576 29.8448 10.0767 29.9438 10.1244 29.9448C10.1531 29.9454 10.1482 29.8748 10.1668 29.825C10.1723 29.8099 10.1927 29.8585 10.1963 29.8252C10.2085 29.7166 10.1893 29.595 10.2386 29.6434C10.2407 29.6457 10.2339 29.7052 10.2413 29.7088C10.2896 29.7323 10.2954 29.6187 10.3475 29.605C10.3884 29.5942 10.4611 29.6634 10.5077 29.6747C10.5067 29.8566 10.5507 29.815 10.5685 29.6895C10.5988 29.6947 10.6314 29.6876 10.6606 29.7049C10.6707 29.7108 10.664 29.7635 10.6653 29.7692C10.6848 29.8585 10.6979 29.7364 10.7044 29.7317C10.7751 29.6852 10.8327 29.7776 10.9001 29.6873C10.9025 29.684 10.9064 29.5576 10.9245 29.6499C10.9256 29.6563 10.9033 29.7138 10.9351 29.7182C10.9668 29.7227 11.0266 29.7904 11.0707 29.7318C11.0814 29.7177 11.1083 29.6152 11.13 29.6953C11.1329 29.7062 11.1297 29.7424 11.1339 29.7626C11.1473 29.8269 11.1547 29.6991 11.1705 29.8077C11.1863 29.9162 11.2192 29.9974 11.2637 29.9225C11.2651 29.9204 11.2756 29.8191 11.2896 29.8207C11.3119 29.8234 11.3435 29.8445 11.3668 29.8438C11.378 29.8435 11.3709 29.7806 11.3728 29.7795C11.4478 29.7442 11.5011 29.8003 11.5815 29.8246C11.5962 29.8292 11.6385 29.7435 11.667 29.8112C11.6983 29.8854 11.6662 30.194 11.7381 30.1205C11.7672 30.0911 11.8039 29.6996 11.8561 29.9024C11.9572 29.8521 12.0507 29.956 12.1522 29.8842C12.1567 29.881 12.1712 29.7717 12.1819 29.7732C12.1978 29.7756 12.2065 29.8267 12.2179 29.8301C12.2655 29.8455 12.3091 29.8018 12.3551 29.8086C12.3725 29.811 12.3664 29.8638 12.3872 29.8668C12.408 29.8697 12.4218 29.8002 12.45 29.8337C12.4713 29.8593 12.4925 30.0015 12.5208 30.018C12.5218 29.8778 12.5412 29.8807 12.5757 29.8437C12.5823 29.8365 12.5752 29.7877 12.5784 29.7818C12.5911 29.7567 12.6029 29.7971 12.615 29.7697C12.618 29.7632 12.6181 29.7153 12.6205 29.7072C12.641 29.6367 12.6747 29.7444 12.6805 29.7632C12.7027 29.8344 12.7131 29.7721 12.7302 29.8001C12.7472 29.8282 12.7217 29.8632 12.7416 29.8803C12.7828 29.9154 12.8357 29.9077 12.8775 29.9099C12.8942 29.9105 12.8828 29.8466 12.8852 29.8452C12.9197 29.829 12.9546 29.897 12.9737 29.7697C12.9977 30.0988 12.9945 29.7377 13.0439 29.8036C13.0477 29.809 13.0527 29.9646 13.0378 29.9875C13.0229 30.0103 13.0002 29.9616 12.9795 29.9973C12.9746 30.0056 12.9466 30.1515 12.9427 30.1603C12.9127 30.2294 12.9085 29.9968 12.9069 29.984C12.8889 29.8461 12.8546 30.0032 12.8456 30.0141C12.8042 30.0639 12.7691 30.0311 12.7345 30.0667C12.7119 30.0896 12.7097 30.242 12.692 30.2373C12.633 30.2219 12.6124 30.0093 12.5568 30.1936C12.5448 30.2329 12.5567 30.3995 12.514 30.2685C12.5113 30.2603 12.4795 30.1405 12.4612 30.2162C12.4589 30.2258 12.459 30.2743 12.456 30.2784C12.4356 30.3048 12.422 30.2661 12.3999 30.2846C12.3777 30.3032 12.3511 30.3308 12.3258 30.3143C12.3105 30.3045 12.291 30.214 12.2836 30.1919C12.263 30.1281 12.2409 30.2327 12.2282 30.1555C12.2153 30.0778 12.2405 29.96 12.2067 29.9098C12.2055 30.0359 12.2026 30.1653 12.2006 30.2921C12.1266 30.2877 12.0538 30.2469 11.9795 30.2525C11.9703 30.2533 11.9797 30.3211 11.9699 30.3237C11.9282 30.3345 11.8919 30.2862 11.8487 30.3054C11.8153 30.3206 11.7786 30.3923 11.7437 30.4104C11.7223 30.2661 11.6705 30.3151 11.6328 30.3019C11.6196 30.2974 11.6205 30.2589 11.6111 30.2463C11.5757 30.1998 11.5923 30.3273 11.5826 30.3474C11.5409 30.433 11.5374 30.1444 11.4883 30.1515C11.4857 30.1518 11.4539 30.3056 11.4495 30.3152C11.4217 30.3777 11.4449 30.2617 11.4275 30.2503C11.3957 30.2295 11.3736 30.1928 11.3363 30.2379C11.3254 30.2512 11.2993 30.3471 11.2782 30.2729C11.2754 30.2632 11.277 30.2124 11.2747 30.2094C11.2343 30.1597 11.2332 30.3195 11.2101 30.3736C11.1869 30.4277 11.1512 30.3174 11.1439 30.2856C11.1249 30.2034 11.1585 30.2505 11.1595 30.2424C11.1716 30.1464 11.1456 30.1629 11.1256 30.1548C11.1228 29.9982 11.0949 30.0076 11.105 30.147C11.1061 30.1623 11.1216 30.1477 11.1256 30.1548C11.1082 30.3085 11.0776 30.3282 11.0437 30.1846C11.0279 30.1173 11.0429 30.0388 10.9948 30.0675C10.973 30.0804 10.9814 30.1883 10.9622 30.2177C10.9182 30.2848 10.861 30.1842 10.8157 30.2C10.7992 30.2058 10.8153 30.2648 10.804 30.2708C10.7742 30.2868 10.7478 30.2425 10.7179 30.2652C10.7151 30.2674 10.7218 30.3292 10.7125 30.33C10.6418 30.3371 10.5803 30.2975 10.5065 30.2964C10.4708 30.2959 10.4071 30.33 10.3701 30.3232C10.3061 30.3117 10.2274 30.2218 10.1727 30.2436C10.1371 30.2576 10.1449 30.3194 10.1296 30.3615C10.1001 30.4432 10.0479 30.2969 10.0409 30.2743C10.0407 30.2735 10.0714 30.259 10.055 30.2272C10.0455 30.1611 10.0412 30.274 10.0409 30.2743C10.0363 30.2597 9.97496 30.2456 9.96278 30.2574C9.95617 30.2639 9.95987 30.3225 9.95642 30.3247C9.87444 30.3772 9.79232 30.392 9.70918 30.3647C9.70772 30.3635 9.70992 30.298 9.70648 30.296C9.65835 30.2669 9.62753 30.347 9.58783 30.3946C9.54814 30.4422 9.51666 30.4262 9.49316 30.3138C9.46321 30.3279 9.42025 30.2782 9.39552 30.248C9.3708 30.2178 9.36735 30.3454 9.36517 30.3479C9.29732 30.4286 9.25809 30.3556 9.1877 30.3442C9.15423 30.3386 9.08784 30.3571 9.0516 30.3711C9.02297 30.3823 9.00571 30.3524 8.97932 30.3715C8.97575 30.3741 8.97936 30.4309 8.97827 30.433C8.94882 30.501 8.96297 30.3622 8.95689 30.3374C8.93485 30.2472 8.92123 30.1992 8.88351 30.2416C8.87481 30.2513 8.84947 30.4512 8.83362 30.4629C8.813 30.4777 8.82078 30.4061 8.79919 30.4234C8.79734 30.4249 8.79773 30.4691 8.78441 30.4671C8.72256 30.4586 8.65513 30.4329 8.59086 30.4373C8.58208 30.4378 8.59334 30.5079 8.58066 30.5097C8.52114 30.518 8.4559 30.5154 8.39791 30.4826C8.38364 30.4743 8.39259 30.4252 8.38949 30.4106C8.37047 30.3224 8.3435 30.4506 8.33905 30.453C8.23288 30.5146 8.15163 30.3986 8.04342 30.4538C8.03753 30.4571 7.99219 30.5944 7.97196 30.4766C7.97058 30.4688 7.95057 30.3483 7.93287 30.4307C7.93177 30.4358 7.94424 30.4979 7.92248 30.4915C7.90072 30.4852 7.86569 30.5267 7.83578 30.4585C7.82631 30.437 7.80393 30.3168 7.77568 30.4126C7.77383 30.4193 7.73022 30.636 7.71466 30.4865C7.71213 30.4619 7.71477 30.3037 7.68106 30.3848C7.67461 30.4005 7.68631 30.4358 7.66934 30.4579C7.64333 30.4918 7.60888 30.4494 7.57691 30.5199C7.57134 30.5324 7.54761 30.6398 7.52857 30.5583C7.52559 30.5455 7.53126 30.4927 7.5212 30.4868C7.4734 30.4584 7.42335 30.4938 7.37481 30.4572C7.35762 30.4444 7.36641 30.359 7.34849 30.3361C7.33057 30.3132 7.29446 30.2912 7.27571 30.3302C7.25695 30.3693 7.27744 30.5054 7.24934 30.5163C7.12718 30.5636 7.00616 30.4837 6.88418 30.472C6.86609 30.4703 6.88109 30.519 6.85442 30.5199C6.75613 30.5236 6.58642 30.5692 6.50112 30.4657C6.43278 30.3828 6.51878 30.3197 6.46656 30.286C6.44136 30.2699 6.4141 30.4282 6.40801 30.4331C6.34858 30.4837 6.30728 30.4136 6.25379 30.4352C6.24274 30.4396 6.25358 30.5037 6.24418 30.5068C6.21207 30.518 6.17832 30.4893 6.14764 30.4946C6.13387 30.4971 6.13641 30.546 6.12374 30.5423C6.09343 30.5338 6.06663 30.5132 6.03709 30.4673C6.03439 30.4631 6.05255 30.4022 6.03013 30.3999C5.99384 30.3964 5.94879 30.3511 5.90703 30.3979C5.89465 30.412 5.89416 30.5239 5.86753 30.4466C5.86194 30.4304 5.86907 30.296 5.83805 30.4122C5.83283 30.4315 5.78072 30.5881 5.75515 30.4872C5.7484 30.4606 5.73118 30.3506 5.71628 30.3679C5.71426 30.3706 5.72236 30.4307 5.71001 30.4366C5.6665 30.4562 5.62091 30.4498 5.57621 30.4687C5.56427 30.4738 5.58205 30.536 5.56426 30.5417C5.51534 30.5574 5.45426 30.5416 5.40642 30.5221C5.38879 30.5148 5.40098 30.4633 5.39969 30.4577C5.37906 30.3664 5.36685 30.4896 5.36001 30.4968C5.31741 30.5398 5.28497 30.4819 5.2457 30.4972C5.23487 30.5013 5.24255 30.56 5.24039 30.5652C5.21802 30.6164 5.23469 30.511 5.22052 30.4993C5.18086 30.4664 5.13663 30.4711 5.09652 30.4786C5.08178 30.4815 5.09834 30.5496 5.08512 30.5513C5.00685 30.5631 4.92548 30.5565 4.84909 30.519C4.83471 30.5118 4.84376 30.4594 4.84076 30.4474C4.8201 30.3636 4.78982 30.4779 4.78286 30.4888C4.75118 30.5385 4.73887 30.4921 4.7109 30.5008C4.57423 30.5439 4.40548 30.5132 4.27648 30.4942C4.10837 30.4698 3.97792 30.4199 3.81761 30.4329C3.80743 30.4336 3.8177 30.5034 3.80892 30.5049C3.69552 30.5217 3.58388 30.4945 3.47026 30.5146C3.46094 30.5161 3.47438 30.5823 3.45941 30.5869C3.42872 30.597 3.38983 30.5934 3.3588 30.5723C3.34366 30.5621 3.36396 30.5054 3.34873 30.4963C3.31325 30.475 3.27521 30.4703 3.23877 30.4809C3.22326 30.4856 3.24666 30.5532 3.2265 30.554C3.08919 30.5607 2.95433 30.5723 2.81557 30.4848C2.80605 30.4788 2.79771 30.3413 2.77748 30.3677C2.77596 30.4058 2.77604 30.4507 2.77538 30.4915C2.57548 30.5134 2.37762 30.4658 2.17717 30.4584C2.16872 30.4581 2.18332 30.5309 2.16696 30.5307C2.07226 30.5297 1.98029 30.5498 1.88342 30.4774C1.87381 30.4704 1.87874 30.3423 1.85042 30.3616C1.84542 30.3652 1.80276 30.3823 1.79173 30.4101C1.79023 30.4143 1.79802 30.4741 1.78427 30.4758C1.70438 30.4849 1.62067 30.4712 1.54092 30.4347C1.52805 30.4287 1.54176 30.365 1.53259 30.3602C1.46756 30.3264 1.39683 30.3748 1.3347 30.317C1.29311 30.278 1.30851 30.168 1.2864 30.0596C1.28328 30.0443 1.25752 30.0419 1.25619 29.9789C1.25277 29.8203 1.26525 29.6468 1.26013 29.4778C1.25905 29.4414 1.22456 29.4806 1.24498 29.3926C1.2464 29.3868 1.27141 29.3576 1.27757 29.3277C1.28186 29.3071 1.27413 29.243 1.28288 29.2166C1.29163 29.1902 1.30124 29.2439 1.31575 29.2129C1.33025 29.1815 1.32387 29.1086 1.35283 29.1ZM9.28419 30.1132C9.2613 30.0519 9.25792 30.2762 9.28268 30.2226C9.28388 30.2197 9.28537 30.1162 9.28419 30.1132ZM12.0542 30.0777C12.0242 29.9788 12.0038 30.1243 12.0249 30.2007C12.046 30.277 12.0633 30.1077 12.0542 30.0777ZM12.3645 30.0055C12.3296 29.9275 12.324 30.2456 12.3615 30.1813C12.3637 30.1776 12.3666 30.01 12.3645 30.0055ZM1.3889 30.0287C1.38858 30.0258 1.37007 30.0229 1.36963 30.0258C1.35977 30.0971 1.39679 30.1028 1.3889 30.0287ZM12.6725 29.9269C12.6616 29.8838 12.6302 29.9335 12.6437 29.987C12.6547 30.03 12.6861 29.9804 12.6725 29.9269ZM8.08993 29.8738C8.08957 29.8704 8.0763 29.8674 8.07656 29.8863C8.07746 29.9472 8.09594 29.93 8.08993 29.8738ZM13.196 29.9232C13.1186 29.9112 13.0717 29.6485 13.156 29.6781C13.1712 29.6835 13.1231 29.7619 13.1425 29.7856C13.178 29.8287 13.2016 29.6638 13.2379 29.7522C13.2444 29.7684 13.2004 29.9245 13.1958 29.9236C13.1959 29.9234 13.1959 29.9233 13.196 29.9232ZM9.27101 29.8437C9.27055 29.8408 9.25218 29.8379 9.25174 29.8409C9.24179 29.9121 9.2788 29.9178 9.27101 29.8437ZM7.31544 29.7351C7.31443 29.7287 7.27179 29.7228 7.2704 29.7286C7.24815 29.8451 7.33436 29.8574 7.31544 29.7351ZM10.5084 29.6796C10.5285 29.6079 10.5525 29.5995 10.5685 29.6895C10.5485 29.6847 10.5285 29.684 10.5084 29.6796ZM7.9809 2.2561C8.00044 2.59004 7.97955 3.02777 7.95087 3.36045C7.94198 3.46471 7.90222 3.41192 7.89429 3.48389C7.87883 3.62465 7.89833 3.75579 7.87992 3.8949C7.87362 3.941 7.81064 3.88361 7.80548 3.93195C7.77765 4.19684 7.79369 4.44744 7.78031 4.71578C7.71426 6.03752 7.69062 7.33676 7.66193 8.67468C7.65252 9.11582 7.59537 9.65209 7.62036 10.1077C7.62334 10.1609 7.67861 10.1292 7.68317 10.1393C7.75291 10.2981 7.64132 10.2453 7.6265 10.3489C7.56796 10.7603 7.56287 11.2177 7.5842 11.6136C7.59344 11.782 7.70323 11.6131 7.6416 11.7827C7.63744 11.7945 7.57874 11.7517 7.57248 11.7979C7.5584 11.9027 7.56889 12.1014 7.56424 12.1826C7.55498 12.339 7.55557 12.3649 7.5549 12.5129C7.55348 12.7152 7.5243 12.9558 7.5376 13.1728C7.54061 13.2191 7.60079 13.1578 7.61103 13.2317C7.62125 13.3056 7.61615 13.5013 7.60196 13.5672C7.58777 13.6332 7.54048 13.6051 7.52964 13.6168C7.43814 13.7128 7.56486 13.9391 7.568 13.9682C7.6214 14.4991 7.54921 14.9543 7.54941 15.4527C7.54972 15.831 7.57355 16.2355 7.57029 16.5954C7.56616 17.0243 7.53355 17.3877 7.53916 17.8044C7.53968 17.8483 7.61043 17.7968 7.61121 17.8505C7.61944 18.421 7.61173 18.9876 7.56397 19.5557C7.55912 19.6127 7.497 19.5392 7.48844 19.5962C7.43739 19.9446 7.31476 20.496 7.58521 20.703C7.57465 20.9391 7.56374 21.2256 7.50922 21.4368C7.47413 21.573 7.40646 21.4407 7.43534 21.608C7.44177 21.6457 7.50103 21.5967 7.5062 21.6532C7.52789 21.8914 7.50863 22.1516 7.53925 22.3873C7.54562 22.4352 7.59872 22.4221 7.60828 22.4357C7.68572 22.5498 7.55771 22.7398 7.5484 22.7812C7.47904 23.0966 7.50634 23.3269 7.50464 23.6207C7.50422 23.6889 7.57555 23.6083 7.5777 23.6739C7.58792 24.0142 7.58179 24.3667 7.55014 24.6999C7.54293 24.774 7.48217 24.7058 7.47562 24.7412C7.44746 24.8974 7.56221 24.932 7.53742 25.0818C7.53234 25.1134 7.48033 25.0956 7.47461 25.1013C7.38494 25.1915 7.512 25.2698 7.5148 25.293C7.55313 25.5862 7.42049 25.7737 7.43927 26.057C7.44165 26.0909 7.50747 26.0145 7.51014 26.1098C7.5283 26.7445 7.51022 27.4158 7.45758 28.0441C7.44949 28.1418 7.40005 28.072 7.39396 28.0782C7.29873 28.1784 7.42632 28.2432 7.43113 28.275C7.46571 28.5263 7.35871 28.7611 7.51068 28.9318C7.45795 29.996 7.54329 31.0553 7.40714 32.1107C7.40556 32.1242 7.34272 32.1001 7.33985 32.1269C7.30456 32.4492 7.40223 32.3873 7.52167 32.6006C7.55166 32.6544 7.40746 32.8178 7.39688 32.8323C7.35793 32.885 7.26445 32.8303 7.2569 32.848C7.19766 32.994 7.50683 32.9702 7.50693 33.1671C7.50642 33.1733 7.44951 33.1474 7.44385 33.1639C7.42609 33.2153 7.4487 33.2662 7.42911 33.3165C7.38378 33.4315 7.23356 33.4725 7.32099 33.6481C7.33234 33.6704 7.50771 33.6364 7.49942 33.8123C7.49597 33.8824 7.49898 34.1927 7.48761 34.2797C7.47626 34.3665 7.41975 34.3069 7.4173 34.3131C7.34257 34.5471 7.3116 34.4584 7.20096 34.5756C7.09074 34.6929 7.35363 34.6604 7.38297 34.7082C7.41223 34.7561 7.35057 34.9277 7.32914 34.9698C7.30769 35.012 7.27178 34.9594 7.25965 34.9969C7.18037 35.2454 7.39013 35.106 7.43186 35.1878C7.53065 35.3809 7.3357 35.5312 7.31659 35.708C7.31143 35.7558 7.35584 35.7168 7.35999 35.7593C7.37585 35.928 7.31502 36.0294 7.37079 36.2213C7.37988 36.2526 7.49709 36.4078 7.41108 36.5082C7.39867 36.5224 7.35009 36.482 7.33921 36.5538C7.32288 36.6612 7.31226 36.8547 7.3285 36.9701C7.34051 37.0553 7.42056 36.9576 7.39569 37.0649C7.38459 37.1125 7.33776 37.0242 7.32081 37.1138C7.30386 37.2028 7.30591 37.4306 7.30753 37.5173C7.30918 37.6038 7.36991 37.5564 7.374 37.5634C7.39743 37.6057 7.42671 37.7717 7.42664 37.7864C7.43405 38.5265 7.3317 39.2089 7.36557 39.9294C7.36814 39.986 7.43218 39.9483 7.43323 39.9569C7.46006 40.1505 7.28981 39.9979 7.23282 40.1331C7.36277 40.1136 7.33924 40.1934 7.35349 40.3297C7.36046 40.3955 7.41078 40.3597 7.41593 40.3657C7.49235 40.4631 7.39364 40.531 7.37345 40.5484C7.29917 40.613 7.38693 40.6832 7.33728 40.7271C7.28801 40.771 7.21495 40.67 7.21589 40.8008C7.2624 40.8374 7.38396 40.7404 7.40366 40.8396C7.47818 41.2143 7.38281 41.9135 7.3729 42.2147C7.363 42.5154 7.37158 42.6124 7.35477 42.7876C7.32438 43.104 7.41456 42.9881 7.45584 43.1845C7.49712 43.3816 7.27522 43.2858 7.22751 43.3141C7.17983 43.3419 7.22891 43.3723 7.2027 43.4068C7.1765 43.4413 7.14406 43.3667 7.13422 43.4478C7.12439 43.5289 7.20922 43.7507 7.2591 43.7794C7.36477 43.8402 7.47568 43.7403 7.43671 43.9549C7.4344 43.9673 7.37605 43.9272 7.37015 43.9745C7.32523 44.3499 7.32245 44.74 7.28272 45.115C7.27716 45.1665 7.21225 45.1204 7.20829 45.1504C7.16677 45.463 7.27622 45.3513 7.3978 45.5226C7.236 45.4841 7.13701 45.5788 7.13605 45.8161C7.13542 45.9587 7.20609 45.9341 7.25589 46.0263C7.27091 46.054 7.22239 46.1549 7.25562 46.1732C7.36426 46.2335 7.48587 46.1385 7.43744 46.383C7.43514 46.3937 7.37568 46.3596 7.37207 46.3967C7.3485 46.6363 7.46213 46.665 7.47589 46.924C7.48669 47.1271 7.4174 47.4883 7.40613 47.7195C7.22422 47.7146 7.26588 47.933 7.3913 48.0216C7.38617 48.1716 7.39326 48.3337 7.37592 48.4787C7.37001 48.5287 7.31734 48.4959 7.31165 48.5022C7.22238 48.5987 7.3444 48.6639 7.34919 48.6963C7.39569 49.0473 7.3032 49.3333 7.39359 49.6683C7.39684 49.6802 7.52321 49.6995 7.43094 49.7891C7.42458 49.7948 7.36709 49.6842 7.36264 49.8418C7.35819 49.9994 7.29045 50.2965 7.349 50.5154C7.3631 50.5683 7.46568 50.7023 7.38553 50.8097C7.37465 50.8241 7.33841 50.8084 7.31824 50.8291C7.25398 50.8959 7.3817 50.9324 7.2732 51.0109C7.1647 51.0895 7.08344 51.2529 7.1583 51.4735C7.16048 51.4806 7.26171 51.5328 7.26011 51.6022C7.25746 51.713 7.23638 51.8703 7.23703 51.9859C7.23739 52.0413 7.30025 52.0059 7.3014 52.0155C7.33662 52.3879 7.28058 52.6529 7.25626 53.0519C7.25168 53.125 7.3374 53.3352 7.26963 53.4768C7.19544 53.6322 6.88684 53.4725 6.96036 53.8298C6.98977 53.9739 7.38129 54.1564 7.17844 54.4154C7.2287 54.9177 7.12489 55.3823 7.19666 55.886C7.19984 55.9086 7.30911 55.9802 7.30762 56.0335C7.3052 56.1126 7.25413 56.156 7.25077 56.2124C7.23538 56.4489 7.27908 56.6654 7.27228 56.8935C7.26981 56.9801 7.21701 56.9498 7.21405 57.0531C7.21115 57.1563 7.28069 57.2251 7.24711 57.365C7.22151 57.4706 7.07938 57.5762 7.06281 57.7164C7.20301 57.7217 7.20012 57.818 7.23713 57.9892C7.24431 58.0221 7.2931 57.9868 7.29902 58.0024C7.32416 58.0657 7.28372 58.1243 7.3111 58.1845C7.31768 58.1991 7.36555 58.1998 7.37363 58.2118C7.44414 58.3134 7.33644 58.481 7.31769 58.5098C7.24648 58.6201 7.30875 58.6716 7.2807 58.7562C7.25267 58.8407 7.21761 58.7144 7.2006 58.813C7.1654 59.0175 7.17313 59.2803 7.17093 59.488C7.17035 59.5708 7.23426 59.5143 7.23566 59.5262C7.25187 59.6975 7.18389 59.8708 7.31119 59.9658C6.98203 60.0846 7.34312 60.0691 7.27723 60.3141C7.2719 60.3334 7.11624 60.3579 7.09339 60.2838C7.07056 60.2098 7.11921 60.0974 7.08359 59.9947C7.07523 59.9703 6.92937 59.8309 6.92054 59.8119C6.85149 59.6629 7.08409 59.6418 7.09687 59.6339C7.23474 59.5445 7.0776 59.3741 7.06675 59.3293C7.017 59.124 7.04971 58.9497 7.0142 58.778C6.99124 58.6657 6.83888 58.6548 6.84354 58.5666C6.85896 58.2735 7.07151 58.1712 6.88721 57.8951C6.84791 57.8359 6.68137 57.8947 6.81232 57.6825C6.82058 57.6692 6.94037 57.5117 6.8646 57.4207C6.85505 57.4092 6.80651 57.4096 6.80243 57.3945C6.77606 57.2935 6.81473 57.2261 6.79621 57.116C6.77769 57.006 6.75009 56.8736 6.76655 56.748C6.77639 56.6723 6.86681 56.5751 6.88895 56.5388C6.95273 56.4365 6.84816 56.3267 6.92539 56.2633C7.00301 56.1994 7.12088 56.3244 7.17103 56.1567C7.04493 56.1505 6.91551 56.1362 6.7887 56.1263C6.79314 55.7588 6.83391 55.3972 6.82834 55.0285C6.82753 54.9828 6.75974 55.0295 6.75712 54.9805C6.74635 54.7738 6.79467 54.5932 6.77543 54.3788C6.76027 54.2128 6.6885 54.0308 6.67042 53.8573C6.8147 53.7513 6.76572 53.4938 6.77891 53.3067C6.78346 53.2412 6.822 53.2456 6.83457 53.199C6.88107 53.0231 6.75356 53.1055 6.7335 53.0573C6.64786 52.8505 6.93646 52.8328 6.92933 52.589C6.92905 52.5761 6.77521 52.4182 6.76563 52.3965C6.70316 52.2583 6.81918 52.3736 6.83054 52.2872C6.85131 52.1293 6.88805 52.0196 6.84299 51.8343C6.82965 51.7803 6.73376 51.6507 6.80793 51.5458C6.81764 51.532 6.86849 51.5397 6.87147 51.5286C6.9211 51.3275 6.76133 51.3222 6.70722 51.2073C6.65312 51.0924 6.76341 50.915 6.7952 50.8789C6.87744 50.7844 6.83035 50.9512 6.83842 50.9564C6.93445 51.0165 6.91792 50.8871 6.92603 50.7882C7.08269 50.7738 7.07329 50.6355 6.93381 50.6856C6.91858 50.6913 6.93319 50.7683 6.92603 50.7882C6.77233 50.7013 6.75264 50.5494 6.89628 50.3815C6.96359 50.3029 7.04209 50.3772 7.01337 50.1385C7.00041 50.0301 6.89254 50.072 6.86313 49.9764C6.79604 49.7579 6.89666 49.4741 6.8808 49.2489C6.87505 49.1672 6.816 49.2468 6.81003 49.191C6.79401 49.0427 6.83831 48.912 6.81562 48.7631C6.81349 48.7496 6.75168 48.7826 6.75089 48.7363C6.74371 48.3853 6.7833 48.0798 6.7844 47.7133C6.7849 47.5363 6.75081 47.2198 6.75767 47.0364C6.76918 46.7185 6.85906 46.3274 6.83722 46.0559C6.82325 45.8788 6.76143 45.9176 6.71931 45.8417C6.63766 45.6953 6.78391 45.4361 6.80655 45.4012C6.8073 45.4001 6.82188 45.5525 6.85361 45.4712C6.91974 45.4239 6.80684 45.4029 6.80655 45.4012C6.82118 45.3783 6.83522 45.0738 6.8234 45.0134C6.81694 44.9805 6.75837 44.9989 6.75611 44.9818C6.70369 44.5747 6.68881 44.1669 6.71619 43.754C6.71738 43.7467 6.78289 43.7576 6.78486 43.7406C6.81399 43.5015 6.73384 43.3485 6.68625 43.1513C6.63869 42.9542 6.65462 42.7979 6.7671 42.6812C6.75293 42.5325 6.80266 42.3191 6.83283 42.1963C6.863 42.0735 6.73547 42.0564 6.73295 42.0456C6.65225 41.7086 6.72525 41.5139 6.73661 41.1643C6.74223 40.9981 6.72373 40.6684 6.70978 40.4884C6.69855 40.3462 6.72844 40.2605 6.70933 40.1295C6.70677 40.1117 6.64999 40.1296 6.6478 40.1242C6.57986 39.978 6.71868 40.0483 6.74348 40.0181C6.83363 39.9086 6.88165 39.841 6.83924 39.6537C6.82953 39.6105 6.62965 39.4846 6.61796 39.4059C6.60313 39.3035 6.67477 39.3421 6.65742 39.2349C6.656 39.2258 6.6118 39.2277 6.61375 39.1615C6.62221 38.8544 6.64793 38.5195 6.6435 38.2004C6.64306 38.1568 6.57296 38.2127 6.57117 38.1497C6.56286 37.8541 6.56546 37.5301 6.59827 37.2422C6.60657 37.1713 6.65566 37.2157 6.67023 37.2004C6.75842 37.1059 6.63029 36.972 6.62784 36.9498C6.56627 36.4226 6.68223 36.0191 6.62702 35.4818C6.62378 35.4525 6.48641 35.2274 6.60422 35.1269C6.61206 35.12 6.73259 35.0207 6.65018 34.9328C6.64503 34.9273 6.58298 34.9892 6.5893 34.8812C6.59561 34.7731 6.55417 34.5992 6.62235 34.4506C6.64383 34.4036 6.76406 34.2924 6.66822 34.1521C6.66153 34.143 6.44482 33.9264 6.59434 33.8491C6.61895 33.8366 6.77718 33.8497 6.69605 33.6822C6.68032 33.6503 6.64503 33.7083 6.62299 33.6241C6.58903 33.4949 6.63141 33.3238 6.56092 33.1651C6.54844 33.1374 6.44105 33.0195 6.52256 32.925C6.53533 32.9102 6.58815 32.9383 6.59406 32.8884C6.62242 32.651 6.58708 32.4025 6.62363 32.1614C6.63648 32.076 6.72187 32.1197 6.74476 32.0307C6.76763 31.9417 6.78964 31.7624 6.75062 31.6693C6.71158 31.5761 6.57547 31.6779 6.56458 31.5383C6.51728 30.9317 6.59712 30.3307 6.6088 29.7249C6.61055 29.6351 6.56184 29.7096 6.56092 29.5772C6.5573 29.089 6.51163 28.2462 6.61512 27.8227C6.698 27.4833 6.76111 27.9104 6.79484 27.651C6.81093 27.5259 6.65269 27.3905 6.64771 27.3603C6.59711 27.0652 6.6672 26.86 6.6457 26.5944C6.64123 26.5396 6.5771 26.5934 6.57401 26.5467C6.56289 26.3872 6.59152 26.2196 6.58628 26.0672C6.58378 25.9989 6.5348 26.0115 6.53858 25.9486C6.54706 25.7981 6.56765 25.665 6.61356 25.5182C6.61775 25.5049 6.67868 25.595 6.68094 25.4837C6.68444 25.3035 6.72973 25.0798 6.68296 24.8724C6.66889 24.8109 6.55694 24.8085 6.63425 24.6762C6.6504 24.6485 6.78483 24.6839 6.66868 24.5298C6.64938 24.5039 6.49271 24.2451 6.5937 24.1181C6.62027 24.0846 6.73028 23.9991 6.71299 23.9251C6.71023 23.9151 6.6501 23.9553 6.64423 23.894C6.62461 23.6779 6.63102 23.4515 6.61219 23.2295C6.60704 23.1702 6.54482 23.2585 6.53913 23.1702C6.5234 22.9272 6.53925 22.6239 6.55872 22.3864C6.56602 22.2988 6.61757 22.3593 6.62318 22.3529C6.71441 22.2505 6.59126 22.1899 6.58408 22.1559C6.54108 21.9443 6.59893 21.7832 6.58362 21.5882C6.57956 21.5344 6.52084 21.5726 6.5156 21.5618C6.46444 21.4508 6.5699 21.5335 6.58152 21.4632C6.61443 21.2662 6.60971 21.0466 6.60221 20.8474C6.59937 20.7742 6.53128 20.8564 6.52952 20.7908C6.51778 20.4021 6.5243 19.998 6.56184 19.6187C6.56903 19.5472 6.62145 19.5922 6.63343 19.5773C6.71721 19.4747 6.60293 19.3243 6.59205 19.2897C6.54234 19.1324 6.58871 19.0713 6.58005 18.9324C6.53697 18.2537 6.56768 17.4157 6.58665 16.775C6.61106 15.9402 6.66094 15.2924 6.64799 14.4963C6.64723 14.4457 6.57748 14.4967 6.57593 14.4531C6.55912 13.89 6.58637 13.3356 6.56623 12.7713C6.5647 12.725 6.49858 12.7918 6.4939 12.7175C6.48385 12.565 6.48744 12.3719 6.50855 12.2178C6.51872 12.1426 6.57546 12.2435 6.58454 12.1678C6.60581 11.9916 6.61052 11.8027 6.59992 11.6217C6.59527 11.5447 6.52764 11.6609 6.52686 11.5608C6.52015 10.8789 6.50851 10.2092 6.59608 9.52011C6.60209 9.47287 6.73953 9.43141 6.71317 9.33097C6.67503 9.3234 6.63016 9.32382 6.58939 9.32051C6.56743 8.32783 6.61508 7.34528 6.62244 6.3498C6.62274 6.30783 6.54992 6.38037 6.55012 6.29911C6.55119 5.82881 6.53102 5.37211 6.6034 4.89104C6.61048 4.84331 6.73859 4.8678 6.71921 4.72714C6.71568 4.70233 6.69859 4.49048 6.67078 4.43571C6.66659 4.42827 6.60679 4.46692 6.60505 4.39865C6.59597 4.00194 6.60962 3.58621 6.64615 3.19018C6.65217 3.12627 6.71584 3.19433 6.72068 3.14881C6.75448 2.82589 6.70607 2.47464 6.76389 2.16608C6.80282 1.95953 6.9129 2.036 7.02125 1.92624C7.03653 1.91072 7.03895 1.78282 7.10199 1.77621C7.26051 1.75923 7.43409 1.82118 7.60306 1.79576C7.63946 1.79039 7.60026 1.6191 7.6882 1.72051C7.69409 1.7276 7.72328 1.85178 7.75312 1.88237C7.77374 1.90367 7.83785 1.86529 7.86426 1.90874C7.89064 1.95219 7.8369 1.99993 7.86792 2.07196C7.89933 2.14396 7.97226 2.1123 7.9809 2.2561ZM6.96769 41.6435C7.02893 41.5298 6.80461 41.513 6.85828 41.636C6.86114 41.6419 6.96468 41.6493 6.96769 41.6435ZM7.00312 55.3993C7.10206 55.2506 6.95658 55.1489 6.88016 55.2538C6.80383 55.3586 6.97312 55.4445 7.00312 55.3993ZM7.07535 56.9405C7.15336 56.7668 6.83527 56.7395 6.89957 56.9255C6.90321 56.9364 7.07082 56.9507 7.07535 56.9405ZM7.0521 2.43523C7.05508 2.43366 7.05798 2.34172 7.05503 2.33953C6.98378 2.29057 6.97803 2.47441 7.0521 2.43523ZM7.154 58.47C7.19703 58.4158 7.14735 58.2596 7.09385 58.327C7.0508 58.3812 7.10047 58.5375 7.154 58.47ZM7.2071 35.7127C7.21044 35.7109 7.21345 35.645 7.19455 35.6464C7.1337 35.6508 7.15087 35.7426 7.2071 35.7127ZM7.15766 61.0695C7.16963 60.6854 7.43239 60.4525 7.40274 60.8708C7.39738 60.9465 7.31895 60.7076 7.29526 60.804C7.2521 60.9803 7.41709 61.0975 7.32868 61.2775C7.3125 61.3101 7.15639 61.0914 7.15729 61.0688C7.15741 61.069 7.15754 61.0692 7.15766 61.0695ZM7.23713 41.578C7.24009 41.5757 7.2429 41.4845 7.23996 41.4823C7.16875 41.4329 7.16304 41.6167 7.23713 41.578ZM7.3458 31.8666C7.35212 31.8615 7.35803 31.6498 7.35221 31.6429C7.23575 31.5324 7.22345 31.9605 7.3458 31.8666ZM7.40128 47.7231C7.47292 47.8227 7.48136 47.9418 7.39139 48.0211C7.39617 47.9222 7.39687 47.8226 7.40128 47.7231Z" fill="black"/>
</svg>
