<svg width="15" height="67" viewBox="0 0 15 67" fill="none" xmlns="http://www.w3.org/2000/svg">
<path d="M1.74348 0.00762737C2.62887 -0.0119122 3.78947 0.00898027 4.67151 0.0376565C4.94795 0.0465505 4.80797 0.0863066 4.99879 0.094236C5.372 0.109694 5.7197 0.0901957 6.08852 0.10861C6.21074 0.114907 6.0586 0.177881 6.18676 0.183042C6.88908 0.210873 7.55349 0.194832 8.26495 0.208219C10.2655 0.245922 12.2467 0.269806 14.2385 0.288699L14.6954 0.284362L14.6998 0.75C14.6856 2.24728 14.6742 3.75063 14.6619 5.27285C14.6525 6.44248 14.5954 7.86432 14.6204 9.07242C14.6233 9.21345 14.6786 9.12938 14.6832 9.1562C14.7529 9.57705 14.6413 9.43713 14.6265 9.71191C14.568 10.8025 14.5629 12.0153 14.5842 13.0649C14.5934 13.5114 14.7032 13.0637 14.6416 13.5133C14.6374 13.5445 14.5787 13.4312 14.5725 13.5537C14.5584 13.8314 14.5689 14.3582 14.5642 14.5735C14.555 14.9883 14.5556 15.0569 14.5549 15.4492C14.5535 15.9856 14.5243 16.6235 14.5376 17.1989C14.5406 17.3218 14.6008 17.1592 14.611 17.355C14.6212 17.5511 14.6161 18.0698 14.602 18.2447C14.5878 18.4196 14.5405 18.3451 14.5296 18.3761C14.4381 18.6307 14.5649 19.2307 14.568 19.3079C14.6214 20.7154 14.5492 21.9224 14.5494 23.2437C14.5497 24.2467 14.5736 25.3192 14.5703 26.2735C14.5662 27.4106 14.5336 28.3742 14.5392 29.4788C14.5397 29.5954 14.6104 29.4588 14.6112 29.6012C14.6194 31.1139 14.6117 32.616 14.564 34.1222C14.5591 34.2733 14.497 34.0786 14.4884 34.2295C14.4374 35.1535 14.3148 36.6154 14.5852 37.1642C14.5746 37.79 14.5637 38.5498 14.5092 39.1097C14.4741 39.4707 14.4065 39.1201 14.4353 39.5636C14.4418 39.6636 14.501 39.5335 14.5062 39.6835C14.5279 40.315 14.5086 41.005 14.5392 41.6297C14.5456 41.7568 14.5987 41.7221 14.6083 41.7581C14.6857 42.0607 14.5577 42.5644 14.5484 42.6743C14.479 43.5105 14.5063 44.1211 14.5046 44.9001C14.5042 45.0809 14.5755 44.8672 14.5777 45.0411C14.5879 45.9433 14.5818 46.8779 14.5501 47.7612C14.5429 47.9577 14.4822 47.777 14.4756 47.8709C14.4475 48.285 14.5622 48.3767 14.5374 48.7738C14.5323 48.8575 14.4803 48.8104 14.4746 48.8256C14.3849 49.0646 14.512 49.2723 14.5148 49.3337C14.5531 50.1113 14.4205 50.6083 14.4393 51.3595C14.4417 51.4493 14.5075 51.2467 14.5101 51.4993C14.5283 53.1822 14.5102 54.9621 14.4576 56.6279C14.4495 56.8869 14.4001 56.702 14.394 56.7183C14.2987 56.9839 14.4263 57.1558 14.4311 57.2403C14.4657 57.9065 14.3587 58.5289 14.5107 58.9815C14.4684 61.2456 14.515 63.5013 14.4647 65.75L14.4668 65.974L14.2385 65.9762C13.6848 65.9638 13.1314 65.9455 12.5785 65.9186C12.5429 65.917 12.6067 65.8542 12.5357 65.8513C11.681 65.816 11.8452 65.9137 11.2796 66.0331C11.1372 66.0631 10.7038 65.9189 10.6655 65.9084C10.5258 65.8694 10.6707 65.7759 10.6239 65.7684C10.2368 65.7091 10.2999 66.0183 9.77765 66.0184C9.76131 66.0179 9.82991 65.961 9.78609 65.9553C9.64993 65.9376 9.5149 65.9602 9.38166 65.9406C9.0767 65.8953 8.96808 65.745 8.50229 65.8325C8.44333 65.8438 8.53336 66.0192 8.06712 66.0109C7.88125 66.0074 7.05851 66.0105 6.82792 65.9991C6.59761 65.9877 6.75574 65.9312 6.73932 65.9288C6.11878 65.854 6.35407 65.8231 6.04317 65.7124C5.73231 65.6022 5.81852 65.8651 5.69179 65.8944C5.56484 65.9237 5.10986 65.862 4.99805 65.8406C4.88631 65.8192 5.02568 65.7833 4.92633 65.7711C4.26746 65.6918 4.63713 65.9016 4.42004 65.9433C3.90822 66.0421 3.50958 65.8472 3.04101 65.8281C2.91423 65.8229 3.01768 65.8673 2.90479 65.8715C2.45766 65.8873 2.18875 65.8265 1.68006 65.8823C1.59684 65.8914 1.18561 66.0086 0.919421 65.9226C0.881722 65.9101 0.988849 65.8616 0.798274 65.8507C0.652201 65.8423 0.446014 65.8354 0.238525 65.8329L0.15641 65.8337L0.155616 65.75C0.158002 65.5532 0.156461 65.3551 0.148555 65.2062C0.136541 64.9802 0.056488 65.2392 0.081356 64.9548C0.09246 64.8285 0.139291 65.0627 0.156246 64.8252C0.173195 64.5891 0.171138 63.9852 0.169521 63.7554C0.167868 63.526 0.107145 63.6516 0.103054 63.6331C0.0796199 63.5209 0.050339 63.0807 0.0504113 63.0418C0.0429984 61.0797 0.145354 59.2703 0.111477 57.3599C0.108906 57.21 0.0448718 57.3099 0.0438195 57.287C0.0169905 56.7737 0.187242 57.1784 0.244228 56.8199C0.114284 56.8717 0.137813 56.66 0.123562 56.2985C0.116589 56.1243 0.0662736 56.2192 0.0611229 56.2033C-0.0152999 55.9449 0.0834102 55.765 0.103603 55.7187C0.177884 55.5476 0.0901162 55.3614 0.139766 55.245C0.189046 55.1286 0.262101 55.3964 0.261165 55.0497C0.214649 54.9524 0.0930919 55.2099 0.0733909 54.9466C-0.00112879 53.9534 0.0942454 52.0993 0.104153 51.3007C0.114051 50.5037 0.105469 50.2463 0.12228 49.7819C0.152675 48.943 0.0624876 49.2504 0.021206 48.7295C-0.0200707 48.2071 0.201834 48.4611 0.249538 48.386C0.29722 48.3123 0.248136 48.2317 0.274349 48.14C0.300555 48.0487 0.332989 48.2465 0.34283 48.0316C0.35266 47.8165 0.267832 47.2284 0.217952 47.1522C0.112279 46.991 0.00137079 47.256 0.0403405 46.6869C0.0426532 46.6542 0.101002 46.7604 0.106899 46.6351C0.151818 45.6396 0.154603 44.6054 0.194332 43.6112C0.199886 43.4745 0.264797 43.5967 0.268764 43.5172C0.310282 42.6885 0.200834 42.9847 0.0792503 42.5305C0.241052 42.6325 0.340043 42.3813 0.340999 41.7524C0.34163 41.3743 0.270963 41.4394 0.221157 41.1949C0.206142 41.1215 0.254665 40.854 0.221431 40.8055C0.112795 40.6457 -0.00881629 40.8976 0.0396081 40.2492C0.0419094 40.2208 0.101375 40.3113 0.104977 40.213C0.128549 39.5776 0.0149172 39.5016 0.00115603 38.8147C-0.00964174 38.2763 0.0596496 37.3188 0.070919 36.7058C0.252831 36.7187 0.211176 36.1396 0.0857505 35.9048C0.0908854 35.5069 0.0837949 35.0772 0.101131 34.6927C0.107042 34.5604 0.15971 34.6473 0.165401 34.6306C0.254673 34.3747 0.132649 34.2017 0.127865 34.1159C0.0813616 33.1852 0.173846 32.4269 0.0834617 31.5386C0.0802063 31.5071 -0.0461555 31.456 0.0461083 31.2186C0.0524682 31.2032 0.109961 31.4966 0.114406 31.0788C0.118862 30.6609 0.186601 29.8731 0.128048 29.2929C0.113951 29.1525 0.0113711 28.7974 0.0915183 28.5124C0.102402 28.4744 0.138643 28.5159 0.158809 28.4611C0.223069 28.2839 0.0953482 28.1872 0.203853 27.979C0.312353 27.7707 0.393612 27.3375 0.318751 26.7524C0.316575 26.7338 0.215344 26.5953 0.216945 26.4113C0.219587 26.1175 0.240676 25.7006 0.240016 25.3939C0.239664 25.247 0.176805 25.341 0.175655 25.3155C0.140431 24.3282 0.19647 23.6254 0.22079 22.5677C0.225373 22.3738 0.139655 21.8166 0.207424 21.4412C0.281609 21.029 0.59021 21.4526 0.516688 20.5052C0.487281 20.1231 0.0957651 19.6393 0.29861 18.9526C0.248346 17.6207 0.352162 16.3891 0.280391 15.0536C0.277211 14.9935 0.167942 14.8036 0.169429 14.6624C0.171849 14.4528 0.222919 14.3377 0.226283 14.188C0.241667 13.5609 0.197972 12.987 0.204769 12.3823C0.207238 12.1527 0.260045 12.233 0.262996 11.9592C0.265898 11.6855 0.196362 11.5031 0.229946 11.1322C0.255544 10.8522 0.397674 10.5722 0.414241 10.2004C0.274045 10.1862 0.276933 9.93093 0.239925 9.47716C0.232744 9.38993 0.183949 9.48346 0.178035 9.4422C0.152886 9.27427 0.193327 9.11885 0.16595 8.95941C0.159375 8.92062 0.111498 8.9188 0.10342 8.88708C0.0329115 8.61745 0.140607 8.17321 0.159359 8.09692C0.230573 7.8045 0.168302 7.66785 0.196346 7.44357C0.224386 7.21964 0.259438 7.55446 0.276454 7.29288C0.311649 6.75069 0.303917 6.05406 0.306117 5.5034C0.3067 5.28368 0.24279 5.43358 0.24139 5.40214C0.22518 4.94782 0.293162 4.48839 0.165859 4.23647C0.495016 3.92148 0.133932 3.96251 0.199825 3.3131C0.205154 3.26194 0.36081 3.19687 0.383662 3.39326C0.406492 3.58965 0.357837 3.88745 0.393458 4.15993C0.401818 4.22445 0.547678 4.59409 0.556513 4.64451C0.625566 5.03957 0.392959 5.09554 0.380183 5.11645C0.24231 5.35345 0.399446 5.80515 0.410304 5.9241C0.460055 6.46825 0.427343 6.93057 0.462855 7.3857C0.485807 7.68337 0.638173 7.7125 0.633509 7.94624C0.618094 8.72324 0.405542 8.99448 0.589838 9.72668C0.629145 9.88368 0.795677 9.72766 0.664728 10.2902C0.656473 10.3256 0.536679 10.7432 0.612452 10.9846C0.622006 11.0149 0.670539 11.0139 0.674616 11.0539C0.700988 11.3218 0.662323 11.5004 0.680841 11.7922C0.699359 12.084 0.726966 12.4349 0.710504 12.768C0.700661 12.9688 0.610237 13.2264 0.588099 13.3225C0.524325 13.5939 0.628887 13.8849 0.551661 14.053C0.474046 14.2226 0.356175 13.8911 0.306026 14.3357C0.432119 14.3522 0.56154 14.39 0.688349 14.4165C0.683909 15.3908 0.643136 16.3495 0.648706 17.327C0.649523 17.4482 0.717311 17.3243 0.719934 17.4542C0.730703 18.0024 0.68238 18.4811 0.701624 19.0496C0.716779 19.4896 0.788552 19.9721 0.806634 20.4323C0.662349 20.7133 0.71133 21.3961 0.698145 21.892C0.693589 22.0658 0.655053 22.0542 0.642481 22.1777C0.595985 22.6439 0.723489 22.4255 0.743555 22.5532C0.829192 23.1015 0.540593 23.1484 0.547724 23.7948C0.548004 23.8291 0.70184 24.2477 0.71142 24.3054C0.773888 24.6717 0.657876 24.366 0.646509 24.5953C0.625738 25.0139 0.588999 25.3048 0.634058 25.7959C0.647404 25.9391 0.743289 26.2826 0.669123 26.5607C0.659411 26.5973 0.608563 26.5771 0.605585 26.6066C0.555947 27.1396 0.715719 27.1536 0.76983 27.4582C0.823929 27.7628 0.713636 28.2334 0.681848 28.3291C0.599615 28.5796 0.646705 28.1372 0.638636 28.1236C0.542601 27.9642 0.559135 28.3074 0.55102 28.5696C0.394362 28.6076 0.403765 28.9743 0.543238 28.8415C0.558472 28.8263 0.543863 28.6223 0.55102 28.5696C0.704723 28.7998 0.724408 29.2028 0.580775 29.6479C0.513456 29.8563 0.434965 29.6593 0.463679 30.2922C0.476641 30.5794 0.584508 30.4685 0.613917 30.7219C0.681015 31.3011 0.580393 32.0536 0.596247 32.6507C0.602003 32.8674 0.661049 32.6563 0.667017 32.8044C0.683041 33.1974 0.638737 33.544 0.661432 33.9387C0.663563 33.9744 0.725372 33.8871 0.72616 34.0098C0.733338 34.9403 0.693749 35.7505 0.692652 36.7221C0.69215 37.1915 0.726239 38.0307 0.719385 38.517C0.707871 39.3598 0.617992 40.3965 0.639826 41.1165C0.653802 41.5861 0.715624 41.4831 0.757745 41.6843C0.839394 42.0726 0.693142 42.7598 0.670496 42.8524C0.669746 42.8552 0.655173 42.4511 0.623438 42.6667C0.557314 42.7921 0.670209 42.8478 0.670496 42.8524C0.655866 42.9131 0.641832 43.7203 0.65365 43.8806C0.660109 43.9677 0.718681 43.919 0.720941 43.9644C0.773358 45.0437 0.788245 46.125 0.760858 47.2197C0.759675 47.239 0.694158 47.2099 0.692194 47.2552C0.663063 47.889 0.743211 48.2948 0.790796 48.8175C0.838359 49.3401 0.822429 49.7546 0.709955 50.0639C0.724116 50.4583 0.674392 51.024 0.64422 51.3496C0.614049 51.6751 0.741583 51.7205 0.744104 51.7492C0.824801 52.6426 0.751803 53.159 0.740442 54.0859C0.734822 54.5266 0.753321 55.4007 0.767267 55.8778C0.778502 56.2549 0.748614 56.4821 0.767725 56.8295C0.770277 56.8765 0.827062 56.829 0.829248 56.8434C0.897187 57.2311 0.758368 57.0448 0.733576 57.1248C0.643416 57.4151 0.595398 57.5944 0.637812 58.091C0.647525 58.2055 0.847405 58.5392 0.859094 58.748C0.873925 59.0194 0.80228 58.917 0.819635 59.2012C0.821054 59.2255 0.865254 59.2205 0.863305 59.3959C0.85484 60.2102 0.829121 61.098 0.833551 61.9442C0.833986 62.0598 0.904094 61.9116 0.905877 62.0786C0.914188 62.8623 0.911593 63.7212 0.878778 64.4847C0.87048 64.6726 0.821393 64.5548 0.806818 64.5956C0.718629 64.846 0.846765 65.2012 0.849206 65.2598C0.856595 65.4275 0.861427 65.5905 0.864306 65.75L0.238525 65.1242C1.40802 65.1031 2.38695 65.1871 3.64072 65.1385C3.71827 65.1353 4.31524 64.9979 4.58157 65.1157C4.5998 65.1235 4.86331 65.2441 5.09629 65.1617C5.11077 65.1565 4.94657 65.0945 5.23311 65.1008C5.51965 65.1071 5.9808 65.0657 6.37467 65.1338C6.49937 65.1553 6.79409 65.2755 7.16605 65.1797C7.19029 65.173 7.76451 64.9563 7.96948 65.1058C8.0027 65.1304 7.96792 65.2887 8.41188 65.2075C8.49669 65.1918 8.34271 65.1565 8.56617 65.1345C8.90855 65.1005 9.36219 65.1429 9.78307 65.0724C9.85647 65.0599 10.1689 64.9525 10.4195 65.034C10.4588 65.0468 10.3842 65.0996 10.5166 65.1055C11.146 65.1339 11.805 65.0986 12.4441 65.1351C12.6704 65.1479 12.5547 65.2333 12.7907 65.2562C13.0267 65.2791 13.5021 65.3011 13.749 65.2621C13.996 65.2231 13.7262 65.0869 14.0962 65.0761C14.1436 65.0747 14.1911 65.0734 14.2385 65.0722L13.5607 65.75C13.5219 64.1898 13.5975 62.6432 13.6088 61.0844C13.6105 60.8462 13.5618 61.0437 13.5609 60.6927C13.5573 59.3984 13.5116 57.1639 13.6151 56.0408C13.698 55.141 13.7611 56.2734 13.7948 55.5858C13.8109 55.254 13.6527 54.895 13.6477 54.8149C13.5971 54.0324 13.6672 53.4886 13.6457 52.7843C13.6412 52.6389 13.5771 52.7815 13.574 52.6578C13.5629 52.235 13.5915 51.7906 13.5863 51.3866C13.5838 51.2054 13.5348 51.2388 13.5386 51.072C13.5471 50.6729 13.5677 50.3201 13.6136 49.931C13.6177 49.8956 13.6787 50.1347 13.6809 49.8394C13.6844 49.3616 13.7297 48.7685 13.683 48.2187C13.6689 48.0556 13.5569 48.0492 13.6343 47.6986C13.6504 47.625 13.7848 47.7188 13.6687 47.3104C13.6494 47.2417 13.4927 46.5556 13.5937 46.2189C13.6203 46.13 13.7303 45.9033 13.713 45.7072C13.7102 45.6806 13.6501 45.7871 13.6442 45.6246C13.6246 45.0517 13.631 44.4513 13.6122 43.8628C13.607 43.7057 13.5448 43.9397 13.5391 43.7055C13.5234 43.0614 13.5392 42.2572 13.5587 41.6273C13.566 41.3951 13.6176 41.5556 13.6232 41.5387C13.7144 41.267 13.5913 41.1063 13.5841 41.0162C13.5411 40.4553 13.5989 40.0282 13.5836 39.5112C13.5796 39.3685 13.5208 39.4697 13.5156 39.4412C13.4644 39.1467 13.5699 39.3661 13.5815 39.1797C13.6144 38.6573 13.6097 38.0751 13.6022 37.5469C13.5994 37.3529 13.5313 37.5709 13.5295 37.3968C13.5178 36.3663 13.5243 35.2949 13.5618 34.2892C13.569 34.0998 13.6215 34.2189 13.6334 34.1795C13.7172 33.9075 13.6029 33.5088 13.592 33.417C13.5423 32.9999 13.5887 32.8379 13.5801 32.4695C13.537 30.6701 13.5677 28.4483 13.5866 26.7497C13.6111 24.5363 13.6609 22.8187 13.648 20.708C13.6472 20.5738 13.5775 20.7091 13.5759 20.5935C13.5591 19.1004 13.5864 17.6306 13.5662 16.1345C13.5647 16.0118 13.4986 16.1887 13.4939 15.9917C13.4838 15.5875 13.4874 15.0755 13.5086 14.6669C13.5187 14.4676 13.5755 14.7349 13.5845 14.5343C13.6058 14.0671 13.6105 13.5664 13.5999 13.0866C13.5953 12.8824 13.5276 13.1904 13.5269 12.925C13.5202 11.117 13.5085 9.34142 13.5961 7.51438C13.6021 7.38913 13.7395 7.27923 13.7132 7.01292C13.675 6.99286 13.6302 6.99395 13.5894 6.98519C13.572 4.90006 13.5983 2.83179 13.6136 0.75L14.2385 1.3749C13.6926 1.37088 13.1457 1.36761 12.5973 1.36608C12.486 1.36579 12.6784 1.43861 12.4629 1.43841C11.216 1.43733 10.0051 1.45751 8.72965 1.38513C8.6031 1.37805 8.66803 1.24994 8.29509 1.26931C8.22931 1.27285 7.66762 1.28993 7.5224 1.31774C7.50267 1.32194 7.60515 1.38173 7.42415 1.38348C6.37233 1.39256 5.27008 1.37891 4.22007 1.34237C4.05061 1.33636 4.23108 1.27268 4.11038 1.26785C3.2542 1.23404 2.32292 1.28245 1.50481 1.22463C0.957186 1.1857 1.15993 1.07563 0.868932 0.96728C0.827774 0.951993 0.488671 0.949571 0.471135 0.886531C0.426115 0.72801 0.590365 0.554432 0.522969 0.385464C0.50873 0.34907 0.054584 0.388269 0.323468 0.300321C0.342252 0.294434 0.67151 0.265245 0.752607 0.23541C0.809069 0.214782 0.707322 0.15067 0.822523 0.124265C0.937713 0.0978846 1.06429 0.151627 1.25528 0.120603C1.44618 0.0891954 1.36224 0.016261 1.74348 0.00762737ZM0.509364 52.8154C0.448117 53.1168 0.672438 53.1613 0.618769 52.8353C0.615908 52.8195 0.512368 52.7998 0.509364 52.8154ZM0.473933 16.344C0.374992 16.7381 0.520475 17.0077 0.596888 16.7297C0.673219 16.4518 0.503926 16.2239 0.473933 16.344ZM0.401698 12.2575C0.323687 12.7181 0.641783 12.7906 0.577479 12.2973C0.573845 12.2686 0.406228 12.2306 0.401698 12.2575ZM2.21843 0.936427C2.21427 0.933448 1.97051 0.930545 1.96468 0.933497C1.83489 1.00474 2.32231 1.0105 2.21843 0.936427ZM0.323054 8.20239C0.280025 8.34617 0.329697 8.76015 0.383204 8.58151C0.426249 8.43769 0.376581 8.02333 0.323054 8.20239ZM3.02835 65.7186C3.03311 65.7219 3.20786 65.7249 3.20435 65.706C3.19248 65.6452 2.94928 65.6623 3.02835 65.7186ZM0.319392 1.31025C0.307419 2.32852 0.0446562 2.94593 0.0743064 1.83703C0.079671 1.63622 0.158099 2.26982 0.181789 2.01423C0.224948 1.54655 0.0599647 1.23601 0.148372 0.75876C0.164554 0.672356 0.320659 1.25217 0.319759 1.31206C0.319636 1.31146 0.319514 1.31085 0.319392 1.31025ZM0.239925 52.989C0.236959 52.995 0.234146 53.2369 0.237087 53.2427C0.308302 53.3737 0.31401 52.8864 0.239925 52.989ZM13.2258 65.8573C13.2392 65.8636 13.8006 65.8695 13.8189 65.8637C14.1118 65.7472 12.9767 65.7349 13.2258 65.8573ZM0.0757713 36.6961C0.00412792 36.4322 -0.00430728 36.1164 0.0856589 35.906C0.0808831 36.1683 0.0801795 36.4324 0.0757713 36.6961Z" fill="black"/>
<path d="M1.35283 31.0076C1.42007 30.9881 1.50822 31.009 1.57521 31.0377C1.5962 31.0466 1.58557 31.0863 1.60006 31.0942C1.62841 31.1097 1.65482 31.0902 1.68283 31.1086C1.69211 31.1149 1.68056 31.1779 1.69029 31.183C1.74363 31.2109 1.79409 31.1948 1.84813 31.2082C2.11428 31.2743 2.37591 31.2979 2.64532 31.3266C2.73416 31.336 2.84214 31.3932 2.9339 31.3682C2.94461 31.3652 2.93822 31.3099 2.94026 31.3054C2.97223 31.2356 2.9616 31.3472 2.98247 31.362C3.0653 31.4206 3.15741 31.4257 3.23712 31.4043C3.27104 31.3951 3.23703 31.2853 3.27118 31.3469C3.27355 31.3511 3.26495 31.4098 3.27425 31.416C3.29534 31.4301 3.33535 31.4196 3.3517 31.4243C3.3832 31.4335 3.38842 31.433 3.41821 31.4336C3.45895 31.435 3.5074 31.4642 3.5511 31.4509C3.56043 31.4479 3.54808 31.3877 3.56296 31.3775C3.57785 31.3673 3.61724 31.3724 3.63053 31.3866C3.64381 31.4008 3.63815 31.448 3.6405 31.4589C3.65985 31.5504 3.70541 31.4237 3.71128 31.4205C3.81818 31.3671 3.90985 31.4393 4.0102 31.4391C4.08637 31.4388 4.16783 31.415 4.24031 31.4182C4.32667 31.4224 4.39986 31.455 4.48375 31.4494C4.49261 31.4488 4.48223 31.3781 4.49305 31.3773C4.60793 31.3691 4.72202 31.3768 4.83641 31.4246C4.84789 31.4294 4.8331 31.4915 4.84456 31.5001C4.91474 31.5511 5.02577 31.6738 5.06745 31.4033C5.11498 31.4139 5.17269 31.4248 5.21521 31.4793C5.24263 31.5144 5.216 31.5821 5.24968 31.5532C5.25728 31.5468 5.2474 31.4875 5.25879 31.4823C5.30676 31.4606 5.35916 31.4799 5.40661 31.4493C5.41626 31.4429 5.41362 31.3898 5.41636 31.3802C5.43934 31.3028 5.4776 31.4308 5.48594 31.4401C5.54945 31.5095 5.59583 31.4822 5.65499 31.4839C5.66872 31.4843 5.65249 31.413 5.6657 31.4108C5.73422 31.4006 5.8052 31.4067 5.87229 31.4384C5.88721 31.4456 5.87349 31.5063 5.88062 31.5129C5.91207 31.5411 5.91904 31.4263 5.94919 31.4511C5.95555 31.4562 5.95197 31.5082 5.95313 31.5139C5.97128 31.6036 5.98705 31.4765 5.99172 31.4737C6.05078 31.4354 6.08852 31.568 6.14558 31.5493C6.1524 31.5469 6.13701 31.4811 6.1562 31.4784C6.28401 31.4602 6.41919 31.4783 6.54571 31.5309C6.56538 31.539 6.55134 31.5885 6.55257 31.5946C6.57275 31.6898 6.5858 31.5622 6.59222 31.5574C6.64282 31.5228 6.69008 31.6298 6.72446 31.4778C6.93876 31.5306 7.15208 31.4452 7.3646 31.5814C7.3673 31.583 7.36246 31.6458 7.36785 31.6487C7.43277 31.684 7.4203 31.5863 7.46325 31.4669C7.47407 31.4369 7.50698 31.5811 7.5099 31.5916C7.52051 31.6306 7.5095 31.7241 7.51306 31.7316C7.54246 31.7909 7.53766 31.4817 7.57733 31.4816C7.57857 31.4821 7.57336 31.539 7.57669 31.5447C7.58703 31.5624 7.59728 31.5398 7.6074 31.5594C7.63056 31.6047 7.63881 31.755 7.67419 31.6675C7.67867 31.6562 7.67183 31.4808 7.70724 31.4891C7.72136 31.4926 7.78384 31.4895 7.80136 31.5009C7.81885 31.5123 7.80684 31.5688 7.80809 31.5712C7.85522 31.646 7.83734 31.6769 7.86096 31.7876C7.88457 31.8978 7.87802 31.6349 7.88764 31.6056C7.89729 31.5763 7.93184 31.638 7.94033 31.6594C7.94882 31.6808 7.93824 31.7167 7.94578 31.7289C7.99582 31.8082 7.96774 31.5984 7.98423 31.5567C8.02311 31.4579 8.05338 31.6528 8.08897 31.6719C8.0986 31.6771 8.09074 31.6327 8.09931 31.6285C8.13327 31.6127 8.1537 31.6735 8.19233 31.6177C8.19865 31.6086 8.22989 31.4914 8.2501 31.5774C8.25297 31.5899 8.24483 31.6384 8.2593 31.6493C8.28092 31.6657 8.31988 31.6763 8.34312 31.66C8.36028 31.648 8.34061 31.568 8.36221 31.5928C8.37181 31.6039 8.35402 31.6508 8.37205 31.6677C8.38999 31.6847 8.43585 31.6826 8.45331 31.681C8.47073 31.6793 8.46119 31.6186 8.4626 31.6145C8.47112 31.5911 8.50455 31.5618 8.5075 31.5619C8.65653 31.5545 8.79395 31.6568 8.93904 31.623C8.95042 31.6204 8.94284 31.5563 8.94458 31.5553C8.98356 31.5285 8.95283 31.6987 8.98005 31.7557C8.97612 31.6258 8.99219 31.6493 9.01965 31.635C9.03288 31.6281 9.02568 31.5777 9.02688 31.5726C9.0465 31.4962 9.06017 31.5949 9.06369 31.6151C9.07668 31.6894 9.09083 31.6016 9.09967 31.6512C9.10851 31.7005 9.08817 31.7736 9.1145 31.7726C9.12188 31.7261 9.10233 31.6046 9.12233 31.5849C9.19776 31.5103 9.33858 31.6057 9.39923 31.6156C9.45976 31.6255 9.47931 31.6169 9.51459 31.6338C9.5783 31.6642 9.55495 31.574 9.59451 31.5327C9.63419 31.4914 9.6149 31.7133 9.6206 31.761C9.6262 31.8087 9.63232 31.7596 9.63928 31.7858C9.64622 31.812 9.6312 31.8445 9.64752 31.8543C9.66386 31.8641 9.70852 31.7793 9.71431 31.7294C9.72655 31.6238 9.70642 31.5128 9.74965 31.5518C9.75213 31.5541 9.74407 31.6125 9.75358 31.6184C9.82919 31.6633 9.90773 31.6661 9.98325 31.7058C9.99363 31.7114 9.98435 31.7763 9.99039 31.7802C10.0533 31.8218 10.0308 31.7123 10.0653 31.5907C10.0576 31.7525 10.0767 31.8515 10.1244 31.8525C10.1531 31.8531 10.1482 31.7824 10.1668 31.7326C10.1723 31.7176 10.1927 31.7661 10.1963 31.7329C10.2085 31.6243 10.1893 31.5027 10.2386 31.5511C10.2407 31.5534 10.2339 31.6129 10.2413 31.6165C10.2896 31.64 10.2954 31.5264 10.3475 31.5126C10.3884 31.5018 10.4611 31.5711 10.5077 31.5824C10.5067 31.7643 10.5507 31.7227 10.5685 31.5972C10.5988 31.6024 10.6314 31.5953 10.6606 31.6126C10.6707 31.6185 10.664 31.6712 10.6653 31.6769C10.6848 31.7661 10.6979 31.6441 10.7044 31.6393C10.7751 31.5928 10.8327 31.6853 10.9001 31.5949C10.9025 31.5917 10.9064 31.4653 10.9245 31.5576C10.9256 31.5639 10.9033 31.6214 10.9351 31.6259C10.9668 31.6303 11.0266 31.6981 11.0707 31.6395C11.0814 31.6254 11.1083 31.5228 11.13 31.603C11.1329 31.6139 11.1297 31.6501 11.1339 31.6703C11.1473 31.7345 11.1547 31.6068 11.1705 31.7153C11.1863 31.8238 11.2192 31.9051 11.2637 31.8302C11.2651 31.828 11.2756 31.7268 11.2896 31.7284C11.3119 31.7311 11.3435 31.7521 11.3668 31.7515C11.378 31.7511 11.3709 31.6883 11.3728 31.6871C11.4478 31.6519 11.5011 31.7079 11.5815 31.7323C11.5962 31.7368 11.6385 31.6511 11.667 31.7189C11.6983 31.7931 11.6662 32.1017 11.7381 32.0282C11.7672 31.9988 11.8039 31.6072 11.8561 31.8101C11.9572 31.7598 12.0507 31.8636 12.1522 31.7919C12.1567 31.7887 12.1712 31.6794 12.1819 31.6809C12.1978 31.6833 12.2065 31.7344 12.2179 31.7378C12.2655 31.7531 12.3091 31.7094 12.3551 31.7162C12.3725 31.7187 12.3664 31.7715 12.3872 31.7745C12.408 31.7774 12.4218 31.7078 12.45 31.7414C12.4713 31.767 12.4925 31.9091 12.5208 31.9257C12.5218 31.7855 12.5412 31.7884 12.5757 31.7514C12.5823 31.7442 12.5752 31.6954 12.5784 31.6895C12.5911 31.6644 12.6029 31.7048 12.615 31.6774C12.618 31.6709 12.6181 31.623 12.6205 31.6149C12.641 31.5444 12.6747 31.6521 12.6805 31.6708C12.7027 31.742 12.7131 31.6798 12.7302 31.7078C12.7472 31.7359 12.7217 31.7709 12.7416 31.7879C12.7828 31.8231 12.8357 31.8154 12.8775 31.8176C12.8942 31.8182 12.8828 31.7543 12.8852 31.7529C12.9197 31.7367 12.9546 31.8046 12.9737 31.6773C12.9977 32.0065 12.9945 31.6454 13.0439 31.7113C13.0477 31.7166 13.0527 31.8723 13.0378 31.8951C13.0229 31.918 13.0002 31.8693 12.9795 31.9049C12.9746 31.9133 12.9466 32.0592 12.9427 32.068C12.9127 32.137 12.9085 31.9044 12.9069 31.8917C12.8889 31.7538 12.8546 31.9109 12.8456 31.9218C12.8042 31.9715 12.7691 31.9388 12.7345 31.9743C12.7119 31.9973 12.7097 32.1496 12.692 32.145C12.633 32.1296 12.6124 31.917 12.5568 32.1013C12.5448 32.1406 12.5567 32.3072 12.514 32.1762C12.5113 32.1679 12.4795 32.0482 12.4612 32.1239C12.4589 32.1335 12.459 32.182 12.456 32.1861C12.4356 32.2125 12.422 32.1738 12.3999 32.1923C12.3777 32.2108 12.3511 32.2384 12.3258 32.222C12.3105 32.2121 12.291 32.1217 12.2836 32.0996C12.263 32.0358 12.2409 32.1404 12.2282 32.0631C12.2153 31.9855 12.2405 31.8676 12.2067 31.8175C12.2055 31.9436 12.2026 32.073 12.2006 32.1998C12.1266 32.1954 12.0538 32.1546 11.9795 32.1602C11.9703 32.161 11.9797 32.2288 11.9699 32.2314C11.9282 32.2422 11.8919 32.1939 11.8487 32.2131C11.8153 32.2283 11.7786 32.3 11.7437 32.3181C11.7223 32.1738 11.6705 32.2228 11.6328 32.2096C11.6196 32.2051 11.6205 32.1665 11.6111 32.154C11.5757 32.1075 11.5923 32.235 11.5826 32.255C11.5409 32.3407 11.5374 32.0521 11.4883 32.0592C11.4857 32.0595 11.4539 32.2133 11.4495 32.2229C11.4217 32.2854 11.4449 32.1693 11.4275 32.158C11.3957 32.1372 11.3736 32.1005 11.3363 32.1455C11.3254 32.1589 11.2993 32.2548 11.2782 32.1806C11.2754 32.1709 11.277 32.12 11.2747 32.1171C11.2343 32.0674 11.2332 32.2272 11.2101 32.2813C11.1869 32.3354 11.1512 32.2251 11.1439 32.1933C11.1249 32.1111 11.1585 32.1582 11.1595 32.1501C11.1716 32.0541 11.1456 32.0706 11.1256 32.0625C11.1228 31.9058 11.0949 31.9152 11.105 32.0547C11.1061 32.0699 11.1216 32.0553 11.1256 32.0625C11.1082 32.2162 11.0776 32.2359 11.0437 32.0922C11.0279 32.0249 11.0429 31.9464 10.9948 31.9752C10.973 31.9881 10.9814 32.096 10.9622 32.1254C10.9182 32.1925 10.861 32.0919 10.8157 32.1077C10.7992 32.1135 10.8153 32.1725 10.804 32.1785C10.7742 32.1945 10.7478 32.1502 10.7179 32.1729C10.7151 32.175 10.7218 32.2368 10.7125 32.2376C10.6418 32.2448 10.5803 32.2052 10.5065 32.2041C10.4708 32.2036 10.4071 32.2377 10.3701 32.2309C10.3061 32.2193 10.2274 32.1295 10.1727 32.1513C10.1371 32.1653 10.1449 32.2271 10.1296 32.2692C10.1001 32.3509 10.0479 32.2046 10.0409 32.182C10.0407 32.1812 10.0714 32.1666 10.055 32.1349C10.0455 32.0688 10.0412 32.1817 10.0409 32.182C10.0363 32.1673 9.97496 32.1533 9.96278 32.1651C9.95617 32.1716 9.95987 32.2302 9.95642 32.2324C9.87444 32.2848 9.79232 32.2997 9.70918 32.2723C9.70772 32.2711 9.70992 32.2056 9.70648 32.2037C9.65835 32.1745 9.62753 32.2547 9.58783 32.3023C9.54814 32.3498 9.51666 32.3339 9.49316 32.2214C9.46321 32.2356 9.42025 32.1859 9.39552 32.1557C9.3708 32.1255 9.36735 32.2531 9.36517 32.2556C9.29732 32.3363 9.25809 32.2633 9.1877 32.2519C9.15423 32.2463 9.08784 32.2648 9.0516 32.2787C9.02297 32.29 9.00571 32.2601 8.97932 32.2792C8.97575 32.2818 8.97936 32.3385 8.97827 32.3407C8.94882 32.4087 8.96297 32.2698 8.95689 32.2451C8.93485 32.1549 8.92123 32.1069 8.88351 32.1493C8.87481 32.159 8.84947 32.3589 8.83362 32.3706C8.813 32.3854 8.82078 32.3138 8.79919 32.3311C8.79734 32.3325 8.79773 32.3767 8.78441 32.3748C8.72256 32.3663 8.65513 32.3406 8.59086 32.345C8.58208 32.3455 8.59334 32.4156 8.58066 32.4174C8.52114 32.4257 8.4559 32.4231 8.39791 32.3903C8.38364 32.382 8.39259 32.3329 8.38949 32.3183C8.37047 32.2301 8.3435 32.3582 8.33905 32.3607C8.23288 32.4223 8.15163 32.3063 8.04342 32.3615C8.03753 32.3647 7.99219 32.5021 7.97196 32.3843C7.97058 32.3765 7.95057 32.2559 7.93287 32.3383C7.93177 32.3435 7.94424 32.4055 7.92248 32.3992C7.90072 32.3929 7.86569 32.4344 7.83578 32.3662C7.82631 32.3447 7.80393 32.2245 7.77568 32.3203C7.77383 32.327 7.73022 32.5437 7.71466 32.3942C7.71213 32.3696 7.71477 32.2113 7.68106 32.2925C7.67461 32.3082 7.68631 32.3435 7.66934 32.3655C7.64333 32.3995 7.60888 32.3571 7.57691 32.4276C7.57134 32.4401 7.54761 32.5475 7.52857 32.466C7.52559 32.4532 7.53126 32.4004 7.5212 32.3945C7.4734 32.3661 7.42335 32.4014 7.37481 32.3649C7.35762 32.352 7.36641 32.2667 7.34849 32.2438C7.33057 32.2209 7.29446 32.1989 7.27571 32.2379C7.25695 32.277 7.27744 32.4131 7.24934 32.4239C7.12718 32.4712 7.00616 32.3914 6.88418 32.3797C6.86609 32.378 6.88109 32.4267 6.85442 32.4276C6.75613 32.4312 6.58642 32.4769 6.50112 32.3734C6.43278 32.2905 6.51878 32.2274 6.46656 32.1937C6.44136 32.1776 6.4141 32.3358 6.40801 32.3408C6.34858 32.3914 6.30728 32.3213 6.25379 32.3428C6.24274 32.3473 6.25358 32.4114 6.24418 32.4145C6.21207 32.4256 6.17832 32.397 6.14764 32.4022C6.13387 32.4047 6.13641 32.4537 6.12374 32.4499C6.09343 32.4415 6.06663 32.4209 6.03709 32.375C6.03439 32.3708 6.05255 32.3098 6.03013 32.3076C5.99384 32.3041 5.94879 32.2588 5.90703 32.3056C5.89465 32.3196 5.89416 32.4316 5.86753 32.3543C5.86194 32.3381 5.86907 32.2037 5.83805 32.3198C5.83283 32.3391 5.78072 32.4958 5.75515 32.3948C5.7484 32.3683 5.73118 32.2582 5.71628 32.2755C5.71426 32.2783 5.72236 32.3384 5.71001 32.3443C5.6665 32.3639 5.62091 32.3575 5.57621 32.3763C5.56427 32.3815 5.58205 32.4437 5.56426 32.4494C5.51534 32.4651 5.45426 32.4493 5.40642 32.4298C5.38879 32.4225 5.40098 32.371 5.39969 32.3654C5.37906 32.2741 5.36685 32.3973 5.36001 32.4044C5.31741 32.4474 5.28497 32.3896 5.2457 32.4049C5.23487 32.409 5.24255 32.4677 5.24039 32.4729C5.21802 32.5241 5.23469 32.4186 5.22052 32.407C5.18086 32.3741 5.13663 32.3788 5.09652 32.3863C5.08178 32.3892 5.09834 32.4572 5.08512 32.459C5.00685 32.4707 4.92548 32.4642 4.84909 32.4267C4.83471 32.4195 4.84376 32.3671 4.84076 32.3551C4.8201 32.2713 4.78982 32.3856 4.78286 32.3965C4.75118 32.4462 4.73887 32.3998 4.7109 32.4085C4.57423 32.4516 4.40548 32.4209 4.27648 32.4019C4.10837 32.3775 3.97792 32.3276 3.81761 32.3405C3.80743 32.3413 3.8177 32.411 3.80892 32.4126C3.69552 32.4294 3.58388 32.4022 3.47026 32.4223C3.46094 32.4238 3.47438 32.4899 3.45941 32.4946C3.42872 32.5047 3.38983 32.5011 3.3588 32.48C3.34366 32.4698 3.36396 32.4131 3.34873 32.404C3.31325 32.3827 3.27521 32.378 3.23877 32.3886C3.22326 32.3933 3.24666 32.4609 3.2265 32.4617C3.08919 32.4684 2.95433 32.48 2.81557 32.3925C2.80605 32.3864 2.79771 32.249 2.77748 32.2754C2.77596 32.3135 2.77604 32.3584 2.77538 32.3991C2.57548 32.4211 2.37762 32.3734 2.17717 32.3661C2.16872 32.3658 2.18332 32.4386 2.16696 32.4384C2.07226 32.4373 1.98029 32.4575 1.88342 32.3851C1.87381 32.378 1.87874 32.2499 1.85042 32.2693C1.84542 32.2728 1.80276 32.2899 1.79173 32.3177C1.79023 32.3219 1.79802 32.3817 1.78427 32.3835C1.70438 32.3926 1.62067 32.3789 1.54092 32.3424C1.52805 32.3364 1.54176 32.2727 1.53259 32.2678C1.46756 32.234 1.39683 32.2825 1.3347 32.2246C1.29311 32.1857 1.30851 32.0756 1.2864 31.9673C1.28328 31.952 1.25752 31.9496 1.25619 31.8865C1.25277 31.728 1.26525 31.5544 1.26013 31.3855C1.25905 31.3491 1.22456 31.3883 1.24498 31.3003C1.2464 31.2944 1.27141 31.2652 1.27757 31.2354C1.28186 31.2148 1.27413 31.1507 1.28288 31.1243C1.29163 31.0979 1.30124 31.1516 1.31575 31.1206C1.33025 31.0892 1.32387 31.0163 1.35283 31.0076ZM9.28419 32.0208C9.2613 31.9596 9.25792 32.1839 9.28268 32.1302C9.28388 32.1274 9.28537 32.0238 9.28419 32.0208ZM12.0542 31.9854C12.0242 31.8865 12.0038 32.0319 12.0249 32.1084C12.046 32.1847 12.0633 32.0154 12.0542 31.9854ZM12.3645 31.9132C12.3296 31.8352 12.324 32.1533 12.3615 32.089C12.3637 32.0853 12.3666 31.9177 12.3645 31.9132ZM1.3889 31.9364C1.38858 31.9334 1.37007 31.9305 1.36963 31.9335C1.35977 32.0047 1.39679 32.0105 1.3889 31.9364ZM12.6725 31.8345C12.6616 31.7915 12.6302 31.8412 12.6437 31.8947C12.6547 31.9377 12.6861 31.8881 12.6725 31.8345ZM8.08993 31.7814C8.08957 31.7781 8.0763 31.7751 8.07656 31.794C8.07746 31.8548 8.09594 31.8377 8.08993 31.7814ZM13.196 31.8309C13.1186 31.8189 13.0717 31.5561 13.156 31.5858C13.1712 31.5911 13.1231 31.6696 13.1425 31.6933C13.178 31.7364 13.2016 31.5714 13.2379 31.6598C13.2444 31.676 13.2004 31.8321 13.1958 31.8312C13.1959 31.8311 13.1959 31.831 13.196 31.8309ZM9.27101 31.7514C9.27055 31.7484 9.25218 31.7456 9.25174 31.7486C9.24179 31.8198 9.2788 31.8255 9.27101 31.7514ZM7.31544 31.6427C7.31443 31.6364 7.27179 31.6305 7.2704 31.6363C7.24815 31.7528 7.33436 31.7651 7.31544 31.6427ZM10.5084 31.5872C10.5285 31.5156 10.5525 31.5072 10.5685 31.5971C10.5485 31.5924 10.5285 31.5917 10.5084 31.5872ZM7.9809 2.35484C8.00044 2.71068 7.97955 3.17712 7.95087 3.53161C7.94198 3.64271 7.90222 3.58645 7.89429 3.66315C7.87883 3.81314 7.89833 3.95288 7.87992 4.1011C7.87362 4.15023 7.81064 4.08908 7.80548 4.14059C7.77765 4.42285 7.79369 4.68988 7.78031 4.97581C7.71426 6.38423 7.69062 7.76866 7.66193 9.19431C7.65252 9.66438 7.59537 10.2358 7.62036 10.7214C7.62334 10.778 7.67861 10.7442 7.68317 10.755C7.75291 10.9242 7.64132 10.8679 7.6265 10.9784C7.56796 11.4167 7.56287 11.9041 7.5842 12.3259C7.59344 12.5054 7.70323 12.3254 7.6416 12.5061C7.63744 12.5187 7.57874 12.4731 7.57248 12.5224C7.5584 12.634 7.56889 12.8457 7.56424 12.9322C7.55498 13.0989 7.55557 13.1265 7.5549 13.2842C7.55348 13.4997 7.5243 13.7561 7.5376 13.9874C7.54061 14.0368 7.60079 13.9714 7.61103 14.0501C7.62125 14.1289 7.61615 14.3374 7.60196 14.4077C7.58777 14.478 7.54048 14.448 7.52964 14.4605C7.43814 14.5628 7.56486 14.804 7.568 14.835C7.6214 15.4007 7.54921 15.8858 7.54941 16.4168C7.54972 16.8199 7.57355 17.2509 7.57029 17.6345C7.56616 18.0914 7.53355 18.4787 7.53916 18.9227C7.53968 18.9695 7.61043 18.9146 7.61121 18.9718C7.61944 19.5798 7.61173 20.1835 7.56397 20.7888C7.55912 20.8495 7.497 20.7713 7.48844 20.8319C7.43739 21.2033 7.31476 21.7908 7.58521 22.0114C7.57465 22.2629 7.56374 22.5683 7.50922 22.7933C7.47413 22.9384 7.40646 22.7975 7.43534 22.9757C7.44177 23.0159 7.50103 22.9636 7.5062 23.0239C7.52789 23.2777 7.50863 23.555 7.53925 23.8061C7.54562 23.8572 7.59872 23.8432 7.60828 23.8577C7.68572 23.9793 7.55771 24.1817 7.5484 24.2259C7.47904 24.562 7.50634 24.8074 7.50464 25.1205C7.50422 25.1931 7.57555 25.1072 7.5777 25.1771C7.58792 25.5397 7.58179 25.9153 7.55014 26.2703C7.54293 26.3493 7.48217 26.2767 7.47562 26.3144C7.44746 26.4808 7.56221 26.5177 7.53742 26.6773C7.53234 26.7109 7.48033 26.692 7.47461 26.6981C7.38494 26.7942 7.512 26.8776 7.5148 26.9023C7.55313 27.2148 7.42049 27.4146 7.43927 27.7165C7.44165 27.7526 7.50747 27.6711 7.51014 27.7727C7.5283 28.449 7.51022 29.1644 7.45758 29.8338C7.44949 29.9379 7.40005 29.8636 7.39396 29.8702C7.29873 29.9769 7.42632 30.046 7.43113 30.0799C7.46571 30.3477 7.35871 30.5978 7.51068 30.7798C7.45795 31.9138 7.54329 33.0425 7.40714 34.1672C7.40556 34.1815 7.34272 34.1558 7.33985 34.1844C7.30456 34.5279 7.40223 34.4619 7.52167 34.6892C7.55166 34.7464 7.40746 34.9206 7.39688 34.936C7.35793 34.9922 7.26445 34.9339 7.2569 34.9527C7.19766 35.1083 7.50683 35.0829 7.50693 35.2928C7.50642 35.2994 7.44951 35.2718 7.44385 35.2894C7.42609 35.3442 7.4487 35.3984 7.42911 35.452C7.38378 35.5745 7.23356 35.6182 7.32099 35.8054C7.33234 35.8291 7.50771 35.7929 7.49942 35.9803C7.49597 36.055 7.49898 36.3856 7.48761 36.4783C7.47626 36.5709 7.41975 36.5073 7.4173 36.5139C7.34257 36.7633 7.3116 36.6687 7.20096 36.7937C7.09074 36.9186 7.35363 36.884 7.38297 36.9349C7.41223 36.9859 7.35057 37.1688 7.32914 37.2137C7.30769 37.2586 7.27178 37.2026 7.25965 37.2426C7.18037 37.5074 7.39013 37.3588 7.43186 37.446C7.53065 37.6517 7.3357 37.812 7.31659 38.0003C7.31143 38.0512 7.35584 38.0097 7.35999 38.055C7.37585 38.2347 7.31502 38.3428 7.37079 38.5472C7.37988 38.5807 7.49709 38.7459 7.41108 38.8529C7.39867 38.8681 7.35009 38.825 7.33921 38.9016C7.32288 39.016 7.31226 39.2222 7.3285 39.3451C7.34051 39.436 7.42056 39.3319 7.39569 39.4462C7.38459 39.4969 7.33776 39.4028 7.32081 39.4982C7.30386 39.5932 7.30591 39.8358 7.30753 39.9282C7.30918 40.0204 7.36991 39.9699 7.374 39.9774C7.39743 40.0225 7.42671 40.1994 7.42664 40.215C7.43405 41.0036 7.3317 41.7308 7.36557 42.4986C7.36814 42.5588 7.43218 42.5187 7.43323 42.5279C7.46006 42.7341 7.28981 42.5715 7.23282 42.7156C7.36277 42.6948 7.33924 42.7798 7.35349 42.9251C7.36046 42.9951 7.41078 42.957 7.41593 42.9634C7.49235 43.0672 7.39364 43.1395 7.37345 43.1582C7.29917 43.2269 7.38693 43.3018 7.33728 43.3485C7.28801 43.3953 7.21495 43.2877 7.21589 43.427C7.2624 43.4661 7.38396 43.3627 7.40366 43.4685C7.47818 43.8676 7.38281 44.6128 7.3729 44.9337C7.363 45.254 7.37158 45.3575 7.35477 45.5442C7.32438 45.8813 7.41456 45.7577 7.45584 45.9671C7.49712 46.1771 7.27522 46.075 7.22751 46.1052C7.17983 46.1348 7.22891 46.1671 7.2027 46.204C7.1765 46.2407 7.14406 46.1612 7.13422 46.2476C7.12439 46.334 7.20922 46.5704 7.2591 46.601C7.36477 46.6658 7.47568 46.5593 7.43671 46.788C7.4344 46.8012 7.37605 46.7585 7.37015 46.8089C7.32523 47.2089 7.32245 47.6246 7.28272 48.0241C7.27716 48.0791 7.21225 48.03 7.20829 48.0619C7.16677 48.395 7.27622 48.2759 7.3978 48.4585C7.236 48.4175 7.13701 48.5184 7.13605 48.7712C7.13542 48.9231 7.20609 48.897 7.25589 48.9953C7.27091 49.0247 7.22239 49.1323 7.25562 49.1517C7.36426 49.216 7.48587 49.1147 7.43744 49.3753C7.43514 49.3868 7.37568 49.3504 7.37207 49.3899C7.3485 49.6452 7.46213 49.6758 7.47589 49.9518C7.48669 50.1682 7.4174 50.553 7.40613 50.7994C7.22422 50.7942 7.26588 51.0269 7.3913 51.1213C7.38617 51.2812 7.39326 51.4539 7.37592 51.6085C7.37001 51.6617 7.31734 51.6267 7.31165 51.6334C7.22238 51.7363 7.3444 51.8058 7.34919 51.8403C7.39569 52.2144 7.3032 52.5191 7.39359 52.8761C7.39684 52.8887 7.52321 52.9093 7.43094 53.0047C7.42458 53.0109 7.36709 52.893 7.36264 53.0609C7.35819 53.2289 7.29045 53.5455 7.349 53.7786C7.3631 53.8351 7.46568 53.9778 7.38553 54.0923C7.37465 54.1076 7.33841 54.0909 7.31824 54.1129C7.25398 54.1841 7.3817 54.223 7.2732 54.3067C7.1647 54.3904 7.08344 54.5645 7.1583 54.7997C7.16048 54.8071 7.26171 54.8628 7.26011 54.9368C7.25746 55.0548 7.23638 55.2224 7.23703 55.3457C7.23739 55.4047 7.30025 55.3669 7.3014 55.3772C7.33662 55.774 7.28058 56.0564 7.25626 56.4815C7.25168 56.5594 7.3374 56.7834 7.26963 56.9342C7.19544 57.0999 6.88684 56.9297 6.96036 57.3104C6.98977 57.464 7.38129 57.6584 7.17844 57.9344C7.2287 58.4697 7.12489 58.9647 7.19666 59.5014C7.19984 59.5255 7.30911 59.6019 7.30762 59.6586C7.3052 59.7429 7.25413 59.7891 7.25077 59.8493C7.23538 60.1013 7.27908 60.332 7.27228 60.575C7.26981 60.6673 7.21701 60.635 7.21405 60.745C7.21115 60.855 7.28069 60.9284 7.24711 61.0774C7.22151 61.19 7.07938 61.3025 7.06281 61.4519C7.20301 61.4576 7.20012 61.5602 7.23713 61.7426C7.24431 61.7776 7.2931 61.74 7.29902 61.7566C7.32416 61.8241 7.28372 61.8866 7.3111 61.9506C7.31768 61.9662 7.36555 61.967 7.37363 61.9797C7.44414 62.0881 7.33644 62.2666 7.31769 62.2973C7.24648 62.4148 7.30875 62.4697 7.2807 62.5599C7.25267 62.6499 7.21761 62.5153 7.2006 62.6204C7.1654 62.8383 7.17313 63.1183 7.17093 63.3396C7.17035 63.4279 7.23426 63.3677 7.23566 63.3803C7.25187 63.5629 7.18389 63.7475 7.31119 63.8488C6.98203 63.9754 7.34312 63.9589 7.27723 64.2199C7.2719 64.2405 7.11624 64.2666 7.09339 64.1877C7.07056 64.1088 7.11921 63.9891 7.08359 63.8796C7.07523 63.8536 6.92937 63.7051 6.92054 63.6848C6.85149 63.526 7.08409 63.5035 7.09687 63.4951C7.23474 63.3999 7.0776 63.2183 7.06675 63.1705C7.017 62.9518 7.04971 62.766 7.0142 62.5831C6.99124 62.4635 6.83888 62.4518 6.84354 62.3578C6.85896 62.0456 7.07151 61.9366 6.88721 61.6423C6.84791 61.5792 6.68137 61.6419 6.81232 61.4158C6.82058 61.4016 6.94037 61.2337 6.8646 61.1367C6.85505 61.1246 6.80651 61.125 6.80243 61.1089C6.77606 61.0012 6.81473 60.9294 6.79621 60.8121C6.77769 60.6949 6.75009 60.5539 6.76655 60.42C6.77639 60.3393 6.86681 60.2357 6.88895 60.1971C6.95273 60.088 6.84816 59.9711 6.92539 59.9035C7.00301 59.8354 7.12088 59.9686 7.17103 59.7899C7.04493 59.7833 6.91551 59.7681 6.7887 59.7575C6.79314 59.3659 6.83391 58.9806 6.82834 58.5877C6.82753 58.539 6.75974 58.5888 6.75712 58.5366C6.74635 58.3163 6.79467 58.1239 6.77543 57.8954C6.76027 57.7186 6.6885 57.5246 6.67042 57.3397C6.8147 57.2268 6.76572 56.9524 6.77891 56.753C6.78346 56.6832 6.822 56.6879 6.83457 56.6382C6.88107 56.4509 6.75356 56.5387 6.7335 56.4873C6.64786 56.2669 6.93646 56.2481 6.92933 55.9883C6.92905 55.9745 6.77521 55.8063 6.76563 55.7831C6.70316 55.6359 6.81918 55.7588 6.83054 55.6666C6.85131 55.4984 6.88805 55.3815 6.84299 55.1841C6.82965 55.1265 6.73376 54.9885 6.80793 54.8767C6.81764 54.862 6.86849 54.8701 6.87147 54.8583C6.9211 54.6441 6.76133 54.6384 6.70722 54.516C6.65312 54.3936 6.76341 54.2045 6.7952 54.166C6.87744 54.0653 6.83035 54.2431 6.83842 54.2486C6.93445 54.3126 6.91792 54.1747 6.92603 54.0693C7.08269 54.0541 7.07329 53.9067 6.93381 53.9601C6.91858 53.9662 6.93319 54.0482 6.92603 54.0693C6.77233 53.9768 6.75264 53.8149 6.89628 53.636C6.96359 53.5522 7.04209 53.6314 7.01337 53.377C7.00041 53.2616 6.89254 53.3062 6.86313 53.2043C6.79604 52.9716 6.89666 52.6691 6.8808 52.4292C6.87505 52.3421 6.816 52.4269 6.81003 52.3674C6.79401 52.2094 6.83831 52.0701 6.81562 51.9115C6.81349 51.8971 6.75168 51.9323 6.75089 51.8829C6.74371 51.509 6.7833 51.1833 6.7844 50.7929C6.7849 50.6042 6.75081 50.2669 6.75767 50.0715C6.76918 49.7328 6.85906 49.3161 6.83722 49.0267C6.82325 48.838 6.76143 48.8794 6.71931 48.7986C6.63766 48.6425 6.78391 48.3663 6.80655 48.3291C6.8073 48.328 6.82188 48.4904 6.85361 48.4037C6.91974 48.3533 6.80684 48.3309 6.80655 48.3291C6.82118 48.3047 6.83522 47.9803 6.8234 47.9159C6.81694 47.8809 6.75837 47.9004 6.75611 47.8822C6.70369 47.4484 6.68881 47.0138 6.71619 46.5739C6.71738 46.5661 6.78289 46.5778 6.78486 46.5596C6.81399 46.3049 6.73384 46.1418 6.68625 45.9317C6.63869 45.7217 6.65462 45.5551 6.7671 45.4308C6.75293 45.2723 6.80266 45.0449 6.83283 44.9141C6.863 44.7833 6.73547 44.765 6.73295 44.7535C6.65225 44.3944 6.72525 44.1869 6.73661 43.8144C6.74223 43.6373 6.72373 43.286 6.70978 43.0942C6.69855 42.9427 6.72844 42.8514 6.70933 42.7117C6.70677 42.6928 6.64999 42.7119 6.6478 42.7061C6.57986 42.5503 6.71868 42.6252 6.74348 42.593C6.83363 42.4764 6.88165 42.4043 6.83924 42.2047C6.82953 42.1587 6.62965 42.0246 6.61796 41.9407C6.60313 41.8316 6.67477 41.8728 6.65742 41.7585C6.656 41.7487 6.6118 41.7508 6.61375 41.6803C6.62221 41.353 6.64793 40.9962 6.6435 40.6561C6.64306 40.6097 6.57296 40.6692 6.57117 40.6021C6.56286 40.2872 6.56546 39.9419 6.59827 39.6351C6.60657 39.5596 6.65566 39.6069 6.67023 39.5905C6.75842 39.4899 6.63029 39.3471 6.62784 39.3236C6.56627 38.7618 6.68223 38.3318 6.62702 37.7592C6.62378 37.7281 6.48641 37.4882 6.60422 37.3811C6.61206 37.3738 6.73259 37.2679 6.65018 37.1743C6.64503 37.1684 6.58298 37.2344 6.5893 37.1193C6.59561 37.0041 6.55417 36.8188 6.62235 36.6605C6.64383 36.6104 6.76406 36.4919 6.66822 36.3424C6.66153 36.3327 6.44482 36.1019 6.59434 36.0195C6.61895 36.0062 6.77718 36.0201 6.69605 35.8417C6.68032 35.8076 6.64503 35.8695 6.62299 35.7797C6.58903 35.6421 6.63141 35.4598 6.56092 35.2906C6.54844 35.2611 6.44105 35.1356 6.52256 35.0348C6.53533 35.0191 6.58815 35.049 6.59406 34.9958C6.62242 34.7429 6.58708 34.478 6.62363 34.2212C6.63648 34.1302 6.72187 34.1767 6.74476 34.0819C6.76763 33.987 6.78964 33.796 6.75062 33.6967C6.71158 33.5975 6.57547 33.7059 6.56458 33.5572C6.51728 32.9108 6.59712 32.2704 6.6088 31.6249C6.61055 31.5292 6.56184 31.6085 6.56092 31.4675C6.5573 30.9473 6.51163 30.0493 6.61512 29.5979C6.698 29.2363 6.76111 29.6914 6.79484 29.415C6.81093 29.2817 6.65269 29.1374 6.64771 29.1052C6.59711 28.7907 6.6672 28.5722 6.6457 28.2891C6.64123 28.2307 6.5771 28.288 6.57401 28.2382C6.56289 28.0683 6.59152 27.8897 6.58628 27.7274C6.58378 27.6545 6.5348 27.6679 6.53858 27.6009C6.54706 27.4405 6.56765 27.2987 6.61356 27.1424C6.61775 27.1281 6.67868 27.2242 6.68094 27.1056C6.68444 26.9135 6.72973 26.6751 6.68296 26.4542C6.66889 26.3886 6.55694 26.3861 6.63425 26.2451C6.6504 26.2156 6.78483 26.2533 6.66868 26.0891C6.64938 26.0615 6.49271 25.7858 6.5937 25.6505C6.62027 25.6148 6.73028 25.5236 6.71299 25.4448C6.71023 25.4341 6.6501 25.4769 6.64423 25.4116C6.62461 25.1814 6.63102 24.9401 6.61219 24.7036C6.60704 24.6404 6.54482 24.7345 6.53913 24.6403C6.5234 24.3815 6.53925 24.0583 6.55872 23.8051C6.56602 23.7118 6.61757 23.7763 6.62318 23.7695C6.71441 23.6603 6.59126 23.5957 6.58408 23.5595C6.54108 23.3341 6.59893 23.1624 6.58362 22.9546C6.57956 22.8973 6.52084 22.938 6.5156 22.9265C6.46444 22.8082 6.5699 22.8963 6.58152 22.8214C6.61443 22.6115 6.60971 22.3775 6.60221 22.1652C6.59937 22.0872 6.53128 22.1749 6.52952 22.1049C6.51778 21.6907 6.5243 21.2601 6.56184 20.8559C6.56903 20.7798 6.62145 20.8277 6.63343 20.8118C6.71721 20.7025 6.60293 20.5423 6.59205 20.5054C6.54234 20.3378 6.58871 20.2727 6.58005 20.1246C6.53697 19.4014 6.56768 18.5085 6.58665 17.8258C6.61106 16.9363 6.66094 16.246 6.64799 15.3977C6.64723 15.3438 6.57748 15.3981 6.57593 15.3517C6.55912 14.7516 6.58637 14.1609 6.56623 13.5596C6.5647 13.5103 6.49858 13.5814 6.4939 13.5022C6.48385 13.3398 6.48744 13.134 6.50855 12.9698C6.51872 12.8897 6.57546 12.9971 6.58454 12.9165C6.60581 12.7287 6.61052 12.5275 6.59992 12.3346C6.59527 12.2526 6.52764 12.3764 6.52686 12.2697C6.52015 11.5431 6.50851 10.8295 6.59608 10.0952C6.60209 10.0448 6.73953 10.0007 6.71317 9.89364C6.67503 9.88558 6.63016 9.88602 6.58939 9.8825C6.56743 8.82472 6.61508 7.77774 6.62244 6.71699C6.62274 6.67226 6.54992 6.74956 6.55012 6.66297C6.55119 6.16183 6.53102 5.67518 6.6034 5.16257C6.61048 5.11171 6.73859 5.13781 6.71921 4.98792C6.71568 4.96149 6.69859 4.73574 6.67078 4.67738C6.66659 4.66945 6.60679 4.71064 6.60505 4.63789C6.59597 4.21517 6.60962 3.77217 6.64615 3.35018C6.65217 3.28207 6.71584 3.3546 6.72068 3.30609C6.75448 2.962 6.70607 2.58772 6.76389 2.25892C6.80282 2.03883 6.9129 2.12031 7.02125 2.00336C7.03653 1.98682 7.03895 1.85053 7.10199 1.84349C7.26051 1.82539 7.43409 1.8914 7.60306 1.86432C7.63946 1.85859 7.60026 1.67607 7.6882 1.78414C7.69409 1.79169 7.72328 1.92402 7.75312 1.95661C7.77374 1.9793 7.83785 1.93841 7.86426 1.98471C7.89064 2.031 7.8369 2.08187 7.86792 2.15863C7.89933 2.23535 7.97226 2.20162 7.9809 2.35484ZM6.96769 44.325C7.02893 44.2038 6.80461 44.186 6.85828 44.317C6.86114 44.3233 6.96468 44.3312 6.96769 44.325ZM7.00312 58.9828C7.10206 58.8244 6.95658 58.716 6.88016 58.8278C6.80383 58.9395 6.97312 59.0311 7.00312 58.9828ZM7.07535 60.6251C7.15336 60.44 6.83527 60.4109 6.89957 60.6092C6.90321 60.6207 7.07082 60.636 7.07535 60.6251ZM7.0521 2.54572C7.05508 2.54405 7.05798 2.44608 7.05503 2.44374C6.98378 2.39158 6.97803 2.58747 7.0521 2.54572ZM7.154 62.2549C7.19703 62.1971 7.14735 62.0307 7.09385 62.1025C7.0508 62.1603 7.10047 62.3269 7.154 62.2549ZM7.2071 38.0054C7.21044 38.0034 7.21345 37.9332 7.19455 37.9346C7.1337 37.9394 7.15087 38.0371 7.2071 38.0054ZM7.15766 65.0248C7.16963 64.6156 7.43239 64.3675 7.40274 64.8131C7.39738 64.8938 7.31895 64.6392 7.29526 64.7419C7.2521 64.9299 7.41709 65.0547 7.32868 65.2465C7.3125 65.2812 7.15639 65.0482 7.15729 65.0241C7.15741 65.0244 7.15754 65.0246 7.15766 65.0248ZM7.23713 44.2552C7.24009 44.2528 7.2429 44.1556 7.23996 44.1532C7.16875 44.1006 7.16304 44.2965 7.23713 44.2552ZM7.3458 33.907C7.35212 33.9016 7.35803 33.676 7.35221 33.6686C7.23575 33.5509 7.22345 34.0071 7.3458 33.907ZM7.40128 50.8033C7.47292 50.9094 7.48136 51.0363 7.39139 51.1209C7.39617 51.0154 7.39687 50.9093 7.40128 50.8033Z" fill="black"/>
</svg>
