<svg width="432" height="34" viewBox="0 0 432 34" fill="none" xmlns="http://www.w3.org/2000/svg">
<path id="Vector 3" d="M427.885 1.98987C425.464 2.01592 422.291 1.98806 419.879 1.94983C419.124 1.93797 419.506 1.88496 418.985 1.87439C417.964 1.85378 417.013 1.87978 416.005 1.85522C415.671 1.84683 416.087 1.76286 415.736 1.75598C413.816 1.71887 412 1.74026 410.054 1.72241C400.473 1.63435 391.054 1.60283 381.355 1.56457C378.157 1.55203 374.27 1.47583 370.967 1.50915C370.581 1.51312 370.811 1.58682 370.737 1.59289C369.587 1.68588 369.969 1.5371 369.218 1.51733C366.236 1.43928 362.92 1.43249 360.051 1.46093C358.83 1.47325 360.054 1.61964 358.824 1.53747C358.739 1.53192 359.049 1.45365 358.714 1.44531C357.955 1.42653 356.514 1.44052 355.926 1.43432C354.792 1.42197 354.604 1.42276 353.531 1.42187C352.065 1.41997 350.321 1.38106 348.747 1.3988C348.411 1.40282 348.856 1.48305 348.32 1.4967C347.784 1.51033 346.366 1.50353 345.888 1.48461C345.41 1.46569 345.613 1.40263 345.529 1.38818C344.832 1.26618 343.192 1.43515 342.981 1.43932C339.133 1.51052 335.832 1.41427 332.22 1.41454C329.477 1.41496 326.545 1.44673 323.936 1.44237C320.827 1.43687 318.192 1.3934 315.172 1.40087C314.853 1.40157 315.227 1.4959 314.837 1.49694C310.701 1.50792 306.594 1.49763 302.476 1.43395C302.063 1.42748 302.595 1.34466 302.183 1.33324C299.656 1.26518 295.659 1.10167 294.159 1.46227C292.448 1.44819 290.37 1.43364 288.839 1.36095C287.852 1.31417 288.811 1.22394 287.598 1.26244C287.325 1.27102 287.68 1.35003 287.27 1.35692C285.544 1.38585 283.657 1.36016 281.949 1.40099C281.602 1.40948 281.697 1.48028 281.598 1.49303C280.771 1.59628 279.393 1.4256 279.093 1.4132C276.807 1.32071 275.137 1.3571 273.007 1.35485C272.513 1.35428 273.097 1.44938 272.622 1.45226C270.155 1.46589 267.6 1.45771 265.184 1.41551C264.647 1.4059 265.141 1.32489 264.885 1.31615C263.753 1.2786 263.502 1.43161 262.416 1.39855C262.187 1.39177 262.316 1.32242 262.274 1.31481C261.621 1.19525 261.053 1.36466 260.885 1.3684C258.759 1.4195 257.4 1.24264 255.346 1.26769C255.1 1.27086 255.655 1.35861 254.964 1.36217C250.363 1.38639 245.496 1.36229 240.941 1.2921C240.233 1.28131 240.739 1.21539 240.694 1.20726C239.968 1.08029 239.498 1.25041 239.267 1.25682C237.445 1.30294 235.744 1.16027 234.506 1.3629C226.792 1.29258 219.112 1.40637 211.461 1.22484C211.364 1.22273 211.538 1.13895 211.344 1.13512C209.007 1.08807 209.456 1.21829 207.91 1.37755C207.52 1.41754 206.335 1.22526 206.231 1.21116C205.849 1.15923 206.245 1.03458 206.117 1.02452C205.058 0.945536 205.231 1.35776 203.803 1.35789C203.759 1.3572 203.946 1.28133 203.826 1.27379C203.454 1.2501 203.085 1.28025 202.72 1.25413C201.887 1.1937 201.59 0.993392 200.316 1.10997C200.155 1.1251 200.401 1.35893 199.126 1.34788C198.618 1.34328 196.369 1.34729 195.738 1.33213C195.108 1.317 195.541 1.24165 195.496 1.23838C193.799 1.13875 194.443 1.09745 193.592 0.949933C192.743 0.802974 192.978 1.15349 192.632 1.19261C192.285 1.23162 191.041 1.14941 190.735 1.12083C190.429 1.09224 190.81 1.04436 190.539 1.02818C188.737 0.922471 189.748 1.20216 189.155 1.25779C187.755 1.38952 186.665 1.12958 185.384 1.10411C185.037 1.09723 185.32 1.15643 185.012 1.16197C183.789 1.18311 183.054 1.102 181.663 1.17637C181.435 1.18849 180.311 1.34477 179.583 1.23008C179.48 1.21354 179.773 1.14877 179.252 1.13426C178.474 1.11248 177.071 1.09832 176.235 1.11998C175.617 1.136 176.325 1.24273 175.547 1.20957C175.202 1.19477 175.842 1.13233 175.193 1.10972C174.547 1.08712 172.896 1.08987 172.268 1.09202C171.641 1.09422 171.984 1.17519 171.933 1.18064C171.627 1.21189 170.423 1.25093 170.317 1.25083C164.952 1.26072 160.005 1.12424 154.782 1.16941C154.372 1.17284 154.645 1.25822 154.582 1.25962C153.179 1.29539 154.285 1.06839 153.305 0.99241C153.447 1.16567 152.868 1.1343 151.879 1.1533C151.403 1.1626 151.663 1.22968 151.619 1.23655C150.913 1.33845 150.421 1.20683 150.294 1.17991C149.826 1.08087 149.317 1.19789 148.999 1.13169C148.681 1.06599 149.413 0.968579 148.465 0.969827C148.199 1.03185 148.903 1.19392 148.183 1.22019C145.467 1.31955 140.398 1.19239 138.215 1.17918C136.035 1.16598 135.332 1.17742 134.062 1.15501C131.768 1.11448 132.609 1.23473 131.184 1.28977C129.756 1.34481 130.45 1.04893 130.245 0.985328C130.044 0.921752 129.824 0.987197 129.573 0.952247C129.323 0.917306 129.864 0.874059 129.276 0.860939C128.688 0.847831 127.08 0.960936 126.872 1.02744C126.431 1.16834 127.156 1.31622 125.6 1.26426C125.51 1.26117 125.8 1.18338 125.458 1.17551C122.736 1.11562 119.908 1.11191 117.19 1.05894C116.816 1.05153 117.15 0.964981 116.933 0.959692C114.667 0.904334 115.477 1.05027 114.235 1.21238C114.514 0.996641 113.827 0.864653 112.108 0.863379C111.074 0.862537 111.252 0.95676 110.583 1.02317C110.383 1.04319 109.651 0.97849 109.519 1.0228C109.082 1.16765 109.771 1.3298 107.998 1.26523C107.92 1.26216 108.168 1.18288 107.899 1.17807C106.161 1.14664 105.954 1.29815 104.076 1.3165C102.604 1.3309 99.9857 1.23851 98.3095 1.22348C98.3447 0.980934 96.7616 1.03647 96.1193 1.20371C95.0316 1.19686 93.8567 1.20632 92.8053 1.1832C92.4435 1.17532 92.6812 1.10509 92.6356 1.09751C91.9359 0.978477 91.463 1.14118 91.2282 1.14756C88.6835 1.20956 86.6102 1.08625 84.1816 1.20676C84.0954 1.2111 83.9557 1.37958 83.3065 1.25656C83.2645 1.24808 84.0667 1.17143 82.9242 1.1655C81.7816 1.15956 79.6276 1.06924 78.0413 1.14731C77.6575 1.16611 76.6865 1.30288 75.9072 1.19602C75.8034 1.1815 75.917 1.13318 75.7671 1.10629C75.2826 1.02062 75.0182 1.19091 74.4488 1.04624C73.8793 0.901569 72.695 0.793224 71.0952 0.893038C71.0443 0.89594 70.6655 1.03091 70.1624 1.02878C69.3594 1.02526 68.2193 0.997139 67.3807 0.998018C66.9792 0.998487 67.2361 1.0823 67.1665 1.08383C64.4669 1.1308 62.5454 1.05608 59.6535 1.02365C59.1233 1.01754 57.5998 1.13183 56.5734 1.04147C55.4465 0.942559 56.6045 0.531092 54.0142 0.629121C52.9694 0.668331 51.6466 1.19035 49.769 0.919892C46.1276 0.986909 42.76 0.848489 39.1084 0.944183C38.9442 0.948422 38.4249 1.09411 38.0389 1.09213C37.4658 1.08891 37.1512 1.02081 36.742 1.01633C35.0273 0.995815 33.458 1.05407 31.8047 1.04501C31.177 1.04172 31.3965 0.971311 30.6479 0.967375C29.8996 0.963506 29.4007 1.05622 28.3869 1.01144C27.6211 0.977311 26.8555 0.787804 25.8391 0.765715C25.8004 0.952642 25.1024 0.948792 23.8616 0.998136C23.6231 1.00771 23.8789 1.07277 23.766 1.08066C23.3069 1.11419 22.8819 1.06027 22.446 1.09677C22.34 1.10554 22.3349 1.16937 22.2482 1.18014C21.511 1.27415 20.2964 1.13056 20.0878 1.10556C19.2882 1.01061 18.9147 1.09363 18.3014 1.05624C17.6892 1.01885 18.6046 0.972118 17.8894 0.94943C16.4069 0.902503 14.5022 0.912812 12.9967 0.909879C12.396 0.909102 12.8057 0.994315 12.7198 0.996182C11.4775 1.01779 10.2215 0.927153 9.53261 1.09689C8.67138 0.658013 8.78362 1.13946 7.00796 1.0516C6.86809 1.0445 6.6902 0.836954 7.22713 0.806485C7.76416 0.776045 8.57834 0.840919 9.32332 0.793424C9.49984 0.782278 10.5104 0.587798 10.6483 0.576017C11.7284 0.483947 11.8815 0.79409 11.9386 0.811124C12.5868 0.994955 13.8216 0.78544 14.1469 0.770963C15.6347 0.704628 16.8987 0.748245 18.1432 0.700895C18.9571 0.670293 19.0367 0.467138 19.6758 0.473357C21.8002 0.493911 22.5419 0.777313 24.5438 0.531585C24.9731 0.479176 24.5465 0.257134 26.0847 0.431732C26.1813 0.442739 27.3233 0.602464 27.9831 0.501434C28.066 0.488696 28.0633 0.423985 28.1726 0.418549C28.905 0.383386 29.3935 0.434939 30.1914 0.410248C30.9891 0.385557 31.9485 0.348749 32.8594 0.370698C33.4083 0.383822 34.1127 0.504388 34.3755 0.533905C35.1176 0.618937 35.9131 0.479521 36.3728 0.582489C36.8364 0.685976 35.9302 0.843137 37.1457 0.910003C37.1908 0.741879 37.2941 0.569317 37.3666 0.400239C40.0305 0.406159 42.6516 0.460523 45.3245 0.453096C45.6559 0.452007 45.317 0.361623 45.6722 0.358126C47.171 0.343767 48.4801 0.408199 50.0344 0.38254C51.2374 0.362333 52.5568 0.266635 53.8148 0.242526C54.5832 0.434907 56.45 0.369598 57.8061 0.387179C58.2811 0.393254 58.2494 0.444635 58.5872 0.461398C59.8617 0.523393 59.2645 0.353387 59.6139 0.326633C61.113 0.212449 61.2413 0.597248 63.0087 0.587741C63.1023 0.587367 64.2469 0.382253 64.4045 0.36948C65.4062 0.286189 64.5702 0.440872 65.1972 0.456027C66.3417 0.483723 67.1371 0.532707 68.4799 0.472629C68.8715 0.454834 69.8108 0.326989 70.5711 0.425876C70.6712 0.438825 70.6159 0.506623 70.6964 0.510593C72.1538 0.576777 72.1921 0.363748 73.025 0.2916C73.8579 0.219468 75.1444 0.366525 75.4062 0.408909C76.0912 0.518553 74.8814 0.455767 74.8443 0.466526C74.4085 0.594573 75.3468 0.572527 76.0638 0.583347C76.1675 0.792225 77.1702 0.779687 76.807 0.593723C76.7657 0.573411 76.2077 0.59289 76.0638 0.583347C76.6931 0.37841 77.7949 0.352163 79.012 0.543675C79.5816 0.633433 79.0431 0.738087 80.7736 0.699802C81.559 0.68252 81.2555 0.538697 81.9486 0.499486C83.532 0.410022 85.5897 0.544184 87.222 0.523046C87.8145 0.515371 87.2374 0.436643 87.6423 0.428686C88.7169 0.407321 89.6645 0.466392 90.7437 0.436132C90.8416 0.433291 90.6025 0.350879 90.9382 0.349829C93.4824 0.340258 95.6977 0.393044 98.354 0.394507C99.6375 0.395177 101.932 0.349725 103.262 0.358863C105.566 0.374215 108.401 0.494054 110.369 0.464942C111.653 0.446307 111.371 0.363878 111.922 0.307716C112.983 0.198851 114.862 0.393854 115.115 0.424049C115.123 0.425049 114.018 0.44448 114.608 0.486793C114.951 0.574959 115.103 0.424432 115.115 0.424049C115.281 0.443555 117.488 0.462268 117.927 0.44651C118.165 0.437899 118.032 0.359803 118.156 0.356789C121.107 0.2869 124.063 0.267052 127.056 0.303567C127.109 0.305145 127.03 0.392501 127.154 0.39512C128.886 0.43396 129.996 0.327097 131.425 0.263651C132.854 0.200233 133.987 0.221474 134.833 0.371439C135.911 0.352557 137.458 0.418857 138.348 0.459085C139.238 0.499313 139.362 0.329269 139.441 0.325907C141.883 0.218312 143.296 0.315643 145.83 0.330791C147.035 0.338284 149.425 0.313619 150.729 0.295025C151.76 0.280045 152.381 0.319895 153.331 0.294414C153.46 0.291011 153.33 0.215298 153.369 0.212383C154.429 0.121798 153.92 0.30689 154.139 0.339947C154.932 0.460159 155.423 0.524183 156.78 0.467632C157.094 0.454681 158.006 0.188175 158.577 0.172589C159.319 0.152814 159.039 0.248341 159.816 0.225201C159.883 0.223309 159.869 0.164375 160.348 0.166974C162.575 0.178261 165.002 0.212553 167.316 0.206647C167.632 0.206067 167.227 0.11259 167.683 0.110212C169.826 0.0991319 172.174 0.102591 174.262 0.146345C174.776 0.157409 174.454 0.222859 174.565 0.242292C175.25 0.359877 176.221 0.18903 176.381 0.185774C180.203 0.103673 183.128 0.258289 187.024 0.184676C187.236 0.180355 188.868 -0.0027973 189.596 0.154281C189.646 0.164732 190.366 0.325439 191.004 0.215561C191.043 0.208687 190.594 0.125952 191.378 0.134384C192.161 0.142798 193.422 0.0875485 194.499 0.178452C194.84 0.207088 195.646 0.367399 196.663 0.239609C196.729 0.230688 198.299 -0.058263 198.859 0.141099C198.95 0.173915 198.855 0.384886 200.069 0.276718C200.301 0.255748 199.88 0.208691 200.491 0.179307C201.427 0.134019 202.667 0.190524 203.818 0.0965435C204.019 0.0799056 204.873 -0.0632881 205.558 0.0453963C205.666 0.0624182 205.462 0.132851 205.824 0.140733C207.544 0.178543 209.346 0.13143 211.094 0.180162C211.713 0.197285 211.396 0.311148 212.041 0.341661C212.687 0.372163 213.986 0.401506 214.662 0.349473C215.337 0.297418 214.599 0.115949 215.611 0.101427C220.009 0.0383601 224.365 0.144816 228.756 0.160388C229.408 0.162714 228.868 0.0977784 229.828 0.0965458C233.366 0.0917151 239.476 0.0308317 242.547 0.168812C245.007 0.279327 241.911 0.363463 243.791 0.408436C244.698 0.429889 245.679 0.218911 245.898 0.212269C248.038 0.1448 249.525 0.238258 251.45 0.209584C251.848 0.203634 251.458 0.118123 251.797 0.114004C252.952 0.0991743 254.167 0.137343 255.272 0.130361C255.768 0.127033 255.676 0.0617222 256.132 0.066763C257.223 0.078072 258.188 0.105525 259.252 0.166739C259.349 0.172316 258.695 0.25356 259.502 0.256582C260.809 0.261242 262.431 0.321628 263.934 0.259268C264.38 0.240509 264.397 0.0912431 265.356 0.194327C265.557 0.215857 265.3 0.395092 266.417 0.240225C266.605 0.21449 268.481 0.00560288 269.402 0.14025C269.644 0.175688 270.264 0.322357 270.801 0.299307C270.873 0.29563 270.582 0.215453 271.026 0.207633C272.593 0.181467 274.234 0.190021 275.843 0.164909C276.273 0.158045 275.633 0.0750784 276.274 0.0674971C278.035 0.0465269 280.234 0.0676517 281.956 0.0936206C282.591 0.103352 282.152 0.172079 282.198 0.179558C282.941 0.301208 283.38 0.137008 283.627 0.127434C285.16 0.070104 286.328 0.147235 287.742 0.126824C288.132 0.121399 287.855 0.0431073 287.933 0.0361262C288.738 -0.0320843 288.138 0.108518 288.648 0.124017C290.076 0.167901 291.668 0.161609 293.112 0.151605C293.643 0.147815 293.047 0.0570335 293.523 0.0546813C296.34 0.0390384 299.27 0.0477254 302.02 0.0977728C302.537 0.107361 302.212 0.177265 302.319 0.193231C303.063 0.304936 304.153 0.15257 304.404 0.138056C305.545 0.0717854 305.988 0.133603 306.995 0.122065C311.915 0.0646173 317.99 0.105561 322.634 0.130856C328.686 0.16341 333.382 0.229912 339.153 0.212644C339.52 0.211634 339.15 0.118639 339.466 0.116575C343.548 0.0941572 347.567 0.130496 351.657 0.103636C351.993 0.101597 351.509 0.0134377 352.048 0.00720128C353.153 -0.00620878 354.553 -0.00141704 355.67 0.0267327C356.215 0.0402959 355.484 0.115945 356.033 0.128051C357.31 0.156413 358.679 0.162692 359.991 0.148559C360.549 0.142352 359.707 0.0521877 360.433 0.0511471C365.376 0.0422025 370.231 0.0266743 375.227 0.143433C375.569 0.151452 375.869 0.334703 376.598 0.299561C376.652 0.248704 376.649 0.188881 376.673 0.134522C383.87 0.105241 390.992 0.168769 398.209 0.178591C398.513 0.178985 397.987 0.0818896 398.576 0.0821563C401.986 0.083592 405.296 0.0566941 408.784 0.153202C409.13 0.16264 408.952 0.333454 409.972 0.30762C410.152 0.302906 411.688 0.280126 412.085 0.243046C412.139 0.237452 411.858 0.157723 412.353 0.155399C415.229 0.143292 418.243 0.161495 421.114 0.21021C421.577 0.218224 421.084 0.303129 421.414 0.309574C423.755 0.354646 426.301 0.290103 428.538 0.367192C430.035 0.419098 429.481 0.565864 430.276 0.710331C430.389 0.730713 431.316 0.733943 431.364 0.817997C431.487 1.02936 431.038 1.2608 431.222 1.48609C431.261 1.53461 432.503 1.48235 431.768 1.59961C431.716 1.60746 430.816 1.64638 430.594 1.68616C430.44 1.71366 430.718 1.79914 430.403 1.83435C430.088 1.86952 429.742 1.79787 429.22 1.83923C428.698 1.88111 428.928 1.97836 427.885 1.98987ZM142.356 0.638895C143.18 0.720557 143.302 0.421462 142.41 0.493021C142.367 0.496835 142.313 0.634889 142.356 0.638895ZM42.6367 0.686127C43.7142 0.818049 44.4515 0.624071 43.6914 0.522187C42.9313 0.420413 42.3084 0.646137 42.6367 0.686127ZM31.4636 0.782439C32.7229 0.886454 32.9211 0.462326 31.5724 0.548065C31.4939 0.55291 31.39 0.7764 31.4636 0.782439ZM426.587 0.751468C426.598 0.75544 427.264 0.759311 427.28 0.755374C427.635 0.660383 426.303 0.652707 426.587 0.751468ZM20.3762 0.887296C20.7692 0.944669 21.9012 0.878439 21.4127 0.807097C21.0195 0.749703 19.8865 0.815928 20.3762 0.887296ZM185.349 0.958111C185.362 0.962568 185.84 0.966582 185.831 0.941388C185.798 0.860244 185.133 0.883145 185.349 0.958111ZM1.53182 0.892178C4.31605 0.908143 6.00401 1.25849 2.97213 1.21896C2.42315 1.21181 4.15542 1.10724 3.45662 1.07565C2.17798 1.0181 1.32882 1.23808 0.0239468 1.1202C-0.212305 1.09863 1.37302 0.890488 1.53676 0.891689C1.53512 0.891852 1.53347 0.892015 1.53182 0.892178ZM142.831 0.998147C142.847 1.0021 143.509 1.00585 143.524 1.00193C143.883 0.906977 142.55 0.899366 142.831 0.998147ZM213.231 1.14305C213.268 1.15148 214.803 1.15936 214.853 1.15159C215.653 0.99632 212.55 0.979923 213.231 1.14305ZM98.2831 1.21701C97.5613 1.31254 96.698 1.32379 96.1226 1.20383C96.84 1.2102 97.5619 1.21114 98.2831 1.21701Z" fill="#8F882A"/>
<path id="Vector 4" d="M427.885 17.9899C425.464 18.0159 422.291 17.9881 419.879 17.9498C419.124 17.938 419.506 17.885 418.985 17.8744C417.964 17.8538 417.013 17.8798 416.005 17.8552C415.671 17.8468 416.087 17.7629 415.736 17.756C413.816 17.7189 412 17.7403 410.054 17.7224C400.473 17.6343 391.054 17.6028 381.355 17.5646C378.157 17.552 374.27 17.4758 370.967 17.5092C370.581 17.5131 370.811 17.5868 370.737 17.5929C369.587 17.6859 369.969 17.5371 369.218 17.5173C366.236 17.4393 362.92 17.4325 360.051 17.4609C358.83 17.4732 360.054 17.6196 358.824 17.5375C358.739 17.5319 359.049 17.4537 358.714 17.4453C357.955 17.4265 356.514 17.4405 355.926 17.4343C354.792 17.422 354.604 17.4228 353.531 17.4219C352.065 17.42 350.321 17.3811 348.747 17.3988C348.411 17.4028 348.856 17.483 348.32 17.4967C347.784 17.5103 346.366 17.5035 345.888 17.4846C345.41 17.4657 345.613 17.4026 345.529 17.3882C344.832 17.2662 343.192 17.4351 342.981 17.4393C339.133 17.5105 335.832 17.4143 332.22 17.4145C329.477 17.415 326.545 17.4467 323.936 17.4424C320.827 17.4369 318.192 17.3934 315.172 17.4009C314.853 17.4016 315.227 17.4959 314.837 17.4969C310.701 17.5079 306.594 17.4976 302.476 17.434C302.063 17.4275 302.595 17.3447 302.183 17.3332C299.656 17.2652 295.659 17.1017 294.159 17.4623C292.448 17.4482 290.37 17.4336 288.839 17.361C287.852 17.3142 288.811 17.2239 287.598 17.2624C287.325 17.271 287.68 17.35 287.27 17.3569C285.544 17.3858 283.657 17.3602 281.949 17.401C281.602 17.4095 281.697 17.4803 281.598 17.493C280.771 17.5963 279.393 17.4256 279.093 17.4132C276.807 17.3207 275.137 17.3571 273.007 17.3548C272.513 17.3543 273.097 17.4494 272.622 17.4523C270.155 17.4659 267.6 17.4577 265.184 17.4155C264.647 17.4059 265.141 17.3249 264.885 17.3161C263.753 17.2786 263.502 17.4316 262.416 17.3985C262.187 17.3918 262.316 17.3224 262.274 17.3148C261.621 17.1952 261.053 17.3647 260.885 17.3684C258.759 17.4195 257.4 17.2426 255.346 17.2677C255.1 17.2709 255.655 17.3586 254.964 17.3622C250.363 17.3864 245.496 17.3623 240.941 17.2921C240.233 17.2813 240.739 17.2154 240.694 17.2073C239.968 17.0803 239.498 17.2504 239.267 17.2568C237.445 17.3029 235.744 17.1603 234.506 17.3629C226.792 17.2926 219.112 17.4064 211.461 17.2248C211.364 17.2227 211.538 17.1389 211.344 17.1351C209.007 17.0881 209.456 17.2183 207.91 17.3775C207.52 17.4175 206.335 17.2253 206.231 17.2112C205.849 17.1592 206.245 17.0346 206.117 17.0245C205.058 16.9455 205.231 17.3578 203.803 17.3579C203.759 17.3572 203.946 17.2813 203.826 17.2738C203.454 17.2501 203.085 17.2803 202.72 17.2541C201.887 17.1937 201.59 16.9934 200.316 17.11C200.155 17.1251 200.401 17.3589 199.126 17.3479C198.618 17.3433 196.369 17.3473 195.738 17.3321C195.108 17.317 195.541 17.2416 195.496 17.2384C193.799 17.1387 194.443 17.0974 193.592 16.9499C192.743 16.803 192.978 17.1535 192.632 17.1926C192.285 17.2316 191.041 17.1494 190.735 17.1208C190.429 17.0922 190.81 17.0444 190.539 17.0282C188.737 16.9225 189.748 17.2022 189.155 17.2578C187.755 17.3895 186.665 17.1296 185.384 17.1041C185.037 17.0972 185.32 17.1564 185.012 17.162C183.789 17.1831 183.054 17.102 181.663 17.1764C181.435 17.1885 180.311 17.3448 179.583 17.2301C179.48 17.2135 179.773 17.1488 179.252 17.1343C178.474 17.1125 177.071 17.0983 176.235 17.12C175.617 17.136 176.325 17.2427 175.547 17.2096C175.202 17.1948 175.842 17.1323 175.193 17.1097C174.547 17.0871 172.896 17.0899 172.268 17.092C171.641 17.0942 171.984 17.1752 171.933 17.1806C171.627 17.2119 170.423 17.2509 170.317 17.2508C164.952 17.2607 160.005 17.1242 154.782 17.1694C154.372 17.1728 154.645 17.2582 154.582 17.2596C153.179 17.2954 154.285 17.0684 153.305 16.9924C153.447 17.1657 152.868 17.1343 151.879 17.1533C151.403 17.1626 151.663 17.2297 151.619 17.2365C150.913 17.3384 150.421 17.2068 150.294 17.1799C149.826 17.0809 149.317 17.1979 148.999 17.1317C148.681 17.066 149.413 16.9686 148.465 16.9698C148.199 17.0318 148.903 17.1939 148.183 17.2202C145.467 17.3196 140.398 17.1924 138.215 17.1792C136.035 17.166 135.332 17.1774 134.062 17.155C131.768 17.1145 132.609 17.2347 131.184 17.2898C129.756 17.3448 130.45 17.0489 130.245 16.9853C130.044 16.9218 129.824 16.9872 129.573 16.9522C129.323 16.9173 129.864 16.8741 129.276 16.8609C128.688 16.8478 127.08 16.9609 126.872 17.0274C126.431 17.1683 127.156 17.3162 125.6 17.2643C125.51 17.2612 125.8 17.1834 125.458 17.1755C122.736 17.1156 119.908 17.1119 117.19 17.0589C116.816 17.0515 117.15 16.965 116.933 16.9597C114.667 16.9043 115.477 17.0503 114.235 17.2124C114.514 16.9966 113.827 16.8647 112.108 16.8634C111.074 16.8625 111.252 16.9568 110.583 17.0232C110.383 17.0432 109.651 16.9785 109.519 17.0228C109.082 17.1677 109.771 17.3298 107.998 17.2652C107.92 17.2622 108.168 17.1829 107.899 17.1781C106.161 17.1466 105.954 17.2982 104.076 17.3165C102.604 17.3309 99.9857 17.2385 98.3095 17.2235C98.3447 16.9809 96.7616 17.0365 96.1193 17.2037C95.0316 17.1969 93.8567 17.2063 92.8053 17.1832C92.4435 17.1753 92.6812 17.1051 92.6356 17.0975C91.9359 16.9785 91.463 17.1412 91.2282 17.1476C88.6835 17.2096 86.6102 17.0862 84.1816 17.2068C84.0954 17.2111 83.9557 17.3796 83.3065 17.2566C83.2645 17.2481 84.0667 17.1714 82.9242 17.1655C81.7816 17.1596 79.6276 17.0692 78.0413 17.1473C77.6575 17.1661 76.6865 17.3029 75.9072 17.196C75.8034 17.1815 75.917 17.1332 75.7671 17.1063C75.2826 17.0206 75.0182 17.1909 74.4488 17.0462C73.8793 16.9016 72.695 16.7932 71.0952 16.893C71.0443 16.8959 70.6655 17.0309 70.1624 17.0288C69.3594 17.0253 68.2193 16.9971 67.3807 16.998C66.9792 16.9985 67.2361 17.0823 67.1665 17.0838C64.4669 17.1308 62.5454 17.0561 59.6535 17.0237C59.1233 17.0175 57.5998 17.1318 56.5734 17.0415C55.4465 16.9426 56.6045 16.5311 54.0142 16.6291C52.9694 16.6683 51.6466 17.1904 49.769 16.9199C46.1276 16.9869 42.76 16.8485 39.1084 16.9442C38.9442 16.9484 38.4249 17.0941 38.0389 17.0921C37.4658 17.0889 37.1512 17.0208 36.742 17.0163C35.0273 16.9958 33.458 17.0541 31.8047 17.045C31.177 17.0417 31.3965 16.9713 30.6479 16.9674C29.8996 16.9635 29.4007 17.0562 28.3869 17.0114C27.6211 16.9773 26.8555 16.7878 25.8391 16.7657C25.8004 16.9526 25.1024 16.9488 23.8616 16.9981C23.6231 17.0077 23.8789 17.0728 23.766 17.0807C23.3069 17.1142 22.8819 17.0603 22.446 17.0968C22.34 17.1055 22.3349 17.1694 22.2482 17.1801C21.511 17.2742 20.2964 17.1306 20.0878 17.1056C19.2882 17.0106 18.9147 17.0936 18.3014 17.0562C17.6892 17.0189 18.6046 16.9721 17.8894 16.9494C16.4069 16.9025 14.5022 16.9128 12.9967 16.9099C12.396 16.9091 12.8057 16.9943 12.7198 16.9962C11.4775 17.0178 10.2215 16.9272 9.53261 17.0969C8.67138 16.658 8.78362 17.1395 7.00796 17.0516C6.86809 17.0445 6.6902 16.837 7.22713 16.8065C7.76416 16.776 8.57834 16.8409 9.32332 16.7934C9.49984 16.7823 10.5104 16.5878 10.6483 16.576C11.7284 16.4839 11.8815 16.7941 11.9386 16.8111C12.5868 16.995 13.8216 16.7854 14.1469 16.771C15.6347 16.7046 16.8987 16.7482 18.1432 16.7009C18.9571 16.6703 19.0367 16.4671 19.6758 16.4734C21.8002 16.4939 22.5419 16.7773 24.5438 16.5316C24.9731 16.4792 24.5465 16.2571 26.0847 16.4317C26.1813 16.4427 27.3233 16.6025 27.9831 16.5014C28.066 16.4887 28.0633 16.424 28.1726 16.4185C28.905 16.3834 29.3935 16.4349 30.1914 16.4102C30.9891 16.3856 31.9485 16.3487 32.8594 16.3707C33.4083 16.3838 34.1127 16.5044 34.3755 16.5339C35.1176 16.6189 35.9131 16.4795 36.3728 16.5825C36.8364 16.686 35.9302 16.8431 37.1457 16.91C37.1908 16.7419 37.2941 16.5693 37.3666 16.4002C40.0305 16.4062 42.6516 16.4605 45.3245 16.4531C45.6559 16.452 45.317 16.3616 45.6722 16.3581C47.171 16.3438 48.4801 16.4082 50.0344 16.3825C51.2374 16.3623 52.5568 16.2666 53.8148 16.2425C54.5832 16.4349 56.45 16.3696 57.8061 16.3872C58.2811 16.3933 58.2494 16.4446 58.5872 16.4614C59.8617 16.5234 59.2645 16.3534 59.6139 16.3266C61.113 16.2124 61.2413 16.5972 63.0087 16.5877C63.1023 16.5874 64.2469 16.3823 64.4045 16.3695C65.4062 16.2862 64.5702 16.4409 65.1972 16.456C66.3417 16.4837 67.1371 16.5327 68.4799 16.4726C68.8715 16.4548 69.8108 16.327 70.5711 16.4259C70.6712 16.4388 70.6159 16.5066 70.6964 16.5106C72.1538 16.5768 72.1921 16.3637 73.025 16.2916C73.8579 16.2195 75.1444 16.3665 75.4062 16.4089C76.0912 16.5186 74.8814 16.4558 74.8443 16.4665C74.4085 16.5946 75.3468 16.5725 76.0638 16.5833C76.1675 16.7922 77.1702 16.7797 76.807 16.5937C76.7657 16.5734 76.2077 16.5929 76.0638 16.5833C76.6931 16.3784 77.7949 16.3522 79.012 16.5437C79.5816 16.6334 79.0431 16.7381 80.7736 16.6998C81.559 16.6825 81.2555 16.5387 81.9486 16.4995C83.532 16.41 85.5897 16.5442 87.222 16.523C87.8145 16.5154 87.2374 16.4366 87.6423 16.4287C88.7169 16.4073 89.6645 16.4664 90.7437 16.4361C90.8416 16.4333 90.6025 16.3509 90.9382 16.3498C93.4824 16.3403 95.6977 16.393 98.354 16.3945C99.6375 16.3952 101.932 16.3497 103.262 16.3589C105.566 16.3742 108.401 16.4941 110.369 16.4649C111.653 16.4463 111.371 16.3639 111.922 16.3077C112.983 16.1989 114.862 16.3939 115.115 16.424C115.123 16.425 114.018 16.4445 114.608 16.4868C114.951 16.575 115.103 16.4244 115.115 16.424C115.281 16.4436 117.488 16.4623 117.927 16.4465C118.165 16.4379 118.032 16.3598 118.156 16.3568C121.107 16.2869 124.063 16.2671 127.056 16.3036C127.109 16.3051 127.03 16.3925 127.154 16.3951C128.886 16.434 129.996 16.3271 131.425 16.2637C132.854 16.2002 133.987 16.2215 134.833 16.3714C135.911 16.3526 137.458 16.4189 138.348 16.4591C139.238 16.4993 139.362 16.3293 139.441 16.3259C141.883 16.2183 143.296 16.3156 145.83 16.3308C147.035 16.3383 149.425 16.3136 150.729 16.295C151.76 16.28 152.381 16.3199 153.331 16.2944C153.46 16.291 153.33 16.2153 153.369 16.2124C154.429 16.1218 153.92 16.3069 154.139 16.3399C154.932 16.4602 155.423 16.5242 156.78 16.4676C157.094 16.4547 158.006 16.1882 158.577 16.1726C159.319 16.1528 159.039 16.2483 159.816 16.2252C159.883 16.2233 159.869 16.1644 160.348 16.167C162.575 16.1783 165.002 16.2126 167.316 16.2066C167.632 16.2061 167.227 16.1126 167.683 16.1102C169.826 16.0991 172.174 16.1026 174.262 16.1463C174.776 16.1574 174.454 16.2229 174.565 16.2423C175.25 16.3599 176.221 16.189 176.381 16.1858C180.203 16.1037 183.128 16.2583 187.024 16.1847C187.236 16.1804 188.868 15.9972 189.596 16.1543C189.646 16.1647 190.366 16.3254 191.004 16.2156C191.043 16.2087 190.594 16.126 191.378 16.1344C192.161 16.1428 193.422 16.0875 194.499 16.1785C194.84 16.2071 195.646 16.3674 196.663 16.2396C196.729 16.2307 198.299 15.9417 198.859 16.1411C198.95 16.1739 198.855 16.3849 200.069 16.2767C200.301 16.2557 199.88 16.2087 200.491 16.1793C201.427 16.134 202.667 16.1905 203.818 16.0965C204.019 16.0799 204.873 15.9367 205.558 16.0454C205.666 16.0624 205.462 16.1329 205.824 16.1407C207.544 16.1785 209.346 16.1314 211.094 16.1802C211.713 16.1973 211.396 16.3111 212.041 16.3417C212.687 16.3722 213.986 16.4015 214.662 16.3495C215.337 16.2974 214.599 16.1159 215.611 16.1014C220.009 16.0384 224.365 16.1448 228.756 16.1604C229.408 16.1627 228.868 16.0978 229.828 16.0965C233.366 16.0917 239.476 16.0308 242.547 16.1688C245.007 16.2793 241.911 16.3635 243.791 16.4084C244.698 16.4299 245.679 16.2189 245.898 16.2123C248.038 16.1448 249.525 16.2383 251.45 16.2096C251.848 16.2036 251.458 16.1181 251.797 16.114C252.952 16.0992 254.167 16.1373 255.272 16.1304C255.768 16.127 255.676 16.0617 256.132 16.0668C257.223 16.0781 258.188 16.1055 259.252 16.1667C259.349 16.1723 258.695 16.2536 259.502 16.2566C260.809 16.2612 262.431 16.3216 263.934 16.2593C264.38 16.2405 264.397 16.0912 265.356 16.1943C265.557 16.2159 265.3 16.3951 266.417 16.2402C266.605 16.2145 268.481 16.0056 269.402 16.1403C269.644 16.1757 270.264 16.3224 270.801 16.2993C270.873 16.2956 270.582 16.2155 271.026 16.2076C272.593 16.1815 274.234 16.19 275.843 16.1649C276.273 16.158 275.633 16.0751 276.274 16.0675C278.035 16.0465 280.234 16.0677 281.956 16.0936C282.591 16.1034 282.152 16.1721 282.198 16.1796C282.941 16.3012 283.38 16.137 283.627 16.1274C285.16 16.0701 286.328 16.1472 287.742 16.1268C288.132 16.1214 287.855 16.0431 287.933 16.0361C288.738 15.9679 288.138 16.1085 288.648 16.124C290.076 16.1679 291.668 16.1616 293.112 16.1516C293.643 16.1478 293.047 16.057 293.523 16.0547C296.34 16.039 299.27 16.0477 302.02 16.0978C302.537 16.1074 302.212 16.1773 302.319 16.1932C303.063 16.3049 304.153 16.1526 304.404 16.1381C305.545 16.0718 305.988 16.1336 306.995 16.1221C311.915 16.0646 317.99 16.1056 322.634 16.1309C328.686 16.1634 333.382 16.2299 339.153 16.2126C339.52 16.2116 339.15 16.1186 339.466 16.1166C343.548 16.0942 347.567 16.1305 351.657 16.1036C351.993 16.1016 351.509 16.0134 352.048 16.0072C353.153 15.9938 354.553 15.9986 355.67 16.0267C356.215 16.0403 355.484 16.1159 356.033 16.1281C357.31 16.1564 358.679 16.1627 359.991 16.1486C360.549 16.1424 359.707 16.0522 360.433 16.0511C365.376 16.0422 370.231 16.0267 375.227 16.1434C375.569 16.1515 375.869 16.3347 376.598 16.2996C376.652 16.2487 376.649 16.1889 376.673 16.1345C383.87 16.1052 390.992 16.1688 398.209 16.1786C398.513 16.179 397.987 16.0819 398.576 16.0822C401.986 16.0836 405.296 16.0567 408.784 16.1532C409.13 16.1626 408.952 16.3335 409.972 16.3076C410.152 16.3029 411.688 16.2801 412.085 16.243C412.139 16.2375 411.858 16.1577 412.353 16.1554C415.229 16.1433 418.243 16.1615 421.114 16.2102C421.577 16.2182 421.084 16.3031 421.414 16.3096C423.755 16.3546 426.301 16.2901 428.538 16.3672C430.035 16.4191 429.481 16.5659 430.276 16.7103C430.389 16.7307 431.316 16.7339 431.364 16.818C431.487 17.0294 431.038 17.2608 431.222 17.4861C431.261 17.5346 432.503 17.4823 431.768 17.5996C431.716 17.6075 430.816 17.6464 430.594 17.6862C430.44 17.7137 430.718 17.7991 430.403 17.8344C430.088 17.8695 429.742 17.7979 429.22 17.8392C428.698 17.8811 428.928 17.9784 427.885 17.9899ZM142.356 16.6389C143.18 16.7206 143.302 16.4215 142.41 16.493C142.367 16.4968 142.313 16.6349 142.356 16.6389ZM42.6367 16.6861C43.7142 16.818 44.4515 16.6241 43.6914 16.5222C42.9313 16.4204 42.3084 16.6461 42.6367 16.6861ZM31.4636 16.7824C32.7229 16.8865 32.9211 16.4623 31.5724 16.5481C31.4939 16.5529 31.39 16.7764 31.4636 16.7824ZM426.587 16.7515C426.598 16.7554 427.264 16.7593 427.28 16.7554C427.635 16.6604 426.303 16.6527 426.587 16.7515ZM20.3762 16.8873C20.7692 16.9447 21.9012 16.8784 21.4127 16.8071C21.0195 16.7497 19.8865 16.8159 20.3762 16.8873ZM185.349 16.9581C185.362 16.9626 185.84 16.9666 185.831 16.9414C185.798 16.8602 185.133 16.8831 185.349 16.9581ZM1.53182 16.8922C4.31605 16.9081 6.00401 17.2585 2.97213 17.219C2.42315 17.2118 4.15542 17.1072 3.45662 17.0756C2.17798 17.0181 1.32882 17.2381 0.0239468 17.1202C-0.212305 17.0986 1.37302 16.8905 1.53676 16.8917C1.53512 16.8919 1.53347 16.892 1.53182 16.8922ZM142.831 16.9981C142.847 17.0021 143.509 17.0059 143.524 17.0019C143.883 16.907 142.55 16.8994 142.831 16.9981ZM213.231 17.143C213.268 17.1515 214.803 17.1594 214.853 17.1516C215.653 16.9963 212.55 16.9799 213.231 17.143ZM98.2831 17.217C97.5613 17.3125 96.698 17.3238 96.1226 17.2038C96.84 17.2102 97.5619 17.2111 98.2831 17.217Z" fill="#8F882A"/>
<path id="Vector 5" d="M427.885 33.9899C425.464 34.0159 422.291 33.9881 419.879 33.9498C419.124 33.938 419.506 33.885 418.985 33.8744C417.964 33.8538 417.013 33.8798 416.005 33.8552C415.671 33.8468 416.087 33.7629 415.736 33.756C413.816 33.7189 412 33.7403 410.054 33.7224C400.473 33.6343 391.054 33.6028 381.355 33.5646C378.157 33.552 374.27 33.4758 370.967 33.5092C370.581 33.5131 370.811 33.5868 370.737 33.5929C369.587 33.6859 369.969 33.5371 369.218 33.5173C366.236 33.4393 362.92 33.4325 360.051 33.4609C358.83 33.4732 360.054 33.6196 358.824 33.5375C358.739 33.5319 359.049 33.4537 358.714 33.4453C357.955 33.4265 356.514 33.4405 355.926 33.4343C354.792 33.422 354.604 33.4228 353.531 33.4219C352.065 33.42 350.321 33.3811 348.747 33.3988C348.411 33.4028 348.856 33.483 348.32 33.4967C347.784 33.5103 346.366 33.5035 345.888 33.4846C345.41 33.4657 345.613 33.4026 345.529 33.3882C344.832 33.2662 343.192 33.4351 342.981 33.4393C339.133 33.5105 335.832 33.4143 332.22 33.4145C329.477 33.415 326.545 33.4467 323.936 33.4424C320.827 33.4369 318.192 33.3934 315.172 33.4009C314.853 33.4016 315.227 33.4959 314.837 33.4969C310.701 33.5079 306.594 33.4976 302.476 33.434C302.063 33.4275 302.595 33.3447 302.183 33.3332C299.656 33.2652 295.659 33.1017 294.159 33.4623C292.448 33.4482 290.37 33.4336 288.839 33.361C287.852 33.3142 288.811 33.2239 287.598 33.2624C287.325 33.271 287.68 33.35 287.27 33.3569C285.544 33.3858 283.657 33.3602 281.949 33.401C281.602 33.4095 281.697 33.4803 281.598 33.493C280.771 33.5963 279.393 33.4256 279.093 33.4132C276.807 33.3207 275.137 33.3571 273.007 33.3548C272.513 33.3543 273.097 33.4494 272.622 33.4523C270.155 33.4659 267.6 33.4577 265.184 33.4155C264.647 33.4059 265.141 33.3249 264.885 33.3161C263.753 33.2786 263.502 33.4316 262.416 33.3985C262.187 33.3918 262.316 33.3224 262.274 33.3148C261.621 33.1952 261.053 33.3647 260.885 33.3684C258.759 33.4195 257.4 33.2426 255.346 33.2677C255.1 33.2709 255.655 33.3586 254.964 33.3622C250.363 33.3864 245.496 33.3623 240.941 33.2921C240.233 33.2813 240.739 33.2154 240.694 33.2073C239.968 33.0803 239.498 33.2504 239.267 33.2568C237.445 33.3029 235.744 33.1603 234.506 33.3629C226.792 33.2926 219.112 33.4064 211.461 33.2248C211.364 33.2227 211.538 33.1389 211.344 33.1351C209.007 33.0881 209.456 33.2183 207.91 33.3775C207.52 33.4175 206.335 33.2253 206.231 33.2112C205.849 33.1592 206.245 33.0346 206.117 33.0245C205.058 32.9455 205.231 33.3578 203.803 33.3579C203.759 33.3572 203.946 33.2813 203.826 33.2738C203.454 33.2501 203.085 33.2803 202.72 33.2541C201.887 33.1937 201.59 32.9934 200.316 33.11C200.155 33.1251 200.401 33.3589 199.126 33.3479C198.618 33.3433 196.369 33.3473 195.738 33.3321C195.108 33.317 195.541 33.2416 195.496 33.2384C193.799 33.1387 194.443 33.0974 193.592 32.9499C192.743 32.803 192.978 33.1535 192.632 33.1926C192.285 33.2316 191.041 33.1494 190.735 33.1208C190.429 33.0922 190.81 33.0444 190.539 33.0282C188.737 32.9225 189.748 33.2022 189.155 33.2578C187.755 33.3895 186.665 33.1296 185.384 33.1041C185.037 33.0972 185.32 33.1564 185.012 33.162C183.789 33.1831 183.054 33.102 181.663 33.1764C181.435 33.1885 180.311 33.3448 179.583 33.2301C179.48 33.2135 179.773 33.1488 179.252 33.1343C178.474 33.1125 177.071 33.0983 176.235 33.12C175.617 33.136 176.325 33.2427 175.547 33.2096C175.202 33.1948 175.842 33.1323 175.193 33.1097C174.547 33.0871 172.896 33.0899 172.268 33.092C171.641 33.0942 171.984 33.1752 171.933 33.1806C171.627 33.2119 170.423 33.2509 170.317 33.2508C164.952 33.2607 160.005 33.1242 154.782 33.1694C154.372 33.1728 154.645 33.2582 154.582 33.2596C153.179 33.2954 154.285 33.0684 153.305 32.9924C153.447 33.1657 152.868 33.1343 151.879 33.1533C151.403 33.1626 151.663 33.2297 151.619 33.2365C150.913 33.3384 150.421 33.2068 150.294 33.1799C149.826 33.0809 149.317 33.1979 148.999 33.1317C148.681 33.066 149.413 32.9686 148.465 32.9698C148.199 33.0318 148.903 33.1939 148.183 33.2202C145.467 33.3196 140.398 33.1924 138.215 33.1792C136.035 33.166 135.332 33.1774 134.062 33.155C131.768 33.1145 132.609 33.2347 131.184 33.2898C129.756 33.3448 130.45 33.0489 130.245 32.9853C130.044 32.9218 129.824 32.9872 129.573 32.9522C129.323 32.9173 129.864 32.8741 129.276 32.8609C128.688 32.8478 127.08 32.9609 126.872 33.0274C126.431 33.1683 127.156 33.3162 125.6 33.2643C125.51 33.2612 125.8 33.1834 125.458 33.1755C122.736 33.1156 119.908 33.1119 117.19 33.0589C116.816 33.0515 117.15 32.965 116.933 32.9597C114.667 32.9043 115.477 33.0503 114.235 33.2124C114.514 32.9966 113.827 32.8647 112.108 32.8634C111.074 32.8625 111.252 32.9568 110.583 33.0232C110.383 33.0432 109.651 32.9785 109.519 33.0228C109.082 33.1677 109.771 33.3298 107.998 33.2652C107.92 33.2622 108.168 33.1829 107.899 33.1781C106.161 33.1466 105.954 33.2982 104.076 33.3165C102.604 33.3309 99.9857 33.2385 98.3095 33.2235C98.3447 32.9809 96.7616 33.0365 96.1193 33.2037C95.0316 33.1969 93.8567 33.2063 92.8053 33.1832C92.4435 33.1753 92.6812 33.1051 92.6356 33.0975C91.9359 32.9785 91.463 33.1412 91.2282 33.1476C88.6835 33.2096 86.6102 33.0862 84.1816 33.2068C84.0954 33.2111 83.9557 33.3796 83.3065 33.2566C83.2645 33.2481 84.0667 33.1714 82.9242 33.1655C81.7816 33.1596 79.6276 33.0692 78.0413 33.1473C77.6575 33.1661 76.6865 33.3029 75.9072 33.196C75.8034 33.1815 75.917 33.1332 75.7671 33.1063C75.2826 33.0206 75.0182 33.1909 74.4488 33.0462C73.8793 32.9016 72.695 32.7932 71.0952 32.893C71.0443 32.8959 70.6655 33.0309 70.1624 33.0288C69.3594 33.0253 68.2193 32.9971 67.3807 32.998C66.9792 32.9985 67.2361 33.0823 67.1665 33.0838C64.4669 33.1308 62.5454 33.0561 59.6535 33.0237C59.1233 33.0175 57.5998 33.1318 56.5734 33.0415C55.4465 32.9426 56.6045 32.5311 54.0142 32.6291C52.9694 32.6683 51.6466 33.1904 49.769 32.9199C46.1276 32.9869 42.76 32.8485 39.1084 32.9442C38.9442 32.9484 38.4249 33.0941 38.0389 33.0921C37.4658 33.0889 37.1512 33.0208 36.742 33.0163C35.0273 32.9958 33.458 33.0541 31.8047 33.045C31.177 33.0417 31.3965 32.9713 30.6479 32.9674C29.8996 32.9635 29.4007 33.0562 28.3869 33.0114C27.6211 32.9773 26.8555 32.7878 25.8391 32.7657C25.8004 32.9526 25.1024 32.9488 23.8616 32.9981C23.6231 33.0077 23.8789 33.0728 23.766 33.0807C23.3069 33.1142 22.8819 33.0603 22.446 33.0968C22.34 33.1055 22.3349 33.1694 22.2482 33.1801C21.511 33.2742 20.2964 33.1306 20.0878 33.1056C19.2882 33.0106 18.9147 33.0936 18.3014 33.0562C17.6892 33.0189 18.6046 32.9721 17.8894 32.9494C16.4069 32.9025 14.5022 32.9128 12.9967 32.9099C12.396 32.9091 12.8057 32.9943 12.7198 32.9962C11.4775 33.0178 10.2215 32.9272 9.53261 33.0969C8.67138 32.658 8.78362 33.1395 7.00796 33.0516C6.86809 33.0445 6.6902 32.837 7.22713 32.8065C7.76416 32.776 8.57834 32.8409 9.32332 32.7934C9.49984 32.7823 10.5104 32.5878 10.6483 32.576C11.7284 32.4839 11.8815 32.7941 11.9386 32.8111C12.5868 32.995 13.8216 32.7854 14.1469 32.771C15.6347 32.7046 16.8987 32.7482 18.1432 32.7009C18.9571 32.6703 19.0367 32.4671 19.6758 32.4734C21.8002 32.4939 22.5419 32.7773 24.5438 32.5316C24.9731 32.4792 24.5465 32.2571 26.0847 32.4317C26.1813 32.4427 27.3233 32.6025 27.9831 32.5014C28.066 32.4887 28.0633 32.424 28.1726 32.4185C28.905 32.3834 29.3935 32.4349 30.1914 32.4102C30.9891 32.3856 31.9485 32.3487 32.8594 32.3707C33.4083 32.3838 34.1127 32.5044 34.3755 32.5339C35.1176 32.6189 35.9131 32.4795 36.3728 32.5825C36.8364 32.686 35.9302 32.8431 37.1457 32.91C37.1908 32.7419 37.2941 32.5693 37.3666 32.4002C40.0305 32.4062 42.6516 32.4605 45.3245 32.4531C45.6559 32.452 45.317 32.3616 45.6722 32.3581C47.171 32.3438 48.4801 32.4082 50.0344 32.3825C51.2374 32.3623 52.5568 32.2666 53.8148 32.2425C54.5832 32.4349 56.45 32.3696 57.8061 32.3872C58.2811 32.3933 58.2494 32.4446 58.5872 32.4614C59.8617 32.5234 59.2645 32.3534 59.6139 32.3266C61.113 32.2124 61.2413 32.5972 63.0087 32.5877C63.1023 32.5874 64.2469 32.3823 64.4045 32.3695C65.4062 32.2862 64.5702 32.4409 65.1972 32.456C66.3417 32.4837 67.1371 32.5327 68.4799 32.4726C68.8715 32.4548 69.8108 32.327 70.5711 32.4259C70.6712 32.4388 70.6159 32.5066 70.6964 32.5106C72.1538 32.5768 72.1921 32.3637 73.025 32.2916C73.8579 32.2195 75.1444 32.3665 75.4062 32.4089C76.0912 32.5186 74.8814 32.4558 74.8443 32.4665C74.4085 32.5946 75.3468 32.5725 76.0638 32.5833C76.1675 32.7922 77.1702 32.7797 76.807 32.5937C76.7657 32.5734 76.2077 32.5929 76.0638 32.5833C76.6931 32.3784 77.7949 32.3522 79.012 32.5437C79.5816 32.6334 79.0431 32.7381 80.7736 32.6998C81.559 32.6825 81.2555 32.5387 81.9486 32.4995C83.532 32.41 85.5897 32.5442 87.222 32.523C87.8145 32.5154 87.2374 32.4366 87.6423 32.4287C88.7169 32.4073 89.6645 32.4664 90.7437 32.4361C90.8416 32.4333 90.6025 32.3509 90.9382 32.3498C93.4824 32.3403 95.6977 32.393 98.354 32.3945C99.6375 32.3952 101.932 32.3497 103.262 32.3589C105.566 32.3742 108.401 32.4941 110.369 32.4649C111.653 32.4463 111.371 32.3639 111.922 32.3077C112.983 32.1989 114.862 32.3939 115.115 32.424C115.123 32.425 114.018 32.4445 114.608 32.4868C114.951 32.575 115.103 32.4244 115.115 32.424C115.281 32.4436 117.488 32.4623 117.927 32.4465C118.165 32.4379 118.032 32.3598 118.156 32.3568C121.107 32.2869 124.063 32.2671 127.056 32.3036C127.109 32.3051 127.03 32.3925 127.154 32.3951C128.886 32.434 129.996 32.3271 131.425 32.2637C132.854 32.2002 133.987 32.2215 134.833 32.3714C135.911 32.3526 137.458 32.4189 138.348 32.4591C139.238 32.4993 139.362 32.3293 139.441 32.3259C141.883 32.2183 143.296 32.3156 145.83 32.3308C147.035 32.3383 149.425 32.3136 150.729 32.295C151.76 32.28 152.381 32.3199 153.331 32.2944C153.46 32.291 153.33 32.2153 153.369 32.2124C154.429 32.1218 153.92 32.3069 154.139 32.3399C154.932 32.4602 155.423 32.5242 156.78 32.4676C157.094 32.4547 158.006 32.1882 158.577 32.1726C159.319 32.1528 159.039 32.2483 159.816 32.2252C159.883 32.2233 159.869 32.1644 160.348 32.167C162.575 32.1783 165.002 32.2126 167.316 32.2066C167.632 32.2061 167.227 32.1126 167.683 32.1102C169.826 32.0991 172.174 32.1026 174.262 32.1463C174.776 32.1574 174.454 32.2229 174.565 32.2423C175.25 32.3599 176.221 32.189 176.381 32.1858C180.203 32.1037 183.128 32.2583 187.024 32.1847C187.236 32.1804 188.868 31.9972 189.596 32.1543C189.646 32.1647 190.366 32.3254 191.004 32.2156C191.043 32.2087 190.594 32.126 191.378 32.1344C192.161 32.1428 193.422 32.0875 194.499 32.1785C194.84 32.2071 195.646 32.3674 196.663 32.2396C196.729 32.2307 198.299 31.9417 198.859 32.1411C198.95 32.1739 198.855 32.3849 200.069 32.2767C200.301 32.2557 199.88 32.2087 200.491 32.1793C201.427 32.134 202.667 32.1905 203.818 32.0965C204.019 32.0799 204.873 31.9367 205.558 32.0454C205.666 32.0624 205.462 32.1329 205.824 32.1407C207.544 32.1785 209.346 32.1314 211.094 32.1802C211.713 32.1973 211.396 32.3111 212.041 32.3417C212.687 32.3722 213.986 32.4015 214.662 32.3495C215.337 32.2974 214.599 32.1159 215.611 32.1014C220.009 32.0384 224.365 32.1448 228.756 32.1604C229.408 32.1627 228.868 32.0978 229.828 32.0965C233.366 32.0917 239.476 32.0308 242.547 32.1688C245.007 32.2793 241.911 32.3635 243.791 32.4084C244.698 32.4299 245.679 32.2189 245.898 32.2123C248.038 32.1448 249.525 32.2383 251.45 32.2096C251.848 32.2036 251.458 32.1181 251.797 32.114C252.952 32.0992 254.167 32.1373 255.272 32.1304C255.768 32.127 255.676 32.0617 256.132 32.0668C257.223 32.0781 258.188 32.1055 259.252 32.1667C259.349 32.1723 258.695 32.2536 259.502 32.2566C260.809 32.2612 262.431 32.3216 263.934 32.2593C264.38 32.2405 264.397 32.0912 265.356 32.1943C265.557 32.2159 265.3 32.3951 266.417 32.2402C266.605 32.2145 268.481 32.0056 269.402 32.1403C269.644 32.1757 270.264 32.3224 270.801 32.2993C270.873 32.2956 270.582 32.2155 271.026 32.2076C272.593 32.1815 274.234 32.19 275.843 32.1649C276.273 32.158 275.633 32.0751 276.274 32.0675C278.035 32.0465 280.234 32.0677 281.956 32.0936C282.591 32.1034 282.152 32.1721 282.198 32.1796C282.941 32.3012 283.38 32.137 283.627 32.1274C285.16 32.0701 286.328 32.1472 287.742 32.1268C288.132 32.1214 287.855 32.0431 287.933 32.0361C288.738 31.9679 288.138 32.1085 288.648 32.124C290.076 32.1679 291.668 32.1616 293.112 32.1516C293.643 32.1478 293.047 32.057 293.523 32.0547C296.34 32.039 299.27 32.0477 302.02 32.0978C302.537 32.1074 302.212 32.1773 302.319 32.1932C303.063 32.3049 304.153 32.1526 304.404 32.1381C305.545 32.0718 305.988 32.1336 306.995 32.1221C311.915 32.0646 317.99 32.1056 322.634 32.1309C328.686 32.1634 333.382 32.2299 339.153 32.2126C339.52 32.2116 339.15 32.1186 339.466 32.1166C343.548 32.0942 347.567 32.1305 351.657 32.1036C351.993 32.1016 351.509 32.0134 352.048 32.0072C353.153 31.9938 354.553 31.9986 355.67 32.0267C356.215 32.0403 355.484 32.1159 356.033 32.1281C357.31 32.1564 358.679 32.1627 359.991 32.1486C360.549 32.1424 359.707 32.0522 360.433 32.0511C365.376 32.0422 370.231 32.0267 375.227 32.1434C375.569 32.1515 375.869 32.3347 376.598 32.2996C376.652 32.2487 376.649 32.1889 376.673 32.1345C383.87 32.1052 390.992 32.1688 398.209 32.1786C398.513 32.179 397.987 32.0819 398.576 32.0822C401.986 32.0836 405.296 32.0567 408.784 32.1532C409.13 32.1626 408.952 32.3335 409.972 32.3076C410.152 32.3029 411.688 32.2801 412.085 32.243C412.139 32.2375 411.858 32.1577 412.353 32.1554C415.229 32.1433 418.243 32.1615 421.114 32.2102C421.577 32.2182 421.084 32.3031 421.414 32.3096C423.755 32.3546 426.301 32.2901 428.538 32.3672C430.035 32.4191 429.481 32.5659 430.276 32.7103C430.389 32.7307 431.316 32.7339 431.364 32.818C431.487 33.0294 431.038 33.2608 431.222 33.4861C431.261 33.5346 432.503 33.4823 431.768 33.5996C431.716 33.6075 430.816 33.6464 430.594 33.6862C430.44 33.7137 430.718 33.7991 430.403 33.8344C430.088 33.8695 429.742 33.7979 429.22 33.8392C428.698 33.8811 428.928 33.9784 427.885 33.9899ZM142.356 32.6389C143.18 32.7206 143.302 32.4215 142.41 32.493C142.367 32.4968 142.313 32.6349 142.356 32.6389ZM42.6367 32.6861C43.7142 32.818 44.4515 32.6241 43.6914 32.5222C42.9313 32.4204 42.3084 32.6461 42.6367 32.6861ZM31.4636 32.7824C32.7229 32.8865 32.9211 32.4623 31.5724 32.5481C31.4939 32.5529 31.39 32.7764 31.4636 32.7824ZM426.587 32.7515C426.598 32.7554 427.264 32.7593 427.28 32.7554C427.635 32.6604 426.303 32.6527 426.587 32.7515ZM20.3762 32.8873C20.7692 32.9447 21.9012 32.8784 21.4127 32.8071C21.0195 32.7497 19.8865 32.8159 20.3762 32.8873ZM185.349 32.9581C185.362 32.9626 185.84 32.9666 185.831 32.9414C185.798 32.8602 185.133 32.8831 185.349 32.9581ZM1.53182 32.8922C4.31605 32.9081 6.00401 33.2585 2.97213 33.219C2.42315 33.2118 4.15542 33.1072 3.45662 33.0756C2.17798 33.0181 1.32882 33.2381 0.0239468 33.1202C-0.212305 33.0986 1.37302 32.8905 1.53676 32.8917C1.53512 32.8919 1.53347 32.892 1.53182 32.8922ZM142.831 32.9981C142.847 33.0021 143.509 33.0059 143.524 33.0019C143.883 32.907 142.55 32.8994 142.831 32.9981ZM213.231 33.143C213.268 33.1515 214.803 33.1594 214.853 33.1516C215.653 32.9963 212.55 32.9799 213.231 33.143ZM98.2831 33.217C97.5613 33.3125 96.698 33.3238 96.1226 33.2038C96.84 33.2102 97.5619 33.2111 98.2831 33.217Z" fill="#8F882A"/>
</svg>
