<svg width="213" height="50" viewBox="0 0 213 50" fill="none" xmlns="http://www.w3.org/2000/svg">
<path id="Vector 6" d="M210.971 17.9898C209.778 18.0159 208.213 17.988 207.024 17.9498C206.651 17.938 206.84 17.8849 206.583 17.8744C206.08 17.8538 205.611 17.8798 205.114 17.8552C204.949 17.8468 205.154 17.7628 204.981 17.756C204.034 17.7189 203.139 17.7402 202.18 17.7224C197.455 17.6343 192.811 17.6028 188.029 17.5646C186.453 17.552 184.536 17.4758 182.907 17.5091C182.717 17.5131 182.83 17.5868 182.794 17.5929C182.227 17.6859 182.415 17.5371 182.045 17.5173C180.575 17.4393 178.94 17.4325 177.525 17.4609C176.923 17.4732 177.526 17.6196 176.92 17.5375C176.878 17.5319 177.031 17.4536 176.866 17.4453C176.492 17.4265 175.781 17.4405 175.491 17.4343C174.932 17.422 174.839 17.4227 174.311 17.4219C173.587 17.42 172.728 17.381 171.952 17.3988C171.786 17.4028 172.005 17.483 171.741 17.4967C171.477 17.5103 170.778 17.5035 170.542 17.4846C170.306 17.4657 170.407 17.4026 170.365 17.3882C170.022 17.2662 169.213 17.4351 169.109 17.4393C167.211 17.5105 165.584 17.4143 163.803 17.4145C162.451 17.4149 161.005 17.4467 159.718 17.4424C158.185 17.4369 156.886 17.3934 155.397 17.4009C155.24 17.4016 155.424 17.4959 155.232 17.4969C153.193 17.5079 151.168 17.4976 149.137 17.4339C148.934 17.4275 149.196 17.3446 148.993 17.3332C147.747 17.2652 145.776 17.1017 145.037 17.4623C144.193 17.4482 143.169 17.4336 142.414 17.3609C141.927 17.3142 142.4 17.2239 141.802 17.2624C141.667 17.271 141.842 17.35 141.64 17.3569C140.789 17.3858 139.859 17.3602 139.017 17.401C138.845 17.4095 138.892 17.4803 138.844 17.493C138.436 17.5963 137.757 17.4256 137.608 17.4132C136.481 17.3207 135.658 17.3571 134.608 17.3548C134.364 17.3543 134.652 17.4494 134.418 17.4522C133.201 17.4659 131.942 17.4577 130.751 17.4155C130.486 17.4059 130.729 17.3249 130.603 17.3161C130.045 17.2786 129.921 17.4316 129.386 17.3985C129.273 17.3918 129.336 17.3224 129.316 17.3148C128.994 17.1952 128.714 17.3646 128.631 17.3684C127.583 17.4195 126.913 17.2426 125.9 17.2677C125.779 17.2709 126.052 17.3586 125.711 17.3622C123.443 17.3864 121.043 17.3623 118.798 17.2921C118.448 17.2813 118.698 17.2154 118.676 17.2073C118.318 17.0803 118.086 17.2504 117.972 17.2568C117.074 17.3029 116.235 17.1603 115.625 17.3629C111.821 17.2926 108.034 17.4064 104.262 17.2248C104.214 17.2227 104.3 17.1389 104.204 17.1351C103.052 17.0881 103.273 17.2183 102.511 17.3775C102.319 17.4175 101.735 17.2252 101.683 17.2112C101.495 17.1592 101.69 17.0346 101.627 17.0245C101.105 16.9455 101.19 17.3577 100.486 17.3579C100.464 17.3572 100.557 17.2813 100.498 17.2738C100.314 17.2501 100.132 17.2802 99.9525 17.2541C99.5413 17.1937 99.3949 16.9934 98.767 17.11C98.6875 17.1251 98.8088 17.3589 98.1803 17.3479C97.9298 17.3433 96.8206 17.3473 96.5098 17.3321C96.1993 17.317 96.4124 17.2416 96.3903 17.2384C95.5538 17.1387 95.871 17.0974 95.4518 16.9499C95.0328 16.803 95.149 17.1535 94.9781 17.1926C94.807 17.2316 94.1937 17.1494 94.0429 17.1208C93.8923 17.0922 94.0801 17.0444 93.9462 17.0282C93.058 16.9225 93.5564 17.2022 93.2637 17.2578C92.5737 17.3895 92.0363 17.1296 91.4046 17.1041C91.2337 17.0972 91.3732 17.1564 91.221 17.162C90.6182 17.1831 90.2557 17.102 89.5699 17.1764C89.4578 17.1885 88.9033 17.3448 88.5445 17.2301C88.4937 17.2135 88.6381 17.1488 88.3812 17.1342C87.9974 17.1125 87.306 17.0983 86.8934 17.12C86.5889 17.136 86.938 17.2427 86.5546 17.2096C86.3842 17.1948 86.7 17.1323 86.3799 17.1097C86.0615 17.0871 85.2475 17.0899 84.9377 17.092C84.6285 17.0942 84.7977 17.1752 84.7727 17.1806C84.6215 17.2119 84.0281 17.2509 83.9756 17.2508C81.3305 17.2607 78.8913 17.1242 76.3159 17.1694C76.1138 17.1728 76.2484 17.2582 76.2176 17.2596C75.5257 17.2954 76.0712 17.0684 75.5879 16.9924C75.6577 17.1657 75.3724 17.1343 74.885 17.1533C74.6502 17.1626 74.7781 17.2297 74.7566 17.2365C74.4084 17.3384 74.1658 17.2068 74.1034 17.1799C73.8727 17.0809 73.6217 17.1979 73.4647 17.1317C73.3078 17.066 73.6689 16.9686 73.2015 16.9698C73.0704 17.0318 73.4174 17.1939 73.0625 17.2202C71.7235 17.3195 69.2241 17.1924 68.1475 17.1792C67.0731 17.166 66.726 17.1774 66.0999 17.155C64.969 17.1145 65.3835 17.2347 64.6812 17.2898C63.977 17.3448 64.3193 17.0489 64.2181 16.9853C64.1188 16.9217 64.0102 16.9872 63.8866 16.9522C63.7634 16.9173 64.0302 16.8741 63.7403 16.8609C63.4504 16.8478 62.6576 16.9609 62.5548 17.0274C62.3376 17.1683 62.6948 17.3162 61.9276 17.2643C61.8834 17.2612 62.0267 17.1834 61.8577 17.1755C60.5157 17.1156 59.1216 17.1119 57.7812 17.0589C57.5969 17.0515 57.7617 16.965 57.6545 16.9597C56.5373 16.9043 56.9366 17.0503 56.3244 17.2124C56.4618 16.9966 56.1232 16.8646 55.2754 16.8634C54.7657 16.8625 54.8535 16.9568 54.5238 17.0232C54.4249 17.0432 54.0642 16.9785 53.9989 17.0228C53.7834 17.1676 54.1231 17.3298 53.2489 17.2652C53.2106 17.2622 53.3327 17.1829 53.2002 17.1781C52.3435 17.1466 52.241 17.2981 51.3151 17.3165C50.5893 17.3309 49.2985 17.2385 48.472 17.2235C48.4894 16.9809 47.7089 17.0365 47.3922 17.2037C46.8559 17.1969 46.2766 17.2063 45.7582 17.1832C45.5798 17.1753 45.697 17.1051 45.6745 17.0975C45.3295 16.9785 45.0964 17.1412 44.9806 17.1476C43.7259 17.2096 42.7036 17.0862 41.5062 17.2068C41.4637 17.2111 41.3949 17.3796 41.0748 17.2566C41.0541 17.2481 41.4495 17.1714 40.8862 17.1655C40.3229 17.1596 39.2608 17.0692 38.4787 17.1473C38.2895 17.1661 37.8107 17.3029 37.4265 17.196C37.3753 17.1815 37.4313 17.1332 37.3574 17.1063C37.1185 17.0206 36.9881 17.1909 36.7074 17.0462C36.4266 16.9016 35.8427 16.7932 35.0539 16.893C35.0288 16.8959 34.842 17.0309 34.594 17.0288C34.198 17.0253 33.6359 16.9971 33.2224 16.998C33.0245 16.9985 33.1512 17.0823 33.1168 17.0838C31.7857 17.1308 30.8384 17.0561 29.4125 17.0236C29.1511 17.0175 28.3999 17.1318 27.8938 17.0415C27.3382 16.9426 27.9092 16.5311 26.632 16.6291C26.1169 16.6683 25.4646 17.1903 24.5389 16.9199C22.7435 16.9869 21.083 16.8485 19.2826 16.9442C19.2017 16.9484 18.9457 17.0941 18.7553 17.0921C18.4727 17.0889 18.3176 17.0208 18.1158 17.0163C17.2704 16.9958 16.4967 17.0541 15.6815 17.045C15.372 17.0417 15.4802 16.9713 15.1111 16.9674C14.7422 16.9635 14.4962 17.0562 13.9963 17.0114C13.6187 16.9773 13.2413 16.7878 12.7401 16.7657C12.721 16.9526 12.3769 16.9488 11.7651 16.9981C11.6475 17.0077 11.7736 17.0728 11.718 17.0807C11.4916 17.1142 11.2821 17.0603 11.0671 17.0968C11.0148 17.1055 11.0124 17.1694 10.9696 17.1801C10.6061 17.2742 10.0073 17.1306 9.90439 17.1056C9.51016 17.0106 9.32598 17.0936 9.02361 17.0562C8.7217 17.0189 9.17313 16.9721 8.82046 16.9494C8.08956 16.9025 7.15041 16.9128 6.40806 16.9099C6.11186 16.9091 6.31395 16.9943 6.27155 16.9962C5.65908 17.0178 5.0397 16.9272 4.70012 17.0969C4.27547 16.658 4.33077 17.1395 3.45532 17.0516C3.38637 17.0445 3.29862 16.837 3.56339 16.8065C3.82812 16.776 4.2296 16.8409 4.59693 16.7934C4.68389 16.7823 5.18224 16.5878 5.2502 16.576C5.78278 16.4839 5.85821 16.7941 5.88642 16.8111C6.20595 16.995 6.81486 16.7854 6.97521 16.771C7.70877 16.7046 8.33205 16.7482 8.94561 16.7009C9.34684 16.6703 9.38618 16.4671 9.70125 16.4734C10.7488 16.4939 11.1144 16.7773 12.1015 16.5316C12.3131 16.4792 12.1028 16.2571 12.8612 16.4317C12.9088 16.4427 13.4719 16.6025 13.7972 16.5014C13.8381 16.4887 13.8368 16.424 13.8907 16.4185C14.2518 16.3834 14.4926 16.4349 14.886 16.4102C15.2794 16.3856 15.7524 16.3487 16.2015 16.3707C16.4722 16.3838 16.8195 16.5044 16.949 16.5339C17.3149 16.6189 17.7072 16.4795 17.9338 16.5825C18.1624 16.686 17.7155 16.8431 18.3149 16.91C18.3371 16.7419 18.3881 16.5693 18.4238 16.4002C19.7373 16.4062 21.0296 16.4605 22.3475 16.4531C22.5109 16.452 22.3438 16.3616 22.519 16.3581C23.2579 16.3438 23.9033 16.4082 24.6697 16.3825C25.2629 16.3623 25.9134 16.2666 26.5337 16.2425C26.9126 16.4349 27.833 16.3696 28.5016 16.3872C28.7359 16.3933 28.7202 16.4446 28.8868 16.4614C29.5152 16.5234 29.2207 16.3534 29.393 16.3266C30.1321 16.2124 30.1954 16.5972 31.0668 16.5877C31.1129 16.5874 31.6773 16.3822 31.755 16.3695C32.2489 16.2862 31.8368 16.4409 32.1458 16.456C32.7101 16.4837 33.1023 16.5327 33.7644 16.4726C33.9575 16.4548 34.4206 16.327 34.7955 16.4259C34.8448 16.4388 34.8176 16.5066 34.8573 16.5106C35.5758 16.5768 35.5947 16.3637 36.0054 16.2916C36.4161 16.2195 37.0504 16.3665 37.1795 16.4089C37.5172 16.5186 36.9207 16.4558 36.9024 16.4665C36.6876 16.5946 37.1502 16.5725 37.5037 16.5833C37.5548 16.7922 38.0492 16.7797 37.8701 16.5937C37.8498 16.5734 37.5746 16.5929 37.5037 16.5833C37.8139 16.3784 38.3572 16.3522 38.9573 16.5437C39.2381 16.6334 38.9727 16.7381 39.8259 16.6998C40.2131 16.6825 40.0635 16.5387 40.4052 16.4995C41.1859 16.41 42.2004 16.5442 43.0053 16.523C43.2974 16.5154 43.0129 16.4366 43.2125 16.4287C43.7423 16.4073 44.2096 16.4664 44.7417 16.4361C44.7899 16.4333 44.6721 16.3509 44.8376 16.3498C46.092 16.3403 47.1842 16.393 48.494 16.3945C49.1268 16.3952 50.2581 16.3497 50.9137 16.3589C52.0498 16.3742 53.4476 16.494 54.4182 16.4649C55.0512 16.4463 54.9123 16.3639 55.1835 16.3077C55.707 16.1988 56.6335 16.3938 56.7582 16.424C56.762 16.425 56.2173 16.4445 56.508 16.4868C56.677 16.575 56.7521 16.4244 56.7582 16.424C56.8402 16.4436 57.9283 16.4623 58.1444 16.4465C58.2618 16.4379 58.1962 16.3598 58.2574 16.3568C59.7124 16.2869 61.1701 16.267 62.6459 16.3036C62.6718 16.3051 62.6327 16.3925 62.6938 16.3951C63.5481 16.434 64.0952 16.3271 64.7999 16.2636C65.5044 16.2002 66.0631 16.2215 66.4802 16.3714C67.0117 16.3526 67.7744 16.4189 68.2133 16.4591C68.6522 16.4993 68.7135 16.3293 68.752 16.3259C69.9565 16.2183 70.6526 16.3156 71.9022 16.3308C72.4963 16.3383 73.6746 16.3136 74.3179 16.295C74.8262 16.28 75.1325 16.3199 75.6009 16.2944C75.6642 16.291 75.6002 16.2153 75.6196 16.2124C76.1423 16.1218 75.8911 16.3069 75.999 16.3399C76.3903 16.4602 76.6321 16.5242 77.3015 16.4676C77.4559 16.4547 77.9057 16.1882 78.1871 16.1726C78.5531 16.1528 78.415 16.2483 78.7982 16.2252C78.831 16.2233 78.8241 16.1644 79.0606 16.167C80.1584 16.1783 81.3552 16.2125 82.496 16.2066C82.6518 16.2061 82.4521 16.1126 82.6772 16.1102C83.7337 16.0991 84.8916 16.1026 85.9208 16.1463C86.1742 16.1574 86.0154 16.2229 86.0703 16.2423C86.4079 16.3599 86.8868 16.189 86.9658 16.1858C88.8502 16.1037 90.2924 16.2583 92.2131 16.1847C92.3176 16.1803 93.1224 15.9972 93.4814 16.1543C93.506 16.1647 93.8613 16.3254 94.1753 16.2156C94.1949 16.2087 93.9735 16.1259 94.3598 16.1344C94.7461 16.1428 95.3678 16.0875 95.8987 16.1784C96.0668 16.2071 96.4641 16.3674 96.9656 16.2396C96.9983 16.2307 97.7724 15.9417 98.0487 16.1411C98.0935 16.1739 98.0466 16.3849 98.6451 16.2767C98.7594 16.2557 98.5518 16.2087 98.8531 16.1793C99.3146 16.134 99.9262 16.1905 100.494 16.0965C100.593 16.0799 101.014 15.9367 101.352 16.0454C101.405 16.0624 101.304 16.1328 101.482 16.1407C102.331 16.1785 103.219 16.1314 104.081 16.1802C104.386 16.1973 104.23 16.3111 104.548 16.3417C104.866 16.3722 105.507 16.4015 105.84 16.3495C106.173 16.2974 105.809 16.1159 106.308 16.1014C108.476 16.0384 110.624 16.1448 112.79 16.1604C113.111 16.1627 112.845 16.0978 113.318 16.0965C115.063 16.0917 118.075 16.0308 119.589 16.1688C120.802 16.2793 119.275 16.3635 120.202 16.4084C120.65 16.4299 121.134 16.2189 121.242 16.2123C122.297 16.1448 123.03 16.2382 123.979 16.2096C124.175 16.2036 123.983 16.1181 124.15 16.114C124.72 16.0992 125.319 16.1373 125.863 16.1304C126.108 16.127 126.063 16.0617 126.287 16.0668C126.825 16.0781 127.301 16.1055 127.826 16.1667C127.873 16.1723 127.551 16.2535 127.949 16.2566C128.593 16.2612 129.393 16.3216 130.134 16.2593C130.354 16.2405 130.362 16.0912 130.835 16.1943C130.934 16.2158 130.808 16.3951 131.358 16.2402C131.451 16.2145 132.376 16.0056 132.83 16.1402C132.95 16.1757 133.255 16.3223 133.52 16.2993C133.556 16.2956 133.412 16.2154 133.631 16.2076C134.403 16.1815 135.213 16.19 136.006 16.1649C136.218 16.158 135.902 16.0751 136.218 16.0675C137.087 16.0465 138.171 16.0676 139.02 16.0936C139.333 16.1033 139.116 16.1721 139.139 16.1795C139.506 16.3012 139.722 16.137 139.844 16.1274C140.6 16.0701 141.176 16.1472 141.873 16.1268C142.065 16.1214 141.929 16.0431 141.967 16.0361C142.364 15.9679 142.068 16.1085 142.32 16.124C143.024 16.1679 143.809 16.1616 144.521 16.1516C144.782 16.1478 144.488 16.057 144.723 16.0547C146.112 16.039 147.557 16.0477 148.912 16.0978C149.168 16.1073 149.007 16.1773 149.06 16.1932C149.427 16.3049 149.964 16.1526 150.088 16.138C150.65 16.0718 150.869 16.1336 151.365 16.1221C153.791 16.0646 156.787 16.1055 159.076 16.1308C162.06 16.1634 164.376 16.2299 167.221 16.2126C167.402 16.2116 167.22 16.1186 167.376 16.1166C169.388 16.0941 171.37 16.1305 173.387 16.1036C173.552 16.1016 173.314 16.0134 173.579 16.0072C174.124 15.9938 174.814 15.9986 175.365 16.0267C175.634 16.0403 175.273 16.1159 175.544 16.128C176.174 16.1564 176.849 16.1627 177.496 16.1485C177.771 16.1423 177.356 16.0522 177.713 16.0511C180.151 16.0422 182.544 16.0267 185.008 16.1434C185.176 16.1514 185.325 16.3347 185.684 16.2995C185.711 16.2487 185.709 16.1889 185.721 16.1345C189.269 16.1052 192.781 16.1688 196.339 16.1786C196.489 16.179 196.23 16.0819 196.52 16.0821C198.201 16.0836 199.834 16.0567 201.553 16.1532C201.724 16.1626 201.636 16.3334 202.139 16.3076C202.228 16.3029 202.985 16.2801 203.181 16.243C203.207 16.2374 203.069 16.1577 203.313 16.1554C204.731 16.1433 206.217 16.1615 207.632 16.2102C207.861 16.2182 207.618 16.3031 207.78 16.3096C208.935 16.3546 210.19 16.2901 211.293 16.3672C212.031 16.4191 211.758 16.5658 212.15 16.7103C212.206 16.7307 212.663 16.7339 212.686 16.818C212.747 17.0293 212.526 17.2608 212.617 17.4861C212.636 17.5346 213.248 17.4823 212.885 17.5996C212.86 17.6074 212.416 17.6464 212.307 17.6861C212.231 17.7136 212.368 17.7991 212.213 17.8343C212.057 17.8695 211.887 17.7978 211.629 17.8392C211.372 17.8811 211.485 17.9783 210.971 17.9898ZM70.1894 16.6389C70.5958 16.7206 70.6557 16.4215 70.2162 16.493C70.1949 16.4968 70.1684 16.6349 70.1894 16.6389ZM21.0223 16.6861C21.5535 16.818 21.9171 16.6241 21.5423 16.5222C21.1676 16.4204 20.8604 16.6461 21.0223 16.6861ZM15.5133 16.7824C16.1342 16.8865 16.2319 16.4623 15.5669 16.5481C15.5282 16.5529 15.477 16.7764 15.5133 16.7824ZM210.331 16.7514C210.337 16.7554 210.665 16.7593 210.673 16.7554C210.848 16.6604 210.191 16.6527 210.331 16.7514ZM10.0466 16.8873C10.2404 16.9447 10.7985 16.8784 10.5577 16.8071C10.3638 16.7497 9.80516 16.8159 10.0466 16.8873ZM91.3876 16.9581C91.394 16.9626 91.6295 16.9666 91.6248 16.9414C91.6088 16.8602 91.2809 16.8831 91.3876 16.9581ZM0.755285 16.8922C2.128 16.9081 2.96036 17.2585 1.46542 17.219C1.19472 17.2118 2.04885 17.1072 1.70432 17.0756C1.07385 17.0181 0.655189 17.2381 0.0118071 17.1202C-0.104633 17.0986 0.676931 16.8905 0.75771 16.8917C0.756891 16.8919 0.756105 16.892 0.755285 16.8922ZM70.4234 16.9981C70.4316 17.0021 70.7576 17.0058 70.7655 17.0019C70.9421 16.907 70.2851 16.8994 70.4234 16.9981ZM105.135 17.143C105.153 17.1515 105.91 17.1594 105.934 17.1516C106.329 16.9963 104.799 16.9799 105.135 17.143ZM48.459 17.217C48.1032 17.3125 47.6775 17.3238 47.3938 17.2038C47.7474 17.2102 48.1035 17.2111 48.459 17.217Z" fill="#8F882A"/>
<path id="Vector 8" d="M210.971 33.9898C209.778 34.0159 208.213 33.988 207.024 33.9498C206.651 33.938 206.84 33.8849 206.583 33.8744C206.08 33.8538 205.611 33.8798 205.114 33.8552C204.949 33.8468 205.154 33.7628 204.981 33.756C204.034 33.7189 203.139 33.7402 202.18 33.7224C197.455 33.6343 192.811 33.6028 188.029 33.5646C186.453 33.552 184.536 33.4758 182.907 33.5091C182.717 33.5131 182.83 33.5868 182.794 33.5929C182.227 33.6859 182.415 33.5371 182.045 33.5173C180.575 33.4393 178.94 33.4325 177.525 33.4609C176.923 33.4732 177.526 33.6196 176.92 33.5375C176.878 33.5319 177.031 33.4536 176.866 33.4453C176.492 33.4265 175.781 33.4405 175.491 33.4343C174.932 33.422 174.839 33.4227 174.311 33.4219C173.587 33.42 172.728 33.381 171.952 33.3988C171.786 33.4028 172.005 33.483 171.741 33.4967C171.477 33.5103 170.778 33.5035 170.542 33.4846C170.306 33.4657 170.407 33.4026 170.365 33.3882C170.022 33.2662 169.213 33.4351 169.109 33.4393C167.211 33.5105 165.584 33.4143 163.803 33.4145C162.451 33.4149 161.005 33.4467 159.718 33.4424C158.185 33.4369 156.886 33.3934 155.397 33.4009C155.24 33.4016 155.424 33.4959 155.232 33.4969C153.193 33.5079 151.168 33.4976 149.137 33.4339C148.934 33.4275 149.196 33.3446 148.993 33.3332C147.747 33.2652 145.776 33.1017 145.037 33.4623C144.193 33.4482 143.169 33.4336 142.414 33.3609C141.927 33.3142 142.4 33.2239 141.802 33.2624C141.667 33.271 141.842 33.35 141.64 33.3569C140.789 33.3858 139.859 33.3602 139.017 33.401C138.845 33.4095 138.892 33.4803 138.844 33.493C138.436 33.5963 137.757 33.4256 137.608 33.4132C136.481 33.3207 135.658 33.3571 134.608 33.3548C134.364 33.3543 134.652 33.4494 134.418 33.4522C133.201 33.4659 131.942 33.4577 130.751 33.4155C130.486 33.4059 130.729 33.3249 130.603 33.3161C130.045 33.2786 129.921 33.4316 129.386 33.3985C129.273 33.3918 129.336 33.3224 129.316 33.3148C128.994 33.1952 128.714 33.3646 128.631 33.3684C127.583 33.4195 126.913 33.2426 125.9 33.2677C125.779 33.2709 126.052 33.3586 125.711 33.3622C123.443 33.3864 121.043 33.3623 118.798 33.2921C118.448 33.2813 118.698 33.2154 118.676 33.2073C118.318 33.0803 118.086 33.2504 117.972 33.2568C117.074 33.3029 116.235 33.1603 115.625 33.3629C111.821 33.2926 108.034 33.4064 104.262 33.2248C104.214 33.2227 104.3 33.1389 104.204 33.1351C103.052 33.0881 103.273 33.2183 102.511 33.3775C102.319 33.4175 101.735 33.2252 101.683 33.2112C101.495 33.1592 101.69 33.0346 101.627 33.0245C101.105 32.9455 101.19 33.3577 100.486 33.3579C100.464 33.3572 100.557 33.2813 100.498 33.2738C100.314 33.2501 100.132 33.2802 99.9525 33.2541C99.5413 33.1937 99.3949 32.9934 98.767 33.11C98.6875 33.1251 98.8088 33.3589 98.1803 33.3479C97.9298 33.3433 96.8206 33.3473 96.5098 33.3321C96.1993 33.317 96.4124 33.2416 96.3903 33.2384C95.5538 33.1387 95.871 33.0974 95.4518 32.9499C95.0328 32.803 95.149 33.1535 94.9781 33.1926C94.807 33.2316 94.1937 33.1494 94.0429 33.1208C93.8923 33.0922 94.0801 33.0444 93.9462 33.0282C93.058 32.9225 93.5564 33.2022 93.2637 33.2578C92.5737 33.3895 92.0363 33.1296 91.4046 33.1041C91.2337 33.0972 91.3732 33.1564 91.221 33.162C90.6182 33.1831 90.2557 33.102 89.5699 33.1764C89.4578 33.1885 88.9033 33.3448 88.5445 33.2301C88.4937 33.2135 88.6381 33.1488 88.3812 33.1342C87.9974 33.1125 87.306 33.0983 86.8934 33.12C86.5889 33.136 86.938 33.2427 86.5546 33.2096C86.3842 33.1948 86.7 33.1323 86.3799 33.1097C86.0615 33.0871 85.2475 33.0899 84.9377 33.092C84.6285 33.0942 84.7977 33.1752 84.7727 33.1806C84.6215 33.2119 84.0281 33.2509 83.9756 33.2508C81.3305 33.2607 78.8913 33.1242 76.3159 33.1694C76.1138 33.1728 76.2484 33.2582 76.2176 33.2596C75.5257 33.2954 76.0712 33.0684 75.5879 32.9924C75.6577 33.1657 75.3724 33.1343 74.885 33.1533C74.6502 33.1626 74.7781 33.2297 74.7566 33.2365C74.4084 33.3384 74.1658 33.2068 74.1034 33.1799C73.8727 33.0809 73.6217 33.1979 73.4647 33.1317C73.3078 33.066 73.6689 32.9686 73.2015 32.9698C73.0704 33.0318 73.4174 33.1939 73.0625 33.2202C71.7235 33.3195 69.2241 33.1924 68.1475 33.1792C67.0731 33.166 66.726 33.1774 66.0999 33.155C64.969 33.1145 65.3835 33.2347 64.6812 33.2898C63.977 33.3448 64.3193 33.0489 64.2181 32.9853C64.1188 32.9217 64.0102 32.9872 63.8866 32.9522C63.7634 32.9173 64.0302 32.8741 63.7403 32.8609C63.4504 32.8478 62.6576 32.9609 62.5548 33.0274C62.3376 33.1683 62.6948 33.3162 61.9276 33.2643C61.8834 33.2612 62.0267 33.1834 61.8577 33.1755C60.5157 33.1156 59.1216 33.1119 57.7812 33.0589C57.5969 33.0515 57.7617 32.965 57.6545 32.9597C56.5373 32.9043 56.9366 33.0503 56.3244 33.2124C56.4618 32.9966 56.1232 32.8646 55.2754 32.8634C54.7657 32.8625 54.8535 32.9568 54.5238 33.0232C54.4249 33.0432 54.0642 32.9785 53.9989 33.0228C53.7834 33.1676 54.1231 33.3298 53.2489 33.2652C53.2106 33.2622 53.3327 33.1829 53.2002 33.1781C52.3435 33.1466 52.241 33.2981 51.3151 33.3165C50.5893 33.3309 49.2985 33.2385 48.472 33.2235C48.4894 32.9809 47.7089 33.0365 47.3922 33.2037C46.8559 33.1969 46.2766 33.2063 45.7582 33.1832C45.5798 33.1753 45.697 33.1051 45.6745 33.0975C45.3295 32.9785 45.0964 33.1412 44.9806 33.1476C43.7259 33.2096 42.7036 33.0862 41.5062 33.2068C41.4637 33.2111 41.3949 33.3796 41.0748 33.2566C41.0541 33.2481 41.4495 33.1714 40.8862 33.1655C40.3229 33.1596 39.2608 33.0692 38.4787 33.1473C38.2895 33.1661 37.8107 33.3029 37.4265 33.196C37.3753 33.1815 37.4313 33.1332 37.3574 33.1063C37.1185 33.0206 36.9881 33.1909 36.7074 33.0462C36.4266 32.9016 35.8427 32.7932 35.0539 32.893C35.0288 32.8959 34.842 33.0309 34.594 33.0288C34.198 33.0253 33.6359 32.9971 33.2224 32.998C33.0245 32.9985 33.1512 33.0823 33.1168 33.0838C31.7857 33.1308 30.8384 33.0561 29.4125 33.0236C29.1511 33.0175 28.3999 33.1318 27.8938 33.0415C27.3382 32.9426 27.9092 32.5311 26.632 32.6291C26.1169 32.6683 25.4646 33.1903 24.5389 32.9199C22.7435 32.9869 21.083 32.8485 19.2826 32.9442C19.2017 32.9484 18.9457 33.0941 18.7553 33.0921C18.4727 33.0889 18.3176 33.0208 18.1158 33.0163C17.2704 32.9958 16.4967 33.0541 15.6815 33.045C15.372 33.0417 15.4802 32.9713 15.1111 32.9674C14.7422 32.9635 14.4962 33.0562 13.9963 33.0114C13.6187 32.9773 13.2413 32.7878 12.7401 32.7657C12.721 32.9526 12.3769 32.9488 11.7651 32.9981C11.6475 33.0077 11.7736 33.0728 11.718 33.0807C11.4916 33.1142 11.2821 33.0603 11.0671 33.0968C11.0148 33.1055 11.0124 33.1694 10.9696 33.1801C10.6061 33.2742 10.0073 33.1306 9.90439 33.1056C9.51016 33.0106 9.32598 33.0936 9.02361 33.0562C8.7217 33.0189 9.17313 32.9721 8.82046 32.9494C8.08956 32.9025 7.15041 32.9128 6.40806 32.9099C6.11186 32.9091 6.31395 32.9943 6.27155 32.9962C5.65908 33.0178 5.0397 32.9272 4.70012 33.0969C4.27547 32.658 4.33077 33.1395 3.45532 33.0516C3.38637 33.0445 3.29862 32.837 3.56339 32.8065C3.82812 32.776 4.2296 32.8409 4.59693 32.7934C4.68389 32.7823 5.18224 32.5878 5.2502 32.576C5.78278 32.4839 5.85821 32.7941 5.88642 32.8111C6.20595 32.995 6.81486 32.7854 6.97521 32.771C7.70877 32.7046 8.33205 32.7482 8.94561 32.7009C9.34684 32.6703 9.38618 32.4671 9.70125 32.4734C10.7488 32.4939 11.1144 32.7773 12.1015 32.5316C12.3131 32.4792 12.1028 32.2571 12.8612 32.4317C12.9088 32.4427 13.4719 32.6025 13.7972 32.5014C13.8381 32.4887 13.8368 32.424 13.8907 32.4185C14.2518 32.3834 14.4926 32.4349 14.886 32.4102C15.2794 32.3856 15.7524 32.3487 16.2015 32.3707C16.4722 32.3838 16.8195 32.5044 16.949 32.5339C17.3149 32.6189 17.7072 32.4795 17.9338 32.5825C18.1624 32.686 17.7155 32.8431 18.3149 32.91C18.3371 32.7419 18.3881 32.5693 18.4238 32.4002C19.7373 32.4062 21.0296 32.4605 22.3475 32.4531C22.5109 32.452 22.3438 32.3616 22.519 32.3581C23.2579 32.3438 23.9033 32.4082 24.6697 32.3825C25.2629 32.3623 25.9134 32.2666 26.5337 32.2425C26.9126 32.4349 27.833 32.3696 28.5016 32.3872C28.7359 32.3933 28.7202 32.4446 28.8868 32.4614C29.5152 32.5234 29.2207 32.3534 29.393 32.3266C30.1321 32.2124 30.1954 32.5972 31.0668 32.5877C31.1129 32.5874 31.6773 32.3822 31.755 32.3695C32.2489 32.2862 31.8368 32.4409 32.1458 32.456C32.7101 32.4837 33.1023 32.5327 33.7644 32.4726C33.9575 32.4548 34.4206 32.327 34.7955 32.4259C34.8448 32.4388 34.8176 32.5066 34.8573 32.5106C35.5758 32.5768 35.5947 32.3637 36.0054 32.2916C36.4161 32.2195 37.0504 32.3665 37.1795 32.4089C37.5172 32.5186 36.9207 32.4558 36.9024 32.4665C36.6876 32.5946 37.1502 32.5725 37.5037 32.5833C37.5548 32.7922 38.0492 32.7797 37.8701 32.5937C37.8498 32.5734 37.5746 32.5929 37.5037 32.5833C37.8139 32.3784 38.3572 32.3522 38.9573 32.5437C39.2381 32.6334 38.9727 32.7381 39.8259 32.6998C40.2131 32.6825 40.0635 32.5387 40.4052 32.4995C41.1859 32.41 42.2004 32.5442 43.0053 32.523C43.2974 32.5154 43.0129 32.4366 43.2125 32.4287C43.7423 32.4073 44.2096 32.4664 44.7417 32.4361C44.7899 32.4333 44.6721 32.3509 44.8376 32.3498C46.092 32.3403 47.1842 32.393 48.494 32.3945C49.1268 32.3952 50.2581 32.3497 50.9137 32.3589C52.0498 32.3742 53.4476 32.494 54.4182 32.4649C55.0512 32.4463 54.9123 32.3639 55.1835 32.3077C55.707 32.1988 56.6335 32.3938 56.7582 32.424C56.762 32.425 56.2173 32.4445 56.508 32.4868C56.677 32.575 56.7521 32.4244 56.7582 32.424C56.8402 32.4436 57.9283 32.4623 58.1444 32.4465C58.2618 32.4379 58.1962 32.3598 58.2574 32.3568C59.7124 32.2869 61.1701 32.267 62.6459 32.3036C62.6718 32.3051 62.6327 32.3925 62.6938 32.3951C63.5481 32.434 64.0952 32.3271 64.7999 32.2636C65.5044 32.2002 66.0631 32.2215 66.4802 32.3714C67.0117 32.3526 67.7744 32.4189 68.2133 32.4591C68.6522 32.4993 68.7135 32.3293 68.752 32.3259C69.9565 32.2183 70.6526 32.3156 71.9022 32.3308C72.4963 32.3383 73.6746 32.3136 74.3179 32.295C74.8262 32.28 75.1325 32.3199 75.6009 32.2944C75.6642 32.291 75.6002 32.2153 75.6196 32.2124C76.1423 32.1218 75.8911 32.3069 75.999 32.3399C76.3903 32.4602 76.6321 32.5242 77.3015 32.4676C77.4559 32.4547 77.9057 32.1882 78.1871 32.1726C78.5531 32.1528 78.415 32.2483 78.7982 32.2252C78.831 32.2233 78.8241 32.1644 79.0606 32.167C80.1584 32.1783 81.3552 32.2125 82.496 32.2066C82.6518 32.2061 82.4521 32.1126 82.6772 32.1102C83.7337 32.0991 84.8916 32.1026 85.9208 32.1463C86.1742 32.1574 86.0154 32.2229 86.0703 32.2423C86.4079 32.3599 86.8868 32.189 86.9658 32.1858C88.8502 32.1037 90.2924 32.2583 92.2131 32.1847C92.3176 32.1803 93.1224 31.9972 93.4814 32.1543C93.506 32.1647 93.8613 32.3254 94.1753 32.2156C94.1949 32.2087 93.9735 32.1259 94.3598 32.1344C94.7461 32.1428 95.3678 32.0875 95.8987 32.1784C96.0668 32.2071 96.4641 32.3674 96.9656 32.2396C96.9983 32.2307 97.7724 31.9417 98.0487 32.1411C98.0935 32.1739 98.0466 32.3849 98.6451 32.2767C98.7594 32.2557 98.5518 32.2087 98.8531 32.1793C99.3146 32.134 99.9262 32.1905 100.494 32.0965C100.593 32.0799 101.014 31.9367 101.352 32.0454C101.405 32.0624 101.304 32.1328 101.482 32.1407C102.331 32.1785 103.219 32.1314 104.081 32.1802C104.386 32.1973 104.23 32.3111 104.548 32.3417C104.866 32.3722 105.507 32.4015 105.84 32.3495C106.173 32.2974 105.809 32.1159 106.308 32.1014C108.476 32.0384 110.624 32.1448 112.79 32.1604C113.111 32.1627 112.845 32.0978 113.318 32.0965C115.063 32.0917 118.075 32.0308 119.589 32.1688C120.802 32.2793 119.275 32.3635 120.202 32.4084C120.65 32.4299 121.134 32.2189 121.242 32.2123C122.297 32.1448 123.03 32.2382 123.979 32.2096C124.175 32.2036 123.983 32.1181 124.15 32.114C124.72 32.0992 125.319 32.1373 125.863 32.1304C126.108 32.127 126.063 32.0617 126.287 32.0668C126.825 32.0781 127.301 32.1055 127.826 32.1667C127.873 32.1723 127.551 32.2535 127.949 32.2566C128.593 32.2612 129.393 32.3216 130.134 32.2593C130.354 32.2405 130.362 32.0912 130.835 32.1943C130.934 32.2158 130.808 32.3951 131.358 32.2402C131.451 32.2145 132.376 32.0056 132.83 32.1402C132.95 32.1757 133.255 32.3223 133.52 32.2993C133.556 32.2956 133.412 32.2154 133.631 32.2076C134.403 32.1815 135.213 32.19 136.006 32.1649C136.218 32.158 135.902 32.0751 136.218 32.0675C137.087 32.0465 138.171 32.0676 139.02 32.0936C139.333 32.1033 139.116 32.1721 139.139 32.1795C139.506 32.3012 139.722 32.137 139.844 32.1274C140.6 32.0701 141.176 32.1472 141.873 32.1268C142.065 32.1214 141.929 32.0431 141.967 32.0361C142.364 31.9679 142.068 32.1085 142.32 32.124C143.024 32.1679 143.809 32.1616 144.521 32.1516C144.782 32.1478 144.488 32.057 144.723 32.0547C146.112 32.039 147.557 32.0477 148.912 32.0978C149.168 32.1073 149.007 32.1773 149.06 32.1932C149.427 32.3049 149.964 32.1526 150.088 32.138C150.65 32.0718 150.869 32.1336 151.365 32.1221C153.791 32.0646 156.787 32.1055 159.076 32.1308C162.06 32.1634 164.376 32.2299 167.221 32.2126C167.402 32.2116 167.22 32.1186 167.376 32.1166C169.388 32.0941 171.37 32.1305 173.387 32.1036C173.552 32.1016 173.314 32.0134 173.579 32.0072C174.124 31.9938 174.814 31.9986 175.365 32.0267C175.634 32.0403 175.273 32.1159 175.544 32.128C176.174 32.1564 176.849 32.1627 177.496 32.1485C177.771 32.1423 177.356 32.0522 177.713 32.0511C180.151 32.0422 182.544 32.0267 185.008 32.1434C185.176 32.1514 185.325 32.3347 185.684 32.2995C185.711 32.2487 185.709 32.1889 185.721 32.1345C189.269 32.1052 192.781 32.1688 196.339 32.1786C196.489 32.179 196.23 32.0819 196.52 32.0821C198.201 32.0836 199.834 32.0567 201.553 32.1532C201.724 32.1626 201.636 32.3334 202.139 32.3076C202.228 32.3029 202.985 32.2801 203.181 32.243C203.207 32.2374 203.069 32.1577 203.313 32.1554C204.731 32.1433 206.217 32.1615 207.632 32.2102C207.861 32.2182 207.618 32.3031 207.78 32.3096C208.935 32.3546 210.19 32.2901 211.293 32.3672C212.031 32.4191 211.758 32.5658 212.15 32.7103C212.206 32.7307 212.663 32.7339 212.686 32.818C212.747 33.0293 212.526 33.2608 212.617 33.4861C212.636 33.5346 213.248 33.4823 212.885 33.5996C212.86 33.6074 212.416 33.6464 212.307 33.6861C212.231 33.7136 212.368 33.7991 212.213 33.8343C212.057 33.8695 211.887 33.7978 211.629 33.8392C211.372 33.8811 211.485 33.9783 210.971 33.9898ZM70.1894 32.6389C70.5958 32.7206 70.6557 32.4215 70.2162 32.493C70.1949 32.4968 70.1684 32.6349 70.1894 32.6389ZM21.0223 32.6861C21.5535 32.818 21.9171 32.6241 21.5423 32.5222C21.1676 32.4204 20.8604 32.6461 21.0223 32.6861ZM15.5133 32.7824C16.1342 32.8865 16.2319 32.4623 15.5669 32.5481C15.5282 32.5529 15.477 32.7764 15.5133 32.7824ZM210.331 32.7514C210.337 32.7554 210.665 32.7593 210.673 32.7554C210.848 32.6604 210.191 32.6527 210.331 32.7514ZM10.0466 32.8873C10.2404 32.9447 10.7985 32.8784 10.5577 32.8071C10.3638 32.7497 9.80516 32.8159 10.0466 32.8873ZM91.3876 32.9581C91.394 32.9626 91.6295 32.9666 91.6248 32.9414C91.6088 32.8602 91.2809 32.8831 91.3876 32.9581ZM0.755285 32.8922C2.128 32.9081 2.96036 33.2585 1.46542 33.219C1.19472 33.2118 2.04885 33.1072 1.70432 33.0756C1.07385 33.0181 0.655189 33.2381 0.0118071 33.1202C-0.104633 33.0986 0.676931 32.8905 0.75771 32.8917C0.756891 32.8919 0.756105 32.892 0.755285 32.8922ZM70.4234 32.9981C70.4316 33.0021 70.7576 33.0058 70.7655 33.0019C70.9421 32.907 70.2851 32.8994 70.4234 32.9981ZM105.135 33.143C105.153 33.1515 105.91 33.1594 105.934 33.1516C106.329 32.9963 104.799 32.9799 105.135 33.143ZM48.459 33.217C48.1032 33.3125 47.6775 33.3238 47.3938 33.2038C47.7474 33.2102 48.1035 33.2111 48.459 33.217Z" fill="#8F882A"/>
<path id="Vector 9" d="M210.971 49.9898C209.778 50.0159 208.213 49.988 207.024 49.9498C206.651 49.938 206.84 49.8849 206.583 49.8744C206.08 49.8538 205.611 49.8798 205.114 49.8552C204.949 49.8468 205.154 49.7628 204.981 49.756C204.034 49.7189 203.139 49.7402 202.18 49.7224C197.455 49.6343 192.811 49.6028 188.029 49.5646C186.453 49.552 184.536 49.4758 182.907 49.5091C182.717 49.5131 182.83 49.5868 182.794 49.5929C182.227 49.6859 182.415 49.5371 182.045 49.5173C180.575 49.4393 178.94 49.4325 177.525 49.4609C176.923 49.4732 177.526 49.6196 176.92 49.5375C176.878 49.5319 177.031 49.4536 176.866 49.4453C176.492 49.4265 175.781 49.4405 175.491 49.4343C174.932 49.422 174.839 49.4227 174.311 49.4219C173.587 49.42 172.728 49.381 171.952 49.3988C171.786 49.4028 172.005 49.483 171.741 49.4967C171.477 49.5103 170.778 49.5035 170.542 49.4846C170.306 49.4657 170.407 49.4026 170.365 49.3882C170.022 49.2662 169.213 49.4351 169.109 49.4393C167.211 49.5105 165.584 49.4143 163.803 49.4145C162.451 49.4149 161.005 49.4467 159.718 49.4424C158.185 49.4369 156.886 49.3934 155.397 49.4009C155.24 49.4016 155.424 49.4959 155.232 49.4969C153.193 49.5079 151.168 49.4976 149.137 49.4339C148.934 49.4275 149.196 49.3446 148.993 49.3332C147.747 49.2652 145.776 49.1017 145.037 49.4623C144.193 49.4482 143.169 49.4336 142.414 49.3609C141.927 49.3142 142.4 49.2239 141.802 49.2624C141.667 49.271 141.842 49.35 141.64 49.3569C140.789 49.3858 139.859 49.3602 139.017 49.401C138.845 49.4095 138.892 49.4803 138.844 49.493C138.436 49.5963 137.757 49.4256 137.608 49.4132C136.481 49.3207 135.658 49.3571 134.608 49.3548C134.364 49.3543 134.652 49.4494 134.418 49.4522C133.201 49.4659 131.942 49.4577 130.751 49.4155C130.486 49.4059 130.729 49.3249 130.603 49.3161C130.045 49.2786 129.921 49.4316 129.386 49.3985C129.273 49.3918 129.336 49.3224 129.316 49.3148C128.994 49.1952 128.714 49.3646 128.631 49.3684C127.583 49.4195 126.913 49.2426 125.9 49.2677C125.779 49.2709 126.052 49.3586 125.711 49.3622C123.443 49.3864 121.043 49.3623 118.798 49.2921C118.448 49.2813 118.698 49.2154 118.676 49.2073C118.318 49.0803 118.086 49.2504 117.972 49.2568C117.074 49.3029 116.235 49.1603 115.625 49.3629C111.821 49.2926 108.034 49.4064 104.262 49.2248C104.214 49.2227 104.3 49.1389 104.204 49.1351C103.052 49.0881 103.273 49.2183 102.511 49.3775C102.319 49.4175 101.735 49.2252 101.683 49.2112C101.495 49.1592 101.69 49.0346 101.627 49.0245C101.105 48.9455 101.19 49.3577 100.486 49.3579C100.464 49.3572 100.557 49.2813 100.498 49.2738C100.314 49.2501 100.132 49.2802 99.9525 49.2541C99.5413 49.1937 99.3949 48.9934 98.767 49.11C98.6875 49.1251 98.8088 49.3589 98.1803 49.3479C97.9298 49.3433 96.8206 49.3473 96.5098 49.3321C96.1993 49.317 96.4124 49.2416 96.3903 49.2384C95.5538 49.1387 95.871 49.0974 95.4518 48.9499C95.0328 48.803 95.149 49.1535 94.9781 49.1926C94.807 49.2316 94.1937 49.1494 94.0429 49.1208C93.8923 49.0922 94.0801 49.0444 93.9462 49.0282C93.058 48.9225 93.5564 49.2022 93.2637 49.2578C92.5737 49.3895 92.0363 49.1296 91.4046 49.1041C91.2337 49.0972 91.3732 49.1564 91.221 49.162C90.6182 49.1831 90.2557 49.102 89.5699 49.1764C89.4578 49.1885 88.9033 49.3448 88.5445 49.2301C88.4937 49.2135 88.6381 49.1488 88.3812 49.1342C87.9974 49.1125 87.306 49.0983 86.8934 49.12C86.5889 49.136 86.938 49.2427 86.5546 49.2096C86.3842 49.1948 86.7 49.1323 86.3799 49.1097C86.0615 49.0871 85.2475 49.0899 84.9377 49.092C84.6285 49.0942 84.7977 49.1752 84.7727 49.1806C84.6215 49.2119 84.0281 49.2509 83.9756 49.2508C81.3305 49.2607 78.8913 49.1242 76.3159 49.1694C76.1138 49.1728 76.2484 49.2582 76.2176 49.2596C75.5257 49.2954 76.0712 49.0684 75.5879 48.9924C75.6577 49.1657 75.3724 49.1343 74.885 49.1533C74.6502 49.1626 74.7781 49.2297 74.7566 49.2365C74.4084 49.3384 74.1658 49.2068 74.1034 49.1799C73.8727 49.0809 73.6217 49.1979 73.4647 49.1317C73.3078 49.066 73.6689 48.9686 73.2015 48.9698C73.0704 49.0318 73.4174 49.1939 73.0625 49.2202C71.7235 49.3195 69.2241 49.1924 68.1475 49.1792C67.0731 49.166 66.726 49.1774 66.0999 49.155C64.969 49.1145 65.3835 49.2347 64.6812 49.2898C63.977 49.3448 64.3193 49.0489 64.2181 48.9853C64.1188 48.9217 64.0102 48.9872 63.8866 48.9522C63.7634 48.9173 64.0302 48.8741 63.7403 48.8609C63.4504 48.8478 62.6576 48.9609 62.5548 49.0274C62.3376 49.1683 62.6948 49.3162 61.9276 49.2643C61.8834 49.2612 62.0267 49.1834 61.8577 49.1755C60.5157 49.1156 59.1216 49.1119 57.7812 49.0589C57.5969 49.0515 57.7617 48.965 57.6545 48.9597C56.5373 48.9043 56.9366 49.0503 56.3244 49.2124C56.4618 48.9966 56.1232 48.8646 55.2754 48.8634C54.7657 48.8625 54.8535 48.9568 54.5238 49.0232C54.4249 49.0432 54.0642 48.9785 53.9989 49.0228C53.7834 49.1676 54.1231 49.3298 53.2489 49.2652C53.2106 49.2622 53.3327 49.1829 53.2002 49.1781C52.3435 49.1466 52.241 49.2981 51.3151 49.3165C50.5893 49.3309 49.2985 49.2385 48.472 49.2235C48.4894 48.9809 47.7089 49.0365 47.3922 49.2037C46.8559 49.1969 46.2766 49.2063 45.7582 49.1832C45.5798 49.1753 45.697 49.1051 45.6745 49.0975C45.3295 48.9785 45.0964 49.1412 44.9806 49.1476C43.7259 49.2096 42.7036 49.0862 41.5062 49.2068C41.4637 49.2111 41.3949 49.3796 41.0748 49.2566C41.0541 49.2481 41.4495 49.1714 40.8862 49.1655C40.3229 49.1596 39.2608 49.0692 38.4787 49.1473C38.2895 49.1661 37.8107 49.3029 37.4265 49.196C37.3753 49.1815 37.4313 49.1332 37.3574 49.1063C37.1185 49.0206 36.9881 49.1909 36.7074 49.0462C36.4266 48.9016 35.8427 48.7932 35.0539 48.893C35.0288 48.8959 34.842 49.0309 34.594 49.0288C34.198 49.0253 33.6359 48.9971 33.2224 48.998C33.0245 48.9985 33.1512 49.0823 33.1168 49.0838C31.7857 49.1308 30.8384 49.0561 29.4125 49.0236C29.1511 49.0175 28.3999 49.1318 27.8938 49.0415C27.3382 48.9426 27.9092 48.5311 26.632 48.6291C26.1169 48.6683 25.4646 49.1903 24.5389 48.9199C22.7435 48.9869 21.083 48.8485 19.2826 48.9442C19.2017 48.9484 18.9457 49.0941 18.7553 49.0921C18.4727 49.0889 18.3176 49.0208 18.1158 49.0163C17.2704 48.9958 16.4967 49.0541 15.6815 49.045C15.372 49.0417 15.4802 48.9713 15.1111 48.9674C14.7422 48.9635 14.4962 49.0562 13.9963 49.0114C13.6187 48.9773 13.2413 48.7878 12.7401 48.7657C12.721 48.9526 12.3769 48.9488 11.7651 48.9981C11.6475 49.0077 11.7736 49.0728 11.718 49.0807C11.4916 49.1142 11.2821 49.0603 11.0671 49.0968C11.0148 49.1055 11.0124 49.1694 10.9696 49.1801C10.6061 49.2742 10.0073 49.1306 9.90439 49.1056C9.51016 49.0106 9.32598 49.0936 9.02361 49.0562C8.7217 49.0189 9.17313 48.9721 8.82046 48.9494C8.08956 48.9025 7.15041 48.9128 6.40806 48.9099C6.11186 48.9091 6.31395 48.9943 6.27155 48.9962C5.65908 49.0178 5.0397 48.9272 4.70012 49.0969C4.27547 48.658 4.33077 49.1395 3.45532 49.0516C3.38637 49.0445 3.29862 48.837 3.56339 48.8065C3.82812 48.776 4.2296 48.8409 4.59693 48.7934C4.68389 48.7823 5.18224 48.5878 5.2502 48.576C5.78278 48.4839 5.85821 48.7941 5.88642 48.8111C6.20595 48.995 6.81486 48.7854 6.97521 48.771C7.70877 48.7046 8.33205 48.7482 8.94561 48.7009C9.34684 48.6703 9.38618 48.4671 9.70125 48.4734C10.7488 48.4939 11.1144 48.7773 12.1015 48.5316C12.3131 48.4792 12.1028 48.2571 12.8612 48.4317C12.9088 48.4427 13.4719 48.6025 13.7972 48.5014C13.8381 48.4887 13.8368 48.424 13.8907 48.4185C14.2518 48.3834 14.4926 48.4349 14.886 48.4102C15.2794 48.3856 15.7524 48.3487 16.2015 48.3707C16.4722 48.3838 16.8195 48.5044 16.949 48.5339C17.3149 48.6189 17.7072 48.4795 17.9338 48.5825C18.1624 48.686 17.7155 48.8431 18.3149 48.91C18.3371 48.7419 18.3881 48.5693 18.4238 48.4002C19.7373 48.4062 21.0296 48.4605 22.3475 48.4531C22.5109 48.452 22.3438 48.3616 22.519 48.3581C23.2579 48.3438 23.9033 48.4082 24.6697 48.3825C25.2629 48.3623 25.9134 48.2666 26.5337 48.2425C26.9126 48.4349 27.833 48.3696 28.5016 48.3872C28.7359 48.3933 28.7202 48.4446 28.8868 48.4614C29.5152 48.5234 29.2207 48.3534 29.393 48.3266C30.1321 48.2124 30.1954 48.5972 31.0668 48.5877C31.1129 48.5874 31.6773 48.3822 31.755 48.3695C32.2489 48.2862 31.8368 48.4409 32.1458 48.456C32.7101 48.4837 33.1023 48.5327 33.7644 48.4726C33.9575 48.4548 34.4206 48.327 34.7955 48.4259C34.8448 48.4388 34.8176 48.5066 34.8573 48.5106C35.5758 48.5768 35.5947 48.3637 36.0054 48.2916C36.4161 48.2195 37.0504 48.3665 37.1795 48.4089C37.5172 48.5186 36.9207 48.4558 36.9024 48.4665C36.6876 48.5946 37.1502 48.5725 37.5037 48.5833C37.5548 48.7922 38.0492 48.7797 37.8701 48.5937C37.8498 48.5734 37.5746 48.5929 37.5037 48.5833C37.8139 48.3784 38.3572 48.3522 38.9573 48.5437C39.2381 48.6334 38.9727 48.7381 39.8259 48.6998C40.2131 48.6825 40.0635 48.5387 40.4052 48.4995C41.1859 48.41 42.2004 48.5442 43.0053 48.523C43.2974 48.5154 43.0129 48.4366 43.2125 48.4287C43.7423 48.4073 44.2096 48.4664 44.7417 48.4361C44.7899 48.4333 44.6721 48.3509 44.8376 48.3498C46.092 48.3403 47.1842 48.393 48.494 48.3945C49.1268 48.3952 50.2581 48.3497 50.9137 48.3589C52.0498 48.3742 53.4476 48.494 54.4182 48.4649C55.0512 48.4463 54.9123 48.3639 55.1835 48.3077C55.707 48.1988 56.6335 48.3938 56.7582 48.424C56.762 48.425 56.2173 48.4445 56.508 48.4868C56.677 48.575 56.7521 48.4244 56.7582 48.424C56.8402 48.4436 57.9283 48.4623 58.1444 48.4465C58.2618 48.4379 58.1962 48.3598 58.2574 48.3568C59.7124 48.2869 61.1701 48.267 62.6459 48.3036C62.6718 48.3051 62.6327 48.3925 62.6938 48.3951C63.5481 48.434 64.0952 48.3271 64.7999 48.2636C65.5044 48.2002 66.0631 48.2215 66.4802 48.3714C67.0117 48.3526 67.7744 48.4189 68.2133 48.4591C68.6522 48.4993 68.7135 48.3293 68.752 48.3259C69.9565 48.2183 70.6526 48.3156 71.9022 48.3308C72.4963 48.3383 73.6746 48.3136 74.3179 48.295C74.8262 48.28 75.1325 48.3199 75.6009 48.2944C75.6642 48.291 75.6002 48.2153 75.6196 48.2124C76.1423 48.1218 75.8911 48.3069 75.999 48.3399C76.3903 48.4602 76.6321 48.5242 77.3015 48.4676C77.4559 48.4547 77.9057 48.1882 78.1871 48.1726C78.5531 48.1528 78.415 48.2483 78.7982 48.2252C78.831 48.2233 78.8241 48.1644 79.0606 48.167C80.1584 48.1783 81.3552 48.2125 82.496 48.2066C82.6518 48.2061 82.4521 48.1126 82.6772 48.1102C83.7337 48.0991 84.8916 48.1026 85.9208 48.1463C86.1742 48.1574 86.0154 48.2229 86.0703 48.2423C86.4079 48.3599 86.8868 48.189 86.9658 48.1858C88.8502 48.1037 90.2924 48.2583 92.2131 48.1847C92.3176 48.1803 93.1224 47.9972 93.4814 48.1543C93.506 48.1647 93.8613 48.3254 94.1753 48.2156C94.1949 48.2087 93.9735 48.1259 94.3598 48.1344C94.7461 48.1428 95.3678 48.0875 95.8987 48.1784C96.0668 48.2071 96.4641 48.3674 96.9656 48.2396C96.9983 48.2307 97.7724 47.9417 98.0487 48.1411C98.0935 48.1739 98.0466 48.3849 98.6451 48.2767C98.7594 48.2557 98.5518 48.2087 98.8531 48.1793C99.3146 48.134 99.9262 48.1905 100.494 48.0965C100.593 48.0799 101.014 47.9367 101.352 48.0454C101.405 48.0624 101.304 48.1328 101.482 48.1407C102.331 48.1785 103.219 48.1314 104.081 48.1802C104.386 48.1973 104.23 48.3111 104.548 48.3417C104.866 48.3722 105.507 48.4015 105.84 48.3495C106.173 48.2974 105.809 48.1159 106.308 48.1014C108.476 48.0384 110.624 48.1448 112.79 48.1604C113.111 48.1627 112.845 48.0978 113.318 48.0965C115.063 48.0917 118.075 48.0308 119.589 48.1688C120.802 48.2793 119.275 48.3635 120.202 48.4084C120.65 48.4299 121.134 48.2189 121.242 48.2123C122.297 48.1448 123.03 48.2382 123.979 48.2096C124.175 48.2036 123.983 48.1181 124.15 48.114C124.72 48.0992 125.319 48.1373 125.863 48.1304C126.108 48.127 126.063 48.0617 126.287 48.0668C126.825 48.0781 127.301 48.1055 127.826 48.1667C127.873 48.1723 127.551 48.2535 127.949 48.2566C128.593 48.2612 129.393 48.3216 130.134 48.2593C130.354 48.2405 130.362 48.0912 130.835 48.1943C130.934 48.2158 130.808 48.3951 131.358 48.2402C131.451 48.2145 132.376 48.0056 132.83 48.1402C132.95 48.1757 133.255 48.3223 133.52 48.2993C133.556 48.2956 133.412 48.2154 133.631 48.2076C134.403 48.1815 135.213 48.19 136.006 48.1649C136.218 48.158 135.902 48.0751 136.218 48.0675C137.087 48.0465 138.171 48.0676 139.02 48.0936C139.333 48.1033 139.116 48.1721 139.139 48.1795C139.506 48.3012 139.722 48.137 139.844 48.1274C140.6 48.0701 141.176 48.1472 141.873 48.1268C142.065 48.1214 141.929 48.0431 141.967 48.0361C142.364 47.9679 142.068 48.1085 142.32 48.124C143.024 48.1679 143.809 48.1616 144.521 48.1516C144.782 48.1478 144.488 48.057 144.723 48.0547C146.112 48.039 147.557 48.0477 148.912 48.0978C149.168 48.1073 149.007 48.1773 149.06 48.1932C149.427 48.3049 149.964 48.1526 150.088 48.138C150.65 48.0718 150.869 48.1336 151.365 48.1221C153.791 48.0646 156.787 48.1055 159.076 48.1308C162.06 48.1634 164.376 48.2299 167.221 48.2126C167.402 48.2116 167.22 48.1186 167.376 48.1166C169.388 48.0941 171.37 48.1305 173.387 48.1036C173.552 48.1016 173.314 48.0134 173.579 48.0072C174.124 47.9938 174.814 47.9986 175.365 48.0267C175.634 48.0403 175.273 48.1159 175.544 48.128C176.174 48.1564 176.849 48.1627 177.496 48.1485C177.771 48.1423 177.356 48.0522 177.713 48.0511C180.151 48.0422 182.544 48.0267 185.008 48.1434C185.176 48.1514 185.325 48.3347 185.684 48.2995C185.711 48.2487 185.709 48.1889 185.721 48.1345C189.269 48.1052 192.781 48.1688 196.339 48.1786C196.489 48.179 196.23 48.0819 196.52 48.0821C198.201 48.0836 199.834 48.0567 201.553 48.1532C201.724 48.1626 201.636 48.3334 202.139 48.3076C202.228 48.3029 202.985 48.2801 203.181 48.243C203.207 48.2374 203.069 48.1577 203.313 48.1554C204.731 48.1433 206.217 48.1615 207.632 48.2102C207.861 48.2182 207.618 48.3031 207.78 48.3096C208.935 48.3546 210.19 48.2901 211.293 48.3672C212.031 48.4191 211.758 48.5658 212.15 48.7103C212.206 48.7307 212.663 48.7339 212.686 48.818C212.747 49.0293 212.526 49.2608 212.617 49.4861C212.636 49.5346 213.248 49.4823 212.885 49.5996C212.86 49.6074 212.416 49.6464 212.307 49.6861C212.231 49.7136 212.368 49.7991 212.213 49.8343C212.057 49.8695 211.887 49.7978 211.629 49.8392C211.372 49.8811 211.485 49.9783 210.971 49.9898ZM70.1894 48.6389C70.5958 48.7206 70.6557 48.4215 70.2162 48.493C70.1949 48.4968 70.1684 48.6349 70.1894 48.6389ZM21.0223 48.6861C21.5535 48.818 21.9171 48.6241 21.5423 48.5222C21.1676 48.4204 20.8604 48.6461 21.0223 48.6861ZM15.5133 48.7824C16.1342 48.8865 16.2319 48.4623 15.5669 48.5481C15.5282 48.5529 15.477 48.7764 15.5133 48.7824ZM210.331 48.7514C210.337 48.7554 210.665 48.7593 210.673 48.7554C210.848 48.6604 210.191 48.6527 210.331 48.7514ZM10.0466 48.8873C10.2404 48.9447 10.7985 48.8784 10.5577 48.8071C10.3638 48.7497 9.80516 48.8159 10.0466 48.8873ZM91.3876 48.9581C91.394 48.9626 91.6295 48.9666 91.6248 48.9414C91.6088 48.8602 91.2809 48.8831 91.3876 48.9581ZM0.755285 48.8922C2.128 48.9081 2.96036 49.2585 1.46542 49.219C1.19472 49.2118 2.04885 49.1072 1.70432 49.0756C1.07385 49.0181 0.655189 49.2381 0.0118071 49.1202C-0.104633 49.0986 0.676931 48.8905 0.75771 48.8917C0.756891 48.8919 0.756105 48.892 0.755285 48.8922ZM70.4234 48.9981C70.4316 49.0021 70.7576 49.0058 70.7655 49.0019C70.9421 48.907 70.2851 48.8994 70.4234 48.9981ZM105.135 49.143C105.153 49.1515 105.91 49.1594 105.934 49.1516C106.329 48.9963 104.799 48.9799 105.135 49.143ZM48.459 49.217C48.1032 49.3125 47.6775 49.3238 47.3938 49.2038C47.7474 49.2102 48.1035 49.2111 48.459 49.217Z" fill="#8F882A"/>
<path id="Vector 7" d="M210.971 1.98985C209.778 2.0159 208.213 1.98804 207.024 1.94981C206.651 1.93795 206.84 1.88494 206.583 1.87437C206.08 1.85376 205.611 1.87976 205.114 1.8552C204.949 1.84681 205.154 1.76284 204.981 1.75596C204.034 1.71885 203.139 1.74024 202.18 1.72239C197.455 1.63433 192.811 1.60281 188.029 1.56456C186.453 1.55201 184.536 1.47581 182.907 1.50913C182.717 1.5131 182.83 1.5868 182.794 1.59287C182.227 1.68587 182.415 1.53708 182.045 1.51731C180.575 1.43926 178.94 1.43247 177.525 1.46092C176.923 1.47323 177.526 1.61962 176.92 1.53745C176.878 1.5319 177.031 1.45364 176.866 1.44529C176.492 1.42652 175.781 1.44051 175.491 1.43431C174.932 1.42196 174.839 1.42275 174.311 1.42185C173.587 1.41995 172.728 1.38105 171.952 1.39878C171.786 1.4028 172.005 1.48303 171.741 1.49668C171.477 1.51031 170.778 1.50351 170.542 1.4846C170.306 1.46568 170.407 1.40262 170.365 1.38816C170.022 1.26617 169.213 1.43513 169.109 1.43931C167.211 1.51051 165.584 1.41425 163.803 1.41453C162.451 1.41494 161.005 1.44672 159.718 1.44236C158.185 1.43686 156.886 1.39338 155.397 1.40086C155.24 1.40155 155.424 1.49588 155.232 1.49693C153.193 1.5079 151.168 1.49762 149.137 1.43394C148.934 1.42747 149.196 1.34464 148.993 1.33323C147.747 1.26516 145.776 1.10166 145.037 1.46226C144.193 1.44818 143.169 1.43363 142.414 1.36094C141.927 1.31415 142.4 1.22393 141.802 1.26243C141.667 1.27101 141.842 1.35002 141.64 1.35691C140.789 1.38584 139.859 1.36015 139.017 1.40098C138.845 1.40947 138.892 1.48027 138.844 1.49302C138.436 1.59627 137.757 1.42559 137.608 1.41318C136.481 1.3207 135.658 1.35709 134.608 1.35483C134.364 1.35427 134.652 1.44937 134.418 1.45225C133.201 1.46588 131.942 1.4577 130.751 1.4155C130.486 1.40589 130.729 1.32488 130.603 1.31614C130.045 1.27859 129.921 1.43159 129.386 1.39853C129.273 1.39176 129.336 1.32241 129.316 1.31479C128.994 1.19523 128.714 1.36464 128.631 1.36838C127.583 1.41949 126.913 1.24263 125.9 1.26768C125.779 1.27085 126.052 1.3586 125.711 1.36216C123.443 1.38638 121.043 1.36228 118.798 1.29209C118.448 1.28129 118.698 1.21538 118.676 1.20725C118.318 1.08028 118.086 1.2504 117.972 1.25681C117.074 1.30293 116.235 1.16026 115.625 1.36289C111.821 1.29257 108.034 1.40636 104.262 1.22483C104.214 1.22272 104.3 1.13894 104.204 1.13511C103.052 1.08806 103.273 1.21828 102.511 1.37754C102.319 1.41753 101.735 1.22525 101.683 1.21116C101.495 1.15922 101.69 1.03457 101.627 1.02451C101.105 0.945527 101.19 1.35775 100.486 1.35788C100.464 1.3572 100.557 1.28132 100.498 1.27378C100.314 1.25009 100.132 1.28024 99.9525 1.25412C99.5413 1.19369 99.3949 0.993383 98.767 1.10996C98.6875 1.12509 98.8088 1.35892 98.1803 1.34787C97.9298 1.34327 96.8206 1.34728 96.5098 1.33213C96.1993 1.31699 96.4124 1.24164 96.3903 1.23838C95.5538 1.13874 95.871 1.09744 95.4518 0.949925C95.0328 0.802965 95.149 1.15348 94.9781 1.1926C94.807 1.23161 94.1937 1.1494 94.0429 1.12082C93.8923 1.09223 94.0801 1.04435 93.9462 1.02817C93.058 0.922463 93.5564 1.20215 93.2637 1.25778C92.5737 1.38951 92.0363 1.12957 91.4046 1.1041C91.2337 1.09722 91.3732 1.15642 91.221 1.16196C90.6182 1.1831 90.2557 1.102 89.5699 1.17636C89.4578 1.18848 88.9033 1.34477 88.5445 1.23007C88.4937 1.21354 88.6381 1.14876 88.3812 1.13425C87.9974 1.11247 87.306 1.09832 86.8934 1.11997C86.5889 1.13599 86.938 1.24272 86.5546 1.20957C86.3842 1.19476 86.7 1.13232 86.3799 1.10971C86.0615 1.08711 85.2475 1.08986 84.9377 1.09201C84.6285 1.09422 84.7977 1.17518 84.7727 1.18064C84.6215 1.21188 84.0281 1.25092 83.9756 1.25083C81.3305 1.26071 78.8913 1.12423 76.3159 1.1694C76.1138 1.17283 76.2484 1.25821 76.2176 1.25961C75.5257 1.29539 76.0712 1.06838 75.5879 0.992403C75.6577 1.16566 75.3724 1.13429 74.885 1.15329C74.6502 1.16259 74.7781 1.22968 74.7566 1.23654C74.4084 1.33844 74.1658 1.20683 74.1034 1.1799C73.8727 1.08086 73.6217 1.19789 73.4647 1.13169C73.3078 1.06598 73.6689 0.968573 73.2015 0.96982C73.0704 1.03184 73.4174 1.19392 73.0625 1.22019C71.7235 1.31955 69.2241 1.19238 68.1475 1.17917C67.0731 1.16597 66.726 1.17741 66.0999 1.155C64.969 1.11447 65.3835 1.23472 64.6812 1.28976C63.977 1.3448 64.3193 1.04893 64.2181 0.985322C64.1188 0.921746 64.0102 0.987191 63.8866 0.952241C63.7634 0.9173 64.0302 0.874053 63.7403 0.860933C63.4504 0.847826 62.6576 0.960931 62.5548 1.02744C62.3376 1.16833 62.6948 1.31621 61.9276 1.26425C61.8834 1.26117 62.0267 1.18337 61.8577 1.17551C60.5157 1.11561 59.1216 1.1119 57.7812 1.05893C57.5969 1.05152 57.7617 0.964976 57.6545 0.959687C56.5373 0.904329 56.9366 1.05026 56.3244 1.21237C56.4618 0.996636 56.1232 0.864648 55.2754 0.863374C54.7657 0.862532 54.8535 0.956755 54.5238 1.02316C54.4249 1.04318 54.0642 0.978485 53.9989 1.0228C53.7834 1.16765 54.1231 1.32979 53.2489 1.26523C53.2106 1.26216 53.3327 1.18287 53.2002 1.17807C52.3435 1.14664 52.241 1.29815 51.3151 1.3165C50.5893 1.33089 49.2985 1.23851 48.472 1.22348C48.4894 0.98093 47.7089 1.03647 47.3922 1.2037C46.8559 1.19686 46.2766 1.20631 45.7582 1.1832C45.5798 1.17532 45.697 1.10509 45.6745 1.0975C45.3295 0.978473 45.0964 1.14117 44.9806 1.14755C43.7259 1.20956 42.7036 1.08624 41.5062 1.20676C41.4637 1.2111 41.3949 1.37958 41.0748 1.25656C41.0541 1.24808 41.4495 1.17142 40.8862 1.1655C40.3229 1.15955 39.2608 1.06924 38.4787 1.14731C38.2895 1.1661 37.8107 1.30288 37.4265 1.19601C37.3753 1.1815 37.4313 1.13318 37.3574 1.10629C37.1185 1.02061 36.9881 1.19091 36.7074 1.04623C36.4266 0.901566 35.8427 0.793221 35.0539 0.893035C35.0288 0.895937 34.842 1.03091 34.594 1.02878C34.198 1.02525 33.6359 0.997136 33.2224 0.998015C33.0245 0.998484 33.1512 1.0823 33.1168 1.08383C31.7857 1.1308 30.8384 1.05608 29.4125 1.02365C29.1511 1.01754 28.3999 1.13183 27.8938 1.04147C27.3382 0.942557 27.9092 0.53109 26.632 0.629119C26.1169 0.668329 25.4646 1.19035 24.5389 0.919889C22.7435 0.986907 21.083 0.848487 19.2826 0.944181C19.2017 0.948421 18.9457 1.09411 18.7553 1.09213C18.4727 1.0889 18.3176 1.02081 18.1158 1.01632C17.2704 0.995813 16.4967 1.05407 15.6815 1.04501C15.372 1.04172 15.4802 0.971309 15.1111 0.967374C14.7422 0.963504 14.4962 1.05622 13.9963 1.01144C13.6187 0.97731 13.2413 0.787803 12.7401 0.765714C12.721 0.952641 12.3769 0.948791 11.7651 0.998135C11.6475 1.00771 11.7736 1.07277 11.718 1.08065C11.4916 1.11419 11.2821 1.06027 11.0671 1.09677C11.0148 1.10553 11.0124 1.16937 10.9696 1.18014C10.6061 1.27415 10.0073 1.13056 9.90439 1.10556C9.51016 1.0106 9.32598 1.09363 9.02361 1.05624C8.7217 1.01885 9.17313 0.972117 8.82046 0.949429C8.08956 0.902502 7.15041 0.912812 6.40806 0.909878C6.11186 0.909102 6.31395 0.994314 6.27155 0.996182C5.65908 1.01779 5.0397 0.927152 4.70012 1.09689C4.27547 0.658013 4.33077 1.13946 3.45532 1.0516C3.38637 1.0445 3.29862 0.836954 3.56339 0.806485C3.82812 0.776044 4.2296 0.840919 4.59693 0.793423C4.68389 0.782277 5.18224 0.587797 5.2502 0.576017C5.78278 0.483947 5.85821 0.794089 5.88642 0.811123C6.20595 0.994955 6.81486 0.78544 6.97521 0.770963C7.70877 0.704627 8.33205 0.748244 8.94561 0.700895C9.34684 0.670292 9.38618 0.467138 9.70125 0.473356C10.7488 0.49391 11.1144 0.777312 12.1015 0.531584C12.3131 0.479175 12.1028 0.257133 12.8612 0.431731C12.9088 0.442738 13.4719 0.602463 13.7972 0.501433C13.8381 0.488694 13.8368 0.423983 13.8907 0.418547C14.2518 0.383384 14.4926 0.434937 14.886 0.410247C15.2794 0.385556 15.7524 0.348748 16.2015 0.370696C16.4722 0.383821 16.8195 0.504386 16.949 0.533904C17.3149 0.618936 17.7072 0.479519 17.9338 0.582488C18.1624 0.685975 17.7155 0.843136 18.3149 0.910001C18.3371 0.741877 18.3881 0.569315 18.4238 0.400237C19.7373 0.406157 21.0296 0.460521 22.3475 0.453094C22.5109 0.452005 22.3438 0.361621 22.519 0.358123C23.2579 0.343765 23.9033 0.408196 24.6697 0.382538C25.2629 0.36233 25.9134 0.266633 26.5337 0.242524C26.9126 0.434905 27.833 0.369596 28.5016 0.387177C28.7359 0.393251 28.7202 0.444633 28.8868 0.461395C29.5152 0.52339 29.2207 0.353384 29.393 0.32663C30.1321 0.212447 30.1954 0.597245 31.0668 0.587738C31.1129 0.587364 31.6773 0.38225 31.755 0.369477C32.2489 0.286186 31.8368 0.440869 32.1458 0.456024C32.7101 0.48372 33.1023 0.532704 33.7644 0.472626C33.9575 0.454831 34.4206 0.326985 34.7955 0.425873C34.8448 0.438822 34.8176 0.50662 34.8573 0.51059C35.5758 0.576774 35.5947 0.363744 36.0054 0.291597C36.4161 0.219465 37.0504 0.366522 37.1795 0.408906C37.5172 0.51855 36.9207 0.455764 36.9024 0.466523C36.6876 0.594569 37.1502 0.572524 37.5037 0.583344C37.5548 0.792222 38.0492 0.779684 37.8701 0.59372C37.8498 0.573408 37.5746 0.592886 37.5037 0.583344C37.8139 0.378406 38.3572 0.35216 38.9573 0.543671C39.2381 0.63343 38.9727 0.738084 39.8259 0.699799C40.2131 0.682516 40.0635 0.538693 40.4052 0.499482C41.1859 0.410018 42.2004 0.544181 43.0053 0.523042C43.2974 0.515367 43.0129 0.43664 43.2125 0.428682C43.7423 0.407317 44.2096 0.466388 44.7417 0.436128C44.7899 0.433287 44.6721 0.350875 44.8376 0.349825C46.092 0.340254 47.1842 0.393039 48.494 0.394503C49.1268 0.395172 50.2581 0.34972 50.9137 0.358858C52.0498 0.37421 53.4476 0.49405 54.4182 0.464937C55.0512 0.446302 54.9123 0.363873 55.1835 0.307711C55.707 0.198846 56.6335 0.393849 56.7582 0.424044C56.762 0.425044 56.2173 0.444475 56.508 0.486788C56.677 0.574954 56.7521 0.424427 56.7582 0.424044C56.8402 0.44355 57.9283 0.462262 58.1444 0.446505C58.2618 0.437894 58.1962 0.359797 58.2574 0.356784C59.7124 0.286895 61.1701 0.267046 62.6459 0.303562C62.6718 0.305139 62.6327 0.392495 62.6938 0.395114C63.5481 0.433955 64.0952 0.327091 64.7999 0.263645C65.5044 0.200227 66.0631 0.221468 66.4802 0.371433C67.0117 0.352551 67.7744 0.41885 68.2133 0.459079C68.6522 0.499307 68.7135 0.329262 68.752 0.325901C69.9565 0.218305 70.6526 0.315636 71.9022 0.330784C72.4963 0.338277 73.6746 0.313612 74.3179 0.295018C74.8262 0.280038 75.1325 0.319889 75.6009 0.294408C75.6642 0.291005 75.6002 0.215292 75.6196 0.212377C76.1423 0.121791 75.8911 0.306883 75.999 0.33994C76.3903 0.460152 76.6321 0.524176 77.3015 0.467625C77.4559 0.454674 77.9057 0.188168 78.1871 0.172582C78.5531 0.152807 78.415 0.248334 78.7982 0.225194C78.831 0.223302 78.8241 0.164368 79.0606 0.166967C80.1584 0.178254 81.3552 0.212546 82.496 0.20664C82.6518 0.206059 82.4521 0.112582 82.6772 0.110205C83.7337 0.0991244 84.8916 0.102584 85.9208 0.146338C86.1742 0.157401 86.0154 0.222851 86.0703 0.242285C86.4079 0.35987 86.8868 0.189022 86.9658 0.185766C88.8502 0.103665 90.2924 0.258281 92.2131 0.184668C92.3176 0.180347 93.1224 -0.00280568 93.4814 0.154273C93.506 0.164723 93.8613 0.325431 94.1753 0.215552C94.1949 0.208678 93.9735 0.125943 94.3598 0.134376C94.7461 0.14279 95.3678 0.0875399 95.8987 0.178443C96.0668 0.207079 96.4641 0.36739 96.9656 0.2396C96.9983 0.230679 97.7724 -0.0582718 98.0487 0.14109C98.0935 0.173907 98.0466 0.384877 98.6451 0.276709C98.7594 0.255739 98.5518 0.208682 98.8531 0.179298C99.3146 0.13401 99.9262 0.190515 100.494 0.0965345C100.593 0.0798966 101.014 -0.0632971 101.352 0.0453872C101.405 0.0624091 101.304 0.132842 101.482 0.140724C102.331 0.178533 103.219 0.131421 104.081 0.180153C104.386 0.197276 104.23 0.311138 104.548 0.341651C104.866 0.372154 105.507 0.401496 105.84 0.349464C106.173 0.297409 105.809 0.115939 106.308 0.101418C108.476 0.0383503 110.624 0.144806 112.79 0.160378C113.111 0.162704 112.845 0.0977683 113.318 0.0965356C115.063 0.0917048 118.075 0.0308211 119.589 0.168802C120.802 0.279316 119.275 0.363452 120.202 0.408425C120.65 0.429878 121.134 0.218901 121.242 0.212259C122.297 0.144789 123.03 0.238247 123.979 0.209573C124.175 0.203623 123.983 0.118112 124.15 0.113993C124.72 0.0991631 125.319 0.137331 125.863 0.13035C126.108 0.127021 126.063 0.0617109 126.287 0.0667516C126.825 0.0780606 127.301 0.105514 127.826 0.166727C127.873 0.172305 127.551 0.253549 127.949 0.25657C128.593 0.26123 129.393 0.321616 130.134 0.259256C130.354 0.240497 130.362 0.0912314 130.835 0.194315C130.934 0.215845 130.808 0.39508 131.358 0.240213C131.451 0.214478 132.376 0.00559098 132.83 0.140238C132.95 0.175676 133.255 0.322345 133.52 0.299295C133.556 0.295618 133.412 0.215441 133.631 0.207621C134.403 0.181454 135.213 0.190009 136.006 0.164897C136.218 0.158032 135.902 0.0750662 136.218 0.0674849C137.087 0.0465146 138.171 0.0676393 139.02 0.0936081C139.333 0.10334 139.116 0.172066 139.139 0.179545C139.506 0.301195 139.722 0.136996 139.844 0.127422C140.6 0.0700913 141.176 0.147222 141.873 0.126811C142.065 0.121387 141.929 0.0430946 141.967 0.0361135C142.364 -0.0320971 142.068 0.108505 142.32 0.124004C143.024 0.167889 143.809 0.161596 144.521 0.151592C144.782 0.147802 144.488 0.0570205 144.723 0.0546683C146.112 0.0390253 147.557 0.0477121 148.912 0.0977594C149.168 0.107347 149.007 0.177252 149.06 0.193218C149.427 0.304923 149.964 0.152557 150.088 0.138043C150.65 0.0717719 150.869 0.13359 151.365 0.122051C153.791 0.0646035 156.787 0.105547 159.076 0.130841C162.06 0.163395 164.376 0.229897 167.221 0.212629C167.402 0.211619 167.22 0.118624 167.376 0.11656C169.388 0.094142 171.37 0.13048 173.387 0.103621C173.552 0.101582 173.314 0.0134221 173.579 0.00718567C174.124 -0.00622443 174.814 -0.00143275 175.365 0.026717C175.634 0.0402801 175.273 0.115929 175.544 0.128035C176.174 0.156397 176.849 0.162676 177.496 0.148543C177.771 0.142336 177.356 0.0521717 177.713 0.0511312C180.151 0.0421863 182.544 0.0266579 185.008 0.143417C185.176 0.151436 185.325 0.334686 185.684 0.299544C185.711 0.248687 185.709 0.188864 185.721 0.134506C189.269 0.105224 192.781 0.168751 196.339 0.178574C196.489 0.178967 196.23 0.0818719 196.52 0.0821386C198.201 0.0835742 199.834 0.0566761 201.553 0.153184C201.724 0.162622 201.636 0.333436 202.139 0.307602C202.228 0.302888 202.985 0.280108 203.181 0.243027C203.207 0.237434 203.069 0.157705 203.313 0.155381C204.731 0.143274 206.217 0.161476 207.632 0.210191C207.861 0.218206 207.618 0.303111 207.78 0.309556C208.935 0.354627 210.19 0.290084 211.293 0.367173C212.031 0.419079 211.758 0.565845 212.15 0.710312C212.206 0.730694 212.663 0.733924 212.686 0.817977C212.747 1.02934 212.526 1.26078 212.617 1.48607C212.636 1.53459 213.248 1.48233 212.885 1.59959C212.86 1.60744 212.416 1.64636 212.307 1.68614C212.231 1.71364 212.368 1.79912 212.213 1.83433C212.057 1.86951 211.887 1.79785 211.629 1.83921C211.372 1.88109 211.485 1.97834 210.971 1.98985ZM70.1894 0.638888C70.5958 0.72055 70.6557 0.421456 70.2162 0.493015C70.1949 0.496829 70.1684 0.634882 70.1894 0.638888ZM21.0223 0.686125C21.5535 0.818047 21.9171 0.624069 21.5423 0.522185C21.1676 0.420411 20.8604 0.646135 21.0223 0.686125ZM15.5133 0.782438C16.1342 0.886452 16.2319 0.462324 15.5669 0.548064C15.5282 0.552909 15.477 0.776398 15.5133 0.782438ZM210.331 0.751449C210.337 0.755421 210.665 0.759292 210.673 0.755355C210.848 0.660364 210.191 0.652689 210.331 0.751449ZM10.0466 0.887295C10.2404 0.944668 10.7985 0.878438 10.5577 0.807096C10.3638 0.749702 9.80516 0.815927 10.0466 0.887295ZM91.3876 0.958103C91.394 0.96256 91.6295 0.966573 91.6248 0.94138C91.6088 0.860236 91.2809 0.883136 91.3876 0.958103ZM0.755285 0.892177C2.128 0.908142 2.96036 1.25849 1.46542 1.21896C1.19472 1.21181 2.04885 1.10723 1.70432 1.07565C1.07385 1.0181 0.655189 1.23808 0.0118071 1.1202C-0.104633 1.09863 0.676931 0.890488 0.75771 0.891689C0.756891 0.891852 0.756105 0.892015 0.755285 0.892177ZM70.4234 0.99814C70.4316 1.0021 70.7576 1.00585 70.7655 1.00192C70.9421 0.906971 70.2851 0.89936 70.4234 0.99814ZM105.135 1.14304C105.153 1.15147 105.91 1.15935 105.934 1.15159C106.329 0.99631 104.799 0.979914 105.135 1.14304ZM48.459 1.21701C48.1032 1.31253 47.6775 1.32378 47.3938 1.20383C47.7474 1.21019 48.1035 1.21113 48.459 1.21701Z" fill="#8F882A"/>
</svg>
