<svg width="16" height="16" viewBox="0 0 16 16" fill="none" xmlns="http://www.w3.org/2000/svg">
<g clip-path="url(#clip0_40000202_193)">
<path fill-rule="evenodd" clip-rule="evenodd" d="M21.038 3.30655C21.038 4.25833 20.4216 5.01982 19.2464 5.10713L21.2282 7.20076C21.2821 7.25761 21.2415 7.35079 21.1629 7.35079H20.0056C19.9763 7.35079 19.9483 7.33853 19.9285 7.31705L17.8904 5.10742H17.8342V7.26199C17.8342 7.31118 17.794 7.35108 17.7445 7.35108H16.772C16.7224 7.35108 16.6822 7.31118 16.6822 7.26199V1.59031C16.6822 1.54112 16.7224 1.50122 16.772 1.50122H19.2668C19.8865 1.49795 21.0381 1.93137 21.038 3.30655ZM17.8341 2.50583V4.20075L18.8311 4.20082C19.1973 4.20082 19.4733 4.12362 19.6592 3.97099C19.8449 3.81815 19.9379 3.60675 19.9379 3.33806C19.9379 3.07947 19.8533 2.8758 19.6847 2.72793C19.5154 2.58066 19.2709 2.50583 18.9495 2.50583H17.8341Z" fill="#DE3341"/>
<path fill-rule="evenodd" clip-rule="evenodd" d="M21.1326 5.10727C21.1326 3.82149 22.1822 2.7792 23.477 2.7792C24.7718 2.7792 25.8213 3.82149 25.8213 5.10727C25.8213 6.39306 24.7718 7.43535 23.477 7.43535C22.1822 7.43535 21.1326 6.39306 21.1326 5.10727ZM22.1599 5.10735C22.1599 5.82975 22.7495 6.41528 23.477 6.41528C24.2044 6.41528 24.794 5.82975 24.794 5.10735C24.794 4.38495 24.2044 3.79942 23.477 3.79942C22.7495 3.79942 22.1599 4.38495 22.1599 5.10735Z" fill="#DE3341"/>
<path d="M42.4329 7.27485V6.54918C42.4329 6.49204 42.3796 6.44938 42.3236 6.46231C42.0242 6.53142 41.3679 6.53209 41.3679 5.74132V3.7402H42.3433C42.3928 3.7402 42.433 3.7003 42.433 3.65111V2.94609C42.433 2.8969 42.3928 2.857 42.3433 2.857H41.3679V1.5892C41.3679 1.51935 41.2905 1.47662 41.2308 1.51363L40.2633 2.11238C40.2369 2.12866 40.221 2.15719 40.221 2.18795V2.857H39.5985C39.549 2.857 39.5088 2.8969 39.5088 2.94609V3.65111C39.5088 3.7003 39.549 3.7402 39.5985 3.7402H40.2198V5.82373C40.2198 7.20329 41.3976 7.43542 41.8521 7.43542C42.0384 7.43542 42.1865 7.40174 42.311 7.37341L42.3259 7.37003C42.3385 7.36717 42.3508 7.36438 42.363 7.36171C42.4039 7.35272 42.4329 7.31653 42.4329 7.27485Z" fill="#DE3341"/>
<path d="M35.2008 7.35079C35.2793 7.35079 35.3199 7.25783 35.2664 7.20091L33.2961 5.10735L35.086 3.00353C35.1352 2.94565 35.0938 2.857 35.0174 2.857H33.8991C33.8681 2.857 33.8388 2.8706 33.8189 2.89423L32.3538 4.63298H32.2888V1.58949C32.2888 1.5195 32.2113 1.47685 32.1515 1.51393L31.1839 2.11409C31.1576 2.13037 31.1417 2.15897 31.1417 2.18966V7.26169C31.1417 7.31088 31.1819 7.35079 31.2314 7.35079H32.1991C32.2486 7.35079 32.2888 7.31088 32.2888 7.26169V5.55794H32.3418L33.959 7.33124C33.9703 7.34373 33.9863 7.35079 34.0033 7.35079H35.2008Z" fill="#DE3341"/>
<path fill-rule="evenodd" clip-rule="evenodd" d="M36.0041 3.09158C36.3686 2.88465 36.7682 2.77966 37.1925 2.77965C38.1222 2.77965 38.8277 3.27735 39.1889 3.87833C39.5715 4.51495 39.4936 5.17034 39.4809 5.2776L39.4801 5.28442C39.4748 5.33079 39.4591 5.39692 39.4463 5.44603C39.4362 5.48534 39.4004 5.51269 39.3595 5.51269H35.9151C35.9466 5.64815 36.1569 6.51165 37.1925 6.51165C37.6516 6.51165 38.0018 6.31623 38.1629 6.13433C38.1827 6.11196 38.2111 6.09926 38.2411 6.09926H39.1803C39.2478 6.09926 39.2912 6.17052 39.2599 6.22989C39.0546 6.61843 38.6761 7.00467 38.1431 7.24186C37.8542 7.37048 37.5375 7.43564 37.2021 7.43564C36.7651 7.43564 36.359 7.33199 35.9949 7.12824C35.3737 6.78064 34.8056 6.09718 34.8056 5.10742L34.8056 5.10206C34.8044 4.9965 34.7913 3.77979 36.0041 3.09158ZM37.1927 3.69576C36.5394 3.69576 36.046 4.12102 35.9081 4.7223H38.4202C38.3835 4.5459 38.1252 3.69576 37.1927 3.69576Z" fill="#DE3341"/>
<path d="M28.5083 6.41535C27.7807 6.41535 27.1912 5.82968 27.1912 5.10735C27.1912 4.3851 27.7807 3.79927 28.5084 3.79927C29.0791 3.79927 29.5648 4.15995 29.7478 4.66434C29.7604 4.69934 29.7942 4.72222 29.8318 4.72222H30.7116C30.8122 4.72222 30.8013 4.62139 30.7982 4.60742C30.7885 4.56373 30.7713 4.49737 30.7582 4.45264C30.4736 3.48563 29.5742 2.7792 28.5084 2.7792C27.2136 2.7792 26.164 3.82149 26.164 5.10727C26.164 6.39306 27.2136 7.43535 28.5084 7.43535C29.6252 7.43535 30.5587 6.65989 30.7946 5.62147L30.795 5.61998C30.8063 5.56507 30.7636 5.51298 30.7068 5.51298H29.8237C29.7866 5.51298 29.7535 5.53542 29.7403 5.56953C29.5523 6.06389 29.0718 6.41535 28.5083 6.41535Z" fill="#DE3341"/>
<path d="M4.65164 14.1898V8.48447C4.65164 6.67349 6.09697 5.15847 7.92039 5.12823C9.78301 5.09732 11.3027 6.58752 11.3027 8.43015C11.3027 9.87904 10.363 11.1098 9.05586 11.5547C8.92275 11.6 8.88099 11.7663 8.97737 11.8681L11.319 14.3429C11.3809 14.4084 11.4809 14.4236 11.5585 14.3774C13.5927 13.1668 14.9543 10.9565 14.9543 8.43015C14.9543 4.57071 11.7767 1.44824 7.87781 1.50211C4.0475 1.55502 0.952953 4.7142 1.00054 8.51798C1.03152 10.9909 2.367 13.1518 4.35518 14.3533C4.48516 14.4318 4.65164 14.3409 4.65164 14.1898Z" fill="#DE3341"/>
<path d="M34.6226 13.5182V14.244C34.6226 14.2858 34.5936 14.3218 34.5524 14.3308C34.5356 14.3345 34.5182 14.3385 34.5004 14.3425C34.3759 14.3708 34.2279 14.4045 34.0416 14.4045C33.5872 14.4045 32.4094 14.1724 32.4094 12.7928V10.7093H31.7881C31.7386 10.7093 31.6984 10.6694 31.6984 10.6202V9.91519C31.6984 9.866 31.7386 9.8261 31.7881 9.8261H32.4106V9.15705C32.4106 9.12628 32.4265 9.09775 32.4528 9.08148L33.4203 8.48272C33.48 8.44572 33.5575 8.48837 33.5575 8.55829V9.8261H34.5328C34.5824 9.8261 34.6226 9.866 34.6226 9.91519V10.6202C34.6226 10.6694 34.5824 10.7093 34.5328 10.7093H33.5575V12.7104C33.5575 13.5002 34.2121 13.5005 34.512 13.4316C34.5686 13.4186 34.6226 13.4605 34.6226 13.5182Z" fill="#DE3341"/>
<path fill-rule="evenodd" clip-rule="evenodd" d="M43.7661 14.2307C43.7661 14.2797 43.7257 14.3198 43.6764 14.3198L42.8765 14.32C42.827 14.32 42.7868 14.2801 42.7868 14.2309V13.7999H42.755C42.5963 13.9901 42.1586 14.4045 41.3637 14.4045C40.917 14.4045 40.5065 14.264 40.2082 14.0088C39.9144 13.7576 39.7527 13.4183 39.7527 13.0533C39.7527 12.6126 39.9676 12.2397 40.3741 11.9749C40.7716 11.7161 41.3231 11.5793 41.9689 11.5793H42.6944V11.5027C42.6944 10.9904 42.3701 10.6721 41.8479 10.6721C41.2851 10.6721 41.1119 11.0191 41.0618 11.1796C41.047 11.2271 41.0022 11.2592 40.9519 11.2592H40.0945C40.0223 11.2592 39.9678 11.1947 39.981 11.1246C40.0193 10.9215 40.1394 10.5261 40.5129 10.2033C40.8572 9.90568 41.3221 9.74837 41.8571 9.74837C43.0168 9.74837 43.7661 10.4679 43.7661 11.5816V14.2307ZM40.8337 12.9744C40.8337 13.3243 41.1119 13.5333 41.5778 13.5333C42.2143 13.5333 42.6943 13.1439 42.6943 12.6005V12.3279H41.9781C41.2401 12.3279 40.8337 12.5575 40.8337 12.9744Z" fill="#DE3341"/>
<path d="M19.9525 12.8325L17.7694 8.52264C17.7542 8.49255 17.7232 8.4736 17.6893 8.4736H16.7719C16.7223 8.4736 16.6822 8.5135 16.6822 8.56269V14.2311C16.6822 14.2803 16.7223 14.3202 16.7719 14.3202H17.6931C17.7427 14.3202 17.7828 14.2803 17.7828 14.2311V10.7286L19.5787 14.2626C19.594 14.2926 19.625 14.3116 19.6588 14.3116H20.1647C20.1985 14.3116 20.2294 14.2927 20.2447 14.2628L22.0667 10.6874V14.2311C22.0667 14.2803 22.1069 14.3202 22.1565 14.3202H23.0777C23.1272 14.3202 23.1674 14.2803 23.1674 14.2311V8.56269C23.1674 8.5135 23.1272 8.4736 23.0777 8.4736H22.2157C22.1818 8.4736 22.1508 8.49255 22.1356 8.52264L19.9525 12.8325Z" fill="#DE3341"/>
<path fill-rule="evenodd" clip-rule="evenodd" d="M38.3679 9.91534C38.3679 9.86615 38.4081 9.82625 38.4576 9.82625L39.2588 9.82632C39.3083 9.82632 39.3485 9.86622 39.3485 9.91541V14.0076C39.3485 14.5912 39.1444 15.0825 38.7584 15.4284C38.372 15.7746 37.822 15.9576 37.1681 15.9576C35.654 15.9576 35.1801 14.9736 35.0606 14.6294C35.0406 14.5719 35.0845 14.5121 35.1457 14.5121H36.0581C36.0909 14.5121 36.1213 14.5295 36.1367 14.5583C36.205 14.6863 36.455 15.0362 37.1496 15.0362C37.8442 15.0362 38.2756 14.6454 38.2756 14.0163V13.5961H38.2722C38.147 13.7581 37.6777 14.1725 36.9833 14.1725C35.8014 14.1725 34.8398 13.1802 34.8398 11.9605C34.8398 11.3595 35.0657 10.7995 35.476 10.3836C35.88 9.97397 36.4153 9.74837 36.9832 9.74837C37.6754 9.74837 38.1648 10.1306 38.3362 10.3424H38.3679V9.91534ZM35.9034 11.9605C35.9034 12.6843 36.4264 13.2512 37.0941 13.2512C37.7455 13.2512 38.2755 12.6722 38.2755 11.9605C38.2755 11.2366 37.7566 10.6697 37.0941 10.6697C36.4265 10.6697 35.9034 11.2366 35.9034 11.9605Z" fill="#DE3341"/>
<path fill-rule="evenodd" clip-rule="evenodd" d="M47.7629 9.82625C47.7133 9.82625 47.6731 9.86615 47.6731 9.91534V10.3424H47.6415C47.4701 10.1306 46.9806 9.74837 46.2885 9.74837C45.7206 9.74837 45.1853 9.97397 44.7812 10.3836C44.371 10.7995 44.1451 11.3595 44.1451 11.9605C44.1451 13.1802 45.1066 14.1725 46.2886 14.1725C46.983 14.1725 47.4523 13.7581 47.5774 13.5961H47.5809V14.0163C47.5809 14.6454 47.1494 15.0362 46.4548 15.0362C45.7602 15.0362 45.5102 14.6863 45.4419 14.5583C45.4266 14.5295 45.3961 14.5121 45.3634 14.5121H44.4509C44.3897 14.5121 44.3459 14.5719 44.3659 14.6294C44.4854 14.9736 44.9593 15.9576 46.4733 15.9576C47.1273 15.9576 47.6773 15.7746 48.0637 15.4284C48.4497 15.0825 48.6537 14.5912 48.6537 14.0076V9.91541C48.6537 9.86622 48.6135 9.82632 48.564 9.82632L47.7629 9.82625ZM46.3993 13.2512C45.7317 13.2512 45.2087 12.6843 45.2087 11.9605C45.2087 11.2366 45.7317 10.6697 46.3993 10.6697C47.0618 10.6697 47.5807 11.2366 47.5807 11.9605C47.5807 12.6722 47.0507 13.2512 46.3993 13.2512Z" fill="#DE3341"/>
<path fill-rule="evenodd" clip-rule="evenodd" d="M23.5525 12.0765C23.5525 10.7907 24.6021 9.74837 25.8969 9.74837C27.1917 9.74837 28.2413 10.7907 28.2413 12.0765C28.2413 13.3623 27.1916 14.4046 25.8969 14.4046C24.6021 14.4046 23.5525 13.3624 23.5525 12.0765ZM24.5798 12.0764C24.5798 12.7988 25.1694 13.3844 25.8969 13.3844C26.6243 13.3844 27.2139 12.7988 27.2139 12.0764C27.2139 11.354 26.6243 10.7685 25.8969 10.7685C25.1694 10.7685 24.5798 11.354 24.5798 12.0764Z" fill="#DE3341"/>
<path fill-rule="evenodd" clip-rule="evenodd" d="M53.431 10.8475C53.0698 10.2465 52.3644 9.74882 51.4346 9.74882C51.0103 9.74882 50.6107 9.85389 50.2462 10.0608C49.0334 10.749 49.0465 11.9657 49.0476 12.0712L49.0477 12.0766C49.0477 13.0663 49.6158 13.7499 50.2371 14.0974C50.6012 14.3012 51.0072 14.4048 51.4443 14.4048C51.7796 14.4048 52.0964 14.3396 52.3853 14.2111C52.9185 13.9738 53.2972 13.5873 53.5024 13.1985C53.5336 13.1394 53.4894 13.0685 53.4222 13.0685H52.4765C52.4496 13.0685 52.425 13.081 52.4073 13.1011C52.2473 13.2837 51.8959 13.4809 51.4347 13.4809C50.399 13.4809 50.1888 12.6174 50.1573 12.4819H53.6018C53.6428 12.4819 53.6785 12.4544 53.6887 12.4148C53.7014 12.3657 53.717 12.2999 53.7224 12.2536L53.7232 12.2468C53.7359 12.1396 53.8136 11.4841 53.431 10.8475ZM50.1502 11.6914C50.2881 11.09 50.7815 10.6649 51.4348 10.6649C52.3672 10.6649 52.6256 11.515 52.6623 11.6914H50.1502Z" fill="#DE3341"/>
<path d="M28.7213 9.91534C28.7213 9.86607 28.7615 9.82625 28.811 9.82625L29.6102 9.82654C29.6597 9.82662 29.6998 9.86645 29.6998 9.91564V10.3453H29.7316C29.9055 10.1181 30.3391 9.74837 30.9096 9.74837C31.0618 9.74837 31.1824 9.76301 31.2545 9.77475C31.2979 9.78174 31.3291 9.81896 31.3291 9.86258V10.5961C31.3291 10.6649 31.2686 10.7183 31.1997 10.7094C31.1228 10.6994 31.0145 10.6899 30.8817 10.6899C30.216 10.6899 29.8024 11.1097 29.8024 11.7853V14.2311C29.8024 14.2803 29.7622 14.3202 29.7127 14.3202H28.811C28.7615 14.3202 28.7213 14.2803 28.7213 14.2311V9.91534Z" fill="#DE3341"/>
</g>
<defs>
<clipPath id="clip0_40000202_193">
<rect width="14" height="13" fill="white" transform="translate(1 1.5)"/>
</clipPath>
</defs>
</svg>
