<svg width="14" height="16" viewBox="0 0 14 16" fill="none" xmlns="http://www.w3.org/2000/svg">
<path d="M11.6968 1H2.30268C1.58315 1 1 1.60998 1 2.36261V13.6374C1 14.39 1.58315 15 2.30268 15H11.6973C12.4163 15 13 14.3895 13 13.6374V2.36207C12.9995 1.60943 12.4163 1 11.6968 1Z" fill="#6D33AA"/>
<path d="M3.49763 5.48977H7.93917C8.24172 5.48977 8.48731 5.23288 8.48731 4.91641V4.85629C8.48731 4.53982 8.24172 4.28293 7.93917 4.28293H3.49763C3.19508 4.28293 2.94949 4.53982 2.94949 4.85629V4.91641C2.94949 5.23288 3.19508 5.48977 3.49763 5.48977Z" fill="white"/>
<path d="M10.5017 6.35904H6.06014C5.7576 6.35904 5.512 6.61593 5.512 6.9324V6.99253C5.512 7.30899 5.7576 7.56588 6.06014 7.56588H10.5017C10.8042 7.56588 11.0498 7.30899 11.0498 6.99253V6.9324C11.0498 6.61593 10.8042 6.35904 10.5017 6.35904Z" fill="white"/>
<path d="M8.48734 9.06767V9.00755C8.48734 8.69108 8.24175 8.43419 7.9392 8.43419H3.49766C3.19511 8.43419 2.94952 8.69108 2.94952 9.00755V9.06767C2.94952 9.38414 3.19511 9.64103 3.49766 9.64103H7.9392C8.24175 9.64103 8.48734 9.38414 8.48734 9.06767Z" fill="white"/>
<path d="M10.5017 10.5099H7.21387C6.91132 10.5099 6.66573 10.7668 6.66573 11.0833V11.1434C6.66573 11.4599 6.91132 11.7168 7.21387 11.7168H10.5017C10.8042 11.7168 11.0498 11.4599 11.0498 11.1434V11.0833C11.0498 10.7668 10.8042 10.5099 10.5017 10.5099Z" fill="white"/>
</svg>
