<svg width="32" height="32" viewBox="0 0 32 32" fill="none" xmlns="http://www.w3.org/2000/svg">
<path d="M29.715 9.14001H28.185V21.33H29.715V9.14001Z" fill="#000001"/>
<path d="M28.185 7.62H26.665V9.14H28.185V7.62Z" fill="#000001"/>
<path d="M3.80497 22.86H12.945V32H14.475V22.86H19.045V32H20.565V22.86H28.185V21.33H14.475V9.14H12.945V7.62H19.045V12.19H20.565V7.62H26.665V6.09H20.565V4.57H25.135V0H19.045V6.09H5.32497V7.62H3.80497V9.14H2.28497V21.33H3.80497V22.86ZM20.565 1.52H23.615V3.05H20.565V1.52ZM3.80497 10.66H5.32497V9.14H8.37497V10.66H5.32497V18.28H3.80497V10.66Z" fill="#000001"/>
</svg>
