<svg width="24" height="24" viewBox="0 0 24 24" fill="none" xmlns="http://www.w3.org/2000/svg">
<path d="M20.6409 9.37359L19.0181 6.56109C18.67 5.95837 18.0969 5.51855 17.4246 5.33835C16.7523 5.15815 16.036 5.25232 15.4331 5.60015C15.0969 5.7944 14.8086 6.06158 14.5894 6.38202L12.9562 3.56109C12.7257 3.16242 12.3944 2.8314 11.9955 2.60128C11.5967 2.37115 11.1443 2.25 10.6837 2.25C10.2232 2.25 9.77084 2.37115 9.37195 2.60128C8.97307 2.8314 8.64175 3.16242 8.41125 3.56109C7.93188 3.18363 7.33599 2.98495 6.72602 2.9992C6.11605 3.01344 5.53009 3.23973 5.06887 3.63915C4.60764 4.03858 4.29996 4.58619 4.19871 5.18787C4.09746 5.78955 4.20897 6.40771 4.51406 6.93609L4.66312 7.19484C4.27523 7.22492 3.89907 7.34187 3.5625 7.53702C2.95968 7.88526 2.51988 8.45869 2.33985 9.13118C2.15982 9.80367 2.25429 10.5201 2.6025 11.123L6.3525 17.6217C6.89201 18.5616 7.61248 19.3852 8.47226 20.045C9.33203 20.7048 10.3141 21.1875 11.3616 21.4655C12.0624 21.6527 12.7848 21.7472 13.5103 21.7467C14.9573 21.7442 16.3782 21.3612 17.6304 20.6361C18.8826 19.911 19.922 18.8694 20.6445 17.6156C21.3669 16.3619 21.7468 14.9402 21.7462 13.4932C21.7456 12.0462 21.3644 10.6248 20.6409 9.37171V9.37359ZM20.0166 15.2461C19.6708 16.5353 18.9506 17.6931 17.9469 18.5731C16.9432 19.453 15.7012 20.0157 14.3778 20.1898C13.0544 20.364 11.7091 20.142 10.512 19.5517C9.31477 18.9614 8.31947 18.0294 7.65187 16.8736L3.90187 10.3748C3.75912 10.1169 3.72333 9.81321 3.8022 9.52914C3.88107 9.24507 4.0683 9.00331 4.3236 8.85588C4.5789 8.70845 4.88188 8.66712 5.16734 8.7408C5.4528 8.81448 5.69793 8.99726 5.85 9.24984L7.65281 12.3736C7.7006 12.4616 7.76554 12.5392 7.84379 12.6017C7.92204 12.6642 8.01202 12.7104 8.10841 12.7376C8.20481 12.7647 8.30567 12.7723 8.40505 12.7599C8.50443 12.7474 8.60031 12.7152 8.68704 12.6651C8.77376 12.615 8.84957 12.5481 8.91 12.4682C8.97043 12.3883 9.01425 12.2972 9.03888 12.2001C9.06351 12.103 9.06844 12.002 9.05339 11.903C9.03834 11.804 9.00361 11.709 8.95125 11.6236L5.8125 6.18609C5.7354 6.05804 5.6846 5.91591 5.66305 5.76801C5.6415 5.62011 5.64964 5.46939 5.68699 5.32467C5.72435 5.17995 5.79016 5.04412 5.8806 4.92512C5.97103 4.80612 6.08427 4.70634 6.2137 4.63159C6.34314 4.55685 6.48617 4.50865 6.63444 4.4898C6.78271 4.47095 6.93325 4.48184 7.07726 4.52182C7.22128 4.56181 7.35588 4.63009 7.47322 4.72268C7.59055 4.81527 7.68825 4.93031 7.76062 5.06109L10.6875 10.1236C10.7353 10.2116 10.8002 10.2892 10.8785 10.3517C10.9567 10.4142 11.0467 10.4604 11.1431 10.4876C11.2395 10.5147 11.3404 10.5223 11.4397 10.5099C11.5391 10.4974 11.635 10.4652 11.7217 10.4151C11.8084 10.365 11.8843 10.2981 11.9447 10.2182C12.0051 10.1383 12.0489 10.0472 12.0736 9.9501C12.0982 9.85302 12.1031 9.75199 12.0881 9.65298C12.073 9.55396 12.0383 9.45896 11.9859 9.37359L9.70968 5.43609C9.63259 5.30804 9.58179 5.16591 9.56024 5.01801C9.53869 4.87011 9.54683 4.71939 9.58418 4.57467C9.62153 4.42995 9.68735 4.29412 9.77778 4.17512C9.86822 4.05612 9.98146 3.95634 10.1109 3.88159C10.2403 3.80685 10.3834 3.75865 10.5316 3.7398C10.6799 3.72095 10.8304 3.73184 10.9745 3.77182C11.1185 3.81181 11.2531 3.88009 11.3704 3.97268C11.4877 4.06527 11.5854 4.18031 11.6578 4.31109L14.7909 9.73921C14.0612 10.4803 13.6106 11.4513 13.5159 12.487C13.4212 13.5228 13.6882 14.5594 14.2716 15.4205C14.3834 15.5851 14.5561 15.6985 14.7516 15.7357C14.9472 15.773 15.1495 15.7311 15.3141 15.6192C15.4787 15.5073 15.5921 15.3346 15.6293 15.1391C15.6666 14.9436 15.6247 14.7413 15.5128 14.5767C15.0821 13.9388 14.913 13.1598 15.0406 12.4007C15.1681 11.6416 15.5825 10.9607 16.1981 10.4986C16.3449 10.3886 16.4462 10.2286 16.483 10.049C16.5198 9.86932 16.4895 9.68241 16.3978 9.52359L15.7716 8.43609C15.6919 8.30802 15.6388 8.16525 15.6155 8.01626C15.5921 7.86727 15.5989 7.7151 15.6355 7.5688C15.6722 7.4225 15.7378 7.28506 15.8286 7.16465C15.9194 7.04423 16.0335 6.9433 16.1641 6.86785C16.2947 6.79241 16.4391 6.74399 16.5888 6.72547C16.7384 6.70696 16.8903 6.71872 17.0353 6.76007C17.1804 6.80142 17.3156 6.87151 17.433 6.96617C17.5504 7.06082 17.6476 7.17812 17.7187 7.31109L19.3416 10.1236C19.7868 10.8902 20.0757 11.7374 20.1916 12.6163C20.3074 13.4953 20.248 14.3884 20.0166 15.2442V15.2461ZM17.2734 2.9714C17.3239 2.77934 17.4485 2.61513 17.6198 2.51478C17.7912 2.41443 17.9953 2.38613 18.1875 2.43609C18.9038 2.62486 19.5754 2.95414 20.1634 3.40478C20.7513 3.85542 21.2438 4.41843 21.6122 5.06109L21.6431 5.11452C21.6955 5.1999 21.7302 5.2949 21.7453 5.39391C21.7603 5.49293 21.7554 5.59396 21.7308 5.69104C21.7061 5.78812 21.6623 5.87928 21.6019 5.95915C21.5415 6.03902 21.4656 6.10597 21.3789 6.15607C21.2922 6.20616 21.1963 6.23838 21.0969 6.25082C20.9975 6.26326 20.8967 6.25566 20.8003 6.22849C20.7039 6.20132 20.6139 6.15511 20.5357 6.0926C20.4574 6.03009 20.3925 5.95254 20.3447 5.86452L20.3137 5.81109C20.0434 5.34011 19.682 4.92764 19.2506 4.59769C18.8193 4.26774 18.3266 4.0269 17.8012 3.88921C17.6097 3.83718 17.4467 3.71137 17.3477 3.53934C17.2488 3.36731 17.2221 3.16309 17.2734 2.9714ZM7.58343 22.2173C7.4603 22.3734 7.28025 22.4742 7.08283 22.4976C6.88542 22.521 6.6868 22.465 6.53062 22.342C5.40886 21.456 4.46693 20.3635 3.75562 19.1236C3.70638 19.0383 3.67442 18.9441 3.66157 18.8464C3.64872 18.7487 3.65524 18.6495 3.68074 18.5544C3.70625 18.4592 3.75025 18.37 3.81023 18.2919C3.87021 18.2137 3.94499 18.1481 4.03031 18.0989C4.11563 18.0497 4.20981 18.0177 4.30748 18.0048C4.40515 17.992 4.50439 17.9985 4.59954 18.024C4.69469 18.0495 4.78389 18.0935 4.86204 18.1535C4.94018 18.2135 5.00575 18.2883 5.055 18.3736C5.67151 19.4469 6.48738 20.3926 7.45875 21.1598C7.5367 21.2208 7.6018 21.2967 7.6503 21.383C7.6988 21.4693 7.72973 21.5643 7.74133 21.6626C7.75292 21.7609 7.74493 21.8606 7.71783 21.9558C7.69073 22.051 7.64506 22.1399 7.58343 22.2173Z" fill="#555555"/>
</svg>
