<svg width="24" height="24" viewBox="0 0 24 24" fill="none" xmlns="http://www.w3.org/2000/svg">
<rect width="24" height="24" rx="12" fill="#111111"/>
<path d="M7.71746 8.68064H5.9837V7.61888H7.71746V7.1888C7.71746 6.79456 7.7981 6.42272 7.95938 6.07328C8.12066 5.71488 8.36706 5.40576 8.69858 5.14592C9.03906 4.87712 9.46914 4.66656 9.98882 4.51424C10.5085 4.35296 11.1267 4.27232 11.8435 4.27232C12.865 4.27232 13.8147 4.42912 14.6928 4.74272C15.5709 5.04736 16.3549 5.41472 17.0448 5.8448L16.561 6.8528C15.8979 6.45856 15.1856 6.12704 14.424 5.85824C13.6714 5.58944 12.8381 5.45504 11.9242 5.45504C11.4045 5.45504 10.9655 5.50432 10.6071 5.60288C10.2487 5.70144 9.95298 5.83584 9.72002 6.00608C9.49602 6.16736 9.33026 6.35552 9.22274 6.57056C9.12418 6.77664 9.0749 6.99168 9.0749 7.21568V7.61888H10.8087V8.68064H9.0749V17H7.71746V8.68064ZM11.2567 16.8522L13.1517 14.984L14.2135 14.1104L14.2001 14.0432C14.1373 14.0522 14.0881 14.0566 14.0522 14.0566C14.0253 14.0566 13.9895 14.0566 13.9447 14.0566C13.649 14.0566 13.3578 14.0118 13.0711 13.9222C12.7933 13.8237 12.5425 13.6669 12.3185 13.4518C12.1034 13.2368 11.9287 12.9546 11.7943 12.6051C11.6689 12.2557 11.6061 11.8301 11.6061 11.3283V8.68064H10.2756V7.61888H19.0116V8.68064H17.2913V17H15.9338V13.8685H15.8801L14.9527 14.9168L12.1975 17.7258L11.2567 16.8522ZM12.9636 11.3418C12.9636 11.9152 13.0801 12.3274 13.313 12.5782C13.5549 12.8291 13.9044 12.9546 14.3613 12.9546C14.8721 12.9546 15.2618 12.8291 15.5306 12.5782C15.7994 12.3184 15.9338 11.9734 15.9338 11.5434V8.68064H12.9636V11.3418Z" fill="white"/>
</svg>
