<svg width="32" height="32" viewBox="0 0 32 32" fill="none" xmlns="http://www.w3.org/2000/svg">
<g clip-path="url(#clip0_1138_60553)">
<path d="M32 3.04999H30.47V28.95H32V3.04999Z" fill="#000001"/>
<path d="M30.47 28.95H28.95V30.48H30.47V28.95Z" fill="#000001"/>
<path d="M30.47 1.52002H28.95V3.05002H30.47V1.52002Z" fill="#000001"/>
<path d="M28.95 4.57001H27.42V27.43H28.95V4.57001Z" fill="#000001"/>
<path d="M28.95 30.48H3.03999V32H28.95V30.48Z" fill="#000001"/>
<path d="M27.42 27.43H4.57001V28.95H27.42V27.43Z" fill="#000001"/>
<path d="M22.85 15.24H21.33V13.71H18.28V15.24H16.76V13.71H13.71V22.86H16.76V18.29H18.28V16.76H19.81V18.29H21.33V22.86H24.38V16.76H22.85V15.24Z" fill="#000001"/>
<path d="M10.66 13.71H7.61V22.86H10.66V13.71Z" fill="#000001"/>
<path d="M10.66 9.14001H7.61V12.19H10.66V9.14001Z" fill="#000001"/>
<path d="M27.42 3.04999H4.57001V4.56999H27.42V3.04999Z" fill="#000001"/>
<path d="M28.95 0H3.03999V1.52H28.95V0Z" fill="#000001"/>
<path d="M4.56999 4.57001H3.03999V27.43H4.56999V4.57001Z" fill="#000001"/>
<path d="M3.04 28.95H1.52V30.48H3.04V28.95Z" fill="#000001"/>
<path d="M3.04 1.52002H1.52V3.05002H3.04V1.52002Z" fill="#000001"/>
<path d="M1.52 3.04999H0V28.95H1.52V3.04999Z" fill="#000001"/>
</g>
<defs>
<clipPath id="clip0_1138_60553">
<rect width="32" height="32" fill="white"/>
</clipPath>
</defs>
</svg>
