<svg width="16" height="16" viewBox="0 0 16 16" fill="none" xmlns="http://www.w3.org/2000/svg">
<path d="M2.23044 0H5.04782H7.23913C9.38171 0 9.6466 1.71369 9.49127 2.48873C8.80724 5.90177 7.41391 12.8441 7.31304 13.3091C7.24766 13.6106 7.3893 13.6536 7.49565 13.3522C8.81594 9.61048 11.5026 1.99788 11.6869 1.48119C11.9739 0.684618 13.0609 -0.258346 14.5174 0.0947266C15.6826 0.377186 16 1.61897 16 2.19594V14.011C16 14.842 15.0835 16.417 13.1565 15.8969C11.2296 15.3768 11.3913 13.5531 11.713 12.7063C12.8203 10.1459 15.0809 4.9146 15.2652 4.47369C15.3642 4.23688 15.2487 4.1809 15.1044 4.39189C13.1768 7.20786 9.12261 13.1309 8.32609 14.2951C7.52956 15.4595 6.56522 15.7635 5.96087 15.7635C1.38 15.7635 0 11.2682 0 9.02489V2.30359C0 0.481385 1.48695 0.00861154 2.23044 0Z" fill="#B2AFBB"/>
</svg>
