<svg width="28" height="28" viewBox="0 0 28 28" fill="none" xmlns="http://www.w3.org/2000/svg">
<path d="M20.6722 20.6758C20.6184 20.7738 20.5392 20.8556 20.443 20.9126C20.3469 20.9696 20.2371 20.9998 20.1253 21H16.3753C16.2701 21 16.1666 20.9734 16.0745 20.9227C15.9823 20.8721 15.9044 20.7989 15.848 20.7102L12.6847 15.7391L8.0878 20.7953C7.97574 20.9157 7.82075 20.987 7.65643 20.9939C7.49211 21.0008 7.33171 20.9426 7.21 20.832C7.08829 20.7214 7.01508 20.5673 7.00625 20.403C6.99741 20.2388 7.05366 20.0777 7.1628 19.9547L11.9886 14.6422L7.09796 6.96094C7.03773 6.86644 7.00401 6.75749 7.00034 6.64548C6.99666 6.53348 7.02317 6.42255 7.07708 6.32431C7.131 6.22607 7.21033 6.14413 7.30678 6.08708C7.40323 6.03002 7.51324 5.99995 7.6253 6H11.3753C11.4805 6.00003 11.584 6.02661 11.6762 6.07728C11.7683 6.12795 11.8462 6.20106 11.9026 6.28984L15.0659 11.2609L19.6628 6.20469C19.7749 6.08431 19.9299 6.01296 20.0942 6.00609C20.2585 5.99923 20.4189 6.0574 20.5406 6.16801C20.6623 6.27862 20.7355 6.43275 20.7444 6.59697C20.7532 6.7612 20.6969 6.92228 20.5878 7.04531L15.762 12.3539L20.6526 20.0398C20.7125 20.1344 20.746 20.2433 20.7494 20.3551C20.7528 20.467 20.7262 20.5777 20.6722 20.6758Z" fill="#555555"/>
</svg>
