<svg preserveAspectRatio="none" width="158" height="24" overflow="visible" style="display: block;" viewBox="0 0 158 24" fill="none" xmlns="http://www.w3.org/2000/svg">
<g id="Indiana_University_logotype 1" clip-path="url(#clip0_0_12)">
<path id="Vector" d="M12.9542 3.14074V4.92741H14.1904V14.883H11.5758V1.78667H12.9661V0H6.4445V1.78667H7.83478V14.883H5.19058V4.92741H6.42672V3.14074H0.290507V4.92741H1.67486V16.4533L3.92777 18.7526H7.84071V21.4074H6.45636V23.7067H12.9779V21.4074H11.5936V18.7526H15.4769L17.7298 16.4533V4.92741H19.1171V3.14074H12.9809H12.9542Z" fill="var(--fill-0, #990000)"/>
<path id="Vector_2" d="M25.7306 16H26.7711V8.23704H25.7306V7.79556H29.6435V8.23704H28.6179V16H29.6435V16.4415H25.7306V16Z" fill="var(--fill-0, black)"/>
<path id="Vector_3" d="M37.9437 16.5333H37.1759L32.018 10.0741V15.0815C32.018 15.4963 32.0565 15.7511 32.1336 15.8489C32.2107 15.9437 32.3974 15.9911 32.6909 15.9911H33.2096V16.4326H30.5595V15.9911H30.8974C31.182 15.9911 31.3747 15.9437 31.4696 15.8489C31.5377 15.7541 31.5733 15.4993 31.5733 15.0815V7.76296H32.5101L37.4902 14.0148V9.12593C37.4902 8.71111 37.4516 8.45037 37.3746 8.34667C37.2975 8.25185 37.1107 8.20444 36.8173 8.20444H36.4793V7.76296H38.9486V8.20444H38.6107C38.3172 8.20444 38.1305 8.25185 38.0534 8.34667C37.9763 8.45037 37.9378 8.71111 37.9378 9.12593V16.5037" fill="var(--fill-0, black)"/>
<path id="Vector_4" d="M39.7223 16H40.7628V8.23704H39.7223V7.79556H43.7835C44.6758 7.79556 45.325 7.87852 45.7311 8.04148C46.1728 8.22222 46.6145 8.56 47.0561 9.05481C47.7587 9.86074 48.1085 10.8889 48.1085 12.1363C48.1085 13.0459 47.9188 13.8548 47.5364 14.5659C47.0947 15.363 46.4633 15.917 45.6392 16.2281C45.3101 16.3407 44.9811 16.4089 44.652 16.4356C44.5038 16.4444 44.2193 16.4474 43.7954 16.4474H39.7342V16.0059M42.6066 8.24296V16.0059H43.8013C44.243 16.0059 44.5602 15.9674 44.7499 15.8904C45.2093 15.7096 45.5325 15.3007 45.7251 14.6696C45.8734 14.1333 45.9475 13.28 45.9475 12.1126C45.9475 11.0904 45.8882 10.2993 45.7666 9.7363C45.6362 9.13778 45.3724 8.71407 44.9752 8.46222C44.8032 8.34963 44.6076 8.28148 44.3912 8.25482C44.1837 8.23704 43.988 8.22815 43.8072 8.22815H42.6126" fill="var(--fill-0, black)"/>
<path id="Vector_5" d="M48.9118 16H49.9523V8.23704H48.9118V7.79556H52.8248V8.23704H51.7991V16H52.8248V16.4415H48.9118V16Z" fill="var(--fill-0, black)"/>
<path id="Vector_6" d="M58.9906 16L58.2881 14.1807H55.5727L55.1192 15.4933C55.0599 15.6652 55.0273 15.7778 55.0273 15.8311C55.0273 15.9437 55.1755 16 55.469 16H56.0678V16.4415H53.3791V16H53.7674C54.0787 16 54.2921 15.9526 54.4048 15.8578C54.4818 15.7985 54.5737 15.6207 54.6775 15.3244L57.458 7.79852H57.8731L60.8344 16.0059H61.7445V16.4474H57.8612V16.0059H58.9788M55.718 13.7452H58.1221L56.9126 10.397L55.718 13.7452Z" fill="var(--fill-0, black)"/>
<path id="Vector_7" d="M69.3659 16.5333H68.5981L63.4401 10.0741V15.0815C63.4401 15.4963 63.4786 15.7511 63.5557 15.8489C63.6328 15.9437 63.8196 15.9911 64.113 15.9911H64.6318V16.4326H61.9817V15.9911H62.3196C62.6042 15.9911 62.7969 15.9437 62.8917 15.8489C62.9599 15.7541 62.9955 15.4993 62.9955 15.0815V7.76296H63.9322L68.9123 14.0148V9.12593C68.9123 8.71111 68.8738 8.45037 68.7967 8.34667C68.7196 8.25185 68.5329 8.20444 68.2394 8.20444H67.9015V7.76296H70.3708V8.20444H70.0328C69.7394 8.20444 69.5526 8.25185 69.4755 8.34667C69.3985 8.45037 69.3599 8.71111 69.3599 9.12593V16.5037" fill="var(--fill-0, black)"/>
<path id="Vector_8" d="M75.8874 16L75.1849 14.1807H72.4695L72.016 15.4933C71.9567 15.6652 71.9241 15.7778 71.9241 15.8311C71.9241 15.9437 72.0723 16 72.3658 16H72.9646V16.4415H70.2759V16H70.6642C70.9755 16 71.1889 15.9526 71.3016 15.8578C71.3786 15.7985 71.4705 15.6207 71.5743 15.3244L74.3549 7.79852H74.7699L77.7313 16.0059H78.6413V16.4474H74.758V16.0059H75.8756M72.6148 13.7452H75.0189L73.8094 10.397L72.6148 13.7452Z" fill="var(--fill-0, black)"/>
<path id="Vector_9" d="M83.2983 13.6889V8.23704H82.2578V7.79556H86.2893V8.23704H85.1332V13.6889C85.1332 14.2341 85.151 14.6074 85.1866 14.8059C85.2548 15.2474 85.4593 15.5822 85.7973 15.8044C86.0907 16.0119 86.4761 16.1156 86.9534 16.1156C87.7774 16.1156 88.3555 15.8785 88.6934 15.4015C88.8417 15.1852 88.9306 14.957 88.9662 14.7141C89.0106 14.48 89.0314 14.1393 89.0314 13.6889V9.18519C89.0314 8.76148 88.9928 8.49778 88.9158 8.39407C88.8387 8.29926 88.646 8.25185 88.3436 8.25185H88.0057V7.81037H90.475V8.25185H90.1371C89.8525 8.25185 89.6687 8.29926 89.5916 8.39407C89.5146 8.49778 89.476 8.76148 89.476 9.18519V13.6889C89.476 14.3822 89.4375 14.8504 89.3604 15.0904C89.1796 15.6356 88.8239 16.0415 88.2962 16.3111C87.7952 16.563 87.2053 16.6874 86.5295 16.6874C85.8892 16.6874 85.2874 16.5837 84.7242 16.3763C84.1016 16.1333 83.6837 15.7748 83.4762 15.2978C83.3813 15.0904 83.328 14.8296 83.3191 14.5185C83.3102 14.3881 83.3072 14.1126 83.3072 13.6889" fill="var(--fill-0, black)"/>
<path id="Vector_10" d="M98.1201 16.5333H97.3523L92.1943 10.0741V15.0815C92.1943 15.4963 92.2329 15.7511 92.3099 15.8489C92.387 15.9437 92.5738 15.9911 92.8672 15.9911H93.386V16.4326H90.7359V15.9911H91.0738C91.3584 15.9911 91.5511 15.9437 91.6459 15.8489C91.7141 15.7541 91.7497 15.4993 91.7497 15.0815V7.76296H92.6864L97.6665 14.0148V9.12593C97.6665 8.71111 97.628 8.45037 97.5509 8.34667C97.4738 8.25185 97.2871 8.20444 96.9936 8.20444H96.6557V7.76296H99.125V8.20444H98.7871C98.4936 8.20444 98.3068 8.25185 98.2298 8.34667C98.1527 8.45037 98.1141 8.71111 98.1141 9.12593V16.5037" fill="var(--fill-0, black)"/>
<path id="Vector_11" d="M99.6022 16H100.643V8.23704H99.6022V7.79556H103.515V8.23704H102.49V16H103.515V16.4415H99.6022V16Z" fill="var(--fill-0, black)"/>
<path id="Vector_12" d="M108.199 8.23704H107.158L109.355 13.8963L111.057 8.77037C111.101 8.62222 111.122 8.5363 111.122 8.50963C111.122 8.40593 111.083 8.33778 111.006 8.30222C110.92 8.25778 110.716 8.23704 110.395 8.23704H110.111V7.79556H112.619V8.23704H112.411C112.15 8.23704 111.949 8.2963 111.801 8.41778C111.697 8.5037 111.587 8.70815 111.474 9.02815L108.928 16.6133H108.552L105.261 8.22815H104.455V7.78667H108.22V8.22815" fill="var(--fill-0, black)"/>
<path id="Vector_13" d="M112.942 16H113.982V8.23704H112.942V7.79556H119.76L119.955 10.003H119.526C119.369 9.3363 119.143 8.87407 118.85 8.61333C118.651 8.44148 118.399 8.32889 118.097 8.27556C117.925 8.24889 117.658 8.23704 117.305 8.23704H115.799V11.8222H116.164C116.606 11.8222 116.935 11.7541 117.151 11.6148C117.385 11.4578 117.528 11.2267 117.581 10.9126C117.599 10.8 117.617 10.6133 117.634 10.3556H118.064V13.8815H117.634C117.608 13.3807 117.531 13.0104 117.4 12.7763C117.211 12.4296 116.787 12.2578 116.126 12.2578H115.799V15.9911H116.994C117.661 15.9911 118.162 15.923 118.5 15.7837C119.114 15.5407 119.549 14.8415 119.798 13.68H120.228L120.047 16.4326H112.933V15.9911" fill="var(--fill-0, black)"/>
<path id="Vector_14" d="M120.946 16H121.986V8.23704H120.946V7.79556H124.681C125.496 7.79556 126.109 7.85185 126.524 7.96444C127.079 8.1037 127.512 8.40296 127.823 8.85926C128.013 9.13778 128.107 9.46074 128.107 9.83407C128.107 10.5452 127.767 11.0933 127.082 11.4844C126.762 11.6741 126.415 11.7867 126.041 11.8222C125.789 11.8489 125.597 11.8667 125.457 11.8756C125.881 11.9289 126.344 12.0622 126.848 12.2785C127.357 12.4948 127.713 12.8415 127.912 13.3185C128.016 13.5615 128.069 13.8193 128.069 14.0978L128.042 14.8V14.8919C128.042 15.2978 128.116 15.597 128.265 15.7867C128.395 15.9437 128.555 16.0207 128.745 16.0207H129.083V16.4622H127.861C127.375 16.4622 127.025 16.3674 126.809 16.1778C126.637 16.0207 126.51 15.8696 126.433 15.7244C126.329 15.5585 126.275 15.3126 126.275 14.9837V13.84C126.275 13.2504 126.127 12.8267 125.834 12.5659C125.6 12.3674 125.362 12.2281 125.119 12.1511C124.939 12.0919 124.621 12.0593 124.171 12.0593H123.806V16.0296H124.832V16.4711H120.919V16.0296M123.791 8.26667V11.6444H124.663C125.096 11.6444 125.404 11.6 125.585 11.5141C126.026 11.3333 126.249 10.7704 126.249 9.82519C126.249 9.24444 126.118 8.82074 125.86 8.55111C125.748 8.42963 125.585 8.34667 125.365 8.30519C125.226 8.27852 124.992 8.26667 124.663 8.26667H123.791Z" fill="var(--fill-0, black)"/>
<path id="Vector_15" d="M135.174 7.79259H135.512V10.1304H135.097C135.029 9.67111 134.825 9.22667 134.487 8.79407C134.122 8.31704 133.577 8.08 132.85 8.08C132.427 8.08 132.05 8.18074 131.721 8.37926C131.324 8.62222 131.122 8.96 131.122 9.39259C131.122 9.67704 131.214 9.92593 131.395 10.1333C131.567 10.3496 131.905 10.5363 132.409 10.6904C132.418 10.6904 132.462 10.7022 132.539 10.7289C132.616 10.7467 132.726 10.7763 132.865 10.8207C133.013 10.8563 133.168 10.8948 133.334 10.9363C134.009 11.1348 134.472 11.283 134.724 11.3778C135.269 11.603 135.667 11.9615 135.919 12.4563C136.117 12.8533 136.218 13.2919 136.218 13.7689C136.218 14.3319 136.079 14.8563 135.803 15.3393C135.524 15.7985 135.124 16.1452 134.593 16.3793C134.143 16.5778 133.68 16.6785 133.203 16.6785C132.388 16.6785 131.617 16.4178 130.891 15.8993L130.449 16.4563H130.085V14.0415H130.553C130.701 14.6311 130.935 15.0844 131.256 15.4044C131.751 15.923 132.391 16.1837 133.179 16.1837C133.666 16.1837 134.098 16.0415 134.478 15.7541C134.902 15.4341 135.115 15.0667 135.115 14.6489C135.115 14.2844 134.973 13.9615 134.685 13.6741C134.442 13.4133 134.11 13.2237 133.686 13.1022C133.488 13.0489 132.945 12.8889 132.062 12.6222C131.576 12.4741 131.253 12.3496 131.087 12.2459C130.42 11.8133 130.088 11.1674 130.088 10.3111C130.088 9.48148 130.357 8.81778 130.894 8.32296C131.413 7.82815 132.062 7.58222 132.842 7.58222C133.343 7.58222 133.826 7.69778 134.282 7.93185L134.736 8.19259L135.177 7.78963" fill="var(--fill-0, black)"/>
<path id="Vector_16" d="M136.953 16H137.994V8.23704H136.953V7.79556H140.866V8.23704H139.84V16H140.866V16.4415H136.953V16Z" fill="var(--fill-0, black)"/>
<path id="Vector_17" d="M143.475 16H144.643V8.23704H144.293C143.774 8.23704 143.389 8.30222 143.137 8.43259C142.514 8.76148 142.158 9.43704 142.073 10.4593H141.643L141.812 7.79852H149.282L149.451 10.4593H149.009C148.956 9.80148 148.772 9.26519 148.452 8.85037C148.227 8.57482 147.954 8.39704 147.634 8.31704C147.462 8.2637 147.189 8.24 146.815 8.24H146.466V16.003H147.622V16.4444H143.472V16.003" fill="var(--fill-0, black)"/>
<path id="Vector_18" d="M151.775 16H152.943V12.4444L150.45 8.23704H149.658V7.79556H153.66V8.23704H152.543L154.609 11.7926L156.218 8.77037C156.304 8.60444 156.349 8.48593 156.349 8.40593C156.349 8.32889 156.301 8.26667 156.207 8.22519C156.18 8.2163 156.076 8.21333 155.895 8.21333H155.297V7.77185H157.804V8.21333H157.57C157.309 8.21333 157.117 8.26667 156.986 8.37037C156.918 8.4237 156.805 8.58667 156.648 8.86519L154.79 12.4207V15.9763H155.946V16.4178H151.796V15.9763" fill="var(--fill-0, black)"/>
</g>
<defs>
<clipPath id="clip0_0_12">
<rect width="158" height="24" fill="white"/>
</clipPath>
</defs>
</svg>
