<svg width="400" height="400" viewBox="0 0 400 400" fill="none" xmlns="http://www.w3.org/2000/svg">
<rect width="400" height="400" rx="200" fill="#111111"/>
<path d="M120.791 149.344H91.895V131.648H120.791V124.48C120.791 117.909 122.135 111.712 124.823 105.888C127.511 99.9147 131.618 94.7627 137.143 90.432C142.818 85.952 149.986 82.4427 158.647 79.904C167.308 77.216 177.612 75.872 189.559 75.872C206.583 75.872 222.412 78.4853 237.047 83.712C251.682 88.7893 264.748 94.912 276.247 102.08L268.183 118.88C257.132 112.309 245.26 106.784 232.567 102.304C220.023 97.824 206.135 95.584 190.903 95.584C182.242 95.584 174.924 96.4053 168.951 98.048C162.978 99.6907 158.05 101.931 154.167 104.768C150.434 107.456 147.671 110.592 145.879 114.176C144.236 117.611 143.415 121.195 143.415 124.928V131.648H172.311V149.344H143.415V288H120.791V149.344ZM179.778 285.536L211.362 254.4L229.058 239.84L228.834 238.72C227.789 238.869 226.968 238.944 226.37 238.944C225.922 238.944 225.325 238.944 224.578 238.944C219.65 238.944 214.797 238.197 210.018 236.704C205.389 235.061 201.208 232.448 197.474 228.864C193.89 225.28 190.978 220.576 188.738 214.752C186.648 208.928 185.602 201.835 185.602 193.472V149.344H163.426V131.648H309.026V149.344H280.354V288H257.73V235.808H256.834L241.378 253.28L195.458 300.096L179.778 285.536ZM208.226 193.696C208.226 203.253 210.168 210.123 214.05 214.304C218.082 218.485 223.906 220.576 231.522 220.576C240.034 218.485 246.53 218.485 251.01 214.304C255.49 209.973 257.73 204.224 257.73 197.056V149.344H208.226V193.696Z" fill="white"/>
</svg>
