<svg preserveAspectRatio="none" width="9.89" height="10" overflow="visible" style="display: block;" viewBox="0 0 9.89214 10" fill="none" xmlns="http://www.w3.org/2000/svg">
<path id="Vector" d="M4.8517 0.0804273C4.8699 -0.0268096 5.02224 -0.0268089 5.04044 0.0804281L5.05235 0.150546C5.46406 2.57633 7.3436 4.47637 9.74322 4.89257L9.81259 4.9046C9.91867 4.923 9.91866 5.077 9.81258 5.0954L9.74322 5.10743C7.3436 5.52363 5.46406 7.42367 5.05234 9.84946L5.04044 9.91957C5.02224 10.0268 4.8699 10.0268 4.8517 9.91957L4.8398 9.84946C4.42809 7.42367 2.54855 5.52363 0.148921 5.10743L0.0795605 5.0954C-0.0265198 5.077 -0.0265204 4.923 0.07956 4.9046L0.148922 4.89257C2.54855 4.47637 4.42809 2.57633 4.8398 0.150545L4.8517 0.0804273Z" fill="var(--fill-0, #DE3341)"/>
</svg>
