<svg width="106" height="24" viewBox="0 0 106 24" fill="none" xmlns="http://www.w3.org/2000/svg">
<path d="M13.6036 9.8724C13.6036 8.03145 15.0799 6.53906 16.901 6.53906C18.7221 6.53906 20.1984 8.03145 20.1984 9.8724V17.6641C20.1984 19.505 18.7221 20.9974 16.901 20.9974C15.0799 20.9974 13.6036 19.505 13.6036 17.6641V9.8724Z" fill="#111111"/>
<path d="M5.36017 16.8304C5.36017 14.5292 7.20553 12.6637 9.4819 12.6637C11.7583 12.6637 13.6036 14.5292 13.6036 16.8304C13.6036 19.1316 11.7583 20.9971 9.4819 20.9971C7.20553 20.9971 5.36017 19.1316 5.36017 16.8304Z" fill="#111111"/>
<path d="M9.38753 2.74449C9.40573 2.63725 9.55807 2.63725 9.57627 2.74449L9.58817 2.81461C9.99988 5.2404 11.8794 7.14043 14.279 7.55663L14.3484 7.56866C14.4545 7.58706 14.4545 7.74107 14.3484 7.75946L14.2791 7.77149C11.8794 8.18769 9.99988 10.0877 9.58817 12.5135L9.57627 12.5836C9.55807 12.6909 9.40573 12.6909 9.38753 12.5836L9.37563 12.5135C8.96391 10.0877 7.08437 8.18769 4.68475 7.77149L4.61539 7.75946C4.50931 7.74107 4.50931 7.58706 4.61539 7.56866L4.68475 7.55663C7.08437 7.14043 8.96392 5.2404 9.37563 2.81461L9.38753 2.74449Z" fill="#DE3341"/>
<path d="M32.6466 15.7003C32.7979 15.9973 32.9226 16.2313 33.0205 16.4023C33.1184 16.5643 33.2297 16.7218 33.3544 16.8748H31.6584C31.5248 16.7128 31.3468 16.3933 31.1242 15.9163L30.2829 14.1343C30.1226 13.7833 29.9624 13.5448 29.8021 13.4188C29.6418 13.2928 29.4104 13.2298 29.1077 13.2298H27.6921V16.8748H26.1964V7.42481H29.6819C30.2428 7.42481 30.7503 7.55081 31.2043 7.80281C31.6584 8.05481 32.0145 8.40131 32.2727 8.84231C32.5308 9.27431 32.6599 9.75131 32.6599 10.2733C32.6599 10.8583 32.4908 11.3668 32.1525 11.7988C31.8231 12.2218 31.3735 12.5323 30.8037 12.7303C30.9817 12.8293 31.142 12.9688 31.2844 13.1488C31.4269 13.3198 31.5738 13.5583 31.7251 13.8643L32.6466 15.7003ZM29.6418 11.8393C30.087 11.8393 30.452 11.6998 30.7369 11.4208C31.0218 11.1418 31.1642 10.7908 31.1642 10.3678C31.1642 9.92681 31.0218 9.56681 30.7369 9.28781C30.452 8.99981 30.087 8.85581 29.6418 8.85581H27.6921V11.8393H29.6418Z" fill="#111111"/>
<path d="M37.4408 17.0368C36.7731 17.0368 36.1721 16.8793 35.638 16.5643C35.1038 16.2403 34.6809 15.7993 34.3693 15.2413C34.0666 14.6833 33.9153 14.0578 33.9153 13.3648C33.9153 12.6808 34.0666 12.0643 34.3693 11.5153C34.6809 10.9573 35.1038 10.5208 35.638 10.2058C36.1721 9.88181 36.7731 9.71981 37.4408 9.71981C38.1085 9.71981 38.7095 9.88181 39.2437 10.2058C39.7778 10.5208 40.1963 10.9573 40.499 11.5153C40.8106 12.0643 40.9664 12.6808 40.9664 13.3648C40.9664 14.0578 40.8106 14.6833 40.499 15.2413C40.1963 15.7993 39.7778 16.2403 39.2437 16.5643C38.7095 16.8793 38.1085 17.0368 37.4408 17.0368ZM37.4408 15.7003C37.8414 15.7003 38.202 15.6013 38.5225 15.4033C38.843 15.2053 39.0923 14.9308 39.2704 14.5798C39.4573 14.2198 39.5508 13.8148 39.5508 13.3648C39.5508 12.9238 39.4573 12.5278 39.2704 12.1768C39.0923 11.8168 38.843 11.5378 38.5225 11.3398C38.202 11.1418 37.8414 11.0428 37.4408 11.0428C37.0402 11.0428 36.6796 11.1418 36.3591 11.3398C36.0386 11.5378 35.7849 11.8168 35.5979 12.1768C35.4198 12.5278 35.3308 12.9238 35.3308 13.3648C35.3308 13.8148 35.4198 14.2198 35.5979 14.5798C35.7849 14.9308 36.0386 15.2053 36.3591 15.4033C36.6796 15.6013 37.0402 15.7003 37.4408 15.7003Z" fill="#111111"/>
<path d="M45.3926 17.0368C44.7783 17.0368 44.213 16.8748 43.6966 16.5508C43.1802 16.2268 42.7707 15.7858 42.468 15.2278C42.1653 14.6698 42.014 14.0488 42.014 13.3648C42.014 12.6898 42.1653 12.0733 42.468 11.5153C42.7707 10.9573 43.1802 10.5208 43.6966 10.2058C44.213 9.88181 44.7783 9.71981 45.3926 9.71981C46.1405 9.71981 46.7948 9.92681 47.3557 10.3408C47.9166 10.7548 48.3039 11.3038 48.5176 11.9878L47.1554 12.2443C46.9951 11.8753 46.7637 11.5828 46.461 11.3668C46.1672 11.1508 45.82 11.0428 45.4193 11.0428C45.0543 11.0428 44.7205 11.1418 44.4178 11.3398C44.1151 11.5378 43.8747 11.8168 43.6966 12.1768C43.5186 12.5278 43.4295 12.9238 43.4295 13.3648C43.4295 13.8148 43.5186 14.2198 43.6966 14.5798C43.8747 14.9308 44.1151 15.2053 44.4178 15.4033C44.7205 15.6013 45.0543 15.7003 45.4193 15.7003C45.8289 15.7003 46.1805 15.5968 46.4743 15.3898C46.7681 15.1738 46.9951 14.8768 47.1554 14.4988L48.5176 14.7688C48.2861 15.4438 47.8899 15.9928 47.329 16.4158C46.7681 16.8298 46.1227 17.0368 45.3926 17.0368Z" fill="#111111"/>
<path d="M56.0036 16.8748H54.3076L52.2778 13.8238L51.4364 14.8093V16.8748H50.0209V7.42481H51.4364V13.0543L54.0939 9.86831H55.79L53.2526 12.8113L56.0036 16.8748Z" fill="#111111"/>
<path d="M63.0389 13.2163C63.0389 13.5493 63.0211 13.7923 62.9855 13.9453H57.6838C57.7817 14.5033 58.0087 14.9443 58.3649 15.2683C58.721 15.5833 59.1706 15.7408 59.7136 15.7408C60.4437 15.7408 60.9868 15.4483 61.3429 14.8633L62.7184 15.1333C62.4691 15.7273 62.0863 16.1953 61.5699 16.5373C61.0535 16.8703 60.4348 17.0368 59.7136 17.0368C59.0459 17.0368 58.4494 16.8793 57.9242 16.5643C57.3989 16.2403 56.9893 15.7993 56.6956 15.2413C56.4107 14.6833 56.2682 14.0578 56.2682 13.3648C56.2682 12.6988 56.4151 12.0868 56.7089 11.5288C57.0116 10.9708 57.4211 10.5298 57.9375 10.2058C58.4628 9.88181 59.0504 9.71981 59.7003 9.71981C60.3324 9.71981 60.9022 9.87281 61.4097 10.1788C61.926 10.4758 62.3267 10.8898 62.6115 11.4208C62.8964 11.9518 63.0389 12.5503 63.0389 13.2163ZM59.7003 11.0023C59.175 11.0023 58.7299 11.1733 58.3649 11.5153C58.0087 11.8483 57.7817 12.2893 57.6838 12.8383H61.6767C61.6055 12.2893 61.3918 11.8483 61.0357 11.5153C60.6796 11.1733 60.2345 11.0023 59.7003 11.0023Z" fill="#111111"/>
<path d="M66.8475 17.0368C66.2332 17.0368 65.7302 16.8208 65.3385 16.3888C64.9556 15.9568 64.7642 15.3673 64.7642 14.6203V11.1778H63.6692V9.86831H64.7642V8.18081H66.1798V9.86831H67.6221V11.1778H66.1798V14.5258C66.1798 14.9128 66.2644 15.2053 66.4335 15.4033C66.6116 15.5923 66.8564 15.6868 67.168 15.6868C67.355 15.6868 67.5063 15.6598 67.6221 15.6058V16.9018C67.355 16.9918 67.0968 17.0368 66.8475 17.0368Z" fill="#111111"/>
<path d="M79.2983 16.8748H77.7225L76.988 14.7418H73.3155L72.581 16.8748H71.0586L74.464 7.42481H75.9063L79.2983 16.8748ZM76.5072 13.3378L75.1584 9.36881L73.7963 13.3378H76.5072Z" fill="#111111"/>
<path d="M82.4894 17.0368C81.8216 17.0368 81.2563 16.8703 80.7933 16.5373C80.3304 16.1953 80.0277 15.7588 79.8853 15.2278L81.2474 14.9443C81.3275 15.2143 81.4744 15.4303 81.6881 15.5923C81.9018 15.7543 82.1689 15.8353 82.4894 15.8353C82.8366 15.8353 83.1037 15.7588 83.2906 15.6058C83.4776 15.4528 83.5711 15.2458 83.5711 14.9848C83.5711 14.6968 83.4509 14.4763 83.2105 14.3233C82.979 14.1703 82.6185 14.0128 82.1288 13.8508C81.6747 13.6888 81.3053 13.5358 81.0204 13.3918C80.7444 13.2478 80.504 13.0408 80.2992 12.7708C80.1034 12.5008 80.0054 12.1543 80.0054 11.7313C80.0054 11.3533 80.0989 11.0113 80.2859 10.7053C80.4817 10.3993 80.7577 10.1608 81.1139 9.98981C81.4789 9.80981 81.9062 9.71981 82.3959 9.71981C83.0369 9.71981 83.5666 9.88181 83.9851 10.2058C84.4035 10.5208 84.6795 10.9393 84.813 11.4613L83.4642 11.7313C83.3841 11.4703 83.2506 11.2678 83.0636 11.1238C82.8855 10.9798 82.663 10.9078 82.3959 10.9078C82.0843 10.9078 81.8439 10.9843 81.6747 11.1373C81.5056 11.2813 81.421 11.4703 81.421 11.7043C81.421 11.9653 81.5323 12.1678 81.7549 12.3118C81.9774 12.4468 82.3291 12.5953 82.8099 12.7573C83.2639 12.9103 83.6334 13.0633 83.9183 13.2163C84.2121 13.3603 84.4614 13.5718 84.6661 13.8508C84.8798 14.1208 84.9866 14.4763 84.9866 14.9173C84.9866 15.5383 84.7641 16.0468 84.3189 16.4428C83.8827 16.8388 83.2728 17.0368 82.4894 17.0368Z" fill="#111111"/>
<path d="M88.5406 17.0368C87.8728 17.0368 87.3075 16.8703 86.8446 16.5373C86.3816 16.1953 86.0789 15.7588 85.9365 15.2278L87.2986 14.9443C87.3787 15.2143 87.5256 15.4303 87.7393 15.5923C87.953 15.7543 88.2201 15.8353 88.5406 15.8353C88.8878 15.8353 89.1549 15.7588 89.3418 15.6058C89.5288 15.4528 89.6223 15.2458 89.6223 14.9848C89.6223 14.6968 89.5021 14.4763 89.2617 14.3233C89.0302 14.1703 88.6697 14.0128 88.18 13.8508C87.726 13.6888 87.3565 13.5358 87.0716 13.3918C86.7956 13.2478 86.5552 13.0408 86.3504 12.7708C86.1546 12.5008 86.0567 12.1543 86.0567 11.7313C86.0567 11.3533 86.1501 11.0113 86.3371 10.7053C86.533 10.3993 86.8089 10.1608 87.1651 9.98981C87.5301 9.80981 87.9574 9.71981 88.4471 9.71981C89.0881 9.71981 89.6178 9.88181 90.0363 10.2058C90.4547 10.5208 90.7307 10.9393 90.8642 11.4613L89.5154 11.7313C89.4353 11.4703 89.3018 11.2678 89.1148 11.1238C88.9367 10.9798 88.7142 10.9078 88.4471 10.9078C88.1355 10.9078 87.8951 10.9843 87.726 11.1373C87.5568 11.2813 87.4722 11.4703 87.4722 11.7043C87.4722 11.9653 87.5835 12.1678 87.8061 12.3118C88.0287 12.4468 88.3803 12.5953 88.8611 12.7573C89.3151 12.9103 89.6846 13.0633 89.9695 13.2163C90.2633 13.3603 90.5126 13.5718 90.7173 13.8508C90.931 14.1208 91.0378 14.4763 91.0378 14.9173C91.0378 15.5383 90.8153 16.0468 90.3701 16.4428C89.9339 16.8388 89.324 17.0368 88.5406 17.0368Z" fill="#111111"/>
<path d="M93.9629 16.8748H92.5473V9.86831H93.9629V16.8748ZM93.2551 8.89631C93.0236 8.89631 92.8233 8.81531 92.6541 8.65331C92.4939 8.49131 92.4138 8.28881 92.4138 8.04581C92.4138 7.80281 92.4939 7.60031 92.6541 7.43831C92.8233 7.27631 93.0236 7.19531 93.2551 7.19531C93.4866 7.19531 93.6824 7.27631 93.8427 7.43831C94.0118 7.60031 94.0964 7.80281 94.0964 8.04581C94.0964 8.28881 94.0118 8.49131 93.8427 8.65331C93.6824 8.81531 93.4866 8.89631 93.2551 8.89631Z" fill="#111111"/>
<path d="M98.0347 17.0368C97.367 17.0368 96.8017 16.8703 96.3387 16.5373C95.8757 16.1953 95.573 15.7588 95.4306 15.2278L96.7927 14.9443C96.8729 15.2143 97.0198 15.4303 97.2334 15.5923C97.4471 15.7543 97.7142 15.8353 98.0347 15.8353C98.3819 15.8353 98.649 15.7588 98.836 15.6058C99.0229 15.4528 99.1164 15.2458 99.1164 14.9848C99.1164 14.6968 98.9962 14.4763 98.7558 14.3233C98.5244 14.1703 98.1638 14.0128 97.6741 13.8508C97.2201 13.6888 96.8506 13.5358 96.5657 13.3918C96.2897 13.2478 96.0494 13.0408 95.8446 12.7708C95.6487 12.5008 95.5508 12.1543 95.5508 11.7313C95.5508 11.3533 95.6443 11.0113 95.8312 10.7053C96.0271 10.3993 96.3031 10.1608 96.6592 9.98981C97.0242 9.80981 97.4516 9.71981 97.9412 9.71981C98.5822 9.71981 99.112 9.88181 99.5304 10.2058C99.9488 10.5208 100.225 10.9393 100.358 11.4613L99.0096 11.7313C98.9295 11.4703 98.7959 11.2678 98.6089 11.1238C98.4309 10.9798 98.2083 10.9078 97.9412 10.9078C97.6296 10.9078 97.3892 10.9843 97.2201 11.1373C97.0509 11.2813 96.9664 11.4703 96.9664 11.7043C96.9664 11.9653 97.0776 12.1678 97.3002 12.3118C97.5228 12.4468 97.8745 12.5953 98.3552 12.7573C98.8093 12.9103 99.1787 13.0633 99.4636 13.2163C99.7574 13.3603 100.007 13.5718 100.211 13.8508C100.425 14.1208 100.532 14.4763 100.532 14.9173C100.532 15.5383 100.309 16.0468 99.8643 16.4428C99.428 16.8388 98.8182 17.0368 98.0347 17.0368Z" fill="#111111"/>
<path d="M104.342 17.0368C103.727 17.0368 103.224 16.8208 102.832 16.3888C102.45 15.9568 102.258 15.3673 102.258 14.6203V11.1778H101.163V9.86831H102.258V8.18081H103.674V9.86831H105.116V11.1778H103.674V14.5258C103.674 14.9128 103.758 15.2053 103.928 15.4033C104.106 15.5923 104.35 15.6868 104.662 15.6868C104.849 15.6868 105 15.6598 105.116 15.6058V16.9018C104.849 16.9918 104.591 17.0368 104.342 17.0368Z" fill="#111111"/>
</svg>
