<svg preserveAspectRatio="none" width="86" height="24" overflow="visible" style="display: block;" viewBox="0 0 86 24" fill="none" xmlns="http://www.w3.org/2000/svg">
<g id="_Logo swap - desktop 2" clip-path="url(#clip0_0_47)">
<path id="Vector" fill-rule="evenodd" clip-rule="evenodd" d="M32.5704 3.22199C32.5704 4.78388 31.5685 6.03348 29.6582 6.17677L32.8795 9.61247C32.9673 9.70575 32.9011 9.85867 32.7734 9.85867H30.8923C30.8447 9.85867 30.7992 9.83855 30.767 9.80332L27.4541 6.17724H27.3628V9.71295C27.3628 9.79369 27.2975 9.85917 27.2169 9.85917H25.6362C25.5557 9.85917 25.4904 9.79369 25.4904 9.71295V0.40557C25.4904 0.324859 25.5557 0.259378 25.6362 0.259378H29.6913C30.6988 0.254015 32.5707 0.965274 32.5704 3.22199ZM27.3627 1.90797V4.68936L28.9833 4.68948C29.5784 4.68948 30.027 4.56279 30.3293 4.31233C30.6311 4.06151 30.7821 3.71461 30.7821 3.27369C30.7821 2.84933 30.6447 2.51511 30.3707 2.27244C30.0956 2.03076 29.6981 1.90797 29.1757 1.90797H27.3627Z" fill="var(--fill-0, #DE3341)"/>
<path id="Vector_2" fill-rule="evenodd" clip-rule="evenodd" d="M32.724 6.17701C32.724 4.06699 34.4301 2.35659 36.5346 2.35659C38.6394 2.35659 40.3452 4.06699 40.3452 6.17701C40.3452 8.28702 38.6394 9.99742 36.5346 9.99742C34.4301 9.99742 32.724 8.28702 32.724 6.17701ZM34.3938 6.17713C34.3938 7.36261 35.3522 8.32347 36.5346 8.32347C37.7171 8.32347 38.6755 7.36261 38.6755 6.17713C38.6755 4.99164 37.7171 4.03079 36.5346 4.03079C35.3522 4.03079 34.3938 4.99164 34.3938 6.17713Z" fill="var(--fill-0, #DE3341)"/>
<path id="Vector_3" d="M67.3463 9.73405V8.5432C67.3463 8.44942 67.2597 8.37944 67.1687 8.40065C66.6819 8.51407 65.6153 8.51517 65.6153 7.21751V3.9336H67.2006C67.2813 3.9336 67.3466 3.86812 67.3466 3.78741V2.63046C67.3466 2.54972 67.2813 2.48424 67.2006 2.48424H65.6153V0.403763C65.6153 0.289126 65.4894 0.219022 65.3922 0.279733L63.8197 1.26231C63.7768 1.28901 63.7511 1.33585 63.7511 1.38631V2.48424H62.7392C62.6588 2.48424 62.5935 2.54972 62.5935 2.63046V3.78741C62.5935 3.86812 62.6588 3.9336 62.7392 3.9336H63.7491V7.35274C63.7491 9.61662 65.6635 9.99757 66.4021 9.99757C66.705 9.99757 66.9458 9.94228 67.148 9.89579L67.1722 9.89025C67.1929 9.88557 67.213 9.88098 67.2325 9.87659C67.299 9.86184 67.3463 9.80246 67.3463 9.73405Z" fill="var(--fill-0, #DE3341)"/>
<path id="Vector_4" d="M55.5912 9.85867C55.7185 9.85867 55.7847 9.70613 55.6976 9.61271L52.4949 6.17713L55.4044 2.72471C55.4845 2.62972 55.4171 2.48424 55.293 2.48424H53.4752C53.4249 2.48424 53.377 2.50658 53.3448 2.54533L50.9634 5.39867H50.8576V0.404237C50.8576 0.289363 50.7317 0.219378 50.6348 0.280237L49.062 1.26513C49.0191 1.29182 48.9931 1.33876 48.9931 1.38913V9.71247C48.9931 9.79318 49.0584 9.85867 49.1391 9.85867H50.7119C50.7923 9.85867 50.8576 9.79318 50.8576 9.71247V6.91656H50.9439L53.5724 9.82661C53.5907 9.84708 53.617 9.85867 53.6445 9.85867H55.5912Z" fill="var(--fill-0, #DE3341)"/>
<path id="Vector_5" fill-rule="evenodd" clip-rule="evenodd" d="M56.8965 2.86921C57.4891 2.52963 58.1387 2.35733 58.8284 2.3573C60.3395 2.3573 61.4862 3.17404 62.0734 4.1603C62.6952 5.20498 62.5687 6.2805 62.548 6.4565L62.5468 6.4677C62.538 6.54379 62.5125 6.65233 62.4919 6.73292C62.4753 6.79742 62.4171 6.84231 62.3509 6.84231H56.752C56.8031 7.06459 57.1451 8.48163 58.8284 8.48163C59.5747 8.48163 60.1438 8.16092 60.4057 7.86243C60.4379 7.82572 60.484 7.80489 60.5328 7.80489H62.0592C62.1691 7.80489 62.2398 7.92181 62.1886 8.01923C61.855 8.65686 61.24 9.2907 60.3735 9.67991C59.9039 9.89099 59.3891 9.99793 58.8441 9.99793C58.1336 9.99793 57.4737 9.82782 56.8818 9.49345C55.8719 8.92305 54.9487 7.80145 54.9487 6.17724V6.16844C54.9466 5.99523 54.9253 3.99858 56.8965 2.86921ZM58.8287 3.86068C57.7669 3.86068 56.9648 4.55852 56.7405 5.54524H60.8239C60.7642 5.25576 60.3442 3.86068 58.8287 3.86068Z" fill="var(--fill-0, #DE3341)"/>
<path id="Vector_6" d="M44.7129 8.32358C43.5302 8.32358 42.5718 7.36249 42.5718 6.17713C42.5718 4.99191 43.5302 4.03055 44.7129 4.03055C45.6406 4.03055 46.4303 4.62243 46.7276 5.45013C46.7479 5.50758 46.8029 5.54513 46.8641 5.54513H48.2942C48.4576 5.54513 48.4399 5.37964 48.4348 5.35674C48.4192 5.28504 48.3911 5.17615 48.3698 5.10273C47.9073 3.51585 46.4453 2.35659 44.7129 2.35659C42.6084 2.35659 40.9023 4.06699 40.9023 6.17701C40.9023 8.28702 42.6084 9.99742 44.7129 9.99742C46.5284 9.99742 48.0456 8.72489 48.4289 7.02083L48.4295 7.01837C48.4481 6.92827 48.3787 6.84278 48.2865 6.84278H46.8511C46.7905 6.84278 46.7367 6.87961 46.7154 6.93559C46.4096 7.74684 45.6288 8.32358 44.7129 8.32358Z" fill="var(--fill-0, #DE3341)"/>
<path id="Vector_7" d="M5.93548 21.0817V11.7191C5.93548 8.7472 8.28476 6.26104 11.2486 6.21141C14.2762 6.16068 16.7463 8.60613 16.7463 11.6299C16.7463 14.0076 15.2189 16.0274 13.0942 16.7574C12.8779 16.8317 12.81 17.1046 12.9666 17.2716L16.7727 21.3329C16.8734 21.4404 17.0359 21.4653 17.1622 21.3895C20.4685 19.4028 22.6818 15.7757 22.6818 11.6299C22.6818 5.2965 17.5168 0.172445 11.1794 0.26083C4.95351 0.347674 -0.076472 5.53197 0.000880353 11.7741C0.0512324 15.8321 2.22197 19.3782 5.45361 21.35C5.66489 21.4788 5.93548 21.3297 5.93548 21.0817Z" fill="var(--fill-0, #DE3341)"/>
<path id="Vector_8" d="M54.6511 19.9796V21.1706C54.6511 21.2392 54.6041 21.2983 54.537 21.3131C54.5098 21.3192 54.4814 21.3256 54.4525 21.3323C54.2503 21.3788 54.0098 21.434 53.7069 21.434C52.9683 21.434 51.0539 21.0531 51.0539 18.7892V15.3701H50.044C49.9633 15.3701 49.898 15.3046 49.898 15.2239V14.0669C49.898 13.9862 49.9633 13.9207 50.044 13.9207H51.0556V12.8228C51.0556 12.7723 51.0816 12.7255 51.1245 12.6988L52.697 11.7162C52.7939 11.6555 52.9198 11.7255 52.9198 11.8402V13.9207H54.5054C54.5858 13.9207 54.6511 13.9862 54.6511 14.0669V15.2239C54.6511 15.3046 54.5858 15.3701 54.5054 15.3701H52.9198V18.654C52.9198 19.95 53.9841 19.9505 54.4714 19.8375C54.5633 19.8161 54.6511 19.8849 54.6511 19.9796Z" fill="var(--fill-0, #DE3341)"/>
<path id="Vector_9" fill-rule="evenodd" clip-rule="evenodd" d="M69.5131 21.1488C69.5131 21.2292 69.4478 21.295 69.3674 21.295L68.0674 21.2954C67.987 21.2954 67.9217 21.2299 67.9217 21.1492V20.4418H67.87C67.6117 20.754 66.9003 21.434 65.6085 21.434C64.8821 21.434 64.2151 21.2034 63.7301 20.7847C63.2526 20.3724 62.9898 19.8156 62.9898 19.2166C62.9898 18.4934 63.3391 17.8815 64 17.447C64.646 17.0222 65.5423 16.7977 66.5921 16.7977H67.7712V16.672C67.7712 15.8313 67.244 15.3091 66.3952 15.3091C65.4806 15.3091 65.1989 15.8785 65.1177 16.1418C65.0934 16.2199 65.0207 16.2725 64.9389 16.2725H63.5454C63.4281 16.2725 63.3394 16.1667 63.361 16.0516C63.4231 15.7183 63.6184 15.0695 64.2254 14.5398C64.7852 14.0513 65.5406 13.7932 66.4103 13.7932C68.2952 13.7932 69.5131 14.974 69.5131 16.8015V21.1488ZM64.7468 19.0872C64.7468 19.6614 65.1989 20.0043 65.9564 20.0043C66.991 20.0043 67.7712 19.3654 67.7712 18.4736V18.0262H66.6071C65.4076 18.0262 64.7468 18.403 64.7468 19.0872Z" fill="var(--fill-0, #DE3341)"/>
<path id="Vector_10" d="M30.806 18.8543L27.2575 11.7817C27.2327 11.7323 27.1824 11.7012 27.1273 11.7012H25.6361C25.5556 11.7012 25.4903 11.7667 25.4903 11.8474V21.1495C25.4903 21.2302 25.5556 21.2956 25.6361 21.2956H27.1335C27.214 21.2956 27.2793 21.2302 27.2793 21.1495V15.4017L30.1984 21.2012C30.2232 21.2504 30.2735 21.2815 30.3284 21.2815H31.1509C31.2059 21.2815 31.2561 21.2505 31.2809 21.2014L34.2425 15.3341V21.1495C34.2425 21.2302 34.3078 21.2956 34.3882 21.2956H35.8856C35.9663 21.2956 36.0316 21.2302 36.0316 21.1495V11.8474C36.0316 11.7667 35.9663 11.7012 35.8856 11.7012H34.4845C34.4296 11.7012 34.3793 11.7323 34.3545 11.7817L30.806 18.8543Z" fill="var(--fill-0, #DE3341)"/>
<path id="Vector_11" fill-rule="evenodd" clip-rule="evenodd" d="M60.7388 14.0672C60.7388 13.9864 60.8041 13.9209 60.8847 13.9209L62.1869 13.9211C62.2675 13.9211 62.3329 13.9866 62.3329 14.0673V20.7826C62.3329 21.7403 62.001 22.5466 61.3736 23.1142C60.7456 23.6823 59.8516 23.9826 58.7885 23.9826C56.3276 23.9826 55.5575 22.3679 55.363 21.803C55.3305 21.7086 55.402 21.6106 55.5013 21.6106H56.9846C57.0378 21.6106 57.0872 21.6391 57.1123 21.6863C57.2231 21.8964 57.6295 22.4706 58.7587 22.4706C59.8876 22.4706 60.5889 21.8293 60.5889 20.7969V20.1073H60.5833C60.3797 20.3732 59.6169 21.0533 58.4883 21.0533C56.5673 21.0533 55.0042 19.4249 55.0042 17.4233C55.0042 16.437 55.3713 15.5181 56.0383 14.8356C56.695 14.1634 57.565 13.7932 58.4883 13.7932C59.6134 13.7932 60.4086 14.4204 60.6873 14.7679H60.7388V14.0672ZM56.7331 17.4233C56.7331 18.6111 57.5831 19.5414 58.6683 19.5414C59.7271 19.5414 60.5886 18.5912 60.5886 17.4233C60.5886 16.2355 59.7452 15.3051 58.6683 15.3051C57.5834 15.3051 56.7331 16.2355 56.7331 17.4233Z" fill="var(--fill-0, #DE3341)"/>
<path id="Vector_12" fill-rule="evenodd" clip-rule="evenodd" d="M76.0098 13.9209C75.9291 13.9209 75.8638 13.9864 75.8638 14.0672V14.7679H75.8124C75.5337 14.4204 74.7384 13.7932 73.6133 13.7932C72.6901 13.7932 71.8201 14.1634 71.1634 14.8356C70.4964 15.5181 70.1293 16.437 70.1293 17.4233C70.1293 19.4249 71.6924 21.0533 73.6133 21.0533C74.742 21.0533 75.5048 20.3732 75.7084 20.1073H75.714V20.7969C75.714 21.8293 75.0127 22.4706 73.8838 22.4706C72.7545 22.4706 72.3482 21.8964 72.2373 21.6863C72.2122 21.6391 72.1629 21.6106 72.1097 21.6106H70.6264C70.5271 21.6106 70.4556 21.7086 70.4881 21.803C70.6825 22.3679 71.4527 23.9826 73.9136 23.9826C74.9766 23.9826 75.8706 23.6823 76.4986 23.1142C77.126 22.5466 77.4579 21.7403 77.4579 20.7826V14.0673C77.4579 13.9866 77.3926 13.9211 77.3119 13.9211L76.0098 13.9209ZM73.7933 19.5414C72.7081 19.5414 71.8582 18.6111 71.8582 17.4233C71.8582 16.2355 72.7084 15.3051 73.7933 15.3051C74.8702 15.3051 75.7137 16.2355 75.7137 17.4233C75.7137 18.5912 74.8522 19.5414 73.7933 19.5414Z" fill="var(--fill-0, #DE3341)"/>
<path id="Vector_13" fill-rule="evenodd" clip-rule="evenodd" d="M36.6576 17.6137C36.6576 15.5036 38.3634 13.7932 40.4682 13.7932C42.5727 13.7932 44.2788 15.5037 44.2788 17.6137C44.2788 19.7237 42.5727 21.4341 40.4682 21.4341C38.3634 21.4341 36.6576 19.7239 36.6576 17.6137ZM38.3273 17.6136C38.3273 18.7991 39.2857 19.7599 40.4682 19.7599C41.6506 19.7599 42.609 18.7991 42.609 17.6136C42.609 16.4281 41.6506 15.4673 40.4682 15.4673C39.2857 15.4673 38.3273 16.4281 38.3273 17.6136Z" fill="var(--fill-0, #DE3341)"/>
<path id="Vector_14" fill-rule="evenodd" clip-rule="evenodd" d="M85.223 15.5969C84.6358 14.6106 83.4892 13.7939 81.9778 13.7939C81.2883 13.7939 80.6387 13.9663 80.0462 14.3058C78.075 15.4352 78.0963 17.4318 78.098 17.605V17.6138C78.098 19.238 79.0216 20.3598 80.0314 20.93C80.6234 21.2644 81.2833 21.4345 81.9935 21.4345C82.5387 21.4345 83.0535 21.3276 83.5231 21.1166C84.3899 20.7271 85.0052 20.0929 85.3389 19.455C85.3897 19.3579 85.3179 19.2416 85.2086 19.2416H83.6715C83.6278 19.2416 83.5876 19.2621 83.5589 19.2951C83.2988 19.5947 82.7276 19.9183 81.9781 19.9183C80.2947 19.9183 79.9531 18.5013 79.9017 18.279H85.5005C85.567 18.279 85.6253 18.2338 85.6418 18.1689C85.6625 18.0883 85.6879 17.9803 85.6965 17.9043L85.698 17.8931C85.7186 17.7172 85.8448 16.6416 85.223 15.5969ZM79.8901 16.9817C80.1142 15.9949 80.9162 15.2972 81.9781 15.2972C83.4939 15.2972 83.9138 16.6922 83.9732 16.9817H79.8901Z" fill="var(--fill-0, #DE3341)"/>
<path id="Vector_15" d="M45.059 14.0672C45.059 13.9863 45.1243 13.9209 45.205 13.9209L46.5038 13.9215C46.5842 13.9216 46.6495 13.9869 46.6495 14.0676V14.7728H46.7013C46.9838 14.3999 47.6886 13.7932 48.616 13.7932C48.8634 13.7932 49.0593 13.8172 49.1766 13.8364C49.247 13.8479 49.2978 13.909 49.2978 13.9806V15.1842C49.2978 15.2972 49.1994 15.3848 49.0874 15.3702C48.9627 15.3538 48.7865 15.3383 48.5705 15.3383C47.4886 15.3383 46.8162 16.0271 46.8162 17.1359V21.1494C46.8162 21.2301 46.7509 21.2956 46.6705 21.2956H45.205C45.1243 21.2956 45.059 21.2301 45.059 21.1494V14.0672Z" fill="var(--fill-0, #DE3341)"/>
</g>
<defs>
<clipPath id="clip0_0_47">
<rect width="86" height="24" fill="white"/>
</clipPath>
</defs>
</svg>
