<svg preserveAspectRatio="none" width="78.92" height="9.84" overflow="visible" style="display: block;" viewBox="0 0 78.9197 9.8415" fill="none" xmlns="http://www.w3.org/2000/svg">
<g id="Title">
<path d="M6.45017 8.505C6.60152 8.802 6.72616 9.036 6.8241 9.207C6.92203 9.369 7.03332 9.5265 7.15796 9.6795H5.46195C5.3284 9.5175 5.15035 9.198 4.92777 8.721L4.08645 6.939C3.92619 6.588 3.76594 6.3495 3.60569 6.2235C3.44543 6.0975 3.21396 6.0345 2.91126 6.0345H1.49569V9.6795H0V0.229499H3.4855C4.04638 0.229499 4.55385 0.355499 5.0079 0.607499C5.46195 0.859499 5.81807 1.206 6.07625 1.647C6.33444 2.079 6.46353 2.556 6.46353 3.078C6.46353 3.663 6.29437 4.1715 5.95606 4.6035C5.62665 5.0265 5.17705 5.337 4.60727 5.535C4.78533 5.634 4.94558 5.7735 5.08802 5.9535C5.23047 6.1245 5.37737 6.363 5.52872 6.669L6.45017 8.505ZM3.44543 4.644C3.89058 4.644 4.2556 4.5045 4.54049 4.2255C4.82539 3.9465 4.96784 3.5955 4.96784 3.1725C4.96784 2.7315 4.82539 2.3715 4.54049 2.0925C4.2556 1.8045 3.89058 1.6605 3.44543 1.6605H1.49569V4.644H3.44543Z" fill="var(--fill-0, #111111)"/>
<path d="M11.2444 9.8415C10.5767 9.8415 9.97573 9.684 9.44156 9.369C8.90738 9.045 8.48449 8.604 8.17289 8.046C7.87019 7.488 7.71884 6.8625 7.71884 6.1695C7.71884 5.4855 7.87019 4.869 8.17289 4.32C8.48449 3.762 8.90738 3.3255 9.44156 3.0105C9.97573 2.6865 10.5767 2.5245 11.2444 2.5245C11.9121 2.5245 12.5131 2.6865 13.0472 3.0105C13.5814 3.3255 13.9999 3.762 14.3026 4.32C14.6142 4.869 14.77 5.4855 14.77 6.1695C14.77 6.8625 14.6142 7.488 14.3026 8.046C13.9999 8.604 13.5814 9.045 13.0472 9.369C12.5131 9.684 11.9121 9.8415 11.2444 9.8415ZM11.2444 8.505C11.645 8.505 12.0056 8.406 12.3261 8.208C12.6466 8.01 12.8959 7.7355 13.074 7.3845C13.2609 7.0245 13.3544 6.6195 13.3544 6.1695C13.3544 5.7285 13.2609 5.3325 13.074 4.9815C12.8959 4.6215 12.6466 4.3425 12.3261 4.1445C12.0056 3.9465 11.645 3.8475 11.2444 3.8475C10.8438 3.8475 10.4832 3.9465 10.1627 4.1445C9.84219 4.3425 9.58846 4.6215 9.40149 4.9815C9.22344 5.3325 9.13441 5.7285 9.13441 6.1695C9.13441 6.6195 9.22344 7.0245 9.40149 7.3845C9.58846 7.7355 9.84219 8.01 10.1627 8.208C10.4832 8.406 10.8438 8.505 11.2444 8.505Z" fill="var(--fill-0, #111111)"/>
<path d="M19.1962 9.8415C18.5819 9.8415 18.0166 9.6795 17.5002 9.3555C16.9838 9.0315 16.5743 8.5905 16.2716 8.0325C15.9689 7.4745 15.8175 6.8535 15.8175 6.1695C15.8175 5.4945 15.9689 4.878 16.2716 4.32C16.5743 3.762 16.9838 3.3255 17.5002 3.0105C18.0166 2.6865 18.5819 2.5245 19.1962 2.5245C19.9441 2.5245 20.5984 2.7315 21.1593 3.1455C21.7202 3.5595 22.1075 4.1085 22.3211 4.7925L20.959 5.049C20.7987 4.68 20.5673 4.3875 20.2646 4.1715C19.9708 3.9555 19.6236 3.8475 19.2229 3.8475C18.8579 3.8475 18.524 3.9465 18.2213 4.1445C17.9186 4.3425 17.6783 4.6215 17.5002 4.9815C17.3221 5.3325 17.2331 5.7285 17.2331 6.1695C17.2331 6.6195 17.3221 7.0245 17.5002 7.3845C17.6783 7.7355 17.9186 8.01 18.2213 8.208C18.524 8.406 18.8579 8.505 19.2229 8.505C19.6325 8.505 19.9841 8.4015 20.2779 8.1945C20.5717 7.9785 20.7987 7.6815 20.959 7.3035L22.3211 7.5735C22.0897 8.2485 21.6935 8.7975 21.1326 9.2205C20.5717 9.6345 19.9263 9.8415 19.1962 9.8415Z" fill="var(--fill-0, #111111)"/>
<path d="M29.8072 9.6795H28.1112L26.0813 6.6285L25.24 7.614V9.6795H23.8244V0.229499H25.24V5.859L27.8975 2.673H29.5935L27.0562 5.616L29.8072 9.6795Z" fill="var(--fill-0, #111111)"/>
<path d="M36.8425 6.021C36.8425 6.354 36.8247 6.597 36.7891 6.75H31.4874C31.5853 7.308 31.8123 7.749 32.1684 8.073C32.5246 8.388 32.9742 8.5455 33.5172 8.5455C34.2473 8.5455 34.7904 8.253 35.1465 7.668L36.522 7.938C36.2727 8.532 35.8899 9 35.3735 9.342C34.8571 9.675 34.2384 9.8415 33.5172 9.8415C32.8495 9.8415 32.253 9.684 31.7277 9.369C31.2025 9.045 30.7929 8.604 30.4991 8.046C30.2142 7.488 30.0718 6.8625 30.0718 6.1695C30.0718 5.5035 30.2187 4.8915 30.5125 4.3335C30.8152 3.7755 31.2247 3.3345 31.7411 3.0105C32.2664 2.6865 32.854 2.5245 33.5039 2.5245C34.136 2.5245 34.7058 2.6775 35.2132 2.9835C35.7296 3.2805 36.1302 3.6945 36.4151 4.2255C36.7 4.7565 36.8425 5.355 36.8425 6.021ZM33.5039 3.807C32.9786 3.807 32.5335 3.978 32.1684 4.32C31.8123 4.653 31.5853 5.094 31.4874 5.643H35.4803C35.4091 5.094 35.1954 4.653 34.8393 4.32C34.4832 3.978 34.0381 3.807 33.5039 3.807Z" fill="var(--fill-0, #111111)"/>
<path d="M40.6511 9.8415C40.0368 9.8415 39.5338 9.6255 39.142 9.1935C38.7592 8.7615 38.5678 8.172 38.5678 7.425V3.9825H37.4727V2.673H38.5678V0.985499H39.9834V2.673H41.4256V3.9825H39.9834V7.3305C39.9834 7.7175 40.0679 8.01 40.2371 8.208C40.4152 8.397 40.66 8.4915 40.9716 8.4915C41.1586 8.4915 41.3099 8.4645 41.4256 8.4105V9.7065C41.1586 9.7965 40.9004 9.8415 40.6511 9.8415Z" fill="var(--fill-0, #111111)"/>
<path d="M53.1019 9.6795H51.5261L50.7916 7.5465H47.1191L46.3846 9.6795H44.8622L48.2676 0.229499H49.7099L53.1019 9.6795ZM50.3108 6.1425L48.962 2.1735L47.5999 6.1425H50.3108Z" fill="var(--fill-0, #111111)"/>
<path d="M56.2929 9.8415C55.6252 9.8415 55.0599 9.675 54.5969 9.342C54.134 9 53.8313 8.5635 53.6888 8.0325L55.051 7.749C55.1311 8.019 55.278 8.235 55.4917 8.397C55.7054 8.559 55.9724 8.64 56.2929 8.64C56.6402 8.64 56.9073 8.5635 57.0942 8.4105C57.2812 8.2575 57.3747 8.0505 57.3747 7.7895C57.3747 7.5015 57.2545 7.281 57.0141 7.128C56.7826 6.975 56.422 6.8175 55.9324 6.6555C55.4783 6.4935 55.1089 6.3405 54.824 6.1965C54.548 6.0525 54.3076 5.8455 54.1028 5.5755C53.907 5.3055 53.809 4.959 53.809 4.536C53.809 4.158 53.9025 3.816 54.0895 3.51C54.2853 3.204 54.5613 2.9655 54.9174 2.7945C55.2825 2.6145 55.7098 2.5245 56.1995 2.5245C56.8405 2.5245 57.3702 2.6865 57.7886 3.0105C58.2071 3.3255 58.4831 3.744 58.6166 4.266L57.2678 4.536C57.1877 4.275 57.0541 4.0725 56.8672 3.9285C56.6891 3.7845 56.4666 3.7125 56.1995 3.7125C55.8879 3.7125 55.6475 3.789 55.4783 3.942C55.3092 4.086 55.2246 4.275 55.2246 4.509C55.2246 4.77 55.3359 4.9725 55.5585 5.1165C55.781 5.2515 56.1327 5.4 56.6135 5.562C57.0675 5.715 57.437 5.868 57.7219 6.021C58.0157 6.165 58.2649 6.3765 58.4697 6.6555C58.6834 6.9255 58.7902 7.281 58.7902 7.722C58.7902 8.343 58.5676 8.8515 58.1225 9.2475C57.6863 9.6435 57.0764 9.8415 56.2929 9.8415Z" fill="var(--fill-0, #111111)"/>
<path d="M62.3442 9.8415C61.6764 9.8415 61.1111 9.675 60.6481 9.342C60.1852 9 59.8825 8.5635 59.74 8.0325L61.1022 7.749C61.1823 8.019 61.3292 8.235 61.5429 8.397C61.7566 8.559 62.0237 8.64 62.3442 8.64C62.6914 8.64 62.9585 8.5635 63.1454 8.4105C63.3324 8.2575 63.4259 8.0505 63.4259 7.7895C63.4259 7.5015 63.3057 7.281 63.0653 7.128C62.8338 6.975 62.4732 6.8175 61.9836 6.6555C61.5295 6.4935 61.1601 6.3405 60.8752 6.1965C60.5992 6.0525 60.3588 5.8455 60.154 5.5755C59.9582 5.3055 59.8602 4.959 59.8602 4.536C59.8602 4.158 59.9537 3.816 60.1407 3.51C60.3365 3.204 60.6125 2.9655 60.9687 2.7945C61.3337 2.6145 61.761 2.5245 62.2507 2.5245C62.8917 2.5245 63.4214 2.6865 63.8398 3.0105C64.2583 3.3255 64.5343 3.744 64.6678 4.266L63.319 4.536C63.2389 4.275 63.1054 4.0725 62.9184 3.9285C62.7403 3.7845 62.5178 3.7125 62.2507 3.7125C61.9391 3.7125 61.6987 3.789 61.5295 3.942C61.3604 4.086 61.2758 4.275 61.2758 4.509C61.2758 4.77 61.3871 4.9725 61.6097 5.1165C61.8322 5.2515 62.1839 5.4 62.6647 5.562C63.1187 5.715 63.4882 5.868 63.7731 6.021C64.0669 6.165 64.3162 6.3765 64.5209 6.6555C64.7346 6.9255 64.8414 7.281 64.8414 7.722C64.8414 8.343 64.6189 8.8515 64.1737 9.2475C63.7375 9.6435 63.1276 9.8415 62.3442 9.8415Z" fill="var(--fill-0, #111111)"/>
<path d="M67.7665 9.6795H66.3509V2.673H67.7665V9.6795ZM67.0587 1.701C66.8272 1.701 66.6269 1.62 66.4577 1.458C66.2975 1.296 66.2173 1.0935 66.2173 0.850499C66.2173 0.607499 66.2975 0.404999 66.4577 0.242999C66.6269 0.0809998 66.8272 0 67.0587 0C67.2902 0 67.486 0.0809998 67.6463 0.242999C67.8154 0.404999 67.9 0.607499 67.9 0.850499C67.9 1.0935 67.8154 1.296 67.6463 1.458C67.486 1.62 67.2902 1.701 67.0587 1.701Z" fill="var(--fill-0, #111111)"/>
<path d="M71.8383 9.8415C71.1706 9.8415 70.6052 9.675 70.1423 9.342C69.6793 9 69.3766 8.5635 69.2342 8.0325L70.5963 7.749C70.6765 8.019 70.8234 8.235 71.037 8.397C71.2507 8.559 71.5178 8.64 71.8383 8.64C72.1855 8.64 72.4526 8.5635 72.6396 8.4105C72.8265 8.2575 72.92 8.0505 72.92 7.7895C72.92 7.5015 72.7998 7.281 72.5594 7.128C72.328 6.975 71.9674 6.8175 71.4777 6.6555C71.0237 6.4935 70.6542 6.3405 70.3693 6.1965C70.0933 6.0525 69.8529 5.8455 69.6482 5.5755C69.4523 5.3055 69.3544 4.959 69.3544 4.536C69.3544 4.158 69.4479 3.816 69.6348 3.51C69.8307 3.204 70.1067 2.9655 70.4628 2.7945C70.8278 2.6145 71.2552 2.5245 71.7448 2.5245C72.3858 2.5245 72.9156 2.6865 73.334 3.0105C73.7524 3.3255 74.0284 3.744 74.162 4.266L72.8132 4.536C72.733 4.275 72.5995 4.0725 72.4125 3.9285C72.2345 3.7845 72.0119 3.7125 71.7448 3.7125C71.4332 3.7125 71.1928 3.789 71.0237 3.942C70.8545 4.086 70.7699 4.275 70.7699 4.509C70.7699 4.77 70.8812 4.9725 71.1038 5.1165C71.3264 5.2515 71.678 5.4 72.1588 5.562C72.6129 5.715 72.9823 5.868 73.2672 6.021C73.561 6.165 73.8103 6.3765 74.0151 6.6555C74.2287 6.9255 74.3356 7.281 74.3356 7.722C74.3356 8.343 74.113 8.8515 73.6679 9.2475C73.2316 9.6435 72.6218 9.8415 71.8383 9.8415Z" fill="var(--fill-0, #111111)"/>
<path d="M78.1451 9.8415C77.5308 9.8415 77.0278 9.6255 76.6361 9.1935C76.2532 8.7615 76.0618 8.172 76.0618 7.425V3.9825H74.9668V2.673H76.0618V0.985499H77.4774V2.673H78.9197V3.9825H77.4774V7.3305C77.4774 7.7175 77.562 8.01 77.7311 8.208C77.9092 8.397 78.154 8.4915 78.4656 8.4915C78.6526 8.4915 78.8039 8.4645 78.9197 8.4105V9.7065C78.6526 9.7965 78.3944 9.8415 78.1451 9.8415Z" fill="var(--fill-0, #111111)"/>
</g>
</svg>
