<svg preserveAspectRatio="none" width="68" height="48" overflow="visible" style="display: block;" viewBox="0 0 68 48" fill="none" xmlns="http://www.w3.org/2000/svg">
<g id="Salesforce.com_logo 1" clip-path="url(#clip0_0_63)">
<g id="Mask group">
<mask id="mask0_0_63" style="mask-type:luminance" maskUnits="userSpaceOnUse" x="0" y="0" width="68" height="48">
<g id="Group">
<path id="Vector" d="M0.0149967 0.125654H68V47.8743H0.0149967V0.125654Z" fill="var(--fill-0, white)"/>
</g>
</mask>
<g mask="url(#mask0_0_63)">
<path id="Vector_2" fill-rule="evenodd" clip-rule="evenodd" d="M28.2438 5.35288C30.4383 3.05592 33.4926 1.63351 36.8669 1.63351C41.3659 1.63351 45.265 4.1466 47.3645 7.8911C49.2282 7.05342 51.2468 6.62095 53.2882 6.62199C61.3864 6.62199 67.96 13.2817 67.96 21.4995C67.96 29.7173 61.3864 36.377 53.2882 36.377C52.2985 36.377 51.3337 36.2769 50.3889 36.088C48.5518 39.3801 45.0401 41.6168 41.0409 41.6168C39.4128 41.62 37.8054 41.2486 36.342 40.5311C34.4799 44.929 30.1433 48.0201 25.0945 48.0201C19.8206 48.0201 15.3466 44.6777 13.622 39.9782C12.8544 40.1411 12.072 40.223 11.2875 40.2225C5.01389 40.2225 -0.0599868 35.0455 -0.0599868 28.6874C-0.0599868 24.4152 2.22451 20.6958 5.61376 18.6853C4.89473 17.0199 4.52462 15.2234 4.5265 13.4078C4.5265 6.06961 10.4502 0.138723 17.7486 0.138723C22.0226 0.138723 25.8468 2.18689 28.2463 5.36595" fill="var(--fill-0, #00A1E0)"/>
</g>
</g>
<path id="Vector_3" fill-rule="evenodd" clip-rule="evenodd" d="M9.84783 24.955C9.80509 25.0671 9.86307 25.0904 9.87682 25.1103C10.0045 25.2033 10.1343 25.2706 10.2642 25.3463C10.9591 25.7157 11.6139 25.8238 12.2988 25.8238C13.6935 25.8238 14.5608 25.0774 14.5608 23.8761V23.8525C14.5608 22.7417 13.581 22.3371 12.6662 22.0481L12.5465 22.0091C11.8541 21.7835 11.2568 21.5869 11.2568 21.1296V21.1062C11.2568 20.7141 11.6067 20.4251 12.1466 20.4251C12.7464 20.4251 13.4613 20.6259 13.9187 20.88C13.9187 20.88 14.0541 20.968 14.1034 20.8365C14.1301 20.7654 14.3633 20.1379 14.3883 20.0675C14.4148 19.9939 14.3683 19.9383 14.3206 19.9097C13.7957 19.588 13.0709 19.3694 12.321 19.3694L12.1818 19.3699C10.9046 19.3699 10.0123 20.1464 10.0123 21.2572V21.2811C10.0123 22.4522 10.9971 22.8342 11.9169 23.0981L12.0648 23.1443C12.7347 23.3514 13.3146 23.5313 13.3146 24.0038V24.0274C13.3146 24.4622 12.9371 24.7863 12.3323 24.7863C12.0971 24.7863 11.3475 24.7823 10.5352 24.2661C10.4369 24.2086 10.381 24.1671 10.3052 24.1206C10.2652 24.0963 10.1653 24.0523 10.1218 24.184L9.84683 24.953M30.2673 24.953C30.2246 25.065 30.2826 25.0884 30.2968 25.1083C30.424 25.2013 30.5543 25.2686 30.6842 25.3443C31.3791 25.7137 32.0339 25.8217 32.7188 25.8217C34.1135 25.8217 34.9808 25.0754 34.9808 23.8741V23.8505C34.9808 22.7397 34.0035 22.3351 33.0862 22.0461L32.9665 22.0071C32.2741 21.7814 31.6768 21.5849 31.6768 21.1275V21.1042C31.6768 20.7121 32.0267 20.4231 32.5666 20.4231C33.1664 20.4231 33.8788 20.6239 34.3387 20.878C34.3387 20.878 34.4741 20.9659 34.5236 20.8345C34.5501 20.7634 34.7836 20.1359 34.8061 20.0655C34.8328 19.9919 34.7861 19.9363 34.7386 19.9077C34.2137 19.586 33.4889 19.3674 32.739 19.3674L32.5996 19.3679C31.3223 19.3679 30.43 20.1444 30.43 21.2552V21.2791C30.43 22.4502 31.4148 22.8322 32.3346 23.096L32.4823 23.1423C33.1547 23.3494 33.7321 23.5293 33.7321 24.0018V24.0254C33.7321 24.4601 33.3546 24.7843 32.7498 24.7843C32.5141 24.7843 31.7625 24.7803 30.9527 24.2641C30.8544 24.2066 30.797 24.1669 30.7225 24.1186C30.6972 24.1025 30.5795 24.0563 30.5393 24.1819L30.2643 24.951M44.2112 22.5987C44.2112 23.2772 44.0853 23.8125 43.8388 24.192C43.5929 24.5665 43.2215 24.7499 42.7041 24.7499C42.1867 24.7499 41.8168 24.568 41.5743 24.1945C41.3301 23.8176 41.2069 23.2797 41.2069 22.6012C41.2069 21.9227 41.3309 21.3899 41.5743 21.0155C41.8163 20.6435 42.1842 20.4651 42.7041 20.4651C43.224 20.4651 43.5939 20.6453 43.8388 21.0155C44.0868 21.3899 44.2112 21.9227 44.2112 22.6012M45.376 21.3422C45.2613 20.9526 45.0835 20.6108 44.8461 20.3244C44.6084 20.0379 44.3087 19.8067 43.9513 19.6408C43.5964 19.4737 43.1765 19.3895 42.7016 19.3895C42.2267 19.3895 41.8093 19.4742 41.4518 19.6408C41.0969 19.8077 40.7945 20.0379 40.557 20.3244C40.3201 20.6108 40.1421 20.9526 40.0272 21.3422C39.9134 21.7292 39.8557 22.1514 39.8557 22.6012C39.8557 23.0511 39.9134 23.4733 40.0272 23.8603C40.1414 24.2498 40.3196 24.5916 40.557 24.8781C40.7947 25.1646 41.0969 25.3933 41.4518 25.5566C41.8093 25.7195 42.2292 25.8024 42.7016 25.8024C43.174 25.8024 43.5939 25.7195 43.9488 25.5566C44.3037 25.3938 44.6062 25.1646 44.8436 24.8781C45.0808 24.5916 45.2585 24.2498 45.3735 23.8603C45.487 23.4733 45.5447 23.0511 45.5447 22.6012C45.5447 22.1539 45.487 21.7292 45.3735 21.3422M54.9464 24.5589C54.9081 24.4451 54.7977 24.488 54.7977 24.488C54.6284 24.5531 54.4477 24.6134 54.2553 24.6436C54.0613 24.6743 53.8454 24.6896 53.6179 24.6896C53.0555 24.6896 52.6056 24.521 52.2857 24.187C51.9633 23.8527 51.7833 23.3149 51.7858 22.5861C51.7876 21.9227 51.947 21.4251 52.2332 21.0431C52.5157 20.6661 52.9506 20.4701 53.5254 20.4701C54.0053 20.4701 54.3727 20.5262 54.7577 20.6473C54.7577 20.6473 54.8489 20.6872 54.8926 20.5664C54.9949 20.2824 55.0703 20.0788 55.1801 19.7672C55.2111 19.678 55.1351 19.6403 55.1073 19.6295C54.9564 19.5702 54.5999 19.4729 54.33 19.432C54.0776 19.3933 53.7851 19.3732 53.4552 19.3732C52.9653 19.3732 52.5304 19.4573 52.158 19.6242C51.7856 19.7908 51.4706 20.0213 51.2207 20.3078C50.9707 20.5943 50.7808 20.936 50.6533 21.3256C50.5271 21.7126 50.4634 22.1373 50.4634 22.5871C50.4634 23.5572 50.7233 24.3438 51.2382 24.9193C51.7531 25.4973 52.5279 25.7888 53.5377 25.7888C54.135 25.7888 54.7474 25.6674 55.1873 25.4923C55.1873 25.4923 55.2713 25.4516 55.2348 25.353L54.9474 24.5589M56.9844 21.9453C57.0402 21.5683 57.1429 21.2542 57.3044 21.0104C57.546 20.6385 57.9142 20.4349 58.4316 20.4349C58.949 20.4349 59.2914 20.6395 59.5364 21.0104C59.6988 21.2555 59.7698 21.5809 59.7963 21.9453L56.9719 21.9448L56.9844 21.9453ZM60.9086 21.116C60.8093 20.7415 60.5636 20.3621 60.4037 20.1886C60.1487 19.9147 59.9013 19.7212 59.6538 19.6157C59.2966 19.4629 58.9123 19.3845 58.5241 19.3852C58.0317 19.3852 57.5843 19.4689 57.2219 19.639C56.8594 19.8104 56.5545 20.0436 56.3146 20.3352C56.0749 20.6267 55.8947 20.971 55.7797 21.3655C55.6647 21.7551 55.6067 22.1823 55.6067 22.6296C55.6067 23.087 55.667 23.5117 55.7854 23.8962C55.9052 24.2832 56.0979 24.6225 56.3578 24.904C56.6178 25.1879 56.9502 25.4091 57.3501 25.5649C57.7475 25.7195 58.2299 25.7996 58.7823 25.7979C59.922 25.7941 60.5219 25.539 60.7668 25.4008C60.8106 25.3762 60.8518 25.3337 60.8003 25.2113L60.5429 24.485C60.5034 24.3767 60.3944 24.4159 60.3944 24.4159C60.112 24.522 59.7121 24.7125 58.7748 24.7099C58.1624 24.7089 57.71 24.5272 57.4251 24.2425C57.1351 23.951 56.9902 23.5263 56.9677 22.9231L60.9168 22.9262C60.9168 22.9262 61.0208 22.9252 61.0315 22.8231C61.0358 22.7809 61.1667 22.0089 60.9138 21.1167L60.9086 21.116ZM25.4164 21.9453C25.4721 21.5683 25.5751 21.2542 25.7363 21.0104C25.9783 20.6385 26.3462 20.4349 26.8636 20.4349C27.381 20.4349 27.7234 20.6395 27.9683 21.0104C28.1305 21.2555 28.2015 21.5809 28.2283 21.9453L25.4039 21.9448L25.4164 21.9453ZM29.3405 21.116C29.2415 20.7415 28.9956 20.3621 28.8356 20.1886C28.5807 19.9147 28.3332 19.7212 28.0858 19.6157C27.7286 19.4629 27.3442 19.3845 26.956 19.3852C26.4637 19.3852 26.0163 19.4689 25.6538 19.639C25.2914 19.8104 24.9865 20.0436 24.7465 20.3352C24.5073 20.6267 24.3266 20.971 24.2117 21.3655C24.0969 21.7551 24.0392 22.1823 24.0392 22.6296C24.0392 23.087 24.0989 23.5117 24.2182 23.8962C24.3376 24.2832 24.5306 24.6225 24.788 24.904C25.048 25.1879 25.3804 25.4091 25.7803 25.5649C26.1777 25.7195 26.6576 25.7996 27.2125 25.7979C28.3522 25.7941 28.9521 25.539 29.1971 25.4008C29.2405 25.3762 29.282 25.3337 29.2303 25.2113L28.9729 24.485C28.9331 24.3767 28.8241 24.4159 28.8241 24.4159C28.5417 24.522 28.1418 24.7125 27.2045 24.7099C26.5946 24.7089 26.1397 24.5272 25.8548 24.2425C25.5649 23.951 25.4199 23.5263 25.3974 22.9231L29.3465 22.9262C29.3465 22.9262 29.4505 22.9252 29.4612 22.8231C29.4655 22.7809 29.5965 22.0089 29.3433 21.1167L29.3405 21.116ZM16.8933 24.5338C16.7386 24.4096 16.7171 24.3792 16.6658 24.2986C16.5876 24.1772 16.5476 24.0045 16.5476 23.7834C16.5476 23.4366 16.6626 23.1853 16.9 23.0169C16.8975 23.0174 17.2399 22.7203 18.0448 22.7304C18.403 22.7368 18.7604 22.7675 19.1145 22.8221V24.624H19.115C19.115 24.624 18.6151 24.7323 18.0503 24.7665C17.2479 24.815 16.893 24.5343 16.8955 24.535L16.8933 24.5338ZM18.4629 21.7443C18.303 21.7324 18.0955 21.7267 17.8481 21.7267C17.5106 21.7267 17.1832 21.7689 16.8783 21.8518C16.5708 21.9352 16.2934 22.0644 16.056 22.2363C15.8179 22.4071 15.622 22.6307 15.4836 22.8897C15.3439 23.1511 15.2726 23.4577 15.2726 23.8045C15.2726 24.1563 15.3334 24.4604 15.4533 24.7092C15.5709 24.956 15.7479 25.1693 15.9682 25.3299C16.1874 25.4903 16.4581 25.6089 16.7705 25.6792C17.0805 25.7504 17.4304 25.7863 17.8153 25.7863C18.2202 25.7863 18.6226 25.7521 19.0126 25.686C19.3446 25.6284 19.6755 25.5638 20.0048 25.492C20.1363 25.4616 20.2823 25.4217 20.2823 25.4217C20.3798 25.3968 20.3723 25.292 20.3723 25.292L20.37 21.6731C20.37 20.879 20.159 20.2884 19.7426 19.924C19.3277 19.5596 18.7204 19.3762 17.933 19.3762C17.6381 19.3762 17.1607 19.4164 16.8758 19.4739C16.8758 19.4739 16.016 19.6418 15.661 19.9213C15.661 19.9213 15.5831 19.9695 15.6256 20.0788L15.9055 20.8328C15.9402 20.9305 16.035 20.8971 16.035 20.8971C16.035 20.8971 16.0647 20.8853 16.0997 20.8644C16.857 20.4498 17.8168 20.4623 17.8168 20.4623C18.2417 20.4623 18.5716 20.549 18.7916 20.7187C19.0068 20.8848 19.1165 21.1358 19.1165 21.6636V21.8312C18.7791 21.7819 18.4667 21.7535 18.4667 21.7535L18.4629 21.7443ZM50.2059 19.7011C50.2116 19.6879 50.2146 19.6736 50.2147 19.6592C50.2147 19.6447 50.2119 19.6304 50.2064 19.6171C50.2009 19.6038 50.1927 19.5917 50.1825 19.5816C50.1722 19.5715 50.16 19.5636 50.1467 19.5584C50.0794 19.5327 49.7443 19.4616 49.4868 19.4455C48.9919 19.4144 48.717 19.4983 48.4696 19.6099C48.2251 19.7207 47.9547 19.8989 47.8047 20.105L47.8042 19.6225C47.8042 19.5561 47.7575 19.5026 47.691 19.5026H46.6812C46.6157 19.5026 46.5682 19.5561 46.5682 19.6225V25.5282C46.5683 25.5601 46.5809 25.5907 46.6034 25.6133C46.6258 25.6358 46.6562 25.6485 46.6879 25.6486H47.7227C47.7544 25.6485 47.7848 25.6358 47.8072 25.6132C47.8296 25.5907 47.8422 25.5601 47.8422 25.5282V22.5628C47.8422 22.1657 47.8857 21.7711 47.9724 21.5223C48.0579 21.2763 48.1741 21.08 48.3173 20.9393C48.454 20.8034 48.6211 20.7025 48.8047 20.6453C48.977 20.5956 49.1554 20.5704 49.3346 20.5704C49.5408 20.5704 49.767 20.6237 49.767 20.6237C49.843 20.6322 49.8852 20.5855 49.911 20.5166C49.9787 20.3354 50.1709 19.7928 50.2084 19.6848" fill="var(--fill-0, #FFFFFE)"/>
<path id="Vector_4" fill-rule="evenodd" clip-rule="evenodd" d="M40.5413 16.9754C40.4134 16.9365 40.2833 16.9055 40.1516 16.8824C39.9746 16.8527 39.7953 16.8388 39.6158 16.8407C38.9027 16.8407 38.3405 17.0433 37.9459 17.4434C37.554 17.8404 37.2873 18.4453 37.1535 19.2412L37.1053 19.5099H36.2103C36.2103 19.5099 36.101 19.5053 36.078 19.6252L35.9311 20.4495C35.9208 20.5284 35.9546 20.5777 36.0595 20.5772H36.9308L36.0468 25.5388C35.9776 25.9383 35.8983 26.2671 35.8106 26.5161C35.7241 26.7619 35.6396 26.9461 35.5357 27.0798C35.4349 27.2092 35.3394 27.3045 35.1747 27.36C35.0388 27.406 34.8823 27.4271 34.7108 27.4271C34.6154 27.4271 34.4884 27.411 34.3947 27.3922C34.3009 27.3736 34.2522 27.3525 34.182 27.3228C34.182 27.3228 34.0797 27.2836 34.0395 27.3866C34.0067 27.4708 33.7745 28.1129 33.747 28.1923C33.7191 28.2707 33.7583 28.3326 33.8078 28.3504C33.9238 28.3921 34.01 28.4188 34.168 28.4562C34.3874 28.5082 34.5724 28.5115 34.7456 28.5115C35.1085 28.5115 35.4392 28.4602 35.7134 28.3607C35.9893 28.2604 36.2295 28.0858 36.442 27.8493C36.6717 27.5942 36.8161 27.3271 36.9543 26.9627C37.0911 26.6016 37.2075 26.1532 37.3008 25.6307L38.1891 20.5772H39.4878C39.4878 20.5772 39.5973 20.5812 39.62 20.4618L39.767 19.6375C39.7772 19.5586 39.7437 19.5094 39.6382 19.5099H38.3778C38.384 19.4812 38.4413 19.0354 38.586 18.6157C38.6477 18.4365 38.7639 18.292 38.8624 18.1928C38.9544 18.0982 39.0676 18.0274 39.1926 17.9862C39.3296 17.9436 39.4724 17.9229 39.6158 17.9249C39.7345 17.9249 39.851 17.9392 39.9397 17.9578C40.0619 17.9839 40.1094 17.9977 40.1414 18.0073C40.2699 18.0467 40.2871 18.0085 40.3123 17.946L40.6138 17.1136C40.6448 17.0242 40.5693 16.9865 40.5413 16.9754ZM22.9267 25.5493C22.9267 25.6157 22.8797 25.6697 22.8137 25.6697H21.7682C21.702 25.6697 21.655 25.6157 21.655 25.5493V17.0883C21.655 17.0222 21.702 16.9686 21.7682 16.9686H22.8137C22.8797 16.9686 22.9267 17.0222 22.9267 17.0883V25.5493Z" fill="var(--fill-0, #FFFFFE)"/>
</g>
<defs>
<clipPath id="clip0_0_63">
<rect width="68" height="48" fill="white"/>
</clipPath>
</defs>
</svg>
