<svg preserveAspectRatio="none" width="76" height="24" overflow="visible" style="display: block;" viewBox="0 0 76 24" fill="none" xmlns="http://www.w3.org/2000/svg">
<g id="Tars Frame 6 1" clip-path="url(#clip0_0_34)">
<path id="Vector" d="M62.1859 9.80996C62.3722 8.3188 62.4092 6.78538 62.2937 5.28778C62.0723 2.42756 60.1737 0.466291 57.3475 0.219273C55.389 0.0475639 53.4072 0.126545 51.4363 0.0962178C51.4096 0.0962178 51.3818 0.130219 51.3395 0.158691C51.3395 7.97171 51.3395 15.7939 51.3395 23.6253C52.5065 23.6253 53.6425 23.6253 54.8059 23.6253C54.8059 20.6898 54.8059 17.7984 54.8059 14.85C55.0207 14.8363 55.172 14.8216 55.3232 14.8197C56.1841 14.8096 56.1815 14.8115 56.4647 15.602C57.3837 18.1638 58.3008 20.7265 59.2318 23.2838C59.2851 23.4298 59.4419 23.6465 59.5555 23.6492C60.728 23.6759 61.9016 23.6657 63.1399 23.6657C61.849 20.4704 60.5906 17.3558 59.3249 14.2211C61.1435 13.2597 61.9542 11.6611 62.1859 9.80996ZM58.6366 9.95964C58.3662 11.449 57.498 12.1624 55.9766 12.2377C55.605 12.2561 55.2319 12.2405 54.8289 12.2405C54.8289 9.04236 54.8289 5.86902 54.8289 2.64887C55.7847 2.61029 56.7037 2.63509 57.5422 3.09327C58.2591 3.48444 58.6051 4.15287 58.702 4.926C58.9124 6.60451 58.9391 8.29033 58.6366 9.95964Z" fill="var(--fill-0, #6D33AA)"/>
<path id="Vector_2" d="M40.4141 0.0962178C38.9555 7.94051 37.5013 15.7591 36.0353 23.6409C37.2817 23.6409 38.4443 23.6409 39.661 23.6409C39.8733 22.2435 40.0838 20.8551 40.3005 19.4365C40.5182 19.4255 40.7038 19.408 40.8902 19.4071C41.8172 19.4043 42.7445 19.3979 43.6708 19.408C44.9405 19.4227 44.6168 19.2492 44.8261 20.4153C45.0179 21.4823 45.1674 22.5565 45.3344 23.6208C46.5595 23.6208 47.7324 23.6208 48.9484 23.6208C47.4784 15.7444 46.0173 7.91571 44.5583 0.0962178C43.1432 0.0962178 41.7923 0.0962178 40.4141 0.0962178ZM40.7185 16.7094C41.2775 12.7987 41.8358 8.89727 42.3948 4.99764C42.4595 4.99211 42.5242 4.98753 42.5878 4.98109C43.1421 8.87247 43.696 12.7657 44.2568 16.7094C43.0723 16.7094 41.9374 16.7094 40.7185 16.7094Z" fill="var(--fill-0, #6D33AA)"/>
<path id="Vector_3" d="M75.7377 16.6729C75.3361 14.9568 74.3148 13.5602 73.215 12.2223C71.8975 10.6191 70.5645 9.0288 69.255 7.4192C68.579 6.58727 68.3463 5.61215 68.4387 4.55527C68.5107 3.73625 68.9875 3.13207 69.7183 2.93465C70.9011 2.61695 71.8744 3.08524 72.3136 4.22105C72.4558 4.59018 72.5526 4.98869 72.5932 5.38167C72.6735 6.15389 72.6984 6.9316 72.7463 7.71302C73.644 7.71302 74.5133 7.71302 75.3916 7.71302C75.6858 6.49913 75.8823 5.30273 75.7026 4.076C75.4267 2.19091 74.3868 0.924691 72.5369 0.389382C71.2047 0.00280025 69.8418 -0.00821837 68.506 0.396727C66.9911 0.855818 65.9505 1.84015 65.4327 3.32855C64.9383 4.75087 65.0019 6.18695 65.4696 7.60189C65.9384 9.02145 66.827 10.1913 67.7836 11.3234C69.0679 12.844 70.3457 14.3719 71.5708 15.9402C72.2943 16.8657 72.5617 17.9749 72.4642 19.1475C72.371 20.2677 71.8193 20.8535 70.7721 20.9986C69.6427 21.1547 68.8224 20.7204 68.4471 19.7012C68.2882 19.2677 68.1914 18.8004 68.1472 18.3413C68.0752 17.6003 68.0697 16.852 68.0353 16.0797C67.1394 16.0797 66.2713 16.0797 65.2124 16.0797C65.1543 17.2073 65.0249 18.3174 65.06 19.4239C65.0951 20.5477 65.4853 21.578 66.3663 22.3658C67.5446 23.4181 68.9748 23.6788 70.4926 23.6522C72.1715 23.6228 73.6977 23.1903 74.8012 21.8433C76.0596 20.3026 76.1673 18.5148 75.7377 16.6729Z" fill="var(--fill-0, #6D33AA)"/>
<path id="Vector_4" d="M24.1255 2.81687C25.2004 2.81687 26.2264 2.81687 27.2523 2.81687C27.9185 2.81687 27.9194 2.81782 27.9194 3.48167C27.9194 9.96884 27.9194 16.4569 27.9194 22.9449C27.9194 23.1607 27.9194 23.3774 27.9194 23.607C29.1493 23.607 30.3201 23.607 31.5444 23.607C31.5444 16.6607 31.5444 9.75764 31.5444 2.80218C32.825 2.80218 34.0539 2.80218 35.2856 2.80218C35.2856 1.86011 35.2856 0.970363 35.2856 0.0962178C31.5444 0.0962178 27.8446 0.0962178 24.1255 0.0962178C24.1255 1.0016 24.1255 1.86655 24.1255 2.81687Z" fill="var(--fill-0, #6D33AA)"/>
<path id="Vector_5" d="M18.887 0.107346H2.3001C1.02965 0.107346 0 1.13204 0 2.39644V21.3372C0 22.6016 1.02965 23.6263 2.3001 23.6263H18.8879C20.1575 23.6263 21.1881 22.6007 21.1881 21.3372V2.39553C21.1871 1.13113 20.1575 0.107346 18.887 0.107346Z" fill="var(--fill-0, #6D33AA)"/>
<path id="Vector_6" opacity="0.1" d="M21.187 16.4195L8.65874 23.6255L3.44221 13.6097H6.67602L3.44221 6.63593H13.2202L14.8385 10.1517L17.7447 10.1224L21.187 16.4195Z" fill="url(#paint0_linear_0_34)"/>
<path id="Vector_7" d="M4.41001 7.64982H12.2523C12.7865 7.64982 13.2201 7.21825 13.2201 6.68662V6.58564C13.2201 6.054 12.7865 5.62244 12.2523 5.62244H4.41001C3.87578 5.62244 3.44216 6.054 3.44216 6.58564V6.68662C3.44216 7.21825 3.87578 7.64982 4.41001 7.64982Z" fill="var(--fill-0, white)"/>
<path id="Vector_8" d="M16.7768 9.11014H8.93453C8.40034 9.11014 7.9667 9.54167 7.9667 10.0733V10.1743C7.9667 10.706 8.40034 11.1375 8.93453 11.1375H16.7768C17.311 11.1375 17.7446 10.706 17.7446 10.1743V10.0733C17.7446 9.54167 17.311 9.11014 16.7768 9.11014Z" fill="var(--fill-0, white)"/>
<path id="Vector_9" d="M13.2202 13.6604V13.5595C13.2202 13.0278 12.7865 12.5962 12.2523 12.5962H4.41005C3.87585 12.5962 3.44221 13.0278 3.44221 13.5595V13.6604C3.44221 14.1921 3.87585 14.6236 4.41005 14.6236H12.2523C12.7865 14.6236 13.2202 14.1921 13.2202 13.6604Z" fill="var(--fill-0, white)"/>
<path id="Vector_10" d="M16.7768 16.0833H10.9717C10.4375 16.0833 10.0038 16.5149 10.0038 17.0465V17.1476C10.0038 17.6792 10.4375 18.1108 10.9717 18.1108H16.7768C17.311 18.1108 17.7446 17.6792 17.7446 17.1476V17.0465C17.7446 16.5149 17.311 16.0833 16.7768 16.0833Z" fill="var(--fill-0, white)"/>
</g>
<defs>
<linearGradient id="paint0_linear_0_34" x1="15.0038" y1="19.9801" x2="6.36983" y2="4.9537" gradientUnits="userSpaceOnUse">
<stop offset="0.1966" stop-color="#450B82" stop-opacity="0.09"/>
<stop offset="1"/>
</linearGradient>
<clipPath id="clip0_0_34">
<rect width="76" height="24" fill="white"/>
</clipPath>
</defs>
</svg>
