<svg width="30" height="30" viewBox="0 0 30 30" fill="none" xmlns="http://www.w3.org/2000/svg">
<g filter="url(#filter0_dd_40000155_10609)">
<rect x="3" y="2" width="24" height="24" rx="12" fill="url(#paint0_linear_40000155_10609)"/>
<rect x="3" y="2" width="24" height="24" rx="12" fill="url(#paint1_radial_40000155_10609)" fill-opacity="0.08"/>
<rect x="3" y="2" width="24" height="24" rx="12" fill="url(#paint2_radial_40000155_10609)" fill-opacity="0.18"/>
<path d="M18.9179 9.00438H11.0836C10.7963 9.00477 10.5209 9.1174 10.3178 9.31757C10.1147 9.51774 10.0004 9.78912 10 10.0722V18.9322C10.0004 19.2153 10.1147 19.4867 10.3178 19.6868C10.5209 19.887 10.7963 19.9996 11.0836 20H18.9179C19.205 19.9996 19.4802 19.8869 19.6831 19.6867C19.886 19.4865 20 19.2151 20 18.9322V10.0751C20.0013 9.9343 19.9743 9.79461 19.9206 9.66413C19.8668 9.53365 19.7873 9.41498 19.6866 9.31499C19.586 9.215 19.4662 9.13567 19.3343 9.0816C19.2023 9.02753 19.0608 8.9998 18.9179 9V9.00438ZM11.6209 12.0323C11.6205 11.9732 11.632 11.9147 11.6548 11.86C11.6775 11.8053 11.7111 11.7557 11.7535 11.7139C11.7959 11.6721 11.8463 11.6391 11.9017 11.6166C11.9572 11.5942 12.0166 11.5829 12.0766 11.5832H15.7874C15.8475 11.582 15.9073 11.5928 15.963 11.615C16.0188 11.6372 16.0694 11.6702 16.1118 11.7122C16.1543 11.7542 16.1877 11.8041 16.21 11.8592C16.2323 11.9142 16.243 11.9731 16.2416 12.0323V12.0762C16.243 12.1354 16.2323 12.1943 16.21 12.2493C16.1877 12.3044 16.1543 12.3544 16.1118 12.3963C16.0694 12.4383 16.0188 12.4713 15.963 12.4935C15.9073 12.5157 15.8475 12.5265 15.7874 12.5253H12.0766C12.0166 12.5257 11.9572 12.5143 11.9017 12.4919C11.8463 12.4694 11.7959 12.4364 11.7535 12.3946C11.7111 12.3528 11.6775 12.3032 11.6548 12.2485C11.632 12.1938 11.6205 12.1353 11.6209 12.0762V12.0323ZM11.6209 15.344V15.3001C11.6205 15.241 11.632 15.1825 11.6548 15.1278C11.6775 15.0732 11.7111 15.0235 11.7535 14.9817C11.7959 14.94 11.8463 14.9069 11.9017 14.8845C11.9572 14.862 12.0166 14.8507 12.0766 14.8511H15.7874C15.8475 14.8499 15.9073 14.8607 15.963 14.8828C16.0188 14.905 16.0694 14.9381 16.1118 14.98C16.1543 15.022 16.1877 15.072 16.21 15.127C16.2323 15.182 16.243 15.2409 16.2416 15.3001V15.344C16.243 15.4033 16.2323 15.4621 16.21 15.5172C16.1877 15.5722 16.1543 15.6222 16.1118 15.6641C16.0694 15.7061 16.0188 15.7392 15.963 15.7613C15.9073 15.7835 15.8475 15.7943 15.7874 15.7931H12.0766C11.9563 15.7912 11.8415 15.7433 11.7565 15.6595C11.6714 15.5757 11.6228 15.4625 11.6209 15.344V15.344ZM18.3791 16.9706C18.3805 17.0298 18.3697 17.0887 18.3474 17.1438C18.3251 17.1988 18.2917 17.2488 18.2493 17.2907C18.2068 17.3327 18.1562 17.3658 18.1005 17.3879C18.0447 17.4101 17.985 17.4209 17.9249 17.4197H15.1759C15.1159 17.4201 15.0565 17.4087 15.001 17.3863C14.9456 17.3639 14.8952 17.3308 14.8528 17.289C14.8104 17.2472 14.7768 17.1976 14.7541 17.1429C14.7313 17.0883 14.7198 17.0297 14.7202 16.9706V16.9267C14.7198 16.8677 14.7313 16.8091 14.7541 16.7544C14.7768 16.6998 14.8104 16.6501 14.8528 16.6083C14.8952 16.5665 14.9456 16.5335 15.001 16.5111C15.0565 16.4886 15.1159 16.4773 15.1759 16.4777H17.9159C17.976 16.4773 18.0355 16.4886 18.091 16.511C18.1466 16.5334 18.1971 16.5665 18.2396 16.6082C18.2821 16.65 18.3158 16.6996 18.3387 16.7543C18.3616 16.809 18.3733 16.8676 18.3731 16.9267V16.9706H18.3791ZM18.3791 13.7101C18.3805 13.7693 18.3697 13.8282 18.3474 13.8833C18.3251 13.9383 18.2917 13.9883 18.2493 14.0302C18.2068 14.0722 18.1562 14.1052 18.1005 14.1274C18.0447 14.1496 17.985 14.1604 17.9249 14.1592H14.214C14.1541 14.1596 14.0946 14.1482 14.0392 14.1258C13.9837 14.1034 13.9333 14.0703 13.8909 14.0285C13.8485 13.9867 13.815 13.9371 13.7922 13.8824C13.7695 13.8278 13.7579 13.7692 13.7583 13.7101V13.6662C13.7579 13.6071 13.7695 13.5486 13.7922 13.4939C13.815 13.4393 13.8485 13.3896 13.8909 13.3478C13.9333 13.306 13.9837 13.273 14.0392 13.2505C14.0946 13.2281 14.1541 13.2168 14.214 13.2172H17.9249C17.985 13.216 18.0447 13.2268 18.1005 13.2489C18.1562 13.2711 18.2068 13.3041 18.2493 13.3461C18.2917 13.3881 18.3251 13.4381 18.3474 13.4931C18.3697 13.5481 18.3805 13.607 18.3791 13.6662V13.7101Z" fill="white"/>
</g>
<defs>
<filter id="filter0_dd_40000155_10609" x="0" y="0" width="30" height="30" filterUnits="userSpaceOnUse" color-interpolation-filters="sRGB">
<feFlood flood-opacity="0" result="BackgroundImageFix"/>
<feColorMatrix in="SourceAlpha" type="matrix" values="0 0 0 0 0 0 0 0 0 0 0 0 0 0 0 0 0 0 127 0" result="hardAlpha"/>
<feOffset dy="1"/>
<feGaussianBlur stdDeviation="1"/>
<feColorMatrix type="matrix" values="0 0 0 0 0.0392157 0 0 0 0 0.0509804 0 0 0 0 0.0705882 0 0 0 0.06 0"/>
<feBlend mode="normal" in2="BackgroundImageFix" result="effect1_dropShadow_40000155_10609"/>
<feColorMatrix in="SourceAlpha" type="matrix" values="0 0 0 0 0 0 0 0 0 0 0 0 0 0 0 0 0 0 127 0" result="hardAlpha"/>
<feOffset dy="1"/>
<feGaussianBlur stdDeviation="1.5"/>
<feColorMatrix type="matrix" values="0 0 0 0 0.0392157 0 0 0 0 0.0509804 0 0 0 0 0.0705882 0 0 0 0.1 0"/>
<feBlend mode="normal" in2="effect1_dropShadow_40000155_10609" result="effect2_dropShadow_40000155_10609"/>
<feBlend mode="normal" in="SourceGraphic" in2="effect2_dropShadow_40000155_10609" result="shape"/>
</filter>
<linearGradient id="paint0_linear_40000155_10609" x1="9" y1="26" x2="21" y2="2" gradientUnits="userSpaceOnUse">
<stop stop-color="#6D33AA"/>
<stop offset="1" stop-color="#6D33AA"/>
</linearGradient>
<radialGradient id="paint1_radial_40000155_10609" cx="0" cy="0" r="1" gradientUnits="userSpaceOnUse" gradientTransform="translate(15 2) rotate(90) scale(18)">
<stop stop-color="white" stop-opacity="0"/>
<stop offset="0.5" stop-color="white" stop-opacity="0"/>
<stop offset="0.99" stop-color="white"/>
<stop offset="1" stop-color="white" stop-opacity="0"/>
</radialGradient>
<radialGradient id="paint2_radial_40000155_10609" cx="0" cy="0" r="1" gradientUnits="userSpaceOnUse" gradientTransform="translate(15 14) rotate(90) scale(12)">
<stop offset="0.746599" stop-color="white" stop-opacity="0"/>
<stop offset="1" stop-color="white"/>
</radialGradient>
</defs>
</svg>
